  0
SECTION
  2
HEADER
  9
$ACADVER
  1
AC1014
  9
$HANDSEED
  5
FFFF
  9
$MEASUREMENT
 70
     1
  0
ENDSEC
  0
SECTION
  2
TABLES
  0
TABLE
  2
VPORT
  5
8
330
0
100
AcDbSymbolTable
 70
     4
  0
VPORT
  5
2E
330
8
100
AcDbSymbolTableRecord
100
AcDbViewportTableRecord
  2
*ACTIVE
 70
     0
 10
0.0
 20
0.0
 11
1.0
 21
1.0
 12
210.0
 22
148.5
 13
0.0
 23
0.0
 14
10.0
 24
10.0
 15
10.0
 25
10.0
 16
0.0
 26
0.0
 36
1.0
 17
0.0
 27
0.0
 37
0.0
 40
341.0
 41
1.24
 42
50.0
 43
0.0
 44
0.0
 50
0.0
 51
0.0
 71
     0
 72
   100
 73
     1
 74
     3
 75
     0
 76
     0
 77
     0
 78
     0
  0
ENDTAB
  0
TABLE
  2
LTYPE
  5
5
330
0
100
AcDbSymbolTable
 70
     1
  0
LTYPE
  5
14
330
5
100
AcDbSymbolTableRecord
100
AcDbLinetypeTableRecord
  2
BYBLOCK
 70
     0
  3

 72
    65
 73
     0
 40
0.0
  0
LTYPE
  5
15
330
5
100
AcDbSymbolTableRecord
100
AcDbLinetypeTableRecord
  2
BYLAYER
 70
     0
  3

 72
    65
 73
     0
 40
0.0
  0
LTYPE
  5
16
330
5
100
AcDbSymbolTableRecord
100
AcDbLinetypeTableRecord
  2
CONTINUOUS
 70
     0
  3
Solid line
 72
    65
 73
     0
 40
0.0
  0
ENDTAB
  0
TABLE
  2
LAYER
  5
2
100
AcDbSymbolTable
 70
1
  0
LAYER
  5
50
100
AcDbSymbolTableRecord
100
AcDbLayerTableRecord
  2
0
 70
0
  6
CONTINUOUS
  0
ENDTAB
  0
TABLE
  2
STYLE
  5
3
330
0
100
AcDbSymbolTable
 70
     1
  0
STYLE
  5
11
330
3
100
AcDbSymbolTableRecord
100
AcDbTextStyleTableRecord
  2
STANDARD
 70
     0
 40
0.0
 41
1.0
 50
0.0
 71
     0
 42
2.5
  3
txt
  4

  0
ENDTAB
  0
TABLE
  2
VIEW
  5
6
330
0
100
AcDbSymbolTable
 70
     0
  0
ENDTAB
  0
TABLE
  2
UCS
  5
7
330
0
100
AcDbSymbolTable
 70
     0
  0
ENDTAB
  0
TABLE
  2
APPID
  5
9
330
0
100
AcDbSymbolTable
 70
     2
  0
APPID
  5
12
330
9
100
AcDbSymbolTableRecord
100
AcDbRegAppTableRecord
  2
ACAD
 70
     0
  0
ENDTAB
  0
TABLE
  2
DIMSTYLE
  5
A
330
0
100
AcDbSymbolTable
 70
     1
  0
DIMSTYLE
105
27
330
A
100
AcDbSymbolTableRecord
100
AcDbDimStyleTableRecord
  2
ISO-25
 70
     0
  3

  4

  5

  6

  7

 40
1.0
 41
2.5
 42
0.625
 43
3.75
 44
1.25
 45
0.0
 46
0.0
 47
0.0
 48
0.0
140
2.5
141
2.5
142
0.0
143
0.03937007874016
144
1.0
145
0.0
146
1.0
147
0.625
 71
     0
 72
     0
 73
     0
 74
     0
 75
     0
 76
     0
 77
     1
 78
     8
170
     0
171
     3
172
     1
173
     0
174
     0
175
     0
176
     0
177
     0
178
     0
270
     2
271
     2
272
     2
273
     2
274
     3
340
11
275
     0
280
     0
281
     0
282
     0
283
     0
284
     8
285
     0
286
     0
287
     3
288
     0
  0
ENDTAB
  0
TABLE
  2
BLOCK_RECORD
  5
1
330
0
100
AcDbSymbolTable
 70
     1
  0
BLOCK_RECORD
  5
1F
330
1
100
AcDbSymbolTableRecord
100
AcDbBlockTableRecord
  2
*MODEL_SPACE
  0
BLOCK_RECORD
  5
1B
330
1
100
AcDbSymbolTableRecord
100
AcDbBlockTableRecord
  2
*PAPER_SPACE
  0
ENDTAB
  0
ENDSEC
  0
SECTION
  2
BLOCKS
  0
BLOCK
  5
20
330
1F
100
AcDbEntity
  8
0
100
AcDbBlockBegin
  2
*MODEL_SPACE
 70
     0
 10
0.0
 20
0.0
 30
0.0
  3
*MODEL_SPACE
  1

  0
ENDBLK
  5
21
330
1F
100
AcDbEntity
  8
0
100
AcDbBlockEnd
  0
BLOCK
  5
1C
330
1B
100
AcDbEntity
 67
     1
  8
0
100
AcDbBlockBegin
  2
*PAPER_SPACE
  1

  0
ENDBLK
  5
1D
330
1B
100
AcDbEntity
 67
     1
  8
0
100
AcDbBlockEnd
  0
ENDSEC
  0
SECTION
  2
ENTITIES
  0
SPLINE
  5
100
100
AcDbEntity
  8
0
 62
7
100
AcDbSpline
 70
8
 71
3
 72
8
 73
4
 74
0
 40
0
 40
0
 40
0
 40
0
 40
1
 40
1
 40
1
 40
1
 10
368.399800
 20
184.599968
 30
0.0
 10
368.399800
 20
83.090168
 30
0.0
 10
286.109632
 20
0.800000
 30
0.0
 10
184.599832
 20
0.800000
 30
0.0
  0
SPLINE
  5
101
100
AcDbEntity
  8
0
 62
7
100
AcDbSpline
 70
8
 71
3
 72
8
 73
4
 74
0
 40
0
 40
0
 40
0
 40
0
 40
1
 40
1
 40
1
 40
1
 10
184.599832
 20
0.800000
 30
0.0
 10
83.090040
 20
0.800000
 30
0.0
 10
0.800000
 20
83.090168
 30
0.0
 10
0.800000
 20
184.599968
 30
0.0
  0
SPLINE
  5
102
100
AcDbEntity
  8
0
 62
7
100
AcDbSpline
 70
8
 71
3
 72
8
 73
4
 74
0
 40
0
 40
0
 40
0
 40
0
 40
1
 40
1
 40
1
 40
1
 10
0.800000
 20
184.599968
 30
0.0
 10
0.800000
 20
286.109440
 30
0.0
 10
83.090040
 20
368.399608
 30
0.0
 10
184.599832
 20
368.399608
 30
0.0
  0
SPLINE
  5
103
100
AcDbEntity
  8
0
 62
7
100
AcDbSpline
 70
8
 71
3
 72
8
 73
4
 74
0
 40
0
 40
0
 40
0
 40
0
 40
1
 40
1
 40
1
 40
1
 10
184.599832
 20
368.399608
 30
0.0
 10
286.109632
 20
368.399608
 30
0.0
 10
368.399800
 20
286.109440
 30
0.0
 10
368.399800
 20
184.599960
 30
0.0
  0
SPLINE
  5
104
100
AcDbEntity
  8
0
 62
7
100
AcDbSpline
 70
8
 71
3
 72
8
 73
4
 74
0
 40
0
 40
0
 40
0
 40
0
 40
1
 40
1
 40
1
 40
1
 10
358.028872
 20
184.599968
 30
0.0
 10
358.028872
 20
88.817776
 30
0.0
 10
280.382024
 20
11.170928
 30
0.0
 10
184.599832
 20
11.170928
 30
0.0
  0
SPLINE
  5
105
100
AcDbEntity
  8
0
 62
7
100
AcDbSpline
 70
8
 71
3
 72
8
 73
4
 74
0
 40
0
 40
0
 40
0
 40
0
 40
1
 40
1
 40
1
 40
1
 10
184.599832
 20
11.170928
 30
0.0
 10
88.817584
 20
11.170928
 30
0.0
 10
11.170928
 20
88.817776
 30
0.0
 10
11.170928
 20
184.599968
 30
0.0
  0
SPLINE
  5
106
100
AcDbEntity
  8
0
 62
7
100
AcDbSpline
 70
8
 71
3
 72
8
 73
4
 74
0
 40
0
 40
0
 40
0
 40
0
 40
1
 40
1
 40
1
 40
1
 10
11.170928
 20
184.599968
 30
0.0
 10
11.170928
 20
280.381896
 30
0.0
 10
88.817584
 20
358.028744
 30
0.0
 10
184.599832
 20
358.028744
 30
0.0
  0
SPLINE
  5
107
100
AcDbEntity
  8
0
 62
7
100
AcDbSpline
 70
8
 71
3
 72
8
 73
4
 74
0
 40
0
 40
0
 40
0
 40
0
 40
1
 40
1
 40
1
 40
1
 10
184.599832
 20
358.028744
 30
0.0
 10
280.382024
 20
358.028744
 30
0.0
 10
358.028872
 20
280.381896
 30
0.0
 10
358.028872
 20
184.599960
 30
0.0
  0
LWPOLYLINE
  5
108
100
AcDbEntity
  8
0
 62
7
100
AcDbPolyline
 90
2
 70
1
 10
368.399800
 20
184.599960
 30
0.0
 10
368.399800
 20
184.599968
 30
0.0
  0
SPLINE
  5
109
100
AcDbEntity
  8
0
 62
7
100
AcDbSpline
 70
8
 71
3
 72
8
 73
4
 74
0
 40
0
 40
0
 40
0
 40
0
 40
1
 40
1
 40
1
 40
1
 10
346.715824
 20
184.599968
 30
0.0
 10
346.715824
 20
95.066064
 30
0.0
 10
274.133728
 20
22.483984
 30
0.0
 10
184.599832
 20
22.483984
 30
0.0
  0
SPLINE
  5
10a
100
AcDbEntity
  8
0
 62
7
100
AcDbSpline
 70
8
 71
3
 72
8
 73
4
 74
0
 40
0
 40
0
 40
0
 40
0
 40
1
 40
1
 40
1
 40
1
 10
184.599832
 20
22.483984
 30
0.0
 10
95.066192
 20
22.483984
 30
0.0
 10
22.484176
 20
95.066064
 30
0.0
 10
22.484176
 20
184.599968
 30
0.0
  0
SPLINE
  5
10b
100
AcDbEntity
  8
0
 62
7
100
AcDbSpline
 70
8
 71
3
 72
8
 73
4
 74
0
 40
0
 40
0
 40
0
 40
0
 40
1
 40
1
 40
1
 40
1
 10
22.484176
 20
184.599968
 30
0.0
 10
22.484176
 20
274.133536
 30
0.0
 10
95.066192
 20
346.715624
 30
0.0
 10
184.599832
 20
346.715624
 30
0.0
  0
SPLINE
  5
10c
100
AcDbEntity
  8
0
 62
7
100
AcDbSpline
 70
8
 71
3
 72
8
 73
4
 74
0
 40
0
 40
0
 40
0
 40
0
 40
1
 40
1
 40
1
 40
1
 10
184.599832
 20
346.715624
 30
0.0
 10
274.133728
 20
346.715624
 30
0.0
 10
346.715824
 20
274.133544
 30
0.0
 10
346.715824
 20
184.599968
 30
0.0
  0
LWPOLYLINE
  5
10d
100
AcDbEntity
  8
0
 62
7
100
AcDbPolyline
 90
2
 70
1
 10
358.028872
 20
184.599960
 30
0.0
 10
358.028872
 20
184.599968
 30
0.0
  0
SPLINE
  5
10e
100
AcDbEntity
  8
0
 62
7
100
AcDbSpline
 70
8
 71
3
 72
8
 73
4
 74
0
 40
0
 40
0
 40
0
 40
0
 40
1
 40
1
 40
1
 40
1
 10
198.779120
 20
270.548104
 30
0.0
 10
167.322312
 20
270.548104
 30
0.0
 10
145.831096
 20
238.103648
 30
0.0
 10
145.831096
 20
205.812200
 30
0.0
  0
SPLINE
  5
10f
100
AcDbEntity
  8
0
 62
7
100
AcDbSpline
 70
8
 71
3
 72
8
 73
4
 74
0
 40
0
 40
0
 40
0
 40
0
 40
1
 40
1
 40
1
 40
1
 10
145.831096
 20
205.812200
 30
0.0
 10
145.831096
 20
179.484248
 30
0.0
 10
164.219736
 20
168.289080
 30
0.0
 10
181.048600
 20
168.289080
 30
0.0
  0
SPLINE
  5
110
100
AcDbEntity
  8
0
 62
7
100
AcDbSpline
 70
8
 71
3
 72
8
 73
4
 74
0
 40
0
 40
0
 40
0
 40
0
 40
1
 40
1
 40
1
 40
1
 10
181.048600
 20
168.289080
 30
0.0
 10
183.430792
 20
168.289080
 30
0.0
 10
185.704720
 20
168.497560
 30
0.0
 10
187.884264
 20
168.889840
 30
0.0
  0
SPLINE
  5
111
100
AcDbEntity
  8
0
 62
7
100
AcDbSpline
 70
8
 71
3
 72
8
 73
4
 74
0
 40
0
 40
0
 40
0
 40
0
 40
1
 40
1
 40
1
 40
1
 10
187.884264
 20
168.889840
 30
0.0
 10
198.237728
 20
159.466808
 30
0.0
 10
211.557440
 20
151.988168
 30
0.0
 10
211.557440
 20
140.426824
 30
0.0
  0
SPLINE
  5
112
100
AcDbEntity
  8
0
 62
7
100
AcDbSpline
 70
8
 71
3
 72
8
 73
4
 74
0
 40
0
 40
0
 40
0
 40
0
 40
1
 40
1
 40
1
 40
1
 10
211.557440
 20
140.426824
 30
0.0
 10
211.557440
 20
137.517520
 30
0.0
 10
209.663592
 20
122.095536
 30
0.0
 10
193.372288
 20
122.095536
 30
0.0
  0
SPLINE
  5
113
100
AcDbEntity
  8
0
 62
7
100
AcDbSpline
 70
8
 71
3
 72
8
 73
4
 74
0
 40
0
 40
0
 40
0
 40
0
 40
1
 40
1
 40
1
 40
1
 10
193.372288
 20
122.095536
 30
0.0
 10
187.262912
 20
122.095536
 30
0.0
 10
171.708376
 20
124.419336
 30
0.0
 10
170.835680
 20
149.438216
 30
0.0
  0
LWPOLYLINE
  5
114
100
AcDbEntity
  8
0
 62
7
100
AcDbPolyline
 90
2
 70
1
 10
346.715824
 20
184.599968
 30
0.0
 10
346.715824
 20
184.599968
 30
0.0
  0
SPLINE
  5
115
100
AcDbEntity
  8
0
 62
7
100
AcDbSpline
 70
8
 71
3
 72
8
 73
4
 74
0
 40
0
 40
0
 40
0
 40
0
 40
1
 40
1
 40
1
 40
1
 10
165.737344
 20
117.159568
 30
0.0
 10
167.192024
 20
120.504920
 30
0.0
 10
167.929896
 20
122.241664
 30
0.0
 10
171.566336
 20
122.241664
 30
0.0
  0
SPLINE
  5
116
100
AcDbEntity
  8
0
 62
7
100
AcDbSpline
 70
8
 71
3
 72
8
 73
4
 74
0
 40
0
 40
0
 40
0
 40
0
 40
1
 40
1
 40
1
 40
1
 10
171.566336
 20
122.241664
 30
0.0
 10
175.639160
 20
122.241664
 30
0.0
 10
184.070384
 20
117.159568
 30
0.0
 10
194.979728
 20
117.159568
 30
0.0
  0
SPLINE
  5
117
100
AcDbEntity
  8
0
 62
7
100
AcDbSpline
 70
8
 71
3
 72
8
 73
4
 74
0
 40
0
 40
0
 40
0
 40
0
 40
1
 40
1
 40
1
 40
1
 10
194.979728
 20
117.159568
 30
0.0
 10
217.525360
 20
117.159568
 30
0.0
 10
229.158072
 20
128.792544
 30
0.0
 10
229.158072
 20
147.993144
 30
0.0
  0
SPLINE
  5
118
100
AcDbEntity
  8
0
 62
7
100
AcDbSpline
 70
8
 71
3
 72
8
 73
4
 74
0
 40
0
 40
0
 40
0
 40
0
 40
1
 40
1
 40
1
 40
1
 10
229.158072
 20
147.993144
 30
0.0
 10
229.158072
 20
158.175016
 30
0.0
 10
222.763136
 20
166.467640
 30
0.0
 10
216.217392
 20
172.867840
 30
0.0
  0
SPLINE
  5
119
100
AcDbEntity
  8
0
 62
7
100
AcDbSpline
 70
8
 71
3
 72
8
 73
4
 74
0
 40
0
 40
0
 40
0
 40
0
 40
1
 40
1
 40
1
 40
1
 10
216.217392
 20
172.867840
 30
0.0
 10
213.379072
 20
175.582432
 30
0.0
 10
210.731704
 20
177.793488
 30
0.0
 10
208.310096
 20
179.719744
 30
0.0
  0
SPLINE
  5
11a
100
AcDbEntity
  8
0
 62
7
100
AcDbSpline
 70
8
 71
3
 72
8
 73
4
 74
0
 40
0
 40
0
 40
0
 40
0
 40
1
 40
1
 40
1
 40
1
 10
208.310096
 20
179.719744
 30
0.0
 10
211.490872
 20
182.842136
 30
0.0
 10
214.147400
 20
186.370840
 30
0.0
 10
216.266096
 20
189.965136
 30
0.0
  0
LWPOLYLINE
  5
11b
100
AcDbEntity
  8
0
 62
7
100
AcDbPolyline
 90
4
 70
1
 10
170.835680
 20
149.438216
 30
0.0
 10
166.614128
 20
149.730480
 30
0.0
 10
161.385896
 20
117.159568
 30
0.0
 10
165.737344
 20
117.159568
 30
0.0
  0
SPLINE
  5
11c
100
AcDbEntity
  8
0
 62
7
100
AcDbSpline
 70
8
 71
3
 72
8
 73
4
 74
0
 40
0
 40
0
 40
0
 40
0
 40
1
 40
1
 40
1
 40
1
 10
212.369280
 20
193.163776
 30
0.0
 10
209.418152
 20
188.984760
 30
0.0
 10
206.582048
 20
185.743064
 30
0.0
 10
203.763800
 20
183.259360
 30
0.0
  0
SPLINE
  5
11d
100
AcDbEntity
  8
0
 62
7
100
AcDbSpline
 70
8
 71
3
 72
8
 73
4
 74
0
 40
0
 40
0
 40
0
 40
0
 40
1
 40
1
 40
1
 40
1
 10
203.763800
 20
183.259360
 30
0.0
 10
197.407960
 20
188.173504
 30
0.0
 10
193.518416
 20
191.515288
 30
0.0
 10
193.518416
 20
198.749216
 30
0.0
  0
SPLINE
  5
11e
100
AcDbEntity
  8
0
 62
7
100
AcDbSpline
 70
8
 71
3
 72
8
 73
4
 74
0
 40
0
 40
0
 40
0
 40
0
 40
1
 40
1
 40
1
 40
1
 10
193.518416
 20
198.749216
 30
0.0
 10
193.518416
 20
200.349056
 30
0.0
 10
193.668312
 20
214.320256
 30
0.0
 10
208.504936
 20
214.320256
 30
0.0
  0
SPLINE
  5
11f
100
AcDbEntity
  8
0
 62
7
100
AcDbSpline
 70
8
 71
3
 72
8
 73
4
 74
0
 40
0
 40
0
 40
0
 40
0
 40
1
 40
1
 40
1
 40
1
 10
208.504936
 20
214.320256
 30
0.0
 10
225.087072
 20
214.320256
 30
0.0
 10
226.986376
 20
198.321544
 30
0.0
 10
227.859136
 20
190.176208
 30
0.0
  0
LWPOLYLINE
  5
120
100
AcDbEntity
  8
0
 62
7
100
AcDbPolyline
 90
2
 70
1
 10
216.266096
 20
189.965136
 30
0.0
 10
212.369280
 20
193.163776
 30
0.0
  0
SPLINE
  5
121
100
AcDbEntity
  8
0
 62
7
100
AcDbSpline
 70
8
 71
3
 72
8
 73
4
 74
0
 40
0
 40
0
 40
0
 40
0
 40
1
 40
1
 40
1
 40
1
 10
233.233496
 20
218.834072
 30
0.0
 10
231.487720
 20
215.052336
 30
0.0
 10
227.418144
 20
215.050904
 30
0.0
 10
226.836224
 20
215.050904
 30
0.0
  0
SPLINE
  5
122
100
AcDbEntity
  8
0
 62
7
100
AcDbSpline
 70
8
 71
3
 72
8
 73
4
 74
0
 40
0
 40
0
 40
0
 40
0
 40
1
 40
1
 40
1
 40
1
 10
226.836224
 20
215.050904
 30
0.0
 10
222.472560
 20
215.050904
 30
0.0
 10
214.035888
 20
219.402352
 30
0.0
 10
205.744688
 20
219.402352
 30
0.0
  0
SPLINE
  5
123
100
AcDbEntity
  8
0
 62
7
100
AcDbSpline
 70
8
 71
3
 72
8
 73
4
 74
0
 40
0
 40
0
 40
0
 40
0
 40
1
 40
1
 40
1
 40
1
 10
205.744688
 20
219.402352
 30
0.0
 10
186.253576
 20
219.402352
 30
0.0
 10
175.917784
 20
205.451808
 30
0.0
 10
175.917784
 20
190.760736
 30
0.0
  0
SPLINE
  5
124
100
AcDbEntity
  8
0
 62
7
100
AcDbSpline
 70
8
 71
3
 72
8
 73
4
 74
0
 40
0
 40
0
 40
0
 40
0
 40
1
 40
1
 40
1
 40
1
 10
175.917784
 20
190.760736
 30
0.0
 10
175.917784
 20
185.208872
 30
0.0
 10
177.927832
 20
180.512024
 30
0.0
 10
180.983648
 20
176.342504
 30
0.0
  0
SPLINE
  5
125
100
AcDbEntity
  8
0
 62
7
100
AcDbSpline
 70
8
 71
3
 72
8
 73
4
 74
0
 40
0
 40
0
 40
0
 40
0
 40
1
 40
1
 40
1
 40
1
 10
180.983648
 20
176.342504
 30
0.0
 10
175.528432
 20
177.470240
 30
0.0
 10
165.769816
 20
182.201176
 30
0.0
 10
165.769816
 20
202.029040
 30
0.0
  0
SPLINE
  5
126
100
AcDbEntity
  8
0
 62
7
100
AcDbSpline
 70
8
 71
3
 72
8
 73
4
 74
0
 40
0
 40
0
 40
0
 40
0
 40
1
 40
1
 40
1
 40
1
 10
165.769816
 20
202.029040
 30
0.0
 10
165.769816
 20
227.775064
 30
0.0
 10
180.924936
 20
265.449768
 30
0.0
 10
201.766688
 20
265.449768
 30
0.0
  0
SPLINE
  5
127
100
AcDbEntity
  8
0
 62
7
100
AcDbSpline
 70
8
 71
3
 72
8
 73
4
 74
0
 40
0
 40
0
 40
0
 40
0
 40
1
 40
1
 40
1
 40
1
 10
201.766688
 20
265.449768
 30
0.0
 10
213.029008
 20
265.449768
 30
0.0
 10
218.977632
 20
256.437856
 30
0.0
 10
218.977632
 20
242.328640
 30
0.0
  0
SPLINE
  5
128
100
AcDbEntity
  8
0
 62
7
100
AcDbSpline
 70
8
 71
3
 72
8
 73
4
 74
0
 40
0
 40
0
 40
0
 40
0
 40
1
 40
1
 40
1
 40
1
 10
218.977632
 20
242.328640
 30
0.0
 10
218.977632
 20
240.728480
 30
0.0
 10
218.847024
 20
238.976336
 30
0.0
 10
218.587952
 20
237.376432
 30
0.0
  0
LWPOLYLINE
  5
129
100
AcDbEntity
  8
0
 62
7
100
AcDbPolyline
 90
4
 70
1
 10
227.859136
 20
190.176208
 30
0.0
 10
231.772192
 20
189.591688
 30
0.0
 10
237.601184
 20
218.834072
 30
0.0
 10
233.233496
 20
218.834072
 30
0.0
  0
SPLINE
  5
12a
100
AcDbEntity
  8
0
 62
7
100
AcDbSpline
 70
8
 71
3
 72
8
 73
4
 74
0
 40
0
 40
0
 40
0
 40
0
 40
1
 40
1
 40
1
 40
1
 10
225.456096
 20
270.548104
 30
0.0
 10
224.161576
 20
268.220736
 30
0.0
 10
223.124696
 20
266.326552
 30
0.0
 10
220.276576
 20
266.326552
 30
0.0
  0
SPLINE
  5
12b
100
AcDbEntity
  8
0
 62
7
100
AcDbSpline
 70
8
 71
3
 72
8
 73
4
 74
0
 40
0
 40
0
 40
0
 40
0
 40
1
 40
1
 40
1
 40
1
 10
220.276576
 20
266.326552
 30
0.0
 10
217.169712
 20
266.326552
 30
0.0
 10
209.912080
 20
270.548104
 30
0.0
 10
198.779120
 20
270.548104
 30
0.0
  0
LWPOLYLINE
  5
12c
100
AcDbEntity
  8
0
 62
7
100
AcDbPolyline
 90
4
 70
1
 10
218.587952
 20
237.376432
 30
0.0
 10
222.728320
 20
236.499648
 30
0.0
 10
229.336680
 20
270.548104
 30
0.0
 10
225.456096
 20
270.548104
 30
0.0
  0
LWPOLYLINE
  5
12d
100
AcDbEntity
  8
0
 62
7
100
AcDbPolyline
 90
2
 70
1
 10
198.779120
 20
270.548104
 30
0.0
 10
198.779120
 20
270.548104
 30
0.0
  0
SPLINE
  5
12e
100
AcDbEntity
  8
0
 62
7
100
AcDbSpline
 70
8
 71
3
 72
8
 73
4
 74
0
 40
0
 40
0
 40
0
 40
0
 40
1
 40
1
 40
1
 40
1
 10
86.680632
 20
264.572984
 30
0.0
 10
94.706712
 20
263.409136
 30
0.0
 10
96.130416
 20
263.122712
 30
0.0
 10
96.130416
 20
258.467968
 30
0.0
  0
SPLINE
  5
12f
100
AcDbEntity
  8
0
 62
7
100
AcDbSpline
 70
8
 71
3
 72
8
 73
4
 74
0
 40
0
 40
0
 40
0
 40
0
 40
1
 40
1
 40
1
 40
1
 10
96.130416
 20
258.467968
 30
0.0
 10
96.130416
 20
256.286464
 30
0.0
 10
95.090544
 20
251.480640
 30
0.0
 10
94.831472
 20
250.317120
 30
0.0
  0
LWPOLYLINE
  5
130
100
AcDbEntity
  8
0
 62
7
100
AcDbPolyline
 90
2
 70
1
 10
86.680632
 20
268.210016
 30
0.0
 10
86.680632
 20
264.572984
 30
0.0
  0
SPLINE
  5
131
100
AcDbEntity
  8
0
 62
7
100
AcDbSpline
 70
8
 71
3
 72
8
 73
4
 74
0
 40
0
 40
0
 40
0
 40
0
 40
1
 40
1
 40
1
 40
1
 10
78.903224
 20
185.012928
 30
0.0
 10
76.702696
 20
175.994584
 30
0.0
 10
73.738384
 20
175.558464
 30
0.0
 10
68.560416
 20
174.540224
 30
0.0
  0
LWPOLYLINE
  5
132
100
AcDbEntity
  8
0
 62
7
100
AcDbPolyline
 90
2
 70
1
 10
94.831472
 20
250.317120
 30
0.0
 10
78.903224
 20
185.012928
 30
0.0
  0
SPLINE
  5
133
100
AcDbEntity
  8
0
 62
7
100
AcDbSpline
 70
8
 71
3
 72
8
 73
4
 74
0
 40
0
 40
0
 40
0
 40
0
 40
1
 40
1
 40
1
 40
1
 10
106.749248
 20
174.540224
 30
0.0
 10
99.888576
 20
174.976536
 30
0.0
 10
97.543008
 20
176.428880
 30
0.0
 10
97.543008
 20
181.083632
 30
0.0
  0
SPLINE
  5
134
100
AcDbEntity
  8
0
 62
7
100
AcDbSpline
 70
8
 71
3
 72
8
 73
4
 74
0
 40
0
 40
0
 40
0
 40
0
 40
1
 40
1
 40
1
 40
1
 10
97.543008
 20
181.083632
 30
0.0
 10
97.543008
 20
184.138152
 30
0.0
 10
98.973856
 20
188.498304
 30
0.0
 10
99.491424
 20
190.825680
 30
0.0
  0
LWPOLYLINE
  5
135
100
AcDbEntity
  8
0
 62
7
100
AcDbPolyline
 90
4
 70
1
 10
68.560416
 20
174.540224
 30
0.0
 10
68.560416
 20
170.903192
 30
0.0
 10
106.749248
 20
170.903192
 30
0.0
 10
106.749248
 20
174.540224
 30
0.0
  0
SPLINE
  5
136
100
AcDbEntity
  8
0
 62
7
100
AcDbSpline
 70
8
 71
3
 72
8
 73
4
 74
0
 40
0
 40
0
 40
0
 40
0
 40
1
 40
1
 40
1
 40
1
 10
106.489456
 20
220.068064
 30
0.0
 10
120.858648
 20
220.068064
 30
0.0
 10
124.219984
 20
216.287824
 30
0.0
 10
124.219984
 20
206.396720
 30
0.0
  0
SPLINE
  5
137
100
AcDbEntity
  8
0
 62
7
100
AcDbSpline
 70
8
 71
3
 72
8
 73
4
 74
0
 40
0
 40
0
 40
0
 40
0
 40
1
 40
1
 40
1
 40
1
 10
124.219984
 20
206.396720
 30
0.0
 10
124.219984
 20
204.796816
 30
0.0
 10
124.088608
 20
203.202176
 30
0.0
 10
123.700408
 20
200.583968
 30
0.0
  0
LWPOLYLINE
  5
138
100
AcDbEntity
  8
0
 62
7
100
AcDbPolyline
 90
2
 70
1
 10
99.491424
 20
190.825680
 30
0.0
 10
106.489456
 20
220.068064
 30
0.0
  0
SPLINE
  5
139
100
AcDbEntity
  8
0
 62
7
100
AcDbSpline
 70
8
 71
3
 72
8
 73
4
 74
0
 40
0
 40
0
 40
0
 40
0
 40
1
 40
1
 40
1
 40
1
 10
133.280088
 20
240.136680
 30
0.0
 10
127.583920
 20
227.918528
 30
0.0
 10
126.024344
 20
224.728008
 30
0.0
 10
107.642264
 20
224.728008
 30
0.0
  0
LWPOLYLINE
  5
13a
100
AcDbEntity
  8
0
 62
7
100
AcDbPolyline
 90
4
 70
1
 10
123.700408
 20
200.583968
 30
0.0
 10
127.321200
 20
199.853312
 30
0.0
 10
136.900880
 20
239.552160
 30
0.0
 10
133.280088
 20
240.136680
 30
0.0
  0
SPLINE
  5
13b
100
AcDbEntity
  8
0
 62
7
100
AcDbSpline
 70
8
 71
3
 72
8
 73
4
 74
0
 40
0
 40
0
 40
0
 40
0
 40
1
 40
1
 40
1
 40
1
 10
115.549560
 20
257.152792
 30
0.0
 10
116.714384
 20
261.807536
 30
0.0
 10
118.131864
 20
263.566304
 30
0.0
 10
123.180832
 20
263.566304
 30
0.0
  0
SPLINE
  5
13c
100
AcDbEntity
  8
0
 62
7
100
AcDbSpline
 70
8
 71
3
 72
8
 73
4
 74
0
 40
0
 40
0
 40
0
 40
0
 40
1
 40
1
 40
1
 40
1
 10
123.180832
 20
263.566304
 30
0.0
 10
146.611496
 20
263.566304
 30
0.0
 10
146.610456
 20
251.196824
 30
0.0
 10
146.610456
 20
241.305728
 30
0.0
  0
LWPOLYLINE
  5
13d
100
AcDbEntity
  8
0
 62
7
100
AcDbPolyline
 90
2
 70
1
 10
107.642264
 20
224.728008
 30
0.0
 10
115.549560
 20
257.152792
 30
0.0
  0
SPLINE
  5
13e
100
AcDbEntity
  8
0
 62
7
100
AcDbSpline
 70
8
 71
3
 72
8
 73
4
 74
0
 40
0
 40
0
 40
0
 40
0
 40
1
 40
1
 40
1
 40
1
 10
290.451792
 20
219.402352
 30
0.0
 10
256.664808
 20
219.402352
 30
0.0
 10
235.945032
 20
185.657784
 30
0.0
 10
235.945032
 20
156.566144
 30
0.0
  0
SPLINE
  5
13f
100
AcDbEntity
  8
0
 62
7
100
AcDbSpline
 70
8
 71
3
 72
8
 73
4
 74
0
 40
0
 40
0
 40
0
 40
0
 40
1
 40
1
 40
1
 40
1
 10
235.945032
 20
156.566144
 30
0.0
 10
235.945032
 20
130.820384
 30
0.0
 10
253.553664
 20
117.159568
 30
0.0
 10
274.913224
 20
117.159568
 30
0.0
  0
SPLINE
  5
140
100
AcDbEntity
  8
0
 62
7
100
AcDbSpline
 70
8
 71
3
 72
8
 73
4
 74
0
 40
0
 40
0
 40
0
 40
0
 40
1
 40
1
 40
1
 40
1
 10
274.913224
 20
117.159568
 30
0.0
 10
284.751656
 20
117.159568
 30
0.0
 10
297.570824
 20
120.212912
 30
0.0
 10
304.561520
 20
123.849104
 30
0.0
  0
LWPOLYLINE
  5
141
100
AcDbEntity
  8
0
 62
7
100
AcDbPolyline
 90
5
 70
1
 10
146.610456
 20
241.305728
 30
0.0
 10
150.101360
 20
240.575072
 30
0.0
 10
155.670560
 20
268.210016
 30
0.0
 10
86.680632
 20
268.210016
 30
0.0
 10
86.680632
 20
268.210016
 30
0.0
  0
SPLINE
  5
142
100
AcDbEntity
  8
0
 62
7
100
AcDbSpline
 70
8
 71
3
 72
8
 73
4
 74
0
 40
0
 40
0
 40
0
 40
0
 40
1
 40
1
 40
1
 40
1
 10
314.400992
 20
152.068568
 30
0.0
 10
316.731160
 20
162.105216
 30
0.0
 10
317.769528
 20
163.404736
 30
0.0
 10
324.630144
 20
163.986344
 30
0.0
  0
LWPOLYLINE
  5
143
100
AcDbEntity
  8
0
 62
7
100
AcDbPolyline
 90
3
 70
1
 10
304.561520
 20
123.849104
 30
0.0
 10
308.182320
 20
125.732568
 30
0.0
 10
314.400992
 20
152.068568
 30
0.0
  0
SPLINE
  5
144
100
AcDbEntity
  8
0
 62
7
100
AcDbSpline
 70
8
 71
3
 72
8
 73
4
 74
0
 40
0
 40
0
 40
0
 40
0
 40
1
 40
1
 40
1
 40
1
 10
287.480464
 20
163.986344
 30
0.0
 10
294.600216
 20
163.259192
 30
0.0
 10
297.060144
 20
162.972392
 30
0.0
 10
297.060144
 20
157.881320
 30
0.0
  0
SPLINE
  5
145
100
AcDbEntity
  8
0
 62
7
100
AcDbSpline
 70
8
 71
3
 72
8
 73
4
 74
0
 40
0
 40
0
 40
0
 40
0
 40
1
 40
1
 40
1
 40
1
 10
297.060144
 20
157.881320
 30
0.0
 10
297.060144
 20
152.644648
 30
0.0
 10
290.579608
 20
128.926600
 30
0.0
 10
290.062112
 20
127.908288
 30
0.0
  0
SPLINE
  5
146
100
AcDbEntity
  8
0
 62
7
100
AcDbSpline
 70
8
 71
3
 72
8
 73
4
 74
0
 40
0
 40
0
 40
0
 40
0
 40
1
 40
1
 40
1
 40
1
 10
290.062112
 20
127.908288
 30
0.0
 10
288.249440
 20
124.563000
 30
0.0
 10
282.687704
 20
122.680056
 30
0.0
 10
276.991528
 20
122.680056
 30
0.0
  0
SPLINE
  5
147
100
AcDbEntity
  8
0
 62
7
100
AcDbSpline
 70
8
 71
3
 72
8
 73
4
 74
0
 40
0
 40
0
 40
0
 40
0
 40
1
 40
1
 40
1
 40
1
 10
276.991528
 20
122.680056
 30
0.0
 10
272.719904
 20
122.680056
 30
0.0
 10
256.143544
 20
124.126560
 30
0.0
 10
256.143544
 20
148.999824
 30
0.0
  0
SPLINE
  5
148
100
AcDbEntity
  8
0
 62
7
100
AcDbSpline
 70
8
 71
3
 72
8
 73
4
 74
0
 40
0
 40
0
 40
0
 40
0
 40
1
 40
1
 40
1
 40
1
 10
256.143544
 20
148.999824
 30
0.0
 10
256.143544
 20
179.691112
 30
0.0
 10
271.817784
 20
214.174120
 30
0.0
 10
292.530096
 20
214.174120
 30
0.0
  0
SPLINE
  5
149
100
AcDbEntity
  8
0
 62
7
100
AcDbSpline
 70
8
 71
3
 72
8
 73
4
 74
0
 40
0
 40
0
 40
0
 40
0
 40
1
 40
1
 40
1
 40
1
 10
292.530096
 20
214.174120
 30
0.0
 10
306.899288
 20
214.174120
 30
0.0
 10
311.039984
 20
202.529520
 30
0.0
 10
311.039984
 20
187.838120
 30
0.0
  0
LWPOLYLINE
  5
14a
100
AcDbEntity
  8
0
 62
7
100
AcDbPolyline
 90
4
 70
1
 10
324.630144
 20
163.986344
 30
0.0
 10
324.630144
 20
167.769504
 30
0.0
 10
287.480464
 20
167.769504
 30
0.0
 10
287.480464
 20
163.986344
 30
0.0
  0
SPLINE
  5
14b
100
AcDbEntity
  8
0
 62
7
100
AcDbSpline
 70
8
 71
3
 72
8
 73
4
 74
0
 40
0
 40
0
 40
0
 40
0
 40
1
 40
1
 40
1
 40
1
 10
317.372312
 20
219.402352
 30
0.0
 10
316.725056
 20
217.947672
 30
0.0
 10
315.557768
 20
215.050904
 30
0.0
 10
311.933008
 20
215.050904
 30
0.0
  0
SPLINE
  5
14c
100
AcDbEntity
  8
0
 62
7
100
AcDbSpline
 70
8
 71
3
 72
8
 73
4
 74
0
 40
0
 40
0
 40
0
 40
0
 40
1
 40
1
 40
1
 40
1
 10
311.933008
 20
215.050904
 30
0.0
 10
307.532008
 20
215.050904
 30
0.0
 10
304.691616
 20
219.402352
 30
0.0
 10
290.451792
 20
219.402352
 30
0.0
  0
LWPOLYLINE
  5
14d
100
AcDbEntity
  8
0
 62
7
100
AcDbPolyline
 90
4
 70
1
 10
311.039984
 20
187.838120
 30
0.0
 10
314.790672
 20
187.269832
 30
0.0
 10
321.382792
 20
219.402352
 30
0.0
 10
317.372312
 20
219.402352
 30
0.0
  0
SPLINE
  5
14e
100
AcDbEntity
  8
0
 62
7
100
AcDbSpline
 70
8
 71
3
 72
8
 73
4
 74
0
 40
0
 40
0
 40
0
 40
0
 40
1
 40
1
 40
1
 40
1
 10
80.656792
 20
169.734152
 30
0.0
 10
76.036600
 20
168.475800
 30
0.0
 10
72.047616
 20
167.373000
 30
0.0
 10
61.757224
 20
165.642488
 30
0.0
  0
LWPOLYLINE
  5
14f
100
AcDbEntity
  8
0
 62
7
100
AcDbPolyline
 90
2
 70
1
 10
290.451792
 20
219.402352
 30
0.0
 10
290.451792
 20
219.402352
 30
0.0
  0
SPLINE
  5
150
100
AcDbEntity
  8
0
 62
7
100
AcDbSpline
 70
8
 71
3
 72
8
 73
4
 74
0
 40
0
 40
0
 40
0
 40
0
 40
1
 40
1
 40
1
 40
1
 10
61.611096
 20
163.840208
 30
0.0
 10
63.011216
 20
164.076160
 30
0.0
 10
64.903384
 20
164.229888
 30
0.0
 10
66.303512
 20
164.229888
 30
0.0
  0
SPLINE
  5
151
100
AcDbEntity
  8
0
 62
7
100
AcDbSpline
 70
8
 71
3
 72
8
 73
4
 74
0
 40
0
 40
0
 40
0
 40
0
 40
1
 40
1
 40
1
 40
1
 10
66.303512
 20
164.229888
 30
0.0
 10
66.933624
 20
164.229888
 30
0.0
 10
69.242360
 20
164.238848
 30
0.0
 10
69.242360
 20
161.485880
 30
0.0
  0
SPLINE
  5
152
100
AcDbEntity
  8
0
 62
7
100
AcDbSpline
 70
8
 71
3
 72
8
 73
4
 74
0
 40
0
 40
0
 40
0
 40
0
 40
1
 40
1
 40
1
 40
1
 10
69.242360
 20
161.485880
 30
0.0
 10
69.242360
 20
160.935392
 30
0.0
 10
69.106496
 20
160.299032
 30
0.0
 10
68.966336
 20
159.748552
 30
0.0
  0
LWPOLYLINE
  5
153
100
AcDbEntity
  8
0
 62
7
100
AcDbPolyline
 90
2
 70
1
 10
61.757224
 20
165.642488
 30
0.0
 10
61.611096
 20
163.840208
 30
0.0
  0
SPLINE
  5
154
100
AcDbEntity
  8
0
 62
7
100
AcDbSpline
 70
8
 71
3
 72
8
 73
4
 74
0
 40
0
 40
0
 40
0
 40
0
 40
1
 40
1
 40
1
 40
1
 10
60.003656
 20
123.654264
 30
0.0
 10
58.603920
 20
118.069992
 30
0.0
 10
54.824192
 20
117.903920
 30
0.0
 10
51.674208
 20
117.825272
 30
0.0
  0
LWPOLYLINE
  5
155
100
AcDbEntity
  8
0
 62
7
100
AcDbPolyline
 90
2
 70
1
 10
68.966336
 20
159.748552
 30
0.0
 10
60.003656
 20
123.654264
 30
0.0
  0
SPLINE
  5
156
100
AcDbEntity
  8
0
 62
7
100
AcDbSpline
 70
8
 71
3
 72
8
 73
4
 74
0
 40
0
 40
0
 40
0
 40
0
 40
1
 40
1
 40
1
 40
1
 10
75.818248
 20
117.825272
 30
0.0
 10
71.408016
 20
117.825272
 30
0.0
 10
69.031288
 20
118.064216
 30
0.0
 10
69.031288
 20
121.446064
 30
0.0
  0
SPLINE
  5
157
100
AcDbEntity
  8
0
 62
7
100
AcDbSpline
 70
8
 71
3
 72
8
 73
4
 74
0
 40
0
 40
0
 40
0
 40
0
 40
1
 40
1
 40
1
 40
1
 10
69.031288
 20
121.446064
 30
0.0
 10
69.031288
 20
122.232512
 30
0.0
 10
69.035288
 20
122.239328
 30
0.0
 10
69.875600
 20
125.700096
 30
0.0
  0
LWPOLYLINE
  5
158
100
AcDbEntity
  8
0
 62
7
100
AcDbPolyline
 90
4
 70
1
 10
51.674208
 20
117.825272
 30
0.0
 10
51.674208
 20
116.022992
 30
0.0
 10
75.818248
 20
116.022992
 30
0.0
 10
75.818248
 20
117.825272
 30
0.0
  0
SPLINE
  5
159
100
AcDbEntity
  8
0
 62
7
100
AcDbSpline
 70
8
 71
3
 72
8
 73
4
 74
0
 40
0
 40
0
 40
0
 40
0
 40
1
 40
1
 40
1
 40
1
 10
96.260312
 20
169.734152
 30
0.0
 10
88.559864
 20
169.734152
 30
0.0
 10
82.751336
 20
163.840336
 30
0.0
 10
82.751336
 20
155.267208
 30
0.0
  0
SPLINE
  5
15a
100
AcDbEntity
  8
0
 62
7
100
AcDbSpline
 70
8
 71
3
 72
8
 73
4
 74
0
 40
0
 40
0
 40
0
 40
0
 40
1
 40
1
 40
1
 40
1
 10
82.751336
 20
155.267208
 30
0.0
 10
82.751336
 20
149.211096
 30
0.0
 10
85.620952
 20
145.907568
 30
0.0
 10
87.930856
 20
143.154592
 30
0.0
  0
LWPOLYLINE
  5
15b
100
AcDbEntity
  8
0
 62
7
100
AcDbPolyline
 90
3
 70
1
 10
69.875600
 20
125.700096
 30
0.0
 10
80.656792
 20
169.734152
 30
0.0
 10
80.656792
 20
169.734152
 30
0.0
  0
SPLINE
  5
15c
100
AcDbEntity
  8
0
 62
7
100
AcDbSpline
 70
8
 71
3
 72
8
 73
4
 74
0
 40
0
 40
0
 40
0
 40
0
 40
1
 40
1
 40
1
 40
1
 10
87.930856
 20
142.764912
 30
0.0
 10
84.430736
 20
141.427912
 30
0.0
 10
75.331144
 20
137.878240
 30
0.0
 10
75.331144
 20
127.810872
 30
0.0
  0
SPLINE
  5
15d
100
AcDbEntity
  8
0
 62
7
100
AcDbSpline
 70
8
 71
3
 72
8
 73
4
 74
0
 40
0
 40
0
 40
0
 40
0
 40
1
 40
1
 40
1
 40
1
 10
75.331144
 20
127.810872
 30
0.0
 10
75.331144
 20
125.294176
 30
0.0
 10
76.591960
 20
115.000080
 30
0.0
 10
89.262272
 20
115.000080
 30
0.0
  0
SPLINE
  5
15e
100
AcDbEntity
  8
0
 62
7
100
AcDbSpline
 70
8
 71
3
 72
8
 73
4
 74
0
 40
0
 40
0
 40
0
 40
0
 40
1
 40
1
 40
1
 40
1
 10
89.262272
 20
115.000080
 30
0.0
 10
97.452664
 20
115.000080
 30
0.0
 10
104.459864
 20
121.454056
 30
0.0
 10
104.459864
 20
131.285536
 30
0.0
  0
SPLINE
  5
15f
100
AcDbEntity
  8
0
 62
7
100
AcDbSpline
 70
8
 71
3
 72
8
 73
4
 74
0
 40
0
 40
0
 40
0
 40
0
 40
1
 40
1
 40
1
 40
1
 10
104.459864
 20
131.285536
 30
0.0
 10
104.459864
 20
138.364040
 30
0.0
 10
100.326056
 20
143.309032
 30
0.0
 10
98.436032
 20
145.590104
 30
0.0
  0
LWPOLYLINE
  5
160
100
AcDbEntity
  8
0
 62
7
100
AcDbPolyline
 90
2
 70
1
 10
87.930856
 20
143.154592
 30
0.0
 10
87.930856
 20
142.764912
 30
0.0
  0
SPLINE
  5
161
100
AcDbEntity
  8
0
 62
7
100
AcDbSpline
 70
8
 71
3
 72
8
 73
4
 74
0
 40
0
 40
0
 40
0
 40
0
 40
1
 40
1
 40
1
 40
1
 10
98.436032
 20
145.979792
 30
0.0
 10
102.327848
 20
147.740120
 30
0.0
 10
105.823752
 20
149.999688
 30
0.0
 10
107.463664
 20
153.692240
 30
0.0
  0
LWPOLYLINE
  5
162
100
AcDbEntity
  8
0
 62
7
100
AcDbPolyline
 90
2
 70
1
 10
98.436032
 20
145.590104
 30
0.0
 10
98.436032
 20
145.979792
 30
0.0
  0
SPLINE
  5
163
100
AcDbEntity
  8
0
 62
7
100
AcDbSpline
 70
8
 71
3
 72
8
 73
4
 74
0
 40
0
 40
0
 40
0
 40
0
 40
1
 40
1
 40
1
 40
1
 10
109.282176
 20
153.692240
 30
0.0
 10
111.662552
 20
158.490064
 30
0.0
 10
113.407288
 20
159.748552
 30
0.0
 10
121.037584
 20
159.748552
 30
0.0
  0
LWPOLYLINE
  5
164
100
AcDbEntity
  8
0
 62
7
100
AcDbPolyline
 90
2
 70
1
 10
107.463664
 20
153.692240
 30
0.0
 10
109.282176
 20
153.692240
 30
0.0
  0
SPLINE
  5
165
100
AcDbEntity
  8
0
 62
7
100
AcDbSpline
 70
8
 71
3
 72
8
 73
4
 74
0
 40
0
 40
0
 40
0
 40
0
 40
1
 40
1
 40
1
 40
1
 10
107.642264
 20
154.130632
 30
0.0
 10
108.159624
 20
155.448032
 30
0.0
 10
108.437872
 20
156.933816
 30
0.0
 10
108.437872
 20
158.644448
 30
0.0
  0
SPLINE
  5
166
100
AcDbEntity
  8
0
 62
7
100
AcDbSpline
 70
8
 71
3
 72
8
 73
4
 74
0
 40
0
 40
0
 40
0
 40
0
 40
1
 40
1
 40
1
 40
1
 10
108.437872
 20
158.644448
 30
0.0
 10
108.437872
 20
167.217584
 30
0.0
 10
100.040416
 20
169.734152
 30
0.0
 10
96.260312
 20
169.734152
 30
0.0
  0
LWPOLYLINE
  5
167
100
AcDbEntity
  8
0
 62
7
100
AcDbPolyline
 90
7
 70
1
 10
121.037584
 20
159.748552
 30
0.0
 10
130.357472
 20
159.748552
 30
0.0
 10
107.106456
 20
116.022992
 30
0.0
 10
113.552440
 20
116.022992
 30
0.0
 10
140.229416
 20
168.646288
 30
0.0
 10
113.552440
 20
168.646288
 30
0.0
 10
107.642264
 20
154.130632
 30
0.0
  0
SPLINE
  5
168
100
AcDbEntity
  8
0
 62
7
100
AcDbSpline
 70
8
 71
3
 72
8
 73
4
 74
0
 40
0
 40
0
 40
0
 40
0
 40
1
 40
1
 40
1
 40
1
 10
150.929432
 20
169.734152
 30
0.0
 10
138.818776
 20
169.734152
 30
0.0
 10
133.442456
 20
157.555160
 30
0.0
 10
133.442456
 20
148.431536
 30
0.0
  0
SPLINE
  5
169
100
AcDbEntity
  8
0
 62
7
100
AcDbSpline
 70
8
 71
3
 72
8
 73
4
 74
0
 40
0
 40
0
 40
0
 40
0
 40
1
 40
1
 40
1
 40
1
 10
133.442456
 20
148.431536
 30
0.0
 10
133.442456
 20
140.645176
 30
0.0
 10
137.641864
 20
135.296008
 30
0.0
 10
144.012576
 20
135.296008
 30
0.0
  0
SPLINE
  5
16a
100
AcDbEntity
  8
0
 62
7
100
AcDbSpline
 70
8
 71
3
 72
8
 73
4
 74
0
 40
0
 40
0
 40
0
 40
0
 40
1
 40
1
 40
1
 40
1
 10
144.012576
 20
135.296008
 30
0.0
 10
145.902600
 20
135.296008
 30
0.0
 10
147.022608
 20
135.754664
 30
0.0
 10
148.282840
 20
136.383872
 30
0.0
  0
SPLINE
  5
16b
100
AcDbEntity
  8
0
 62
7
100
AcDbSpline
 70
8
 71
3
 72
8
 73
4
 74
0
 40
0
 40
0
 40
0
 40
0
 40
1
 40
1
 40
1
 40
1
 10
148.282840
 20
136.383872
 30
0.0
 10
144.502408
 20
127.181536
 30
0.0
 10
137.070272
 20
119.725296
 30
0.0
 10
128.879928
 20
117.208272
 30
0.0
  0
LWPOLYLINE
  5
16c
100
AcDbEntity
  8
0
 62
7
100
AcDbPolyline
 90
2
 70
1
 10
96.260312
 20
169.734152
 30
0.0
 10
96.260312
 20
169.734152
 30
0.0
  0
SPLINE
  5
16d
100
AcDbEntity
  8
0
 62
7
100
AcDbSpline
 70
8
 71
3
 72
8
 73
4
 74
0
 40
0
 40
0
 40
0
 40
0
 40
1
 40
1
 40
1
 40
1
 10
129.302088
 20
115.227392
 30
0.0
 10
154.503344
 20
119.238712
 30
0.0
 10
162.977096
 20
140.871712
 30
0.0
 10
162.977096
 20
152.669328
 30
0.0
  0
SPLINE
  5
16e
100
AcDbEntity
  8
0
 62
7
100
AcDbSpline
 70
8
 71
3
 72
8
 73
4
 74
0
 40
0
 40
0
 40
0
 40
0
 40
1
 40
1
 40
1
 40
1
 10
162.977096
 20
152.669328
 30
0.0
 10
162.977096
 20
163.051360
 30
0.0
 10
158.629808
 20
169.734152
 30
0.0
 10
150.929432
 20
169.734152
 30
0.0
  0
LWPOLYLINE
  5
16f
100
AcDbEntity
  8
0
 62
7
100
AcDbPolyline
 90
2
 70
1
 10
128.879928
 20
117.208272
 30
0.0
 10
129.302088
 20
115.227392
 30
0.0
  0
SPLINE
  5
170
100
AcDbEntity
  8
0
 62
7
100
AcDbSpline
 70
8
 71
3
 72
8
 73
4
 74
0
 40
0
 40
0
 40
0
 40
0
 40
1
 40
1
 40
1
 40
1
 10
151.562664
 20
167.217456
 30
0.0
 10
155.132872
 20
167.217456
 30
0.0
 10
155.134752
 20
163.523400
 30
0.0
 10
155.134752
 20
161.242328
 30
0.0
  0
SPLINE
  5
171
100
AcDbEntity
  8
0
 62
7
100
AcDbSpline
 70
8
 71
3
 72
8
 73
4
 74
0
 40
0
 40
0
 40
0
 40
0
 40
1
 40
1
 40
1
 40
1
 10
155.134752
 20
161.242328
 30
0.0
 10
155.134752
 20
161.006440
 30
0.0
 10
154.931136
 20
153.693544
 30
0.0
 10
152.130952
 20
145.671288
 30
0.0
  0
SPLINE
  5
172
100
AcDbEntity
  8
0
 62
7
100
AcDbSpline
 70
8
 71
3
 72
8
 73
4
 74
0
 40
0
 40
0
 40
0
 40
0
 40
1
 40
1
 40
1
 40
1
 10
152.130952
 20
145.671288
 30
0.0
 10
149.890800
 20
139.064296
 30
0.0
 10
149.739736
 20
138.673256
 30
0.0
 10
146.659168
 20
138.673256
 30
0.0
  0
SPLINE
  5
173
100
AcDbEntity
  8
0
 62
7
100
AcDbSpline
 70
8
 71
3
 72
8
 73
4
 74
0
 40
0
 40
0
 40
0
 40
0
 40
1
 40
1
 40
1
 40
1
 10
146.659168
 20
138.673256
 30
0.0
 10
145.609176
 20
138.673256
 30
0.0
 10
142.112880
 20
138.745576
 30
0.0
 10
142.112880
 20
144.015144
 30
0.0
  0
SPLINE
  5
174
100
AcDbEntity
  8
0
 62
7
100
AcDbSpline
 70
8
 71
3
 72
8
 73
4
 74
0
 40
0
 40
0
 40
0
 40
0
 40
1
 40
1
 40
1
 40
1
 10
142.112880
 20
144.015144
 30
0.0
 10
142.112880
 20
145.667072
 30
0.0
 10
143.440784
 20
156.369944
 30
0.0
 10
145.960992
 20
161.875560
 30
0.0
  0
SPLINE
  5
175
100
AcDbEntity
  8
0
 62
7
100
AcDbSpline
 70
8
 71
3
 72
8
 73
4
 74
0
 40
0
 40
0
 40
0
 40
0
 40
1
 40
1
 40
1
 40
1
 10
145.960992
 20
161.875560
 30
0.0
 10
147.361376
 20
164.942744
 30
0.0
 10
149.182688
 20
167.217456
 30
0.0
 10
151.562664
 20
167.217456
 30
0.0
  0
LWPOLYLINE
  5
176
100
AcDbEntity
  8
0
 62
7
100
AcDbPolyline
 90
2
 70
1
 10
150.929432
 20
169.734152
 30
0.0
 10
150.929432
 20
169.734152
 30
0.0
  0
SPLINE
  5
177
100
AcDbEntity
  8
0
 62
7
100
AcDbSpline
 70
8
 71
3
 72
8
 73
4
 74
0
 40
0
 40
0
 40
0
 40
0
 40
1
 40
1
 40
1
 40
1
 10
96.260312
 20
167.152496
 30
0.0
 10
99.550464
 20
167.152496
 30
0.0
 10
101.926936
 20
164.150064
 30
0.0
 10
101.926936
 20
158.644440
 30
0.0
  0
SPLINE
  5
178
100
AcDbEntity
  8
0
 62
7
100
AcDbSpline
 70
8
 71
3
 72
8
 73
4
 74
0
 40
0
 40
0
 40
0
 40
0
 40
1
 40
1
 40
1
 40
1
 10
101.926936
 20
158.644440
 30
0.0
 10
101.926936
 20
153.610728
 30
0.0
 10
99.278656
 20
150.627056
 30
0.0
 10
96.828592
 20
147.717112
 30
0.0
  0
SPLINE
  5
179
100
AcDbEntity
  8
0
 62
7
100
AcDbSpline
 70
8
 71
3
 72
8
 73
4
 74
0
 40
0
 40
0
 40
0
 40
0
 40
1
 40
1
 40
1
 40
1
 10
96.828592
 20
147.717112
 30
0.0
 10
93.468304
 20
151.256528
 30
0.0
 10
90.528736
 20
154.723456
 30
0.0
 10
90.528736
 20
159.521224
 30
0.0
  0
SPLINE
  5
17a
100
AcDbEntity
  8
0
 62
7
100
AcDbSpline
 70
8
 71
3
 72
8
 73
4
 74
0
 40
0
 40
0
 40
0
 40
0
 40
1
 40
1
 40
1
 40
1
 10
90.528736
 20
159.521224
 30
0.0
 10
90.528736
 20
162.824688
 30
0.0
 10
92.129744
 20
167.152496
 30
0.0
 10
96.260312
 20
167.152496
 30
0.0
  0
LWPOLYLINE
  5
17b
100
AcDbEntity
  8
0
 62
7
100
AcDbPolyline
 90
2
 70
1
 10
151.562664
 20
167.217456
 30
0.0
 10
151.562664
 20
167.217456
 30
0.0
  0
SPLINE
  5
17c
100
AcDbEntity
  8
0
 62
7
100
AcDbSpline
 70
8
 71
3
 72
8
 73
4
 74
0
 40
0
 40
0
 40
0
 40
0
 40
1
 40
1
 40
1
 40
1
 10
89.749376
 20
141.271128
 30
0.0
 10
95.069768
 20
134.192552
 30
0.0
 10
96.536336
 20
132.140296
 30
0.0
 10
96.536336
 20
127.421184
 30
0.0
  0
SPLINE
  5
17d
100
AcDbEntity
  8
0
 62
7
100
AcDbSpline
 70
8
 71
3
 72
8
 73
4
 74
0
 40
0
 40
0
 40
0
 40
0
 40
1
 40
1
 40
1
 40
1
 10
96.536336
 20
127.421184
 30
0.0
 10
96.536336
 20
122.466112
 30
0.0
 10
93.876176
 20
117.354400
 30
0.0
 10
89.116144
 20
117.354400
 30
0.0
  0
SPLINE
  5
17e
100
AcDbEntity
  8
0
 62
7
100
AcDbSpline
 70
8
 71
3
 72
8
 73
4
 74
0
 40
0
 40
0
 40
0
 40
0
 40
1
 40
1
 40
1
 40
1
 10
89.116144
 20
117.354400
 30
0.0
 10
83.375864
 20
117.354400
 30
0.0
 10
82.118104
 20
123.343744
 30
0.0
 10
82.118104
 20
126.804184
 30
0.0
  0
SPLINE
  5
17f
100
AcDbEntity
  8
0
 62
7
100
AcDbSpline
 70
8
 71
3
 72
8
 73
4
 74
0
 40
0
 40
0
 40
0
 40
0
 40
1
 40
1
 40
1
 40
1
 10
82.118104
 20
126.804184
 30
0.0
 10
82.118104
 20
134.276264
 30
0.0
 10
85.689280
 20
138.203552
 30
0.0
 10
89.749376
 20
141.271128
 30
0.0
  0
LWPOLYLINE
  5
180
100
AcDbEntity
  8
0
 62
7
100
AcDbPolyline
 90
2
 70
1
 10
96.260312
 20
167.152496
 30
0.0
 10
96.260312
 20
167.152496
 30
0.0
  0
LWPOLYLINE
  5
181
100
AcDbEntity
  8
0
 62
7
100
AcDbPolyline
 90
2
 70
1
 10
89.749376
 20
141.271128
 30
0.0
 10
89.749376
 20
141.271128
 30
0.0
  0
SPLINE
  5
182
100
AcDbEntity
  8
0
 62
7
100
AcDbSpline
 70
8
 71
3
 72
8
 73
4
 74
0
 40
0
 40
0
 40
0
 40
0
 40
1
 40
1
 40
1
 40
1
 10
273.468152
 20
93.145408
 30
0.0
 10
275.623296
 20
94.822992
 30
0.0
 10
276.697840
 20
94.228144
 30
0.0
 10
278.111864
 20
92.674544
 30
0.0
  0
LWPOLYLINE
  5
183
100
AcDbEntity
  8
0
 62
7
100
AcDbPolyline
 90
3
 70
1
 10
278.209288
 20
98.649664
 30
0.0
 10
272.867392
 20
93.794880
 30
0.0
 10
273.468152
 20
93.145408
 30
0.0
  0
SPLINE
  5
184
100
AcDbEntity
  8
0
 62
7
100
AcDbSpline
 70
8
 71
3
 72
8
 73
4
 74
0
 40
0
 40
0
 40
0
 40
0
 40
1
 40
1
 40
1
 40
1
 10
261.858944
 20
82.575352
 30
0.0
 10
262.181808
 20
82.869632
 30
0.0
 10
262.640320
 20
83.143504
 30
0.0
 10
265.658344
 20
82.624072
 30
0.0
  0
LWPOLYLINE
  5
185
100
AcDbEntity
  8
0
 62
7
100
AcDbPolyline
 90
6
 70
1
 10
278.111864
 20
92.674544
 30
0.0
 10
285.239792
 20
84.832192
 30
0.0
 10
285.191152
 20
84.783552
 30
0.0
 10
266.502656
 20
87.998424
 30
0.0
 10
261.258184
 20
83.224824
 30
0.0
 10
261.858944
 20
82.575352
 30
0.0
  0
SPLINE
  5
186
100
AcDbEntity
  8
0
 62
7
100
AcDbSpline
 70
8
 71
3
 72
8
 73
4
 74
0
 40
0
 40
0
 40
0
 40
0
 40
1
 40
1
 40
1
 40
1
 10
276.829224
 20
70.365328
 30
0.0
 10
278.384776
 20
68.656376
 30
0.0
 10
277.863512
 20
67.828888
 30
0.0
 10
276.536968
 20
66.289904
 30
0.0
  0
LWPOLYLINE
  5
187
100
AcDbEntity
  8
0
 62
7
100
AcDbPolyline
 90
2
 70
1
 10
265.658344
 20
82.624072
 30
0.0
 10
276.829224
 20
70.365328
 30
0.0
  0
SPLINE
  5
188
100
AcDbEntity
  8
0
 62
7
100
AcDbSpline
 70
8
 71
3
 72
8
 73
4
 74
0
 40
0
 40
0
 40
0
 40
0
 40
1
 40
1
 40
1
 40
1
 10
282.171088
 20
71.436952
 30
0.0
 10
280.143056
 20
69.969672
 30
0.0
 10
279.175608
 20
69.978432
 30
0.0
 10
277.478672
 20
71.842872
 30
0.0
  0
LWPOLYLINE
  5
189
100
AcDbEntity
  8
0
 62
7
100
AcDbPolyline
 90
4
 70
1
 10
276.536968
 20
66.289904
 30
0.0
 10
277.121488
 20
65.640432
 30
0.0
 10
282.755616
 20
70.787480
 30
0.0
 10
282.171088
 20
71.436952
 30
0.0
  0
SPLINE
  5
18a
100
AcDbEntity
  8
0
 62
7
100
AcDbSpline
 70
8
 71
3
 72
8
 73
4
 74
0
 40
0
 40
0
 40
0
 40
0
 40
1
 40
1
 40
1
 40
1
 10
278.745144
 20
94.168432
 30
0.0
 10
277.613960
 20
95.411256
 30
0.0
 10
277.232400
 20
96.137872
 30
0.0
 10
278.810104
 20
98.000304
 30
0.0
  0
LWPOLYLINE
  5
18b
100
AcDbEntity
  8
0
 62
7
100
AcDbPolyline
 90
6
 70
1
 10
277.478672
 20
71.842872
 30
0.0
 10
268.045120
 20
82.201912
 30
0.0
 10
268.110080
 20
82.250632
 30
0.0
 10
291.929384
 20
78.288864
 30
0.0
 10
292.627560
 20
78.922096
 30
0.0
 10
278.745144
 20
94.168432
 30
0.0
  0
SPLINE
  5
18c
100
AcDbEntity
  8
0
 62
7
100
AcDbSpline
 70
8
 71
3
 72
8
 73
4
 74
0
 40
0
 40
0
 40
0
 40
0
 40
1
 40
1
 40
1
 40
1
 10
92.038752
 20
95.743288
 30
0.0
 10
89.938944
 20
95.599728
 30
0.0
 10
88.302856
 20
94.342288
 30
0.0
 10
87.476232
 20
93.470144
 30
0.0
  0
SPLINE
  5
18d
100
AcDbEntity
  8
0
 62
7
100
AcDbSpline
 70
8
 71
3
 72
8
 73
4
 74
0
 40
0
 40
0
 40
0
 40
0
 40
1
 40
1
 40
1
 40
1
 10
87.476232
 20
93.470144
 30
0.0
 10
86.368168
 20
92.300960
 30
0.0
 10
84.287528
 20
90.123624
 30
0.0
 10
86.485784
 20
84.085304
 30
0.0
  0
LWPOLYLINE
  5
18e
100
AcDbEntity
  8
0
 62
7
100
AcDbPolyline
 90
3
 70
1
 10
278.810104
 20
98.000304
 30
0.0
 10
278.209344
 20
98.649768
 30
0.0
 10
278.209288
 20
98.649664
 30
0.0
  0
SPLINE
  5
18f
100
AcDbEntity
  8
0
 62
7
100
AcDbSpline
 70
8
 71
3
 72
8
 73
4
 74
0
 40
0
 40
0
 40
0
 40
0
 40
1
 40
1
 40
1
 40
1
 10
87.362568
 20
81.714744
 30
0.0
 10
88.202008
 20
79.423792
 30
0.0
 10
88.764976
 20
77.734792
 30
0.0
 10
87.151496
 20
76.031880
 30
0.0
  0
SPLINE
  5
190
100
AcDbEntity
  8
0
 62
7
100
AcDbSpline
 70
8
 71
3
 72
8
 73
4
 74
0
 40
0
 40
0
 40
0
 40
0
 40
1
 40
1
 40
1
 40
1
 10
87.151496
 20
76.031880
 30
0.0
 10
86.838192
 20
75.701432
 30
0.0
 10
84.332344
 20
73.305792
 30
0.0
 10
81.403688
 20
76.080520
 30
0.0
  0
SPLINE
  5
191
100
AcDbEntity
  8
0
 62
7
100
AcDbSpline
 70
8
 71
3
 72
8
 73
4
 74
0
 40
0
 40
0
 40
0
 40
0
 40
1
 40
1
 40
1
 40
1
 10
81.403688
 20
76.080520
 30
0.0
 10
78.304096
 20
79.017424
 30
0.0
 10
79.605240
 20
83.231448
 30
0.0
 10
81.549816
 20
86.260960
 30
0.0
  0
LWPOLYLINE
  5
192
100
AcDbEntity
  8
0
 62
7
100
AcDbPolyline
 90
2
 70
1
 10
86.485784
 20
84.085304
 30
0.0
 10
87.362568
 20
81.714744
 30
0.0
  0
SPLINE
  5
193
100
AcDbEntity
  8
0
 62
7
100
AcDbSpline
 70
8
 71
3
 72
8
 73
4
 74
0
 40
0
 40
0
 40
0
 40
0
 40
1
 40
1
 40
1
 40
1
 10
75.607168
 20
79.977344
 30
0.0
 10
76.090112
 20
80.291616
 30
0.0
 10
76.636904
 20
80.625192
 30
0.0
 10
77.149656
 20
80.139712
 30
0.0
  0
SPLINE
  5
194
100
AcDbEntity
  8
0
 62
7
100
AcDbSpline
 70
8
 71
3
 72
8
 73
4
 74
0
 40
0
 40
0
 40
0
 40
0
 40
1
 40
1
 40
1
 40
1
 10
77.149656
 20
80.139712
 30
0.0
 10
77.906032
 20
79.422696
 30
0.0
 10
78.192184
 20
77.530336
 30
0.0
 10
80.510664
 20
75.333632
 30
0.0
  0
SPLINE
  5
195
100
AcDbEntity
  8
0
 62
7
100
AcDbSpline
 70
8
 71
3
 72
8
 73
4
 74
0
 40
0
 40
0
 40
0
 40
0
 40
1
 40
1
 40
1
 40
1
 10
80.510664
 20
75.333632
 30
0.0
 10
85.001424
 20
71.078824
 30
0.0
 10
89.480688
 20
72.674832
 30
0.0
 10
91.600360
 20
74.911480
 30
0.0
  0
SPLINE
  5
196
100
AcDbEntity
  8
0
 62
7
100
AcDbSpline
 70
8
 71
3
 72
8
 73
4
 74
0
 40
0
 40
0
 40
0
 40
0
 40
1
 40
1
 40
1
 40
1
 10
91.600360
 20
74.911480
 30
0.0
 10
94.225840
 20
77.681920
 30
0.0
 10
93.757904
 20
80.902184
 30
0.0
 10
93.337696
 20
82.120592
 30
0.0
  0
LWPOLYLINE
  5
197
100
AcDbEntity
  8
0
 62
7
100
AcDbPolyline
 90
4
 70
1
 10
81.549816
 20
86.260960
 30
0.0
 10
80.851640
 20
86.926672
 30
0.0
 10
74.892752
 20
80.643048
 30
0.0
 10
75.607168
 20
79.977344
 30
0.0
  0
SPLINE
  5
198
100
AcDbEntity
  8
0
 62
7
100
AcDbSpline
 70
8
 71
3
 72
8
 73
4
 74
0
 40
0
 40
0
 40
0
 40
0
 40
1
 40
1
 40
1
 40
1
 10
91.519176
 20
87.381296
 30
0.0
 10
90.480616
 20
90.391400
 30
0.0
 10
90.543416
 20
91.383464
 30
0.0
 10
91.843912
 20
92.755664
 30
0.0
  0
SPLINE
  5
199
100
AcDbEntity
  8
0
 62
7
100
AcDbSpline
 70
8
 71
3
 72
8
 73
4
 74
0
 40
0
 40
0
 40
0
 40
0
 40
1
 40
1
 40
1
 40
1
 10
91.843912
 20
92.755664
 30
0.0
 10
93.409592
 20
94.407904
 30
0.0
 10
95.478536
 20
93.909184
 30
0.0
 10
96.747408
 20
92.706944
 30
0.0
  0
SPLINE
  5
19a
100
AcDbEntity
  8
0
 62
7
100
AcDbSpline
 70
8
 71
3
 72
8
 73
4
 74
0
 40
0
 40
0
 40
0
 40
0
 40
1
 40
1
 40
1
 40
1
 10
96.747408
 20
92.706944
 30
0.0
 10
99.627480
 20
89.978072
 30
0.0
 10
98.318800
 20
85.663384
 30
0.0
 10
97.072144
 20
83.468240
 30
0.0
  0
LWPOLYLINE
  5
19b
100
AcDbEntity
  8
0
 62
7
100
AcDbPolyline
 90
2
 70
1
 10
93.337696
 20
82.120592
 30
0.0
 10
91.519176
 20
87.381296
 30
0.0
  0
SPLINE
  5
19c
100
AcDbEntity
  8
0
 62
7
100
AcDbSpline
 70
8
 71
3
 72
8
 73
4
 74
0
 40
0
 40
0
 40
0
 40
0
 40
1
 40
1
 40
1
 40
1
 10
102.251664
 20
89.037440
 30
0.0
 10
101.671952
 20
88.670224
 30
0.0
 10
101.189336
 20
88.391928
 30
0.0
 10
100.627992
 20
88.923784
 30
0.0
  0
SPLINE
  5
19d
100
AcDbEntity
  8
0
 62
7
100
AcDbSpline
 70
8
 71
3
 72
8
 73
4
 74
0
 40
0
 40
0
 40
0
 40
0
 40
1
 40
1
 40
1
 40
1
 10
100.627992
 20
88.923784
 30
0.0
 10
99.920200
 20
89.594168
 30
0.0
 10
99.560200
 20
91.522504
 30
0.0
 10
97.607960
 20
93.372656
 30
0.0
  0
SPLINE
  5
19e
100
AcDbEntity
  8
0
 62
7
100
AcDbSpline
 70
8
 71
3
 72
8
 73
4
 74
0
 40
0
 40
0
 40
0
 40
0
 40
1
 40
1
 40
1
 40
1
 10
97.607960
 20
93.372656
 30
0.0
 10
95.579152
 20
95.294768
 30
0.0
 10
93.671944
 20
95.854880
 30
0.0
 10
92.038752
 20
95.743216
 30
0.0
  0
LWPOLYLINE
  5
19f
100
AcDbEntity
  8
0
 62
7
100
AcDbPolyline
 90
4
 70
1
 10
97.072144
 20
83.468240
 30
0.0
 10
97.754088
 20
82.818768
 30
0.0
 10
102.982320
 20
88.339264
 30
0.0
 10
102.251664
 20
89.037440
 30
0.0
  0
LWPOLYLINE
  5
1a0
100
AcDbEntity
  8
0
 62
7
100
AcDbPolyline
 90
2
 70
1
 10
92.038752
 20
95.743216
 30
0.0
 10
92.038752
 20
95.743288
 30
0.0
  0
SPLINE
  5
1a1
100
AcDbEntity
  8
0
 62
7
100
AcDbSpline
 70
8
 71
3
 72
8
 73
4
 74
0
 40
0
 40
0
 40
0
 40
0
 40
1
 40
1
 40
1
 40
1
 10
104.005240
 20
77.623080
 30
0.0
 10
107.629016
 20
81.948680
 30
0.0
 10
110.628336
 20
80.204008
 30
0.0
 10
112.675656
 20
79.035680
 30
0.0
  0
LWPOLYLINE
  5
1a2
100
AcDbEntity
  8
0
 62
7
100
AcDbPolyline
 90
3
 70
1
 10
107.122688
 20
83.987888
 30
0.0
 10
103.193400
 20
78.158896
 30
0.0
 10
104.005240
 20
77.623080
 30
0.0
  0
SPLINE
  5
1a3
100
AcDbEntity
  8
0
 62
7
100
AcDbSpline
 70
8
 71
3
 72
8
 73
4
 74
0
 40
0
 40
0
 40
0
 40
0
 40
1
 40
1
 40
1
 40
1
 10
102.592640
 20
63.578296
 30
0.0
 10
100.985792
 20
61.114520
 30
0.0
 10
100.281048
 20
61.487968
 30
0.0
 10
98.111296
 20
62.652800
 30
0.0
  0
LWPOLYLINE
  5
1a4
100
AcDbEntity
  8
0
 62
7
100
AcDbPolyline
 90
2
 70
1
 10
112.675656
 20
79.035680
 30
0.0
 10
102.592640
 20
63.578296
 30
0.0
  0
SPLINE
  5
1a5
100
AcDbEntity
  8
0
 62
7
100
AcDbSpline
 70
8
 71
3
 72
8
 73
4
 74
0
 40
0
 40
0
 40
0
 40
0
 40
1
 40
1
 40
1
 40
1
 10
108.161840
 20
56.109392
 30
0.0
 10
106.174080
 20
57.614800
 30
0.0
 10
105.529280
 20
58.114112
 30
0.0
 10
107.155168
 20
60.606968
 30
0.0
  0
LWPOLYLINE
  5
1a6
100
AcDbEntity
  8
0
 62
7
100
AcDbPolyline
 90
4
 70
1
 10
98.111296
 20
62.652800
 30
0.0
 10
97.624192
 20
61.922144
 30
0.0
 10
107.674744
 20
55.378736
 30
0.0
 10
108.161840
 20
56.109392
 30
0.0
  0
SPLINE
  5
1a7
100
AcDbEntity
  8
0
 62
7
100
AcDbSpline
 70
8
 71
3
 72
8
 73
4
 74
0
 40
0
 40
0
 40
0
 40
0
 40
1
 40
1
 40
1
 40
1
 10
117.238184
 20
76.064352
 30
0.0
 10
119.104112
 20
74.679816
 30
0.0
 10
121.911568
 20
72.632880
 30
0.0
 10
119.413912
 20
67.572536
 30
0.0
  0
LWPOLYLINE
  5
1a8
100
AcDbEntity
  8
0
 62
7
100
AcDbPolyline
 90
2
 70
1
 10
107.155168
 20
60.606968
 30
0.0
 10
117.238184
 20
76.064352
 30
0.0
  0
LWPOLYLINE
  5
1a9
100
AcDbEntity
  8
0
 62
7
100
AcDbPolyline
 90
5
 70
1
 10
119.413912
 20
67.572536
 30
0.0
 10
120.225744
 20
67.036720
 30
0.0
 10
124.008904
 20
72.979368
 30
0.0
 10
107.122688
 20
83.987888
 30
0.0
 10
107.122688
 20
83.987888
 30
0.0
  0
SPLINE
  5
1aa
100
AcDbEntity
  8
0
 62
7
100
AcDbSpline
 70
8
 71
3
 72
8
 73
4
 74
0
 40
0
 40
0
 40
0
 40
0
 40
1
 40
1
 40
1
 40
1
 10
240.604984
 20
69.569656
 30
0.0
 10
241.987056
 20
70.271080
 30
0.0
 10
243.237088
 20
70.937896
 30
0.0
 10
244.420616
 20
68.952656
 30
0.0
  0
LWPOLYLINE
  5
1ab
100
AcDbEntity
  8
0
 62
7
100
AcDbPolyline
 90
3
 70
1
 10
256.809256
 20
80.253432
 30
0.0
 10
240.150352
 20
70.332784
 30
0.0
 10
240.604984
 20
69.569656
 30
0.0
  0
SPLINE
  5
1ac
100
AcDbEntity
  8
0
 62
7
100
AcDbSpline
 70
8
 71
3
 72
8
 73
4
 74
0
 40
0
 40
0
 40
0
 40
0
 40
1
 40
1
 40
1
 40
1
 10
253.091040
 20
54.404536
 30
0.0
 10
254.202928
 20
52.539840
 30
0.0
 10
253.362968
 20
51.912840
 30
0.0
 10
251.824576
 20
50.751264
 30
0.0
  0
LWPOLYLINE
  5
1ad
100
AcDbEntity
  8
0
 62
7
100
AcDbPolyline
 90
2
 70
1
 10
244.420616
 20
68.952656
 30
0.0
 10
253.091040
 20
54.404536
 30
0.0
  0
SPLINE
  5
1ae
100
AcDbEntity
  8
0
 62
7
100
AcDbSpline
 70
8
 71
3
 72
8
 73
4
 74
0
 40
0
 40
0
 40
0
 40
0
 40
1
 40
1
 40
1
 40
1
 10
265.788176
 20
66.533384
 30
0.0
 10
266.676128
 20
60.906960
 30
0.0
 10
264.185216
 20
58.364480
 30
0.0
 10
261.355544
 20
56.677680
 30
0.0
  0
SPLINE
  5
1af
100
AcDbEntity
  8
0
 62
7
100
AcDbSpline
 70
8
 71
3
 72
8
 73
4
 74
0
 40
0
 40
0
 40
0
 40
0
 40
1
 40
1
 40
1
 40
1
 10
261.355544
 20
56.677680
 30
0.0
 10
259.478120
 20
55.558576
 30
0.0
 10
258.718640
 20
55.597872
 30
0.0
 10
257.929592
 20
56.921232
 30
0.0
  0
LWPOLYLINE
  5
1b0
100
AcDbEntity
  8
0
 62
7
100
AcDbPolyline
 90
5
 70
1
 10
251.824576
 20
50.751264
 30
0.0
 10
252.262968
 20
50.004376
 30
0.0
 10
269.165416
 20
60.071160
 30
0.0
 10
266.583776
 20
67.004248
 30
0.0
 10
265.788176
 20
66.533384
 30
0.0
  0
SPLINE
  5
1b1
100
AcDbEntity
  8
0
 62
7
100
AcDbSpline
 70
8
 71
3
 72
8
 73
4
 74
0
 40
0
 40
0
 40
0
 40
0
 40
1
 40
1
 40
1
 40
1
 10
253.594376
 20
64.195288
 30
0.0
 10
256.453280
 20
65.899560
 30
0.0
 10
258.459296
 20
65.881448
 30
0.0
 10
261.047040
 20
62.328064
 30
0.0
  0
LWPOLYLINE
  5
1b2
100
AcDbEntity
  8
0
 62
7
100
AcDbPolyline
 90
2
 70
1
 10
257.929592
 20
56.921232
 30
0.0
 10
253.594376
 20
64.195288
 30
0.0
  0
SPLINE
  5
1b3
100
AcDbEntity
  8
0
 62
7
100
AcDbSpline
 70
8
 71
3
 72
8
 73
4
 74
0
 40
0
 40
0
 40
0
 40
0
 40
1
 40
1
 40
1
 40
1
 10
254.990736
 20
72.492272
 30
0.0
 10
256.745088
 20
68.564664
 30
0.0
 10
255.809264
 20
66.900200
 30
0.0
 10
253.123512
 20
65.299392
 30
0.0
  0
LWPOLYLINE
  5
1b4
100
AcDbEntity
  8
0
 62
7
100
AcDbPolyline
 90
4
 70
1
 10
261.047040
 20
62.328064
 30
0.0
 10
261.793936
 20
62.766456
 30
0.0
 10
255.737632
 20
72.930664
 30
0.0
 10
254.990736
 20
72.492272
 30
0.0
  0
SPLINE
  5
1b5
100
AcDbEntity
  8
0
 62
7
100
AcDbSpline
 70
8
 71
3
 72
8
 73
4
 74
0
 40
0
 40
0
 40
0
 40
0
 40
1
 40
1
 40
1
 40
1
 10
248.820776
 20
72.200008
 30
0.0
 10
248.049784
 20
73.493552
 30
0.0
 10
248.498768
 20
73.916232
 30
0.0
 10
250.087240
 20
74.862832
 30
0.0
  0
SPLINE
  5
1b6
100
AcDbEntity
  8
0
 62
7
100
AcDbSpline
 70
8
 71
3
 72
8
 73
4
 74
0
 40
0
 40
0
 40
0
 40
0
 40
1
 40
1
 40
1
 40
1
 10
250.087240
 20
74.862832
 30
0.0
 10
253.985296
 20
77.186696
 30
0.0
 10
256.489128
 20
77.666456
 30
0.0
 10
259.699392
 20
73.791208
 30
0.0
  0
LWPOLYLINE
  5
1b7
100
AcDbEntity
  8
0
 62
7
100
AcDbPolyline
 90
3
 70
1
 10
253.123512
 20
65.299392
 30
0.0
 10
252.977384
 20
65.218208
 30
0.0
 10
248.820776
 20
72.200008
 30
0.0
  0
LWPOLYLINE
  5
1b8
100
AcDbEntity
  8
0
 62
7
100
AcDbPolyline
 90
4
 70
1
 10
259.699392
 20
73.791208
 30
0.0
 10
260.413808
 20
74.213360
 30
0.0
 10
256.809256
 20
80.253432
 30
0.0
 10
256.809256
 20
80.253432
 30
0.0
  0
SPLINE
  5
1b9
100
AcDbEntity
  8
0
 62
7
100
AcDbSpline
 70
8
 71
3
 72
8
 73
4
 74
0
 40
0
 40
0
 40
0
 40
0
 40
1
 40
1
 40
1
 40
1
 10
217.386432
 20
60.947944
 30
0.0
 10
218.846768
 20
61.356064
 30
0.0
 10
220.167528
 20
61.745232
 30
0.0
 10
220.942280
 20
59.567816
 30
0.0
  0
LWPOLYLINE
  5
1ba
100
AcDbEntity
  8
0
 62
7
100
AcDbPolyline
 90
3
 70
1
 10
228.151400
 20
65.705312
 30
0.0
 10
217.094176
 20
61.776016
 30
0.0
 10
217.386432
 20
60.947944
 30
0.0
  0
SPLINE
  5
1bb
100
AcDbEntity
  8
0
 62
7
100
AcDbSpline
 70
8
 71
3
 72
8
 73
4
 74
0
 40
0
 40
0
 40
0
 40
0
 40
1
 40
1
 40
1
 40
1
 10
226.625144
 20
43.607096
 30
0.0
 10
227.340856
 20
41.594648
 30
0.0
 10
226.433224
 20
41.156712
 30
0.0
 10
224.741680
 20
40.294800
 30
0.0
  0
LWPOLYLINE
  5
1bc
100
AcDbEntity
  8
0
 62
7
100
AcDbPolyline
 90
2
 70
1
 10
220.942280
 20
59.567816
 30
0.0
 10
226.625144
 20
43.607096
 30
0.0
  0
SPLINE
  5
1bd
100
AcDbEntity
  8
0
 62
7
100
AcDbSpline
 70
8
 71
3
 72
8
 73
4
 74
0
 40
0
 40
0
 40
0
 40
0
 40
1
 40
1
 40
1
 40
1
 10
241.043376
 20
53.608936
 30
0.0
 10
240.912696
 20
49.362632
 30
0.0
 10
240.126840
 20
45.990720
 30
0.0
 10
235.344272
 20
44.289040
 30
0.0
  0
SPLINE
  5
1be
100
AcDbEntity
  8
0
 62
7
100
AcDbSpline
 70
8
 71
3
 72
8
 73
4
 74
0
 40
0
 40
0
 40
0
 40
0
 40
1
 40
1
 40
1
 40
1
 10
235.344272
 20
44.289040
 30
0.0
 10
233.222064
 20
43.533968
 30
0.0
 10
232.433088
 20
43.549616
 30
0.0
 10
231.869608
 20
45.133352
 30
0.0
  0
LWPOLYLINE
  5
1bf
100
AcDbEntity
  8
0
 62
7
100
AcDbPolyline
 90
5
 70
1
 10
224.741680
 20
40.294800
 30
0.0
 10
225.033944
 20
39.466728
 30
0.0
 10
243.332752
 20
45.977664
 30
0.0
 10
241.968864
 20
53.933664
 30
0.0
 10
241.043376
 20
53.608936
 30
0.0
  0
SPLINE
  5
1c0
100
AcDbEntity
  8
0
 62
7
100
AcDbSpline
 70
8
 71
3
 72
8
 73
4
 74
0
 40
0
 40
0
 40
0
 40
0
 40
1
 40
1
 40
1
 40
1
 10
226.316648
 20
60.704392
 30
0.0
 10
225.283464
 20
63.607392
 30
0.0
 10
226.261528
 20
63.989608
 30
0.0
 10
228.443656
 20
64.877232
 30
0.0
  0
LWPOLYLINE
  5
1c1
100
AcDbEntity
  8
0
 62
7
100
AcDbPolyline
 90
2
 70
1
 10
231.869608
 20
45.133352
 30
0.0
 10
226.316648
 20
60.704392
 30
0.0
  0
SPLINE
  5
1c2
100
AcDbEntity
  8
0
 62
7
100
AcDbSpline
 70
8
 71
3
 72
8
 73
4
 74
0
 40
0
 40
0
 40
0
 40
0
 40
1
 40
1
 40
1
 40
1
 10
147.324872
 20
63.497112
 30
0.0
 10
142.037576
 20
63.291232
 30
0.0
 10
137.803088
 20
59.483544
 30
0.0
 10
136.316360
 20
54.079800
 30
0.0
  0
SPLINE
  5
1c3
100
AcDbEntity
  8
0
 62
7
100
AcDbSpline
 70
8
 71
3
 72
8
 73
4
 74
0
 40
0
 40
0
 40
0
 40
0
 40
1
 40
1
 40
1
 40
1
 10
136.316360
 20
54.079800
 30
0.0
 10
134.699960
 20
48.205408
 30
0.0
 10
136.689096
 20
41.225560
 30
0.0
 10
144.791944
 20
38.995864
 30
0.0
  0
SPLINE
  5
1c4
100
AcDbEntity
  8
0
 62
7
100
AcDbSpline
 70
8
 71
3
 72
8
 73
4
 74
0
 40
0
 40
0
 40
0
 40
0
 40
1
 40
1
 40
1
 40
1
 10
144.791944
 20
38.995864
 30
0.0
 10
147.611808
 20
38.219800
 30
0.0
 10
152.256432
 20
37.967488
 30
0.0
 10
154.128072
 20
38.687360
 30
0.0
  0
LWPOLYLINE
  5
1c5
100
AcDbEntity
  8
0
 62
7
100
AcDbPolyline
 90
3
 70
1
 10
228.443656
 20
64.877232
 30
0.0
 10
228.151400
 20
65.705312
 30
0.0
 10
228.151400
 20
65.705312
 30
0.0
  0
SPLINE
  5
1c6
100
AcDbEntity
  8
0
 62
7
100
AcDbSpline
 70
8
 71
3
 72
8
 73
4
 74
0
 40
0
 40
0
 40
0
 40
0
 40
1
 40
1
 40
1
 40
1
 10
155.297120
 20
42.973864
 30
0.0
 10
156.058816
 20
45.742032
 30
0.0
 10
156.875720
 20
45.628432
 30
0.0
 10
158.950384
 20
45.311952
 30
0.0
  0
LWPOLYLINE
  5
1c7
100
AcDbEntity
  8
0
 62
7
100
AcDbPolyline
 90
2
 70
1
 10
154.128072
 20
38.687360
 30
0.0
 10
155.297120
 20
42.973864
 30
0.0
  0
SPLINE
  5
1c8
100
AcDbEntity
  8
0
 62
7
100
AcDbSpline
 70
8
 71
3
 72
8
 73
4
 74
0
 40
0
 40
0
 40
0
 40
0
 40
1
 40
1
 40
1
 40
1
 10
147.828216
 20
48.364464
 30
0.0
 10
150.027448
 20
47.614136
 30
0.0
 10
151.036920
 20
47.261400
 30
0.0
 10
150.442328
 20
45.100880
 30
0.0
  0
LWPOLYLINE
  5
1c9
100
AcDbEntity
  8
0
 62
7
100
AcDbPolyline
 90
4
 70
1
 10
158.950384
 20
45.311952
 30
0.0
 10
159.177696
 20
46.156264
 30
0.0
 10
148.055528
 20
49.208776
 30
0.0
 10
147.828216
 20
48.364464
 30
0.0
  0
SPLINE
  5
1ca
100
AcDbEntity
  8
0
 62
7
100
AcDbSpline
 70
8
 71
3
 72
8
 73
4
 74
0
 40
0
 40
0
 40
0
 40
0
 40
1
 40
1
 40
1
 40
1
 10
149.468128
 20
41.561264
 30
0.0
 10
149.068568
 20
40.109768
 30
0.0
 10
148.277392
 20
39.233896
 30
0.0
 10
145.425176
 20
40.018776
 30
0.0
  0
SPLINE
  5
1cb
100
AcDbEntity
  8
0
 62
7
100
AcDbSpline
 70
8
 71
3
 72
8
 73
4
 74
0
 40
0
 40
0
 40
0
 40
0
 40
1
 40
1
 40
1
 40
1
 10
145.425176
 20
40.018776
 30
0.0
 10
139.299312
 20
41.704280
 30
0.0
 10
141.420808
 20
50.172648
 30
0.0
 10
142.080408
 20
52.569784
 30
0.0
  0
SPLINE
  5
1cc
100
AcDbEntity
  8
0
 62
7
100
AcDbSpline
 70
8
 71
3
 72
8
 73
4
 74
0
 40
0
 40
0
 40
0
 40
0
 40
1
 40
1
 40
1
 40
1
 10
142.080408
 20
52.569784
 30
0.0
 10
143.678104
 20
58.376624
 30
0.0
 10
146.375808
 20
63.150168
 30
0.0
 10
151.075560
 20
61.857200
 30
0.0
  0
SPLINE
  5
1cd
100
AcDbEntity
  8
0
 62
7
100
AcDbSpline
 70
8
 71
3
 72
8
 73
4
 74
0
 40
0
 40
0
 40
0
 40
0
 40
1
 40
1
 40
1
 40
1
 10
151.075560
 20
61.857200
 30
0.0
 10
154.770720
 20
60.840200
 30
0.0
 10
156.416152
 20
56.127576
 30
0.0
 10
156.742184
 20
52.878280
 30
0.0
  0
LWPOLYLINE
  5
1ce
100
AcDbEntity
  8
0
 62
7
100
AcDbPolyline
 90
2
 70
1
 10
150.442328
 20
45.100880
 30
0.0
 10
149.468128
 20
41.561264
 30
0.0
  0
SPLINE
  5
1cf
100
AcDbEntity
  8
0
 62
7
100
AcDbSpline
 70
8
 71
3
 72
8
 73
4
 74
0
 40
0
 40
0
 40
0
 40
0
 40
1
 40
1
 40
1
 40
1
 10
158.852968
 20
60.801808
 30
0.0
 10
158.296688
 20
60.046736
 30
0.0
 10
157.812320
 20
59.424544
 30
0.0
 10
156.937032
 20
59.665240
 30
0.0
  0
SPLINE
  5
1d0
100
AcDbEntity
  8
0
 62
7
100
AcDbSpline
 70
8
 71
3
 72
8
 73
4
 74
0
 40
0
 40
0
 40
0
 40
0
 40
1
 40
1
 40
1
 40
1
 10
156.937032
 20
59.665240
 30
0.0
 10
156.094472
 20
59.897040
 30
0.0
 10
154.041496
 20
62.240128
 30
0.0
 10
151.124272
 20
63.042480
 30
0.0
  0
SPLINE
  5
1d1
100
AcDbEntity
  8
0
 62
7
100
AcDbSpline
 70
8
 71
3
 72
8
 73
4
 74
0
 40
0
 40
0
 40
0
 40
0
 40
1
 40
1
 40
1
 40
1
 10
151.124272
 20
63.042480
 30
0.0
 10
149.811552
 20
63.403704
 30
0.0
 10
148.545024
 20
63.544624
 30
0.0
 10
147.324872
 20
63.497112
 30
0.0
  0
LWPOLYLINE
  5
1d2
100
AcDbEntity
  8
0
 62
7
100
AcDbPolyline
 90
4
 70
1
 10
156.742184
 20
52.878280
 30
0.0
 10
157.554024
 20
52.667200
 30
0.0
 10
159.729752
 20
60.558264
 30
0.0
 10
158.852968
 20
60.801808
 30
0.0
  0
LWPOLYLINE
  5
1d3
100
AcDbEntity
  8
0
 62
7
100
AcDbPolyline
 90
2
 70
1
 10
147.324872
 20
63.497112
 30
0.0
 10
147.324872
 20
63.497112
 30
0.0
  0
SPLINE
  5
1d4
100
AcDbEntity
  8
0
 62
7
100
AcDbSpline
 70
8
 71
3
 72
8
 73
4
 74
0
 40
0
 40
0
 40
0
 40
0
 40
1
 40
1
 40
1
 40
1
 10
192.852712
 20
56.969936
 30
0.0
 10
194.364416
 20
57.086056
 30
0.0
 10
195.731744
 20
57.227128
 30
0.0
 10
196.067584
 20
54.940344
 30
0.0
  0
LWPOLYLINE
  5
1d5
100
AcDbEntity
  8
0
 62
7
100
AcDbPolyline
 90
3
 70
1
 10
204.332088
 20
59.551584
 30
0.0
 10
192.722816
 20
57.846720
 30
0.0
 10
192.852712
 20
56.969936
 30
0.0
  0
SPLINE
  5
1d6
100
AcDbEntity
  8
0
 62
7
100
AcDbSpline
 70
8
 71
3
 72
8
 73
4
 74
0
 40
0
 40
0
 40
0
 40
0
 40
1
 40
1
 40
1
 40
1
 10
198.535568
 20
38.167784
 30
0.0
 10
198.846080
 20
36.054152
 30
0.0
 10
197.861752
 20
35.794232
 30
0.0
 10
196.035112
 20
35.277648
 30
0.0
  0
LWPOLYLINE
  5
1d7
100
AcDbEntity
  8
0
 62
7
100
AcDbPolyline
 90
2
 70
1
 10
196.067584
 20
54.940344
 30
0.0
 10
198.535568
 20
38.167784
 30
0.0
  0
SPLINE
  5
1d8
100
AcDbEntity
  8
0
 62
7
100
AcDbSpline
 70
8
 71
3
 72
8
 73
4
 74
0
 40
0
 40
0
 40
0
 40
0
 40
1
 40
1
 40
1
 40
1
 10
214.626184
 20
45.165824
 30
0.0
 10
213.671336
 20
41.025456
 30
0.0
 10
212.228016
 20
37.883120
 30
0.0
 10
207.205992
 20
37.144872
 30
0.0
  0
SPLINE
  5
1d9
100
AcDbEntity
  8
0
 62
7
100
AcDbSpline
 70
8
 71
3
 72
8
 73
4
 74
0
 40
0
 40
0
 40
0
 40
0
 40
1
 40
1
 40
1
 40
1
 10
207.205992
 20
37.144872
 30
0.0
 10
204.977592
 20
36.816960
 30
0.0
 10
204.202784
 20
36.975624
 30
0.0
 10
203.958648
 20
38.638656
 30
0.0
  0
LWPOLYLINE
  5
1da
100
AcDbEntity
  8
0
 62
7
100
AcDbPolyline
 90
5
 70
1
 10
196.035112
 20
35.277648
 30
0.0
 10
196.165008
 20
34.417096
 30
0.0
 10
215.389312
 20
37.242296
 30
0.0
 10
215.584152
 20
45.311952
 30
0.0
 10
214.626184
 20
45.165824
 30
0.0
  0
SPLINE
  5
1db
100
AcDbEntity
  8
0
 62
7
100
AcDbSpline
 70
8
 71
3
 72
8
 73
4
 74
0
 40
0
 40
0
 40
0
 40
0
 40
1
 40
1
 40
1
 40
1
 10
201.571840
 20
55.005296
 30
0.0
 10
201.124040
 20
58.054424
 30
0.0
 10
202.149160
 20
58.228936
 30
0.0
 10
204.461984
 20
58.674800
 30
0.0
  0
LWPOLYLINE
  5
1dc
100
AcDbEntity
  8
0
 62
7
100
AcDbPolyline
 90
2
 70
1
 10
203.958648
 20
38.638656
 30
0.0
 10
201.571840
 20
55.005296
 30
0.0
  0
LWPOLYLINE
  5
1dd
100
AcDbEntity
  8
0
 62
7
100
AcDbPolyline
 90
3
 70
1
 10
204.461984
 20
58.674800
 30
0.0
 10
204.332088
 20
59.551584
 30
0.0
 10
204.332088
 20
59.551584
 30
0.0
  0
SPLINE
  5
1de
100
AcDbEntity
  8
0
 62
7
100
AcDbSpline
 70
8
 71
3
 72
8
 73
4
 74
0
 40
0
 40
0
 40
0
 40
0
 40
1
 40
1
 40
1
 40
1
 10
168.189096
 20
39.986304
 30
0.0
 10
167.042064
 20
37.417264
 30
0.0
 10
166.509824
 20
36.256208
 30
0.0
 10
164.681960
 20
36.073248
 30
0.0
  0
LWPOLYLINE
  5
1df
100
AcDbEntity
  8
0
 62
7
100
AcDbPolyline
 90
2
 70
1
 10
176.664672
 20
58.755984
 30
0.0
 10
168.189096
 20
39.986304
 30
0.0
  0
SPLINE
  5
1e0
100
AcDbEntity
  8
0
 62
7
100
AcDbSpline
 70
8
 71
3
 72
8
 73
4
 74
0
 40
0
 40
0
 40
0
 40
0
 40
1
 40
1
 40
1
 40
1
 10
171.501400
 20
35.716040
 30
0.0
 10
170.363592
 20
35.847032
 30
0.0
 10
168.767528
 20
36.026872
 30
0.0
 10
168.838576
 20
37.355952
 30
0.0
  0
SPLINE
  5
1e1
100
AcDbEntity
  8
0
 62
7
100
AcDbSpline
 70
8
 71
3
 72
8
 73
4
 74
0
 40
0
 40
0
 40
0
 40
0
 40
1
 40
1
 40
1
 40
1
 10
168.838576
 20
37.355952
 30
0.0
 10
168.868416
 20
37.915344
 30
0.0
 10
169.469024
 20
39.321040
 30
0.0
 10
170.543432
 20
41.788584
 30
0.0
  0
LWPOLYLINE
  5
1e2
100
AcDbEntity
  8
0
 62
7
100
AcDbPolyline
 90
4
 70
1
 10
164.681960
 20
36.073248
 30
0.0
 10
164.649480
 20
35.196464
 30
0.0
 10
171.452680
 20
34.839256
 30
0.0
 10
171.501400
 20
35.716040
 30
0.0
  0
SPLINE
  5
1e3
100
AcDbEntity
  8
0
 62
7
100
AcDbSpline
 70
8
 71
3
 72
8
 73
4
 74
0
 40
0
 40
0
 40
0
 40
0
 40
1
 40
1
 40
1
 40
1
 10
178.109760
 20
41.398904
 30
0.0
 10
178.520096
 20
40.255056
 30
0.0
 10
179.442864
 20
37.601840
 30
0.0
 10
179.392464
 20
36.657768
 30
0.0
  0
SPLINE
  5
1e4
100
AcDbEntity
  8
0
 62
7
100
AcDbSpline
 70
8
 71
3
 72
8
 73
4
 74
0
 40
0
 40
0
 40
0
 40
0
 40
1
 40
1
 40
1
 40
1
 10
179.392464
 20
36.657768
 30
0.0
 10
179.330864
 20
35.503792
 30
0.0
 10
178.723320
 20
35.503464
 30
0.0
 10
176.632216
 20
35.440016
 30
0.0
  0
LWPOLYLINE
  5
1e5
100
AcDbEntity
  8
0
 62
7
100
AcDbPolyline
 90
2
 70
1
 10
170.543432
 20
41.788584
 30
0.0
 10
178.109760
 20
41.398904
 30
0.0
  0
SPLINE
  5
1e6
100
AcDbEntity
  8
0
 62
7
100
AcDbSpline
 70
8
 71
3
 72
8
 73
4
 74
0
 40
0
 40
0
 40
0
 40
0
 40
1
 40
1
 40
1
 40
1
 10
187.380944
 20
34.871728
 30
0.0
 10
185.870216
 20
34.952264
 30
0.0
 10
185.400448
 20
36.189432
 30
0.0
 10
184.117352
 20
39.905120
 30
0.0
  0
LWPOLYLINE
  5
1e7
100
AcDbEntity
  8
0
 62
7
100
AcDbPolyline
 90
5
 70
1
 10
176.632216
 20
35.440016
 30
0.0
 10
176.599736
 20
34.563232
 30
0.0
 10
187.478352
 20
33.978704
 30
0.0
 10
187.510832
 20
34.855488
 30
0.0
 10
187.380944
 20
34.871728
 30
0.0
  0
SPLINE
  5
1e8
100
AcDbEntity
  8
0
 62
7
100
AcDbSpline
 70
8
 71
3
 72
8
 73
4
 74
0
 40
0
 40
0
 40
0
 40
0
 40
1
 40
1
 40
1
 40
1
 10
116.929688
 20
56.141864
 30
0.0
 10
115.907880
 20
56.084344
 30
0.0
 10
114.942336
 20
55.464720
 30
0.0
 10
114.445464
 20
54.501952
 30
0.0
  0
SPLINE
  5
1e9
100
AcDbEntity
  8
0
 62
7
100
AcDbSpline
 70
8
 71
3
 72
8
 73
4
 74
0
 40
0
 40
0
 40
0
 40
0
 40
1
 40
1
 40
1
 40
1
 10
114.445464
 20
54.501952
 30
0.0
 10
113.691040
 20
53.039016
 30
0.0
 10
114.164568
 20
51.328776
 30
0.0
 10
115.598272
 20
50.588896
 30
0.0
  0
SPLINE
  5
1ea
100
AcDbEntity
  8
0
 62
7
100
AcDbSpline
 70
8
 71
3
 72
8
 73
4
 74
0
 40
0
 40
0
 40
0
 40
0
 40
1
 40
1
 40
1
 40
1
 10
115.598272
 20
50.588896
 30
0.0
 10
117.002232
 20
49.864608
 30
0.0
 10
118.724760
 20
50.393920
 30
0.0
 10
119.495096
 20
51.887840
 30
0.0
  0
SPLINE
  5
1eb
100
AcDbEntity
  8
0
 62
7
100
AcDbSpline
 70
8
 71
3
 72
8
 73
4
 74
0
 40
0
 40
0
 40
0
 40
0
 40
1
 40
1
 40
1
 40
1
 10
119.495096
 20
51.887840
 30
0.0
 10
120.233672
 20
53.319328
 30
0.0
 10
119.713704
 20
55.125248
 30
0.0
 10
118.309808
 20
55.849600
 30
0.0
  0
SPLINE
  5
1ec
100
AcDbEntity
  8
0
 62
7
100
AcDbSpline
 70
8
 71
3
 72
8
 73
4
 74
0
 40
0
 40
0
 40
0
 40
0
 40
1
 40
1
 40
1
 40
1
 10
118.309808
 20
55.849600
 30
0.0
 10
117.861672
 20
56.080688
 30
0.0
 10
117.394144
 20
56.167992
 30
0.0
 10
116.929688
 20
56.141864
 30
0.0
  0
LWPOLYLINE
  5
1ed
100
AcDbEntity
  8
0
 62
7
100
AcDbPolyline
 90
4
 70
1
 10
184.117352
 20
39.905120
 30
0.0
 10
177.606424
 20
58.707296
 30
0.0
 10
176.664688
 20
58.756016
 30
0.0
 10
176.664672
 20
58.755984
 30
0.0
  0
LWPOLYLINE
  5
1ee
100
AcDbEntity
  8
0
 62
7
100
AcDbPolyline
 90
2
 70
1
 10
116.929688
 20
56.141864
 30
0.0
 10
116.929688
 20
56.141864
 30
0.0
  0
LWPOLYLINE
  5
1ef
100
AcDbEntity
  8
0
 62
7
100
AcDbPolyline
 90
5
 70
1
 10
174.732504
 20
51.465680
 30
0.0
 10
177.671352
 20
42.779024
 30
0.0
 10
171.127944
 20
43.136232
 30
0.0
 10
174.732504
 20
51.465680
 30
0.0
 10
174.732504
 20
51.465680
 30
0.0
  0
ENDSEC
  0
SECTION
  2
OBJECTS
  0
DICTIONARY
  5
C
330
0
100
AcDbDictionary
  3
ACAD_GROUP
350
D
  3
ACAD_MLINESTYLE
350
17
  0
DICTIONARY
  5
D
330
C
100
AcDbDictionary
  0
DICTIONARY
  5
1A
330
C
100
AcDbDictionary
  0
DICTIONARY
  5
17
330
C
100
AcDbDictionary
  3
STANDARD
350
18
  0
DICTIONARY
  5
19
330
C
100
AcDbDictionary
  0
ENDSEC
  0
EOF
