999
dxfrw 0.6.3
  0
SECTION
  2
HEADER
  9
$ACADVER
  1
AC1021
  9
$DWGCODEPAGE
  3
ANSI_1252
  9
$INSBASE
 10
0
 20
0
 30
0
  9
$EXTMIN
 10
0.3803784773313934
 20
0.2866686518435841
 30
0
  9
$EXTMAX
 10
40.44992609152526
 20
41.53588181817265
 30
0
  9
$LIMMIN
 10
0
 20
0
  9
$LIMMAX
 10
420
 20
297
  9
$ORTHOMODE
 70
    0
  9
$REGENMODE
 70
    1
  9
$FILLMODE
 70
    1
  9
$QTEXTMODE
 70
    0
  9
$MIRRTEXT
 70
    0
  9
$LTSCALE
 40
1
  9
$ATTMODE
 70
    0
  9
$TEXTSIZE
 40
2.5
  9
$TRACEWID
 40
15.68
  9
$TEXTSTYLE
  7
STANDARD
  9
$CLAYER
  8
0
  9
$CELTYPE
  6
BYLAYER
  9
$CECOLOR
 62
  256
  9
$CELTSCALE
 40
1
  9
$DISPSILH
 70
    0
  9
$DIMSCALE
 40
2.5
  9
$DIMASZ
 40
2.5
  9
$DIMEXO
 40
0.625
  9
$DIMDLI
 40
3.75
  9
$DIMRND
 40
0
  9
$DIMDLE
 40
0
  9
$DIMEXE
 40
1.25
  9
$DIMTP
 40
0
  9
$DIMTM
 40
0
  9
$DIMTXT
 40
2.5
  9
$DIMCEN
 40
2.5
  9
$DIMTSZ
 40
0
  9
$DIMTOL
 70
    0
  9
$DIMLIM
 70
    0
  9
$DIMTIH
 70
    0
  9
$DIMTOH
 70
    0
  9
$DIMSE1
 70
    0
  9
$DIMSE2
 70
    0
  9
$DIMTAD
 70
    1
  9
$DIMZIN
 70
    8
  9
$DIMBLK
  1

  9
$DIMASO
 70
    1
  9
$DIMSHO
 70
    1
  9
$DIMPOST
  1

  9
$DIMAPOST
  1

  9
$DIMALT
 70
    0
  9
$DIMALTD
 70
    3
  9
$DIMALTF
 40
0.03937
  9
$DIMLFAC
 40
1
  9
$DIMTOFL
 70
    1
  9
$DIMTVP
 40
0
  9
$DIMTIX
 70
    0
  9
$DIMSOXD
 70
    0
  9
$DIMSAH
 70
    0
  9
$DIMBLK1
  1

  9
$DIMBLK2
  1

  9
$DIMSTYLE
  2
Standard
  9
$DIMCLRD
 70
    0
  9
$DIMCLRE
 70
    0
  9
$DIMCLRT
 70
    0
  9
$DIMTFAC
 40
1
  9
$DIMGAP
 40
0.625
  9
$DIMJUST
 70
    0
  9
$DIMSD1
 70
    0
  9
$DIMSD2
 70
    0
  9
$DIMTOLJ
 70
    0
  9
$DIMTZIN
 70
    8
  9
$DIMALTZ
 70
    0
  9
$DIMALTTZ
 70
    0
  9
$DIMUPT
 70
    0
  9
$DIMDEC
 70
    2
  9
$DIMTDEC
 70
    2
  9
$DIMALTU
 70
    2
  9
$DIMALTTD
 70
    3
  9
$DIMTXSTY
  7
STANDARD
  9
$DIMAUNIT
 70
    0
  9
$DIMADEC
 70
    0
  9
$DIMALTRND
 40
0
  9
$DIMAZIN
 70
    0
  9
$DIMDSEP
 70
   44
  9
$DIMATFIT
 70
    3
  9
$DIMFRAC
 70
    0
  9
$DIMLDRBLK
  1
STANDARD
  9
$DIMLUNIT
 70
    2
  9
$DIMLWD
 70
   -2
  9
$DIMLWE
 70
   -2
  9
$DIMTMOVE
 70
    0
  9
$DIMFXL
 40
1
  9
$DIMFXLON
 70
    0
  9
$DIMJOGANG
 40
0.7854
  9
$DIMTFILL
 70
    0
  9
$DIMTFILLCLR
 70
    0
  9
$DIMARCSYM
 70
    0
  9
$DIMLTYPE
  6

  9
$DIMLTEX1
  6

  9
$DIMLTEX2
  6

  9
$LUNITS
 70
    2
  9
$LUPREC
 70
    4
  9
$SKETCHINC
 40
1
  9
$FILLETRAD
 40
0
  9
$AUNITS
 70
    0
  9
$AUPREC
 70
    2
  9
$MENU
  1
.
  9
$ELEVATION
 40
0
  9
$PELEVATION
 40
0
  9
$THICKNESS
 40
0
  9
$LIMCHECK
 70
    0
  9
$CHAMFERA
 40
0
  9
$CHAMFERB
 40
0
  9
$CHAMFERC
 40
0
  9
$CHAMFERD
 40
0
  9
$SKPOLY
 70
    0
  9
$USRTIMER
 70
    1
  9
$ANGBASE
 50
0
  9
$ANGDIR
 70
    0
  9
$PDMODE
 70
   34
  9
$PDSIZE
 40
0
  9
$PLINEWID
 40
0
  9
$SPLFRAME
 70
    0
  9
$SPLINETYPE
 70
    2
  9
$SPLINESEGS
 70
    8
  9
$HANDSEED
  5
20000
  9
$SURFTAB1
 70
    6
  9
$SURFTAB2
 70
    6
  9
$SURFTYPE
 70
    6
  9
$SURFU
 70
    6
  9
$SURFV
 70
    6
  9
$UCSBASE
  2

  9
$UCSNAME
  2

  9
$UCSORG
 10
0
 20
0
 30
0
  9
$UCSXDIR
 10
1
 20
0
 30
0
  9
$UCSYDIR
 10
0
 20
1
 30
0
  9
$UCSORTHOREF
  2

  9
$UCSORTHOVIEW
 70
    0
  9
$UCSORGTOP
 10
0
 20
0
 30
0
  9
$UCSORGBOTTOM
 10
0
 20
0
 30
0
  9
$UCSORGLEFT
 10
0
 20
0
 30
0
  9
$UCSORGRIGHT
 10
0
 20
0
 30
0
  9
$UCSORGFRONT
 10
0
 20
0
 30
0
  9
$UCSORGBACK
 10
0
 20
0
 30
0
  9
$PUCSBASE
  2

  9
$PUCSNAME
  2

  9
$PUCSORG
 10
0
 20
0
 30
0
  9
$PUCSXDIR
 10
1
 20
0
 30
0
  9
$PUCSYDIR
 10
0
 20
1
 30
0
  9
$PUCSORTHOREF
  2

  9
$PUCSORTHOVIEW
 70
    0
  9
$PUCSORGTOP
 10
0
 20
0
 30
0
  9
$PUCSORGBOTTOM
 10
0
 20
0
 30
0
  9
$PUCSORGLEFT
 10
0
 20
0
 30
0
  9
$PUCSORGRIGHT
 10
0
 20
0
 30
0
  9
$PUCSORGFRONT
 10
0
 20
0
 30
0
  9
$PUCSORGBACK
 10
0
 20
0
 30
0
  9
$USERI1
 70
    0
  9
$USERI2
 70
    0
  9
$USERI3
 70
    0
  9
$USERI4
 70
    0
  9
$USERI5
 70
    0
  9
$USERR1
 40
0
  9
$USERR2
 40
0
  9
$USERR3
 40
0
  9
$USERR4
 40
0
  9
$USERR5
 40
0
  9
$WORLDVIEW
 70
    1
  9
$SHADEDGE
 70
    3
  9
$SHADEDIF
 70
   70
  9
$TILEMODE
 70
    1
  9
$MAXACTVP
 70
   64
  9
$PINSBASE
 10
0
 20
0
 30
0
  9
$PLIMCHECK
 70
    0
  9
$PEXTMIN
 10
0
 20
0
 30
0
  9
$PEXTMAX
 10
0
 20
0
 30
0
  9
$GRIDMODE
 70
    0
  9
$SNAPSTYLE
 70
    0
  9
$PLIMMIN
 10
0
 20
0
  9
$PLIMMAX
 10
210
 20
297
  9
$UNITMODE
 70
    0
  9
$VISRETAIN
 70
    1
  9
$PLINEGEN
 70
    0
  9
$PSLTSCALE
 70
    1
  9
$TREEDEPTH
 70
 3020
  9
$CMLSTYLE
  2
Standard
  9
$CMLJUST
 70
    0
  9
$CMLSCALE
 40
20
  9
$PROXYGRAPHICS
 70
    1
  9
$MEASUREMENT
 70
    1
  9
$CELWEIGHT
370
   -1
  9
$ENDCAPS
280
    0
  9
$JOINSTYLE
280
    0
  9
$LWDISPLAY
290
    0
  9
$INSUNITS
 70
    4
  9
$HYPERLINKBASE
  1

  9
$STYLESHEET
  1

  9
$XEDIT
290
    1
  9
$CEPSNTYPE
380
    0
  9
$PSTYLEMODE
290
    1
  9
$EXTNAMES
290
    1
  9
$PSVPSCALE
 40
1
  9
$OLESTARTUP
290
    0
  9
$SORTENTS
280
  127
  9
$INDEXCTL
280
    0
  9
$HIDETEXT
280
    1
  9
$XCLIPFRAME
290
    0
  9
$HALOGAP
280
    0
  9
$OBSCOLOR
 70
  257
  9
$OBSLTYPE
280
    0
  9
$INTERSECTIONDISPLAY
280
    0
  9
$INTERSECTIONCOLOR
 70
  257
  9
$DIMASSOC
280
    1
  9
$PROJECTNAME
  1

  9
$CAMERADISPLAY
290
    0
  9
$LENSLENGTH
 40
50
  9
$CAMERAHEIGHT
 40
0
  9
$STEPSPERSEC
 40
2
  9
$STEPSIZE
 40
50
  9
$3DDWFPREC
 40
2
  9
$PSOLWIDTH
 40
5
  9
$PSOLHEIGHT
 40
80
  9
$LOFTANG1
 40
1.570796326794897
  9
$LOFTANG2
 40
1.570796326794897
  9
$LOFTMAG1
 40
0
  9
$LOFTMAG2
 40
0
  9
$LOFTPARAM
 70
    7
  9
$LOFTNORMALS
280
    1
  9
$LATITUDE
 40
1
  9
$LONGITUDE
 40
1
  9
$NORTHDIRECTION
 40
0
  9
$TIMEZONE
 70
-8000
  9
$LIGHTGLYPHDISPLAY
280
    1
  9
$TILEMODELIGHTSYNCH
280
    1
  9
$SOLIDHIST
280
    1
  9
$SHOWHIST
280
    1
  9
$DWFFRAME
280
    2
  9
$DGNFRAME
280
    0
  9
$REALWORLDSCALE
290
    1
  9
$INTERFERECOLOR
 62
    1
  9
$CSHADOW
280
    0
  9
$SHADOWPLANELOCATION
 40
0
  0
ENDSEC
  0
SECTION
  2
CLASSES
  0
ENDSEC
  0
SECTION
  2
TABLES
  0
TABLE
  2
VPORT
  5
8
330
0
100
AcDbSymbolTable
 70
    1
  0
VPORT
  5
31
330
2
100
AcDbSymbolTableRecord
100
AcDbViewportTableRecord
  2
*ACTIVE
 70
    0
 10
0
 20
0
 11
1
 21
1
 12
30.10186004098016
 22
25.97023219221818
 13
0
 23
0
 14
10
 24
10
 15
10
 25
10
 16
0
 26
0
 36
1
 17
0
 27
0
 37
0
 40
160.0710675120357
 41
2.297935103244838
 42
50
 43
0
 44
0
 50
0
 51
0
 71
    0
 72
  100
 73
    1
 74
    3
 75
    0
 76
    0
 77
    0
 78
    0
281
    0
 65
    1
110
0
120
0
130
0
111
1
121
0
131
0
112
0
122
1
132
0
 79
    0
146
0
348
10020
 60
    7
 61
    5
292
1
282
    1
141
0
142
0
 63
  250
421
3358443
  0
ENDTAB
  0
TABLE
  2
LTYPE
  5
5
330
0
100
AcDbSymbolTable
 70
    4
  0
LTYPE
  5
14
330
5
100
AcDbSymbolTableRecord
100
AcDbLinetypeTableRecord
  2
ByBlock
 70
    0
  3

 72
   65
 73
    0
 40
0
  0
LTYPE
  5
15
330
5
100
AcDbSymbolTableRecord
100
AcDbLinetypeTableRecord
  2
ByLayer
 70
    0
  3

 72
   65
 73
    0
 40
0
  0
LTYPE
  5
16
330
5
100
AcDbSymbolTableRecord
100
AcDbLinetypeTableRecord
  2
Continuous
 70
    0
  3
Solid line
 72
   65
 73
    0
 40
0
  0
LTYPE
  5
32
330
5
100
AcDbSymbolTableRecord
100
AcDbLinetypeTableRecord
  2
DOT
 70
    0
  3
Dot . . . . . . . . . . . . . . . . . . . . . .
 72
   65
 73
    2
 40
6.35
 49
0
 74
    0
 49
-6.35
 74
    0
  0
LTYPE
  5
33
330
5
100
AcDbSymbolTableRecord
100
AcDbLinetypeTableRecord
  2
DOTTINY
 70
    0
  3
Dot (.15x) .....................................
 72
   65
 73
    2
 40
0.9525
 49
0
 74
    0
 49
-0.9525
 74
    0
  0
LTYPE
  5
34
330
5
100
AcDbSymbolTableRecord
100
AcDbLinetypeTableRecord
  2
DOT2
 70
    0
  3
Dot (.5x) .....................................
 72
   65
 73
    2
 40
3.175
 49
0
 74
    0
 49
-3.175
 74
    0
  0
LTYPE
  5
35
330
5
100
AcDbSymbolTableRecord
100
AcDbLinetypeTableRecord
  2
DOTX2
 70
    0
  3
Dot (2x) .  .  .  .  .  .  .  .  .  .  .  .  .
 72
   65
 73
    2
 40
12.7
 49
0
 74
    0
 49
-12.7
 74
    0
  0
LTYPE
  5
36
330
5
100
AcDbSymbolTableRecord
100
AcDbLinetypeTableRecord
  2
DASHED
 70
    0
  3
Dashed _ _ _ _ _ _ _ _ _ _ _ _ _ _ _ _ _
 72
   65
 73
    2
 40
19.05
 49
12.7
 74
    0
 49
-6.35
 74
    0
  0
LTYPE
  5
37
330
5
100
AcDbSymbolTableRecord
100
AcDbLinetypeTableRecord
  2
DASHEDTINY
 70
    0
  3
Dashed (.15x) _ _ _ _ _ _ _ _ _ _ _ _ _ _ _ _ _
 72
   65
 73
    2
 40
2.8575
 49
1.905
 74
    0
 49
-0.9525
 74
    0
  0
LTYPE
  5
38
330
5
100
AcDbSymbolTableRecord
100
AcDbLinetypeTableRecord
  2
DASHED2
 70
    0
  3
Dashed (.5x) _ _ _ _ _ _ _ _ _ _ _ _ _ _ _ _ _
 72
   65
 73
    2
 40
9.524999999999999
 49
6.35
 74
    0
 49
-3.175
 74
    0
  0
LTYPE
  5
39
330
5
100
AcDbSymbolTableRecord
100
AcDbLinetypeTableRecord
  2
DASHEDX2
 70
    0
  3
Dashed (2x) ____  ____  ____  ____  ____  ___
 72
   65
 73
    2
 40
38.09999999999999
 49
25.4
 74
    0
 49
-12.7
 74
    0
  0
LTYPE
  5
3A
330
5
100
AcDbSymbolTableRecord
100
AcDbLinetypeTableRecord
  2
DASHDOT
 70
    0
  3
Dash dot __ . __ . __ . __ . __ . __ . __ . __
 72
   65
 73
    4
 40
25.4
 49
12.7
 74
    0
 49
-6.35
 74
    0
 49
0
 74
    0
 49
-6.35
 74
    0
  0
LTYPE
  5
3B
330
5
100
AcDbSymbolTableRecord
100
AcDbLinetypeTableRecord
  2
DASHDOTTINY
 70
    0
  3
Dash dot (.15x) _._._._._._._._._._._._._._._.
 72
   65
 73
    4
 40
3.81
 49
1.905
 74
    0
 49
-0.9525
 74
    0
 49
0
 74
    0
 49
-0.9525
 74
    0
  0
LTYPE
  5
3C
330
5
100
AcDbSymbolTableRecord
100
AcDbLinetypeTableRecord
  2
DASHDOT2
 70
    0
  3
Dash dot (.5x) _._._._._._._._._._._._._._._.
 72
   65
 73
    4
 40
12.7
 49
6.35
 74
    0
 49
-3.175
 74
    0
 49
0
 74
    0
 49
-3.175
 74
    0
  0
LTYPE
  5
3D
330
5
100
AcDbSymbolTableRecord
100
AcDbLinetypeTableRecord
  2
DASHDOTX2
 70
    0
  3
Dash dot (2x) ____  .  ____  .  ____  .  ___
 72
   65
 73
    4
 40
50.8
 49
25.4
 74
    0
 49
-12.7
 74
    0
 49
0
 74
    0
 49
-12.7
 74
    0
  0
LTYPE
  5
3E
330
5
100
AcDbSymbolTableRecord
100
AcDbLinetypeTableRecord
  2
DIVIDE
 70
    0
  3
Divide ____ . . ____ . . ____ . . ____ . . ____
 72
   65
 73
    6
 40
31.75
 49
12.7
 74
    0
 49
-6.35
 74
    0
 49
0
 74
    0
 49
-6.35
 74
    0
 49
0
 74
    0
 49
-6.35
 74
    0
  0
LTYPE
  5
3F
330
5
100
AcDbSymbolTableRecord
100
AcDbLinetypeTableRecord
  2
DIVIDETINY
 70
    0
  3
Divide (.15x) __..__..__..__..__..__..__..__.._
 72
   65
 73
    6
 40
4.7625
 49
1.905
 74
    0
 49
-0.9525
 74
    0
 49
0
 74
    0
 49
-0.9525
 74
    0
 49
0
 74
    0
 49
-0.9525
 74
    0
  0
LTYPE
  5
40
330
5
100
AcDbSymbolTableRecord
100
AcDbLinetypeTableRecord
  2
DIVIDE2
 70
    0
  3
Divide (.5x) __..__..__..__..__..__..__..__.._
 72
   65
 73
    6
 40
15.875
 49
6.35
 74
    0
 49
-3.175
 74
    0
 49
0
 74
    0
 49
-3.175
 74
    0
 49
0
 74
    0
 49
-3.175
 74
    0
  0
LTYPE
  5
41
330
5
100
AcDbSymbolTableRecord
100
AcDbLinetypeTableRecord
  2
DIVIDEX2
 70
    0
  3
Divide (2x) ________  .  .  ________  .  .  _
 72
   65
 73
    6
 40
63.5
 49
25.4
 74
    0
 49
-12.7
 74
    0
 49
0
 74
    0
 49
-12.7
 74
    0
 49
0
 74
    0
 49
-12.7
 74
    0
  0
LTYPE
  5
42
330
5
100
AcDbSymbolTableRecord
100
AcDbLinetypeTableRecord
  2
BORDER
 70
    0
  3
Border __ __ . __ __ . __ __ . __ __ . __ __ .
 72
   65
 73
    6
 40
44.45
 49
12.7
 74
    0
 49
-6.35
 74
    0
 49
12.7
 74
    0
 49
-6.35
 74
    0
 49
0
 74
    0
 49
-6.35
 74
    0
  0
LTYPE
  5
43
330
5
100
AcDbSymbolTableRecord
100
AcDbLinetypeTableRecord
  2
BORDERTINY
 70
    0
  3
Border (.15x) __.__.__.__.__.__.__.__.__.__.__.
 72
   65
 73
    6
 40
6.6675
 49
1.905
 74
    0
 49
-0.9525
 74
    0
 49
1.905
 74
    0
 49
-0.9525
 74
    0
 49
0
 74
    0
 49
-0.9525
 74
    0
  0
LTYPE
  5
44
330
5
100
AcDbSymbolTableRecord
100
AcDbLinetypeTableRecord
  2
BORDER2
 70
    0
  3
Border (.5x) __.__.__.__.__.__.__.__.__.__.__.
 72
   65
 73
    6
 40
22.225
 49
6.35
 74
    0
 49
-3.175
 74
    0
 49
6.35
 74
    0
 49
-3.175
 74
    0
 49
0
 74
    0
 49
-3.175
 74
    0
  0
LTYPE
  5
45
330
5
100
AcDbSymbolTableRecord
100
AcDbLinetypeTableRecord
  2
BORDERX2
 70
    0
  3
Border (2x) ____  ____  .  ____  ____  .  ___
 72
   65
 73
    6
 40
88.89999999999999
 49
25.4
 74
    0
 49
-12.7
 74
    0
 49
25.4
 74
    0
 49
-12.7
 74
    0
 49
0
 74
    0
 49
-12.7
 74
    0
  0
LTYPE
  5
46
330
5
100
AcDbSymbolTableRecord
100
AcDbLinetypeTableRecord
  2
CENTER
 70
    0
  3
Center ____ _ ____ _ ____ _ ____ _ ____ _ ____
 72
   65
 73
    4
 40
50.8
 49
31.75
 74
    0
 49
-6.35
 74
    0
 49
6.35
 74
    0
 49
-6.35
 74
    0
  0
LTYPE
  5
47
330
5
100
AcDbSymbolTableRecord
100
AcDbLinetypeTableRecord
  2
CENTERTINY
 70
    0
  3
Center (.15x) ___ _ ___ _ ___ _ ___ _ ___ _ ___
 72
   65
 73
    4
 40
7.619999999999999
 49
4.7625
 74
    0
 49
-0.9525
 74
    0
 49
0.9525
 74
    0
 49
-0.9525
 74
    0
  0
LTYPE
  5
48
330
5
100
AcDbSymbolTableRecord
100
AcDbLinetypeTableRecord
  2
CENTER2
 70
    0
  3
Center (.5x) ___ _ ___ _ ___ _ ___ _ ___ _ ___
 72
   65
 73
    4
 40
28.575
 49
19.05
 74
    0
 49
-3.175
 74
    0
 49
3.175
 74
    0
 49
-3.175
 74
    0
  0
LTYPE
  5
49
330
5
100
AcDbSymbolTableRecord
100
AcDbLinetypeTableRecord
  2
CENTERX2
 70
    0
  3
Center (2x) ________  __  ________  __  _____
 72
   65
 73
    4
 40
101.6
 49
63.5
 74
    0
 49
-12.7
 74
    0
 49
12.7
 74
    0
 49
-12.7
 74
    0
  0
ENDTAB
  0
TABLE
  2
LAYER
  5
2
330
0
100
AcDbSymbolTable
 70
    1
  0
LAYER
  5
10
330
2
100
AcDbSymbolTableRecord
100
AcDbLayerTableRecord
  2
0
 70
    0
 62
    7
  6
CONTINUOUS
370
   -3
390
F
  0
LAYER
  5
4A
330
2
100
AcDbSymbolTableRecord
100
AcDbLayerTableRecord
  2
shape
 70
    0
 62
    7
  6
CONTINUOUS
370
   -3
390
F
  0
ENDTAB
  0
TABLE
  2
STYLE
  5
3
330
0
100
AcDbSymbolTable
 70
    3
  0
STYLE
  5
4B
330
2
100
AcDbSymbolTableRecord
100
AcDbTextStyleTableRecord
  2
Standard
 70
    0
 40
0
 41
1
 50
0
 71
    0
 42
1
  3
txt
  4

  0
ENDTAB
  0
TABLE
  2
VIEW
  5
6
330
0
100
AcDbSymbolTable
 70
    0
  0
ENDTAB
  0
TABLE
  2
UCS
  5
7
330
0
100
AcDbSymbolTable
 70
    0
  0
ENDTAB
  0
TABLE
  2
APPID
  5
9
330
0
100
AcDbSymbolTable
 70
    1
  0
APPID
  5
12
330
9
100
AcDbSymbolTableRecord
100
AcDbRegAppTableRecord
  2
ACAD
 70
    0
  0
APPID
  5
4C
330
9
100
AcDbSymbolTableRecord
100
AcDbRegAppTableRecord
  2
LibreCad
 70
    0
  0
ENDTAB
  0
TABLE
  2
DIMSTYLE
  5
A
330
0
100
AcDbSymbolTable
 70
    1
100
AcDbDimStyleTable
 71
    1
  0
DIMSTYLE
105
4D
330
A
100
AcDbSymbolTableRecord
100
AcDbDimStyleTableRecord
  2
Standard
 70
    0
 40
1
 41
2.5
 42
0.625
 43
0.38
 44
1.25
 45
0
 46
0
 47
0
 48
0
 49
1
140
2.5
141
0.09
142
2.5
143
25.4
144
1
145
0
146
1
147
0.625
148
0
 71
    0
 72
    0
 73
    0
 74
    1
 75
    0
 76
    0
 77
    0
 78
    1
 79
    0
170
    0
171
    2
172
    0
173
    0
174
    0
175
    0
176
    0
177
    0
178
    0
179
    0
271
    2
272
    4
273
    2
274
    2
275
    0
276
    0
277
    2
278
    0
279
    0
280
    0
281
    0
282
    0
283
    1
284
    0
285
    0
286
    0
288
    0
289
    3
340
standard
341

371
   -2
372
   -2
  0
ENDTAB
  0
TABLE
  2
BLOCK_RECORD
  5
1
330
0
100
AcDbSymbolTable
 70
    2
  0
BLOCK_RECORD
  5
1F
330
1
100
AcDbSymbolTableRecord
100
AcDbBlockTableRecord
  2
*Model_Space
 70
    0
280
    1
281
    0
  0
BLOCK_RECORD
  5
1E
330
1
100
AcDbSymbolTableRecord
100
AcDbBlockTableRecord
  2
*Paper_Space
 70
    0
280
    1
281
    0
  0
ENDTAB
  0
ENDSEC
  0
SECTION
  2
BLOCKS
  0
BLOCK
  5
20
330
1F
100
AcDbEntity
  8
0
100
AcDbBlockBegin
  2
*Model_Space
 70
    0
 10
0
 20
0
 30
0
  3
*Model_Space
  1

  0
ENDBLK
  5
21
330
1F
100
AcDbEntity
  8
0
100
AcDbBlockEnd
  0
BLOCK
  5
1C
330
1B
100
AcDbEntity
  8
0
100
AcDbBlockBegin
  2
*Paper_Space
 70
    0
 10
0
 20
0
 30
0
  3
*Paper_Space
  1

  0
ENDBLK
  5
1D
330
1F
100
AcDbEntity
  8
0
100
AcDbBlockEnd
  0
ENDSEC
  0
SECTION
  2
ENTITIES
  0
LINE
  5
4E
100
AcDbEntity
  8
shape
  6
ByLayer
 62
    0
370
   -1
100
AcDbLine
 10
2.290800257158208
 20
2.426996453422667
 11
2.82900631497527
 21
1.696600228755329
  0
LINE
  5
4F
100
AcDbEntity
  8
shape
  6
ByLayer
 62
    0
370
   -1
100
AcDbLine
 10
2.82900631497527
 20
1.696600228755329
 11
3.530979437000416
 21
1.048854342469994
  0
LINE
  5
50
100
AcDbEntity
  8
shape
  6
ByLayer
 62
    0
370
   -1
100
AcDbLine
 10
3.530979437000416
 20
1.048854342469994
 11
4.042206107241457
 21
0.7647153903866624
  0
LINE
  5
51
100
AcDbEntity
  8
shape
  6
ByLayer
 62
    0
370
   -1
100
AcDbLine
 10
4.042206107241457
 20
0.7647153903866624
 11
4.761414040197915
 21
0.4122921653386626
  0
LINE
  5
52
100
AcDbEntity
  8
shape
  6
ByLayer
 62
    0
370
   -1
100
AcDbLine
 10
4.761414040197915
 20
0.4122921653386626
 11
4.861114149003103
 21
0.4000173626086649
  0
LINE
  5
53
100
AcDbEntity
  8
shape
  6
ByLayer
 62
    0
370
   -1
100
AcDbLine
 10
4.861114149003103
 20
0.4000173626086649
 11
5.53072655008127
 21
0.2946359080600018
  0
LINE
  5
54
100
AcDbEntity
  8
shape
  6
ByLayer
 62
    0
370
   -1
100
AcDbLine
 10
5.53072655008127
 20
0.2946359080600018
 11
5.806047200654895
 21
0.3094565958006683
  0
LINE
  5
55
100
AcDbEntity
  8
shape
  6
ByLayer
 62
    0
370
   -1
100
AcDbLine
 10
5.806047200654895
 20
0.3094565958006683
 11
6.938672433799165
 21
0.2866686518435841
  0
LINE
  5
56
100
AcDbEntity
  8
shape
  6
ByLayer
 62
    0
370
   -1
100
AcDbLine
 10
6.938672433799165
 20
0.2866686518435841
 11
8.050572261393123
 21
0.564408794725999
  0
LINE
  5
57
100
AcDbEntity
  8
shape
  6
ByLayer
 62
    0
370
   -1
100
AcDbLine
 10
8.050572261393123
 20
0.564408794725999
 11
8.452972372314717
 21
0.9621692309684153
  0
LINE
  5
58
100
AcDbEntity
  8
shape
  6
ByLayer
 62
    0
370
   -1
100
AcDbLine
 10
8.452972372314717
 20
0.9621692309684153
 11
8.519402751157561
 21
1.596492393157334
  0
LINE
  5
59
100
AcDbEntity
  8
shape
  6
ByLayer
 62
    0
370
   -1
100
AcDbLine
 10
8.519402751157561
 20
1.596492393157334
 11
8.202040433623324
 21
2.101930126681248
  0
LINE
  5
5A
100
AcDbEntity
  8
shape
  6
ByLayer
 62
    0
370
   -1
100
AcDbLine
 10
8.202040433623324
 20
2.101930126681248
 11
7.693949844485291
 21
2.182591492398664
  0
LINE
  5
5B
100
AcDbEntity
  8
shape
  6
ByLayer
 62
    0
370
   -1
100
AcDbLine
 10
7.693949844485291
 20
2.182591492398664
 11
7.266061120772874
 21
2.037476046790665
  0
LINE
  5
5C
100
AcDbEntity
  8
shape
  6
ByLayer
 62
    0
370
   -1
100
AcDbLine
 10
7.266061120772874
 20
2.037476046790665
 11
7.23668194939629
 21
2.030111165152661
  0
LINE
  5
5D
100
AcDbEntity
  8
shape
  6
ByLayer
 62
    0
370
   -1
100
AcDbLine
 10
7.23668194939629
 20
2.030111165152661
 11
6.127036464160437
 21
2.045295550751995
  0
LINE
  5
5E
100
AcDbEntity
  8
shape
  6
ByLayer
 62
    0
370
   -1
100
AcDbLine
 10
6.127036464160437
 20
2.045295550751995
 11
5.480840135318062
 21
2.255603837525996
  0
LINE
  5
5F
100
AcDbEntity
  8
shape
  6
ByLayer
 62
    0
370
   -1
100
AcDbLine
 10
5.480840135318062
 20
2.255603837525996
 11
5.131635231975603
 21
2.389535573979998
  0
LINE
  5
60
100
AcDbEntity
  8
shape
  6
ByLayer
 62
    0
370
   -1
100
AcDbLine
 10
5.131635231975603
 20
2.389535573979998
 11
4.353378073381062
 21
2.86543422204533
  0
LINE
  5
61
100
AcDbEntity
  8
shape
  6
ByLayer
 62
    0
370
   -1
100
AcDbLine
 10
4.353378073381062
 20
2.86543422204533
 11
3.795919204618578
 21
3.425619848856662
  0
LINE
  5
62
100
AcDbEntity
  8
shape
  6
ByLayer
 62
    0
370
   -1
100
AcDbLine
 10
3.795919204618578
 20
3.425619848856662
 11
3.321471039139188
 21
4.084822217689997
  0
LINE
  5
63
100
AcDbEntity
  8
shape
  6
ByLayer
 62
    0
370
   -1
100
AcDbLine
 10
3.321471039139188
 20
4.084822217689997
 11
2.985574027781667
 21
4.864590426671327
  0
LINE
  5
64
100
AcDbEntity
  8
shape
  6
ByLayer
 62
    0
370
   -1
100
AcDbLine
 10
2.985574027781667
 20
4.864590426671327
 11
2.706690061867813
 21
5.605352040310663
  0
LINE
  5
65
100
AcDbEntity
  8
shape
  6
ByLayer
 62
    0
370
   -1
100
AcDbLine
 10
2.706690061867813
 20
5.605352040310663
 11
2.586846313282146
 21
6.210818050525994
  0
LINE
  5
66
100
AcDbEntity
  8
shape
  6
ByLayer
 62
    0
370
   -1
100
AcDbLine
 10
2.586846313282146
 20
6.210818050525994
 11
2.406135321027667
 21
7.235082144995992
  0
LINE
  5
67
100
AcDbEntity
  8
shape
  6
ByLayer
 62
    0
370
   -1
100
AcDbLine
 10
2.406135321027667
 20
7.235082144995992
 11
2.39370007769748
 21
7.422477466673989
  0
LINE
  5
68
100
AcDbEntity
  8
shape
  6
ByLayer
 62
    0
370
   -1
100
AcDbLine
 10
2.39370007769748
 20
7.422477466673989
 11
2.391591176781834
 21
8.932278202463991
  0
LINE
  5
69
100
AcDbEntity
  8
shape
  6
ByLayer
 62
    0
370
   -1
100
AcDbLine
 10
2.391591176781834
 20
8.932278202463991
 11
2.503726528917209
 21
9.989911575466657
  0
LINE
  5
6A
100
AcDbEntity
  8
shape
  6
ByLayer
 62
    0
370
   -1
100
AcDbLine
 10
2.503726528917209
 20
9.989911575466657
 11
2.70523564744323
 21
10.76049641351666
  0
LINE
  5
6B
100
AcDbEntity
  8
shape
  6
ByLayer
 62
    0
370
   -1
100
AcDbLine
 10
2.70523564744323
 20
10.76049641351666
 11
3.056767613865021
 21
11.52280712528199
  0
LINE
  5
6C
100
AcDbEntity
  8
shape
  6
ByLayer
 62
    0
370
   -1
100
AcDbLine
 10
3.056767613865021
 20
11.52280712528199
 11
3.439778562488888
 21
12.21456045246599
  0
LINE
  5
6D
100
AcDbEntity
  8
shape
  6
ByLayer
 62
    0
370
   -1
100
AcDbLine
 10
3.439778562488888
 20
12.21456045246599
 11
3.911526971192646
 21
12.80866090459799
  0
LINE
  5
6E
100
AcDbEntity
  8
shape
  6
ByLayer
 62
    0
370
   -1
100
AcDbLine
 10
3.911526971192646
 20
12.80866090459799
 11
4.558595948689771
 21
13.37175611427866
  0
LINE
  5
6F
100
AcDbEntity
  8
shape
  6
ByLayer
 62
    0
370
   -1
100
AcDbLine
 10
4.558595948689771
 20
13.37175611427866
 11
5.115491231862729
 21
13.83728937337199
  0
LINE
  5
70
100
AcDbEntity
  8
shape
  6
ByLayer
 62
    0
370
   -1
100
AcDbLine
 10
5.115491231862729
 20
13.83728937337199
 11
5.611301109203187
 21
14.12151924991999
  0
LINE
  5
71
100
AcDbEntity
  8
shape
  6
ByLayer
 62
    0
370
   -1
100
AcDbLine
 10
5.611301109203187
 20
14.12151924991999
 11
6.135253905659332
 21
14.44684698449732
  0
LINE
  5
72
100
AcDbEntity
  8
shape
  6
ByLayer
 62
    0
370
   -1
100
AcDbLine
 10
6.135253905659332
 20
14.44684698449732
 11
6.473477980096186
 21
14.61414799948399
  0
LINE
  5
73
100
AcDbEntity
  8
shape
  6
ByLayer
 62
    0
370
   -1
100
AcDbLine
 10
6.473477980096186
 20
14.61414799948399
 11
6.953216578044998
 21
14.85082438101132
  0
LINE
  5
74
100
AcDbEntity
  8
shape
  6
ByLayer
 62
    0
370
   -1
100
AcDbLine
 10
6.953216578044998
 20
14.85082438101132
 11
7.381687067527248
 21
15.00112252110532
  0
LINE
  5
75
100
AcDbEntity
  8
shape
  6
ByLayer
 62
    0
370
   -1
100
AcDbLine
 10
7.381687067527248
 20
15.00112252110532
 11
7.824992584140248
 21
15.21252190145532
  0
LINE
  5
76
100
AcDbEntity
  8
shape
  6
ByLayer
 62
    0
370
   -1
100
AcDbLine
 10
7.824992584140248
 20
15.21252190145532
 11
7.884623575548164
 21
15.24070848550199
  0
LINE
  5
77
100
AcDbEntity
  8
shape
  6
ByLayer
 62
    0
370
   -1
100
AcDbLine
 10
7.884623575548164
 20
15.24070848550199
 11
8.484860408573706
 21
15.47965797864599
  0
LINE
  5
78
100
AcDbEntity
  8
shape
  6
ByLayer
 62
    0
370
   -1
100
AcDbLine
 10
8.484860408573706
 20
15.47965797864599
 11
9.003504592380123
 21
15.63250200375065
  0
LINE
  5
79
100
AcDbEntity
  8
shape
  6
ByLayer
 62
    0
370
   -1
100
AcDbLine
 10
9.003504592380123
 20
15.63250200375065
 11
9.252718504032478
 21
15.74424817082598
  0
LINE
  5
7A
100
AcDbEntity
  8
shape
  6
ByLayer
 62
    0
370
   -1
100
AcDbLine
 10
9.252718504032478
 20
15.74424817082598
 11
12.07259173095557
 21
16.68232723835007
  0
LINE
  5
7B
100
AcDbEntity
  8
shape
  6
ByLayer
 62
    0
370
   -1
100
AcDbLine
 10
12.07259173095557
 20
16.68232723835007
 11
14.81229036272349
 21
17.94371097111265
  0
LINE
  5
7C
100
AcDbEntity
  8
shape
  6
ByLayer
 62
    0
370
   -1
100
AcDbLine
 10
14.81229036272349
 20
17.94371097111265
 11
15.24308791528508
 21
17.62129281940465
  0
LINE
  5
7D
100
AcDbEntity
  8
shape
  6
ByLayer
 62
    0
370
   -1
100
AcDbLine
 10
15.24308791528508
 20
17.62129281940465
 11
15.93233491109512
 21
17.24477461121998
  0
LINE
  5
7E
100
AcDbEntity
  8
shape
  6
ByLayer
 62
    0
370
   -1
100
AcDbLine
 10
15.93233491109512
 20
17.24477461121998
 11
16.36756842765168
 21
17.07147258156531
  0
LINE
  5
7F
100
AcDbEntity
  8
shape
  6
ByLayer
 62
    0
370
   -1
100
AcDbLine
 10
16.36756842765168
 20
17.07147258156531
 11
16.79211199818756
 21
16.89416987546532
  0
LINE
  5
80
100
AcDbEntity
  8
shape
  6
ByLayer
 62
    0
370
   -1
100
AcDbLine
 10
16.79211199818756
 20
16.89416987546532
 11
17.0986298381685
 21
16.83634191593731
  0
LINE
  5
81
100
AcDbEntity
  8
shape
  6
ByLayer
 62
    0
370
   -1
100
AcDbLine
 10
17.0986298381685
 20
16.83634191593731
 11
18.48897730734893
 21
16.75732855614198
  0
LINE
  5
82
100
AcDbEntity
  8
shape
  6
ByLayer
 62
    0
370
   -1
100
AcDbLine
 10
18.48897730734893
 20
16.75732855614198
 11
18.68815936279562
 21
16.69214708053406
  0
LINE
  5
83
100
AcDbEntity
  8
shape
  6
ByLayer
 62
    0
370
   -1
100
AcDbLine
 10
18.68815936279562
 20
16.69214708053406
 11
18.81862033668074
 21
16.47428069763464
  0
LINE
  5
84
100
AcDbEntity
  8
shape
  6
ByLayer
 62
    0
370
   -1
100
AcDbLine
 10
18.81862033668074
 20
16.47428069763464
 11
18.88152376054397
 21
15.77507156434798
  0
LINE
  5
85
100
AcDbEntity
  8
shape
  6
ByLayer
 62
    0
370
   -1
100
AcDbLine
 10
18.88152376054397
 20
15.77507156434798
 11
18.70823028185487
 21
14.97820955600931
  0
LINE
  5
86
100
AcDbEntity
  8
shape
  6
ByLayer
 62
    0
370
   -1
100
AcDbLine
 10
18.70823028185487
 20
14.97820955600931
 11
18.60380332616979
 21
14.60569202426998
  0
LINE
  5
87
100
AcDbEntity
  8
shape
  6
ByLayer
 62
    0
370
   -1
100
AcDbLine
 10
18.60380332616979
 20
14.60569202426998
 11
18.58574131703449
 21
14.44963154622773
  0
LINE
  5
88
100
AcDbEntity
  8
shape
  6
ByLayer
 62
    0
370
   -1
100
AcDbLine
 10
18.58574131703449
 20
14.44963154622773
 11
18.4913770911495
 21
14.37901733385598
  0
LINE
  5
89
100
AcDbEntity
  8
shape
  6
ByLayer
 62
    0
370
   -1
100
AcDbLine
 10
18.4913770911495
 20
14.37901733385598
 11
18.30033975648047
 21
14.56232105462398
  0
LINE
  5
8A
100
AcDbEntity
  8
shape
  6
ByLayer
 62
    0
370
   -1
100
AcDbLine
 10
18.30033975648047
 20
14.56232105462398
 11
17.86626977146357
 21
15.30871998507265
  0
LINE
  5
8B
100
AcDbEntity
  8
shape
  6
ByLayer
 62
    0
370
   -1
100
AcDbLine
 10
17.86626977146357
 20
15.30871998507265
 11
17.42903643507321
 21
15.50700351139448
  0
LINE
  5
8C
100
AcDbEntity
  8
shape
  6
ByLayer
 62
    0
370
   -1
100
AcDbLine
 10
17.42903643507321
 20
15.50700351139448
 11
16.93551726045147
 21
15.40482714422532
  0
LINE
  5
8D
100
AcDbEntity
  8
shape
  6
ByLayer
 62
    0
370
   -1
100
AcDbLine
 10
16.93551726045147
 20
15.40482714422532
 11
16.67648605143318
 21
14.95893356949998
  0
LINE
  5
8E
100
AcDbEntity
  8
shape
  6
ByLayer
 62
    0
370
   -1
100
AcDbLine
 10
16.67648605143318
 20
14.95893356949998
 11
16.59845671755428
 21
14.55568356870332
  0
LINE
  5
8F
100
AcDbEntity
  8
shape
  6
ByLayer
 62
    0
370
   -1
100
AcDbLine
 10
16.59845671755428
 20
14.55568356870332
 11
16.71506439404525
 21
14.07297695134607
  0
LINE
  5
90
100
AcDbEntity
  8
shape
  6
ByLayer
 62
    0
370
   -1
100
AcDbLine
 10
16.71506439404525
 20
14.07297695134607
 11
17.01143769341472
 21
13.70653999318132
  0
LINE
  5
91
100
AcDbEntity
  8
shape
  6
ByLayer
 62
    0
370
   -1
100
AcDbLine
 10
17.01143769341472
 20
13.70653999318132
 11
17.34704382188733
 21
13.60934174045265
  0
LINE
  5
92
100
AcDbEntity
  8
shape
  6
ByLayer
 62
    0
370
   -1
100
AcDbLine
 10
17.34704382188733
 20
13.60934174045265
 11
17.73064562637118
 21
13.45349720801399
  0
LINE
  5
93
100
AcDbEntity
  8
shape
  6
ByLayer
 62
    0
370
   -1
100
AcDbLine
 10
17.73064562637118
 20
13.45349720801399
 11
17.76889672573772
 21
13.11589467070664
  0
LINE
  5
94
100
AcDbEntity
  8
shape
  6
ByLayer
 62
    0
370
   -1
100
AcDbLine
 10
17.76889672573772
 20
13.11589467070664
 11
17.6000392110436
 21
12.97087014956331
  0
LINE
  5
95
100
AcDbEntity
  8
shape
  6
ByLayer
 62
    0
370
   -1
100
AcDbLine
 10
17.6000392110436
 20
12.97087014956331
 11
16.77909498908754
 21
12.96832426455264
  0
LINE
  5
96
100
AcDbEntity
  8
shape
  6
ByLayer
 62
    0
370
   -1
100
AcDbLine
 10
16.77909498908754
 20
12.96832426455264
 11
16.22843550775998
 21
12.67121721069623
  0
LINE
  5
97
100
AcDbEntity
  8
shape
  6
ByLayer
 62
    0
370
   -1
100
AcDbLine
 10
16.22843550775998
 20
12.67121721069623
 11
16.09360220051095
 21
12.36270339860842
  0
LINE
  5
98
100
AcDbEntity
  8
shape
  6
ByLayer
 62
    0
370
   -1
100
AcDbLine
 10
16.09360220051095
 20
12.36270339860842
 11
16.09457484015739
 21
11.93924117345531
  0
LINE
  5
99
100
AcDbEntity
  8
shape
  6
ByLayer
 62
    0
370
   -1
100
AcDbLine
 10
16.09457484015739
 20
11.93924117345531
 11
16.19043893091774
 21
11.5506868392604
  0
LINE
  5
9A
100
AcDbEntity
  8
shape
  6
ByLayer
 62
    0
370
   -1
100
AcDbLine
 10
16.19043893091774
 20
11.5506868392604
 11
16.41294615769868
 21
11.27376501655998
  0
LINE
  5
9B
100
AcDbEntity
  8
shape
  6
ByLayer
 62
    0
370
   -1
100
AcDbLine
 10
16.41294615769868
 20
11.27376501655998
 11
16.74817050238483
 21
11.11380615209514
  0
LINE
  5
9C
100
AcDbEntity
  8
shape
  6
ByLayer
 62
    0
370
   -1
100
AcDbLine
 10
16.74817050238483
 20
11.11380615209514
 11
17.13477203661939
 21
11.17956727116531
  0
LINE
  5
9D
100
AcDbEntity
  8
shape
  6
ByLayer
 62
    0
370
   -1
100
AcDbLine
 10
17.13477203661939
 20
11.17956727116531
 11
17.60091185969835
 21
11.57090616709064
  0
LINE
  5
9E
100
AcDbEntity
  8
shape
  6
ByLayer
 62
    0
370
   -1
100
AcDbLine
 10
17.60091185969835
 20
11.57090616709064
 11
17.85397996957585
 21
11.67592392378064
  0
LINE
  5
9F
100
AcDbEntity
  8
shape
  6
ByLayer
 62
    0
370
   -1
100
AcDbLine
 10
17.85397996957585
 20
11.67592392378064
 11
17.89294009597437
 21
11.45992149240689
  0
LINE
  5
A0
100
AcDbEntity
  8
shape
  6
ByLayer
 62
    0
370
   -1
100
AcDbLine
 10
17.89294009597437
 20
11.45992149240689
 11
17.74744411297512
 21
11.33168390055264
  0
LINE
  5
A1
100
AcDbEntity
  8
shape
  6
ByLayer
 62
    0
370
   -1
100
AcDbLine
 10
17.74744411297512
 20
11.33168390055264
 11
17.22712735258043
 21
10.96103032033897
  0
LINE
  5
A2
100
AcDbEntity
  8
shape
  6
ByLayer
 62
    0
370
   -1
100
AcDbLine
 10
17.22712735258043
 20
10.96103032033897
 11
16.83094486332393
 21
10.41307403402531
  0
LINE
  5
A3
100
AcDbEntity
  8
shape
  6
ByLayer
 62
    0
370
   -1
100
AcDbLine
 10
16.83094486332393
 20
10.41307403402531
 11
16.82352734975855
 21
9.765782770063304
  0
LINE
  5
A4
100
AcDbEntity
  8
shape
  6
ByLayer
 62
    0
370
   -1
100
AcDbLine
 10
16.82352734975855
 20
9.765782770063304
 11
17.09644821653162
 21
9.282792013753969
  0
LINE
  5
A5
100
AcDbEntity
  8
shape
  6
ByLayer
 62
    0
370
   -1
100
AcDbLine
 10
17.09644821653162
 20
9.282792013753969
 11
17.43740840810472
 21
9.093760051711971
  0
LINE
  5
A6
100
AcDbEntity
  8
shape
  6
ByLayer
 62
    0
370
   -1
100
AcDbLine
 10
17.43740840810472
 20
9.093760051711971
 11
17.81769232968249
 21
9.152951878209976
  0
LINE
  5
A7
100
AcDbEntity
  8
shape
  6
ByLayer
 62
    0
370
   -1
100
AcDbLine
 10
17.81769232968249
 20
9.152951878209976
 11
18.34884447754033
 21
9.723139196134639
  0
LINE
  5
A8
100
AcDbEntity
  8
shape
  6
ByLayer
 62
    0
370
   -1
100
AcDbLine
 10
18.34884447754033
 20
9.723139196134639
 11
18.48795921725172
 21
10.06446963649331
  0
LINE
  5
A9
100
AcDbEntity
  8
shape
  6
ByLayer
 62
    0
370
   -1
100
AcDbLine
 10
18.48795921725172
 20
10.06446963649331
 11
18.59980368650218
 21
10.54109568027598
  0
LINE
  5
AA
100
AcDbEntity
  8
shape
  6
ByLayer
 62
    0
370
   -1
100
AcDbLine
 10
18.59980368650218
 20
10.54109568027598
 11
18.83476433679362
 21
10.46844703300732
  0
LINE
  5
AB
100
AcDbEntity
  8
shape
  6
ByLayer
 62
    0
370
   -1
100
AcDbLine
 10
18.83476433679362
 20
10.46844703300732
 11
18.91664786889766
 21
10.44171524039531
  0
LINE
  5
AC
100
AcDbEntity
  8
shape
  6
ByLayer
 62
    0
370
   -1
100
AcDbLine
 10
18.91664786889766
 20
10.44171524039531
 11
18.92639244554237
 21
9.591389646832653
  0
LINE
  5
AD
100
AcDbEntity
  8
shape
  6
ByLayer
 62
    0
370
   -1
100
AcDbLine
 10
18.92639244554237
 20
9.591389646832653
 11
18.95162653580889
 21
9.383263547210653
  0
LINE
  5
AE
100
AcDbEntity
  8
shape
  6
ByLayer
 62
    0
370
   -1
100
AcDbLine
 10
18.95162653580889
 20
9.383263547210653
 11
18.95635338268878
 21
9.33652837237198
  0
LINE
  5
AF
100
AcDbEntity
  8
shape
  6
ByLayer
 62
    0
370
   -1
100
AcDbLine
 10
18.95635338268878
 20
9.33652837237198
 11
18.96464354490891
 21
9.300158586505319
  0
LINE
  5
B0
100
AcDbEntity
  8
shape
  6
ByLayer
 62
    0
370
   -1
100
AcDbLine
 10
18.96464354490891
 20
9.300158586505319
 11
18.99874956316539
 21
9.128402272749987
  0
LINE
  5
B1
100
AcDbEntity
  8
shape
  6
ByLayer
 62
    0
370
   -1
100
AcDbLine
 10
18.99874956316539
 20
9.128402272749987
 11
19.09604988817001
 21
8.81343992714465
  0
LINE
  5
B2
100
AcDbEntity
  8
shape
  6
ByLayer
 62
    0
370
   -1
100
AcDbLine
 10
19.09604988817001
 20
8.81343992714465
 11
19.36068059272295
 21
8.429829610715984
  0
LINE
  5
B3
100
AcDbEntity
  8
shape
  6
ByLayer
 62
    0
370
   -1
100
AcDbLine
 10
19.36068059272295
 20
8.429829610715984
 11
19.42598380038675
 21
8.342996746959322
  0
LINE
  5
B4
100
AcDbEntity
  8
shape
  6
ByLayer
 62
    0
370
   -1
100
AcDbLine
 10
19.42598380038675
 20
8.342996746959322
 11
19.47819727822929
 21
8.352634740213986
  0
LINE
  5
B5
100
AcDbEntity
  8
shape
  6
ByLayer
 62
    0
370
   -1
100
AcDbLine
 10
19.47819727822929
 20
8.352634740213986
 11
19.5704798734691
 21
8.31481016291265
  0
LINE
  5
B6
100
AcDbEntity
  8
shape
  6
ByLayer
 62
    0
370
   -1
100
AcDbLine
 10
19.5704798734691
 20
8.31481016291265
 11
19.69897738788104
 21
8.28844206815932
  0
LINE
  5
B7
100
AcDbEntity
  8
shape
  6
ByLayer
 62
    0
370
   -1
100
AcDbLine
 10
19.69897738788104
 20
8.28844206815932
 11
19.96571699334962
 21
8.278440377045982
  0
LINE
  5
B8
100
AcDbEntity
  8
shape
  6
ByLayer
 62
    0
370
   -1
100
AcDbLine
 10
19.96571699334962
 20
8.278440377045982
 11
20.32795708597241
 21
8.522629392466399
  0
LINE
  5
B9
100
AcDbEntity
  8
shape
  6
ByLayer
 62
    0
370
   -1
100
AcDbLine
 10
20.32795708597241
 20
8.522629392466399
 11
20.56268139391985
 21
8.870540490955314
  0
LINE
  5
BA
100
AcDbEntity
  8
shape
  6
ByLayer
 62
    0
370
   -1
100
AcDbLine
 10
20.56268139391985
 20
8.870540490955314
 11
20.70613210663453
 21
9.332061708045233
  0
LINE
  5
BB
100
AcDbEntity
  8
shape
  6
ByLayer
 62
    0
370
   -1
100
AcDbLine
 10
20.70613210663453
 20
9.332061708045233
 11
20.63387498000321
 21
9.872619016046649
  0
LINE
  5
BC
100
AcDbEntity
  8
shape
  6
ByLayer
 62
    0
370
   -1
100
AcDbLine
 10
20.63387498000321
 20
9.872619016046649
 11
20.21907598611204
 21
10.46244601833932
  0
LINE
  5
BD
100
AcDbEntity
  8
shape
  6
ByLayer
 62
    0
370
   -1
100
AcDbLine
 10
20.21907598611204
 20
10.46244601833932
 11
20.10015942672204
 21
10.72123977589682
  0
LINE
  5
BE
100
AcDbEntity
  8
shape
  6
ByLayer
 62
    0
370
   -1
100
AcDbLine
 10
20.10015942672204
 20
10.72123977589682
 11
20.17573443625946
 21
11.01181163385532
  0
LINE
  5
BF
100
AcDbEntity
  8
shape
  6
ByLayer
 62
    0
370
   -1
100
AcDbLine
 10
20.17573443625946
 20
11.01181163385532
 11
20.21609443654164
 21
11.08346011201265
  0
LINE
  5
C0
100
AcDbEntity
  8
shape
  6
ByLayer
 62
    0
370
   -1
100
AcDbLine
 10
20.21609443654164
 20
11.08346011201265
 11
20.37338935656033
 21
11.31977279568132
  0
LINE
  5
C1
100
AcDbEntity
  8
shape
  6
ByLayer
 62
    0
370
   -1
100
AcDbLine
 10
20.37338935656033
 20
11.31977279568132
 11
20.47985249243983
 21
11.34868677544532
  0
LINE
  5
C2
100
AcDbEntity
  8
shape
  6
ByLayer
 62
    0
370
   -1
100
AcDbLine
 10
20.47985249243983
 20
11.34868677544532
 11
21.14451988447441
 21
11.13428688776131
  0
LINE
  5
C3
100
AcDbEntity
  8
shape
  6
ByLayer
 62
    0
370
   -1
100
AcDbLine
 10
21.14451988447441
 20
11.13428688776131
 11
21.57626280641198
 21
11.09455289670198
  0
LINE
  5
C4
100
AcDbEntity
  8
shape
  6
ByLayer
 62
    0
370
   -1
100
AcDbLine
 10
21.57626280641198
 20
11.09455289670198
 11
21.89195254735795
 21
11.14102666370473
  0
LINE
  5
C5
100
AcDbEntity
  8
shape
  6
ByLayer
 62
    0
370
   -1
100
AcDbLine
 10
21.89195254735795
 20
11.14102666370473
 11
22.15250180143189
 21
11.35723367512398
  0
LINE
  5
C6
100
AcDbEntity
  8
shape
  6
ByLayer
 62
    0
370
   -1
100
AcDbLine
 10
22.15250180143189
 20
11.35723367512398
 11
22.31096025299025
 21
11.72565960595332
  0
LINE
  5
C7
100
AcDbEntity
  8
shape
  6
ByLayer
 62
    0
370
   -1
100
AcDbLine
 10
22.31096025299025
 20
11.72565960595332
 11
22.32514079362993
 21
12.33139838956265
  0
LINE
  5
C8
100
AcDbEntity
  8
shape
  6
ByLayer
 62
    0
370
   -1
100
AcDbLine
 10
22.32514079362993
 20
12.33139838956265
 11
22.17612694574122
 21
12.82170856527765
  0
LINE
  5
C9
100
AcDbEntity
  8
shape
  6
ByLayer
 62
    0
370
   -1
100
AcDbLine
 10
22.17612694574122
 20
12.82170856527765
 11
21.81805920449895
 21
13.13198830095265
  0
LINE
  5
CA
100
AcDbEntity
  8
shape
  6
ByLayer
 62
    0
370
   -1
100
AcDbLine
 10
21.81805920449895
 20
13.13198830095265
 11
21.25585530867626
 21
13.22136704971998
  0
LINE
  5
CB
100
AcDbEntity
  8
shape
  6
ByLayer
 62
    0
370
   -1
100
AcDbLine
 10
21.25585530867626
 20
13.22136704971998
 11
20.90519599090922
 21
13.05597544849132
  0
LINE
  5
CC
100
AcDbEntity
  8
shape
  6
ByLayer
 62
    0
370
   -1
100
AcDbLine
 10
20.90519599090922
 20
13.05597544849132
 11
20.74528312492629
 21
12.95468559485265
  0
LINE
  5
CD
100
AcDbEntity
  8
shape
  6
ByLayer
 62
    0
370
   -1
100
AcDbLine
 10
20.74528312492629
 20
12.95468559485265
 11
20.42240312266878
 21
13.89248052342465
  0
LINE
  5
CE
100
AcDbEntity
  8
shape
  6
ByLayer
 62
    0
370
   -1
100
AcDbLine
 10
20.42240312266878
 20
13.89248052342465
 11
20.37062596915362
 21
14.18834873144998
  0
LINE
  5
CF
100
AcDbEntity
  8
shape
  6
ByLayer
 62
    0
370
   -1
100
AcDbLine
 10
20.37062596915362
 20
14.18834873144998
 11
20.47701638431189
 21
14.52567849536332
  0
LINE
  5
D0
100
AcDbEntity
  8
shape
  6
ByLayer
 62
    0
370
   -1
100
AcDbLine
 10
20.47701638431189
 20
14.52567849536332
 11
20.81204074701466
 21
15.17597026665932
  0
LINE
  5
D1
100
AcDbEntity
  8
shape
  6
ByLayer
 62
    0
370
   -1
100
AcDbLine
 10
20.81204074701466
 20
15.17597026665932
 11
21.1796439928281
 21
15.77652635578265
  0
LINE
  5
D2
100
AcDbEntity
  8
shape
  6
ByLayer
 62
    0
370
   -1
100
AcDbLine
 10
21.1796439928281
 20
15.77652635578265
 11
21.41816795845976
 21
16.29597782242332
  0
LINE
  5
D3
100
AcDbEntity
  8
shape
  6
ByLayer
 62
    0
370
   -1
100
AcDbLine
 10
21.41816795845976
 20
16.29597782242332
 11
21.67865358190264
 21
16.89207861277799
  0
LINE
  5
D4
100
AcDbEntity
  8
shape
  6
ByLayer
 62
    0
370
   -1
100
AcDbLine
 10
21.67865358190264
 20
16.89207861277799
 11
21.7264310957502
 21
17.44444473562798
  0
LINE
  5
D5
100
AcDbEntity
  8
shape
  6
ByLayer
 62
    0
370
   -1
100
AcDbLine
 10
21.7264310957502
 20
17.44444473562798
 11
21.7047603208239
 21
17.87997292138132
  0
LINE
  5
D6
100
AcDbEntity
  8
shape
  6
ByLayer
 62
    0
370
   -1
100
AcDbLine
 10
21.7047603208239
 20
17.87997292138132
 11
21.46085502182128
 21
18.70211193089732
  0
LINE
  5
D7
100
AcDbEntity
  8
shape
  6
ByLayer
 62
    0
370
   -1
100
AcDbLine
 10
21.46085502182128
 20
18.70211193089732
 11
20.99944204562222
 21
19.28857472799731
  0
LINE
  5
D8
100
AcDbEntity
  8
shape
  6
ByLayer
 62
    0
370
   -1
100
AcDbLine
 10
20.99944204562222
 20
19.28857472799731
 11
20.25558178816907
 21
19.93068329747332
  0
LINE
  5
D9
100
AcDbEntity
  8
shape
  6
ByLayer
 62
    0
370
   -1
100
AcDbLine
 10
20.25558178816907
 20
19.93068329747332
 11
19.44525479151247
 21
20.42485776293665
  0
LINE
  5
DA
100
AcDbEntity
  8
shape
  6
ByLayer
 62
    0
370
   -1
100
AcDbLine
 10
19.44525479151247
 20
20.42485776293665
 11
18.9663888422184
 21
20.76209660238532
  0
LINE
  5
DB
100
AcDbEntity
  8
shape
  6
ByLayer
 62
    0
370
   -1
100
AcDbLine
 10
18.9663888422184
 20
20.76209660238532
 11
18.95126293220274
 21
20.77064350206398
  0
LINE
  5
DC
100
AcDbEntity
  8
shape
  6
ByLayer
 62
    0
370
   -1
100
AcDbLine
 10
18.95126293220274
 20
20.77064350206398
 11
18.46054350534832
 21
20.93421661399931
  0
LINE
  5
DD
100
AcDbEntity
  8
shape
  6
ByLayer
 62
    0
370
   -1
100
AcDbLine
 10
18.46054350534832
 20
20.93421661399931
 11
18.63740029937765
 21
21.38165590462398
  0
LINE
  5
DE
100
AcDbEntity
  8
shape
  6
ByLayer
 62
    0
370
   -1
100
AcDbLine
 10
18.63740029937765
 20
21.38165590462398
 11
18.86954302172146
 21
21.71696259919848
  0
LINE
  5
DF
100
AcDbEntity
  8
shape
  6
ByLayer
 62
    0
370
   -1
100
AcDbLine
 10
18.86954302172146
 20
21.71696259919848
 11
19.1630983931433
 21
21.96184491366198
  0
LINE
  5
E0
100
AcDbEntity
  8
shape
  6
ByLayer
 62
    0
370
   -1
100
AcDbLine
 10
19.1630983931433
 20
21.96184491366198
 11
19.59549580157193
 21
22.1472512626754
  0
LINE
  5
E1
100
AcDbEntity
  8
shape
  6
ByLayer
 62
    0
370
   -1
100
AcDbLine
 10
19.59549580157193
 20
22.1472512626754
 11
20.04992758853299
 21
22.06949947982732
  0
LINE
  5
E2
100
AcDbEntity
  8
shape
  6
ByLayer
 62
    0
370
   -1
100
AcDbLine
 10
20.04992758853299
 20
22.06949947982732
 11
20.11515807547555
 21
22.05276937832865
  0
LINE
  5
E3
100
AcDbEntity
  8
shape
  6
ByLayer
 62
    0
370
   -1
100
AcDbLine
 10
20.11515807547555
 20
22.05276937832865
 11
20.79640579195038
 21
21.90765393272065
  0
LINE
  5
E4
100
AcDbEntity
  8
shape
  6
ByLayer
 62
    0
370
   -1
100
AcDbLine
 10
20.79640579195038
 20
21.90765393272065
 11
21.23760240764774
 21
21.69807304166398
  0
LINE
  5
E5
100
AcDbEntity
  8
shape
  6
ByLayer
 62
    0
370
   -1
100
AcDbLine
 10
21.23760240764774
 20
21.69807304166398
 11
21.28508903861038
 21
21.68061554444798
  0
LINE
  5
E6
100
AcDbEntity
  8
shape
  6
ByLayer
 62
    0
370
   -1
100
AcDbLine
 10
21.28508903861038
 20
21.68061554444798
 11
21.90692392584099
 21
21.53004463095998
  0
LINE
  5
E7
100
AcDbEntity
  8
shape
  6
ByLayer
 62
    0
370
   -1
100
AcDbLine
 10
21.90692392584099
 20
21.53004463095998
 11
22.63901251654516
 21
21.40171611464106
  0
LINE
  5
E8
100
AcDbEntity
  8
shape
  6
ByLayer
 62
    0
370
   -1
100
AcDbLine
 10
22.63901251654516
 20
21.40171611464106
 11
23.37530072890032
 21
21.41911678406665
  0
LINE
  5
E9
100
AcDbEntity
  8
shape
  6
ByLayer
 62
    0
370
   -1
100
AcDbLine
 10
23.37530072890032
 20
21.41911678406665
 11
24.1511581036943
 21
21.65506576987665
  0
LINE
  5
EA
100
AcDbEntity
  8
shape
  6
ByLayer
 62
    0
370
   -1
100
AcDbLine
 10
24.1511581036943
 20
21.65506576987665
 11
24.6677661073063
 21
21.93029412442264
  0
LINE
  5
EB
100
AcDbEntity
  8
shape
  6
ByLayer
 62
    0
370
   -1
100
AcDbLine
 10
24.6677661073063
 20
21.93029412442264
 11
24.8597488113513
 21
22.14251182495465
  0
LINE
  5
EC
100
AcDbEntity
  8
shape
  6
ByLayer
 62
    0
370
   -1
100
AcDbLine
 10
24.8597488113513
 20
22.14251182495465
 11
25.05202239828121
 21
22.34800111510131
  0
LINE
  5
ED
100
AcDbEntity
  8
shape
  6
ByLayer
 62
    0
370
   -1
100
AcDbLine
 10
25.05202239828121
 20
22.34800111510131
 11
25.3484320580113
 21
22.54167022484131
  0
LINE
  5
EE
100
AcDbEntity
  8
shape
  6
ByLayer
 62
    0
370
   -1
100
AcDbLine
 10
25.3484320580113
 20
22.54167022484131
 11
25.46202182457126
 21
22.62477518554664
  0
LINE
  5
EF
100
AcDbEntity
  8
shape
  6
ByLayer
 62
    0
370
   -1
100
AcDbLine
 10
25.46202182457126
 20
22.62477518554664
 11
25.1878647055373
 21
20.66017027749398
  0
LINE
  5
F0
100
AcDbEntity
  8
shape
  6
ByLayer
 62
    0
370
   -1
100
AcDbLine
 10
25.1878647055373
 20
20.66017027749398
 11
25.10925360588857
 21
20.17199682669865
  0
LINE
  5
F1
100
AcDbEntity
  8
shape
  6
ByLayer
 62
    0
370
   -1
100
AcDbLine
 10
25.10925360588857
 20
20.17199682669865
 11
25.05289504693597
 21
20.00651430100531
  0
LINE
  5
F2
100
AcDbEntity
  8
shape
  6
ByLayer
 62
    0
370
   -1
100
AcDbLine
 10
25.05289504693597
 20
20.00651430100531
 11
24.93276041546538
 21
19.53725313886065
  0
LINE
  5
F3
100
AcDbEntity
  8
shape
  6
ByLayer
 62
    0
370
   -1
100
AcDbLine
 10
24.93276041546538
 20
19.53725313886065
 11
24.77132041433663
 21
19.02389361135264
  0
LINE
  5
F4
100
AcDbEntity
  8
shape
  6
ByLayer
 62
    0
370
   -1
100
AcDbLine
 10
24.77132041433663
 20
19.02389361135264
 11
24.73655990958909
 21
18.84768199882864
  0
LINE
  5
F5
100
AcDbEntity
  8
shape
  6
ByLayer
 62
    0
370
   -1
100
AcDbLine
 10
24.73655990958909
 20
18.84768199882864
 11
24.65823969282528
 21
18.47852867228198
  0
LINE
  5
F6
100
AcDbEntity
  8
shape
  6
ByLayer
 62
    0
370
   -1
100
AcDbLine
 10
24.65823969282528
 20
18.47852867228198
 11
24.65111306214482
 21
18.33577726275531
  0
LINE
  5
F7
100
AcDbEntity
  8
shape
  6
ByLayer
 62
    0
370
   -1
100
AcDbLine
 10
24.65111306214482
 20
18.33577726275531
 11
24.96824812742521
 21
17.71358115104131
  0
LINE
  5
F8
100
AcDbEntity
  8
shape
  6
ByLayer
 62
    0
370
   -1
100
AcDbLine
 10
24.96824812742521
 20
17.71358115104131
 11
25.39220993219125
 21
17.39343611094997
  0
LINE
  5
F9
100
AcDbEntity
  8
shape
  6
ByLayer
 62
    0
370
   -1
100
AcDbLine
 10
25.39220993219125
 20
17.39343611094997
 11
25.97615732366146
 21
17.03655758713331
  0
LINE
  5
FA
100
AcDbEntity
  8
shape
  6
ByLayer
 62
    0
370
   -1
100
AcDbLine
 10
25.97615732366146
 20
17.03655758713331
 11
26.35350514611961
 21
16.88407725988731
  0
LINE
  5
FB
100
AcDbEntity
  8
shape
  6
ByLayer
 62
    0
370
   -1
100
AcDbLine
 10
26.35350514611961
 20
16.88407725988731
 11
26.99053866408711
 21
16.52165234372598
  0
LINE
  5
FC
100
AcDbEntity
  8
shape
  6
ByLayer
 62
    0
370
   -1
100
AcDbLine
 10
26.99053866408711
 20
16.52165234372598
 11
27.04602457438496
 21
16.41254298612597
  0
LINE
  5
FD
100
AcDbEntity
  8
shape
  6
ByLayer
 62
    0
370
   -1
100
AcDbLine
 10
27.04602457438496
 20
16.41254298612597
 11
27.14347943092219
 21
16.01297542614831
  0
LINE
  5
FE
100
AcDbEntity
  8
shape
  6
ByLayer
 62
    0
370
   -1
100
AcDbLine
 10
27.14347943092219
 20
16.01297542614831
 11
27.3555239639363
 21
15.67614574679064
  0
LINE
  5
FF
100
AcDbEntity
  8
shape
  6
ByLayer
 62
    0
370
   -1
100
AcDbLine
 10
27.3555239639363
 20
15.67614574679064
 11
27.06238673666152
 21
15.31144771901264
  0
LINE
  5
100
100
AcDbEntity
  8
shape
  6
ByLayer
 62
    0
370
   -1
100
AcDbLine
 10
27.06238673666152
 20
15.31144771901264
 11
26.8783305912305
 21
14.92048388650406
  0
LINE
  5
101
100
AcDbEntity
  8
shape
  6
ByLayer
 62
    0
370
   -1
100
AcDbLine
 10
26.8783305912305
 20
14.92048388650406
 11
26.83062579810417
 21
14.46603204654197
  0
LINE
  5
102
100
AcDbEntity
  8
shape
  6
ByLayer
 62
    0
370
   -1
100
AcDbLine
 10
26.83062579810417
 20
14.46603204654197
 11
26.87266746506478
 21
14.09521934851514
  0
LINE
  5
103
100
AcDbEntity
  8
shape
  6
ByLayer
 62
    0
370
   -1
100
AcDbLine
 10
26.87266746506478
 20
14.09521934851514
 11
27.06355026820119
 21
13.8134671636293
  0
LINE
  5
104
100
AcDbEntity
  8
shape
  6
ByLayer
 62
    0
370
   -1
100
AcDbLine
 10
27.06355026820119
 20
13.8134671636293
 11
27.20862810705338
 21
13.74190960993664
  0
LINE
  5
105
100
AcDbEntity
  8
shape
  6
ByLayer
 62
    0
370
   -1
100
AcDbLine
 10
27.20862810705338
 20
13.74190960993664
 11
27.66051466877142
 21
13.73699968884464
  0
LINE
  5
106
100
AcDbEntity
  8
shape
  6
ByLayer
 62
    0
370
   -1
100
AcDbLine
 10
27.66051466877142
 20
13.73699968884464
 11
27.94912503114967
 21
13.88513837290281
  0
LINE
  5
107
100
AcDbEntity
  8
shape
  6
ByLayer
 62
    0
370
   -1
100
AcDbLine
 10
27.94912503114967
 20
13.88513837290281
 11
28.14381658206046
 21
14.18071107641797
  0
LINE
  5
108
100
AcDbEntity
  8
shape
  6
ByLayer
 62
    0
370
   -1
100
AcDbLine
 10
28.14381658206046
 20
14.18071107641797
 11
28.2461346368299
 21
14.67743142689198
  0
LINE
  5
109
100
AcDbEntity
  8
shape
  6
ByLayer
 62
    0
370
   -1
100
AcDbLine
 10
28.2461346368299
 20
14.67743142689198
 11
28.21559193391364
 21
14.83473075076531
  0
LINE
  5
10A
100
AcDbEntity
  8
shape
  6
ByLayer
 62
    0
370
   -1
100
AcDbLine
 10
28.21559193391364
 20
14.83473075076531
 11
28.20337485274715
 21
14.99866756055931
  0
LINE
  5
10B
100
AcDbEntity
  8
shape
  6
ByLayer
 62
    0
370
   -1
100
AcDbLine
 10
28.20337485274715
 20
14.99866756055931
 11
28.23399027638462
 21
15.05958695188598
  0
LINE
  5
10C
100
AcDbEntity
  8
shape
  6
ByLayer
 62
    0
370
   -1
100
AcDbLine
 10
28.23399027638462
 20
15.05958695188598
 11
28.28562198845733
 21
15.08259084144665
  0
LINE
  5
10D
100
AcDbEntity
  8
shape
  6
ByLayer
 62
    0
370
   -1
100
AcDbLine
 10
28.28562198845733
 20
15.08259084144665
 11
28.56152440480079
 21
14.85591615103265
  0
LINE
  5
10E
100
AcDbEntity
  8
shape
  6
ByLayer
 62
    0
370
   -1
100
AcDbLine
 10
28.56152440480079
 20
14.85591615103265
 11
28.5647968372561
 21
14.65370014161398
  0
LINE
  5
10F
100
AcDbEntity
  8
shape
  6
ByLayer
 62
    0
370
   -1
100
AcDbLine
 10
28.5647968372561
 20
14.65370014161398
 11
28.83211820849452
 21
13.79419117711998
  0
LINE
  5
110
100
AcDbEntity
  8
shape
  6
ByLayer
 62
    0
370
   -1
100
AcDbLine
 10
28.83211820849452
 20
13.79419117711998
 11
29.0503803631737
 21
13.64124486199256
  0
LINE
  5
111
100
AcDbEntity
  8
shape
  6
ByLayer
 62
    0
370
   -1
100
AcDbLine
 10
29.0503803631737
 20
13.64124486199256
 11
29.33534559940035
 21
13.61234224778665
  0
LINE
  5
112
100
AcDbEntity
  8
shape
  6
ByLayer
 62
    0
370
   -1
100
AcDbLine
 10
29.33534559940035
 20
13.61234224778665
 11
29.78010553043793
 21
13.77973418723798
  0
LINE
  5
113
100
AcDbEntity
  8
shape
  6
ByLayer
 62
    0
370
   -1
100
AcDbLine
 10
29.78010553043793
 20
13.77973418723798
 11
29.93732772973539
 21
14.14106800982332
  0
LINE
  5
114
100
AcDbEntity
  8
shape
  6
ByLayer
 62
    0
370
   -1
100
AcDbLine
 10
29.93732772973539
 20
14.14106800982332
 11
29.96496160380247
 21
14.29027505634132
  0
LINE
  5
115
100
AcDbEntity
  8
shape
  6
ByLayer
 62
    0
370
   -1
100
AcDbLine
 10
29.96496160380247
 20
14.29027505634132
 11
29.96670690111197
 21
14.71834743599199
  0
LINE
  5
116
100
AcDbEntity
  8
shape
  6
ByLayer
 62
    0
370
   -1
100
AcDbLine
 10
29.96670690111197
 20
14.71834743599199
 11
30.37256124629195
 21
14.61260228358465
  0
LINE
  5
117
100
AcDbEntity
  8
shape
  6
ByLayer
 62
    0
370
   -1
100
AcDbLine
 10
30.37256124629195
 20
14.61260228358465
 11
30.72197522170795
 21
14.65452982735407
  0
LINE
  5
118
100
AcDbEntity
  8
shape
  6
ByLayer
 62
    0
370
   -1
100
AcDbLine
 10
30.72197522170795
 20
14.65452982735407
 11
30.99061465601864
 21
15.07486226194998
  0
LINE
  5
119
100
AcDbEntity
  8
shape
  6
ByLayer
 62
    0
370
   -1
100
AcDbLine
 10
30.99061465601864
 20
15.07486226194998
 11
31.06718957547296
 21
15.57858379620332
  0
LINE
  5
11A
100
AcDbEntity
  8
shape
  6
ByLayer
 62
    0
370
   -1
100
AcDbLine
 10
31.06718957547296
 20
15.57858379620332
 11
30.99272355693429
 21
15.82671666027865
  0
LINE
  5
11B
100
AcDbEntity
  8
shape
  6
ByLayer
 62
    0
370
   -1
100
AcDbLine
 10
30.99272355693429
 20
15.82671666027865
 11
30.95825393507166
 21
16.08385104635598
  0
LINE
  5
11C
100
AcDbEntity
  8
shape
  6
ByLayer
 62
    0
370
   -1
100
AcDbLine
 10
30.95825393507166
 20
16.08385104635598
 11
30.76269882559628
 21
16.34580442906065
  0
LINE
  5
11D
100
AcDbEntity
  8
shape
  6
ByLayer
 62
    0
370
   -1
100
AcDbLine
 10
30.76269882559628
 20
16.34580442906065
 11
30.49662279670891
 21
16.34207652600931
  0
LINE
  5
11E
100
AcDbEntity
  8
shape
  6
ByLayer
 62
    0
370
   -1
100
AcDbLine
 10
30.49662279670891
 20
16.34207652600931
 11
29.96190733351085
 21
16.41145189254998
  0
LINE
  5
11F
100
AcDbEntity
  8
shape
  6
ByLayer
 62
    0
370
   -1
100
AcDbLine
 10
29.96190733351085
 20
16.41145189254998
 11
30.09571346057252
 21
16.95936271663131
  0
LINE
  5
120
100
AcDbEntity
  8
shape
  6
ByLayer
 62
    0
370
   -1
100
AcDbLine
 10
30.09571346057252
 20
16.95936271663131
 11
30.20021313697883
 21
17.00309738413598
  0
LINE
  5
121
100
AcDbEntity
  8
shape
  6
ByLayer
 62
    0
370
   -1
100
AcDbLine
 10
30.20021313697883
 20
17.00309738413598
 11
30.46840715687199
 21
17.01082596363264
  0
LINE
  5
122
100
AcDbEntity
  8
shape
  6
ByLayer
 62
    0
370
   -1
100
AcDbLine
 10
30.46840715687199
 20
17.01082596363264
 11
30.86255346593408
 21
17.13747237735523
  0
LINE
  5
123
100
AcDbEntity
  8
shape
  6
ByLayer
 62
    0
370
   -1
100
AcDbLine
 10
30.86255346593408
 20
17.13747237735523
 11
31.17837955823234
 21
17.45935634783331
  0
LINE
  5
124
100
AcDbEntity
  8
shape
  6
ByLayer
 62
    0
370
   -1
100
AcDbLine
 10
31.17837955823234
 20
17.45935634783331
 11
31.34769157743415
 21
17.81414360896265
  0
LINE
  5
125
100
AcDbEntity
  8
shape
  6
ByLayer
 62
    0
370
   -1
100
AcDbLine
 10
31.34769157743415
 20
17.81414360896265
 11
31.37988867675837
 21
18.22730437640798
  0
LINE
  5
126
100
AcDbEntity
  8
shape
  6
ByLayer
 62
    0
370
   -1
100
AcDbLine
 10
31.37988867675837
 20
18.22730437640798
 11
30.95650863776216
 21
18.90732844764998
  0
LINE
  5
127
100
AcDbEntity
  8
shape
  6
ByLayer
 62
    0
370
   -1
100
AcDbLine
 10
30.95650863776216
 20
18.90732844764998
 11
30.41619367902945
 21
19.02343898902931
  0
LINE
  5
128
100
AcDbEntity
  8
shape
  6
ByLayer
 62
    0
370
   -1
100
AcDbLine
 10
30.41619367902945
 20
19.02343898902931
 11
30.00085836981922
 21
18.83446385477773
  0
LINE
  5
129
100
AcDbEntity
  8
shape
  6
ByLayer
 62
    0
370
   -1
100
AcDbLine
 10
30.00085836981922
 20
18.83446385477773
 11
29.76643403484685
 21
18.38014840151265
  0
LINE
  5
12A
100
AcDbEntity
  8
shape
  6
ByLayer
 62
    0
370
   -1
100
AcDbLine
 10
29.76643403484685
 20
18.38014840151265
 11
29.60185795261509
 21
18.1605317226684
  0
LINE
  5
12B
100
AcDbEntity
  8
shape
  6
ByLayer
 62
    0
370
   -1
100
AcDbLine
 10
29.60185795261509
 20
18.1605317226684
 11
29.3676335996261
 21
18.20693729632265
  0
LINE
  5
12C
100
AcDbEntity
  8
shape
  6
ByLayer
 62
    0
370
   -1
100
AcDbLine
 10
29.3676335996261
 20
18.20693729632265
 11
29.1756508955811
 21
18.31050026157798
  0
LINE
  5
12D
100
AcDbEntity
  8
shape
  6
ByLayer
 62
    0
370
   -1
100
AcDbLine
 10
29.1756508955811
 20
18.31050026157798
 11
29.22873702207839
 21
18.81985911264065
  0
LINE
  5
12E
100
AcDbEntity
  8
shape
  6
ByLayer
 62
    0
370
   -1
100
AcDbLine
 10
29.22873702207839
 20
18.81985911264065
 11
29.34087237421376
 21
19.74728865224064
  0
LINE
  5
12F
100
AcDbEntity
  8
shape
  6
ByLayer
 62
    0
370
   -1
100
AcDbLine
 10
29.34087237421376
 20
19.74728865224064
 11
29.24940788708778
 21
20.11502128402689
  0
LINE
  5
130
100
AcDbEntity
  8
shape
  6
ByLayer
 62
    0
370
   -1
100
AcDbLine
 10
29.24940788708778
 20
20.11502128402689
 11
29.01755604762889
 21
20.36975753734864
  0
LINE
  5
131
100
AcDbEntity
  8
shape
  6
ByLayer
 62
    0
370
   -1
100
AcDbLine
 10
29.01755604762889
 20
20.36975753734864
 11
28.49178523314201
 21
20.38012292632064
  0
LINE
  5
132
100
AcDbEntity
  8
shape
  6
ByLayer
 62
    0
370
   -1
100
AcDbLine
 10
28.49178523314201
 20
20.38012292632064
 11
28.23177229438712
 21
20.26389872936048
  0
LINE
  5
133
100
AcDbEntity
  8
shape
  6
ByLayer
 62
    0
370
   -1
100
AcDbLine
 10
28.23177229438712
 20
20.26389872936048
 11
28.01822789649768
 21
20.02888171931331
  0
LINE
  5
134
100
AcDbEntity
  8
shape
  6
ByLayer
 62
    0
370
   -1
100
AcDbLine
 10
28.01822789649768
 20
20.02888171931331
 11
27.86900497653543
 21
19.72319366910397
  0
LINE
  5
135
100
AcDbEntity
  8
shape
  6
ByLayer
 62
    0
370
   -1
100
AcDbLine
 10
27.86900497653543
 20
19.72319366910397
 11
27.84148018355019
 21
19.15640465304622
  0
LINE
  5
136
100
AcDbEntity
  8
shape
  6
ByLayer
 62
    0
370
   -1
100
AcDbLine
 10
27.84148018355019
 20
19.15640465304622
 11
27.94703431041432
 21
18.60291333994597
  0
LINE
  5
137
100
AcDbEntity
  8
shape
  6
ByLayer
 62
    0
370
   -1
100
AcDbLine
 10
27.94703431041432
 20
18.60291333994597
 11
27.94492540949868
 21
18.55690556082464
  0
LINE
  5
138
100
AcDbEntity
  8
shape
  6
ByLayer
 62
    0
370
   -1
100
AcDbLine
 10
27.94492540949868
 20
18.55690556082464
 11
27.78279456151825
 21
18.54169844410914
  0
LINE
  5
139
100
AcDbEntity
  8
shape
  6
ByLayer
 62
    0
370
   -1
100
AcDbLine
 10
27.78279456151825
 20
18.54169844410914
 11
27.66516879493007
 21
18.67337980006264
  0
LINE
  5
13A
100
AcDbEntity
  8
shape
  6
ByLayer
 62
    0
370
   -1
100
AcDbLine
 10
27.66516879493007
 20
18.67337980006264
 11
27.42489044189875
 21
19.15750711218031
  0
LINE
  5
13B
100
AcDbEntity
  8
shape
  6
ByLayer
 62
    0
370
   -1
100
AcDbLine
 10
27.42489044189875
 20
19.15750711218031
 11
27.46904100977501
 21
19.71282828013198
  0
LINE
  5
13C
100
AcDbEntity
  8
shape
  6
ByLayer
 62
    0
370
   -1
100
AcDbLine
 10
27.46904100977501
 20
19.71282828013198
 11
27.82210011134261
 21
20.71827101041598
  0
LINE
  5
13D
100
AcDbEntity
  8
shape
  6
ByLayer
 62
    0
370
   -1
100
AcDbLine
 10
27.82210011134261
 20
20.71827101041598
 11
28.05946054543462
 21
21.41720737030864
  0
LINE
  5
13E
100
AcDbEntity
  8
shape
  6
ByLayer
 62
    0
370
   -1
100
AcDbLine
 10
28.05946054543462
 20
21.41720737030864
 11
28.22853622229243
 21
21.82445804755064
  0
LINE
  5
13F
100
AcDbEntity
  8
shape
  6
ByLayer
 62
    0
370
   -1
100
AcDbLine
 10
28.22853622229243
 20
21.82445804755064
 11
28.3546339529038
 21
22.29453752987731
  0
LINE
  5
140
100
AcDbEntity
  8
shape
  6
ByLayer
 62
    0
370
   -1
100
AcDbLine
 10
28.3546339529038
 20
22.29453752987731
 11
28.52261881894318
 21
22.69924232210864
  0
LINE
  5
141
100
AcDbEntity
  8
shape
  6
ByLayer
 62
    0
370
   -1
100
AcDbLine
 10
28.52261881894318
 20
22.69924232210864
 11
28.74216267633403
 21
23.13622529929664
  0
LINE
  5
142
100
AcDbEntity
  8
shape
  6
ByLayer
 62
    0
370
   -1
100
AcDbLine
 10
28.74216267633403
 20
23.13622529929664
 11
28.98963129067689
 21
23.56802558199864
  0
LINE
  5
143
100
AcDbEntity
  8
shape
  6
ByLayer
 62
    0
370
   -1
100
AcDbLine
 10
28.98963129067689
 20
23.56802558199864
 11
29.5583800514102
 21
24.43353556116064
  0
LINE
  5
144
100
AcDbEntity
  8
shape
  6
ByLayer
 62
    0
370
   -1
100
AcDbLine
 10
29.5583800514102
 20
24.43353556116064
 11
30.11651158684406
 21
25.18993618272264
  0
LINE
  5
145
100
AcDbEntity
  8
shape
  6
ByLayer
 62
    0
370
   -1
100
AcDbLine
 10
30.11651158684406
 20
25.18993618272264
 11
30.26246207435099
 21
25.35396391698131
  0
LINE
  5
146
100
AcDbEntity
  8
shape
  6
ByLayer
 62
    0
370
   -1
100
AcDbLine
 10
30.26246207435099
 20
25.35396391698131
 11
30.42327485925914
 21
25.55713463327898
  0
LINE
  5
147
100
AcDbEntity
  8
shape
  6
ByLayer
 62
    0
370
   -1
100
AcDbLine
 10
30.42327485925914
 20
25.55713463327898
 11
30.62417494174487
 21
25.62255478560664
  0
LINE
  5
148
100
AcDbEntity
  8
shape
  6
ByLayer
 62
    0
370
   -1
100
AcDbLine
 10
30.62417494174487
 20
25.62255478560664
 11
30.99534150289853
 21
25.38960630713064
  0
LINE
  5
149
100
AcDbEntity
  8
shape
  6
ByLayer
 62
    0
370
   -1
100
AcDbLine
 10
30.99534150289853
 20
25.38960630713064
 11
31.56532651589274
 21
24.61611188621131
  0
LINE
  5
14A
100
AcDbEntity
  8
shape
  6
ByLayer
 62
    0
370
   -1
100
AcDbLine
 10
31.56532651589274
 20
24.61611188621131
 11
32.18010749316412
 21
24.15830720661464
  0
LINE
  5
14B
100
AcDbEntity
  8
shape
  6
ByLayer
 62
    0
370
   -1
100
AcDbLine
 10
32.18010749316412
 20
24.15830720661464
 11
32.593824766327
 21
24.07253133975972
  0
LINE
  5
14C
100
AcDbEntity
  8
shape
  6
ByLayer
 62
    0
370
   -1
100
AcDbLine
 10
32.593824766327
 20
24.07253133975972
 11
32.99516133670062
 21
23.96472902133931
  0
LINE
  5
14D
100
AcDbEntity
  8
shape
  6
ByLayer
 62
    0
370
   -1
100
AcDbLine
 10
32.99516133670062
 20
23.96472902133931
 11
33.16954562620816
 21
24.01519209922931
  0
LINE
  5
14E
100
AcDbEntity
  8
shape
  6
ByLayer
 62
    0
370
   -1
100
AcDbLine
 10
33.16954562620816
 20
24.01519209922931
 11
33.41316004232587
 21
24.05338037438931
  0
LINE
  5
14F
100
AcDbEntity
  8
shape
  6
ByLayer
 62
    0
370
   -1
100
AcDbLine
 10
33.41316004232587
 20
24.05338037438931
 11
34.220796372297
 21
24.20695179521131
  0
LINE
  5
150
100
AcDbEntity
  8
shape
  6
ByLayer
 62
    0
370
   -1
100
AcDbLine
 10
34.220796372297
 20
24.20695179521131
 11
34.92102419701264
 21
24.54900963128731
  0
LINE
  5
151
100
AcDbEntity
  8
shape
  6
ByLayer
 62
    0
370
   -1
100
AcDbLine
 10
34.92102419701264
 20
24.54900963128731
 11
35.50875306598677
 21
24.82869328460198
  0
LINE
  5
152
100
AcDbEntity
  8
shape
  6
ByLayer
 62
    0
370
   -1
100
AcDbLine
 10
35.50875306598677
 20
24.82869328460198
 11
35.92558824007236
 21
25.11656013973664
  0
LINE
  5
153
100
AcDbEntity
  8
shape
  6
ByLayer
 62
    0
370
   -1
100
AcDbLine
 10
35.92558824007236
 20
25.11656013973664
 11
36.43143357694244
 21
25.45225326328598
  0
LINE
  5
154
100
AcDbEntity
  8
shape
  6
ByLayer
 62
    0
370
   -1
100
AcDbLine
 10
36.43143357694244
 20
25.45225326328598
 11
36.79227379568156
 21
25.71420664599064
  0
LINE
  5
155
100
AcDbEntity
  8
shape
  6
ByLayer
 62
    0
370
   -1
100
AcDbLine
 10
36.79227379568156
 20
25.71420664599064
 11
37.35207790770369
 21
26.20310749250331
  0
LINE
  5
156
100
AcDbEntity
  8
shape
  6
ByLayer
 62
    0
370
   -1
100
AcDbLine
 10
37.35207790770369
 20
26.20310749250331
 11
38.4484155009546
 21
27.26592355999198
  0
LINE
  5
157
100
AcDbEntity
  8
shape
  6
ByLayer
 62
    0
370
   -1
100
AcDbLine
 10
38.4484155009546
 20
27.26592355999198
 11
39.1557699563507
 21
28.07205986372664
  0
LINE
  5
158
100
AcDbEntity
  8
shape
  6
ByLayer
 62
    0
370
   -1
100
AcDbLine
 10
39.1557699563507
 20
28.07205986372664
 11
39.94348080870503
 21
29.1575161229173
  0
LINE
  5
159
100
AcDbEntity
  8
shape
  6
ByLayer
 62
    0
370
   -1
100
AcDbLine
 10
39.94348080870503
 20
29.1575161229173
 11
40.35413472148614
 21
30.0486668011153
  0
LINE
  5
15A
100
AcDbEntity
  8
shape
  6
ByLayer
 62
    0
370
   -1
100
AcDbLine
 10
40.35413472148614
 20
30.0486668011153
 11
40.44992609152526
 21
30.72196246197197
  0
LINE
  5
15B
100
AcDbEntity
  8
shape
  6
ByLayer
 62
    0
370
   -1
100
AcDbLine
 10
40.44992609152526
 20
30.72196246197197
 11
40.41492924443373
 21
31.39416702925264
  0
LINE
  5
15C
100
AcDbEntity
  8
shape
  6
ByLayer
 62
    0
370
   -1
100
AcDbLine
 10
40.41492924443373
 20
31.39416702925264
 11
40.22265565750381
 21
32.17175305108197
  0
LINE
  5
15D
100
AcDbEntity
  8
shape
  6
ByLayer
 62
    0
370
   -1
100
AcDbLine
 10
40.22265565750381
 20
32.17175305108197
 11
40.01215643981583
 21
32.58782340139663
  0
LINE
  5
15E
100
AcDbEntity
  8
shape
  6
ByLayer
 62
    0
370
   -1
100
AcDbLine
 10
40.01215643981583
 20
32.58782340139663
 11
39.6853222483415
 21
32.8917838867773
  0
LINE
  5
15F
100
AcDbEntity
  8
shape
  6
ByLayer
 62
    0
370
   -1
100
AcDbLine
 10
39.6853222483415
 20
32.8917838867773
 11
39.10435640644168
 21
33.33513157649197
  0
LINE
  5
160
100
AcDbEntity
  8
shape
  6
ByLayer
 62
    0
370
   -1
100
AcDbLine
 10
39.10435640644168
 20
33.33513157649197
 11
38.76555056623499
 21
33.49834099056864
  0
LINE
  5
161
100
AcDbEntity
  8
shape
  6
ByLayer
 62
    0
370
   -1
100
AcDbLine
 10
38.76555056623499
 20
33.49834099056864
 11
38.64628858341916
 21
33.56544324549264
  0
LINE
  5
162
100
AcDbEntity
  8
shape
  6
ByLayer
 62
    0
370
   -1
100
AcDbLine
 10
38.64628858341916
 20
33.56544324549264
 11
38.53349874479272
 21
33.63218180255797
  0
LINE
  5
163
100
AcDbEntity
  8
shape
  6
ByLayer
 62
    0
370
   -1
100
AcDbLine
 10
38.53349874479272
 20
33.63218180255797
 11
38.41307323043723
 21
33.70155716909863
  0
LINE
  5
164
100
AcDbEntity
  8
shape
  6
ByLayer
 62
    0
370
   -1
100
AcDbLine
 10
38.41307323043723
 20
33.70155716909863
 11
38.18458472433518
 21
33.81957712423597
  0
LINE
  5
165
100
AcDbEntity
  8
shape
  6
ByLayer
 62
    0
370
   -1
100
AcDbLine
 10
38.18458472433518
 20
33.81957712423597
 11
38.05397830900759
 21
33.88704307701864
  0
LINE
  5
166
100
AcDbEntity
  8
shape
  6
ByLayer
 62
    0
370
   -1
100
AcDbLine
 10
38.05397830900759
 20
33.88704307701864
 11
37.22917988882639
 21
34.23501100329797
  0
LINE
  5
167
100
AcDbEntity
  8
shape
  6
ByLayer
 62
    0
370
   -1
100
AcDbLine
 10
37.22917988882639
 20
34.23501100329797
 11
35.36171176766138
 21
34.54406325869997
  0
LINE
  5
168
100
AcDbEntity
  8
shape
  6
ByLayer
 62
    0
370
   -1
100
AcDbLine
 10
35.36171176766138
 20
34.54406325869997
 11
35.15940272120184
 21
34.59179860264997
  0
LINE
  5
169
100
AcDbEntity
  8
shape
  6
ByLayer
 62
    0
370
   -1
100
AcDbLine
 10
35.15940272120184
 20
34.59179860264997
 11
34.8012531691482
 21
34.65226337165331
  0
LINE
  5
16A
100
AcDbEntity
  8
shape
  6
ByLayer
 62
    0
370
   -1
100
AcDbLine
 10
34.8012531691482
 20
34.65226337165331
 11
34.72496913257881
 21
34.63926117320597
  0
LINE
  5
16B
100
AcDbEntity
  8
shape
  6
ByLayer
 62
    0
370
   -1
100
AcDbLine
 10
34.72496913257881
 20
34.63926117320597
 11
33.68360840457714
 21
34.59107120693264
  0
LINE
  5
16C
100
AcDbEntity
  8
shape
  6
ByLayer
 62
    0
370
   -1
100
AcDbLine
 10
33.68360840457714
 20
34.59107120693264
 11
32.93378504798321
 21
34.4875082416773
  0
LINE
  5
16D
100
AcDbEntity
  8
shape
  6
ByLayer
 62
    0
370
   -1
100
AcDbLine
 10
32.93378504798321
 20
34.4875082416773
 11
32.35318280968954
 21
34.27128986469997
  0
LINE
  5
16E
100
AcDbEntity
  8
shape
  6
ByLayer
 62
    0
370
   -1
100
AcDbLine
 10
32.35318280968954
 20
34.27128986469997
 11
31.99983282523702
 21
34.14217712487331
  0
LINE
  5
16F
100
AcDbEntity
  8
shape
  6
ByLayer
 62
    0
370
   -1
100
AcDbLine
 10
31.99983282523702
 20
34.14217712487331
 11
31.49666906496226
 21
33.91535468220422
  0
LINE
  5
170
100
AcDbEntity
  8
shape
  6
ByLayer
 62
    0
370
   -1
100
AcDbLine
 10
31.49666906496226
 20
33.91535468220422
 11
31.03381076442877
 21
33.58862898398264
  0
LINE
  5
171
100
AcDbEntity
  8
shape
  6
ByLayer
 62
    0
370
   -1
100
AcDbLine
 10
31.03381076442877
 20
33.58862898398264
 11
30.47298856230944
 21
32.93942830626264
  0
LINE
  5
172
100
AcDbEntity
  8
shape
  6
ByLayer
 62
    0
370
   -1
100
AcDbLine
 10
30.47298856230944
 20
32.93942830626264
 11
30.25402647068842
 21
32.36960468619665
  0
LINE
  5
173
100
AcDbEntity
  8
shape
  6
ByLayer
 62
    0
370
   -1
100
AcDbLine
 10
30.25402647068842
 20
32.36960468619665
 11
29.99230459498465
 21
31.57574318519197
  0
LINE
  5
174
100
AcDbEntity
  8
shape
  6
ByLayer
 62
    0
370
   -1
100
AcDbLine
 10
29.99230459498465
 20
31.57574318519197
 11
29.58288693446444
 21
30.93245259767531
  0
LINE
  5
175
100
AcDbEntity
  8
shape
  6
ByLayer
 62
    0
370
   -1
100
AcDbLine
 10
29.58288693446444
 20
30.93245259767531
 11
29.38705912228444
 21
30.82919650248823
  0
LINE
  5
176
100
AcDbEntity
  8
shape
  6
ByLayer
 62
    0
370
   -1
100
AcDbLine
 10
29.38705912228444
 20
30.82919650248823
 11
29.21615633730575
 21
30.87835254119864
  0
LINE
  5
177
100
AcDbEntity
  8
shape
  6
ByLayer
 62
    0
370
   -1
100
AcDbLine
 10
29.21615633730575
 20
30.87835254119864
 11
28.88771319987422
 21
31.1396353559764
  0
LINE
  5
178
100
AcDbEntity
  8
shape
  6
ByLayer
 62
    0
370
   -1
100
AcDbLine
 10
28.88771319987422
 20
31.1396353559764
 11
28.64915287388193
 21
31.54010079504264
  0
LINE
  5
179
100
AcDbEntity
  8
shape
  6
ByLayer
 62
    0
370
   -1
100
AcDbLine
 10
28.64915287388193
 20
31.54010079504264
 11
28.39608476400443
 21
32.01418095381464
  0
LINE
  5
17A
100
AcDbEntity
  8
shape
  6
ByLayer
 62
    0
370
   -1
100
AcDbLine
 10
28.39608476400443
 20
32.01418095381464
 11
28.26671460093775
 21
32.32587001869197
  0
LINE
  5
17B
100
AcDbEntity
  8
shape
  6
ByLayer
 62
    0
370
   -1
100
AcDbLine
 10
28.26671460093775
 20
32.32587001869197
 11
27.83533528260633
 21
33.24293416931998
  0
LINE
  5
17C
100
AcDbEntity
  8
shape
  6
ByLayer
 62
    0
370
   -1
100
AcDbLine
 10
27.83533528260633
 20
33.24293416931998
 11
27.44693391052135
 21
33.96178298697464
  0
LINE
  5
17D
100
AcDbEntity
  8
shape
  6
ByLayer
 62
    0
370
   -1
100
AcDbLine
 10
27.44693391052135
 20
33.96178298697464
 11
27.2029740709778
 21
34.56949937769048
  0
LINE
  5
17E
100
AcDbEntity
  8
shape
  6
ByLayer
 62
    0
370
   -1
100
AcDbLine
 10
27.2029740709778
 20
34.56949937769048
 11
27.15612374632591
 21
35.24418163663331
  0
LINE
  5
17F
100
AcDbEntity
  8
shape
  6
ByLayer
 62
    0
370
   -1
100
AcDbLine
 10
27.15612374632591
 20
35.24418163663331
 11
27.25255142267579
 21
35.49204172731464
  0
LINE
  5
180
100
AcDbEntity
  8
shape
  6
ByLayer
 62
    0
370
   -1
100
AcDbLine
 10
27.25255142267579
 20
35.49204172731464
 11
27.38453953170673
 21
35.39375238100997
  0
LINE
  5
181
100
AcDbEntity
  8
shape
  6
ByLayer
 62
    0
370
   -1
100
AcDbLine
 10
27.38453953170673
 20
35.39375238100997
 11
27.74363445313635
 21
34.98941128663731
  0
LINE
  5
182
100
AcDbEntity
  8
shape
  6
ByLayer
 62
    0
370
   -1
100
AcDbLine
 10
27.74363445313635
 20
34.98941128663731
 11
28.16105139299177
 21
34.75719020387864
  0
LINE
  5
183
100
AcDbEntity
  8
shape
  6
ByLayer
 62
    0
370
   -1
100
AcDbLine
 10
28.16105139299177
 20
34.75719020387864
 11
28.49629391785822
 21
34.75682650601998
  0
LINE
  5
184
100
AcDbEntity
  8
shape
  6
ByLayer
 62
    0
370
   -1
100
AcDbLine
 10
28.49629391785822
 20
34.75682650601998
 11
28.81844671290343
 21
34.90319216301714
  0
LINE
  5
185
100
AcDbEntity
  8
shape
  6
ByLayer
 62
    0
370
   -1
100
AcDbLine
 10
28.81844671290343
 20
34.90319216301714
 11
29.06358826416695
 21
35.20790277523131
  0
LINE
  5
186
100
AcDbEntity
  8
shape
  6
ByLayer
 62
    0
370
   -1
100
AcDbLine
 10
29.06358826416695
 20
35.20790277523131
 11
29.18082315687852
 21
35.59358162323115
  0
LINE
  5
187
100
AcDbEntity
  8
shape
  6
ByLayer
 62
    0
370
   -1
100
AcDbLine
 10
29.18082315687852
 20
35.59358162323115
 11
29.14430826473133
 21
35.98212459186797
  0
LINE
  5
188
100
AcDbEntity
  8
shape
  6
ByLayer
 62
    0
370
   -1
100
AcDbLine
 10
29.14430826473133
 20
35.98212459186797
 11
28.81939208227941
 21
36.51521472820864
  0
LINE
  5
189
100
AcDbEntity
  8
shape
  6
ByLayer
 62
    0
370
   -1
100
AcDbLine
 10
28.81939208227941
 20
36.51521472820864
 11
28.48494948534647
 21
36.74028687493289
  0
LINE
  5
18A
100
AcDbEntity
  8
shape
  6
ByLayer
 62
    0
370
   -1
100
AcDbLine
 10
28.48494948534647
 20
36.74028687493289
 11
28.10011142860172
 21
36.76234742317264
  0
LINE
  5
18B
100
AcDbEntity
  8
shape
  6
ByLayer
 62
    0
370
   -1
100
AcDbLine
 10
28.10011142860172
 20
36.76234742317264
 11
27.976122598906
 21
36.71588502172798
  0
LINE
  5
18C
100
AcDbEntity
  8
shape
  6
ByLayer
 62
    0
370
   -1
100
AcDbLine
 10
27.976122598906
 20
36.71588502172798
 11
27.73199913773968
 21
36.71333913671731
  0
LINE
  5
18D
100
AcDbEntity
  8
shape
  6
ByLayer
 62
    0
370
   -1
100
AcDbLine
 10
27.73199913773968
 20
36.71333913671731
 11
27.55339704640085
 21
36.79307989222998
  0
LINE
  5
18E
100
AcDbEntity
  8
shape
  6
ByLayer
 62
    0
370
   -1
100
AcDbLine
 10
27.55339704640085
 20
36.79307989222998
 11
27.42671755001964
 21
37.41782188895464
  0
LINE
  5
18F
100
AcDbEntity
  8
shape
  6
ByLayer
 62
    0
370
   -1
100
AcDbLine
 10
27.42671755001964
 20
37.41782188895464
 11
28.07204123020726
 21
37.52238502332131
  0
LINE
  5
190
100
AcDbEntity
  8
shape
  6
ByLayer
 62
    0
370
   -1
100
AcDbLine
 10
28.07204123020726
 20
37.52238502332131
 11
28.46246060230635
 21
37.64522397508597
  0
LINE
  5
191
100
AcDbEntity
  8
shape
  6
ByLayer
 62
    0
370
   -1
100
AcDbLine
 10
28.46246060230635
 20
37.64522397508597
 11
28.76986927112235
 21
37.94154680543464
  0
LINE
  5
192
100
AcDbEntity
  8
shape
  6
ByLayer
 62
    0
370
   -1
100
AcDbLine
 10
28.76986927112235
 20
37.94154680543464
 11
28.90134833510468
 21
38.07957014279864
  0
LINE
  5
193
100
AcDbEntity
  8
shape
  6
ByLayer
 62
    0
370
   -1
100
AcDbLine
 10
28.90134833510468
 20
38.07957014279864
 11
29.11304744469294
 21
38.62232100351014
  0
LINE
  5
194
100
AcDbEntity
  8
shape
  6
ByLayer
 62
    0
370
   -1
100
AcDbLine
 10
29.11304744469294
 20
38.62232100351014
 11
29.02504628191549
 21
39.21621687559664
  0
LINE
  5
195
100
AcDbEntity
  8
shape
  6
ByLayer
 62
    0
370
   -1
100
AcDbLine
 10
29.02504628191549
 20
39.21621687559664
 11
28.64910742343116
 21
39.65868941733889
  0
LINE
  5
196
100
AcDbEntity
  8
shape
  6
ByLayer
 62
    0
370
   -1
100
AcDbLine
 10
28.64910742343116
 20
39.65868941733889
 11
28.13938061806547
 21
39.70775453158464
  0
LINE
  5
197
100
AcDbEntity
  8
shape
  6
ByLayer
 62
    0
370
   -1
100
AcDbLine
 10
28.13938061806547
 20
39.70775453158464
 11
27.90260194974331
 21
39.55863840953131
  0
LINE
  5
198
100
AcDbEntity
  8
shape
  6
ByLayer
 62
    0
370
   -1
100
AcDbLine
 10
27.90260194974331
 20
39.55863840953131
 11
27.51420057765833
 21
39.28222803694464
  0
LINE
  5
199
100
AcDbEntity
  8
shape
  6
ByLayer
 62
    0
370
   -1
100
AcDbLine
 10
27.51420057765833
 20
39.28222803694464
 11
27.36083257658602
 21
38.96435610846998
  0
LINE
  5
19A
100
AcDbEntity
  8
shape
  6
ByLayer
 62
    0
370
   -1
100
AcDbLine
 10
27.36083257658602
 20
38.96435610846998
 11
27.23475302615495
 21
38.68094455210397
  0
LINE
  5
19B
100
AcDbEntity
  8
shape
  6
ByLayer
 62
    0
370
   -1
100
AcDbLine
 10
27.23475302615495
 20
38.68094455210397
 11
26.9626139071351
 21
38.66566924203998
  0
LINE
  5
19C
100
AcDbEntity
  8
shape
  6
ByLayer
 62
    0
370
   -1
100
AcDbLine
 10
26.9626139071351
 20
38.66566924203998
 11
26.99915606955276
 21
39.03983477970139
  0
LINE
  5
19D
100
AcDbEntity
  8
shape
  6
ByLayer
 62
    0
370
   -1
100
AcDbLine
 10
26.99915606955276
 20
39.03983477970139
 11
27.21633650350366
 21
39.28040954765131
  0
LINE
  5
19E
100
AcDbEntity
  8
shape
  6
ByLayer
 62
    0
370
   -1
100
AcDbLine
 10
27.21633650350366
 20
39.28040954765131
 11
27.56910472218635
 21
39.70593604229131
  0
LINE
  5
19F
100
AcDbEntity
  8
shape
  6
ByLayer
 62
    0
370
   -1
100
AcDbLine
 10
27.56910472218635
 20
39.70593604229131
 11
27.7056015159335
 21
40.33922493869464
  0
LINE
  5
1A0
100
AcDbEntity
  8
shape
  6
ByLayer
 62
    0
370
   -1
100
AcDbLine
 10
27.7056015159335
 20
40.33922493869464
 11
27.59521146110762
 21
40.81475988890131
  0
LINE
  5
1A1
100
AcDbEntity
  8
shape
  6
ByLayer
 62
    0
370
   -1
100
AcDbLine
 10
27.59521146110762
 20
40.81475988890131
 11
27.469986379151
 21
41.05179996828731
  0
LINE
  5
1A2
100
AcDbEntity
  8
shape
  6
ByLayer
 62
    0
370
   -1
100
AcDbLine
 10
27.469986379151
 20
41.05179996828731
 11
27.06267761954643
 21
41.32019762242523
  0
LINE
  5
1A3
100
AcDbEntity
  8
shape
  6
ByLayer
 62
    0
370
   -1
100
AcDbLine
 10
27.06267761954643
 20
41.32019762242523
 11
26.61217275153175
 21
41.27292826635664
  0
LINE
  5
1A4
100
AcDbEntity
  8
shape
  6
ByLayer
 62
    0
370
   -1
100
AcDbLine
 10
26.61217275153175
 20
41.27292826635664
 11
26.25613210039375
 21
40.88895425206931
  0
LINE
  5
1A5
100
AcDbEntity
  8
shape
  6
ByLayer
 62
    0
370
   -1
100
AcDbLine
 10
26.25613210039375
 20
40.88895425206931
 11
26.05287768455823
 21
40.09609292017598
  0
LINE
  5
1A6
100
AcDbEntity
  8
shape
  6
ByLayer
 62
    0
370
   -1
100
AcDbLine
 10
26.05287768455823
 20
40.09609292017598
 11
26.10778182908625
 21
39.89696834255598
  0
LINE
  5
1A7
100
AcDbEntity
  8
shape
  6
ByLayer
 62
    0
370
   -1
100
AcDbLine
 10
26.10778182908625
 20
39.89696834255598
 11
26.13177966709187
 21
39.71739252483931
  0
LINE
  5
1A8
100
AcDbEntity
  8
shape
  6
ByLayer
 62
    0
370
   -1
100
AcDbLine
 10
26.13177966709187
 20
39.71739252483931
 11
26.05258680167331
 21
39.21949015632465
  0
LINE
  5
1A9
100
AcDbEntity
  8
shape
  6
ByLayer
 62
    0
370
   -1
100
AcDbLine
 10
26.05258680167331
 20
39.21949015632465
 11
25.82528000729124
 21
39.06549820985356
  0
LINE
  5
1AA
100
AcDbEntity
  8
shape
  6
ByLayer
 62
    0
370
   -1
100
AcDbLine
 10
25.82528000729124
 20
39.06549820985356
 11
25.60157288861002
 21
39.07592042661598
  0
LINE
  5
1AB
100
AcDbEntity
  8
shape
  6
ByLayer
 62
    0
370
   -1
100
AcDbLine
 10
25.60157288861002
 20
39.07592042661598
 11
25.43191544598237
 21
39.34305650380664
  0
LINE
  5
1AC
100
AcDbEntity
  8
shape
  6
ByLayer
 62
    0
370
   -1
100
AcDbLine
 10
25.43191544598237
 20
39.34305650380664
 11
25.32537958938164
 21
40.37250329276264
  0
LINE
  5
1AD
100
AcDbEntity
  8
shape
  6
ByLayer
 62
    0
370
   -1
100
AcDbLine
 10
25.32537958938164
 20
40.37250329276264
 11
25.18841011094651
 21
40.82388643204223
  0
LINE
  5
1AE
100
AcDbEntity
  8
shape
  6
ByLayer
 62
    0
370
   -1
100
AcDbLine
 10
25.18841011094651
 20
40.82388643204223
 11
24.91683457751618
 21
41.20237088177531
  0
LINE
  5
1AF
100
AcDbEntity
  8
shape
  6
ByLayer
 62
    0
370
   -1
100
AcDbLine
 10
24.91683457751618
 20
41.20237088177531
 11
24.37862851969912
 21
41.52433441115998
  0
LINE
  5
1B0
100
AcDbEntity
  8
shape
  6
ByLayer
 62
    0
370
   -1
100
AcDbLine
 10
24.37862851969912
 20
41.52433441115998
 11
24.26351161799335
 21
41.53588181817265
  0
LINE
  5
1B1
100
AcDbEntity
  8
shape
  6
ByLayer
 62
    0
370
   -1
100
AcDbLine
 10
24.26351161799335
 20
41.53588181817265
 11
23.83352308345544
 21
41.32952874561164
  0
LINE
  5
1B2
100
AcDbEntity
  8
shape
  6
ByLayer
 62
    0
370
   -1
100
AcDbLine
 10
23.83352308345544
 20
41.32952874561164
 11
23.50721611721002
 21
40.90222922391064
  0
LINE
  5
1B3
100
AcDbEntity
  8
shape
  6
ByLayer
 62
    0
370
   -1
100
AcDbLine
 10
23.50721611721002
 20
40.90222922391064
 11
23.41034302644261
 21
40.44160588590931
  0
LINE
  5
1B4
100
AcDbEntity
  8
shape
  6
ByLayer
 62
    0
370
   -1
100
AcDbLine
 10
23.41034302644261
 20
40.44160588590931
 11
23.44671247714735
 21
39.99707617815397
  0
LINE
  5
1B5
100
AcDbEntity
  8
shape
  6
ByLayer
 62
    0
370
   -1
100
AcDbLine
 10
23.44671247714735
 20
39.99707617815397
 11
23.59638081152713
 21
39.60160021908631
  0
LINE
  5
1B6
100
AcDbEntity
  8
shape
  6
ByLayer
 62
    0
370
   -1
100
AcDbLine
 10
23.59638081152713
 20
39.60160021908631
 11
23.86151147103852
 21
39.28850182500664
  0
LINE
  5
1B7
100
AcDbEntity
  8
shape
  6
ByLayer
 62
    0
370
   -1
100
AcDbLine
 10
23.86151147103852
 20
39.28850182500664
 11
23.9816461025091
 21
39.20348745054331
  0
LINE
  5
1B8
100
AcDbEntity
  8
shape
  6
ByLayer
 62
    0
370
   -1
100
AcDbLine
 10
23.9816461025091
 20
39.20348745054331
 11
24.33412343830687
 21
38.85515582640531
  0
LINE
  5
1B9
100
AcDbEntity
  8
shape
  6
ByLayer
 62
    0
370
   -1
100
AcDbLine
 10
24.33412343830687
 20
38.85515582640531
 11
24.4139707902165
 21
38.80732955799064
  0
LINE
  5
1BA
100
AcDbEntity
  8
shape
  6
ByLayer
 62
    0
370
   -1
100
AcDbLine
 10
24.4139707902165
 20
38.80732955799064
 11
24.43113288042658
 21
38.73286242142864
  0
LINE
  5
1BB
100
AcDbEntity
  8
shape
  6
ByLayer
 62
    0
370
   -1
100
AcDbLine
 10
24.43113288042658
 20
38.73286242142864
 11
24.36706592502368
 21
38.15076399863264
  0
LINE
  5
1BC
100
AcDbEntity
  8
shape
  6
ByLayer
 62
    0
370
   -1
100
AcDbLine
 10
24.36706592502368
 20
38.15076399863264
 11
24.35194001500802
 21
38.10702933112798
  0
LINE
  5
1BD
100
AcDbEntity
  8
shape
  6
ByLayer
 62
    0
370
   -1
100
AcDbLine
 10
24.35194001500802
 20
38.10702933112798
 11
24.26802030270956
 21
37.94600210420331
  0
LINE
  5
1BE
100
AcDbEntity
  8
shape
  6
ByLayer
 62
    0
370
   -1
100
AcDbLine
 10
24.26802030270956
 20
37.94600210420331
 11
24.13952278829762
 21
37.83916585821998
  0
LINE
  5
1BF
100
AcDbEntity
  8
shape
  6
ByLayer
 62
    0
370
   -1
100
AcDbLine
 10
24.13952278829762
 20
37.83916585821998
 11
23.5626565770571
 21
37.93405690265772
  0
LINE
  5
1C0
100
AcDbEntity
  8
shape
  6
ByLayer
 62
    0
370
   -1
100
AcDbLine
 10
23.5626565770571
 20
37.93405690265772
 11
22.99358966316841
 21
37.77015418953798
  0
LINE
  5
1C1
100
AcDbEntity
  8
shape
  6
ByLayer
 62
    0
370
   -1
100
AcDbLine
 10
22.99358966316841
 20
37.77015418953798
 11
22.63254037235576
 21
37.58338397355456
  0
LINE
  5
1C2
100
AcDbEntity
  8
shape
  6
ByLayer
 62
    0
370
   -1
100
AcDbLine
 10
22.63254037235576
 20
37.58338397355456
 11
22.36339189299646
 21
37.21215074987865
  0
LINE
  5
1C3
100
AcDbEntity
  8
shape
  6
ByLayer
 62
    0
370
   -1
100
AcDbLine
 10
22.36339189299646
 20
37.21215074987865
 11
22.31685063140979
 21
36.74407160577464
  0
LINE
  5
1C4
100
AcDbEntity
  8
shape
  6
ByLayer
 62
    0
370
   -1
100
AcDbLine
 10
22.31685063140979
 20
36.74407160577464
 11
22.41306014559598
 21
36.11715878745606
  0
LINE
  5
1C5
100
AcDbEntity
  8
shape
  6
ByLayer
 62
    0
370
   -1
100
AcDbLine
 10
22.41306014559598
 20
36.11715878745606
 11
22.75448393176691
 21
35.68971151349998
  0
LINE
  5
1C6
100
AcDbEntity
  8
shape
  6
ByLayer
 62
    0
370
   -1
100
AcDbLine
 10
22.75448393176691
 20
35.68971151349998
 11
23.12423243885661
 21
35.51736419072431
  0
LINE
  5
1C7
100
AcDbEntity
  8
shape
  6
ByLayer
 62
    0
370
   -1
100
AcDbLine
 10
23.12423243885661
 20
35.51736419072431
 11
23.56270202750787
 21
35.59105846933664
  0
LINE
  5
1C8
100
AcDbEntity
  8
shape
  6
ByLayer
 62
    0
370
   -1
100
AcDbLine
 10
23.56270202750787
 20
35.59105846933664
 11
24.1008353646037
 21
36.00240074748864
  0
LINE
  5
1C9
100
AcDbEntity
  8
shape
  6
ByLayer
 62
    0
370
   -1
100
AcDbLine
 10
24.1008353646037
 20
36.00240074748864
 11
24.25420336567601
 21
36.16524646370664
  0
LINE
  5
1CA
100
AcDbEntity
  8
shape
  6
ByLayer
 62
    0
370
   -1
100
AcDbLine
 10
24.25420336567601
 20
36.16524646370664
 11
24.79568185594839
 21
35.38293236971464
  0
LINE
  5
1CB
100
AcDbEntity
  8
shape
  6
ByLayer
 62
    0
370
   -1
100
AcDbLine
 10
24.79568185594839
 20
35.38293236971464
 11
24.83989605445572
 21
35.22117774707264
  0
LINE
  5
1CC
100
AcDbEntity
  8
shape
  6
ByLayer
 62
    0
370
   -1
100
AcDbLine
 10
24.83989605445572
 20
35.22117774707264
 11
24.82469742371883
 21
34.29865812856465
  0
LINE
  5
1CD
100
AcDbEntity
  8
shape
  6
ByLayer
 62
    0
370
   -1
100
AcDbLine
 10
24.82469742371883
 20
34.29865812856465
 11
24.75292207186564
 21
34.02897616636331
  0
LINE
  5
1CE
100
AcDbEntity
  8
shape
  6
ByLayer
 62
    0
370
   -1
100
AcDbLine
 10
24.75292207186564
 20
34.02897616636331
 11
24.89065511787368
 21
33.35122520673798
  0
LINE
  5
1CF
100
AcDbEntity
  8
shape
  6
ByLayer
 62
    0
370
   -1
100
AcDbLine
 10
24.89065511787368
 20
33.35122520673798
 11
25.26036726460276
 21
32.74094019989531
  0
LINE
  5
1D0
100
AcDbEntity
  8
shape
  6
ByLayer
 62
    0
370
   -1
100
AcDbLine
 10
25.26036726460276
 20
32.74094019989531
 11
25.30370881445535
 21
32.50417289390331
  0
LINE
  5
1D1
100
AcDbEntity
  8
shape
  6
ByLayer
 62
    0
370
   -1
100
AcDbLine
 10
25.30370881445535
 20
32.50417289390331
 11
25.33396063448668
 21
32.42152255552131
  0
LINE
  5
1D2
100
AcDbEntity
  8
shape
  6
ByLayer
 62
    0
370
   -1
100
AcDbLine
 10
25.33396063448668
 20
32.42152255552131
 11
25.22946095808037
 21
32.16520648962598
  0
LINE
  5
1D3
100
AcDbEntity
  8
shape
  6
ByLayer
 62
    0
370
   -1
100
AcDbLine
 10
25.22946095808037
 20
32.16520648962598
 11
25.00548113669453
 21
32.00790716575265
  0
LINE
  5
1D4
100
AcDbEntity
  8
shape
  6
ByLayer
 62
    0
370
   -1
100
AcDbLine
 10
25.00548113669453
 20
32.00790716575265
 11
24.73190578343041
 21
32.08101043534464
  0
LINE
  5
1D5
100
AcDbEntity
  8
shape
  6
ByLayer
 62
    0
370
   -1
100
AcDbLine
 10
24.73190578343041
 20
32.08101043534464
 11
24.62035219706487
 21
32.10856054813865
  0
LINE
  5
1D6
100
AcDbEntity
  8
shape
  6
ByLayer
 62
    0
370
   -1
100
AcDbLine
 10
24.62035219706487
 20
32.10856054813865
 11
24.55773965608656
 21
32.11519803405932
  0
LINE
  5
1D7
100
AcDbEntity
  8
shape
  6
ByLayer
 62
    0
370
   -1
100
AcDbLine
 10
24.55773965608656
 20
32.11519803405932
 11
24.43222369124502
 21
32.12665451660732
  0
LINE
  5
1D8
100
AcDbEntity
  8
shape
  6
ByLayer
 62
    0
370
   -1
100
AcDbLine
 10
24.43222369124502
 20
32.12665451660732
 11
23.33981301694048
 21
32.26649634326465
  0
LINE
  5
1D9
100
AcDbEntity
  8
shape
  6
ByLayer
 62
    0
370
   -1
100
AcDbLine
 10
23.33981301694048
 20
32.26649634326465
 11
22.61740537224994
 21
32.3577731402319
  0
LINE
  5
1DA
100
AcDbEntity
  8
shape
  6
ByLayer
 62
    0
370
   -1
100
AcDbLine
 10
22.61740537224994
 20
32.3577731402319
 11
21.89783383568733
 21
32.34669172110065
  0
LINE
  5
1DB
100
AcDbEntity
  8
shape
  6
ByLayer
 62
    0
370
   -1
100
AcDbLine
 10
21.89783383568733
 20
32.34669172110065
 11
20.81189530557218
 21
32.21948839503198
  0
LINE
  5
1DC
100
AcDbEntity
  8
shape
  6
ByLayer
 62
    0
370
   -1
100
AcDbLine
 10
20.81189530557218
 20
32.21948839503198
 11
20.00338632694631
 21
31.96535451628865
  0
LINE
  5
1DD
100
AcDbEntity
  8
shape
  6
ByLayer
 62
    0
370
   -1
100
AcDbLine
 10
20.00338632694631
 20
31.96535451628865
 11
19.04950862658333
 21
31.39780400783932
  0
LINE
  5
1DE
100
AcDbEntity
  8
shape
  6
ByLayer
 62
    0
370
   -1
100
AcDbLine
 10
19.04950862658333
 20
31.39780400783932
 11
18.16529737715789
 21
30.58721240533599
  0
LINE
  5
1DF
100
AcDbEntity
  8
shape
  6
ByLayer
 62
    0
370
   -1
100
AcDbLine
 10
18.16529737715789
 20
30.58721240533599
 11
17.68795856300964
 21
29.92273641755199
  0
LINE
  5
1E0
100
AcDbEntity
  8
shape
  6
ByLayer
 62
    0
370
   -1
100
AcDbLine
 10
17.68795856300964
 20
29.92273641755199
 11
17.21949167685135
 21
29.20015969684599
  0
LINE
  5
1E1
100
AcDbEntity
  8
shape
  6
ByLayer
 62
    0
370
   -1
100
AcDbLine
 10
17.21949167685135
 20
29.20015969684599
 11
16.97144129673866
 21
28.66406905317132
  0
LINE
  5
1E2
100
AcDbEntity
  8
shape
  6
ByLayer
 62
    0
370
   -1
100
AcDbLine
 10
16.97144129673866
 20
28.66406905317132
 11
16.64296179894652
 21
28.06642254691732
  0
LINE
  5
1E3
100
AcDbEntity
  8
shape
  6
ByLayer
 62
    0
370
   -1
100
AcDbLine
 10
16.64296179894652
 20
28.06642254691732
 11
16.37920374304833
 21
27.52814971609066
  0
LINE
  5
1E4
100
AcDbEntity
  8
shape
  6
ByLayer
 62
    0
370
   -1
100
AcDbLine
 10
16.37920374304833
 20
27.52814971609066
 11
16.12228143494569
 21
27.05925225180465
  0
LINE
  5
1E5
100
AcDbEntity
  8
shape
  6
ByLayer
 62
    0
370
   -1
100
AcDbLine
 10
16.12228143494569
 20
27.05925225180465
 11
15.87190399175367
 21
26.52579841760532
  0
LINE
  5
1E6
100
AcDbEntity
  8
shape
  6
ByLayer
 62
    0
370
   -1
100
AcDbLine
 10
15.87190399175367
 20
26.52579841760532
 11
15.53397080020173
 21
25.94260890123332
  0
LINE
  5
1E7
100
AcDbEntity
  8
shape
  6
ByLayer
 62
    0
370
   -1
100
AcDbLine
 10
15.53397080020173
 20
25.94260890123332
 11
15.31857202392094
 21
25.67147214759732
  0
LINE
  5
1E8
100
AcDbEntity
  8
shape
  6
ByLayer
 62
    0
370
   -1
100
AcDbLine
 10
15.31857202392094
 20
25.67147214759732
 11
15.10289145484538
 21
25.57972936274866
  0
LINE
  5
1E9
100
AcDbEntity
  8
shape
  6
ByLayer
 62
    0
370
   -1
100
AcDbLine
 10
15.10289145484538
 20
25.57972936274866
 11
14.97649375125894
 21
25.81695129106399
  0
LINE
  5
1EA
100
AcDbEntity
  8
shape
  6
ByLayer
 62
    0
370
   -1
100
AcDbLine
 10
14.97649375125894
 20
25.81695129106399
 11
14.86137684955317
 21
26.53407254388999
  0
LINE
  5
1EB
100
AcDbEntity
  8
shape
  6
ByLayer
 62
    0
370
   -1
100
AcDbLine
 10
14.86137684955317
 20
26.53407254388999
 11
14.6856835870635
 21
27.22291628820465
  0
LINE
  5
1EC
100
AcDbEntity
  8
shape
  6
ByLayer
 62
    0
370
   -1
100
AcDbLine
 10
14.6856835870635
 20
27.22291628820465
 11
14.67026679416292
 21
27.34684633354532
  0
LINE
  5
1ED
100
AcDbEntity
  8
shape
  6
ByLayer
 62
    0
370
   -1
100
AcDbLine
 10
14.67026679416292
 20
27.34684633354532
 11
14.38811039579375
 21
28.38929532094865
  0
LINE
  5
1EE
100
AcDbEntity
  8
shape
  6
ByLayer
 62
    0
370
   -1
100
AcDbLine
 10
14.38811039579375
 20
28.38929532094865
 11
14.26732127783211
 21
28.75908511874799
  0
LINE
  5
1EF
100
AcDbEntity
  8
shape
  6
ByLayer
 62
    0
370
   -1
100
AcDbLine
 10
14.26732127783211
 20
28.75908511874799
 11
14.05279515020606
 21
29.33372773544132
  0
LINE
  5
1F0
100
AcDbEntity
  8
shape
  6
ByLayer
 62
    0
370
   -1
100
AcDbLine
 10
14.05279515020606
 20
29.33372773544132
 11
13.85128603168005
 21
29.79225981075532
  0
LINE
  5
1F1
100
AcDbEntity
  8
shape
  6
ByLayer
 62
    0
370
   -1
100
AcDbLine
 10
13.85128603168005
 20
29.79225981075532
 11
13.53742339885496
 21
30.35726443419399
  0
LINE
  5
1F2
100
AcDbEntity
  8
shape
  6
ByLayer
 62
    0
370
   -1
100
AcDbLine
 10
13.53742339885496
 20
30.35726443419399
 11
13.14160451320461
 21
31.05429138032866
  0
LINE
  5
1F3
100
AcDbEntity
  8
shape
  6
ByLayer
 62
    0
370
   -1
100
AcDbLine
 10
13.14160451320461
 20
31.05429138032866
 11
12.70368032996257
 21
31.60411161816799
  0
LINE
  5
1F4
100
AcDbEntity
  8
shape
  6
ByLayer
 62
    0
370
   -1
100
AcDbLine
 10
12.70368032996257
 20
31.60411161816799
 11
12.13369531696836
 21
32.19693912779466
  0
LINE
  5
1F5
100
AcDbEntity
  8
shape
  6
ByLayer
 62
    0
370
   -1
100
AcDbLine
 10
12.13369531696836
 20
32.19693912779466
 11
11.55571102463894
 21
32.49144346884999
  0
LINE
  5
1F6
100
AcDbEntity
  8
shape
  6
ByLayer
 62
    0
370
   -1
100
AcDbLine
 10
11.55571102463894
 20
32.49144346884999
 11
11.28155390560498
 21
32.59682492339866
  0
LINE
  5
1F7
100
AcDbEntity
  8
shape
  6
ByLayer
 62
    0
370
   -1
100
AcDbLine
 10
11.28155390560498
 20
32.59682492339866
 11
10.73454864051919
 21
32.42400024718349
  0
LINE
  5
1F8
100
AcDbEntity
  8
shape
  6
ByLayer
 62
    0
370
   -1
100
AcDbLine
 10
10.73454864051919
 20
32.42400024718349
 11
10.32084045744646
 21
31.92425665825932
  0
LINE
  5
1F9
100
AcDbEntity
  8
shape
  6
ByLayer
 62
    0
370
   -1
100
AcDbLine
 10
10.32084045744646
 20
31.92425665825932
 11
9.807577607011003
 21
31.08957007261932
  0
LINE
  5
1FA
100
AcDbEntity
  8
shape
  6
ByLayer
 62
    0
370
   -1
100
AcDbLine
 10
9.807577607011003
 20
31.08957007261932
 11
9.553564127757525
 21
30.61358050008932
  0
LINE
  5
1FB
100
AcDbEntity
  8
shape
  6
ByLayer
 62
    0
370
   -1
100
AcDbLine
 10
9.553564127757525
 20
30.61358050008932
 11
9.296932702539795
 21
30.09831155882332
  0
LINE
  5
1FC
100
AcDbEntity
  8
shape
  6
ByLayer
 62
    0
370
   -1
100
AcDbLine
 10
9.296932702539795
 20
30.09831155882332
 11
9.251554972492796
 21
30.10422164902666
  0
LINE
  5
1FD
100
AcDbEntity
  8
shape
  6
ByLayer
 62
    0
370
   -1
100
AcDbLine
 10
9.251554972492796
 20
30.10422164902666
 11
9.253954756293359
 21
30.27297745544799
  0
LINE
  5
1FE
100
AcDbEntity
  8
shape
  6
ByLayer
 62
    0
370
   -1
100
AcDbLine
 10
9.253954756293359
 20
30.27297745544799
 11
9.344528414584286
 21
30.76854988455557
  0
LINE
  5
1FF
100
AcDbEntity
  8
shape
  6
ByLayer
 62
    0
370
   -1
100
AcDbLine
 10
9.344528414584286
 20
30.76854988455557
 11
9.255990936487775
 21
31.27278286892265
  0
LINE
  5
200
100
AcDbEntity
  8
shape
  6
ByLayer
 62
    0
370
   -1
100
AcDbLine
 10
9.255990936487775
 20
31.27278286892265
 11
9.01303100686113
 21
31.68230665778132
  0
LINE
  5
201
100
AcDbEntity
  8
shape
  6
ByLayer
 62
    0
370
   -1
100
AcDbLine
 10
9.01303100686113
 20
31.68230665778132
 11
8.703467986678721
 21
31.81537461182099
  0
LINE
  5
202
100
AcDbEntity
  8
shape
  6
ByLayer
 62
    0
370
   -1
100
AcDbLine
 10
8.703467986678721
 20
31.81537461182099
 11
8.352290533772921
 21
31.78314188909665
  0
LINE
  5
203
100
AcDbEntity
  8
shape
  6
ByLayer
 62
    0
370
   -1
100
AcDbLine
 10
8.352290533772921
 20
31.78314188909665
 11
7.986141702384068
 21
31.47790846121065
  0
LINE
  5
204
100
AcDbEntity
  8
shape
  6
ByLayer
 62
    0
370
   -1
100
AcDbLine
 10
7.986141702384068
 20
31.47790846121065
 11
7.832482818426839
 21
31.10502723161265
  0
LINE
  5
205
100
AcDbEntity
  8
shape
  6
ByLayer
 62
    0
370
   -1
100
AcDbLine
 10
7.832482818426839
 20
31.10502723161265
 11
7.812848223694965
 21
30.58348450228466
  0
LINE
  5
206
100
AcDbEntity
  8
shape
  6
ByLayer
 62
    0
370
   -1
100
AcDbLine
 10
7.812848223694965
 20
30.58348450228466
 11
7.998286062829339
 21
29.94946821016399
  0
LINE
  5
207
100
AcDbEntity
  8
shape
  6
ByLayer
 62
    0
370
   -1
100
AcDbLine
 10
7.998286062829339
 20
29.94946821016399
 11
8.180742352393318
 21
29.40819487200332
  0
LINE
  5
208
100
AcDbEntity
  8
shape
  6
ByLayer
 62
    0
370
   -1
100
AcDbLine
 10
8.180742352393318
 20
29.40819487200332
 11
7.921838404637178
 21
29.3567884527924
  0
LINE
  5
209
100
AcDbEntity
  8
shape
  6
ByLayer
 62
    0
370
   -1
100
AcDbLine
 10
7.921838404637178
 20
29.3567884527924
 11
7.813139106579881
 21
29.64014318136799
  0
LINE
  5
20A
100
AcDbEntity
  8
shape
  6
ByLayer
 62
    0
370
   -1
100
AcDbLine
 10
7.813139106579881
 20
29.64014318136799
 11
7.645472393695884
 21
30.32624782618457
  0
LINE
  5
20B
100
AcDbEntity
  8
shape
  6
ByLayer
 62
    0
370
   -1
100
AcDbLine
 10
7.645472393695884
 20
30.32624782618457
 11
7.251735138690715
 21
30.86689605865065
  0
LINE
  5
20C
100
AcDbEntity
  8
shape
  6
ByLayer
 62
    0
370
   -1
100
AcDbLine
 10
7.251735138690715
 20
30.86689605865065
 11
6.749544018062397
 21
30.98230193542882
  0
LINE
  5
20D
100
AcDbEntity
  8
shape
  6
ByLayer
 62
    0
370
   -1
100
AcDbLine
 10
6.749544018062397
 20
30.98230193542882
 11
6.310292681657924
 21
30.68295586662999
  0
LINE
  5
20E
100
AcDbEntity
  8
shape
  6
ByLayer
 62
    0
370
   -1
100
AcDbLine
 10
6.310292681657924
 20
30.68295586662999
 11
6.126736491185354
 21
30.21177392516924
  0
LINE
  5
20F
100
AcDbEntity
  8
shape
  6
ByLayer
 62
    0
370
   -1
100
AcDbLine
 10
6.126736491185354
 20
30.21177392516924
 11
6.126381977669362
 21
29.70288106198799
  0
LINE
  5
210
100
AcDbEntity
  8
shape
  6
ByLayer
 62
    0
370
   -1
100
AcDbLine
 10
6.126381977669362
 20
29.70288106198799
 11
6.463151637681633
 21
29.09823337195465
  0
LINE
  5
211
100
AcDbEntity
  8
shape
  6
ByLayer
 62
    0
370
   -1
100
AcDbLine
 10
6.463151637681633
 20
29.09823337195465
 11
6.767269693862008
 21
28.95757322511532
  0
LINE
  5
212
100
AcDbEntity
  8
shape
  6
ByLayer
 62
    0
370
   -1
100
AcDbLine
 10
6.767269693862008
 20
28.95757322511532
 11
6.996921731503716
 21
28.78518044010732
  0
LINE
  5
213
100
AcDbEntity
  8
shape
  6
ByLayer
 62
    0
370
   -1
100
AcDbLine
 10
6.996921731503716
 20
28.78518044010732
 11
6.981214055718216
 21
28.58296443068865
  0
LINE
  5
214
100
AcDbEntity
  8
shape
  6
ByLayer
 62
    0
370
   -1
100
AcDbLine
 10
6.981214055718216
 20
28.58296443068865
 11
6.629036692895515
 21
28.40732109606882
  0
LINE
  5
215
100
AcDbEntity
  8
shape
  6
ByLayer
 62
    0
370
   -1
100
AcDbLine
 10
6.629036692895515
 20
28.40732109606882
 11
6.3124743032948
 21
28.70834926746399
  0
LINE
  5
216
100
AcDbEntity
  8
shape
  6
ByLayer
 62
    0
370
   -1
100
AcDbLine
 10
6.3124743032948
 20
28.70834926746399
 11
6.118164536170467
 21
28.95348162420532
  0
LINE
  5
217
100
AcDbEntity
  8
shape
  6
ByLayer
 62
    0
370
   -1
100
AcDbLine
 10
6.118164536170467
 20
28.95348162420532
 11
5.799247813219957
 21
29.09319842972373
  0
LINE
  5
218
100
AcDbEntity
  8
shape
  6
ByLayer
 62
    0
370
   -1
100
AcDbLine
 10
5.799247813219957
 20
29.09319842972373
 11
5.459169360391759
 21
29.09823337195466
  0
LINE
  5
219
100
AcDbEntity
  8
shape
  6
ByLayer
 62
    0
370
   -1
100
AcDbLine
 10
5.459169360391759
 20
29.09823337195466
 11
4.99572020399828
 21
28.84191730605932
  0
LINE
  5
21A
100
AcDbEntity
  8
shape
  6
ByLayer
 62
    0
370
   -1
100
AcDbLine
 10
4.99572020399828
 20
28.84191730605932
 11
4.80286485129853
 21
28.34146905253399
  0
LINE
  5
21B
100
AcDbEntity
  8
shape
  6
ByLayer
 62
    0
370
   -1
100
AcDbLine
 10
4.80286485129853
 20
28.34146905253399
 11
4.799010653073385
 21
28.23690591816732
  0
LINE
  5
21C
100
AcDbEntity
  8
shape
  6
ByLayer
 62
    0
370
   -1
100
AcDbLine
 10
4.799010653073385
 20
28.23690591816732
 11
4.899028915033949
 21
27.64403294630833
  0
LINE
  5
21D
100
AcDbEntity
  8
shape
  6
ByLayer
 62
    0
370
   -1
100
AcDbLine
 10
4.899028915033949
 20
27.64403294630833
 11
5.252060746331092
 21
27.23146318788332
  0
LINE
  5
21E
100
AcDbEntity
  8
shape
  6
ByLayer
 62
    0
370
   -1
100
AcDbLine
 10
5.252060746331092
 20
27.23146318788332
 11
5.415246044769343
 21
27.20145811454332
  0
LINE
  5
21F
100
AcDbEntity
  8
shape
  6
ByLayer
 62
    0
370
   -1
100
AcDbLine
 10
5.415246044769343
 20
27.20145811454332
 11
5.611373829924405
 21
27.12499063975866
  0
LINE
  5
220
100
AcDbEntity
  8
shape
  6
ByLayer
 62
    0
370
   -1
100
AcDbLine
 10
5.611373829924405
 20
27.12499063975866
 11
5.720527632489384
 21
27.10280507037999
  0
LINE
  5
221
100
AcDbEntity
  8
shape
  6
ByLayer
 62
    0
370
   -1
100
AcDbLine
 10
5.720527632489384
 20
27.10280507037999
 11
6.076859166512302
 21
27.21882468729466
  0
LINE
  5
222
100
AcDbEntity
  8
shape
  6
ByLayer
 62
    0
370
   -1
100
AcDbLine
 10
6.076859166512302
 20
27.21882468729466
 11
6.543580755361093
 21
27.36430383076132
  0
LINE
  5
223
100
AcDbEntity
  8
shape
  6
ByLayer
 62
    0
370
   -1
100
AcDbLine
 10
6.543580755361093
 20
27.36430383076132
 11
6.61717412524501
 21
27.32611555560132
  0
LINE
  5
224
100
AcDbEntity
  8
shape
  6
ByLayer
 62
    0
370
   -1
100
AcDbLine
 10
6.61717412524501
 20
27.32611555560132
 11
6.614483458559531
 21
26.78293280368266
  0
LINE
  5
225
100
AcDbEntity
  8
shape
  6
ByLayer
 62
    0
370
   -1
100
AcDbLine
 10
6.614483458559531
 20
26.78293280368266
 11
6.277422915662343
 21
26.44723968013333
  0
LINE
  5
226
100
AcDbEntity
  8
shape
  6
ByLayer
 62
    0
370
   -1
100
AcDbLine
 10
6.277422915662343
 20
26.44723968013333
 11
5.737980605584385
 21
26.25608235872974
  0
LINE
  5
227
100
AcDbEntity
  8
shape
  6
ByLayer
 62
    0
370
   -1
100
AcDbLine
 10
5.737980605584385
 20
26.25608235872974
 11
5.332708026174239
 21
25.79140151649266
  0
LINE
  5
228
100
AcDbEntity
  8
shape
  6
ByLayer
 62
    0
370
   -1
100
AcDbLine
 10
5.332708026174239
 20
25.79140151649266
 11
5.169759070079984
 21
25.22970427045624
  0
LINE
  5
229
100
AcDbEntity
  8
shape
  6
ByLayer
 62
    0
370
   -1
100
AcDbLine
 10
5.169759070079984
 20
25.22970427045624
 11
5.237734764248947
 21
24.64884469349132
  0
LINE
  5
22A
100
AcDbEntity
  8
shape
  6
ByLayer
 62
    0
370
   -1
100
AcDbLine
 10
5.237734764248947
 20
24.64884469349132
 11
5.445643306243135
 21
24.25558501824991
  0
LINE
  5
22B
100
AcDbEntity
  8
shape
  6
ByLayer
 62
    0
370
   -1
100
AcDbLine
 10
5.445643306243135
 20
24.25558501824991
 11
5.820445903458261
 21
24.05156188509599
  0
LINE
  5
22C
100
AcDbEntity
  8
shape
  6
ByLayer
 62
    0
370
   -1
100
AcDbLine
 10
5.820445903458261
 20
24.05156188509599
 11
5.92429109337351
 21
24.00228082524666
  0
LINE
  5
22D
100
AcDbEntity
  8
shape
  6
ByLayer
 62
    0
370
   -1
100
AcDbLine
 10
5.92429109337351
 20
24.00228082524666
 11
6.028790769779822
 21
23.95618212166066
  0
LINE
  5
22E
100
AcDbEntity
  8
shape
  6
ByLayer
 62
    0
370
   -1
100
AcDbLine
 10
6.028790769779822
 20
23.95618212166066
 11
6.512901701092539
 21
24.17576470383066
  0
LINE
  5
22F
100
AcDbEntity
  8
shape
  6
ByLayer
 62
    0
370
   -1
100
AcDbLine
 10
6.512901701092539
 20
24.17576470383066
 11
6.900203172268927
 21
24.59392631683266
  0
LINE
  5
230
100
AcDbEntity
  8
shape
  6
ByLayer
 62
    0
370
   -1
100
AcDbLine
 10
6.900203172268927
 20
24.59392631683266
 11
7.026591785765218
 21
25.03981989155799
  0
LINE
  5
231
100
AcDbEntity
  8
shape
  6
ByLayer
 62
    0
370
   -1
100
AcDbLine
 10
7.026591785765218
 20
25.03981989155799
 11
7.193340399543698
 21
25.34368945247399
  0
LINE
  5
232
100
AcDbEntity
  8
shape
  6
ByLayer
 62
    0
370
   -1
100
AcDbLine
 10
7.193340399543698
 20
25.34368945247399
 11
7.390631716238427
 21
25.58036583400133
  0
LINE
  5
233
100
AcDbEntity
  8
shape
  6
ByLayer
 62
    0
370
   -1
100
AcDbLine
 10
7.390631716238427
 20
25.58036583400133
 11
7.541599933510176
 21
25.68663380208049
  0
LINE
  5
234
100
AcDbEntity
  8
shape
  6
ByLayer
 62
    0
370
   -1
100
AcDbLine
 10
7.541599933510176
 20
25.68663380208049
 11
7.702167285984177
 21
25.66019751397866
  0
LINE
  5
235
100
AcDbEntity
  8
shape
  6
ByLayer
 62
    0
370
   -1
100
AcDbLine
 10
7.702167285984177
 20
25.66019751397866
 11
7.832991863475448
 21
25.58663962206333
  0
LINE
  5
236
100
AcDbEntity
  8
shape
  6
ByLayer
 62
    0
370
   -1
100
AcDbLine
 10
7.832991863475448
 20
25.58663962206333
 11
7.934219107426448
 21
25.15747614883666
  0
LINE
  5
237
100
AcDbEntity
  8
shape
  6
ByLayer
 62
    0
370
   -1
100
AcDbLine
 10
7.934219107426448
 20
25.15747614883666
 11
7.927383359630906
 21
24.33124553841066
  0
LINE
  5
238
100
AcDbEntity
  8
shape
  6
ByLayer
 62
    0
370
   -1
100
AcDbLine
 10
7.927383359630906
 20
24.33124553841066
 11
8.031092198193852
 21
23.71140209721991
  0
LINE
  5
239
100
AcDbEntity
  8
shape
  6
ByLayer
 62
    0
370
   -1
100
AcDbLine
 10
8.031092198193852
 20
23.71140209721991
 11
8.347781849056719
 21
23.21942118446666
  0
LINE
  5
23A
100
AcDbEntity
  8
shape
  6
ByLayer
 62
    0
370
   -1
100
AcDbLine
 10
8.347781849056719
 20
23.21942118446666
 11
8.506531183499989
 21
23.17677761053799
  0
LINE
  5
23B
100
AcDbEntity
  8
shape
  6
ByLayer
 62
    0
370
   -1
100
AcDbLine
 10
8.506531183499989
 20
23.17677761053799
 11
8.557581129802864
 21
23.16486650566666
  0
LINE
  5
23C
100
AcDbEntity
  8
shape
  6
ByLayer
 62
    0
370
   -1
100
AcDbLine
 10
8.557581129802864
 20
23.16486650566666
 11
9.224784656990314
 21
23.16200238502966
  0
LINE
  5
23D
100
AcDbEntity
  8
shape
  6
ByLayer
 62
    0
370
   -1
100
AcDbLine
 10
9.224784656990314
 20
23.16200238502966
 11
9.766054075189155
 21
23.64385658553066
  0
LINE
  5
23E
100
AcDbEntity
  8
shape
  6
ByLayer
 62
    0
370
   -1
100
AcDbLine
 10
9.766054075189155
 20
23.64385658553066
 11
9.808159372780842
 21
23.722869945326
  0
LINE
  5
23F
100
AcDbEntity
  8
shape
  6
ByLayer
 62
    0
370
   -1
100
AcDbLine
 10
9.808159372780842
 20
23.722869945326
 11
9.935675157456187
 21
24.08828400326324
  0
LINE
  5
240
100
AcDbEntity
  8
shape
  6
ByLayer
 62
    0
370
   -1
100
AcDbLine
 10
9.935675157456187
 20
24.08828400326324
 11
9.919422076261469
 21
24.49481865034599
  0
LINE
  5
241
100
AcDbEntity
  8
shape
  6
ByLayer
 62
    0
370
   -1
100
AcDbLine
 10
9.919422076261469
 20
24.49481865034599
 11
9.658863732097364
 21
25.20039249615933
  0
LINE
  5
242
100
AcDbEntity
  8
shape
  6
ByLayer
 62
    0
370
   -1
100
AcDbLine
 10
9.658863732097364
 20
25.20039249615933
 11
9.40964982044501
 21
25.456072090802
  0
LINE
  5
243
100
AcDbEntity
  8
shape
  6
ByLayer
 62
    0
370
   -1
100
AcDbLine
 10
9.40964982044501
 20
25.456072090802
 11
9.242901206666531
 21
25.65301448127
  0
LINE
  5
244
100
AcDbEntity
  8
shape
  6
ByLayer
 62
    0
370
   -1
100
AcDbLine
 10
9.242901206666531
 20
25.65301448127
 11
9.363108558858343
 21
25.94242705230399
  0
LINE
  5
245
100
AcDbEntity
  8
shape
  6
ByLayer
 62
    0
370
   -1
100
AcDbLine
 10
9.363108558858343
 20
25.94242705230399
 11
10.10515079828076
 21
26.59426453949933
  0
LINE
  5
246
100
AcDbEntity
  8
shape
  6
ByLayer
 62
    0
370
   -1
100
AcDbLine
 10
10.10515079828076
 20
26.59426453949933
 11
10.46322762961318
 21
26.924411270704
  0
LINE
  5
247
100
AcDbEntity
  8
shape
  6
ByLayer
 62
    0
370
   -1
100
AcDbLine
 10
10.46322762961318
 20
26.924411270704
 11
10.72785833416611
 21
27.05761561144066
  0
LINE
  5
248
100
AcDbEntity
  8
shape
  6
ByLayer
 62
    0
370
   -1
100
AcDbLine
 10
10.72785833416611
 20
27.05761561144066
 11
10.74596579375218
 21
27.05506972642999
  0
LINE
  5
249
100
AcDbEntity
  8
shape
  6
ByLayer
 62
    0
370
   -1
100
AcDbLine
 10
10.74596579375218
 20
27.05506972642999
 11
10.83613948807634
 21
26.69228111240999
  0
LINE
  5
24A
100
AcDbEntity
  8
shape
  6
ByLayer
 62
    0
370
   -1
100
AcDbLine
 10
10.83613948807634
 20
26.69228111240999
 11
10.84530229895122
 21
26.46224221680333
  0
LINE
  5
24B
100
AcDbEntity
  8
shape
  6
ByLayer
 62
    0
370
   -1
100
AcDbLine
 10
10.84530229895122
 20
26.46224221680333
 11
10.96012831777207
 21
25.27776921559066
  0
LINE
  5
24C
100
AcDbEntity
  8
shape
  6
ByLayer
 62
    0
370
   -1
100
AcDbLine
 10
10.96012831777207
 20
25.27776921559066
 11
11.16011030115228
 21
24.26096092722333
  0
LINE
  5
24D
100
AcDbEntity
  8
shape
  6
ByLayer
 62
    0
370
   -1
100
AcDbLine
 10
11.16011030115228
 20
24.26096092722333
 11
11.33871239249112
 21
23.66958820903133
  0
LINE
  5
24E
100
AcDbEntity
  8
shape
  6
ByLayer
 62
    0
370
   -1
100
AcDbLine
 10
11.33871239249112
 20
23.66958820903133
 11
11.77103708019851
 21
21.979847957666
  0
LINE
  5
24F
100
AcDbEntity
  8
shape
  6
ByLayer
 62
    0
370
   -1
100
AcDbLine
 10
11.77103708019851
 20
21.979847957666
 11
11.73307686371689
 21
21.923383865108
  0
LINE
  5
250
100
AcDbEntity
  8
shape
  6
ByLayer
 62
    0
370
   -1
100
AcDbLine
 10
11.73307686371689
 20
21.923383865108
 11
11.23108572507195
 21
21.32510088760134
  0
LINE
  5
251
100
AcDbEntity
  8
shape
  6
ByLayer
 62
    0
370
   -1
100
AcDbLine
 10
11.23108572507195
 20
21.32510088760134
 11
10.79643397428522
 21
21.02759603921201
  0
LINE
  5
252
100
AcDbEntity
  8
shape
  6
ByLayer
 62
    0
370
   -1
100
AcDbLine
 10
10.79643397428522
 20
21.02759603921201
 11
10.58932536022455
 21
20.86993301748001
  0
LINE
  5
253
100
AcDbEntity
  8
shape
  6
ByLayer
 62
    0
370
   -1
100
AcDbLine
 10
10.58932536022455
 20
20.86993301748001
 11
8.72309349132045
 21
19.78002145952067
  0
LINE
  5
254
100
AcDbEntity
  8
shape
  6
ByLayer
 62
    0
370
   -1
100
AcDbLine
 10
8.72309349132045
 20
19.78002145952067
 11
8.186705451534115
 21
19.50406570925734
  0
LINE
  5
255
100
AcDbEntity
  8
shape
  6
ByLayer
 62
    0
370
   -1
100
AcDbLine
 10
8.186705451534115
 20
19.50406570925734
 11
7.613448006084596
 21
19.13191187537667
  0
LINE
  5
256
100
AcDbEntity
  8
shape
  6
ByLayer
 62
    0
370
   -1
100
AcDbLine
 10
7.613448006084596
 20
19.13191187537667
 11
7.515565915310137
 21
19.074811311566
  0
LINE
  5
257
100
AcDbEntity
  8
shape
  6
ByLayer
 62
    0
370
   -1
100
AcDbLine
 10
7.515565915310137
 20
19.074811311566
 11
7.468661050117325
 21
19.06517331831134
  0
LINE
  5
258
100
AcDbEntity
  8
shape
  6
ByLayer
 62
    0
370
   -1
100
AcDbLine
 10
7.468661050117325
 20
19.06517331831134
 11
7.076114596922284
 21
18.85004603491
  0
LINE
  5
259
100
AcDbEntity
  8
shape
  6
ByLayer
 62
    0
370
   -1
100
AcDbLine
 10
7.076114596922284
 20
18.85004603491
 11
6.889513226248241
 21
18.75248408432267
  0
LINE
  5
25A
100
AcDbEntity
  8
shape
  6
ByLayer
 62
    0
370
   -1
100
AcDbLine
 10
6.889513226248241
 20
18.75248408432267
 11
6.539435674251033
 21
18.50462399364134
  0
LINE
  5
25B
100
AcDbEntity
  8
shape
  6
ByLayer
 62
    0
370
   -1
100
AcDbLine
 10
6.539435674251033
 20
18.50462399364134
 11
4.753269319420242
 21
17.46181130837934
  0
LINE
  5
25C
100
AcDbEntity
  8
shape
  6
ByLayer
 62
    0
370
   -1
100
AcDbLine
 10
4.753269319420242
 20
17.46181130837934
 11
4.520635732208138
 21
17.35170178166801
  0
LINE
  5
25D
100
AcDbEntity
  8
shape
  6
ByLayer
 62
    0
370
   -1
100
AcDbLine
 10
4.520635732208138
 20
17.35170178166801
 11
2.761386270583562
 21
15.50488809689625
  0
LINE
  5
25E
100
AcDbEntity
  8
shape
  6
ByLayer
 62
    0
370
   -1
100
AcDbLine
 10
2.761386270583562
 20
15.50488809689625
 11
2.01895187899061
 21
14.40337248172067
  0
LINE
  5
25F
100
AcDbEntity
  8
shape
  6
ByLayer
 62
    0
370
   -1
100
AcDbLine
 10
2.01895187899061
 20
14.40337248172067
 11
1.391781250872475
 21
13.20219335323342
  0
LINE
  5
260
100
AcDbEntity
  8
shape
  6
ByLayer
 62
    0
370
   -1
100
AcDbLine
 10
1.391781250872475
 20
13.20219335323342
 11
0.897727039225598
 21
11.91565746284558
  0
LINE
  5
261
100
AcDbEntity
  8
shape
  6
ByLayer
 62
    0
370
   -1
100
AcDbLine
 10
0.897727039225598
 20
11.91565746284558
 11
0.5546418970464232
 21
10.55807156196822
  0
LINE
  5
262
100
AcDbEntity
  8
shape
  6
ByLayer
 62
    0
370
   -1
100
AcDbLine
 10
0.5546418970464232
 20
10.55807156196822
 11
0.3803784773313934
 21
9.143742402012451
  0
LINE
  5
263
100
AcDbEntity
  8
shape
  6
ByLayer
 62
    0
370
   -1
100
AcDbLine
 10
0.3803784773313934
 20
9.143742402012451
 11
0.3927894330769517
 21
7.68697673438934
  0
LINE
  5
264
100
AcDbEntity
  8
shape
  6
ByLayer
 62
    0
370
   -1
100
AcDbLine
 10
0.3927894330769517
 20
7.68697673438934
 11
0.5952814176008354
 21
6.219987214509739
  0
LINE
  5
265
100
AcDbEntity
  8
shape
  6
ByLayer
 62
    0
370
   -1
100
AcDbLine
 10
0.5952814176008354
 20
6.219987214509739
 11
0.9780912479800532
 21
4.831062030325511
  0
LINE
  5
266
100
AcDbEntity
  8
shape
  6
ByLayer
 62
    0
370
   -1
100
AcDbLine
 10
0.9780912479800532
 20
4.831062030325511
 11
1.542752876928033
 21
3.555099127931531
  0
LINE
  5
267
100
AcDbEntity
  8
shape
  6
ByLayer
 62
    0
370
   -1
100
AcDbLine
 10
1.542752876928033
 20
3.555099127931531
 11
2.290800257158201
 21
2.426996453422674
  0
LINE
  5
268
100
AcDbEntity
  8
shape
  6
ByLayer
 62
    0
370
   -1
100
AcDbLine
 10
2.290800257158201
 20
2.426996453422674
 11
2.290800257158208
 21
2.426996453422667
  0
ENDSEC
  0
SECTION
  2
OBJECTS
  0
DICTIONARY
  5
C
330
0
100
AcDbDictionary
281
    1
  3
ACAD_GROUP
350
D
  0
DICTIONARY
  5
D
330
C
100
AcDbDictionary
281
    1
  0
ENDSEC
  0
EOF
