999
dxfrw 0.6.3
  0
SECTION
  2
HEADER
  9
$ACADVER
  1
AC1021
  9
$DWGCODEPAGE
  3
ANSI_1252
  9
$INSBASE
 10
0
 20
0
 30
0
  9
$EXTMIN
 10
1.132227683628336
 20
0.6095327379557149
 30
0
  9
$EXTMAX
 10
62.29860645833332
 20
67.21459918749997
 30
0
  9
$LIMMIN
 10
0
 20
0
  9
$LIMMAX
 10
420
 20
297
  9
$ORTHOMODE
 70
    0
  9
$REGENMODE
 70
    1
  9
$FILLMODE
 70
    1
  9
$QTEXTMODE
 70
    0
  9
$MIRRTEXT
 70
    0
  9
$LTSCALE
 40
1
  9
$ATTMODE
 70
    0
  9
$TEXTSIZE
 40
2.5
  9
$TRACEWID
 40
15.68
  9
$TEXTSTYLE
  7
STANDARD
  9
$CLAYER
  8
0
  9
$CELTYPE
  6
BYLAYER
  9
$CECOLOR
 62
  256
  9
$CELTSCALE
 40
1
  9
$DISPSILH
 70
    0
  9
$DIMSCALE
 40
2.5
  9
$DIMASZ
 40
2.5
  9
$DIMEXO
 40
0.625
  9
$DIMDLI
 40
3.75
  9
$DIMRND
 40
0
  9
$DIMDLE
 40
0
  9
$DIMEXE
 40
1.25
  9
$DIMTP
 40
0
  9
$DIMTM
 40
0
  9
$DIMTXT
 40
2.5
  9
$DIMCEN
 40
2.5
  9
$DIMTSZ
 40
0
  9
$DIMTOL
 70
    0
  9
$DIMLIM
 70
    0
  9
$DIMTIH
 70
    0
  9
$DIMTOH
 70
    0
  9
$DIMSE1
 70
    0
  9
$DIMSE2
 70
    0
  9
$DIMTAD
 70
    1
  9
$DIMZIN
 70
    8
  9
$DIMBLK
  1

  9
$DIMASO
 70
    1
  9
$DIMSHO
 70
    1
  9
$DIMPOST
  1

  9
$DIMAPOST
  1

  9
$DIMALT
 70
    0
  9
$DIMALTD
 70
    3
  9
$DIMALTF
 40
0.03937
  9
$DIMLFAC
 40
1
  9
$DIMTOFL
 70
    1
  9
$DIMTVP
 40
0
  9
$DIMTIX
 70
    0
  9
$DIMSOXD
 70
    0
  9
$DIMSAH
 70
    0
  9
$DIMBLK1
  1

  9
$DIMBLK2
  1

  9
$DIMSTYLE
  2
Standard
  9
$DIMCLRD
 70
    0
  9
$DIMCLRE
 70
    0
  9
$DIMCLRT
 70
    0
  9
$DIMTFAC
 40
1
  9
$DIMGAP
 40
0.625
  9
$DIMJUST
 70
    0
  9
$DIMSD1
 70
    0
  9
$DIMSD2
 70
    0
  9
$DIMTOLJ
 70
    0
  9
$DIMTZIN
 70
    8
  9
$DIMALTZ
 70
    0
  9
$DIMALTTZ
 70
    0
  9
$DIMUPT
 70
    0
  9
$DIMDEC
 70
    2
  9
$DIMTDEC
 70
    2
  9
$DIMALTU
 70
    2
  9
$DIMALTTD
 70
    3
  9
$DIMTXSTY
  7
STANDARD
  9
$DIMAUNIT
 70
    0
  9
$DIMADEC
 70
    0
  9
$DIMALTRND
 40
0
  9
$DIMAZIN
 70
    0
  9
$DIMDSEP
 70
   44
  9
$DIMATFIT
 70
    3
  9
$DIMFRAC
 70
    0
  9
$DIMLDRBLK
  1
STANDARD
  9
$DIMLUNIT
 70
    2
  9
$DIMLWD
 70
   -2
  9
$DIMLWE
 70
   -2
  9
$DIMTMOVE
 70
    0
  9
$DIMFXL
 40
1
  9
$DIMFXLON
 70
    0
  9
$DIMJOGANG
 40
0.7854
  9
$DIMTFILL
 70
    0
  9
$DIMTFILLCLR
 70
    0
  9
$DIMARCSYM
 70
    0
  9
$DIMLTYPE
  6

  9
$DIMLTEX1
  6

  9
$DIMLTEX2
  6

  9
$LUNITS
 70
    2
  9
$LUPREC
 70
    4
  9
$SKETCHINC
 40
1
  9
$FILLETRAD
 40
0
  9
$AUNITS
 70
    0
  9
$AUPREC
 70
    2
  9
$MENU
  1
.
  9
$ELEVATION
 40
0
  9
$PELEVATION
 40
0
  9
$THICKNESS
 40
0
  9
$LIMCHECK
 70
    0
  9
$CHAMFERA
 40
0
  9
$CHAMFERB
 40
0
  9
$CHAMFERC
 40
0
  9
$CHAMFERD
 40
0
  9
$SKPOLY
 70
    0
  9
$USRTIMER
 70
    1
  9
$ANGBASE
 50
0
  9
$ANGDIR
 70
    0
  9
$PDMODE
 70
   34
  9
$PDSIZE
 40
0
  9
$PLINEWID
 40
0
  9
$SPLFRAME
 70
    0
  9
$SPLINETYPE
 70
    2
  9
$SPLINESEGS
 70
    8
  9
$HANDSEED
  5
20000
  9
$SURFTAB1
 70
    6
  9
$SURFTAB2
 70
    6
  9
$SURFTYPE
 70
    6
  9
$SURFU
 70
    6
  9
$SURFV
 70
    6
  9
$UCSBASE
  2

  9
$UCSNAME
  2

  9
$UCSORG
 10
0
 20
0
 30
0
  9
$UCSXDIR
 10
1
 20
0
 30
0
  9
$UCSYDIR
 10
0
 20
1
 30
0
  9
$UCSORTHOREF
  2

  9
$UCSORTHOVIEW
 70
    0
  9
$UCSORGTOP
 10
0
 20
0
 30
0
  9
$UCSORGBOTTOM
 10
0
 20
0
 30
0
  9
$UCSORGLEFT
 10
0
 20
0
 30
0
  9
$UCSORGRIGHT
 10
0
 20
0
 30
0
  9
$UCSORGFRONT
 10
0
 20
0
 30
0
  9
$UCSORGBACK
 10
0
 20
0
 30
0
  9
$PUCSBASE
  2

  9
$PUCSNAME
  2

  9
$PUCSORG
 10
0
 20
0
 30
0
  9
$PUCSXDIR
 10
1
 20
0
 30
0
  9
$PUCSYDIR
 10
0
 20
1
 30
0
  9
$PUCSORTHOREF
  2

  9
$PUCSORTHOVIEW
 70
    0
  9
$PUCSORGTOP
 10
0
 20
0
 30
0
  9
$PUCSORGBOTTOM
 10
0
 20
0
 30
0
  9
$PUCSORGLEFT
 10
0
 20
0
 30
0
  9
$PUCSORGRIGHT
 10
0
 20
0
 30
0
  9
$PUCSORGFRONT
 10
0
 20
0
 30
0
  9
$PUCSORGBACK
 10
0
 20
0
 30
0
  9
$USERI1
 70
    0
  9
$USERI2
 70
    0
  9
$USERI3
 70
    0
  9
$USERI4
 70
    0
  9
$USERI5
 70
    0
  9
$USERR1
 40
0
  9
$USERR2
 40
0
  9
$USERR3
 40
0
  9
$USERR4
 40
0
  9
$USERR5
 40
0
  9
$WORLDVIEW
 70
    1
  9
$SHADEDGE
 70
    3
  9
$SHADEDIF
 70
   70
  9
$TILEMODE
 70
    1
  9
$MAXACTVP
 70
   64
  9
$PINSBASE
 10
0
 20
0
 30
0
  9
$PLIMCHECK
 70
    0
  9
$PEXTMIN
 10
0
 20
0
 30
0
  9
$PEXTMAX
 10
0
 20
0
 30
0
  9
$GRIDMODE
 70
    0
  9
$SNAPSTYLE
 70
    0
  9
$PLIMMIN
 10
0
 20
0
  9
$PLIMMAX
 10
210
 20
297
  9
$UNITMODE
 70
    0
  9
$VISRETAIN
 70
    1
  9
$PLINEGEN
 70
    0
  9
$PSLTSCALE
 70
    1
  9
$TREEDEPTH
 70
 3020
  9
$CMLSTYLE
  2
Standard
  9
$CMLJUST
 70
    0
  9
$CMLSCALE
 40
20
  9
$PROXYGRAPHICS
 70
    1
  9
$MEASUREMENT
 70
    1
  9
$CELWEIGHT
370
   -1
  9
$ENDCAPS
280
    0
  9
$JOINSTYLE
280
    0
  9
$LWDISPLAY
290
    0
  9
$INSUNITS
 70
    4
  9
$HYPERLINKBASE
  1

  9
$STYLESHEET
  1

  9
$XEDIT
290
    1
  9
$CEPSNTYPE
380
    0
  9
$PSTYLEMODE
290
    1
  9
$EXTNAMES
290
    1
  9
$PSVPSCALE
 40
1
  9
$OLESTARTUP
290
    0
  9
$SORTENTS
280
  127
  9
$INDEXCTL
280
    0
  9
$HIDETEXT
280
    1
  9
$XCLIPFRAME
290
    0
  9
$HALOGAP
280
    0
  9
$OBSCOLOR
 70
  257
  9
$OBSLTYPE
280
    0
  9
$INTERSECTIONDISPLAY
280
    0
  9
$INTERSECTIONCOLOR
 70
  257
  9
$DIMASSOC
280
    1
  9
$PROJECTNAME
  1

  9
$CAMERADISPLAY
290
    0
  9
$LENSLENGTH
 40
50
  9
$CAMERAHEIGHT
 40
0
  9
$STEPSPERSEC
 40
2
  9
$STEPSIZE
 40
50
  9
$3DDWFPREC
 40
2
  9
$PSOLWIDTH
 40
5
  9
$PSOLHEIGHT
 40
80
  9
$LOFTANG1
 40
1.570796326794897
  9
$LOFTANG2
 40
1.570796326794897
  9
$LOFTMAG1
 40
0
  9
$LOFTMAG2
 40
0
  9
$LOFTPARAM
 70
    7
  9
$LOFTNORMALS
280
    1
  9
$LATITUDE
 40
1
  9
$LONGITUDE
 40
1
  9
$NORTHDIRECTION
 40
0
  9
$TIMEZONE
 70
-8000
  9
$LIGHTGLYPHDISPLAY
280
    1
  9
$TILEMODELIGHTSYNCH
280
    1
  9
$SOLIDHIST
280
    1
  9
$SHOWHIST
280
    1
  9
$DWFFRAME
280
    2
  9
$DGNFRAME
280
    0
  9
$REALWORLDSCALE
290
    1
  9
$INTERFERECOLOR
 62
    1
  9
$CSHADOW
280
    0
  9
$SHADOWPLANELOCATION
 40
0
  0
ENDSEC
  0
SECTION
  2
CLASSES
  0
ENDSEC
  0
SECTION
  2
TABLES
  0
TABLE
  2
VPORT
  5
8
330
0
100
AcDbSymbolTable
 70
    1
  0
VPORT
  5
31
330
2
100
AcDbSymbolTableRecord
100
AcDbViewportTableRecord
  2
*ACTIVE
 70
    0
 10
0
 20
0
 11
1
 21
1
 12
16.5265113950479
 22
37.77488318868093
 13
0
 23
0
 14
10
 24
10
 15
10
 25
10
 16
0
 26
0
 36
1
 17
0
 27
0
 37
0
 40
160.0710675120354
 41
2.287610619469027
 42
50
 43
0
 44
0
 50
0
 51
0
 71
    0
 72
  100
 73
    1
 74
    3
 75
    0
 76
    0
 77
    0
 78
    0
281
    0
 65
    1
110
0
120
0
130
0
111
1
121
0
131
0
112
0
122
1
132
0
 79
    0
146
0
348
10020
 60
    7
 61
    5
292
1
282
    1
141
0
142
0
 63
  250
421
3358443
  0
ENDTAB
  0
TABLE
  2
LTYPE
  5
5
330
0
100
AcDbSymbolTable
 70
    4
  0
LTYPE
  5
14
330
5
100
AcDbSymbolTableRecord
100
AcDbLinetypeTableRecord
  2
ByBlock
 70
    0
  3

 72
   65
 73
    0
 40
0
  0
LTYPE
  5
15
330
5
100
AcDbSymbolTableRecord
100
AcDbLinetypeTableRecord
  2
ByLayer
 70
    0
  3

 72
   65
 73
    0
 40
0
  0
LTYPE
  5
16
330
5
100
AcDbSymbolTableRecord
100
AcDbLinetypeTableRecord
  2
Continuous
 70
    0
  3
Solid line
 72
   65
 73
    0
 40
0
  0
LTYPE
  5
32
330
5
100
AcDbSymbolTableRecord
100
AcDbLinetypeTableRecord
  2
DOT
 70
    0
  3
Dot . . . . . . . . . . . . . . . . . . . . . .
 72
   65
 73
    2
 40
6.35
 49
0
 74
    0
 49
-6.35
 74
    0
  0
LTYPE
  5
33
330
5
100
AcDbSymbolTableRecord
100
AcDbLinetypeTableRecord
  2
DOTTINY
 70
    0
  3
Dot (.15x) .....................................
 72
   65
 73
    2
 40
0.9525
 49
0
 74
    0
 49
-0.9525
 74
    0
  0
LTYPE
  5
34
330
5
100
AcDbSymbolTableRecord
100
AcDbLinetypeTableRecord
  2
DOT2
 70
    0
  3
Dot (.5x) .....................................
 72
   65
 73
    2
 40
3.175
 49
0
 74
    0
 49
-3.175
 74
    0
  0
LTYPE
  5
35
330
5
100
AcDbSymbolTableRecord
100
AcDbLinetypeTableRecord
  2
DOTX2
 70
    0
  3
Dot (2x) .  .  .  .  .  .  .  .  .  .  .  .  .
 72
   65
 73
    2
 40
12.7
 49
0
 74
    0
 49
-12.7
 74
    0
  0
LTYPE
  5
36
330
5
100
AcDbSymbolTableRecord
100
AcDbLinetypeTableRecord
  2
DASHED
 70
    0
  3
Dashed _ _ _ _ _ _ _ _ _ _ _ _ _ _ _ _ _
 72
   65
 73
    2
 40
19.05
 49
12.7
 74
    0
 49
-6.35
 74
    0
  0
LTYPE
  5
37
330
5
100
AcDbSymbolTableRecord
100
AcDbLinetypeTableRecord
  2
DASHEDTINY
 70
    0
  3
Dashed (.15x) _ _ _ _ _ _ _ _ _ _ _ _ _ _ _ _ _
 72
   65
 73
    2
 40
2.8575
 49
1.905
 74
    0
 49
-0.9525
 74
    0
  0
LTYPE
  5
38
330
5
100
AcDbSymbolTableRecord
100
AcDbLinetypeTableRecord
  2
DASHED2
 70
    0
  3
Dashed (.5x) _ _ _ _ _ _ _ _ _ _ _ _ _ _ _ _ _
 72
   65
 73
    2
 40
9.524999999999999
 49
6.35
 74
    0
 49
-3.175
 74
    0
  0
LTYPE
  5
39
330
5
100
AcDbSymbolTableRecord
100
AcDbLinetypeTableRecord
  2
DASHEDX2
 70
    0
  3
Dashed (2x) ____  ____  ____  ____  ____  ___
 72
   65
 73
    2
 40
38.09999999999999
 49
25.4
 74
    0
 49
-12.7
 74
    0
  0
LTYPE
  5
3A
330
5
100
AcDbSymbolTableRecord
100
AcDbLinetypeTableRecord
  2
DASHDOT
 70
    0
  3
Dash dot __ . __ . __ . __ . __ . __ . __ . __
 72
   65
 73
    4
 40
25.4
 49
12.7
 74
    0
 49
-6.35
 74
    0
 49
0
 74
    0
 49
-6.35
 74
    0
  0
LTYPE
  5
3B
330
5
100
AcDbSymbolTableRecord
100
AcDbLinetypeTableRecord
  2
DASHDOTTINY
 70
    0
  3
Dash dot (.15x) _._._._._._._._._._._._._._._.
 72
   65
 73
    4
 40
3.81
 49
1.905
 74
    0
 49
-0.9525
 74
    0
 49
0
 74
    0
 49
-0.9525
 74
    0
  0
LTYPE
  5
3C
330
5
100
AcDbSymbolTableRecord
100
AcDbLinetypeTableRecord
  2
DASHDOT2
 70
    0
  3
Dash dot (.5x) _._._._._._._._._._._._._._._.
 72
   65
 73
    4
 40
12.7
 49
6.35
 74
    0
 49
-3.175
 74
    0
 49
0
 74
    0
 49
-3.175
 74
    0
  0
LTYPE
  5
3D
330
5
100
AcDbSymbolTableRecord
100
AcDbLinetypeTableRecord
  2
DASHDOTX2
 70
    0
  3
Dash dot (2x) ____  .  ____  .  ____  .  ___
 72
   65
 73
    4
 40
50.8
 49
25.4
 74
    0
 49
-12.7
 74
    0
 49
0
 74
    0
 49
-12.7
 74
    0
  0
LTYPE
  5
3E
330
5
100
AcDbSymbolTableRecord
100
AcDbLinetypeTableRecord
  2
DIVIDE
 70
    0
  3
Divide ____ . . ____ . . ____ . . ____ . . ____
 72
   65
 73
    6
 40
31.75
 49
12.7
 74
    0
 49
-6.35
 74
    0
 49
0
 74
    0
 49
-6.35
 74
    0
 49
0
 74
    0
 49
-6.35
 74
    0
  0
LTYPE
  5
3F
330
5
100
AcDbSymbolTableRecord
100
AcDbLinetypeTableRecord
  2
DIVIDETINY
 70
    0
  3
Divide (.15x) __..__..__..__..__..__..__..__.._
 72
   65
 73
    6
 40
4.7625
 49
1.905
 74
    0
 49
-0.9525
 74
    0
 49
0
 74
    0
 49
-0.9525
 74
    0
 49
0
 74
    0
 49
-0.9525
 74
    0
  0
LTYPE
  5
40
330
5
100
AcDbSymbolTableRecord
100
AcDbLinetypeTableRecord
  2
DIVIDE2
 70
    0
  3
Divide (.5x) __..__..__..__..__..__..__..__.._
 72
   65
 73
    6
 40
15.875
 49
6.35
 74
    0
 49
-3.175
 74
    0
 49
0
 74
    0
 49
-3.175
 74
    0
 49
0
 74
    0
 49
-3.175
 74
    0
  0
LTYPE
  5
41
330
5
100
AcDbSymbolTableRecord
100
AcDbLinetypeTableRecord
  2
DIVIDEX2
 70
    0
  3
Divide (2x) ________  .  .  ________  .  .  _
 72
   65
 73
    6
 40
63.5
 49
25.4
 74
    0
 49
-12.7
 74
    0
 49
0
 74
    0
 49
-12.7
 74
    0
 49
0
 74
    0
 49
-12.7
 74
    0
  0
LTYPE
  5
42
330
5
100
AcDbSymbolTableRecord
100
AcDbLinetypeTableRecord
  2
BORDER
 70
    0
  3
Border __ __ . __ __ . __ __ . __ __ . __ __ .
 72
   65
 73
    6
 40
44.45
 49
12.7
 74
    0
 49
-6.35
 74
    0
 49
12.7
 74
    0
 49
-6.35
 74
    0
 49
0
 74
    0
 49
-6.35
 74
    0
  0
LTYPE
  5
43
330
5
100
AcDbSymbolTableRecord
100
AcDbLinetypeTableRecord
  2
BORDERTINY
 70
    0
  3
Border (.15x) __.__.__.__.__.__.__.__.__.__.__.
 72
   65
 73
    6
 40
6.6675
 49
1.905
 74
    0
 49
-0.9525
 74
    0
 49
1.905
 74
    0
 49
-0.9525
 74
    0
 49
0
 74
    0
 49
-0.9525
 74
    0
  0
LTYPE
  5
44
330
5
100
AcDbSymbolTableRecord
100
AcDbLinetypeTableRecord
  2
BORDER2
 70
    0
  3
Border (.5x) __.__.__.__.__.__.__.__.__.__.__.
 72
   65
 73
    6
 40
22.225
 49
6.35
 74
    0
 49
-3.175
 74
    0
 49
6.35
 74
    0
 49
-3.175
 74
    0
 49
0
 74
    0
 49
-3.175
 74
    0
  0
LTYPE
  5
45
330
5
100
AcDbSymbolTableRecord
100
AcDbLinetypeTableRecord
  2
BORDERX2
 70
    0
  3
Border (2x) ____  ____  .  ____  ____  .  ___
 72
   65
 73
    6
 40
88.89999999999999
 49
25.4
 74
    0
 49
-12.7
 74
    0
 49
25.4
 74
    0
 49
-12.7
 74
    0
 49
0
 74
    0
 49
-12.7
 74
    0
  0
LTYPE
  5
46
330
5
100
AcDbSymbolTableRecord
100
AcDbLinetypeTableRecord
  2
CENTER
 70
    0
  3
Center ____ _ ____ _ ____ _ ____ _ ____ _ ____
 72
   65
 73
    4
 40
50.8
 49
31.75
 74
    0
 49
-6.35
 74
    0
 49
6.35
 74
    0
 49
-6.35
 74
    0
  0
LTYPE
  5
47
330
5
100
AcDbSymbolTableRecord
100
AcDbLinetypeTableRecord
  2
CENTERTINY
 70
    0
  3
Center (.15x) ___ _ ___ _ ___ _ ___ _ ___ _ ___
 72
   65
 73
    4
 40
7.619999999999999
 49
4.7625
 74
    0
 49
-0.9525
 74
    0
 49
0.9525
 74
    0
 49
-0.9525
 74
    0
  0
LTYPE
  5
48
330
5
100
AcDbSymbolTableRecord
100
AcDbLinetypeTableRecord
  2
CENTER2
 70
    0
  3
Center (.5x) ___ _ ___ _ ___ _ ___ _ ___ _ ___
 72
   65
 73
    4
 40
28.575
 49
19.05
 74
    0
 49
-3.175
 74
    0
 49
3.175
 74
    0
 49
-3.175
 74
    0
  0
LTYPE
  5
49
330
5
100
AcDbSymbolTableRecord
100
AcDbLinetypeTableRecord
  2
CENTERX2
 70
    0
  3
Center (2x) ________  __  ________  __  _____
 72
   65
 73
    4
 40
101.6
 49
63.5
 74
    0
 49
-12.7
 74
    0
 49
12.7
 74
    0
 49
-12.7
 74
    0
  0
ENDTAB
  0
TABLE
  2
LAYER
  5
2
330
0
100
AcDbSymbolTable
 70
    1
  0
LAYER
  5
10
330
2
100
AcDbSymbolTableRecord
100
AcDbLayerTableRecord
  2
0
 70
    0
 62
    7
  6
CONTINUOUS
370
   -3
390
F
  0
LAYER
  5
4A
330
2
100
AcDbSymbolTableRecord
100
AcDbLayerTableRecord
  2
shape
 70
    0
 62
    7
  6
CONTINUOUS
370
   -3
390
F
  0
ENDTAB
  0
TABLE
  2
STYLE
  5
3
330
0
100
AcDbSymbolTable
 70
    3
  0
STYLE
  5
4B
330
2
100
AcDbSymbolTableRecord
100
AcDbTextStyleTableRecord
  2
Standard
 70
    0
 40
0
 41
1
 50
0
 71
    0
 42
1
  3
txt
  4

  0
ENDTAB
  0
TABLE
  2
VIEW
  5
6
330
0
100
AcDbSymbolTable
 70
    0
  0
ENDTAB
  0
TABLE
  2
UCS
  5
7
330
0
100
AcDbSymbolTable
 70
    0
  0
ENDTAB
  0
TABLE
  2
APPID
  5
9
330
0
100
AcDbSymbolTable
 70
    1
  0
APPID
  5
12
330
9
100
AcDbSymbolTableRecord
100
AcDbRegAppTableRecord
  2
ACAD
 70
    0
  0
APPID
  5
4C
330
9
100
AcDbSymbolTableRecord
100
AcDbRegAppTableRecord
  2
LibreCad
 70
    0
  0
ENDTAB
  0
TABLE
  2
DIMSTYLE
  5
A
330
0
100
AcDbSymbolTable
 70
    1
100
AcDbDimStyleTable
 71
    1
  0
DIMSTYLE
105
4D
330
A
100
AcDbSymbolTableRecord
100
AcDbDimStyleTableRecord
  2
Standard
 70
    0
 40
1
 41
2.5
 42
0.625
 43
0.38
 44
1.25
 45
0
 46
0
 47
0
 48
0
 49
1
140
2.5
141
0.09
142
2.5
143
25.4
144
1
145
0
146
1
147
0.625
148
0
 71
    0
 72
    0
 73
    0
 74
    1
 75
    0
 76
    0
 77
    0
 78
    1
 79
    0
170
    0
171
    2
172
    0
173
    0
174
    0
175
    0
176
    0
177
    0
178
    0
179
    0
271
    2
272
    4
273
    2
274
    2
275
    0
276
    0
277
    2
278
    0
279
    0
280
    0
281
    0
282
    0
283
    1
284
    0
285
    0
286
    0
288
    0
289
    3
340
standard
341

371
   -2
372
   -2
  0
ENDTAB
  0
TABLE
  2
BLOCK_RECORD
  5
1
330
0
100
AcDbSymbolTable
 70
    2
  0
BLOCK_RECORD
  5
1F
330
1
100
AcDbSymbolTableRecord
100
AcDbBlockTableRecord
  2
*Model_Space
 70
    0
280
    1
281
    0
  0
BLOCK_RECORD
  5
1E
330
1
100
AcDbSymbolTableRecord
100
AcDbBlockTableRecord
  2
*Paper_Space
 70
    0
280
    1
281
    0
  0
ENDTAB
  0
ENDSEC
  0
SECTION
  2
BLOCKS
  0
BLOCK
  5
20
330
1F
100
AcDbEntity
  8
0
100
AcDbBlockBegin
  2
*Model_Space
 70
    0
 10
0
 20
0
 30
0
  3
*Model_Space
  1

  0
ENDBLK
  5
21
330
1F
100
AcDbEntity
  8
0
100
AcDbBlockEnd
  0
BLOCK
  5
1C
330
1B
100
AcDbEntity
  8
0
100
AcDbBlockBegin
  2
*Paper_Space
 70
    0
 10
0
 20
0
 30
0
  3
*Paper_Space
  1

  0
ENDBLK
  5
1D
330
1F
100
AcDbEntity
  8
0
100
AcDbBlockEnd
  0
ENDSEC
  0
SECTION
  2
ENTITIES
  0
LINE
  5
4E
100
AcDbEntity
  8
shape
  6
ByLayer
 62
    0
370
   -1
100
AcDbLine
 10
30.97795377083333
 20
67.21459918749997
 11
30.97743783333333
 21
67.21408324999996
  0
LINE
  5
4F
100
AcDbEntity
  8
shape
  6
ByLayer
 62
    0
370
   -1
100
AcDbLine
 10
30.97743783333333
 20
67.21408324999996
 11
30.11857387499999
 21
67.20529908333332
  0
LINE
  5
50
100
AcDbEntity
  8
shape
  6
ByLayer
 62
    0
370
   -1
100
AcDbLine
 10
30.11857387499999
 20
67.20529908333332
 11
27.06640220611978
 21
67.06610497493486
  0
LINE
  5
51
100
AcDbEntity
  8
shape
  6
ByLayer
 62
    0
370
   -1
100
AcDbLine
 10
27.06640220611978
 20
67.06610497493486
 11
24.40883828958333
 21
66.7700234505208
  0
LINE
  5
52
100
AcDbEntity
  8
shape
  6
ByLayer
 62
    0
370
   -1
100
AcDbLine
 10
24.40883828958333
 20
66.7700234505208
 11
22.09544298398437
 21
66.30865688313799
  0
LINE
  5
53
100
AcDbEntity
  8
shape
  6
ByLayer
 62
    0
370
   -1
100
AcDbLine
 10
22.09544298398437
 20
66.30865688313799
 11
20.07577714791666
 21
65.6736076458333
  0
LINE
  5
54
100
AcDbEntity
  8
shape
  6
ByLayer
 62
    0
370
   -1
100
AcDbLine
 10
20.07577714791666
 20
65.6736076458333
 11
16.54162591041666
 21
64.64317991666664
  0
LINE
  5
55
100
AcDbEntity
  8
shape
  6
ByLayer
 62
    0
370
   -1
100
AcDbLine
 10
16.54162591041666
 20
64.64317991666664
 11
13.94112268046875
 21
64.33169257291664
  0
LINE
  5
56
100
AcDbEntity
  8
shape
  6
ByLayer
 62
    0
370
   -1
100
AcDbLine
 10
13.94112268046875
 20
64.33169257291664
 11
11.87472727708333
 21
64.42458910416664
  0
LINE
  5
57
100
AcDbEntity
  8
shape
  6
ByLayer
 62
    0
370
   -1
100
AcDbLine
 10
11.87472727708333
 20
64.42458910416664
 11
10.41860130260416
 21
64.74228423437498
  0
LINE
  5
58
100
AcDbEntity
  8
shape
  6
ByLayer
 62
    0
370
   -1
100
AcDbLine
 10
10.41860130260416
 20
64.74228423437498
 11
8.546248306249998
 21
65.4446822083333
  0
LINE
  5
59
100
AcDbEntity
  8
shape
  6
ByLayer
 62
    0
370
   -1
100
AcDbLine
 10
8.546248306249998
 20
65.4446822083333
 11
6.469763513541665
 21
66.21069428385414
  0
LINE
  5
5A
100
AcDbEntity
  8
shape
  6
ByLayer
 62
    0
370
   -1
100
AcDbLine
 10
6.469763513541665
 20
66.21069428385414
 11
4.790405339583332
 21
66.58983062499998
  0
LINE
  5
5B
100
AcDbEntity
  8
shape
  6
ByLayer
 62
    0
370
   -1
100
AcDbLine
 10
4.790405339583332
 20
66.58983062499998
 11
3.167070110078124
 21
66.70280572395831
  0
LINE
  5
5C
100
AcDbEntity
  8
shape
  6
ByLayer
 62
    0
370
   -1
100
AcDbLine
 10
3.167070110078124
 20
66.70280572395831
 11
1.747180169166666
 21
66.63788954166664
  0
LINE
  5
5D
100
AcDbEntity
  8
shape
  6
ByLayer
 62
    0
370
   -1
100
AcDbLine
 10
1.747180169166666
 20
66.63788954166664
 11
1.240234375
 21
66.54590714583331
  0
LINE
  5
5E
100
AcDbEntity
  8
shape
  6
ByLayer
 62
    0
370
   -1
100
AcDbLine
 10
1.240234375
 20
66.54590714583331
 11
2.148706067916666
 21
65.29947093749996
  0
LINE
  5
5F
100
AcDbEntity
  8
shape
  6
ByLayer
 62
    0
370
   -1
100
AcDbLine
 10
2.148706067916666
 20
65.29947093749996
 11
4.023337268984374
 21
62.54752360579424
  0
LINE
  5
60
100
AcDbEntity
  8
shape
  6
ByLayer
 62
    0
370
   -1
100
AcDbLine
 10
4.023337268984374
 20
62.54752360579424
 11
5.765576387395832
 21
59.67047209635414
  0
LINE
  5
61
100
AcDbEntity
  8
shape
  6
ByLayer
 62
    0
370
   -1
100
AcDbLine
 10
5.765576387395832
 20
59.67047209635414
 11
7.17797223690104
 21
57.01725163769528
  0
LINE
  5
62
100
AcDbEntity
  8
shape
  6
ByLayer
 62
    0
370
   -1
100
AcDbLine
 10
7.17797223690104
 20
57.01725163769528
 11
8.063073631249999
 21
54.9367974583333
  0
LINE
  5
63
100
AcDbEntity
  8
shape
  6
ByLayer
 62
    0
370
   -1
100
AcDbLine
 10
8.063073631249999
 20
54.9367974583333
 11
8.542000916927082
 21
53.14826704166664
  0
LINE
  5
64
100
AcDbEntity
  8
shape
  6
ByLayer
 62
    0
370
   -1
100
AcDbLine
 10
8.542000916927082
 20
53.14826704166664
 11
8.801013216666664
 21
51.35975249999997
  0
LINE
  5
65
100
AcDbEntity
  8
shape
  6
ByLayer
 62
    0
370
   -1
100
AcDbLine
 10
8.801013216666664
 20
51.35975249999997
 11
7.881172589583332
 21
51.35975249999997
  0
LINE
  5
66
100
AcDbEntity
  8
shape
  6
ByLayer
 62
    0
370
   -1
100
AcDbLine
 10
7.881172589583332
 20
51.35975249999997
 11
7.881172589583332
 21
47.61011189583331
  0
LINE
  5
67
100
AcDbEntity
  8
shape
  6
ByLayer
 62
    0
370
   -1
100
AcDbLine
 10
7.881172589583332
 20
47.61011189583331
 11
8.636165364583333
 21
47.61011189583331
  0
LINE
  5
68
100
AcDbEntity
  8
shape
  6
ByLayer
 62
    0
370
   -1
100
AcDbLine
 10
8.636165364583333
 20
47.61011189583331
 11
8.290999956608072
 21
45.97454607519529
  0
LINE
  5
69
100
AcDbEntity
  8
shape
  6
ByLayer
 62
    0
370
   -1
100
AcDbLine
 10
8.290999956608072
 20
45.97454607519529
 11
7.745646953906248
 21
44.21557817447915
  0
LINE
  5
6A
100
AcDbEntity
  8
shape
  6
ByLayer
 62
    0
370
   -1
100
AcDbLine
 10
7.745646953906248
 20
44.21557817447915
 11
5.862174479166666
 21
39.73514087499998
  0
LINE
  5
6B
100
AcDbEntity
  8
shape
  6
ByLayer
 62
    0
370
   -1
100
AcDbLine
 10
5.862174479166666
 20
39.73514087499998
 11
3.479823359401041
 21
34.33613738020832
  0
LINE
  5
6C
100
AcDbEntity
  8
shape
  6
ByLayer
 62
    0
370
   -1
100
AcDbLine
 10
3.479823359401041
 20
34.33613738020832
 11
1.900659192916666
 21
30.33726522916666
  0
LINE
  5
6D
100
AcDbEntity
  8
shape
  6
ByLayer
 62
    0
370
   -1
100
AcDbLine
 10
1.900659192916666
 20
30.33726522916666
 11
1.414351410605061
 21
28.49012450887043
  0
LINE
  5
6E
100
AcDbEntity
  8
shape
  6
ByLayer
 62
    0
370
   -1
100
AcDbLine
 10
1.414351410605061
 20
28.49012450887043
 11
1.158929345830078
 21
26.62090036132811
  0
LINE
  5
6F
100
AcDbEntity
  8
shape
  6
ByLayer
 62
    0
370
   -1
100
AcDbLine
 10
1.158929345830078
 20
26.62090036132811
 11
1.132227683628336
 21
24.74196778312173
  0
LINE
  5
70
100
AcDbEntity
  8
shape
  6
ByLayer
 62
    0
370
   -1
100
AcDbLine
 10
1.132227683628336
 20
24.74196778312173
 11
1.332081109036458
 21
22.86570177083332
  0
LINE
  5
71
100
AcDbEntity
  8
shape
  6
ByLayer
 62
    0
370
   -1
100
AcDbLine
 10
1.332081109036458
 20
22.86570177083332
 11
1.756324307091064
 21
21.00447732104491
  0
LINE
  5
72
100
AcDbEntity
  8
shape
  6
ByLayer
 62
    0
370
   -1
100
AcDbLine
 10
1.756324307091064
 20
21.00447732104491
 11
2.402791962828775
 21
19.17066943033853
  0
LINE
  5
73
100
AcDbEntity
  8
shape
  6
ByLayer
 62
    0
370
   -1
100
AcDbLine
 10
2.402791962828775
 20
19.17066943033853
 11
3.269318761286214
 21
17.37665309529622
  0
LINE
  5
74
100
AcDbEntity
  8
shape
  6
ByLayer
 62
    0
370
   -1
100
AcDbLine
 10
3.269318761286214
 20
17.37665309529622
 11
4.353739387499999
 21
15.6348033125
  0
LINE
  5
75
100
AcDbEntity
  8
shape
  6
ByLayer
 62
    0
370
   -1
100
AcDbLine
 10
4.353739387499999
 20
15.6348033125
 11
5.897986436914062
 21
13.68846597005207
  0
LINE
  5
76
100
AcDbEntity
  8
shape
  6
ByLayer
 62
    0
370
   -1
100
AcDbLine
 10
5.897986436914062
 20
13.68846597005207
 11
7.624548981249998
 21
12.04019861979165
  0
LINE
  5
77
100
AcDbEntity
  8
shape
  6
ByLayer
 62
    0
370
   -1
100
AcDbLine
 10
7.624548981249998
 20
12.04019861979165
 11
9.582517828710936
 21
10.64940491796874
  0
LINE
  5
78
100
AcDbEntity
  8
shape
  6
ByLayer
 62
    0
370
   -1
100
AcDbLine
 10
9.582517828710936
 20
10.64940491796874
 11
11.8209837875
 21
9.475488520833323
  0
LINE
  5
79
100
AcDbEntity
  8
shape
  6
ByLayer
 62
    0
370
   -1
100
AcDbLine
 10
11.8209837875
 20
9.475488520833323
 11
12.43283274583333
 21
9.198504166666652
  0
LINE
  5
7A
100
AcDbEntity
  8
shape
  6
ByLayer
 62
    0
370
   -1
100
AcDbLine
 10
12.43283274583333
 20
9.198504166666652
 11
12.60439863333333
 21
9.119954666666644
  0
LINE
  5
7B
100
AcDbEntity
  8
shape
  6
ByLayer
 62
    0
370
   -1
100
AcDbLine
 10
12.60439863333333
 20
9.119954666666644
 11
12.56150702916666
 21
9.030038666666655
  0
LINE
  5
7C
100
AcDbEntity
  8
shape
  6
ByLayer
 62
    0
370
   -1
100
AcDbLine
 10
12.56150702916666
 20
9.030038666666655
 11
12.28607181041666
 21
8.543245020833297
  0
LINE
  5
7D
100
AcDbEntity
  8
shape
  6
ByLayer
 62
    0
370
   -1
100
AcDbLine
 10
12.28607181041666
 20
8.543245020833297
 11
11.65363125729166
 21
7.123836135416642
  0
LINE
  5
7E
100
AcDbEntity
  8
shape
  6
ByLayer
 62
    0
370
   -1
100
AcDbLine
 10
11.65363125729166
 20
7.123836135416642
 11
11.54244791666666
 21
5.53929549999998
  0
LINE
  5
7F
100
AcDbEntity
  8
shape
  6
ByLayer
 62
    0
370
   -1
100
AcDbLine
 10
11.54244791666666
 20
5.53929549999998
 11
11.81578006171875
 21
3.989418257812488
  0
LINE
  5
80
100
AcDbEntity
  8
shape
  6
ByLayer
 62
    0
370
   -1
100
AcDbLine
 10
11.81578006171875
 20
3.989418257812488
 11
12.61628424583333
 21
2.578234937499985
  0
LINE
  5
81
100
AcDbEntity
  8
shape
  6
ByLayer
 62
    0
370
   -1
100
AcDbLine
 10
12.61628424583333
 20
2.578234937499985
 11
13.13684242554931
 21
2.004633773763004
  0
LINE
  5
82
100
AcDbEntity
  8
shape
  6
ByLayer
 62
    0
370
   -1
100
AcDbLine
 10
13.13684242554931
 20
2.004633773763004
 11
13.74713436832682
 21
1.564146717447898
  0
LINE
  5
83
100
AcDbEntity
  8
shape
  6
ByLayer
 62
    0
370
   -1
100
AcDbLine
 10
13.74713436832682
 20
1.564146717447898
 11
15.18023032734375
 21
1.087989817708312
  0
LINE
  5
84
100
AcDbEntity
  8
shape
  6
ByLayer
 62
    0
370
   -1
100
AcDbLine
 10
15.18023032734375
 20
1.087989817708312
 11
16.8021936914388
 21
1.16071401953123
  0
LINE
  5
85
100
AcDbEntity
  8
shape
  6
ByLayer
 62
    0
370
   -1
100
AcDbLine
 10
16.8021936914388
 20
1.16071401953123
 11
18.49964602916666
 21
1.793269104166654
  0
LINE
  5
86
100
AcDbEntity
  8
shape
  6
ByLayer
 62
    0
370
   -1
100
AcDbLine
 10
18.49964602916666
 20
1.793269104166654
 11
19.30417985052083
 21
2.1369770755208
  0
LINE
  5
87
100
AcDbEntity
  8
shape
  6
ByLayer
 62
    0
370
   -1
100
AcDbLine
 10
19.30417985052083
 20
2.1369770755208
 11
19.99257812499999
 21
2.225286062499976
  0
LINE
  5
88
100
AcDbEntity
  8
shape
  6
ByLayer
 62
    0
370
   -1
100
AcDbLine
 10
19.99257812499999
 20
2.225286062499976
 11
20.62812270364583
 21
2.065573640624983
  0
LINE
  5
89
100
AcDbEntity
  8
shape
  6
ByLayer
 62
    0
370
   -1
100
AcDbLine
 10
20.62812270364583
 20
2.065573640624983
 11
21.27828776041666
 21
1.645475499999975
  0
LINE
  5
8A
100
AcDbEntity
  8
shape
  6
ByLayer
 62
    0
370
   -1
100
AcDbLine
 10
21.27828776041666
 20
1.645475499999975
 11
22.166332746875
 21
1.089937481770818
  0
LINE
  5
8B
100
AcDbEntity
  8
shape
  6
ByLayer
 62
    0
370
   -1
100
AcDbLine
 10
22.166332746875
 20
1.089937481770818
 11
23.20943600208333
 21
0.7204683541666554
  0
LINE
  5
8C
100
AcDbEntity
  8
shape
  6
ByLayer
 62
    0
370
   -1
100
AcDbLine
 10
23.20943600208333
 20
0.7204683541666554
 11
24.03637560413411
 21
0.6095327379557149
  0
LINE
  5
8D
100
AcDbEntity
  8
shape
  6
ByLayer
 62
    0
370
   -1
100
AcDbLine
 10
24.03637560413411
 20
0.6095327379557149
 11
24.90171090286458
 21
0.6468748307291534
  0
LINE
  5
8E
100
AcDbEntity
  8
shape
  6
ByLayer
 62
    0
370
   -1
100
AcDbLine
 10
24.90171090286458
 20
0.6468748307291534
 11
25.75044477151692
 21
0.8255287320963438
  0
LINE
  5
8F
100
AcDbEntity
  8
shape
  6
ByLayer
 62
    0
370
   -1
100
AcDbLine
 10
25.75044477151692
 20
0.8255287320963438
 11
26.52758008333333
 21
1.138528541666659
  0
LINE
  5
90
100
AcDbEntity
  8
shape
  6
ByLayer
 62
    0
370
   -1
100
AcDbLine
 10
26.52758008333333
 20
1.138528541666659
 11
27.7798420859375
 21
2.137151369791649
  0
LINE
  5
91
100
AcDbEntity
  8
shape
  6
ByLayer
 62
    0
370
   -1
100
AcDbLine
 10
27.7798420859375
 20
2.137151369791649
 11
28.70729166666666
 21
3.553885979166665
  0
LINE
  5
92
100
AcDbEntity
  8
shape
  6
ByLayer
 62
    0
370
   -1
100
AcDbLine
 10
28.70729166666666
 20
3.553885979166665
 11
29.0592361171875
 21
4.866130015624986
  0
LINE
  5
93
100
AcDbEntity
  8
shape
  6
ByLayer
 62
    0
370
   -1
100
AcDbLine
 10
29.0592361171875
 20
4.866130015624986
 11
29.23077508333333
 21
6.30979127083333
  0
LINE
  5
94
100
AcDbEntity
  8
shape
  6
ByLayer
 62
    0
370
   -1
100
AcDbLine
 10
29.23077508333333
 20
6.30979127083333
 11
29.23232554166666
 21
6.629667229166643
  0
LINE
  5
95
100
AcDbEntity
  8
shape
  6
ByLayer
 62
    0
370
   -1
100
AcDbLine
 10
29.23232554166666
 20
6.629667229166643
 11
29.68397722916666
 21
6.588326083333328
  0
LINE
  5
96
100
AcDbEntity
  8
shape
  6
ByLayer
 62
    0
370
   -1
100
AcDbLine
 10
29.68397722916666
 20
6.588326083333328
 11
32.96542968749999
 21
6.532514874999976
  0
LINE
  5
97
100
AcDbEntity
  8
shape
  6
ByLayer
 62
    0
370
   -1
100
AcDbLine
 10
32.96542968749999
 20
6.532514874999976
 11
35.51669564583333
 21
6.531998937499992
  0
LINE
  5
98
100
AcDbEntity
  8
shape
  6
ByLayer
 62
    0
370
   -1
100
AcDbLine
 10
35.51669564583333
 20
6.531998937499992
 11
35.5797405625
 21
5.642647041666663
  0
LINE
  5
99
100
AcDbEntity
  8
shape
  6
ByLayer
 62
    0
370
   -1
100
AcDbLine
 10
35.5797405625
 20
5.642647041666663
 11
35.77655186718749
 21
4.369163512695305
  0
LINE
  5
9A
100
AcDbEntity
  8
shape
  6
ByLayer
 62
    0
370
   -1
100
AcDbLine
 10
35.77655186718749
 20
4.369163512695305
 11
36.175059015625
 21
3.255446231770819
  0
LINE
  5
9B
100
AcDbEntity
  8
shape
  6
ByLayer
 62
    0
370
   -1
100
AcDbLine
 10
36.175059015625
 20
3.255446231770819
 11
36.774455359375
 21
2.306064470377581
  0
LINE
  5
9C
100
AcDbEntity
  8
shape
  6
ByLayer
 62
    0
370
   -1
100
AcDbLine
 10
36.774455359375
 20
2.306064470377581
 11
37.57393424999999
 21
1.525587499999972
  0
LINE
  5
9D
100
AcDbEntity
  8
shape
  6
ByLayer
 62
    0
370
   -1
100
AcDbLine
 10
37.57393424999999
 20
1.525587499999972
 11
38.78379115104166
 21
0.8562409453124857
  0
LINE
  5
9E
100
AcDbEntity
  8
shape
  6
ByLayer
 62
    0
370
   -1
100
AcDbLine
 10
38.78379115104166
 20
0.8562409453124857
 11
40.25904233333333
 21
0.6129813749999755
  0
LINE
  5
9F
100
AcDbEntity
  8
shape
  6
ByLayer
 62
    0
370
   -1
100
AcDbLine
 10
40.25904233333333
 20
0.6129813749999755
 11
41.88209439583333
 21
0.7704395468749752
  0
LINE
  5
A0
100
AcDbEntity
  8
shape
  6
ByLayer
 62
    0
370
   -1
100
AcDbLine
 10
41.88209439583333
 20
0.7704395468749752
 11
43.31570214583332
 21
1.527135312499979
  0
LINE
  5
A1
100
AcDbEntity
  8
shape
  6
ByLayer
 62
    0
370
   -1
100
AcDbLine
 10
43.31570214583332
 20
1.527135312499979
 11
44.10486823958333
 21
2.011543739583328
  0
LINE
  5
A2
100
AcDbEntity
  8
shape
  6
ByLayer
 62
    0
370
   -1
100
AcDbLine
 10
44.10486823958333
 20
2.011543739583328
 11
44.77452733333332
 21
2.190144104166649
  0
LINE
  5
A3
100
AcDbEntity
  8
shape
  6
ByLayer
 62
    0
370
   -1
100
AcDbLine
 10
44.77452733333332
 20
2.190144104166649
 11
45.47744025260415
 21
2.083610617187478
  0
LINE
  5
A4
100
AcDbEntity
  8
shape
  6
ByLayer
 62
    0
370
   -1
100
AcDbLine
 10
45.47744025260415
 20
2.083610617187478
 11
46.36564418749999
 21
1.686816645833318
  0
LINE
  5
A5
100
AcDbEntity
  8
shape
  6
ByLayer
 62
    0
370
   -1
100
AcDbLine
 10
46.36564418749999
 20
1.686816645833318
 11
47.73498762239582
 21
1.162185929687489
  0
LINE
  5
A6
100
AcDbEntity
  8
shape
  6
ByLayer
 62
    0
370
   -1
100
AcDbLine
 10
47.73498762239582
 20
1.162185929687489
 11
49.16702341666666
 21
1.03879385416667
  0
LINE
  5
A7
100
AcDbEntity
  8
shape
  6
ByLayer
 62
    0
370
   -1
100
AcDbLine
 10
49.16702341666666
 20
1.03879385416667
 11
50.15190333170573
 21
1.18417292871093
  0
LINE
  5
A8
100
AcDbEntity
  8
shape
  6
ByLayer
 62
    0
370
   -1
100
AcDbLine
 10
50.15190333170573
 20
1.18417292871093
 11
50.99586806510416
 21
1.535102247395823
  0
LINE
  5
A9
100
AcDbEntity
  8
shape
  6
ByLayer
 62
    0
370
   -1
100
AcDbLine
 10
50.99586806510416
 20
1.535102247395823
 11
51.72523266178385
 21
2.106841405924464
  0
LINE
  5
AA
100
AcDbEntity
  8
shape
  6
ByLayer
 62
    0
370
   -1
100
AcDbLine
 10
51.72523266178385
 20
2.106841405924464
 11
52.36631216666665
 21
2.914649999999966
  0
LINE
  5
AB
100
AcDbEntity
  8
shape
  6
ByLayer
 62
    0
370
   -1
100
AcDbLine
 10
52.36631216666665
 20
2.914649999999966
 11
53.03103082812499
 21
4.27442510937497
  0
LINE
  5
AC
100
AcDbEntity
  8
shape
  6
ByLayer
 62
    0
370
   -1
100
AcDbLine
 10
53.03103082812499
 20
4.27442510937497
 11
53.19727052083333
 21
5.846770437499998
  0
LINE
  5
AD
100
AcDbEntity
  8
shape
  6
ByLayer
 62
    0
370
   -1
100
AcDbLine
 10
53.19727052083333
 20
5.846770437499998
 11
53.13685490104165
 21
6.920279940104152
  0
LINE
  5
AE
100
AcDbEntity
  8
shape
  6
ByLayer
 62
    0
370
   -1
100
AcDbLine
 10
53.13685490104165
 20
6.920279940104152
 11
52.86809181249999
 21
7.709188395833309
  0
LINE
  5
AF
100
AcDbEntity
  8
shape
  6
ByLayer
 62
    0
370
   -1
100
AcDbLine
 10
52.86809181249999
 20
7.709188395833309
 11
52.14720541666666
 21
8.969060145833339
  0
LINE
  5
B0
100
AcDbEntity
  8
shape
  6
ByLayer
 62
    0
370
   -1
100
AcDbLine
 10
52.14720541666666
 20
8.969060145833339
 11
51.88210349999999
 21
9.355081937499989
  0
LINE
  5
B1
100
AcDbEntity
  8
shape
  6
ByLayer
 62
    0
370
   -1
100
AcDbLine
 10
51.88210349999999
 20
9.355081937499989
 11
51.85471647916666
 21
9.400558520833329
  0
LINE
  5
B2
100
AcDbEntity
  8
shape
  6
ByLayer
 62
    0
370
   -1
100
AcDbLine
 10
51.85471647916666
 20
9.400558520833329
 11
52.07899054166666
 21
9.515795145833323
  0
LINE
  5
B3
100
AcDbEntity
  8
shape
  6
ByLayer
 62
    0
370
   -1
100
AcDbLine
 10
52.07899054166666
 20
9.515795145833323
 11
52.84897037499999
 21
9.911638270833322
  0
LINE
  5
B4
100
AcDbEntity
  8
shape
  6
ByLayer
 62
    0
370
   -1
100
AcDbLine
 10
52.84897037499999
 20
9.911638270833322
 11
55.13361273177082
 21
11.37859542708331
  0
LINE
  5
B5
100
AcDbEntity
  8
shape
  6
ByLayer
 62
    0
370
   -1
100
AcDbLine
 10
55.13361273177082
 20
11.37859542708331
 11
57.21718035416665
 21
13.14658227083331
  0
LINE
  5
B6
100
AcDbEntity
  8
shape
  6
ByLayer
 62
    0
370
   -1
100
AcDbLine
 10
57.21718035416665
 20
13.14658227083331
 11
58.84657022102864
 21
15.11716834505206
  0
LINE
  5
B7
100
AcDbEntity
  8
shape
  6
ByLayer
 62
    0
370
   -1
100
AcDbLine
 10
58.84657022102864
 20
15.11716834505206
 11
60.20737517968749
 21
17.38873747395831
  0
LINE
  5
B8
100
AcDbEntity
  8
shape
  6
ByLayer
 62
    0
370
   -1
100
AcDbLine
 10
60.20737517968749
 20
17.38873747395831
 11
61.26822945475259
 21
19.89825797005205
  0
LINE
  5
B9
100
AcDbEntity
  8
shape
  6
ByLayer
 62
    0
370
   -1
100
AcDbLine
 10
61.26822945475259
 20
19.89825797005205
 11
61.99776727083332
 21
22.58269814583329
  0
LINE
  5
BA
100
AcDbEntity
  8
shape
  6
ByLayer
 62
    0
370
   -1
100
AcDbLine
 10
61.99776727083332
 20
22.58269814583329
 11
62.29860645833332
 21
25.62279702604164
  0
LINE
  5
BB
100
AcDbEntity
  8
shape
  6
ByLayer
 62
    0
370
   -1
100
AcDbLine
 10
62.29860645833332
 20
25.62279702604164
 11
62.17243195833332
 21
28.80609237499999
  0
LINE
  5
BC
100
AcDbEntity
  8
shape
  6
ByLayer
 62
    0
370
   -1
100
AcDbLine
 10
62.17243195833332
 20
28.80609237499999
 11
61.80211579199218
 21
31.00995173502603
  0
LINE
  5
BD
100
AcDbEntity
  8
shape
  6
ByLayer
 62
    0
370
   -1
100
AcDbLine
 10
61.80211579199218
 20
31.00995173502603
 11
61.18093072135416
 21
33.26964694270832
  0
LINE
  5
BE
100
AcDbEntity
  8
shape
  6
ByLayer
 62
    0
370
   -1
100
AcDbLine
 10
61.18093072135416
 20
33.26964694270832
 11
60.15710157649739
 21
36.05062654882811
  0
LINE
  5
BF
100
AcDbEntity
  8
shape
  6
ByLayer
 62
    0
370
   -1
100
AcDbLine
 10
60.15710157649739
 20
36.05062654882811
 11
58.57885318749999
 21
39.81833910416665
  0
LINE
  5
C0
100
AcDbEntity
  8
shape
  6
ByLayer
 62
    0
370
   -1
100
AcDbLine
 10
58.57885318749999
 20
39.81833910416665
 11
56.83270902083332
 21
44.15728782031249
  0
LINE
  5
C1
100
AcDbEntity
  8
shape
  6
ByLayer
 62
    0
370
   -1
100
AcDbLine
 10
56.83270902083332
 20
44.15728782031249
 11
55.78935904166665
 21
47.61011189583331
  0
LINE
  5
C2
100
AcDbEntity
  8
shape
  6
ByLayer
 62
    0
370
   -1
100
AcDbLine
 10
55.78935904166665
 20
47.61011189583331
 11
56.24359570833332
 21
47.61011189583331
  0
LINE
  5
C3
100
AcDbEntity
  8
shape
  6
ByLayer
 62
    0
370
   -1
100
AcDbLine
 10
56.24359570833332
 20
47.61011189583331
 11
56.24359570833332
 21
51.35975249999997
  0
LINE
  5
C4
100
AcDbEntity
  8
shape
  6
ByLayer
 62
    0
370
   -1
100
AcDbLine
 10
56.24359570833332
 20
51.35975249999997
 11
55.15529037499999
 21
51.35975249999997
  0
LINE
  5
C5
100
AcDbEntity
  8
shape
  6
ByLayer
 62
    0
370
   -1
100
AcDbLine
 10
55.15529037499999
 20
51.35975249999997
 11
55.13677473514809
 21
53.10671322664386
  0
LINE
  5
C6
100
AcDbEntity
  8
shape
  6
ByLayer
 62
    0
370
   -1
100
AcDbLine
 10
55.13677473514809
 20
53.10671322664386
 11
55.30858983430988
 21
54.84200278971352
  0
LINE
  5
C7
100
AcDbEntity
  8
shape
  6
ByLayer
 62
    0
370
   -1
100
AcDbLine
 10
55.30858983430988
 20
54.84200278971352
 11
55.66967344274901
 21
56.56182650610349
  0
LINE
  5
C8
100
AcDbEntity
  8
shape
  6
ByLayer
 62
    0
370
   -1
100
AcDbLine
 10
55.66967344274901
 20
56.56182650610349
 11
56.21896333072915
 21
58.2623896927083
  0
LINE
  5
C9
100
AcDbEntity
  8
shape
  6
ByLayer
 62
    0
370
   -1
100
AcDbLine
 10
56.21896333072915
 20
58.2623896927083
 11
56.95539726851398
 21
59.9398976664225
  0
LINE
  5
CA
100
AcDbEntity
  8
shape
  6
ByLayer
 62
    0
370
   -1
100
AcDbLine
 10
56.95539726851398
 20
59.9398976664225
 11
57.87791302636717
 21
61.59055574414059
  0
LINE
  5
CB
100
AcDbEntity
  8
shape
  6
ByLayer
 62
    0
370
   -1
100
AcDbLine
 10
57.87791302636717
 20
61.59055574414059
 11
58.9854483745524
 21
63.21056924275712
  0
LINE
  5
CC
100
AcDbEntity
  8
shape
  6
ByLayer
 62
    0
370
   -1
100
AcDbLine
 10
58.9854483745524
 20
63.21056924275712
 11
60.27694108333333
 21
64.79614347916663
  0
LINE
  5
CD
100
AcDbEntity
  8
shape
  6
ByLayer
 62
    0
370
   -1
100
AcDbLine
 10
60.27694108333333
 20
64.79614347916663
 11
60.76683299999998
 21
65.3656167708333
  0
LINE
  5
CE
100
AcDbEntity
  8
shape
  6
ByLayer
 62
    0
370
   -1
100
AcDbLine
 10
60.76683299999998
 20
65.3656167708333
 11
60.93064712499999
 21
65.56663924999997
  0
LINE
  5
CF
100
AcDbEntity
  8
shape
  6
ByLayer
 62
    0
370
   -1
100
AcDbLine
 10
60.93064712499999
 20
65.56663924999997
 11
61.01901531249999
 21
65.69169456249998
  0
LINE
  5
D0
100
AcDbEntity
  8
shape
  6
ByLayer
 62
    0
370
   -1
100
AcDbLine
 10
61.01901531249999
 20
65.69169456249998
 11
61.02883399999998
 21
65.85860960416665
  0
LINE
  5
D1
100
AcDbEntity
  8
shape
  6
ByLayer
 62
    0
370
   -1
100
AcDbLine
 10
61.02883399999998
 20
65.85860960416665
 11
60.93684895833332
 21
65.97436481249997
  0
LINE
  5
D2
100
AcDbEntity
  8
shape
  6
ByLayer
 62
    0
370
   -1
100
AcDbLine
 10
60.93684895833332
 20
65.97436481249997
 11
60.65004591666666
 21
66.10097322916664
  0
LINE
  5
D3
100
AcDbEntity
  8
shape
  6
ByLayer
 62
    0
370
   -1
100
AcDbLine
 10
60.65004591666666
 20
66.10097322916664
 11
59.62168458333333
 21
66.25031729166663
  0
LINE
  5
D4
100
AcDbEntity
  8
shape
  6
ByLayer
 62
    0
370
   -1
100
AcDbLine
 10
59.62168458333333
 20
66.25031729166663
 11
57.64255130989582
 21
66.13664038541663
  0
LINE
  5
D5
100
AcDbEntity
  8
shape
  6
ByLayer
 62
    0
370
   -1
100
AcDbLine
 10
57.64255130989582
 20
66.13664038541663
 11
54.87882195833333
 21
65.54080004166664
  0
LINE
  5
D6
100
AcDbEntity
  8
shape
  6
ByLayer
 62
    0
370
   -1
100
AcDbLine
 10
54.87882195833333
 20
65.54080004166664
 11
50.34334867968749
 21
64.46448463281247
  0
LINE
  5
D7
100
AcDbEntity
  8
shape
  6
ByLayer
 62
    0
370
   -1
100
AcDbLine
 10
50.34334867968749
 20
64.46448463281247
 11
48.99977429720051
 21
64.32352252897132
  0
LINE
  5
D8
100
AcDbEntity
  8
shape
  6
ByLayer
 62
    0
370
   -1
100
AcDbLine
 10
48.99977429720051
 20
64.32352252897132
 11
47.57952341666666
 21
64.3331226458333
  0
LINE
  5
D9
100
AcDbEntity
  8
shape
  6
ByLayer
 62
    0
370
   -1
100
AcDbLine
 10
47.57952341666666
 20
64.3331226458333
 11
45.02338548697916
 21
64.58888907031248
  0
LINE
  5
DA
100
AcDbEntity
  8
shape
  6
ByLayer
 62
    0
370
   -1
100
AcDbLine
 10
45.02338548697916
 20
64.58888907031248
 11
42.04291079166666
 21
65.63071604166663
  0
LINE
  5
DB
100
AcDbEntity
  8
shape
  6
ByLayer
 62
    0
370
   -1
100
AcDbLine
 10
42.04291079166666
 20
65.63071604166663
 11
39.84709716276041
 21
66.30944997167967
  0
LINE
  5
DC
100
AcDbEntity
  8
shape
  6
ByLayer
 62
    0
370
   -1
100
AcDbLine
 10
39.84709716276041
 20
66.30944997167967
 11
37.20647893229166
 21
66.80800240364582
  0
LINE
  5
DD
100
AcDbEntity
  8
shape
  6
ByLayer
 62
    0
370
   -1
100
AcDbLine
 10
37.20647893229166
 20
66.80800240364582
 11
34.22442616276041
 21
67.1138824410807
  0
LINE
  5
DE
100
AcDbEntity
  8
shape
  6
ByLayer
 62
    0
370
   -1
100
AcDbLine
 10
34.22442616276041
 20
67.1138824410807
 11
31.00430891666666
 21
67.21459918749997
  0
LINE
  5
DF
100
AcDbEntity
  8
shape
  6
ByLayer
 62
    0
370
   -1
100
AcDbLine
 10
31.00430891666666
 20
67.21459918749997
 11
30.97795377083333
 21
67.21459918749997
  0
LINE
  5
E0
100
AcDbEntity
  8
shape
  6
ByLayer
 62
    0
370
   -1
100
AcDbLine
 10
30.97795377083333
 20
67.21459918749997
 11
30.97795377083333
 21
67.21459918749997
  0
LINE
  5
E1
100
AcDbEntity
  8
shape
  6
ByLayer
 62
    0
370
   -1
100
AcDbLine
 10
31.00430891666666
 20
66.95001585416664
 11
31.00482485416666
 21
66.95001585416664
  0
LINE
  5
E2
100
AcDbEntity
  8
shape
  6
ByLayer
 62
    0
370
   -1
100
AcDbLine
 10
31.00482485416666
 20
66.95001585416664
 11
34.20778316829426
 21
66.84904957259113
  0
LINE
  5
E3
100
AcDbEntity
  8
shape
  6
ByLayer
 62
    0
370
   -1
100
AcDbLine
 10
34.20778316829426
 20
66.84904957259113
 11
37.17061102343749
 21
66.54433982031247
  0
LINE
  5
E4
100
AcDbEntity
  8
shape
  6
ByLayer
 62
    0
370
   -1
100
AcDbLine
 10
37.17061102343749
 20
66.54433982031247
 11
39.78577985123697
 21
66.05114867350258
  0
LINE
  5
E5
100
AcDbEntity
  8
shape
  6
ByLayer
 62
    0
370
   -1
100
AcDbLine
 10
39.78577985123697
 20
66.05114867350258
 11
41.94576108333332
 21
65.3847382083333
  0
LINE
  5
E6
100
AcDbEntity
  8
shape
  6
ByLayer
 62
    0
370
   -1
100
AcDbLine
 10
41.94576108333332
 20
65.3847382083333
 11
44.96898979947915
 21
64.33345072916663
  0
LINE
  5
E7
100
AcDbEntity
  8
shape
  6
ByLayer
 62
    0
370
   -1
100
AcDbLine
 10
44.96898979947915
 20
64.33345072916663
 11
46.12393247102864
 21
64.14940598372394
  0
LINE
  5
E8
100
AcDbEntity
  8
shape
  6
ByLayer
 62
    0
370
   -1
100
AcDbLine
 10
46.12393247102864
 20
64.14940598372394
 11
47.57022331249999
 21
64.06905524999998
  0
LINE
  5
E9
100
AcDbEntity
  8
shape
  6
ByLayer
 62
    0
370
   -1
100
AcDbLine
 10
47.57022331249999
 20
64.06905524999998
 11
49.0063298453776
 21
64.06052529003904
  0
LINE
  5
EA
100
AcDbEntity
  8
shape
  6
ByLayer
 62
    0
370
   -1
100
AcDbLine
 10
49.0063298453776
 20
64.06052529003904
 11
50.37523824739583
 21
64.20421797656248
  0
LINE
  5
EB
100
AcDbEntity
  8
shape
  6
ByLayer
 62
    0
370
   -1
100
AcDbLine
 10
50.37523824739583
 20
64.20421797656248
 11
54.94599966666665
 21
65.28500087499997
  0
LINE
  5
EC
100
AcDbEntity
  8
shape
  6
ByLayer
 62
    0
370
   -1
100
AcDbLine
 10
54.94599966666665
 20
65.28500087499997
 11
57.68143348437499
 21
65.87422564322914
  0
LINE
  5
ED
100
AcDbEntity
  8
shape
  6
ByLayer
 62
    0
370
   -1
100
AcDbLine
 10
57.68143348437499
 20
65.87422564322914
 11
59.60307908333332
 21
65.9862498958333
  0
LINE
  5
EE
100
AcDbEntity
  8
shape
  6
ByLayer
 62
    0
370
   -1
100
AcDbLine
 10
59.60307908333332
 20
65.9862498958333
 11
60.57769824999999
 21
65.84620858333331
  0
LINE
  5
EF
100
AcDbEntity
  8
shape
  6
ByLayer
 62
    0
370
   -1
100
AcDbLine
 10
60.57769824999999
 20
65.84620858333331
 11
60.75443197916665
 21
65.77334497916664
  0
LINE
  5
F0
100
AcDbEntity
  8
shape
  6
ByLayer
 62
    0
370
   -1
100
AcDbLine
 10
60.75443197916665
 20
65.77334497916664
 11
60.72239093749999
 21
65.72993479166664
  0
LINE
  5
F1
100
AcDbEntity
  8
shape
  6
ByLayer
 62
    0
370
   -1
100
AcDbLine
 10
60.72239093749999
 20
65.72993479166664
 11
60.56374412499999
 21
65.53511679166664
  0
LINE
  5
F2
100
AcDbEntity
  8
shape
  6
ByLayer
 62
    0
370
   -1
100
AcDbLine
 10
60.56374412499999
 20
65.53511679166664
 11
60.07850358333332
 21
64.97132674999996
  0
LINE
  5
F3
100
AcDbEntity
  8
shape
  6
ByLayer
 62
    0
370
   -1
100
AcDbLine
 10
60.07850358333332
 20
64.97132674999996
 11
58.77517340588378
 21
63.37072677441402
  0
LINE
  5
F4
100
AcDbEntity
  8
shape
  6
ByLayer
 62
    0
370
   -1
100
AcDbLine
 10
58.77517340588378
 20
63.37072677441402
 11
57.65612001139321
 21
61.73285105859371
  0
LINE
  5
F5
100
AcDbEntity
  8
shape
  6
ByLayer
 62
    0
370
   -1
100
AcDbLine
 10
57.65612001139321
 20
61.73285105859371
 11
56.72275580977374
 21
60.06193078613278
  0
LINE
  5
F6
100
AcDbEntity
  8
shape
  6
ByLayer
 62
    0
370
   -1
100
AcDbLine
 10
56.72275580977374
 20
60.06193078613278
 11
55.97649321093748
 21
58.36219714062496
  0
LINE
  5
F7
100
AcDbEntity
  8
shape
  6
ByLayer
 62
    0
370
   -1
100
AcDbLine
 10
55.97649321093748
 20
58.36219714062496
 11
55.41874462479653
 21
56.63788130566402
  0
LINE
  5
F8
100
AcDbEntity
  8
shape
  6
ByLayer
 62
    0
370
   -1
100
AcDbLine
 10
55.41874462479653
 20
56.63788130566402
 11
55.05092246126301
 21
54.89321446484372
  0
LINE
  5
F9
100
AcDbEntity
  8
shape
  6
ByLayer
 62
    0
370
   -1
100
AcDbLine
 10
55.05092246126301
 20
54.89321446484372
 11
54.87443913024901
 21
53.13242780175779
  0
LINE
  5
FA
100
AcDbEntity
  8
shape
  6
ByLayer
 62
    0
370
   -1
100
AcDbLine
 10
54.87443913024901
 20
53.13242780175779
 11
54.89070704166665
 21
51.35975249999997
  0
LINE
  5
FB
100
AcDbEntity
  8
shape
  6
ByLayer
 62
    0
370
   -1
100
AcDbLine
 10
54.89070704166665
 20
51.35975249999997
 11
49.58870574999999
 21
51.35975249999997
  0
LINE
  5
FC
100
AcDbEntity
  8
shape
  6
ByLayer
 62
    0
370
   -1
100
AcDbLine
 10
49.58870574999999
 20
51.35975249999997
 11
49.17125128263345
 21
52.62050528149412
  0
LINE
  5
FD
100
AcDbEntity
  8
shape
  6
ByLayer
 62
    0
370
   -1
100
AcDbLine
 10
49.17125128263345
 20
52.62050528149412
 11
48.55380499153645
 21
53.77804805273435
  0
LINE
  5
FE
100
AcDbEntity
  8
shape
  6
ByLayer
 62
    0
370
   -1
100
AcDbLine
 10
48.55380499153645
 20
53.77804805273435
 11
47.75670343383787
 21
54.8123803601074
  0
LINE
  5
FF
100
AcDbEntity
  8
shape
  6
ByLayer
 62
    0
370
   -1
100
AcDbLine
 10
47.75670343383787
 20
54.8123803601074
 11
46.80028316666665
 21
55.70350174999997
  0
LINE
  5
100
100
AcDbEntity
  8
shape
  6
ByLayer
 62
    0
370
   -1
100
AcDbLine
 10
46.80028316666665
 20
55.70350174999997
 11
45.70488074715168
 21
56.4314117687988
  0
LINE
  5
101
100
AcDbEntity
  8
shape
  6
ByLayer
 62
    0
370
   -1
100
AcDbLine
 10
45.70488074715168
 20
56.4314117687988
 11
44.49083273242186
 21
56.9761099628906
  0
LINE
  5
102
100
AcDbEntity
  8
shape
  6
ByLayer
 62
    0
370
   -1
100
AcDbLine
 10
44.49083273242186
 20
56.9761099628906
 11
43.17847567960611
 21
57.31759587866208
  0
LINE
  5
103
100
AcDbEntity
  8
shape
  6
ByLayer
 62
    0
370
   -1
100
AcDbLine
 10
43.17847567960611
 20
57.31759587866208
 11
41.78814614583332
 21
57.43586906249998
  0
LINE
  5
104
100
AcDbEntity
  8
shape
  6
ByLayer
 62
    0
370
   -1
100
AcDbLine
 10
41.78814614583332
 20
57.43586906249998
 11
40.17398907010904
 21
57.27589114778644
  0
LINE
  5
105
100
AcDbEntity
  8
shape
  6
ByLayer
 62
    0
370
   -1
100
AcDbLine
 10
40.17398907010904
 20
57.27589114778644
 11
38.6701718330078
 21
56.81707032682289
  0
LINE
  5
106
100
AcDbEntity
  8
shape
  6
ByLayer
 62
    0
370
   -1
100
AcDbLine
 10
38.6701718330078
 20
56.81707032682289
 11
37.30902080244954
 21
56.09107598437497
  0
LINE
  5
107
100
AcDbEntity
  8
shape
  6
ByLayer
 62
    0
370
   -1
100
AcDbLine
 10
37.30902080244954
 20
56.09107598437497
 11
36.12286234635416
 21
55.1295775052083
  0
LINE
  5
108
100
AcDbEntity
  8
shape
  6
ByLayer
 62
    0
370
   -1
100
AcDbLine
 10
36.12286234635416
 20
55.1295775052083
 11
35.1440228326416
 21
53.96424427408851
  0
LINE
  5
109
100
AcDbEntity
  8
shape
  6
ByLayer
 62
    0
370
   -1
100
AcDbLine
 10
35.1440228326416
 20
53.96424427408851
 11
34.40482862923177
 21
52.62674567578122
  0
LINE
  5
10A
100
AcDbEntity
  8
shape
  6
ByLayer
 62
    0
370
   -1
100
AcDbLine
 10
34.40482862923177
 20
52.62674567578122
 11
33.9376061040446
 21
51.14875109505206
  0
LINE
  5
10B
100
AcDbEntity
  8
shape
  6
ByLayer
 62
    0
370
   -1
100
AcDbLine
 10
33.9376061040446
 20
51.14875109505206
 11
33.77468162499999
 21
49.56192991666664
  0
LINE
  5
10C
100
AcDbEntity
  8
shape
  6
ByLayer
 62
    0
370
   -1
100
AcDbLine
 10
33.77468162499999
 20
49.56192991666664
 11
33.9376061040446
 21
47.97510885196937
  0
LINE
  5
10D
100
AcDbEntity
  8
shape
  6
ByLayer
 62
    0
370
   -1
100
AcDbLine
 10
33.9376061040446
 20
47.97510885196937
 11
34.40482862923177
 21
46.49711457096352
  0
LINE
  5
10E
100
AcDbEntity
  8
shape
  6
ByLayer
 62
    0
370
   -1
100
AcDbLine
 10
34.40482862923177
 20
46.49711457096352
 11
35.1440228326416
 21
45.15961639640297
  0
LINE
  5
10F
100
AcDbEntity
  8
shape
  6
ByLayer
 62
    0
370
   -1
100
AcDbLine
 10
35.1440228326416
 20
45.15961639640297
 11
36.12286234635416
 21
43.99428365104164
  0
LINE
  5
110
100
AcDbEntity
  8
shape
  6
ByLayer
 62
    0
370
   -1
100
AcDbLine
 10
36.12286234635416
 20
43.99428365104164
 11
37.30902080244954
 21
43.03278565763344
  0
LINE
  5
111
100
AcDbEntity
  8
shape
  6
ByLayer
 62
    0
370
   -1
100
AcDbLine
 10
37.30902080244954
 20
43.03278565763344
 11
38.6701718330078
 21
42.30679173893227
  0
LINE
  5
112
100
AcDbEntity
  8
shape
  6
ByLayer
 62
    0
370
   -1
100
AcDbLine
 10
38.6701718330078
 20
42.30679173893227
 11
40.17398907010904
 21
41.84797121769203
  0
LINE
  5
113
100
AcDbEntity
  8
shape
  6
ByLayer
 62
    0
370
   -1
100
AcDbLine
 10
40.17398907010904
 20
41.84797121769203
 11
41.78814614583332
 21
41.68799341666664
  0
LINE
  5
114
100
AcDbEntity
  8
shape
  6
ByLayer
 62
    0
370
   -1
100
AcDbLine
 10
41.78814614583332
 20
41.68799341666664
 11
43.15859026806639
 21
41.80282632470701
  0
LINE
  5
115
100
AcDbEntity
  8
shape
  6
ByLayer
 62
    0
370
   -1
100
AcDbLine
 10
43.15859026806639
 20
41.80282632470701
 11
44.4537681627604
 21
42.13458230208331
  0
LINE
  5
116
100
AcDbEntity
  8
shape
  6
ByLayer
 62
    0
370
   -1
100
AcDbLine
 10
44.4537681627604
 20
42.13458230208331
 11
45.65418495784504
 21
42.66414722867835
  0
LINE
  5
117
100
AcDbEntity
  8
shape
  6
ByLayer
 62
    0
370
   -1
100
AcDbLine
 10
45.65418495784504
 20
42.66414722867835
 11
46.74034578124999
 21
43.37240698437497
  0
LINE
  5
118
100
AcDbEntity
  8
shape
  6
ByLayer
 62
    0
370
   -1
100
AcDbLine
 10
46.74034578124999
 20
43.37240698437497
 11
47.69275576090494
 21
44.24024744905596
  0
LINE
  5
119
100
AcDbEntity
  8
shape
  6
ByLayer
 62
    0
370
   -1
100
AcDbLine
 10
47.69275576090494
 20
44.24024744905596
 11
48.49192002473957
 21
45.24855450260414
  0
LINE
  5
11A
100
AcDbEntity
  8
shape
  6
ByLayer
 62
    0
370
   -1
100
AcDbLine
 10
48.49192002473957
 20
45.24855450260414
 11
49.11834370068358
 21
46.37821402490232
  0
LINE
  5
11B
100
AcDbEntity
  8
shape
  6
ByLayer
 62
    0
370
   -1
100
AcDbLine
 10
49.11834370068358
 20
46.37821402490232
 11
49.55253191666665
 21
47.61011189583331
  0
LINE
  5
11C
100
AcDbEntity
  8
shape
  6
ByLayer
 62
    0
370
   -1
100
AcDbLine
 10
49.55253191666665
 20
47.61011189583331
 11
55.51754199999999
 21
47.61011189583331
  0
LINE
  5
11D
100
AcDbEntity
  8
shape
  6
ByLayer
 62
    0
370
   -1
100
AcDbLine
 10
55.51754199999999
 20
47.61011189583331
 11
56.57146836718749
 21
44.10355094531248
  0
LINE
  5
11E
100
AcDbEntity
  8
shape
  6
ByLayer
 62
    0
370
   -1
100
AcDbLine
 10
56.57146836718749
 20
44.10355094531248
 11
58.33597362499999
 21
39.71343710416664
  0
LINE
  5
11F
100
AcDbEntity
  8
shape
  6
ByLayer
 62
    0
370
   -1
100
AcDbLine
 10
58.33597362499999
 20
39.71343710416664
 11
59.91066440169269
 21
35.95588297786455
  0
LINE
  5
120
100
AcDbEntity
  8
shape
  6
ByLayer
 62
    0
370
   -1
100
AcDbLine
 10
59.91066440169269
 20
35.95588297786455
 11
60.92849936979165
 21
33.19417653124997
  0
LINE
  5
121
100
AcDbEntity
  8
shape
  6
ByLayer
 62
    0
370
   -1
100
AcDbLine
 10
60.92849936979165
 20
33.19417653124997
 11
61.54355681445311
 21
30.95699595963539
  0
LINE
  5
122
100
AcDbEntity
  8
shape
  6
ByLayer
 62
    0
370
   -1
100
AcDbLine
 10
61.54355681445311
 20
30.95699595963539
 11
61.90991502083332
 21
28.77301945833332
  0
LINE
  5
123
100
AcDbEntity
  8
shape
  6
ByLayer
 62
    0
370
   -1
100
AcDbLine
 10
61.90991502083332
 20
28.77301945833332
 11
62.03218096354166
 21
25.62929486197915
  0
LINE
  5
124
100
AcDbEntity
  8
shape
  6
ByLayer
 62
    0
370
   -1
100
AcDbLine
 10
62.03218096354166
 20
25.62929486197915
 11
61.73835124999999
 21
22.63489249999998
  0
LINE
  5
125
100
AcDbEntity
  8
shape
  6
ByLayer
 62
    0
370
   -1
100
AcDbLine
 10
61.73835124999999
 20
22.63489249999998
 11
61.01781852766926
 21
19.98478011002602
  0
LINE
  5
126
100
AcDbEntity
  8
shape
  6
ByLayer
 62
    0
370
   -1
100
AcDbLine
 10
61.01781852766926
 20
19.98478011002602
 11
59.97075169010415
 21
17.50854014583331
  0
LINE
  5
127
100
AcDbEntity
  8
shape
  6
ByLayer
 62
    0
370
   -1
100
AcDbLine
 10
59.97075169010415
 20
17.50854014583331
 11
58.6297785751953
 21
15.2695203066406
  0
LINE
  5
128
100
AcDbEntity
  8
shape
  6
ByLayer
 62
    0
370
   -1
100
AcDbLine
 10
58.6297785751953
 20
15.2695203066406
 11
57.02752702083333
 21
13.33106829166664
  0
LINE
  5
129
100
AcDbEntity
  8
shape
  6
ByLayer
 62
    0
370
   -1
100
AcDbLine
 10
57.02752702083333
 20
13.33106829166664
 11
54.97438185156248
 21
11.59276869010415
  0
LINE
  5
12A
100
AcDbEntity
  8
shape
  6
ByLayer
 62
    0
370
   -1
100
AcDbLine
 10
54.97438185156248
 20
11.59276869010415
 11
52.72804785416666
 21
10.14676554166664
  0
LINE
  5
12B
100
AcDbEntity
  8
shape
  6
ByLayer
 62
    0
370
   -1
100
AcDbLine
 10
52.72804785416666
 20
10.14676554166664
 11
51.95755208333333
 21
9.751440999999971
  0
LINE
  5
12C
100
AcDbEntity
  8
shape
  6
ByLayer
 62
    0
370
   -1
100
AcDbLine
 10
51.95755208333333
 20
9.751440999999971
 11
51.71570704166665
 21
9.626383041666628
  0
LINE
  5
12D
100
AcDbEntity
  8
shape
  6
ByLayer
 62
    0
370
   -1
100
AcDbLine
 10
51.71570704166665
 20
9.626383041666628
 11
51.61441924999999
 21
9.574191333333317
  0
LINE
  5
12E
100
AcDbEntity
  8
shape
  6
ByLayer
 62
    0
370
   -1
100
AcDbLine
 10
51.61441924999999
 20
9.574191333333317
 11
51.57049577083333
 21
9.535432520833297
  0
LINE
  5
12F
100
AcDbEntity
  8
shape
  6
ByLayer
 62
    0
370
   -1
100
AcDbLine
 10
51.57049577083333
 20
9.535432520833297
 11
51.55706022916666
 21
9.513212812499972
  0
LINE
  5
130
100
AcDbEntity
  8
shape
  6
ByLayer
 62
    0
370
   -1
100
AcDbLine
 10
51.55706022916666
 20
9.513212812499972
 11
51.54982387499999
 21
9.493059499999987
  0
LINE
  5
131
100
AcDbEntity
  8
shape
  6
ByLayer
 62
    0
370
   -1
100
AcDbLine
 10
51.54982387499999
 20
9.493059499999987
 11
51.54517514583332
 21
9.441381083333312
  0
LINE
  5
132
100
AcDbEntity
  8
shape
  6
ByLayer
 62
    0
370
   -1
100
AcDbLine
 10
51.54517514583332
 20
9.441381083333312
 11
51.55499383333333
 21
9.397973541666659
  0
LINE
  5
133
100
AcDbEntity
  8
shape
  6
ByLayer
 62
    0
370
   -1
100
AcDbLine
 10
51.55499383333333
 20
9.397973541666659
 11
51.57979852083332
 21
9.345263249999959
  0
LINE
  5
134
100
AcDbEntity
  8
shape
  6
ByLayer
 62
    0
370
   -1
100
AcDbLine
 10
51.57979852083332
 20
9.345263249999959
 11
51.65886131249999
 21
9.212971583333314
  0
LINE
  5
135
100
AcDbEntity
  8
shape
  6
ByLayer
 62
    0
370
   -1
100
AcDbLine
 10
51.65886131249999
 20
9.212971583333314
 11
51.93223145833333
 21
8.814030187499981
  0
LINE
  5
136
100
AcDbEntity
  8
shape
  6
ByLayer
 62
    0
370
   -1
100
AcDbLine
 10
51.93223145833333
 20
8.814030187499981
 11
52.62727864583332
 21
7.599635020833318
  0
LINE
  5
137
100
AcDbEntity
  8
shape
  6
ByLayer
 62
    0
370
   -1
100
AcDbLine
 10
52.62727864583332
 20
7.599635020833318
 11
52.88207901041665
 21
6.86724123437499
  0
LINE
  5
138
100
AcDbEntity
  8
shape
  6
ByLayer
 62
    0
370
   -1
100
AcDbLine
 10
52.88207901041665
 20
6.86724123437499
 11
52.93268718749999
 21
5.845735916666655
  0
LINE
  5
139
100
AcDbEntity
  8
shape
  6
ByLayer
 62
    0
370
   -1
100
AcDbLine
 10
52.93268718749999
 20
5.845735916666655
 11
52.78258013281249
 21
4.346532005208314
  0
LINE
  5
13A
100
AcDbEntity
  8
shape
  6
ByLayer
 62
    0
370
   -1
100
AcDbLine
 10
52.78258013281249
 20
4.346532005208314
 11
52.14462043749999
 21
3.059342687499992
  0
LINE
  5
13B
100
AcDbEntity
  8
shape
  6
ByLayer
 62
    0
370
   -1
100
AcDbLine
 10
52.14462043749999
 20
3.059342687499992
 11
51.54073411458332
 21
2.290159498046853
  0
LINE
  5
13C
100
AcDbEntity
  8
shape
  6
ByLayer
 62
    0
370
   -1
100
AcDbLine
 10
51.54073411458332
 20
2.290159498046853
 11
50.86728354166665
 21
1.756531046874976
  0
LINE
  5
13D
100
AcDbEntity
  8
shape
  6
ByLayer
 62
    0
370
   -1
100
AcDbLine
 10
50.86728354166665
 20
1.756531046874976
 11
50.085130890625
 21
1.435188056640603
  0
LINE
  5
13E
100
AcDbEntity
  8
shape
  6
ByLayer
 62
    0
370
   -1
100
AcDbLine
 10
50.085130890625
 20
1.435188056640603
 11
49.15513833333332
 21
1.302861249999978
  0
LINE
  5
13F
100
AcDbEntity
  8
shape
  6
ByLayer
 62
    0
370
   -1
100
AcDbLine
 10
49.15513833333332
 20
1.302861249999978
 11
47.79416763802082
 21
1.418550643229146
  0
LINE
  5
140
100
AcDbEntity
  8
shape
  6
ByLayer
 62
    0
370
   -1
100
AcDbLine
 10
47.79416763802082
 20
1.418550643229146
 11
46.49018620833332
 21
1.920393458333308
  0
LINE
  5
141
100
AcDbEntity
  8
shape
  6
ByLayer
 62
    0
370
   -1
100
AcDbLine
 10
46.49018620833332
 20
1.920393458333308
 11
45.55480871875
 21
2.337268643229145
  0
LINE
  5
142
100
AcDbEntity
  8
shape
  6
ByLayer
 62
    0
370
   -1
100
AcDbLine
 10
45.55480871875
 20
2.337268643229145
 11
44.76005991666666
 21
2.454727437499969
  0
LINE
  5
143
100
AcDbEntity
  8
shape
  6
ByLayer
 62
    0
370
   -1
100
AcDbLine
 10
44.76005991666666
 20
2.454727437499969
 11
43.99786280208333
 21
2.253814760416645
  0
LINE
  5
144
100
AcDbEntity
  8
shape
  6
ByLayer
 62
    0
370
   -1
100
AcDbLine
 10
43.99786280208333
 20
2.253814760416645
 11
43.16067218749999
 21
1.741593333333327
  0
LINE
  5
145
100
AcDbEntity
  8
shape
  6
ByLayer
 62
    0
370
   -1
100
AcDbLine
 10
43.16067218749999
 20
1.741593333333327
 11
41.80818601822916
 21
1.017779653645807
  0
LINE
  5
146
100
AcDbEntity
  8
shape
  6
ByLayer
 62
    0
370
   -1
100
AcDbLine
 10
41.80818601822916
 20
1.017779653645807
 11
40.27040883333333
 21
0.877564708333324
  0
LINE
  5
147
100
AcDbEntity
  8
shape
  6
ByLayer
 62
    0
370
   -1
100
AcDbLine
 10
40.27040883333333
 20
0.877564708333324
 11
38.86947282552082
 21
1.102701643229146
  0
LINE
  5
148
100
AcDbEntity
  8
shape
  6
ByLayer
 62
    0
370
   -1
100
AcDbLine
 10
38.86947282552082
 20
1.102701643229146
 11
37.73516339583333
 21
1.735391499999992
  0
LINE
  5
149
100
AcDbEntity
  8
shape
  6
ByLayer
 62
    0
370
   -1
100
AcDbLine
 10
37.73516339583333
 20
1.735391499999992
 11
36.97776673242187
 21
2.473195478190088
  0
LINE
  5
14A
100
AcDbEntity
  8
shape
  6
ByLayer
 62
    0
370
   -1
100
AcDbLine
 10
36.97776673242187
 20
2.473195478190088
 11
36.40967497916666
 21
3.372137403645819
  0
LINE
  5
14B
100
AcDbEntity
  8
shape
  6
ByLayer
 62
    0
370
   -1
100
AcDbLine
 10
36.40967497916666
 20
3.372137403645819
 11
36.03135892903645
 21
4.434300622070301
  0
LINE
  5
14C
100
AcDbEntity
  8
shape
  6
ByLayer
 62
    0
370
   -1
100
AcDbLine
 10
36.03135892903645
 20
4.434300622070301
 11
35.84328937499999
 21
5.661768479166653
  0
LINE
  5
14D
100
AcDbEntity
  8
shape
  6
ByLayer
 62
    0
370
   -1
100
AcDbLine
 10
35.84328937499999
 20
5.661768479166653
 11
35.76319206249999
 21
6.796582270833312
  0
LINE
  5
14E
100
AcDbEntity
  8
shape
  6
ByLayer
 62
    0
370
   -1
100
AcDbLine
 10
35.76319206249999
 20
6.796582270833312
 11
32.96542968749999
 21
6.797098208333296
  0
LINE
  5
14F
100
AcDbEntity
  8
shape
  6
ByLayer
 62
    0
370
   -1
100
AcDbLine
 10
32.96542968749999
 20
6.797098208333296
 11
29.70826333333332
 21
6.851874895833305
  0
LINE
  5
150
100
AcDbEntity
  8
shape
  6
ByLayer
 62
    0
370
   -1
100
AcDbLine
 10
29.70826333333332
 20
6.851874895833305
 11
28.96929002083333
 21
6.919055249999985
  0
LINE
  5
151
100
AcDbEntity
  8
shape
  6
ByLayer
 62
    0
370
   -1
100
AcDbLine
 10
28.96929002083333
 20
6.919055249999985
 11
28.96619175
 21
6.310823145833297
  0
LINE
  5
152
100
AcDbEntity
  8
shape
  6
ByLayer
 62
    0
370
   -1
100
AcDbLine
 10
28.96619175
 20
6.310823145833297
 11
28.78831138281249
 21
4.907864067708321
  0
LINE
  5
153
100
AcDbEntity
  8
shape
  6
ByLayer
 62
    0
370
   -1
100
AcDbLine
 10
28.78831138281249
 20
4.907864067708321
 11
28.46544662499999
 21
3.6618888958333
  0
LINE
  5
154
100
AcDbEntity
  8
shape
  6
ByLayer
 62
    0
370
   -1
100
AcDbLine
 10
28.46544662499999
 20
3.6618888958333
 11
27.58110355624999
 21
2.315896924479148
  0
LINE
  5
155
100
AcDbEntity
  8
shape
  6
ByLayer
 62
    0
370
   -1
100
AcDbLine
 10
27.58110355624999
 20
2.315896924479148
 11
26.40510657499999
 21
1.373139874999964
  0
LINE
  5
156
100
AcDbEntity
  8
shape
  6
ByLayer
 62
    0
370
   -1
100
AcDbLine
 10
26.40510657499999
 20
1.373139874999964
 11
24.86816114088541
 21
0.9126153854166539
  0
LINE
  5
157
100
AcDbEntity
  8
shape
  6
ByLayer
 62
    0
370
   -1
100
AcDbLine
 10
24.86816114088541
 20
0.9126153854166539
 11
23.27041425833333
 21
0.9778153333332966
  0
LINE
  5
158
100
AcDbEntity
  8
shape
  6
ByLayer
 62
    0
370
   -1
100
AcDbLine
 10
23.27041425833333
 20
0.9778153333332966
 11
22.28064372708333
 21
1.329638075520815
  0
LINE
  5
159
100
AcDbEntity
  8
shape
  6
ByLayer
 62
    0
370
   -1
100
AcDbLine
 10
22.28064372708333
 20
1.329638075520815
 11
21.44623626458333
 21
1.850114833333322
  0
LINE
  5
15A
100
AcDbEntity
  8
shape
  6
ByLayer
 62
    0
370
   -1
100
AcDbLine
 10
21.44623626458333
 20
1.850114833333322
 11
20.73474059270833
 21
2.307046942708325
  0
LINE
  5
15B
100
AcDbEntity
  8
shape
  6
ByLayer
 62
    0
370
   -1
100
AcDbLine
 10
20.73474059270833
 20
2.307046942708325
 11
20.00756438958333
 21
2.489869395833324
  0
LINE
  5
15C
100
AcDbEntity
  8
shape
  6
ByLayer
 62
    0
370
   -1
100
AcDbLine
 10
20.00756438958333
 20
2.489869395833324
 11
19.23262844739583
 21
2.39175627343749
  0
LINE
  5
15D
100
AcDbEntity
  8
shape
  6
ByLayer
 62
    0
370
   -1
100
AcDbLine
 10
19.23262844739583
 20
2.39175627343749
 11
18.37407213333333
 21
2.025814041666649
  0
LINE
  5
15E
100
AcDbEntity
  8
shape
  6
ByLayer
 62
    0
370
   -1
100
AcDbLine
 10
18.37407213333333
 20
2.025814041666649
 11
16.75246901184896
 21
1.41647560709634
  0
LINE
  5
15F
100
AcDbEntity
  8
shape
  6
ByLayer
 62
    0
370
   -1
100
AcDbLine
 10
16.75246901184896
 20
1.41647560709634
 11
15.22312573489583
 21
1.342695924479152
  0
LINE
  5
160
100
AcDbEntity
  8
shape
  6
ByLayer
 62
    0
370
   -1
100
AcDbLine
 10
15.22312573489583
 20
1.342695924479152
 11
13.88303537747396
 21
1.787854612955713
  0
LINE
  5
161
100
AcDbEntity
  8
shape
  6
ByLayer
 62
    0
370
   -1
100
AcDbLine
 10
13.88303537747396
 20
1.787854612955713
 11
12.82919101458333
 21
2.735331291666654
  0
LINE
  5
162
100
AcDbEntity
  8
shape
  6
ByLayer
 62
    0
370
   -1
100
AcDbLine
 10
12.82919101458333
 20
2.735331291666654
 11
12.06023376276042
 21
4.077099851562494
  0
LINE
  5
163
100
AcDbEntity
  8
shape
  6
ByLayer
 62
    0
370
   -1
100
AcDbLine
 10
12.06023376276042
 20
4.077099851562494
 11
11.80703125
 21
5.55118058333332
  0
LINE
  5
164
100
AcDbEntity
  8
shape
  6
ByLayer
 62
    0
370
   -1
100
AcDbLine
 10
11.80703125
 20
5.55118058333332
 11
11.9050286171875
 21
7.060825283854157
  0
LINE
  5
165
100
AcDbEntity
  8
shape
  6
ByLayer
 62
    0
370
   -1
100
AcDbLine
 10
11.9050286171875
 20
7.060825283854157
 11
12.51293138125
 21
8.406820562500002
  0
LINE
  5
166
100
AcDbEntity
  8
shape
  6
ByLayer
 62
    0
370
   -1
100
AcDbLine
 10
12.51293138125
 20
8.406820562500002
 11
12.79663482916667
 21
8.908081624999966
  0
LINE
  5
167
100
AcDbEntity
  8
shape
  6
ByLayer
 62
    0
370
   -1
100
AcDbLine
 10
12.79663482916667
 20
8.908081624999966
 11
12.87621673333333
 21
9.074478083333332
  0
LINE
  5
168
100
AcDbEntity
  8
shape
  6
ByLayer
 62
    0
370
   -1
100
AcDbLine
 10
12.87621673333333
 20
9.074478083333332
 11
12.89792076875
 21
9.139076104166662
  0
LINE
  5
169
100
AcDbEntity
  8
shape
  6
ByLayer
 62
    0
370
   -1
100
AcDbLine
 10
12.89792076875
 20
9.139076104166662
 11
12.90360507708333
 21
9.186616437499964
  0
LINE
  5
16A
100
AcDbEntity
  8
shape
  6
ByLayer
 62
    0
370
   -1
100
AcDbLine
 10
12.90360507708333
 20
9.186616437499964
 11
12.83280839791666
 21
9.30495662499996
  0
LINE
  5
16B
100
AcDbEntity
  8
shape
  6
ByLayer
 62
    0
370
   -1
100
AcDbLine
 10
12.83280839791666
 20
9.30495662499996
 11
12.73979095208333
 21
9.348880104166653
  0
LINE
  5
16C
100
AcDbEntity
  8
shape
  6
ByLayer
 62
    0
370
   -1
100
AcDbLine
 10
12.73979095208333
 20
9.348880104166653
 11
12.54290364583333
 21
9.439314687500001
  0
LINE
  5
16D
100
AcDbEntity
  8
shape
  6
ByLayer
 62
    0
370
   -1
100
AcDbLine
 10
12.54290364583333
 20
9.439314687500001
 11
11.92950449375
 21
9.716817624999976
  0
LINE
  5
16E
100
AcDbEntity
  8
shape
  6
ByLayer
 62
    0
370
   -1
100
AcDbLine
 10
11.92950449375
 20
9.716817624999976
 11
9.719911447526039
 21
10.87460175618488
  0
LINE
  5
16F
100
AcDbEntity
  8
shape
  6
ByLayer
 62
    0
370
   -1
100
AcDbLine
 10
9.719911447526039
 20
10.87460175618488
 11
7.792008270833332
 21
12.24320514322915
  0
LINE
  5
170
100
AcDbEntity
  8
shape
  6
ByLayer
 62
    0
370
   -1
100
AcDbLine
 10
7.792008270833332
 20
12.24320514322915
 11
6.093172216015624
 21
13.86596380761717
  0
LINE
  5
171
100
AcDbEntity
  8
shape
  6
ByLayer
 62
    0
370
   -1
100
AcDbLine
 10
6.093172216015624
 20
13.86596380761717
 11
4.570780535416666
 21
15.78621377083331
  0
LINE
  5
172
100
AcDbEntity
  8
shape
  6
ByLayer
 62
    0
370
   -1
100
AcDbLine
 10
4.570780535416666
 20
15.78621377083331
 11
3.500787126566161
 21
17.50429884916177
  0
LINE
  5
173
100
AcDbEntity
  8
shape
  6
ByLayer
 62
    0
370
   -1
100
AcDbLine
 10
3.500787126566161
 20
17.50429884916177
 11
2.646384832073567
 21
19.27183638183593
  0
LINE
  5
174
100
AcDbEntity
  8
shape
  6
ByLayer
 62
    0
370
   -1
100
AcDbLine
 10
2.646384832073567
 20
19.27183638183593
 11
2.009447561433512
 21
21.07702315132649
  0
LINE
  5
175
100
AcDbEntity
  8
shape
  6
ByLayer
 62
    0
370
   -1
100
AcDbLine
 10
2.009447561433512
 20
21.07702315132649
 11
1.591849224140625
 21
22.90805594010416
  0
LINE
  5
176
100
AcDbEntity
  8
shape
  6
ByLayer
 62
    0
370
   -1
100
AcDbLine
 10
1.591849224140625
 20
22.90805594010416
 11
1.395463729689534
 21
24.75313153063964
  0
LINE
  5
177
100
AcDbEntity
  8
shape
  6
ByLayer
 62
    0
370
   -1
100
AcDbLine
 10
1.395463729689534
 20
24.75313153063964
 11
1.42216498757487
 21
26.60044670540363
  0
LINE
  5
178
100
AcDbEntity
  8
shape
  6
ByLayer
 62
    0
370
   -1
100
AcDbLine
 10
1.42216498757487
 20
26.60044670540363
 11
1.673826907291259
 21
28.43819824686684
  0
LINE
  5
179
100
AcDbEntity
  8
shape
  6
ByLayer
 62
    0
370
   -1
100
AcDbLine
 10
1.673826907291259
 20
28.43819824686684
 11
2.152323398333333
 21
30.25458293749998
  0
LINE
  5
17A
100
AcDbEntity
  8
shape
  6
ByLayer
 62
    0
370
   -1
100
AcDbLine
 10
2.152323398333333
 20
30.25458293749998
 11
3.721722352916666
 21
34.22653141927081
  0
LINE
  5
17B
100
AcDbEntity
  8
shape
  6
ByLayer
 62
    0
370
   -1
100
AcDbLine
 10
3.721722352916666
 20
34.22653141927081
 11
6.101953124999999
 21
39.62403704166664
  0
LINE
  5
17C
100
AcDbEntity
  8
shape
  6
ByLayer
 62
    0
370
   -1
100
AcDbLine
 10
6.101953124999999
 20
39.62403704166664
 11
8.003670671093747
 21
44.15504944531246
  0
LINE
  5
17D
100
AcDbEntity
  8
shape
  6
ByLayer
 62
    0
370
   -1
100
AcDbLine
 10
8.003670671093747
 20
44.15504944531246
 11
8.555194154003903
 21
45.94303552311194
  0
LINE
  5
17E
100
AcDbEntity
  8
shape
  6
ByLayer
 62
    0
370
   -1
100
AcDbLine
 10
8.555194154003903
 20
45.94303552311194
 11
8.903849349999998
 21
47.61011189583331
  0
LINE
  5
17F
100
AcDbEntity
  8
shape
  6
ByLayer
 62
    0
370
   -1
100
AcDbLine
 10
8.903849349999998
 20
47.61011189583331
 11
13.67875169375
 21
47.61011189583331
  0
LINE
  5
180
100
AcDbEntity
  8
shape
  6
ByLayer
 62
    0
370
   -1
100
AcDbLine
 10
13.67875169375
 20
47.61011189583331
 11
14.07534304026286
 21
46.31511705456541
  0
LINE
  5
181
100
AcDbEntity
  8
shape
  6
ByLayer
 62
    0
370
   -1
100
AcDbLine
 10
14.07534304026286
 20
46.31511705456541
 11
14.68167000335286
 21
45.12446818522133
  0
LINE
  5
182
100
AcDbEntity
  8
shape
  6
ByLayer
 62
    0
370
   -1
100
AcDbLine
 10
14.68167000335286
 20
45.12446818522133
 11
15.47627045428466
 21
44.05922282417804
  0
LINE
  5
183
100
AcDbEntity
  8
shape
  6
ByLayer
 62
    0
370
   -1
100
AcDbLine
 10
15.47627045428466
 20
44.05922282417804
 11
16.43768226432291
 21
43.14043850781248
  0
LINE
  5
184
100
AcDbEntity
  8
shape
  6
ByLayer
 62
    0
370
   -1
100
AcDbLine
 10
16.43768226432291
 20
43.14043850781248
 11
17.54444330473225
 21
42.38917277250161
  0
LINE
  5
185
100
AcDbEntity
  8
shape
  6
ByLayer
 62
    0
370
   -1
100
AcDbLine
 10
17.54444330473225
 20
42.38917277250161
 11
18.77509144677734
 21
41.82648315462238
  0
LINE
  5
186
100
AcDbEntity
  8
shape
  6
ByLayer
 62
    0
370
   -1
100
AcDbLine
 10
18.77509144677734
 20
41.82648315462238
 11
20.10816456172282
 21
41.47342719055175
  0
LINE
  5
187
100
AcDbEntity
  8
shape
  6
ByLayer
 62
    0
370
   -1
100
AcDbLine
 10
20.10816456172282
 20
41.47342719055175
 11
21.52220052083333
 21
41.35106241666665
  0
LINE
  5
188
100
AcDbEntity
  8
shape
  6
ByLayer
 62
    0
370
   -1
100
AcDbLine
 10
21.52220052083333
 20
41.35106241666665
 11
23.13635790041504
 21
41.51106174092608
  0
LINE
  5
189
100
AcDbEntity
  8
shape
  6
ByLayer
 62
    0
370
   -1
100
AcDbLine
 10
23.13635790041504
 20
41.51106174092608
 11
24.64017528014323
 21
41.96994065136717
  0
LINE
  5
18A
100
AcDbEntity
  8
shape
  6
ByLayer
 62
    0
370
   -1
100
AcDbLine
 10
24.64017528014323
 20
41.96994065136717
 11
26.00132632930501
 21
42.69601757792152
  0
LINE
  5
18B
100
AcDbEntity
  8
shape
  6
ByLayer
 62
    0
370
   -1
100
AcDbLine
 10
26.00132632930501
 20
42.69601757792152
 11
27.18748471718749
 21
43.65761095052081
  0
LINE
  5
18C
100
AcDbEntity
  8
shape
  6
ByLayer
 62
    0
370
   -1
100
AcDbLine
 10
27.18748471718749
 20
43.65761095052081
 11
28.16632411307779
 21
44.82303919909664
  0
LINE
  5
18D
100
AcDbEntity
  8
shape
  6
ByLayer
 62
    0
370
   -1
100
AcDbLine
 10
28.16632411307779
 20
44.82303919909664
 11
28.90551818626301
 21
46.16062075358069
  0
LINE
  5
18E
100
AcDbEntity
  8
shape
  6
ByLayer
 62
    0
370
   -1
100
AcDbLine
 10
28.90551818626301
 20
46.16062075358069
 11
29.37274060603027
 21
47.63867404390459
  0
LINE
  5
18F
100
AcDbEntity
  8
shape
  6
ByLayer
 62
    0
370
   -1
100
AcDbLine
 10
29.37274060603027
 20
47.63867404390459
 11
29.53566504166666
 21
49.22551749999997
  0
LINE
  5
190
100
AcDbEntity
  8
shape
  6
ByLayer
 62
    0
370
   -1
100
AcDbLine
 10
29.53566504166666
 20
49.22551749999997
 11
29.37274060603027
 21
50.81233867321775
  0
LINE
  5
191
100
AcDbEntity
  8
shape
  6
ByLayer
 62
    0
370
   -1
100
AcDbLine
 10
29.37274060603027
 20
50.81233867321775
 11
28.90551818626301
 21
52.29033321777341
  0
LINE
  5
192
100
AcDbEntity
  8
shape
  6
ByLayer
 62
    0
370
   -1
100
AcDbLine
 10
28.90551818626301
 20
52.29033321777341
 11
28.16632411307779
 21
53.62783171789548
  0
LINE
  5
193
100
AcDbEntity
  8
shape
  6
ByLayer
 62
    0
370
   -1
100
AcDbLine
 10
28.16632411307779
 20
53.62783171789548
 11
27.18748471718749
 21
54.79316475781248
  0
LINE
  5
194
100
AcDbEntity
  8
shape
  6
ByLayer
 62
    0
370
   -1
100
AcDbLine
 10
27.18748471718749
 20
54.79316475781248
 11
26.00132632930501
 21
55.7546629217529
  0
LINE
  5
195
100
AcDbEntity
  8
shape
  6
ByLayer
 62
    0
370
   -1
100
AcDbLine
 10
26.00132632930501
 20
55.7546629217529
 11
24.64017528014323
 21
56.48065679394529
  0
LINE
  5
196
100
AcDbEntity
  8
shape
  6
ByLayer
 62
    0
370
   -1
100
AcDbLine
 10
24.64017528014323
 20
56.48065679394529
 11
23.13635790041504
 21
56.93947695861814
  0
LINE
  5
197
100
AcDbEntity
  8
shape
  6
ByLayer
 62
    0
370
   -1
100
AcDbLine
 10
23.13635790041504
 20
56.93947695861814
 11
21.52220052083333
 21
57.09945399999997
  0
LINE
  5
198
100
AcDbEntity
  8
shape
  6
ByLayer
 62
    0
370
   -1
100
AcDbLine
 10
21.52220052083333
 20
57.09945399999997
 11
20.17594986190999
 21
56.9886328884277
  0
LINE
  5
199
100
AcDbEntity
  8
shape
  6
ByLayer
 62
    0
370
   -1
100
AcDbLine
 10
20.17594986190999
 20
56.9886328884277
 11
18.90209089280599
 21
56.66824856835935
  0
LINE
  5
19A
100
AcDbEntity
  8
shape
  6
ByLayer
 62
    0
370
   -1
100
AcDbLine
 10
18.90209089280599
 20
56.66824856835935
 11
17.71903159689534
 21
56.15641956176754
  0
LINE
  5
19B
100
AcDbEntity
  8
shape
  6
ByLayer
 62
    0
370
   -1
100
AcDbLine
 10
17.71903159689534
 20
56.15641956176754
 11
16.64517995755208
 21
55.47126439062497
  0
LINE
  5
19C
100
AcDbEntity
  8
shape
  6
ByLayer
 62
    0
370
   -1
100
AcDbLine
 10
16.64517995755208
 20
55.47126439062497
 11
15.69894395815022
 21
54.63090157690426
  0
LINE
  5
19D
100
AcDbEntity
  8
shape
  6
ByLayer
 62
    0
370
   -1
100
AcDbLine
 10
15.69894395815022
 20
54.63090157690426
 11
14.8987315820638
 21
53.6534496425781
  0
LINE
  5
19E
100
AcDbEntity
  8
shape
  6
ByLayer
 62
    0
370
   -1
100
AcDbLine
 10
14.8987315820638
 20
53.6534496425781
 11
14.26295081266683
 21
52.55702710961911
  0
LINE
  5
19F
100
AcDbEntity
  8
shape
  6
ByLayer
 62
    0
370
   -1
100
AcDbLine
 10
14.26295081266683
 20
52.55702710961911
 11
13.81000963333333
 21
51.35975249999997
  0
LINE
  5
1A0
100
AcDbEntity
  8
shape
  6
ByLayer
 62
    0
370
   -1
100
AcDbLine
 10
13.81000963333333
 20
51.35975249999997
 11
9.067146743749998
 21
51.35975249999997
  0
LINE
  5
1A1
100
AcDbEntity
  8
shape
  6
ByLayer
 62
    0
370
   -1
100
AcDbLine
 10
9.067146743749998
 20
51.35975249999997
 11
8.803670989322914
 21
53.19082361718748
  0
LINE
  5
1A2
100
AcDbEntity
  8
shape
  6
ByLayer
 62
    0
370
   -1
100
AcDbLine
 10
8.803670989322914
 20
53.19082361718748
 11
8.314221158333332
 21
55.01999568749999
  0
LINE
  5
1A3
100
AcDbEntity
  8
shape
  6
ByLayer
 62
    0
370
   -1
100
AcDbLine
 10
8.314221158333332
 20
55.01999568749999
 11
7.414966989404296
 21
57.14031877180987
  0
LINE
  5
1A4
100
AcDbEntity
  8
shape
  6
ByLayer
 62
    0
370
   -1
100
AcDbLine
 10
7.414966989404296
 20
57.14031877180987
 11
5.994359502213541
 21
59.81022369010414
  0
LINE
  5
1A5
100
AcDbEntity
  8
shape
  6
ByLayer
 62
    0
370
   -1
100
AcDbLine
 10
5.994359502213541
 20
59.81022369010414
 11
4.245789174593098
 21
62.69376989355466
  0
LINE
  5
1A6
100
AcDbEntity
  8
shape
  6
ByLayer
 62
    0
370
   -1
100
AcDbLine
 10
4.245789174593098
 20
62.69376989355466
 11
2.362646484374999
 21
65.4550168333333
  0
LINE
  5
1A7
100
AcDbEntity
  8
shape
  6
ByLayer
 62
    0
370
   -1
100
AcDbLine
 10
2.362646484374999
 20
65.4550168333333
 11
1.702738450625
 21
66.36090518749997
  0
LINE
  5
1A8
100
AcDbEntity
  8
shape
  6
ByLayer
 62
    0
370
   -1
100
AcDbLine
 10
1.702738450625
 20
66.36090518749997
 11
1.794722486875
 21
66.3774416458333
  0
LINE
  5
1A9
100
AcDbEntity
  8
shape
  6
ByLayer
 62
    0
370
   -1
100
AcDbLine
 10
1.794722486875
 20
66.3774416458333
 11
3.151588654635416
 21
66.4331549583333
  0
LINE
  5
1AA
100
AcDbEntity
  8
shape
  6
ByLayer
 62
    0
370
   -1
100
AcDbLine
 10
3.151588654635416
 20
66.4331549583333
 11
4.752164845833332
 21
66.32834820833331
  0
LINE
  5
1AB
100
AcDbEntity
  8
shape
  6
ByLayer
 62
    0
370
   -1
100
AcDbLine
 10
4.752164845833332
 20
66.32834820833331
 11
6.394459855729165
 21
65.95768151041663
  0
LINE
  5
1AC
100
AcDbEntity
  8
shape
  6
ByLayer
 62
    0
370
   -1
100
AcDbLine
 10
6.394459855729165
 20
65.95768151041663
 11
8.445479362499999
 21
65.20025218749997
  0
LINE
  5
1AD
100
AcDbEntity
  8
shape
  6
ByLayer
 62
    0
370
   -1
100
AcDbLine
 10
8.445479362499999
 20
65.20025218749997
 11
10.34502930963541
 21
64.48906012499997
  0
LINE
  5
1AE
100
AcDbEntity
  8
shape
  6
ByLayer
 62
    0
370
   -1
100
AcDbLine
 10
10.34502930963541
 20
64.48906012499997
 11
11.83648678333333
 21
64.16259074999998
  0
LINE
  5
1AF
100
AcDbEntity
  8
shape
  6
ByLayer
 62
    0
370
   -1
100
AcDbLine
 10
11.83648678333333
 20
64.16259074999998
 11
13.95179283020833
 21
64.06770322916664
  0
LINE
  5
1B0
100
AcDbEntity
  8
shape
  6
ByLayer
 62
    0
370
   -1
100
AcDbLine
 10
13.95179283020833
 20
64.06770322916664
 11
16.58658443958333
 21
64.3827320208333
  0
LINE
  5
1B1
100
AcDbEntity
  8
shape
  6
ByLayer
 62
    0
370
   -1
100
AcDbLine
 10
16.58658443958333
 20
64.3827320208333
 11
20.17034505208333
 21
65.42659529166664
  0
LINE
  5
1B2
100
AcDbEntity
  8
shape
  6
ByLayer
 62
    0
370
   -1
100
AcDbLine
 10
20.17034505208333
 20
65.42659529166664
 11
22.16075833157552
 21
66.05216793945308
  0
LINE
  5
1B3
100
AcDbEntity
  8
shape
  6
ByLayer
 62
    0
370
   -1
100
AcDbLine
 10
22.16075833157552
 20
66.05216793945308
 11
24.44936775989583
 21
66.5083250677083
  0
LINE
  5
1B4
100
AcDbEntity
  8
shape
  6
ByLayer
 62
    0
370
   -1
100
AcDbLine
 10
24.44936775989583
 20
66.5083250677083
 11
27.08681552962239
 21
66.80214742252602
  0
LINE
  5
1B5
100
AcDbEntity
  8
shape
  6
ByLayer
 62
    0
370
   -1
100
AcDbLine
 10
27.08681552962239
 20
66.80214742252602
 11
30.12374383333333
 21
66.94071574999998
  0
LINE
  5
1B6
100
AcDbEntity
  8
shape
  6
ByLayer
 62
    0
370
   -1
100
AcDbLine
 10
30.12374383333333
 20
66.94071574999998
 11
31.00430891666666
 21
66.95001585416664
  0
LINE
  5
1B7
100
AcDbEntity
  8
shape
  6
ByLayer
 62
    0
370
   -1
100
AcDbLine
 10
31.00430891666666
 20
66.95001585416664
 11
31.00430891666666
 21
66.95001585416664
  0
LINE
  5
1B8
100
AcDbEntity
  8
shape
  6
ByLayer
 62
    0
370
   -1
100
AcDbLine
 10
41.78814614583332
 20
57.17128572916664
 11
43.12615467167154
 21
57.05834523274737
  0
LINE
  5
1B9
100
AcDbEntity
  8
shape
  6
ByLayer
 62
    0
370
   -1
100
AcDbLine
 10
43.12615467167154
 20
57.05834523274737
 11
44.3891455439453
 21
56.73217248046873
  0
LINE
  5
1BA
100
AcDbEntity
  8
shape
  6
ByLayer
 62
    0
370
   -1
100
AcDbLine
 10
44.3891455439453
 20
56.73217248046873
 11
45.55792529854329
 21
56.21174057779945
  0
LINE
  5
1BB
100
AcDbEntity
  8
shape
  6
ByLayer
 62
    0
370
   -1
100
AcDbLine
 10
45.55792529854329
 20
56.21174057779945
 11
46.61330047135416
 21
55.5160226302083
  0
LINE
  5
1BC
100
AcDbEntity
  8
shape
  6
ByLayer
 62
    0
370
   -1
100
AcDbLine
 10
46.61330047135416
 20
55.5160226302083
 11
47.53607759826659
 21
54.66399174316403
  0
LINE
  5
1BD
100
AcDbEntity
  8
shape
  6
ByLayer
 62
    0
370
   -1
100
AcDbLine
 10
47.53607759826659
 20
54.66399174316403
 11
48.30706321516926
 21
53.67462102213538
  0
LINE
  5
1BE
100
AcDbEntity
  8
shape
  6
ByLayer
 62
    0
370
   -1
100
AcDbLine
 10
48.30706321516926
 20
53.67462102213538
 11
48.90706385795083
 21
52.56688357259112
  0
LINE
  5
1BF
100
AcDbEntity
  8
shape
  6
ByLayer
 62
    0
370
   -1
100
AcDbLine
 10
48.90706385795083
 20
52.56688357259112
 11
49.31688606249999
 21
51.35975249999997
  0
LINE
  5
1C0
100
AcDbEntity
  8
shape
  6
ByLayer
 62
    0
370
   -1
100
AcDbLine
 10
49.31688606249999
 20
51.35975249999997
 11
48.90037368749999
 21
51.35975249999997
  0
LINE
  5
1C1
100
AcDbEntity
  8
shape
  6
ByLayer
 62
    0
370
   -1
100
AcDbLine
 10
48.90037368749999
 20
51.35975249999997
 11
48.90037368749999
 21
47.61011189583331
  0
LINE
  5
1C2
100
AcDbEntity
  8
shape
  6
ByLayer
 62
    0
370
   -1
100
AcDbLine
 10
48.90037368749999
 20
47.61011189583331
 11
49.27812989583332
 21
47.61011189583331
  0
LINE
  5
1C3
100
AcDbEntity
  8
shape
  6
ByLayer
 62
    0
370
   -1
100
AcDbLine
 10
49.27812989583332
 20
47.61011189583331
 11
48.85191594246418
 21
46.43196867142738
  0
LINE
  5
1C4
100
AcDbEntity
  8
shape
  6
ByLayer
 62
    0
370
   -1
100
AcDbLine
 10
48.85191594246418
 20
46.43196867142738
 11
48.24330338606769
 21
45.35217687011716
  0
LINE
  5
1C5
100
AcDbEntity
  8
shape
  6
ByLayer
 62
    0
370
   -1
100
AcDbLine
 10
48.24330338606769
 20
45.35217687011716
 11
47.47062952596027
 21
44.38883954195147
  0
LINE
  5
1C6
100
AcDbEntity
  8
shape
  6
ByLayer
 62
    0
370
   -1
100
AcDbLine
 10
47.47062952596027
 20
44.38883954195147
 11
46.55223166145832
 21
43.56005973697913
  0
LINE
  5
1C7
100
AcDbEntity
  8
shape
  6
ByLayer
 62
    0
370
   -1
100
AcDbLine
 10
46.55223166145832
 20
43.56005973697913
 11
45.50644709187824
 21
42.88394050524899
  0
LINE
  5
1C8
100
AcDbEntity
  8
shape
  6
ByLayer
 62
    0
370
   -1
100
AcDbLine
 10
45.50644709187824
 20
42.88394050524899
 11
44.35161311653645
 21
42.37858489680986
  0
LINE
  5
1C9
100
AcDbEntity
  8
shape
  6
ByLayer
 62
    0
370
   -1
100
AcDbLine
 10
44.35161311653645
 20
42.37858489680986
 11
43.10606703474934
 21
42.06209596171058
  0
LINE
  5
1CA
100
AcDbEntity
  8
shape
  6
ByLayer
 62
    0
370
   -1
100
AcDbLine
 10
43.10606703474934
 20
42.06209596171058
 11
41.78814614583332
 21
41.95257674999996
  0
LINE
  5
1CB
100
AcDbEntity
  8
shape
  6
ByLayer
 62
    0
370
   -1
100
AcDbLine
 10
41.78814614583332
 20
41.95257674999996
 11
40.22568736153157
 21
42.107156100179
  0
LINE
  5
1CC
100
AcDbEntity
  8
shape
  6
ByLayer
 62
    0
370
   -1
100
AcDbLine
 10
40.22568736153157
 20
42.107156100179
 11
38.77077261751302
 21
42.55050374674476
  0
LINE
  5
1CD
100
AcDbEntity
  8
shape
  6
ByLayer
 62
    0
370
   -1
100
AcDbLine
 10
38.77077261751302
 20
42.55050374674476
 11
37.45446541304524
 21
43.2520340837402
  0
LINE
  5
1CE
100
AcDbEntity
  8
shape
  6
ByLayer
 62
    0
370
   -1
100
AcDbLine
 10
37.45446541304524
 20
43.2520340837402
 11
36.30782924739582
 21
44.1811615052083
  0
LINE
  5
1CF
100
AcDbEntity
  8
shape
  6
ByLayer
 62
    0
370
   -1
100
AcDbLine
 10
36.30782924739582
 20
44.1811615052083
 11
35.36192761983234
 21
45.30730040519202
  0
LINE
  5
1D0
100
AcDbEntity
  8
shape
  6
ByLayer
 62
    0
370
   -1
100
AcDbLine
 10
35.36192761983234
 20
45.30730040519202
 11
34.64782402962238
 21
46.59986517773434
  0
LINE
  5
1D1
100
AcDbEntity
  8
shape
  6
ByLayer
 62
    0
370
   -1
100
AcDbLine
 10
34.64782402962238
 20
46.59986517773434
 11
34.19658197603351
 21
48.02827021687823
  0
LINE
  5
1D2
100
AcDbEntity
  8
shape
  6
ByLayer
 62
    0
370
   -1
100
AcDbLine
 10
34.19658197603351
 20
48.02827021687823
 11
34.03926495833333
 21
49.56192991666664
  0
LINE
  5
1D3
100
AcDbEntity
  8
shape
  6
ByLayer
 62
    0
370
   -1
100
AcDbLine
 10
34.03926495833333
 20
49.56192991666664
 11
34.19658197603351
 21
51.0955897301432
  0
LINE
  5
1D4
100
AcDbEntity
  8
shape
  6
ByLayer
 62
    0
370
   -1
100
AcDbLine
 10
34.19658197603351
 20
51.0955897301432
 11
34.64782402962238
 21
52.5239950690104
  0
LINE
  5
1D5
100
AcDbEntity
  8
shape
  6
ByLayer
 62
    0
370
   -1
100
AcDbLine
 10
34.64782402962238
 20
52.5239950690104
 11
35.36192761983234
 21
53.81656026529946
  0
LINE
  5
1D6
100
AcDbEntity
  8
shape
  6
ByLayer
 62
    0
370
   -1
100
AcDbLine
 10
35.36192761983234
 20
53.81656026529946
 11
36.30782924739582
 21
54.94269965104164
  0
LINE
  5
1D7
100
AcDbEntity
  8
shape
  6
ByLayer
 62
    0
370
   -1
100
AcDbLine
 10
36.30782924739582
 20
54.94269965104164
 11
37.45446541304524
 21
55.87182755826821
  0
LINE
  5
1D8
100
AcDbEntity
  8
shape
  6
ByLayer
 62
    0
370
   -1
100
AcDbLine
 10
37.45446541304524
 20
55.87182755826821
 11
38.77077261751302
 21
56.57335831901039
  0
LINE
  5
1D9
100
AcDbEntity
  8
shape
  6
ByLayer
 62
    0
370
   -1
100
AcDbLine
 10
38.77077261751302
 20
56.57335831901039
 11
40.22568736153157
 21
57.01670626529945
  0
LINE
  5
1DA
100
AcDbEntity
  8
shape
  6
ByLayer
 62
    0
370
   -1
100
AcDbLine
 10
40.22568736153157
 20
57.01670626529945
 11
41.78814614583332
 21
57.17128572916664
  0
LINE
  5
1DB
100
AcDbEntity
  8
shape
  6
ByLayer
 62
    0
370
   -1
100
AcDbLine
 10
41.78814614583332
 20
57.17128572916664
 11
41.78814614583332
 21
57.17128572916664
  0
LINE
  5
1DC
100
AcDbEntity
  8
shape
  6
ByLayer
 62
    0
370
   -1
100
AcDbLine
 10
21.52220052083333
 20
56.83487066666663
 11
23.08466006477864
 21
56.68029207613115
  0
LINE
  5
1DD
100
AcDbEntity
  8
shape
  6
ByLayer
 62
    0
370
   -1
100
AcDbLine
 10
23.08466006477864
 20
56.68029207613115
 11
24.53957516536458
 21
56.23694478613278
  0
LINE
  5
1DE
100
AcDbEntity
  8
shape
  6
ByLayer
 62
    0
370
   -1
100
AcDbLine
 10
24.53957516536458
 20
56.23694478613278
 11
25.85588241634114
 21
55.53541449564614
  0
LINE
  5
1DF
100
AcDbEntity
  8
shape
  6
ByLayer
 62
    0
370
   -1
100
AcDbLine
 10
25.85588241634114
 20
55.53541449564614
 11
27.00251841145833
 21
54.60628690364581
  0
LINE
  5
1E0
100
AcDbEntity
  8
shape
  6
ByLayer
 62
    0
370
   -1
100
AcDbLine
 10
27.00251841145833
 20
54.60628690364581
 11
27.94841974446614
 21
53.48014770910642
  0
LINE
  5
1E1
100
AcDbEntity
  8
shape
  6
ByLayer
 62
    0
370
   -1
100
AcDbLine
 10
27.94841974446614
 20
53.48014770910642
 11
28.66252300911458
 21
52.18758261100258
  0
LINE
  5
1E2
100
AcDbEntity
  8
shape
  6
ByLayer
 62
    0
370
   -1
100
AcDbLine
 10
28.66252300911458
 20
52.18758261100258
 11
29.11376479915364
 21
50.75917730830889
  0
LINE
  5
1E3
100
AcDbEntity
  8
shape
  6
ByLayer
 62
    0
370
   -1
100
AcDbLine
 10
29.11376479915364
 20
50.75917730830889
 11
29.27108170833333
 21
49.22551749999997
  0
LINE
  5
1E4
100
AcDbEntity
  8
shape
  6
ByLayer
 62
    0
370
   -1
100
AcDbLine
 10
29.27108170833333
 20
49.22551749999997
 11
29.11376479915364
 21
47.69183464916988
  0
LINE
  5
1E5
100
AcDbEntity
  8
shape
  6
ByLayer
 62
    0
370
   -1
100
AcDbLine
 10
29.11376479915364
 20
47.69183464916988
 11
28.66252300911458
 21
46.26337024414059
  0
LINE
  5
1E6
100
AcDbEntity
  8
shape
  6
ByLayer
 62
    0
370
   -1
100
AcDbLine
 10
28.66252300911458
 20
46.26337024414059
 11
27.94841974446614
 21
44.97072204516599
  0
LINE
  5
1E7
100
AcDbEntity
  8
shape
  6
ByLayer
 62
    0
370
   -1
100
AcDbLine
 10
27.94841974446614
 20
44.97072204516599
 11
27.00251841145833
 21
43.84448781249998
  0
LINE
  5
1E8
100
AcDbEntity
  8
shape
  6
ByLayer
 62
    0
370
   -1
100
AcDbLine
 10
27.00251841145833
 20
43.84448781249998
 11
25.85588241634114
 21
42.91526530639646
  0
LINE
  5
1E9
100
AcDbEntity
  8
shape
  6
ByLayer
 62
    0
370
   -1
100
AcDbLine
 10
25.85588241634114
 20
42.91526530639646
 11
24.53957516536458
 21
42.21365228710935
  0
LINE
  5
1EA
100
AcDbEntity
  8
shape
  6
ByLayer
 62
    0
370
   -1
100
AcDbLine
 10
24.53957516536458
 20
42.21365228710935
 11
23.08466006477864
 21
41.77024651489255
  0
LINE
  5
1EB
100
AcDbEntity
  8
shape
  6
ByLayer
 62
    0
370
   -1
100
AcDbLine
 10
23.08466006477864
 20
41.77024651489255
 11
21.52220052083333
 21
41.61564574999997
  0
LINE
  5
1EC
100
AcDbEntity
  8
shape
  6
ByLayer
 62
    0
370
   -1
100
AcDbLine
 10
21.52220052083333
 20
41.61564574999997
 11
20.16046580445556
 21
41.73267436381019
  0
LINE
  5
1ED
100
AcDbEntity
  8
shape
  6
ByLayer
 62
    0
370
   -1
100
AcDbLine
 10
20.16046580445556
 20
41.73267436381019
 11
18.87680282809244
 21
42.07040873079424
  0
LINE
  5
1EE
100
AcDbEntity
  8
shape
  6
ByLayer
 62
    0
370
   -1
100
AcDbLine
 10
18.87680282809244
 20
42.07040873079424
 11
17.69149232902425
 21
42.6088216392822
  0
LINE
  5
1EF
100
AcDbEntity
  8
shape
  6
ByLayer
 62
    0
370
   -1
100
AcDbLine
 10
17.69149232902425
 20
42.6088216392822
 11
16.62481504453125
 21
43.32788587760414
  0
LINE
  5
1F0
100
AcDbEntity
  8
shape
  6
ByLayer
 62
    0
370
   -1
100
AcDbLine
 10
16.62481504453125
 20
43.32788587760414
 11
15.69705171189371
 21
44.20757423409015
  0
LINE
  5
1F1
100
AcDbEntity
  8
shape
  6
ByLayer
 62
    0
370
   -1
100
AcDbLine
 10
15.69705171189371
 20
44.20757423409015
 11
14.92848306839192
 21
45.22785949707028
  0
LINE
  5
1F2
100
AcDbEntity
  8
shape
  6
ByLayer
 62
    0
370
   -1
100
AcDbLine
 10
14.92848306839192
 20
45.22785949707028
 11
14.33938985130615
 21
46.36871445487465
  0
LINE
  5
1F3
100
AcDbEntity
  8
shape
  6
ByLayer
 62
    0
370
   -1
100
AcDbLine
 10
14.33938985130615
 20
46.36871445487465
 11
13.95005279791666
 21
47.61011189583331
  0
LINE
  5
1F4
100
AcDbEntity
  8
shape
  6
ByLayer
 62
    0
370
   -1
100
AcDbLine
 10
13.95005279791666
 20
47.61011189583331
 11
14.66318769583333
 21
47.61011189583331
  0
LINE
  5
1F5
100
AcDbEntity
  8
shape
  6
ByLayer
 62
    0
370
   -1
100
AcDbLine
 10
14.66318769583333
 20
47.61011189583331
 11
14.66318769583333
 21
51.35975249999997
  0
LINE
  5
1F6
100
AcDbEntity
  8
shape
  6
ByLayer
 62
    0
370
   -1
100
AcDbLine
 10
14.66318769583333
 20
51.35975249999997
 11
14.08492838541666
 21
51.35975249999997
  0
LINE
  5
1F7
100
AcDbEntity
  8
shape
  6
ByLayer
 62
    0
370
   -1
100
AcDbLine
 10
14.08492838541666
 20
51.35975249999997
 11
14.52945211523437
 21
52.50325195271807
  0
LINE
  5
1F8
100
AcDbEntity
  8
shape
  6
ByLayer
 62
    0
370
   -1
100
AcDbLine
 10
14.52945211523437
 20
52.50325195271807
 11
15.14718171927083
 21
53.54979713736976
  0
LINE
  5
1F9
100
AcDbEntity
  8
shape
  6
ByLayer
 62
    0
370
   -1
100
AcDbLine
 10
15.14718171927083
 20
53.54979713736976
 11
15.92081930143229
 21
54.48227809057613
  0
LINE
  5
1FA
100
AcDbEntity
  8
shape
  6
ByLayer
 62
    0
370
   -1
100
AcDbLine
 10
15.92081930143229
 20
54.48227809057613
 11
16.83306696562499
 21
55.2835848489583
  0
LINE
  5
1FB
100
AcDbEntity
  8
shape
  6
ByLayer
 62
    0
370
   -1
100
AcDbLine
 10
16.83306696562499
 20
55.2835848489583
 11
17.8666268157552
 21
55.93660744913734
  0
LINE
  5
1FC
100
AcDbEntity
  8
shape
  6
ByLayer
 62
    0
370
   -1
100
AcDbLine
 10
17.8666268157552
 20
55.93660744913734
 11
19.00420095572916
 21
56.42423592773434
  0
LINE
  5
1FD
100
AcDbEntity
  8
shape
  6
ByLayer
 62
    0
370
   -1
100
AcDbLine
 10
19.00420095572916
 20
56.42423592773434
 11
20.22849148945312
 21
56.72936032137041
  0
LINE
  5
1FE
100
AcDbEntity
  8
shape
  6
ByLayer
 62
    0
370
   -1
100
AcDbLine
 10
20.22849148945312
 20
56.72936032137041
 11
21.52220052083333
 21
56.83487066666663
  0
LINE
  5
1FF
100
AcDbEntity
  8
shape
  6
ByLayer
 62
    0
370
   -1
100
AcDbLine
 10
21.52220052083333
 20
56.83487066666663
 11
21.52220052083333
 21
56.83487066666663
  0
ENDSEC
  0
SECTION
  2
OBJECTS
  0
DICTIONARY
  5
C
330
0
100
AcDbDictionary
281
    1
  3
ACAD_GROUP
350
D
  0
DICTIONARY
  5
D
330
C
100
AcDbDictionary
281
    1
  0
ENDSEC
  0
EOF
