0
SECTION
2
HEADER
9
$ACADVER
1
AC1014
9
$HANDSEED
5
FFFF
0
ENDSEC
0
SECTION
2
TABLES
0
TABLE
2
VPORT
5
8
330
0
100
AcDbSymbolTable
70
4
0
VPORT
5
2E
330
8
100
AcDbSymbolTableRecord
100
AcDbViewportTableRecord
2
*ACTIVE
70
0
10
0.0
20
0.0
11
1.0
21
1.0
12
4.25
22
5.5
13
0.0
23
0.0
14
10.0
24
10.0
15
10.0
25
10.0
16
0.0
26
0.0
36
1.0
17
0.0
27
0.0
37
0.0
40
11
41
1.24
42
50.0
43
0.0
44
0.0
50
0.0
51
0.0
71
0
72
100
73
1
74
3
75
0
76
0
77
0
78
0
0
ENDTAB
0
TABLE
2
LTYPE
5
5
330
0
100
AcDbSymbolTable
70
1
0
LTYPE
5
14
330
5
100
AcDbSymbolTableRecord
100
AcDbLinetypeTableRecord
2
BYBLOCK
70
0
3

72
65
73
0
40
0.0
0
LTYPE
5
15
330
5
100
AcDbSymbolTableRecord
100
AcDbLinetypeTableRecord
2
BYLAYER
70
0
3

72
65
73
0
40
0.0
0
LTYPE
5
16
330
5
100
AcDbSymbolTableRecord
100
AcDbLinetypeTableRecord
2
CONTINUOUS
70
0
3
Solid line
72
65
73
0
40
0.0
0
ENDTAB
0
TABLE
2
LAYER
5
2
330
0
100
AcDbSymbolTable
70
1
0
LAYER
5
10
330
2
100
AcDbSymbolTableRecord
100
AcDbLayerTableRecord
2
0
70
0
62
7
6
CONTINUOUS
0
ENDTAB
0
TABLE
2
STYLE
5
3
330
0
100
AcDbSymbolTable
70
1
0
STYLE
5
11
330
3
100
AcDbSymbolTableRecord
100
AcDbTextStyleTableRecord
2
STANDARD
70
0
40
0.0
41
1.0
50
0.0
71
0
42
2.5
3
txt
4

0
ENDTAB
0
TABLE
2
VIEW
5
6
330
0
100
AcDbSymbolTable
70
0
0
ENDTAB
0
TABLE
2
UCS
5
7
330
0
100
AcDbSymbolTable
70
0
0
ENDTAB
0
TABLE
2
APPID
5
9
330
0
100
AcDbSymbolTable
70
2
0
APPID
5
12
330
9
100
AcDbSymbolTableRecord
100
AcDbRegAppTableRecord
2
ACAD
70
0
0
ENDTAB
0
TABLE
2
DIMSTYLE
5
A
330
0
100
AcDbSymbolTable
70
1
0
DIMSTYLE
105
27
330
A
100
AcDbSymbolTableRecord
100
AcDbDimStyleTableRecord
2
ISO-25
70
0
3

4

5

6

7

40
1.0
41
2.5
42
0.625
43
3.75
44
1.25
45
0.0
46
0.0
47
0.0
48
0.0
140
2.5
141
2.5
142
0.0
143
0.03937007874016
144
1.0
145
0.0
146
1.0
147
0.625
71
0
72
0
73
0
74
0
75
0
76
0
77
1
78
8
170
0
171
3
172
1
173
0
174
0
175
0
176
0
177
0
178
0
270
2
271
2
272
2
273
2
274
3
340
11
275
0
280
0
281
0
282
0
283
0
284
8
285
0
286
0
287
3
288
0
0
ENDTAB
0
TABLE
2
BLOCK_RECORD
5
1
330
0
100
AcDbSymbolTable
70
1
0
BLOCK_RECORD
5
1F
330
1
100
AcDbSymbolTableRecord
100
AcDbBlockTableRecord
2
*MODEL_SPACE
0
BLOCK_RECORD
5
1B
330
1
100
AcDbSymbolTableRecord
100
AcDbBlockTableRecord
2
*PAPER_SPACE
0
ENDTAB
0
ENDSEC
0
SECTION
2
BLOCKS
0
BLOCK
5
20
330
1F
100
AcDbEntity
8
0
100
AcDbBlockBegin
2
*MODEL_SPACE
70
0
10
0.0
20
0.0
30
0.0
3
*MODEL_SPACE
1

0
ENDBLK
5
21
330
1F
100
AcDbEntity
8
0
100
AcDbBlockEnd
0
BLOCK
5
1C
330
1B
100
AcDbEntity
67
1
8
0
100
AcDbBlockBegin
2
*PAPER_SPACE
1

0
ENDBLK
5
1D
330
1B
100
AcDbEntity
67
1
8
0
100
AcDbBlockEnd
0
ENDSEC
0
SECTION
2
ENTITIES
0
LINE
8
shape
62
0
5
100
100
AcDbEntity
100
AcDbLine
10
20.910868293749996
20
39.73410635416664
30
0.0
11
20.635949806249997
21
39.71188664583332
31
0.0
0
LINE
8
shape
62
0
5
101
100
AcDbEntity
100
AcDbLine
10
20.635949806249997
20
39.71188664583332
30
0.0
11
20.12419565142008
21
39.51819791540526
31
0.0
0
LINE
8
shape
62
0
5
102
100
AcDbEntity
100
AcDbLine
10
20.12419565142008
20
39.51819791540526
30
0.0
11
19.747268525813798
21
39.19137495475259
31
0.0
0
LINE
8
shape
62
0
5
103
100
AcDbEntity
100
AcDbLine
10
19.747268525813798
20
39.19137495475259
30
0.0
11
19.27667955494791
21
38.20248403906248
31
0.0
0
LINE
8
shape
62
0
5
104
100
AcDbEntity
100
AcDbLine
10
19.27667955494791
20
38.20248403906248
30
0.0
11
18.62005208333333
21
35.33282610416666
31
0.0
0
LINE
8
shape
62
0
5
105
100
AcDbEntity
100
AcDbLine
10
18.62005208333333
20
35.33282610416666
30
0.0
11
18.016988393924965
21
34.67403175292968
31
0.0
0
LINE
8
shape
62
0
5
106
100
AcDbEntity
100
AcDbLine
10
18.016988393924965
20
34.67403175292968
30
0.0
11
17.578193713378905
21
33.901982423177074
31
0.0
0
LINE
8
shape
62
0
5
107
100
AcDbEntity
100
AcDbLine
10
17.578193713378905
20
33.901982423177074
30
0.0
11
16.923009192447914
21
32.25037801562499
31
0.0
0
LINE
8
shape
62
0
5
108
100
AcDbEntity
100
AcDbLine
10
16.923009192447914
20
32.25037801562499
30
0.0
11
16.571418258850095
21
31.48695253157551
31
0.0
0
LINE
8
shape
62
0
5
109
100
AcDbEntity
100
AcDbLine
10
16.571418258850095
20
31.48695253157551
30
0.0
11
16.113694147688797
21
30.842531256510405
31
0.0
0
LINE
8
shape
62
0
5
10a
100
AcDbEntity
100
AcDbLine
10
16.113694147688797
20
30.842531256510405
30
0.0
11
15.482236312357582
21
30.37517898730468
31
0.0
0
LINE
8
shape
62
0
5
10b
100
AcDbEntity
100
AcDbLine
10
15.482236312357582
20
30.37517898730468
30
0.0
11
14.609444206249997
21
30.142960520833327
31
0.0
0
LINE
8
shape
62
0
5
10c
100
AcDbEntity
100
AcDbLine
10
14.609444206249997
20
30.142960520833327
30
0.0
11
14.450239172009274
21
29.33250365429686
31
0.0
0
LINE
8
shape
62
0
5
10d
100
AcDbEntity
100
AcDbLine
10
14.450239172009274
20
29.33250365429686
30
0.0
11
14.45902809755859
21
28.46569301822915
31
0.0
0
LINE
8
shape
62
0
5
10e
100
AcDbEntity
100
AcDbLine
10
14.45902809755859
20
28.46569301822915
30
0.0
11
14.765804919531247
21
26.646433562499983
31
0.0
0
LINE
8
shape
62
0
5
10f
100
AcDbEntity
100
AcDbLine
10
14.765804919531247
20
26.646433562499983
30
0.0
11
15.10020885517578
21
24.852028403645818
31
0.0
0
LINE
8
shape
62
0
5
110
100
AcDbEntity
100
AcDbLine
10
15.10020885517578
20
24.852028403645818
30
0.0
11
15.14353167281494
21
24.016285638671864
31
0.0
0
LINE
8
shape
62
0
5
111
100
AcDbEntity
100
AcDbLine
10
15.14353167281494
20
24.016285638671864
30
0.0
11
15.032674087499997
21
23.249323791666654
31
0.0
0
LINE
8
shape
62
0
5
112
100
AcDbEntity
100
AcDbLine
10
15.032674087499997
20
23.249323791666654
30
0.0
11
14.995270313736976
21
22.437526857055655
31
0.0
0
LINE
8
shape
62
0
5
113
100
AcDbEntity
100
AcDbLine
10
14.995270313736976
20
22.437526857055655
30
0.0
11
14.756964148567704
21
21.991313592122385
31
0.0
0
LINE
8
shape
62
0
5
114
100
AcDbEntity
100
AcDbLine
10
14.756964148567704
20
21.991313592122385
30
0.0
11
14.36782268789062
21
21.847102172403957
31
0.0
0
LINE
8
shape
62
0
5
115
100
AcDbEntity
100
AcDbLine
10
14.36782268789062
20
21.847102172403957
30
0.0
11
13.877913027604162
21
21.941310773437486
31
0.0
0
LINE
8
shape
62
0
5
116
100
AcDbEntity
100
AcDbLine
10
13.877913027604162
20
21.941310773437486
30
0.0
11
12.796057491796873
21
22.590660739908834
31
0.0
0
LINE
8
shape
62
0
5
117
100
AcDbEntity
100
AcDbLine
10
12.796057491796873
20
22.590660739908834
30
0.0
11
11.911934308333331
21
23.430708895833305
31
0.0
0
LINE
8
shape
62
0
5
118
100
AcDbEntity
100
AcDbLine
10
11.911934308333331
20
23.430708895833305
30
0.0
11
11.276963348937986
21
24.106049053670226
31
0.0
0
LINE
8
shape
62
0
5
119
100
AcDbEntity
100
AcDbLine
10
11.276963348937986
20
24.106049053670226
30
0.0
11
10.583023229264322
21
24.495160760091128
31
0.0
0
LINE
8
shape
62
0
5
11a
100
AcDbEntity
100
AcDbLine
10
10.583023229264322
20
24.495160760091128
30
0.0
11
9.84385521598714
21
24.682072653523747
31
0.0
0
LINE
8
shape
62
0
5
11b
100
AcDbEntity
100
AcDbLine
10
9.84385521598714
20
24.682072653523747
30
0.0
11
9.07320057578125
21
24.750813372395815
31
0.0
0
LINE
8
shape
62
0
5
11c
100
AcDbEntity
100
AcDbLine
10
9.07320057578125
20
24.750813372395815
30
0.0
11
7.492396481282551
21
24.869895840169242
31
0.0
0
LINE
8
shape
62
0
5
11d
100
AcDbEntity
100
AcDbLine
10
7.492396481282551
20
24.869895840169242
30
0.0
11
6.709729560339355
21
25.088294865926073
31
0.0
0
LINE
8
shape
62
0
5
11e
100
AcDbEntity
100
AcDbLine
10
6.709729560339355
20
25.088294865926073
30
0.0
11
5.9505410791666655
21
25.524637270833296
31
0.0
0
LINE
8
shape
62
0
5
11f
100
AcDbEntity
100
AcDbLine
10
5.9505410791666655
20
25.524637270833296
30
0.0
11
4.136402236483072
21
26.36580523437497
31
0.0
0
LINE
8
shape
62
0
5
120
100
AcDbEntity
100
AcDbLine
10
4.136402236483072
20
26.36580523437497
30
0.0
11
2.290875142385416
21
27.098927947916646
31
0.0
0
LINE
8
shape
62
0
5
121
100
AcDbEntity
100
AcDbLine
10
2.290875142385416
20
27.098927947916646
30
0.0
11
0.8483947462408852
21
27.355610161458312
31
0.0
0
LINE
8
shape
62
0
5
122
100
AcDbEntity
100
AcDbLine
10
0.8483947462408852
20
27.355610161458312
30
0.0
11
0.41405798157828766
21
27.190162565104142
31
0.0
0
LINE
8
shape
62
0
5
123
100
AcDbEntity
100
AcDbLine
10
0.41405798157828766
20
27.190162565104142
30
0.0
11
0.24339599741666662
21
26.767456624999966
31
0.0
0
LINE
8
shape
62
0
5
124
100
AcDbEntity
100
AcDbLine
10
0.24339599741666662
20
26.767456624999966
30
0.0
11
0.2889810343264973
21
25.084260636718724
31
0.0
0
LINE
8
shape
62
0
5
125
100
AcDbEntity
100
AcDbLine
10
0.2889810343264973
20
25.084260636718724
30
0.0
11
0.7259335944453122
21
23.543543765624975
31
0.0
0
LINE
8
shape
62
0
5
126
100
AcDbEntity
100
AcDbLine
10
0.7259335944453122
20
23.543543765624975
30
0.0
11
1.2624234250289712
21
22.026249464843723
31
0.0
0
LINE
8
shape
62
0
5
127
100
AcDbEntity
100
AcDbLine
10
1.2624234250289712
20
22.026249464843723
30
0.0
11
1.606620273333333
21
20.413321187499974
31
0.0
0
LINE
8
shape
62
0
5
128
100
AcDbEntity
100
AcDbLine
10
1.606620273333333
20
20.413321187499974
30
0.0
11
2.247411468785806
21
18.92964583723956
31
0.0
0
LINE
8
shape
62
0
5
129
100
AcDbEntity
100
AcDbLine
10
2.247411468785806
20
18.92964583723956
30
0.0
11
2.826614899765624
21
17.34834022916665
31
0.0
0
LINE
8
shape
62
0
5
12a
100
AcDbEntity
100
AcDbLine
10
2.826614899765624
20
17.34834022916665
30
0.0
11
2.9424945379715974
21
16.567015909993472
31
0.0
0
LINE
8
shape
62
0
5
12b
100
AcDbEntity
100
AcDbLine
10
2.9424945379715974
20
16.567015909993472
30
0.0
11
2.86222523633138
21
15.81641182421873
31
0.0
0
LINE
8
shape
62
0
5
12c
100
AcDbEntity
100
AcDbLine
10
2.86222523633138
20
15.81641182421873
30
0.0
11
2.5255563286022946
21
15.114903904459606
31
0.0
0
LINE
8
shape
62
0
5
12d
100
AcDbEntity
100
AcDbLine
10
2.5255563286022946
20
15.114903904459606
30
0.0
11
1.8722371485416665
21
14.480868083333291
31
0.0
0
LINE
8
shape
62
0
5
12e
100
AcDbEntity
100
AcDbLine
10
1.8722371485416665
20
14.480868083333291
30
0.0
11
1.54443257576416
21
14.00821655102536
31
0.0
0
LINE
8
shape
62
0
5
12f
100
AcDbEntity
100
AcDbLine
10
1.54443257576416
20
14.00821655102536
30
0.0
11
1.473905771907552
21
13.534627215494766
31
0.0
0
LINE
8
shape
62
0
5
130
100
AcDbEntity
100
AcDbLine
10
1.473905771907552
20
13.534627215494766
30
0.0
11
1.6081642244669594
21
13.05981314851886
31
0.0
0
LINE
8
shape
62
0
5
131
100
AcDbEntity
100
AcDbLine
10
1.6081642244669594
20
13.05981314851886
30
0.0
11
1.8947154209375
21
12.583487421874981
31
0.0
0
LINE
8
shape
62
0
5
132
100
AcDbEntity
100
AcDbLine
10
1.8947154209375
20
12.583487421874981
30
0.0
11
3.5139973958333326
21
10.657329354166649
31
0.0
0
LINE
8
shape
62
0
5
133
100
AcDbEntity
100
AcDbLine
10
3.5139973958333326
20
10.657329354166649
30
0.0
11
4.558160237011718
21
9.538782972656229
31
0.0
0
LINE
8
shape
62
0
5
134
100
AcDbEntity
100
AcDbLine
10
4.558160237011718
20
9.538782972656229
30
0.0
11
5.859861789322915
21
8.622435473958316
31
0.0
0
LINE
8
shape
62
0
5
135
100
AcDbEntity
100
AcDbLine
10
5.859861789322915
20
8.622435473958316
30
0.0
11
7.236746200618487
21
7.9602735143229015
31
0.0
0
LINE
8
shape
62
0
5
136
100
AcDbEntity
100
AcDbLine
10
7.236746200618487
20
7.9602735143229015
30
0.0
11
8.506457618749998
21
7.604283749999979
31
0.0
0
LINE
8
shape
62
0
5
137
100
AcDbEntity
100
AcDbLine
10
8.506457618749998
20
7.604283749999979
30
0.0
11
8.22772819073893
21
6.740388656901029
31
0.0
0
LINE
8
shape
62
0
5
138
100
AcDbEntity
100
AcDbLine
10
8.22772819073893
20
6.740388656901029
30
0.0
11
7.7408849665364565
21
5.963945466145825
31
0.0
0
LINE
8
shape
62
0
5
139
100
AcDbEntity
100
AcDbLine
10
7.7408849665364565
20
5.963945466145825
30
0.0
11
6.461010038541666
21
4.557455854166658
31
0.0
0
LINE
8
shape
62
0
5
13a
100
AcDbEntity
100
AcDbLine
10
6.461010038541666
20
4.557455854166658
30
0.0
11
5.303138652734374
21
3.152897039062488
31
0.0
0
LINE
8
shape
62
0
5
13b
100
AcDbEntity
100
AcDbLine
10
5.303138652734374
20
3.152897039062488
30
0.0
11
4.9687998562662745
21
2.378867344401029
31
0.0
0
LINE
8
shape
62
0
5
13c
100
AcDbEntity
100
AcDbLine
10
4.9687998562662745
20
2.378867344401029
30
0.0
11
4.903576627083332
21
1.5183511458333214
31
0.0
0
LINE
8
shape
62
0
5
13d
100
AcDbEntity
100
AcDbLine
10
4.903576627083332
20
1.5183511458333214
30
0.0
11
6.312572678320311
21
1.038942558268222
31
0.0
0
LINE
8
shape
62
0
5
13e
100
AcDbEntity
100
AcDbLine
10
6.312572678320311
20
1.038942558268222
30
0.0
11
7.880777368229165
21
0.7889210234374922
31
0.0
0
LINE
8
shape
62
0
5
13f
100
AcDbEntity
100
AcDbLine
10
7.880777368229165
20
0.7889210234374922
30
0.0
11
9.46881677923177
21
0.5057063518880134
31
0.0
0
LINE
8
shape
62
0
5
140
100
AcDbEntity
100
AcDbLine
10
9.46881677923177
20
0.5057063518880134
30
0.0
11
10.937316993749997
21
-0.07328164583333319
31
0.0
0
LINE
8
shape
62
0
5
141
100
AcDbEntity
100
AcDbLine
10
10.937316993749997
20
-0.07328164583333319
30
0.0
11
11.81518671033935
21
0.17295219254556926
31
0.0
0
LINE
8
shape
62
0
5
142
100
AcDbEntity
100
AcDbLine
10
11.81518671033935
20
0.17295219254556926
30
0.0
11
12.64407556240234
21
0.17516904947916068
31
0.0
0
LINE
8
shape
62
0
5
143
100
AcDbEntity
100
AcDbLine
10
12.64407556240234
20
0.17516904947916068
30
0.0
11
14.211891046093747
21
-0.196592692708343
31
0.0
0
LINE
8
shape
62
0
5
144
100
AcDbEntity
100
AcDbLine
10
14.211891046093747
20
-0.196592692708343
30
0.0
11
15.754724191113278
21
-0.4768558958333511
31
0.0
0
LINE
8
shape
62
0
5
145
100
AcDbEntity
100
AcDbLine
10
15.754724191113278
20
-0.4768558958333511
30
0.0
11
16.552385119836423
21
-0.36026586507164016
31
0.0
0
LINE
8
shape
62
0
5
146
100
AcDbEntity
100
AcDbLine
10
16.552385119836423
20
-0.36026586507164016
30
0.0
11
17.386535743749995
21
0.04609041666662961
31
0.0
0
LINE
8
shape
62
0
5
147
100
AcDbEntity
100
AcDbLine
10
17.386535743749995
20
0.04609041666662961
30
0.0
11
17.953289123917635
21
0.21213302062984724
31
0.0
0
LINE
8
shape
62
0
5
148
100
AcDbEntity
100
AcDbLine
10
17.953289123917635
20
0.21213302062984724
30
0.0
11
18.47426488899739
21
0.5676721819661128
31
0.0
0
LINE
8
shape
62
0
5
149
100
AcDbEntity
100
AcDbLine
10
18.47426488899739
20
0.5676721819661128
30
0.0
11
19.41537099635416
21
1.578114898437473
31
0.0
0
LINE
8
shape
62
0
5
14a
100
AcDbEntity
100
AcDbLine
10
19.41537099635416
20
1.578114898437473
30
0.0
11
20.282828910742182
21
2.5391680094400813
31
0.0
0
LINE
8
shape
62
0
5
14b
100
AcDbEntity
100
AcDbLine
10
20.282828910742182
20
2.5391680094400813
30
0.0
11
20.711744434611
21
2.8329701639404066
31
0.0
0
LINE
8
shape
62
0
5
14c
100
AcDbEntity
100
AcDbLine
10
20.711744434611
20
2.8329701639404066
30
0.0
11
21.149613477083328
21
2.912580958333308
31
0.0
0
LINE
8
shape
62
0
5
14d
100
AcDbEntity
100
AcDbLine
10
21.149613477083328
20
2.912580958333308
30
0.0
11
21.528325730936682
21
2.7128453101806462
31
0.0
0
LINE
8
shape
62
0
5
14e
100
AcDbEntity
100
AcDbLine
10
21.528325730936682
20
2.7128453101806462
30
0.0
11
21.96826259189453
21
2.232597698893217
31
0.0
0
LINE
8
shape
62
0
5
14f
100
AcDbEntity
100
AcDbLine
10
21.96826259189453
20
2.232597698893217
30
0.0
11
23.05956128463541
21
0.8024584296874941
31
0.0
0
LINE
8
shape
62
0
5
150
100
AcDbEntity
100
AcDbLine
10
23.05956128463541
20
0.8024584296874941
30
0.0
11
23.724798691174314
21
0.03851269315592026
31
0.0
0
LINE
8
shape
62
0
5
151
100
AcDbEntity
100
AcDbLine
10
23.724798691174314
20
0.03851269315592026
30
0.0
11
24.47901185432942
21
-0.6340531637369824
31
0.0
0
LINE
8
shape
62
0
5
152
100
AcDbEntity
100
AcDbLine
10
24.47901185432942
20
-0.6340531637369824
30
0.0
11
25.329138561478672
21
-1.1222661802978542
31
0.0
0
LINE
8
shape
62
0
5
153
100
AcDbEntity
100
AcDbLine
10
25.329138561478672
20
-1.1222661802978542
30
0.0
11
26.282116599999995
21
-1.3331533958333353
31
0.0
0
LINE
8
shape
62
0
5
154
100
AcDbEntity
100
AcDbLine
10
26.282116599999995
20
-1.3331533958333353
30
0.0
11
27.507975219921875
21
-0.697172163736989
31
0.0
0
LINE
8
shape
62
0
5
155
100
AcDbEntity
100
AcDbLine
10
27.507975219921875
20
-0.697172163736989
30
0.0
11
28.837587184374996
21
-0.3677890234375134
31
0.0
0
LINE
8
shape
62
0
5
156
100
AcDbEntity
100
AcDbLine
10
28.837587184374996
20
-0.3677890234375134
30
0.0
11
31.610990562499993
21
-0.19265635416667237
31
0.0
0
LINE
8
shape
62
0
5
157
100
AcDbEntity
100
AcDbLine
10
31.610990562499993
20
-0.19265635416667237
30
0.0
11
32.00287741735839
21
0.31299970104980035
31
0.0
0
LINE
8
shape
62
0
5
158
100
AcDbEntity
100
AcDbLine
10
32.00287741735839
20
0.31299970104980035
30
0.0
11
32.67023666699218
21
0.6696476422525999
31
0.0
0
LINE
8
shape
62
0
5
159
100
AcDbEntity
100
AcDbLine
10
32.67023666699218
20
0.6696476422525999
30
0.0
11
34.271613773437494
21
1.1523593046874936
31
0.0
0
LINE
8
shape
62
0
5
15a
100
AcDbEntity
100
AcDbLine
10
34.271613773437494
20
1.1523593046874936
30
0.0
11
34.925752341674794
21
1.386643086954745
31
0.0
0
LINE
8
shape
62
0
5
15b
100
AcDbEntity
100
AcDbLine
10
34.925752341674794
20
1.386643086954745
30
0.0
11
35.29560472753906
21
1.6883588772786373
31
0.0
0
LINE
8
shape
62
0
5
15c
100
AcDbEntity
100
AcDbLine
10
35.29560472753906
20
1.6883588772786373
30
0.0
11
35.24123128674316
21
2.1116167061767492
31
0.0
0
LINE
8
shape
62
0
5
15d
100
AcDbEntity
100
AcDbLine
10
35.24123128674316
20
2.1116167061767492
30
0.0
11
34.62269237499999
21
2.7105266041666596
31
0.0
0
LINE
8
shape
62
0
5
15e
100
AcDbEntity
100
AcDbLine
10
34.62269237499999
20
2.7105266041666596
30
0.0
11
33.96867627473958
21
3.7286164817708256
31
0.0
0
LINE
8
shape
62
0
5
15f
100
AcDbEntity
100
AcDbLine
10
33.96867627473958
20
3.7286164817708256
30
0.0
11
33.39927690104166
21
5.110420468749986
31
0.0
0
LINE
8
shape
62
0
5
160
100
AcDbEntity
100
AcDbLine
10
33.39927690104166
20
5.110420468749986
30
0.0
11
33.26891619661458
21
5.769424750325504
31
0.0
0
LINE
8
shape
62
0
5
161
100
AcDbEntity
100
AcDbLine
10
33.26891619661458
20
5.769424750325504
30
0.0
11
33.30683892578124
21
6.317408955729149
31
0.0
0
LINE
8
shape
62
0
5
162
100
AcDbEntity
100
AcDbLine
10
33.30683892578124
20
6.317408955729149
30
0.0
11
33.56208817252603
21
6.687056883789046
31
0.0
0
LINE
8
shape
62
0
5
163
100
AcDbEntity
100
AcDbLine
10
33.56208817252603
20
6.687056883789046
30
0.0
11
34.08370702083333
21
6.811052333333322
31
0.0
0
LINE
8
shape
62
0
5
164
100
AcDbEntity
100
AcDbLine
10
34.08370702083333
20
6.811052333333322
30
0.0
11
35.62737531901041
21
7.296905509440098
31
0.0
0
LINE
8
shape
62
0
5
165
100
AcDbEntity
100
AcDbLine
10
35.62737531901041
20
7.296905509440098
30
0.0
11
37.05195829687499
21
8.161276976562494
31
0.0
0
LINE
8
shape
62
0
5
166
100
AcDbEntity
100
AcDbLine
10
37.05195829687499
20
8.161276976562494
30
0.0
11
39.63582422916666
21
10.226862854166654
31
0.0
0
LINE
8
shape
62
0
5
167
100
AcDbEntity
100
AcDbLine
10
39.63582422916666
20
10.226862854166654
30
0.0
11
40.04094334094238
21
10.660487430135078
31
0.0
0
LINE
8
shape
62
0
5
168
100
AcDbEntity
100
AcDbLine
10
40.04094334094238
20
10.660487430135078
30
0.0
11
40.203949510091135
21
11.078648918945294
31
0.0
0
LINE
8
shape
62
0
5
169
100
AcDbEntity
100
AcDbLine
10
40.203949510091135
20
11.078648918945294
30
0.0
11
40.03782255468749
21
11.90021320052081
31
0.0
0
LINE
8
shape
62
0
5
16a
100
AcDbEntity
100
AcDbLine
10
40.03782255468749
20
11.90021320052081
30
0.0
11
39.60584243131509
21
12.754816829752581
31
0.0
0
LINE
8
shape
62
0
5
16b
100
AcDbEntity
100
AcDbLine
10
39.60584243131509
20
12.754816829752581
30
0.0
11
39.376408208333324
21
13.70572093749999
31
0.0
0
LINE
8
shape
62
0
5
16c
100
AcDbEntity
100
AcDbLine
10
39.376408208333324
20
13.70572093749999
30
0.0
11
39.42035524678547
21
14.367298886271147
31
0.0
0
LINE
8
shape
62
0
5
16d
100
AcDbEntity
100
AcDbLine
10
39.42035524678547
20
14.367298886271147
30
0.0
11
39.683818777669266
21
14.963490035481758
31
0.0
0
LINE
8
shape
62
0
5
16e
100
AcDbEntity
100
AcDbLine
10
39.683818777669266
20
14.963490035481758
30
0.0
11
40.60288590364583
21
16.010503377604156
31
0.0
0
LINE
8
shape
62
0
5
16f
100
AcDbEntity
100
AcDbLine
10
40.60288590364583
20
16.010503377604156
30
0.0
11
41.60079076009114
21
16.948343848632803
31
0.0
0
LINE
8
shape
62
0
5
170
100
AcDbEntity
100
AcDbLine
10
41.60079076009114
20
16.948343848632803
30
0.0
11
41.962801454060866
21
17.40806890897623
31
0.0
0
LINE
8
shape
62
0
5
171
100
AcDbEntity
100
AcDbLine
10
41.962801454060866
20
17.40806890897623
30
0.0
11
42.144714520833325
21
17.878594333333325
31
0.0
0
LINE
8
shape
62
0
5
172
100
AcDbEntity
100
AcDbLine
10
42.144714520833325
20
17.878594333333325
30
0.0
11
42.20086414778645
21
19.256559836263
31
0.0
0
LINE
8
shape
62
0
5
173
100
AcDbEntity
100
AcDbLine
10
42.20086414778645
20
19.256559836263
30
0.0
11
42.15117564583333
21
20.423584044270815
31
0.0
0
LINE
8
shape
62
0
5
174
100
AcDbEntity
100
AcDbLine
10
42.15117564583333
20
20.423584044270815
30
0.0
11
42.4096070032552
21
21.48780919368488
31
0.0
0
LINE
8
shape
62
0
5
175
100
AcDbEntity
100
AcDbLine
10
42.4096070032552
20
21.48780919368488
30
0.0
11
42.78372950056965
21
22.015166570271788
31
0.0
0
LINE
8
shape
62
0
5
176
100
AcDbEntity
100
AcDbLine
10
42.78372950056965
20
22.015166570271788
30
0.0
11
43.390116208333325
21
22.557377520833313
31
0.0
0
LINE
8
shape
62
0
5
177
100
AcDbEntity
100
AcDbLine
10
43.390116208333325
20
22.557377520833313
30
0.0
11
44.086723652018215
21
23.17222106640623
31
0.0
0
LINE
8
shape
62
0
5
178
100
AcDbEntity
100
AcDbLine
10
44.086723652018215
20
23.17222106640623
30
0.0
11
44.64492813281249
21
24.04794344791665
31
0.0
0
LINE
8
shape
62
0
5
179
100
AcDbEntity
100
AcDbLine
10
44.64492813281249
20
24.04794344791665
30
0.0
11
44.92325090657552
21
25.001330298177066
31
0.0
0
LINE
8
shape
62
0
5
17a
100
AcDbEntity
100
AcDbLine
10
44.92325090657552
20
25.001330298177066
30
0.0
11
44.78021322916666
21
25.849167249999965
31
0.0
0
LINE
8
shape
62
0
5
17b
100
AcDbEntity
100
AcDbLine
10
44.78021322916666
20
25.849167249999965
30
0.0
11
44.17761927180989
21
26.407108305012997
31
0.0
0
LINE
8
shape
62
0
5
17c
100
AcDbEntity
100
AcDbLine
10
44.17761927180989
20
26.407108305012997
30
0.0
11
43.495183242187494
21
26.561026393229145
31
0.0
0
LINE
8
shape
62
0
5
17d
100
AcDbEntity
100
AcDbLine
10
43.495183242187494
20
26.561026393229145
30
0.0
11
42.715901278971344
21
26.38188152441404
31
0.0
0
LINE
8
shape
62
0
5
17e
100
AcDbEntity
100
AcDbLine
10
42.715901278971344
20
26.38188152441404
30
0.0
11
41.822769520833326
21
25.94063370833331
31
0.0
0
LINE
8
shape
62
0
5
17f
100
AcDbEntity
100
AcDbLine
10
41.822769520833326
20
25.94063370833331
30
0.0
11
40.43560503417968
21
25.272702550455698
31
0.0
0
LINE
8
shape
62
0
5
180
100
AcDbEntity
100
AcDbLine
10
40.43560503417968
20
25.272702550455698
30
0.0
11
39.11404969010416
21
24.873512570312467
31
0.0
0
LINE
8
shape
62
0
5
181
100
AcDbEntity
100
AcDbLine
10
39.11404969010416
20
24.873512570312467
30
0.0
11
37.752494803059896
21
24.416704773762987
31
0.0
0
LINE
8
shape
62
0
5
182
100
AcDbEntity
100
AcDbLine
10
37.752494803059896
20
24.416704773762987
30
0.0
11
36.24533168749999
21
23.575920166666634
31
0.0
0
LINE
8
shape
62
0
5
183
100
AcDbEntity
100
AcDbLine
10
36.24533168749999
20
23.575920166666634
30
0.0
11
34.96883174316405
21
23.80588607812497
31
0.0
0
LINE
8
shape
62
0
5
184
100
AcDbEntity
100
AcDbLine
10
34.96883174316405
20
23.80588607812497
30
0.0
11
33.736743351562495
21
23.794996489583305
31
0.0
0
LINE
8
shape
62
0
5
185
100
AcDbEntity
100
AcDbLine
10
33.736743351562495
20
23.794996489583305
30
0.0
11
32.575688143554686
21
23.397195447916637
31
0.0
0
LINE
8
shape
62
0
5
186
100
AcDbEntity
100
AcDbLine
10
32.575688143554686
20
23.397195447916637
30
0.0
11
31.512287749999995
21
22.46642699999998
31
0.0
0
LINE
8
shape
62
0
5
187
100
AcDbEntity
100
AcDbLine
10
31.512287749999995
20
22.46642699999998
30
0.0
11
30.93596399275716
21
21.898042096679667
31
0.0
0
LINE
8
shape
62
0
5
188
100
AcDbEntity
100
AcDbLine
10
30.93596399275716
20
21.898042096679667
30
0.0
11
30.38275280924479
21
21.597510859374978
31
0.0
0
LINE
8
shape
62
0
5
189
100
AcDbEntity
100
AcDbLine
10
30.38275280924479
20
21.597510859374978
30
0.0
11
29.874927878662106
21
21.53904062988279
31
0.0
0
LINE
8
shape
62
0
5
18a
100
AcDbEntity
100
AcDbLine
10
29.874927878662106
20
21.53904062988279
30
0.0
11
29.43476288020833
21
21.69683874999998
31
0.0
0
LINE
8
shape
62
0
5
18b
100
AcDbEntity
100
AcDbLine
10
29.43476288020833
20
21.69683874999998
30
0.0
11
29.08453149308268
21
22.045112561523418
31
0.0
0
LINE
8
shape
62
0
5
18c
100
AcDbEntity
100
AcDbLine
10
29.08453149308268
20
22.045112561523418
30
0.0
11
28.84650739648437
21
22.558069406249984
31
0.0
0
LINE
8
shape
62
0
5
18d
100
AcDbEntity
100
AcDbLine
10
28.84650739648437
20
22.558069406249984
30
0.0
11
28.74296426961262
21
23.209916625976554
31
0.0
0
LINE
8
shape
62
0
5
18e
100
AcDbEntity
100
AcDbLine
10
28.74296426961262
20
23.209916625976554
30
0.0
11
28.79617579166666
21
23.974861562499996
31
0.0
0
LINE
8
shape
62
0
5
18f
100
AcDbEntity
100
AcDbLine
10
28.79617579166666
20
23.974861562499996
30
0.0
11
28.995237377604163
21
25.79477119042968
31
0.0
0
LINE
8
shape
62
0
5
190
100
AcDbEntity
100
AcDbLine
10
28.995237377604163
20
25.79477119042968
30
0.0
11
28.898670744791662
21
27.544862320312497
31
0.0
0
LINE
8
shape
62
0
5
191
100
AcDbEntity
100
AcDbLine
10
28.898670744791662
20
27.544862320312497
30
0.0
11
28.483533541666663
21
31.048332937499993
31
0.0
0
LINE
8
shape
62
0
5
192
100
AcDbEntity
100
AcDbLine
10
28.483533541666663
20
31.048332937499993
30
0.0
11
27.437863166666663
21
30.79627663281249
31
0.0
0
LINE
8
shape
62
0
5
193
100
AcDbEntity
100
AcDbLine
10
27.437863166666663
20
30.79627663281249
30
0.0
11
26.397663515104163
21
30.69565790624998
31
0.0
0
LINE
8
shape
62
0
5
194
100
AcDbEntity
100
AcDbLine
10
26.397663515104163
20
30.69565790624998
30
0.0
11
25.94717657511393
21
30.806529402343727
31
0.0
0
LINE
8
shape
62
0
5
195
100
AcDbEntity
100
AcDbLine
10
25.94717657511393
20
30.806529402343727
30
0.0
11
25.57913095338541
21
31.080530414062476
31
0.0
0
LINE
8
shape
62
0
5
196
100
AcDbEntity
100
AcDbLine
10
25.57913095338541
20
31.080530414062476
30
0.0
11
25.320551195719396
21
31.559417648437474
31
0.0
0
LINE
8
shape
62
0
5
197
100
AcDbEntity
100
AcDbLine
10
25.320551195719396
20
31.559417648437474
30
0.0
11
25.19846184791666
21
32.28494781249998
31
0.0
0
LINE
8
shape
62
0
5
198
100
AcDbEntity
100
AcDbLine
10
25.19846184791666
20
32.28494781249998
30
0.0
11
25.066144351302075
21
33.73225783723956
31
0.0
0
LINE
8
shape
62
0
5
199
100
AcDbEntity
100
AcDbLine
10
25.066144351302075
20
33.73225783723956
30
0.0
11
24.536094207812493
21
35.10519249479164
31
0.0
0
LINE
8
shape
62
0
5
19a
100
AcDbEntity
100
AcDbLine
10
24.536094207812493
20
35.10519249479164
30
0.0
11
23.72550810885416
21
36.275037285156216
31
0.0
0
LINE
8
shape
62
0
5
19b
100
AcDbEntity
100
AcDbLine
10
23.72550810885416
20
36.275037285156216
30
0.0
11
22.75158274583333
21
37.11307770833332
31
0.0
0
LINE
8
shape
62
0
5
19c
100
AcDbEntity
100
AcDbLine
10
22.75158274583333
20
37.11307770833332
30
0.0
11
21.959682228808592
21
38.16618382584633
31
0.0
0
LINE
8
shape
62
0
5
19d
100
AcDbEntity
100
AcDbLine
10
21.959682228808592
20
38.16618382584633
30
0.0
11
21.688125392447915
21
39.00405247656248
31
0.0
0
LINE
8
shape
62
0
5
19e
100
AcDbEntity
100
AcDbLine
10
21.688125392447915
20
39.00405247656248
30
0.0
11
21.488118619759113
21
39.551690904622376
31
0.0
0
LINE
8
shape
62
0
5
19f
100
AcDbEntity
100
AcDbLine
10
21.488118619759113
20
39.551690904622376
30
0.0
11
20.910868293749996
21
39.73410635416664
31
0.0
0
LINE
8
shape
62
0
5
1a0
100
AcDbEntity
100
AcDbLine
10
20.910868293749996
20
39.73410635416664
30
0.0
11
20.910868293749996
21
39.73410635416664
31
0.0
0
ENDSEC
0
SECTION
2
OBJECTS
0
DICTIONARY
5
C
330
0
100
AcDbDictionary
3
ACAD_GROUP
350
D
3
ACAD_MLINESTYLE
350
17
0
DICTIONARY
5
D
330
C
100
AcDbDictionary
0
DICTIONARY
5
1A
330
C
100
AcDbDictionary
0
DICTIONARY
5
17
330
C
100
AcDbDictionary
3
STANDARD
350
18
0
DICTIONARY
5
19
330
C
100
AcDbDictionary
0
ENDSEC
0
EOF
