0
SECTION
2
HEADER
9
$ACADVER
1
AC1014
9
$HANDSEED
5
FFFF
0
ENDSEC
0
SECTION
2
TABLES
0
TABLE
2
VPORT
5
8
330
0
100
AcDbSymbolTable
70
4
0
VPORT
5
2E
330
8
100
AcDbSymbolTableRecord
100
AcDbViewportTableRecord
2
*ACTIVE
70
0
10
0.0
20
0.0
11
1.0
21
1.0
12
4.25
22
5.5
13
0.0
23
0.0
14
10.0
24
10.0
15
10.0
25
10.0
16
0.0
26
0.0
36
1.0
17
0.0
27
0.0
37
0.0
40
11
41
1.24
42
50.0
43
0.0
44
0.0
50
0.0
51
0.0
71
0
72
100
73
1
74
3
75
0
76
0
77
0
78
0
0
ENDTAB
0
TABLE
2
LTYPE
5
5
330
0
100
AcDbSymbolTable
70
1
0
LTYPE
5
14
330
5
100
AcDbSymbolTableRecord
100
AcDbLinetypeTableRecord
2
BYBLOCK
70
0
3

72
65
73
0
40
0.0
0
LTYPE
5
15
330
5
100
AcDbSymbolTableRecord
100
AcDbLinetypeTableRecord
2
BYLAYER
70
0
3

72
65
73
0
40
0.0
0
LTYPE
5
16
330
5
100
AcDbSymbolTableRecord
100
AcDbLinetypeTableRecord
2
CONTINUOUS
70
0
3
Solid line
72
65
73
0
40
0.0
0
ENDTAB
0
TABLE
2
LAYER
5
2
330
0
100
AcDbSymbolTable
70
1
0
LAYER
5
10
330
2
100
AcDbSymbolTableRecord
100
AcDbLayerTableRecord
2
0
70
0
62
7
6
CONTINUOUS
0
ENDTAB
0
TABLE
2
STYLE
5
3
330
0
100
AcDbSymbolTable
70
1
0
STYLE
5
11
330
3
100
AcDbSymbolTableRecord
100
AcDbTextStyleTableRecord
2
STANDARD
70
0
40
0.0
41
1.0
50
0.0
71
0
42
2.5
3
txt
4

0
ENDTAB
0
TABLE
2
VIEW
5
6
330
0
100
AcDbSymbolTable
70
0
0
ENDTAB
0
TABLE
2
UCS
5
7
330
0
100
AcDbSymbolTable
70
0
0
ENDTAB
0
TABLE
2
APPID
5
9
330
0
100
AcDbSymbolTable
70
2
0
APPID
5
12
330
9
100
AcDbSymbolTableRecord
100
AcDbRegAppTableRecord
2
ACAD
70
0
0
ENDTAB
0
TABLE
2
DIMSTYLE
5
A
330
0
100
AcDbSymbolTable
70
1
0
DIMSTYLE
105
27
330
A
100
AcDbSymbolTableRecord
100
AcDbDimStyleTableRecord
2
ISO-25
70
0
3

4

5

6

7

40
1.0
41
2.5
42
0.625
43
3.75
44
1.25
45
0.0
46
0.0
47
0.0
48
0.0
140
2.5
141
2.5
142
0.0
143
0.03937007874016
144
1.0
145
0.0
146
1.0
147
0.625
71
0
72
0
73
0
74
0
75
0
76
0
77
1
78
8
170
0
171
3
172
1
173
0
174
0
175
0
176
0
177
0
178
0
270
2
271
2
272
2
273
2
274
3
340
11
275
0
280
0
281
0
282
0
283
0
284
8
285
0
286
0
287
3
288
0
0
ENDTAB
0
TABLE
2
BLOCK_RECORD
5
1
330
0
100
AcDbSymbolTable
70
1
0
BLOCK_RECORD
5
1F
330
1
100
AcDbSymbolTableRecord
100
AcDbBlockTableRecord
2
*MODEL_SPACE
0
BLOCK_RECORD
5
1B
330
1
100
AcDbSymbolTableRecord
100
AcDbBlockTableRecord
2
*PAPER_SPACE
0
ENDTAB
0
ENDSEC
0
SECTION
2
BLOCKS
0
BLOCK
5
20
330
1F
100
AcDbEntity
8
0
100
AcDbBlockBegin
2
*MODEL_SPACE
70
0
10
0.0
20
0.0
30
0.0
3
*MODEL_SPACE
1

0
ENDBLK
5
21
330
1F
100
AcDbEntity
8
0
100
AcDbBlockEnd
0
BLOCK
5
1C
330
1B
100
AcDbEntity
67
1
8
0
100
AcDbBlockBegin
2
*PAPER_SPACE
1

0
ENDBLK
5
1D
330
1B
100
AcDbEntity
67
1
8
0
100
AcDbBlockEnd
0
ENDSEC
0
SECTION
2
ENTITIES
0
LINE
8
shape
62
0
5
100
100
AcDbEntity
100
AcDbLine
10
29.767826811631995
20
47.245945464974
30
0.0
11
29.29708864869799
21
47.220590622526004
31
0.0
0
LINE
8
shape
62
0
5
101
100
AcDbEntity
100
AcDbLine
10
29.29708864869799
20
47.220590622526004
30
0.0
11
27.392082448698496
21
46.89445852876125
31
0.0
0
LINE
8
shape
62
0
5
102
100
AcDbEntity
100
AcDbLine
10
27.392082448698496
20
46.89445852876125
30
0.0
11
25.406061261744792
21
46.123121620052
31
0.0
0
LINE
8
shape
62
0
5
103
100
AcDbEntity
100
AcDbLine
10
25.406061261744792
20
46.123121620052
30
0.0
11
25.404407721874993
21
46.123121620052
31
0.0
0
LINE
8
shape
62
0
5
104
100
AcDbEntity
100
AcDbLine
10
25.404407721874993
20
46.123121620052
30
0.0
11
23.537599838034417
21
44.9834709820105
31
0.0
0
LINE
8
shape
62
0
5
105
100
AcDbEntity
100
AcDbLine
10
23.537599838034417
20
44.9834709820105
30
0.0
11
22.017741321874993
21
43.575956198394
31
0.0
0
LINE
8
shape
62
0
5
106
100
AcDbEntity
100
AcDbLine
10
22.017741321874993
20
43.575956198394
30
0.0
11
21.32776269255819
21
42.620778998952034
31
0.0
0
LINE
8
shape
62
0
5
107
100
AcDbEntity
100
AcDbLine
10
21.32776269255819
20
42.620778998952034
30
0.0
11
20.69344776198342
21
41.428314753610756
31
0.0
0
LINE
8
shape
62
0
5
108
100
AcDbEntity
100
AcDbLine
10
20.69344776198342
20
41.428314753610756
30
0.0
11
19.609481998168395
21
38.62494061046
31
0.0
0
LINE
8
shape
62
0
5
109
100
AcDbEntity
100
AcDbLine
10
19.609481998168395
20
38.62494061046
30
0.0
11
19.049648826694195
21
36.452222312095756
31
0.0
0
LINE
8
shape
62
0
5
10a
100
AcDbEntity
100
AcDbLine
10
19.049648826694195
20
36.452222312095756
30
0.0
11
18.767776299999994
21
34.55476590872401
31
0.0
0
LINE
8
shape
62
0
5
10b
100
AcDbEntity
100
AcDbLine
10
18.767776299999994
20
34.55476590872401
30
0.0
11
16.800489163793394
21
35.23055543329001
31
0.0
0
LINE
8
shape
62
0
5
10c
100
AcDbEntity
100
AcDbLine
10
16.800489163793394
20
35.23055543329001
30
0.0
11
16.798835623923594
21
35.232209255382
31
0.0
0
LINE
8
shape
62
0
5
10d
100
AcDbEntity
100
AcDbLine
10
16.798835623923594
20
35.232209255382
30
0.0
11
14.30064171590957
21
36.010860657959746
31
0.0
0
LINE
8
shape
62
0
5
10e
100
AcDbEntity
100
AcDbLine
10
14.30064171590957
20
36.010860657959746
30
0.0
11
12.269499796119797
21
36.277314750868
31
0.0
0
LINE
8
shape
62
0
5
10f
100
AcDbEntity
100
AcDbLine
10
12.269499796119797
20
36.277314750868
30
0.0
11
12.265641536423596
21
36.277314750868
31
0.0
0
LINE
8
shape
62
0
5
110
100
AcDbEntity
100
AcDbLine
10
12.265641536423596
20
36.277314750868
30
0.0
11
12.261782994505197
21
36.277314750868
31
0.0
0
LINE
8
shape
62
0
5
111
100
AcDbEntity
100
AcDbLine
10
12.261782994505197
20
36.277314750868
30
0.0
11
10.711369414050294
21
36.15401297411847
31
0.0
0
LINE
8
shape
62
0
5
112
100
AcDbEntity
100
AcDbLine
10
10.711369414050294
20
36.15401297411847
30
0.0
11
9.213170424275672
21
35.83636126058875
31
0.0
0
LINE
8
shape
62
0
5
113
100
AcDbEntity
100
AcDbLine
10
9.213170424275672
20
35.83636126058875
30
0.0
11
7.770013494750364
21
35.32412069154766
31
0.0
0
LINE
8
shape
62
0
5
114
100
AcDbEntity
100
AcDbLine
10
7.770013494750364
20
35.32412069154766
30
0.0
11
6.384726095043399
21
34.61705234826401
31
0.0
0
LINE
8
shape
62
0
5
115
100
AcDbEntity
100
AcDbLine
10
6.384726095043399
20
34.61705234826401
30
0.0
11
5.097547647670346
21
33.73943567431213
31
0.0
0
LINE
8
shape
62
0
5
116
100
AcDbEntity
100
AcDbLine
10
5.097547647670346
20
33.73943567431213
30
0.0
11
3.9444979140484766
21
32.714955153591006
31
0.0
0
LINE
8
shape
62
0
5
117
100
AcDbEntity
100
AcDbLine
10
3.9444979140484766
20
32.714955153591006
30
0.0
11
2.9270462867079234
21
31.545432177623887
31
0.0
0
LINE
8
shape
62
0
5
118
100
AcDbEntity
100
AcDbLine
10
2.9270462867079234
20
31.545432177623887
30
0.0
11
2.0466621581788194
21
30.232688137934005
31
0.0
0
LINE
8
shape
62
0
5
119
100
AcDbEntity
100
AcDbLine
10
2.0466621581788194
20
30.232688137934005
30
0.0
11
2.0450085336423593
21
30.230483982552002
31
0.0
0
LINE
8
shape
62
0
5
11a
100
AcDbEntity
100
AcDbLine
10
2.0450085336423593
20
30.230483982552002
30
0.0
11
2.0450085336423593
21
30.228277004948012
31
0.0
0
LINE
8
shape
62
0
5
11b
100
AcDbEntity
100
AcDbLine
10
2.0450085336423593
20
30.228277004948012
30
0.0
11
1.1427150562984707
21
28.421090915648918
31
0.0
0
LINE
8
shape
62
0
5
11c
100
AcDbEntity
100
AcDbLine
10
1.1427150562984707
20
28.421090915648918
30
0.0
11
0.5003145344384848
21
26.45398723269176
31
0.0
0
LINE
8
shape
62
0
5
11d
100
AcDbEntity
100
AcDbLine
10
0.5003145344384848
20
26.45398723269176
30
0.0
11
0.11611499878937762
21
24.33067409120123
31
0.0
0
LINE
8
shape
62
0
5
11e
100
AcDbEntity
100
AcDbLine
10
0.11611499878937762
20
24.33067409120123
30
0.0
11
-0.011575519921874998
21
22.05485962630202
31
0.0
0
LINE
8
shape
62
0
5
11f
100
AcDbEntity
100
AcDbLine
10
-0.011575519921874998
20
22.05485962630202
30
0.0
11
0.08249395453392638
21
19.98731822173945
31
0.0
0
LINE
8
shape
62
0
5
120
100
AcDbEntity
100
AcDbLine
10
0.08249395453392638
20
19.98731822173945
30
0.0
11
0.3640807279433349
21
17.889036998764013
31
0.0
0
LINE
8
shape
62
0
5
121
100
AcDbEntity
100
AcDbLine
10
0.3640807279433349
20
17.889036998764013
30
0.0
11
0.832252325369357
21
15.760307528186068
31
0.0
0
LINE
8
shape
62
0
5
122
100
AcDbEntity
100
AcDbLine
10
0.832252325369357
20
15.760307528186068
30
0.0
11
1.4860762718749996
21
13.601421380816006
31
0.0
0
LINE
8
shape
62
0
5
123
100
AcDbEntity
100
AcDbLine
10
1.4860762718749996
20
13.601421380816006
30
0.0
11
1.4860762718749996
21
13.599217225434018
31
0.0
0
LINE
8
shape
62
0
5
124
100
AcDbEntity
100
AcDbLine
10
1.4860762718749996
20
13.599217225434018
30
0.0
11
3.0734959851868666
21
9.818562637012262
31
0.0
0
LINE
8
shape
62
0
5
125
100
AcDbEntity
100
AcDbLine
10
3.0734959851868666
20
9.818562637012262
30
0.0
11
5.052990088793399
21
6.517203894184021
31
0.0
0
LINE
8
shape
62
0
5
126
100
AcDbEntity
100
AcDbLine
10
5.052990088793399
20
6.517203894184021
30
0.0
11
6.891671884570848
21
4.097458268048513
31
0.0
0
LINE
8
shape
62
0
5
127
100
AcDbEntity
100
AcDbLine
10
6.891671884570848
20
4.097458268048513
30
0.0
11
8.435797946874997
21
2.4745910125000137
31
0.0
0
LINE
8
shape
62
0
5
128
100
AcDbEntity
100
AcDbLine
10
8.435797946874997
20
2.4745910125000137
30
0.0
11
9.534332576278977
21
1.5904851682257592
31
0.0
0
LINE
8
shape
62
0
5
129
100
AcDbEntity
100
AcDbLine
10
9.534332576278977
20
1.5904851682257592
30
0.0
11
10.656788659216048
21
0.9606057872670064
31
0.0
0
LINE
8
shape
62
0
5
12a
100
AcDbEntity
100
AcDbLine
10
10.656788659216048
20
0.9606057872670064
30
0.0
11
11.79860282146219
21
0.5950705354937562
31
0.0
0
LINE
8
shape
62
0
5
12b
100
AcDbEntity
100
AcDbLine
10
11.79860282146219
20
0.5950705354937562
30
0.0
11
12.955211688793396
21
0.5039970787760097
31
0.0
0
LINE
8
shape
62
0
5
12c
100
AcDbEntity
100
AcDbLine
10
12.955211688793396
20
0.5039970787760097
30
0.0
11
14.648340983253895
21
0.7786035127090116
31
0.0
0
LINE
8
shape
62
0
5
12d
100
AcDbEntity
100
AcDbLine
10
14.648340983253895
20
0.7786035127090116
30
0.0
11
16.716704448168397
21
1.4862629792100108
31
0.0
0
LINE
8
shape
62
0
5
12e
100
AcDbEntity
100
AcDbLine
10
16.716704448168397
20
1.4862629792100108
30
0.0
11
18.786416335476723
21
2.132063220026261
31
0.0
0
LINE
8
shape
62
0
5
12f
100
AcDbEntity
100
AcDbLine
10
18.786416335476723
20
2.132063220026261
30
0.0
11
20.691517397413193
21
2.3434028450520117
31
0.0
0
LINE
8
shape
62
0
5
130
100
AcDbEntity
100
AcDbLine
10
20.691517397413193
20
2.3434028450520117
30
0.0
11
22.52030028480342
21
2.1322029200152617
31
0.0
0
LINE
8
shape
62
0
5
131
100
AcDbEntity
100
AcDbLine
10
22.52030028480342
20
2.1322029200152617
30
0.0
11
24.550575217994794
21
1.4862629792100108
31
0.0
0
LINE
8
shape
62
0
5
132
100
AcDbEntity
100
AcDbLine
10
24.550575217994794
20
1.4862629792100108
30
0.0
11
26.66108006653552
21
0.7880501952985117
31
0.0
0
LINE
8
shape
62
0
5
133
100
AcDbEntity
100
AcDbLine
10
26.66108006653552
20
0.7880501952985117
30
0.0
11
28.497826911631993
21
0.5525026082900126
31
0.0
0
LINE
8
shape
62
0
5
134
100
AcDbEntity
100
AcDbLine
10
28.497826911631993
20
0.5525026082900126
30
0.0
11
28.503891866709996
21
0.5525026082900126
31
0.0
0
LINE
8
shape
62
0
5
135
100
AcDbEntity
100
AcDbLine
10
28.503891866709996
20
0.5525026082900126
30
0.0
11
28.509953999565994
21
0.5525026082900126
31
0.0
0
LINE
8
shape
62
0
5
136
100
AcDbEntity
100
AcDbLine
10
28.509953999565994
20
0.5525026082900126
30
0.0
11
29.675040530743555
21
0.6963077837723293
31
0.0
0
LINE
8
shape
62
0
5
137
100
AcDbEntity
100
AcDbLine
10
29.675040530743555
20
0.6963077837723293
30
0.0
11
30.798853652670992
21
1.0685113287705157
31
0.0
0
LINE
8
shape
62
0
5
138
100
AcDbEntity
100
AcDbLine
10
30.798853652670992
20
1.0685113287705157
30
0.0
11
31.87637527824343
21
1.6632326145809508
31
0.0
0
LINE
8
shape
62
0
5
139
100
AcDbEntity
100
AcDbLine
10
31.87637527824343
20
1.6632326145809508
30
0.0
11
32.90258732035599
21
2.4745910125000137
31
0.0
0
LINE
8
shape
62
0
5
13a
100
AcDbEntity
100
AcDbLine
10
32.90258732035599
20
2.4745910125000137
30
0.0
11
34.36466941356474
21
4.019908899154762
31
0.0
0
LINE
8
shape
62
0
5
13b
100
AcDbEntity
100
AcDbLine
10
34.36466941356474
20
4.019908899154762
30
0.0
11
36.14483779839399
21
6.38436190464401
31
0.0
0
LINE
8
shape
62
0
5
13c
100
AcDbEntity
100
AcDbLine
10
36.14483779839399
20
6.38436190464401
30
0.0
11
37.49769848909174
21
8.546004039991512
31
0.0
0
LINE
8
shape
62
0
5
13d
100
AcDbEntity
100
AcDbLine
10
37.49769848909174
20
8.546004039991512
30
0.0
11
38.65231431206599
21
10.892198327474006
31
0.0
0
LINE
8
shape
62
0
5
13e
100
AcDbEntity
100
AcDbLine
10
38.65231431206599
20
10.892198327474006
30
0.0
11
38.65231431206599
21
10.894402482856009
31
0.0
0
LINE
8
shape
62
0
5
13f
100
AcDbEntity
100
AcDbLine
10
38.65231431206599
20
10.894402482856009
30
0.0
11
38.65451846744799
21
10.896609460459999
31
0.0
0
LINE
8
shape
62
0
5
140
100
AcDbEntity
100
AcDbLine
10
38.65451846744799
20
10.896609460459999
30
0.0
11
39.47252258081599
21
13.046899913368009
31
0.0
0
LINE
8
shape
62
0
5
141
100
AcDbEntity
100
AcDbLine
10
39.47252258081599
20
13.046899913368009
30
0.0
11
39.62521043545999
21
13.490076256250006
31
0.0
0
LINE
8
shape
62
0
5
142
100
AcDbEntity
100
AcDbLine
10
39.62521043545999
20
13.490076256250006
30
0.0
11
39.19360802499999
21
13.671976930816001
31
0.0
0
LINE
8
shape
62
0
5
143
100
AcDbEntity
100
AcDbLine
10
39.19360802499999
20
13.671976930816001
30
0.0
11
37.60539906672249
21
14.515790264374012
31
0.0
0
LINE
8
shape
62
0
5
144
100
AcDbEntity
100
AcDbLine
10
37.60539906672249
20
14.515790264374012
30
0.0
11
36.17790859578999
21
15.650289641710003
31
0.0
0
LINE
8
shape
62
0
5
145
100
AcDbEntity
100
AcDbLine
10
36.17790859578999
20
15.650289641710003
30
0.0
11
36.17570444040798
21
15.652493797092006
31
0.0
0
LINE
8
shape
62
0
5
146
100
AcDbEntity
100
AcDbLine
10
36.17570444040798
20
15.652493797092006
30
0.0
11
36.173500285025995
21
15.654147619184016
31
0.0
0
LINE
8
shape
62
0
5
147
100
AcDbEntity
100
AcDbLine
10
36.173500285025995
20
15.654147619184016
30
0.0
11
34.86854143291755
21
17.117689683111134
31
0.0
0
LINE
8
shape
62
0
5
148
100
AcDbEntity
100
AcDbLine
10
34.86854143291755
20
17.117689683111134
30
0.0
11
33.934170139128994
21
18.750718525359503
31
0.0
0
LINE
8
shape
62
0
5
149
100
AcDbEntity
100
AcDbLine
10
33.934170139128994
20
18.750718525359503
30
0.0
11
33.36705529975593
21
20.563108395151623
31
0.0
0
LINE
8
shape
62
0
5
14a
100
AcDbEntity
100
AcDbLine
10
33.36705529975593
20
20.563108395151623
30
0.0
11
33.163865810893995
21
22.564733541709998
31
0.0
0
LINE
8
shape
62
0
5
14b
100
AcDbEntity
100
AcDbLine
10
33.163865810893995
20
22.564733541709998
30
0.0
11
33.227268317967635
21
23.8705936472631
31
0.0
0
LINE
8
shape
62
0
5
14c
100
AcDbEntity
100
AcDbLine
10
33.227268317967635
20
23.8705936472631
30
0.0
11
33.44297377711142
21
25.095956363581664
31
0.0
0
LINE
8
shape
62
0
5
14d
100
AcDbEntity
100
AcDbLine
10
33.44297377711142
20
25.095956363581664
30
0.0
11
33.812688023086864
21
26.24302219700283
31
0.0
0
LINE
8
shape
62
0
5
14e
100
AcDbEntity
100
AcDbLine
10
33.812688023086864
20
26.24302219700283
30
0.0
11
34.338116890655485
21
27.31399165386376
31
0.0
0
LINE
8
shape
62
0
5
14f
100
AcDbEntity
100
AcDbLine
10
34.338116890655485
20
27.31399165386376
30
0.0
11
35.0209662145788
21
28.31106524050159
31
0.0
0
LINE
8
shape
62
0
5
150
100
AcDbEntity
100
AcDbLine
10
35.0209662145788
20
28.31106524050159
30
0.0
11
35.86294182961831
21
29.236443463253476
31
0.0
0
LINE
8
shape
62
0
5
151
100
AcDbEntity
100
AcDbLine
10
35.86294182961831
20
29.236443463253476
30
0.0
11
36.865749570535534
21
30.092326828456564
31
0.0
0
LINE
8
shape
62
0
5
152
100
AcDbEntity
100
AcDbLine
10
36.865749570535534
20
30.092326828456564
30
0.0
11
38.031095272091996
21
30.880915842448005
31
0.0
0
LINE
8
shape
62
0
5
153
100
AcDbEntity
100
AcDbLine
10
38.031095272091996
20
30.880915842448005
30
0.0
11
38.49025668038199
21
31.15817939839401
31
0.0
0
LINE
8
shape
62
0
5
154
100
AcDbEntity
100
AcDbLine
10
38.49025668038199
20
31.15817939839401
30
0.0
11
38.18157614913199
21
31.597497763801996
31
0.0
0
LINE
8
shape
62
0
5
155
100
AcDbEntity
100
AcDbLine
10
38.18157614913199
20
31.597497763801996
30
0.0
11
37.37958965043158
21
32.608645942430556
31
0.0
0
LINE
8
shape
62
0
5
156
100
AcDbEntity
100
AcDbLine
10
37.37958965043158
20
32.608645942430556
30
0.0
11
36.48055667161221
21
33.50172017983544
31
0.0
0
LINE
8
shape
62
0
5
157
100
AcDbEntity
100
AcDbLine
10
36.48055667161221
20
33.50172017983544
30
0.0
11
35.48636901643117
21
34.276480300514734
31
0.0
0
LINE
8
shape
62
0
5
158
100
AcDbEntity
100
AcDbLine
10
35.48636901643117
20
34.276480300514734
30
0.0
11
34.39891848864574
21
34.9326861289665
31
0.0
0
LINE
8
shape
62
0
5
159
100
AcDbEntity
100
AcDbLine
10
34.39891848864574
20
34.9326861289665
30
0.0
11
31.951796030290893
21
35.88847420717981
31
0.0
0
LINE
8
shape
62
0
5
15a
100
AcDbEntity
100
AcDbLine
10
31.951796030290893
20
35.88847420717981
30
0.0
11
29.15432372660599
21
36.367163010460004
31
0.0
0
LINE
8
shape
62
0
5
15b
100
AcDbEntity
100
AcDbLine
10
29.15432372660599
20
36.367163010460004
30
0.0
11
29.15597754869799
21
36.365509188368
31
0.0
0
LINE
8
shape
62
0
5
15c
100
AcDbEntity
100
AcDbLine
10
29.15597754869799
20
36.365509188368
30
0.0
11
26.965909428922092
21
36.24433532290925
31
0.0
0
LINE
8
shape
62
0
5
15d
100
AcDbEntity
100
AcDbLine
10
26.965909428922092
20
36.24433532290925
30
0.0
11
24.446946895043393
21
35.60924118125
31
0.0
0
LINE
8
shape
62
0
5
15e
100
AcDbEntity
100
AcDbLine
10
24.446946895043393
20
35.60924118125
30
0.0
11
27.24987646767359
21
39.08410201875
31
0.0
0
LINE
8
shape
62
0
5
15f
100
AcDbEntity
100
AcDbLine
10
27.24987646767359
20
39.08410201875
30
0.0
11
27.252081187499993
21
39.086306174132005
31
0.0
0
LINE
8
shape
62
0
5
160
100
AcDbEntity
100
AcDbLine
10
27.252081187499993
20
39.086306174132005
30
0.0
11
28.385448765619557
21
40.65537892384684
31
0.0
0
LINE
8
shape
62
0
5
161
100
AcDbEntity
100
AcDbLine
10
28.385448765619557
20
40.65537892384684
30
0.0
11
29.203167922759995
21
42.297801840702746
31
0.0
0
LINE
8
shape
62
0
5
162
100
AcDbEntity
100
AcDbLine
10
29.203167922759995
20
42.297801840702746
30
0.0
11
29.69991153850743
21
44.00713946478978
31
0.0
0
LINE
8
shape
62
0
5
163
100
AcDbEntity
100
AcDbLine
10
29.69991153850743
20
44.00713946478978
30
0.0
11
29.870352492447992
21
45.776956336198005
31
0.0
0
LINE
8
shape
62
0
5
164
100
AcDbEntity
100
AcDbLine
10
29.870352492447992
20
45.776956336198005
30
0.0
11
29.870905647959994
21
45.781367469184
31
0.0
0
LINE
8
shape
62
0
5
165
100
AcDbEntity
100
AcDbLine
10
29.870905647959994
20
45.781367469184
30
0.0
11
29.870905647959994
21
45.806722311632
31
0.0
0
LINE
8
shape
62
0
5
166
100
AcDbEntity
100
AcDbLine
10
29.870905647959994
20
45.806722311632
30
0.0
11
29.82019314084199
21
46.777414279644
31
0.0
0
LINE
8
shape
62
0
5
167
100
AcDbEntity
100
AcDbLine
10
29.82019314084199
20
46.777414279644
30
0.0
11
29.767826811631995
21
47.245945464974
31
0.0
0
LINE
8
shape
62
0
5
168
100
AcDbEntity
100
AcDbLine
10
29.767826811631995
20
47.245945464974
30
0.0
11
29.767826811631995
21
47.245945464974
31
0.0
0
LINE
8
shape
62
0
5
169
100
AcDbEntity
100
AcDbLine
10
28.85721994999999
20
46.082329223264004
30
0.0
11
28.85721994999999
21
46.081778889974
31
0.0
0
LINE
8
shape
62
0
5
16a
100
AcDbEntity
100
AcDbLine
10
28.85721994999999
20
46.081778889974
30
0.0
11
28.87100086002599
21
45.806722311632
31
0.0
0
LINE
8
shape
62
0
5
16b
100
AcDbEntity
100
AcDbLine
10
28.87100086002599
20
45.806722311632
30
0.0
11
28.724215334326964
21
44.21172970180531
31
0.0
0
LINE
8
shape
62
0
5
16c
100
AcDbEntity
100
AcDbLine
10
28.724215334326964
20
44.21172970180531
30
0.0
11
28.280997465094067
21
42.670681925231
31
0.0
0
LINE
8
shape
62
0
5
16d
100
AcDbEntity
100
AcDbLine
10
28.280997465094067
20
42.670681925231
30
0.0
11
27.537055314123585
21
41.17864344479769
31
0.0
0
LINE
8
shape
62
0
5
16e
100
AcDbEntity
100
AcDbLine
10
27.537055314123585
20
41.17864344479769
30
0.0
11
26.488096943211794
21
39.730678723394
31
0.0
0
LINE
8
shape
62
0
5
16f
100
AcDbEntity
100
AcDbLine
10
26.488096943211794
20
39.730678723394
30
0.0
11
24.923475693076995
21
37.75551808169625
31
0.0
0
LINE
8
shape
62
0
5
170
100
AcDbEntity
100
AcDbLine
10
24.923475693076995
20
37.75551808169625
30
0.0
11
23.314199553124993
21
35.796653655382
31
0.0
0
LINE
8
shape
62
0
5
171
100
AcDbEntity
100
AcDbLine
10
23.314199553124993
20
35.796653655382
30
0.0
11
22.287285536206593
21
34.91030096961801
31
0.0
0
LINE
8
shape
62
0
5
172
100
AcDbEntity
100
AcDbLine
10
22.287285536206593
20
34.91030096961801
30
0.0
11
21.171625901831593
21
34.52334611119801
31
0.0
0
LINE
8
shape
62
0
5
173
100
AcDbEntity
100
AcDbLine
10
21.171625901831593
20
34.52334611119801
30
0.0
11
20.078014876831595
21
34.248289532856006
31
0.0
0
LINE
8
shape
62
0
5
174
100
AcDbEntity
100
AcDbLine
10
20.078014876831595
20
34.248289532856006
30
0.0
11
19.722480944826394
21
34.32435970464401
31
0.0
0
LINE
8
shape
62
0
5
175
100
AcDbEntity
100
AcDbLine
10
19.722480944826394
20
34.32435970464401
30
0.0
11
19.992235203030347
21
36.13167469011351
31
0.0
0
LINE
8
shape
62
0
5
176
100
AcDbEntity
100
AcDbLine
10
19.992235203030347
20
36.13167469011351
30
0.0
11
20.560328101076394
21
38.316260079210004
31
0.0
0
LINE
8
shape
62
0
5
177
100
AcDbEntity
100
AcDbLine
10
20.560328101076394
20
38.316260079210004
30
0.0
11
21.61727327646347
21
41.0121770613775
31
0.0
0
LINE
8
shape
62
0
5
178
100
AcDbEntity
100
AcDbLine
10
21.61727327646347
20
41.0121770613775
30
0.0
11
22.198159223050805
21
42.11115630539925
31
0.0
0
LINE
8
shape
62
0
5
179
100
AcDbEntity
100
AcDbLine
10
22.198159223050805
20
42.11115630539925
30
0.0
11
22.769599042673594
21
42.917802739106
31
0.0
0
LINE
8
shape
62
0
5
17a
100
AcDbEntity
100
AcDbLine
10
22.769599042673594
20
42.917802739106
30
0.0
11
22.771803762499992
21
42.920009716710005
31
0.0
0
LINE
8
shape
62
0
5
17b
100
AcDbEntity
100
AcDbLine
10
22.771803762499992
20
42.920009716710005
30
0.0
11
24.138575397102393
21
44.185091542097254
31
0.0
0
LINE
8
shape
62
0
5
17c
100
AcDbEntity
100
AcDbLine
10
24.138575397102393
20
44.185091542097254
30
0.0
11
25.847584911423592
21
45.226846001736
31
0.0
0
LINE
8
shape
62
0
5
17d
100
AcDbEntity
100
AcDbLine
10
25.847584911423592
20
45.226846001736
30
0.0
11
27.40205455846884
21
45.809100033667
31
0.0
0
LINE
8
shape
62
0
5
17e
100
AcDbEntity
100
AcDbLine
10
27.40205455846884
20
45.809100033667
30
0.0
11
28.85721994999999
21
46.082329223264004
31
0.0
0
LINE
8
shape
62
0
5
17f
100
AcDbEntity
100
AcDbLine
10
28.85721994999999
20
46.082329223264004
30
0.0
11
28.85721994999999
21
46.082329223264004
31
0.0
0
LINE
8
shape
62
0
5
180
100
AcDbEntity
100
AcDbLine
10
28.562870662065993
20
35.392613064974
30
0.0
11
29.07219424418399
21
35.36946237790799
31
0.0
0
LINE
8
shape
62
0
5
181
100
AcDbEntity
100
AcDbLine
10
29.07219424418399
20
35.36946237790799
30
0.0
11
29.07219424418399
21
35.368912044618
31
0.0
0
LINE
8
shape
62
0
5
182
100
AcDbEntity
100
AcDbLine
10
29.07219424418399
20
35.368912044618
30
0.0
11
29.074398399565993
21
35.368912044618
31
0.0
0
LINE
8
shape
62
0
5
183
100
AcDbEntity
100
AcDbLine
10
29.074398399565993
20
35.368912044618
30
0.0
11
31.55853522549243
21
34.95690886351754
31
0.0
0
LINE
8
shape
62
0
5
184
100
AcDbEntity
100
AcDbLine
10
31.55853522549243
20
34.95690886351754
30
0.0
11
33.70453510721049
21
34.152280715415756
31
0.0
0
LINE
8
shape
62
0
5
185
100
AcDbEntity
100
AcDbLine
10
33.70453510721049
20
34.152280715415756
30
0.0
11
35.528660922606306
21
32.958406593796596
31
0.0
0
LINE
8
shape
62
0
5
186
100
AcDbEntity
100
AcDbLine
10
35.528660922606306
20
32.958406593796596
30
0.0
11
37.04717554956599
21
31.37866549214401
31
0.0
0
LINE
8
shape
62
0
5
187
100
AcDbEntity
100
AcDbLine
10
37.04717554956599
20
31.37866549214401
30
0.0
11
35.91319653043554
21
30.53753416245469
31
0.0
0
LINE
8
shape
62
0
5
188
100
AcDbEntity
100
AcDbLine
10
35.91319653043554
20
30.53753416245469
30
0.0
11
34.92354142442018
21
29.61882548418632
31
0.0
0
LINE
8
shape
62
0
5
189
100
AcDbEntity
100
AcDbLine
10
34.92354142442018
20
29.61882548418632
30
0.0
11
34.0808450182916
21
28.623920912959296
31
0.0
0
LINE
8
shape
62
0
5
18a
100
AcDbEntity
100
AcDbLine
10
34.0808450182916
20
28.623920912959296
30
0.0
11
33.38774209882149
21
27.554201904394006
31
0.0
0
LINE
8
shape
62
0
5
18b
100
AcDbEntity
100
AcDbLine
10
33.38774209882149
20
27.554201904394006
30
0.0
11
32.84686745278158
21
26.41104991411084
31
0.0
0
LINE
8
shape
62
0
5
18c
100
AcDbEntity
100
AcDbLine
10
32.84686745278158
20
26.41104991411084
30
0.0
11
32.46085586694356
21
25.195846397730193
31
0.0
0
LINE
8
shape
62
0
5
18d
100
AcDbEntity
100
AcDbLine
10
32.46085586694356
20
25.195846397730193
30
0.0
11
32.232342128079125
21
23.909972810872453
31
0.0
0
LINE
8
shape
62
0
5
18e
100
AcDbEntity
100
AcDbLine
10
32.232342128079125
20
23.909972810872453
30
0.0
11
32.163961022959995
21
22.55481060915801
31
0.0
0
LINE
8
shape
62
0
5
18f
100
AcDbEntity
100
AcDbLine
10
32.163961022959995
20
22.55481060915801
30
0.0
11
32.39237641400231
21
20.36568915965479
31
0.0
0
LINE
8
shape
62
0
5
190
100
AcDbEntity
100
AcDbLine
10
32.39237641400231
20
20.36568915965479
30
0.0
11
33.02608211063199
21
18.356230098088258
31
0.0
0
LINE
8
shape
62
0
5
191
100
AcDbEntity
100
AcDbLine
10
33.02608211063199
20
18.356230098088258
30
0.0
11
34.060373292386174
21
16.538305542273605
31
0.0
0
LINE
8
shape
62
0
5
192
100
AcDbEntity
100
AcDbLine
10
34.060373292386174
20
16.538305542273605
30
0.0
11
35.49054513880199
21
14.923787610026011
31
0.0
0
LINE
8
shape
62
0
5
193
100
AcDbEntity
100
AcDbLine
10
35.49054513880199
20
14.923787610026011
30
0.0
11
35.492198960893994
21
14.921583454644008
31
0.0
0
LINE
8
shape
62
0
5
194
100
AcDbEntity
100
AcDbLine
10
35.492198960893994
20
14.921583454644008
30
0.0
11
35.49440311627599
21
14.919929632552012
31
0.0
0
LINE
8
shape
62
0
5
195
100
AcDbEntity
100
AcDbLine
10
35.49440311627599
20
14.919929632552012
30
0.0
11
36.873951796539
21
13.849698247377757
31
0.0
0
LINE
8
shape
62
0
5
196
100
AcDbEntity
100
AcDbLine
10
36.873951796539
20
13.849698247377757
30
0.0
11
38.392692465841996
21
13.019338093316009
31
0.0
0
LINE
8
shape
62
0
5
197
100
AcDbEntity
100
AcDbLine
10
38.392692465841996
20
13.019338093316009
30
0.0
11
37.73233767339399
21
11.285215318750005
31
0.0
0
LINE
8
shape
62
0
5
198
100
AcDbEntity
100
AcDbLine
10
37.73233767339399
20
11.285215318750005
30
0.0
11
36.62263857188299
21
9.030263115749758
31
0.0
0
LINE
8
shape
62
0
5
199
100
AcDbEntity
100
AcDbLine
10
36.62263857188299
20
9.030263115749758
30
0.0
11
35.32628335173599
21
6.958726414974009
31
0.0
0
LINE
8
shape
62
0
5
19a
100
AcDbEntity
100
AcDbLine
10
35.32628335173599
20
6.958726414974009
30
0.0
11
33.58533221104099
21
4.649776285670013
31
0.0
0
LINE
8
shape
62
0
5
19b
100
AcDbEntity
100
AcDbLine
10
33.58533221104099
20
4.649776285670013
30
0.0
11
32.24057870581599
21
3.2203857537760143
31
0.0
0
LINE
8
shape
62
0
5
19c
100
AcDbEntity
100
AcDbLine
10
32.24057870581599
20
3.2203857537760143
30
0.0
11
32.23451657295999
21
3.2165277763020157
31
0.0
0
LINE
8
shape
62
0
5
19d
100
AcDbEntity
100
AcDbLine
10
32.23451657295999
20
3.2165277763020157
30
0.0
11
32.23065577326399
21
3.212666976606016
31
0.0
0
LINE
8
shape
62
0
5
19e
100
AcDbEntity
100
AcDbLine
10
32.23065577326399
20
3.212666976606016
30
0.0
11
31.328230445015556
21
2.4948603431956724
31
0.0
0
LINE
8
shape
62
0
5
19f
100
AcDbEntity
100
AcDbLine
10
31.328230445015556
20
2.4948603431956724
30
0.0
11
30.408242605649992
21
1.9839628872432655
31
0.0
0
LINE
8
shape
62
0
5
1a0
100
AcDbEntity
100
AcDbLine
10
30.408242605649992
20
1.9839628872432655
30
0.0
11
29.46487618479193
21
1.6729036197222338
31
0.0
0
LINE
8
shape
62
0
5
1a1
100
AcDbEntity
100
AcDbLine
10
29.46487618479193
20
1.6729036197222338
30
0.0
11
28.49231511206599
21
1.5546115516060155
31
0.0
0
LINE
8
shape
62
0
5
1a2
100
AcDbEntity
100
AcDbLine
10
28.49231511206599
20
1.5546115516060155
30
0.0
11
26.88881905915887
21
1.7648667378282568
31
0.0
0
LINE
8
shape
62
0
5
1a3
100
AcDbEntity
100
AcDbLine
10
26.88881905915887
20
1.7648667378282568
30
0.0
11
24.929811299244793
21
2.4123045729600108
31
0.0
0
LINE
8
shape
62
0
5
1a4
100
AcDbEntity
100
AcDbLine
10
24.929811299244793
20
2.4123045729600108
30
0.0
11
24.92760657941839
21
2.4123045729600108
31
0.0
0
LINE
8
shape
62
0
5
1a5
100
AcDbEntity
100
AcDbLine
10
24.92760657941839
20
2.4123045729600108
30
0.0
11
22.734602466818117
21
3.1094741930647647
31
0.0
0
LINE
8
shape
62
0
5
1a6
100
AcDbEntity
100
AcDbLine
10
22.734602466818117
20
3.1094741930647647
30
0.0
11
20.691517397413193
21
3.343857966276019
31
0.0
0
LINE
8
shape
62
0
5
1a7
100
AcDbEntity
100
AcDbLine
10
20.691517397413193
20
3.343857966276019
30
0.0
11
18.577882316618943
21
3.1095832013895155
31
0.0
0
LINE
8
shape
62
0
5
1a8
100
AcDbEntity
100
AcDbLine
10
18.577882316618943
20
3.1095832013895155
30
0.0
11
16.343531628663197
21
2.4123045729600108
31
0.0
0
LINE
8
shape
62
0
5
1a9
100
AcDbEntity
100
AcDbLine
10
16.343531628663197
20
2.4123045729600108
30
0.0
11
14.391006794905323
21
1.747697044735764
31
0.0
0
LINE
8
shape
62
0
5
1aa
100
AcDbEntity
100
AcDbLine
10
14.391006794905323
20
1.747697044735764
30
0.0
11
12.917728911744797
21
1.5039018667100095
31
0.0
0
LINE
8
shape
62
0
5
1ab
100
AcDbEntity
100
AcDbLine
10
12.917728911744797
20
1.5039018667100095
30
0.0
11
12.916075371874996
21
1.5039018667100095
31
0.0
0
LINE
8
shape
62
0
5
1ac
100
AcDbEntity
100
AcDbLine
10
12.916075371874996
20
1.5039018667100095
30
0.0
11
12.913870369826396
21
1.5039018667100095
31
0.0
0
LINE
8
shape
62
0
5
1ad
100
AcDbEntity
100
AcDbLine
10
12.913870369826396
20
1.5039018667100095
30
0.0
11
11.986485539515495
21
1.5759157117340725
31
0.0
0
LINE
8
shape
62
0
5
1ae
100
AcDbEntity
100
AcDbLine
10
11.986485539515495
20
1.5759157117340725
30
0.0
11
11.047077196817996
21
1.8775217261800083
31
0.0
0
LINE
8
shape
62
0
5
1af
100
AcDbEntity
100
AcDbLine
10
11.047077196817996
20
1.8775217261800083
30
0.0
11
10.090908242106897
21
2.419096338397444
31
0.0
0
LINE
8
shape
62
0
5
1b0
100
AcDbEntity
100
AcDbLine
10
10.090908242106897
20
2.419096338397444
30
0.0
11
9.113241575755197
21
3.2110159767360074
31
0.0
0
LINE
8
shape
62
0
5
1b1
100
AcDbEntity
100
AcDbLine
10
9.113241575755197
20
3.2110159767360074
30
0.0
11
9.107178031788198
21
3.214873954210006
31
0.0
0
LINE
8
shape
62
0
5
1b2
100
AcDbEntity
100
AcDbLine
10
9.107178031788198
20
3.214873954210006
30
0.0
11
9.101665949999997
21
3.2209360870660078
31
0.0
0
LINE
8
shape
62
0
5
1b3
100
AcDbEntity
100
AcDbLine
10
9.101665949999997
20
3.2209360870660078
30
0.0
11
7.667569327643223
21
4.733043829113509
31
0.0
0
LINE
8
shape
62
0
5
1b4
100
AcDbEntity
100
AcDbLine
10
7.667569327643223
20
4.733043829113509
30
0.0
11
5.868788635668398
21
7.095979537500014
31
0.0
0
LINE
8
shape
62
0
5
1b5
100
AcDbEntity
100
AcDbLine
10
5.868788635668398
20
7.095979537500014
30
0.0
11
3.967125089516809
21
10.268192343275008
31
0.0
0
LINE
8
shape
62
0
5
1b6
100
AcDbEntity
100
AcDbLine
10
3.967125089516809
20
10.268192343275008
30
0.0
11
2.4314104058836796
21
13.926086977474
31
0.0
0
LINE
8
shape
62
0
5
1b7
100
AcDbEntity
100
AcDbLine
10
2.4314104058836796
20
13.926086977474
30
0.0
11
2.4314104058836796
21
13.927740799565996
31
0.0
0
LINE
8
shape
62
0
5
1b8
100
AcDbEntity
100
AcDbLine
10
2.4314104058836796
20
13.927740799565996
30
0.0
11
1.799433124437341
21
16.014459114424128
31
0.0
0
LINE
8
shape
62
0
5
1b9
100
AcDbEntity
100
AcDbLine
10
1.799433124437341
20
16.014459114424128
30
0.0
11
1.3485400593157348
21
18.0641114238675
31
0.0
0
LINE
8
shape
62
0
5
1ba
100
AcDbEntity
100
AcDbLine
10
1.3485400593157348
20
18.0641114238675
30
0.0
11
1.078311793051886
21
20.077358127844132
31
0.0
0
LINE
8
shape
62
0
5
1bb
100
AcDbEntity
100
AcDbLine
10
1.078311793051886
20
20.077358127844132
30
0.0
11
0.9883289081788198
21
22.05485962630202
31
0.0
0
LINE
8
shape
62
0
5
1bc
100
AcDbEntity
100
AcDbLine
10
0.9883289081788198
20
22.05485962630202
30
0.0
11
1.108583512873147
21
24.215524390893137
31
0.0
0
LINE
8
shape
62
0
5
1bd
100
AcDbEntity
100
AcDbLine
10
1.108583512873147
20
24.215524390893137
30
0.0
11
1.4686765429950572
21
26.211263793470504
31
0.0
0
LINE
8
shape
62
0
5
1be
100
AcDbEntity
100
AcDbLine
10
1.4686765429950572
20
26.211263793470504
30
0.0
11
2.067601822602944
21
28.04482526715113
31
0.0
0
LINE
8
shape
62
0
5
1bf
100
AcDbEntity
100
AcDbLine
10
2.067601822602944
20
28.04482526715113
30
0.0
11
2.9043531757551992
21
29.718956245052
31
0.0
0
LINE
8
shape
62
0
5
1c0
100
AcDbEntity
100
AcDbLine
10
2.9043531757551992
20
29.718956245052
30
0.0
11
2.9060067156249993
21
29.72061006714401
31
0.0
0
LINE
8
shape
62
0
5
1c1
100
AcDbEntity
100
AcDbLine
10
2.9060067156249993
20
29.72061006714401
30
0.0
11
2.9082117176735993
21
29.72281422252601
31
0.0
0
LINE
8
shape
62
0
5
1c2
100
AcDbEntity
100
AcDbLine
10
2.9082117176735993
20
29.72281422252601
30
0.0
11
3.720175852628299
21
30.936114624212756
31
0.0
0
LINE
8
shape
62
0
5
1c3
100
AcDbEntity
100
AcDbLine
10
3.720175852628299
20
30.936114624212756
30
0.0
11
4.653952662991449
21
32.011336403438506
31
0.0
0
LINE
8
shape
62
0
5
1c4
100
AcDbEntity
100
AcDbLine
10
4.653952662991449
20
32.011336403438506
30
0.0
11
5.711869529413123
21
32.9510206183365
31
0.0
0
LINE
8
shape
62
0
5
1c5
100
AcDbEntity
100
AcDbLine
10
5.711869529413123
20
32.9510206183365
30
0.0
11
6.896253832543398
21
33.75770832704001
31
0.0
0
LINE
8
shape
62
0
5
1c6
100
AcDbEntity
100
AcDbLine
10
6.896253832543398
20
33.75770832704001
30
0.0
11
8.165335460879591
21
34.40666191587185
31
0.0
0
LINE
8
shape
62
0
5
1c7
100
AcDbEntity
100
AcDbLine
10
8.165335460879591
20
34.40666191587185
30
0.0
11
9.482178875038347
21
34.87504824183825
31
0.0
0
LINE
8
shape
62
0
5
1c8
100
AcDbEntity
100
AcDbLine
10
9.482178875038347
20
34.87504824183825
30
0.0
11
10.85033589432333
21
35.16469001937904
31
0.0
0
LINE
8
shape
62
0
5
1c9
100
AcDbEntity
100
AcDbLine
10
10.85033589432333
20
35.16469001937904
30
0.0
11
12.273358338038197
21
35.277409962934
31
0.0
0
LINE
8
shape
62
0
5
1ca
100
AcDbEntity
100
AcDbLine
10
12.273358338038197
20
35.277409962934
30
0.0
11
14.07368899433542
21
35.03349413491775
31
0.0
0
LINE
8
shape
62
0
5
1cb
100
AcDbEntity
100
AcDbLine
10
14.07368899433542
20
35.03349413491775
30
0.0
11
16.449364953663196
21
34.2951440625
31
0.0
0
LINE
8
shape
62
0
5
1cc
100
AcDbEntity
100
AcDbLine
10
16.449364953663196
20
34.2951440625
30
0.0
11
18.562724373923594
21
33.56864203081601
31
0.0
0
LINE
8
shape
62
0
5
1cd
100
AcDbEntity
100
AcDbLine
10
18.562724373923594
20
33.56864203081601
30
0.0
11
18.546739026293395
21
33.48816354826401
31
0.0
0
LINE
8
shape
62
0
5
1ce
100
AcDbEntity
100
AcDbLine
10
18.546739026293395
20
33.48816354826401
30
0.0
11
18.833922128124996
21
32.98049661046001
31
0.0
0
LINE
8
shape
62
0
5
1cf
100
AcDbEntity
100
AcDbLine
10
18.833922128124996
20
32.98049661046001
30
0.0
11
19.207094947630196
21
32.890648350868005
31
0.0
0
LINE
8
shape
62
0
5
1d0
100
AcDbEntity
100
AcDbLine
10
19.207094947630196
20
32.890648350868005
30
0.0
11
19.627120885668393
21
32.961203900868
31
0.0
0
LINE
8
shape
62
0
5
1d1
100
AcDbEntity
100
AcDbLine
10
19.627120885668393
20
32.961203900868
30
0.0
11
19.984308357543394
21
32.931988258724004
31
0.0
0
LINE
8
shape
62
0
5
1d2
100
AcDbEntity
100
AcDbLine
10
19.984308357543394
20
32.931988258724004
30
0.0
11
20.737168672707494
21
32.97325002630838
31
0.0
0
LINE
8
shape
62
0
5
1d3
100
AcDbEntity
100
AcDbLine
10
20.737168672707494
20
32.97325002630838
30
0.0
11
21.447122887916695
21
33.195974671271
31
0.0
0
LINE
8
shape
62
0
5
1d4
100
AcDbEntity
100
AcDbLine
10
21.447122887916695
20
33.195974671271
30
0.0
11
22.769599042673594
21
34.02174130625001
31
0.0
0
LINE
8
shape
62
0
5
1d5
100
AcDbEntity
100
AcDbLine
10
22.769599042673594
20
34.02174130625001
30
0.0
11
24.078183797413192
21
34.472636426302
31
0.0
0
LINE
8
shape
62
0
5
1d6
100
AcDbEntity
100
AcDbLine
10
24.078183797413192
20
34.472636426302
30
0.0
11
26.51979063738289
21
35.173878159975004
31
0.0
0
LINE
8
shape
62
0
5
1d7
100
AcDbEntity
100
AcDbLine
10
26.51979063738289
20
35.173878159975004
30
0.0
11
28.562870662065993
21
35.392613064974
31
0.0
0
LINE
8
shape
62
0
5
1d8
100
AcDbEntity
100
AcDbLine
10
28.562870662065993
20
35.392613064974
30
0.0
11
28.562870662065993
21
35.392613064974
31
0.0
0
ENDSEC
0
SECTION
2
OBJECTS
0
DICTIONARY
5
C
330
0
100
AcDbDictionary
3
ACAD_GROUP
350
D
3
ACAD_MLINESTYLE
350
17
0
DICTIONARY
5
D
330
C
100
AcDbDictionary
0
DICTIONARY
5
1A
330
C
100
AcDbDictionary
0
DICTIONARY
5
17
330
C
100
AcDbDictionary
3
STANDARD
350
18
0
DICTIONARY
5
19
330
C
100
AcDbDictionary
0
ENDSEC
0
EOF
