0
SECTION
2
HEADER
9
$ACADVER
1
AC1014
9
$HANDSEED
5
FFFF
0
ENDSEC
0
SECTION
2
TABLES
0
TABLE
2
VPORT
5
8
330
0
100
AcDbSymbolTable
70
4
0
VPORT
5
2E
330
8
100
AcDbSymbolTableRecord
100
AcDbViewportTableRecord
2
*ACTIVE
70
0
10
0.0
20
0.0
11
1.0
21
1.0
12
4.25
22
5.5
13
0.0
23
0.0
14
10.0
24
10.0
15
10.0
25
10.0
16
0.0
26
0.0
36
1.0
17
0.0
27
0.0
37
0.0
40
11
41
1.24
42
50.0
43
0.0
44
0.0
50
0.0
51
0.0
71
0
72
100
73
1
74
3
75
0
76
0
77
0
78
0
0
ENDTAB
0
TABLE
2
LTYPE
5
5
330
0
100
AcDbSymbolTable
70
1
0
LTYPE
5
14
330
5
100
AcDbSymbolTableRecord
100
AcDbLinetypeTableRecord
2
BYBLOCK
70
0
3

72
65
73
0
40
0.0
0
LTYPE
5
15
330
5
100
AcDbSymbolTableRecord
100
AcDbLinetypeTableRecord
2
BYLAYER
70
0
3

72
65
73
0
40
0.0
0
LTYPE
5
16
330
5
100
AcDbSymbolTableRecord
100
AcDbLinetypeTableRecord
2
CONTINUOUS
70
0
3
Solid line
72
65
73
0
40
0.0
0
ENDTAB
0
TABLE
2
LAYER
5
2
330
0
100
AcDbSymbolTable
70
1
0
LAYER
5
10
330
2
100
AcDbSymbolTableRecord
100
AcDbLayerTableRecord
2
0
70
0
62
7
6
CONTINUOUS
0
ENDTAB
0
TABLE
2
STYLE
5
3
330
0
100
AcDbSymbolTable
70
1
0
STYLE
5
11
330
3
100
AcDbSymbolTableRecord
100
AcDbTextStyleTableRecord
2
STANDARD
70
0
40
0.0
41
1.0
50
0.0
71
0
42
2.5
3
txt
4

0
ENDTAB
0
TABLE
2
VIEW
5
6
330
0
100
AcDbSymbolTable
70
0
0
ENDTAB
0
TABLE
2
UCS
5
7
330
0
100
AcDbSymbolTable
70
0
0
ENDTAB
0
TABLE
2
APPID
5
9
330
0
100
AcDbSymbolTable
70
2
0
APPID
5
12
330
9
100
AcDbSymbolTableRecord
100
AcDbRegAppTableRecord
2
ACAD
70
0
0
ENDTAB
0
TABLE
2
DIMSTYLE
5
A
330
0
100
AcDbSymbolTable
70
1
0
DIMSTYLE
105
27
330
A
100
AcDbSymbolTableRecord
100
AcDbDimStyleTableRecord
2
ISO-25
70
0
3

4

5

6

7

40
1.0
41
2.5
42
0.625
43
3.75
44
1.25
45
0.0
46
0.0
47
0.0
48
0.0
140
2.5
141
2.5
142
0.0
143
0.03937007874016
144
1.0
145
0.0
146
1.0
147
0.625
71
0
72
0
73
0
74
0
75
0
76
0
77
1
78
8
170
0
171
3
172
1
173
0
174
0
175
0
176
0
177
0
178
0
270
2
271
2
272
2
273
2
274
3
340
11
275
0
280
0
281
0
282
0
283
0
284
8
285
0
286
0
287
3
288
0
0
ENDTAB
0
TABLE
2
BLOCK_RECORD
5
1
330
0
100
AcDbSymbolTable
70
1
0
BLOCK_RECORD
5
1F
330
1
100
AcDbSymbolTableRecord
100
AcDbBlockTableRecord
2
*MODEL_SPACE
0
BLOCK_RECORD
5
1B
330
1
100
AcDbSymbolTableRecord
100
AcDbBlockTableRecord
2
*PAPER_SPACE
0
ENDTAB
0
ENDSEC
0
SECTION
2
BLOCKS
0
BLOCK
5
20
330
1F
100
AcDbEntity
8
0
100
AcDbBlockBegin
2
*MODEL_SPACE
70
0
10
0.0
20
0.0
30
0.0
3
*MODEL_SPACE
1

0
ENDBLK
5
21
330
1F
100
AcDbEntity
8
0
100
AcDbBlockEnd
0
BLOCK
5
1C
330
1B
100
AcDbEntity
67
1
8
0
100
AcDbBlockBegin
2
*PAPER_SPACE
1

0
ENDBLK
5
1D
330
1B
100
AcDbEntity
67
1
8
0
100
AcDbBlockEnd
0
ENDSEC
0
SECTION
2
ENTITIES
0
LINE
8
shape
62
0
5
100
100
AcDbEntity
100
AcDbLine
10
38.64880404166666
20
38.87266006249999
30
0.0
11
38.62813214583333
21
38.85870858333331
31
0.0
0
LINE
8
shape
62
0
5
101
100
AcDbEntity
100
AcDbLine
10
38.62813214583333
20
38.85870858333331
30
0.0
11
39.241015624999996
21
38.20086710416663
31
0.0
0
LINE
8
shape
62
0
5
102
100
AcDbEntity
100
AcDbLine
10
39.241015624999996
20
38.20086710416663
30
0.0
11
39.929799701253245
21
37.41776319852699
31
0.0
0
LINE
8
shape
62
0
5
103
100
AcDbEntity
100
AcDbLine
10
39.929799701253245
20
37.41776319852699
30
0.0
11
40.52932652799478
21
36.488126624674464
31
0.0
0
LINE
8
shape
62
0
5
104
100
AcDbEntity
100
AcDbLine
10
40.52932652799478
20
36.488126624674464
30
0.0
11
41.405618177083326
21
34.379491674479155
31
0.0
0
LINE
8
shape
62
0
5
105
100
AcDbEntity
100
AcDbLine
10
41.405618177083326
20
34.379491674479155
30
0.0
11
41.75991006054687
21
32.255434657877586
31
0.0
0
LINE
8
shape
62
0
5
106
100
AcDbEntity
100
AcDbLine
10
41.75991006054687
20
32.255434657877586
30
0.0
11
41.70693718025715
21
31.306520501017232
31
0.0
0
LINE
8
shape
62
0
5
107
100
AcDbEntity
100
AcDbLine
10
41.70693718025715
20
31.306520501017232
30
0.0
11
41.48222166666665
21
30.49642797916664
31
0.0
0
LINE
8
shape
62
0
5
108
100
AcDbEntity
100
AcDbLine
10
41.48222166666665
20
30.49642797916664
30
0.0
11
41.07292104785155
21
29.8671721660156
31
0.0
0
LINE
8
shape
62
0
5
109
100
AcDbEntity
100
AcDbLine
10
41.07292104785155
20
29.8671721660156
30
0.0
11
40.41409048177082
21
29.245677739583307
31
0.0
0
LINE
8
shape
62
0
5
10a
100
AcDbEntity
100
AcDbLine
10
40.41409048177082
20
29.245677739583307
30
0.0
11
39.571411044596346
21
28.680730063151017
31
0.0
0
LINE
8
shape
62
0
5
10b
100
AcDbEntity
100
AcDbLine
10
39.571411044596346
20
28.680730063151017
30
0.0
11
38.61056381249999
21
28.22111449999997
31
0.0
0
LINE
8
shape
62
0
5
10c
100
AcDbEntity
100
AcDbLine
10
38.61056381249999
20
28.22111449999997
30
0.0
11
37.20054701529948
21
27.820952920247365
31
0.0
0
LINE
8
shape
62
0
5
10d
100
AcDbEntity
100
AcDbLine
10
37.20054701529948
20
27.820952920247365
30
0.0
11
35.72163495052083
21
27.652059580729137
31
0.0
0
LINE
8
shape
62
0
5
10e
100
AcDbEntity
100
AcDbLine
10
35.72163495052083
20
27.652059580729137
30
0.0
11
34.360911764648435
21
27.719634784179668
31
0.0
0
LINE
8
shape
62
0
5
10f
100
AcDbEntity
100
AcDbLine
10
34.360911764648435
20
27.719634784179668
30
0.0
11
33.30546160416666
21
28.028878833333323
31
0.0
0
LINE
8
shape
62
0
5
110
100
AcDbEntity
100
AcDbLine
10
33.30546160416666
20
28.028878833333323
30
0.0
11
32.39138402376301
21
28.909664843749976
31
0.0
0
LINE
8
shape
62
0
5
111
100
AcDbEntity
100
AcDbLine
10
32.39138402376301
20
28.909664843749976
30
0.0
11
31.469061117187493
21
30.520448838541633
31
0.0
0
LINE
8
shape
62
0
5
112
100
AcDbEntity
100
AcDbLine
10
31.469061117187493
20
30.520448838541633
30
0.0
11
30.628813448893226
21
32.670997716145806
31
0.0
0
LINE
8
shape
62
0
5
113
100
AcDbEntity
100
AcDbLine
10
30.628813448893226
20
32.670997716145806
30
0.0
11
29.96096158333333
21
35.17107837499998
31
0.0
0
LINE
8
shape
62
0
5
114
100
AcDbEntity
100
AcDbLine
10
29.96096158333333
20
35.17107837499998
30
0.0
11
29.66330533333333
21
36.26765193749998
31
0.0
0
LINE
8
shape
62
0
5
115
100
AcDbEntity
100
AcDbLine
10
29.66330533333333
20
36.26765193749998
30
0.0
11
29.47055372916666
21
36.815937395833316
31
0.0
0
LINE
8
shape
62
0
5
116
100
AcDbEntity
100
AcDbLine
10
29.47055372916666
20
36.815937395833316
30
0.0
11
29.24317610416666
21
35.66458714583331
31
0.0
0
LINE
8
shape
62
0
5
117
100
AcDbEntity
100
AcDbLine
10
29.24317610416666
20
35.66458714583331
30
0.0
11
28.981354731445307
21
34.718062553710915
31
0.0
0
LINE
8
shape
62
0
5
118
100
AcDbEntity
100
AcDbLine
10
28.981354731445307
20
34.718062553710915
30
0.0
11
28.580004263020825
21
34.00414119010415
31
0.0
0
LINE
8
shape
62
0
5
119
100
AcDbEntity
100
AcDbLine
10
28.580004263020825
20
34.00414119010415
30
0.0
11
28.024352267252596
21
33.50355551790362
31
0.0
0
LINE
8
shape
62
0
5
11a
100
AcDbEntity
100
AcDbLine
10
28.024352267252596
20
33.50355551790362
30
0.0
11
27.299626312499992
21
33.197037999999964
31
0.0
0
LINE
8
shape
62
0
5
11b
100
AcDbEntity
100
AcDbLine
10
27.299626312499992
20
33.197037999999964
30
0.0
11
26.579362580468743
21
33.06180416666663
31
0.0
0
LINE
8
shape
62
0
5
11c
100
AcDbEntity
100
AcDbLine
10
26.579362580468743
20
33.06180416666663
30
0.0
11
25.845967643749994
21
33.1836024583333
31
0.0
0
LINE
8
shape
62
0
5
11d
100
AcDbEntity
100
AcDbLine
10
25.845967643749994
20
33.1836024583333
30
0.0
11
25.043293285123692
21
33.51128503059893
31
0.0
0
LINE
8
shape
62
0
5
11e
100
AcDbEntity
100
AcDbLine
10
25.043293285123692
20
33.51128503059893
30
0.0
11
24.454042848177078
21
34.0471250677083
31
0.0
0
LINE
8
shape
62
0
5
11f
100
AcDbEntity
100
AcDbLine
10
24.454042848177078
20
34.0471250677083
30
0.0
11
24.048641331933588
21
34.82971519075519
31
0.0
0
LINE
8
shape
62
0
5
120
100
AcDbEntity
100
AcDbLine
10
24.048641331933588
20
34.82971519075519
30
0.0
11
23.79751373541666
21
35.897648020833316
31
0.0
0
LINE
8
shape
62
0
5
121
100
AcDbEntity
100
AcDbLine
10
23.79751373541666
20
35.897648020833316
30
0.0
11
23.587707618749995
21
36.610266187499974
31
0.0
0
LINE
8
shape
62
0
5
122
100
AcDbEntity
100
AcDbLine
10
23.587707618749995
20
36.610266187499974
30
0.0
11
23.184631314583328
21
35.418090729166664
31
0.0
0
LINE
8
shape
62
0
5
123
100
AcDbEntity
100
AcDbLine
10
23.184631314583328
20
35.418090729166664
30
0.0
11
22.202047858854158
21
31.92064269010414
31
0.0
0
LINE
8
shape
62
0
5
124
100
AcDbEntity
100
AcDbLine
10
22.202047858854158
20
31.92064269010414
30
0.0
11
21.468973762499996
21
30.099037041666634
31
0.0
0
LINE
8
shape
62
0
5
125
100
AcDbEntity
100
AcDbLine
10
21.468973762499996
20
30.099037041666634
30
0.0
11
21.206457618749997
21
29.619479749999982
31
0.0
0
LINE
8
shape
62
0
5
126
100
AcDbEntity
100
AcDbLine
10
21.206457618749997
20
29.619479749999982
30
0.0
11
20.48625702291666
21
28.620474929687482
31
0.0
0
LINE
8
shape
62
0
5
127
100
AcDbEntity
100
AcDbLine
10
20.48625702291666
20
28.620474929687482
30
0.0
11
19.49028307083333
21
27.878500250000002
31
0.0
0
LINE
8
shape
62
0
5
128
100
AcDbEntity
100
AcDbLine
10
19.49028307083333
20
27.878500250000002
30
0.0
11
17.69339006796875
21
27.66417253645832
31
0.0
0
LINE
8
shape
62
0
5
129
100
AcDbEntity
100
AcDbLine
10
17.69339006796875
20
27.66417253645832
30
0.0
11
15.463138735416663
21
27.89193579166664
31
0.0
0
LINE
8
shape
62
0
5
12a
100
AcDbEntity
100
AcDbLine
10
15.463138735416663
20
27.89193579166664
30
0.0
11
14.431429790397132
21
28.23376695768226
31
0.0
0
LINE
8
shape
62
0
5
12b
100
AcDbEntity
100
AcDbLine
10
14.431429790397132
20
28.23376695768226
30
0.0
11
13.381638997135413
21
28.765777151041632
31
0.0
0
LINE
8
shape
62
0
5
12c
100
AcDbEntity
100
AcDbLine
10
13.381638997135413
20
28.765777151041632
30
0.0
11
12.466451882389322
21
29.395459274088513
31
0.0
0
LINE
8
shape
62
0
5
12d
100
AcDbEntity
100
AcDbLine
10
12.466451882389322
20
29.395459274088513
30
0.0
11
11.838553972916664
21
30.030306229166655
31
0.0
0
LINE
8
shape
62
0
5
12e
100
AcDbEntity
100
AcDbLine
10
11.838553972916664
20
30.030306229166655
30
0.0
11
11.47138930413411
21
30.864181697265597
31
0.0
0
LINE
8
shape
62
0
5
12f
100
AcDbEntity
100
AcDbLine
10
11.47138930413411
20
30.864181697265597
30
0.0
11
11.317604107031247
21
31.9512599427083
31
0.0
0
LINE
8
shape
62
0
5
130
100
AcDbEntity
100
AcDbLine
10
11.317604107031247
20
31.9512599427083
30
0.0
11
11.380498025162758
21
33.174564539713515
31
0.0
0
LINE
8
shape
62
0
5
131
100
AcDbEntity
100
AcDbLine
10
11.380498025162758
20
33.174564539713515
30
0.0
11
11.66337070208333
21
34.41711906249998
31
0.0
0
LINE
8
shape
62
0
5
132
100
AcDbEntity
100
AcDbLine
10
11.66337070208333
20
34.41711906249998
30
0.0
11
12.700925512499998
21
36.63265919791664
31
0.0
0
LINE
8
shape
62
0
5
133
100
AcDbEntity
100
AcDbLine
10
12.700925512499998
20
36.63265919791664
30
0.0
11
13.352687867122393
21
37.62282478515622
31
0.0
0
LINE
8
shape
62
0
5
134
100
AcDbEntity
100
AcDbLine
10
13.352687867122393
20
37.62282478515622
30
0.0
11
13.974857485416663
21
38.32385602083329
31
0.0
0
LINE
8
shape
62
0
5
135
100
AcDbEntity
100
AcDbLine
10
13.974857485416663
20
38.32385602083329
30
0.0
11
14.447697006249998
21
38.85870858333331
31
0.0
0
LINE
8
shape
62
0
5
136
100
AcDbEntity
100
AcDbLine
10
14.447697006249998
20
38.85870858333331
30
0.0
11
13.257072006249997
21
38.3786327083333
31
0.0
0
LINE
8
shape
62
0
5
137
100
AcDbEntity
100
AcDbLine
10
13.257072006249997
20
38.3786327083333
30
0.0
11
11.195828834114582
21
37.249679313476534
31
0.0
0
LINE
8
shape
62
0
5
138
100
AcDbEntity
100
AcDbLine
10
11.195828834114582
20
37.249679313476534
30
0.0
11
9.229725926041665
21
35.90617256510414
31
0.0
0
LINE
8
shape
62
0
5
139
100
AcDbEntity
100
AcDbLine
10
9.229725926041665
20
35.90617256510414
30
0.0
11
7.421207792968748
21
34.390455305013006
31
0.0
0
LINE
8
shape
62
0
5
13a
100
AcDbEntity
100
AcDbLine
10
7.421207792968748
20
34.390455305013006
30
0.0
11
5.832718945833332
21
32.74487037499998
31
0.0
0
LINE
8
shape
62
0
5
13b
100
AcDbEntity
100
AcDbLine
10
5.832718945833332
20
32.74487037499998
30
0.0
11
4.077631035677083
21
30.390485174479146
31
0.0
0
LINE
8
shape
62
0
5
13c
100
AcDbEntity
100
AcDbLine
10
4.077631035677083
20
30.390485174479146
30
0.0
11
2.979146420833333
21
28.426785708333313
31
0.0
0
LINE
8
shape
62
0
5
13d
100
AcDbEntity
100
AcDbLine
10
2.979146420833333
20
28.426785708333313
30
0.0
11
2.733683202083333
21
27.90588727083329
31
0.0
0
LINE
8
shape
62
0
5
13e
100
AcDbEntity
100
AcDbLine
10
2.733683202083333
20
27.90588727083329
30
0.0
11
2.1032308074999997
21
26.054838458333307
31
0.0
0
LINE
8
shape
62
0
5
13f
100
AcDbEntity
100
AcDbLine
10
2.1032308074999997
20
26.054838458333307
30
0.0
11
1.6744355845052081
21
24.18202898958331
31
0.0
0
LINE
8
shape
62
0
5
140
100
AcDbEntity
100
AcDbLine
10
1.6744355845052081
20
24.18202898958331
30
0.0
11
1.6133382029166665
21
21.59981339583331
31
0.0
0
LINE
8
shape
62
0
5
141
100
AcDbEntity
100
AcDbLine
10
1.6133382029166665
20
21.59981339583331
30
0.0
11
1.694133671458333
21
19.05360560937498
31
0.0
0
LINE
8
shape
62
0
5
142
100
AcDbEntity
100
AcDbLine
10
1.694133671458333
20
19.05360560937498
30
0.0
11
2.1032308074999997
21
17.350459541666652
31
0.0
0
LINE
8
shape
62
0
5
143
100
AcDbEntity
100
AcDbLine
10
2.1032308074999997
20
17.350459541666652
30
0.0
11
2.764399422083333
21
15.451700401041638
31
0.0
0
LINE
8
shape
62
0
5
144
100
AcDbEntity
100
AcDbLine
10
2.764399422083333
20
15.451700401041638
30
0.0
11
3.5568887354166656
21
13.881938729166649
31
0.0
0
LINE
8
shape
62
0
5
145
100
AcDbEntity
100
AcDbLine
10
3.5568887354166656
20
13.881938729166649
30
0.0
11
3.9594483083333323
21
13.114543874999981
31
0.0
0
LINE
8
shape
62
0
5
146
100
AcDbEntity
100
AcDbLine
10
3.9594483083333323
20
13.114543874999981
30
0.0
11
4.694803972916666
21
12.045357333333328
31
0.0
0
LINE
8
shape
62
0
5
147
100
AcDbEntity
100
AcDbLine
10
4.694803972916666
20
12.045357333333328
30
0.0
11
6.067643012532551
21
10.372468436848946
31
0.0
0
LINE
8
shape
62
0
5
148
100
AcDbEntity
100
AcDbLine
10
6.067643012532551
20
10.372468436848946
30
0.0
11
7.680131424218748
21
8.779207052083322
31
0.0
0
LINE
8
shape
62
0
5
149
100
AcDbEntity
100
AcDbLine
10
7.680131424218748
20
8.779207052083322
30
0.0
11
9.476468756608071
21
7.314461729817703
31
0.0
0
LINE
8
shape
62
0
5
14a
100
AcDbEntity
100
AcDbLine
10
9.476468756608071
20
7.314461729817703
30
0.0
11
11.40085455833333
21
6.027121020833334
31
0.0
0
LINE
8
shape
62
0
5
14b
100
AcDbEntity
100
AcDbLine
10
11.40085455833333
20
6.027121020833334
30
0.0
11
12.928634594270832
21
5.214944445312476
31
0.0
0
LINE
8
shape
62
0
5
14c
100
AcDbEntity
100
AcDbLine
10
12.928634594270832
20
5.214944445312476
30
0.0
11
12.96699345598958
21
5.3910396604817485
31
0.0
0
LINE
8
shape
62
0
5
14d
100
AcDbEntity
100
AcDbLine
10
12.96699345598958
20
5.3910396604817485
30
0.0
11
12.64418932083333
21
5.944954666666661
31
0.0
0
LINE
8
shape
62
0
5
14e
100
AcDbEntity
100
AcDbLine
10
12.64418932083333
20
5.944954666666661
30
0.0
11
11.633108652604164
21
7.74073400520831
31
0.0
0
LINE
8
shape
62
0
5
14f
100
AcDbEntity
100
AcDbLine
10
11.633108652604164
20
7.74073400520831
30
0.0
11
10.753348762499998
21
9.742138249999954
31
0.0
0
LINE
8
shape
62
0
5
150
100
AcDbEntity
100
AcDbLine
10
10.753348762499998
20
9.742138249999954
30
0.0
11
10.43362206223958
21
10.897099401041636
31
0.0
0
LINE
8
shape
62
0
5
151
100
AcDbEntity
100
AcDbLine
10
10.43362206223958
20
10.897099401041636
30
0.0
11
10.350272722916664
21
12.442748270833306
31
0.0
0
LINE
8
shape
62
0
5
152
100
AcDbEntity
100
AcDbLine
10
10.350272722916664
20
12.442748270833306
30
0.0
11
10.409318859374999
21
13.917977624999974
31
0.0
0
LINE
8
shape
62
0
5
153
100
AcDbEntity
100
AcDbLine
10
10.409318859374999
20
13.917977624999974
30
0.0
11
10.534860972135416
21
14.225683907552057
31
0.0
0
LINE
8
shape
62
0
5
154
100
AcDbEntity
100
AcDbLine
10
10.534860972135416
20
14.225683907552057
30
0.0
11
10.770401952083331
21
14.457613854166624
31
0.0
0
LINE
8
shape
62
0
5
155
100
AcDbEntity
100
AcDbLine
10
10.770401952083331
20
14.457613854166624
30
0.0
11
11.43219657083333
21
14.782611649739547
31
0.0
0
LINE
8
shape
62
0
5
156
100
AcDbEntity
100
AcDbLine
10
11.43219657083333
20
14.782611649739547
30
0.0
11
12.217096258333331
21
14.774834718749968
31
0.0
0
LINE
8
shape
62
0
5
157
100
AcDbEntity
100
AcDbLine
10
12.217096258333331
20
14.774834718749968
30
0.0
11
13.09720348020833
21
14.44062810026039
31
0.0
0
LINE
8
shape
62
0
5
158
100
AcDbEntity
100
AcDbLine
10
13.09720348020833
20
14.44062810026039
30
0.0
11
14.04462070208333
21
13.786336833333309
31
0.0
0
LINE
8
shape
62
0
5
159
100
AcDbEntity
100
AcDbLine
10
14.04462070208333
20
13.786336833333309
30
0.0
11
15.926997173437496
21
11.664875585937473
31
0.0
0
LINE
8
shape
62
0
5
15a
100
AcDbEntity
100
AcDbLine
10
15.926997173437496
20
11.664875585937473
30
0.0
11
17.546732485416662
21
9.193852791666643
31
0.0
0
LINE
8
shape
62
0
5
15b
100
AcDbEntity
100
AcDbLine
10
17.546732485416662
20
9.193852791666643
30
0.0
11
17.74150864817708
21
8.906024820312485
31
0.0
0
LINE
8
shape
62
0
5
15c
100
AcDbEntity
100
AcDbLine
10
17.74150864817708
20
8.906024820312485
30
0.0
11
17.686775649999998
21
9.605195208333328
31
0.0
0
LINE
8
shape
62
0
5
15d
100
AcDbEntity
100
AcDbLine
10
17.686775649999998
20
9.605195208333328
30
0.0
11
17.581733321614582
21
12.065783166666645
31
0.0
0
LINE
8
shape
62
0
5
15e
100
AcDbEntity
100
AcDbLine
10
17.581733321614582
20
12.065783166666645
30
0.0
11
17.844388735416665
21
13.744995687499966
31
0.0
0
LINE
8
shape
62
0
5
15f
100
AcDbEntity
100
AcDbLine
10
17.844388735416665
20
13.744995687499966
30
0.0
11
18.203816108516435
21
14.271465960611957
31
0.0
0
LINE
8
shape
62
0
5
160
100
AcDbEntity
100
AcDbLine
10
18.203816108516435
20
14.271465960611957
30
0.0
11
18.621936342480463
21
14.617872805989567
31
0.0
0
LINE
8
shape
62
0
5
161
100
AcDbEntity
100
AcDbLine
10
18.621936342480463
20
14.617872805989567
30
0.0
11
19.09341155227457
21
14.785334418945297
31
0.0
0
LINE
8
shape
62
0
5
162
100
AcDbEntity
100
AcDbLine
10
19.09341155227457
20
14.785334418945297
30
0.0
11
19.612903852864576
21
14.77496899479165
31
0.0
0
LINE
8
shape
62
0
5
163
100
AcDbEntity
100
AcDbLine
10
19.612903852864576
20
14.77496899479165
30
0.0
11
20.774588186295567
21
14.225229816406223
31
0.0
0
LINE
8
shape
62
0
5
164
100
AcDbEntity
100
AcDbLine
10
20.774588186295567
20
14.225229816406223
30
0.0
11
22.064286262499994
21
12.977600833333298
31
0.0
0
LINE
8
shape
62
0
5
165
100
AcDbEntity
100
AcDbLine
10
22.064286262499994
20
12.977600833333298
30
0.0
11
22.872675641796867
21
11.89970693684893
31
0.0
0
LINE
8
shape
62
0
5
166
100
AcDbEntity
100
AcDbLine
10
22.872675641796867
20
11.89970693684893
30
0.0
11
23.567736868749993
21
10.718909802083306
31
0.0
0
LINE
8
shape
62
0
5
167
100
AcDbEntity
100
AcDbLine
10
23.567736868749993
20
10.718909802083306
30
0.0
11
24.952998893749996
21
7.41153214583332
31
0.0
0
LINE
8
shape
62
0
5
168
100
AcDbEntity
100
AcDbLine
10
24.952998893749996
20
7.41153214583332
30
0.0
11
25.771570713020825
21
4.541408213541647
31
0.0
0
LINE
8
shape
62
0
5
169
100
AcDbEntity
100
AcDbLine
10
25.771570713020825
20
4.541408213541647
30
0.0
11
26.30123697916666
21
1.7638156874999709
31
0.0
0
LINE
8
shape
62
0
5
16a
100
AcDbEntity
100
AcDbLine
10
26.30123697916666
20
1.7638156874999709
30
0.0
11
26.41149402180989
21
1.0446042281900816
31
0.0
0
LINE
8
shape
62
0
5
16b
100
AcDbEntity
100
AcDbLine
10
26.41149402180989
20
1.0446042281900816
30
0.0
11
26.470215269571938
21
0.926793336547832
31
0.0
0
LINE
8
shape
62
0
5
16c
100
AcDbEntity
100
AcDbLine
10
26.470215269571938
20
0.926793336547832
30
0.0
11
26.539812101562497
21
0.986019731770817
31
0.0
0
LINE
8
shape
62
0
5
16d
100
AcDbEntity
100
AcDbLine
10
26.539812101562497
20
0.986019731770817
30
0.0
11
27.054161770833325
21
3.2309091041666704
31
0.0
0
LINE
8
shape
62
0
5
16e
100
AcDbEntity
100
AcDbLine
10
27.054161770833325
20
3.2309091041666704
30
0.0
11
27.851978085937493
21
6.49735009635416
31
0.0
0
LINE
8
shape
62
0
5
16f
100
AcDbEntity
100
AcDbLine
10
27.851978085937493
20
6.49735009635416
30
0.0
11
28.86652585416666
21
9.334552916666652
31
0.0
0
LINE
8
shape
62
0
5
170
100
AcDbEntity
100
AcDbLine
10
28.86652585416666
20
9.334552916666652
30
0.0
11
30.078054591145825
21
11.693678127604144
31
0.0
0
LINE
8
shape
62
0
5
171
100
AcDbEntity
100
AcDbLine
10
30.078054591145825
20
11.693678127604144
30
0.0
11
31.466813812499993
21
13.525886291666637
31
0.0
0
LINE
8
shape
62
0
5
172
100
AcDbEntity
100
AcDbLine
10
31.466813812499993
20
13.525886291666637
30
0.0
11
32.175009215535475
21
14.172237898518855
31
0.0
0
LINE
8
shape
62
0
5
173
100
AcDbEntity
100
AcDbLine
10
32.175009215535475
20
14.172237898518855
30
0.0
11
32.8579454781901
21
14.591919248046853
31
0.0
0
LINE
8
shape
62
0
5
174
100
AcDbEntity
100
AcDbLine
10
32.8579454781901
20
14.591919248046853
30
0.0
11
33.500240438598624
21
14.788304211832665
31
0.0
0
LINE
8
shape
62
0
5
175
100
AcDbEntity
100
AcDbLine
10
33.500240438598624
20
14.788304211832665
30
0.0
11
34.086511934895825
21
14.764766661458317
31
0.0
0
LINE
8
shape
62
0
5
176
100
AcDbEntity
100
AcDbLine
10
34.086511934895825
20
14.764766661458317
30
0.0
11
34.60137780521646
21
14.524680468505846
31
0.0
0
LINE
8
shape
62
0
5
177
100
AcDbEntity
100
AcDbLine
10
34.60137780521646
20
14.524680468505846
30
0.0
11
35.029455887695306
21
14.071419504557277
31
0.0
0
LINE
8
shape
62
0
5
178
100
AcDbEntity
100
AcDbLine
10
35.029455887695306
20
14.071419504557277
30
0.0
11
35.355364020467114
21
13.408357641194643
31
0.0
0
LINE
8
shape
62
0
5
179
100
AcDbEntity
100
AcDbLine
10
35.355364020467114
20
13.408357641194643
30
0.0
11
35.56372004166666
21
12.538868749999978
31
0.0
0
LINE
8
shape
62
0
5
17a
100
AcDbEntity
100
AcDbLine
10
35.56372004166666
20
12.538868749999978
30
0.0
11
35.51133055729166
21
10.629952585937481
31
0.0
0
LINE
8
shape
62
0
5
17b
100
AcDbEntity
100
AcDbLine
10
35.51133055729166
20
10.629952585937481
30
0.0
11
35.19630110416666
21
8.823848874999982
31
0.0
0
LINE
8
shape
62
0
5
17c
100
AcDbEntity
100
AcDbLine
10
35.19630110416666
20
8.823848874999982
30
0.0
11
35.43054268229166
21
9.114978184895815
31
0.0
0
LINE
8
shape
62
0
5
17d
100
AcDbEntity
100
AcDbLine
10
35.43054268229166
20
9.114978184895815
30
0.0
11
36.12440916666666
21
10.166918854166653
31
0.0
0
LINE
8
shape
62
0
5
17e
100
AcDbEntity
100
AcDbLine
10
36.12440916666666
20
10.166918854166653
30
0.0
11
37.56093874348958
21
12.188489805989558
31
0.0
0
LINE
8
shape
62
0
5
17f
100
AcDbEntity
100
AcDbLine
10
37.56093874348958
20
12.188489805989558
30
0.0
11
38.89726234374999
21
13.642048296874968
31
0.0
0
LINE
8
shape
62
0
5
180
100
AcDbEntity
100
AcDbLine
10
38.89726234374999
20
13.642048296874968
30
0.0
11
40.12524700651041
21
14.519857248697882
31
0.0
0
LINE
8
shape
62
0
5
181
100
AcDbEntity
100
AcDbLine
10
40.12524700651041
20
14.519857248697882
30
0.0
11
41.236759770833324
21
14.8141795833333
31
0.0
0
LINE
8
shape
62
0
5
182
100
AcDbEntity
100
AcDbLine
10
41.236759770833324
20
14.8141795833333
30
0.0
11
41.83871463541666
21
14.733568648437469
31
0.0
0
LINE
8
shape
62
0
5
183
100
AcDbEntity
100
AcDbLine
10
41.83871463541666
20
14.733568648437469
30
0.0
11
42.32248012499999
21
14.457613854166624
31
0.0
0
LINE
8
shape
62
0
5
184
100
AcDbEntity
100
AcDbLine
10
42.32248012499999
20
14.457613854166624
30
0.0
11
42.67708926041666
21
13.94377086197914
31
0.0
0
LINE
8
shape
62
0
5
185
100
AcDbEntity
100
AcDbLine
10
42.67708926041666
20
13.94377086197914
30
0.0
11
42.79531964583333
21
12.771926979166636
31
0.0
0
LINE
8
shape
62
0
5
186
100
AcDbEntity
100
AcDbLine
10
42.79531964583333
20
12.771926979166636
30
0.0
11
42.70774454687499
21
11.299732767903624
31
0.0
0
LINE
8
shape
62
0
5
187
100
AcDbEntity
100
AcDbLine
10
42.70774454687499
20
11.299732767903624
30
0.0
11
42.30496536979166
21
9.713101882812477
31
0.0
0
LINE
8
shape
62
0
5
188
100
AcDbEntity
100
AcDbLine
10
42.30496536979166
20
9.713101882812477
30
0.0
11
41.573884247395824
21
7.969682056315085
31
0.0
0
LINE
8
shape
62
0
5
189
100
AcDbEntity
100
AcDbLine
10
41.573884247395824
20
7.969682056315085
30
0.0
11
40.50140331249999
21
6.027121020833334
31
0.0
0
LINE
8
shape
62
0
5
18a
100
AcDbEntity
100
AcDbLine
10
40.50140331249999
20
6.027121020833334
30
0.0
11
40.11641339583333
21
5.245772041666669
31
0.0
0
LINE
8
shape
62
0
5
18b
100
AcDbEntity
100
AcDbLine
10
40.11641339583333
20
5.245772041666669
30
0.0
11
40.622828913736974
21
5.4179647766926955
31
0.0
0
LINE
8
shape
62
0
5
18c
100
AcDbEntity
100
AcDbLine
10
40.622828913736974
20
5.4179647766926955
30
0.0
11
41.685728914062494
21
6.037369656249982
31
0.0
0
LINE
8
shape
62
0
5
18d
100
AcDbEntity
100
AcDbLine
10
41.685728914062494
20
6.037369656249982
30
0.0
11
44.31874285416666
21
7.877653895833333
31
0.0
0
LINE
8
shape
62
0
5
18e
100
AcDbEntity
100
AcDbLine
10
44.31874285416666
20
7.877653895833333
30
0.0
11
46.684925329427074
21
10.022404884440093
31
0.0
0
LINE
8
shape
62
0
5
18f
100
AcDbEntity
100
AcDbLine
10
46.684925329427074
20
10.022404884440093
30
0.0
11
48.60619604687499
21
12.379254554687481
31
0.0
0
LINE
8
shape
62
0
5
190
100
AcDbEntity
100
AcDbLine
10
48.60619604687499
20
12.379254554687481
30
0.0
11
50.07769328776041
21
14.939158869466125
31
0.0
0
LINE
8
shape
62
0
5
191
100
AcDbEntity
100
AcDbLine
10
50.07769328776041
20
14.939158869466125
30
0.0
11
51.094555333333325
21
17.69307379166665
31
0.0
0
LINE
8
shape
62
0
5
192
100
AcDbEntity
100
AcDbLine
10
51.094555333333325
20
17.69307379166665
30
0.0
11
51.42204116308593
21
19.408759869140603
31
0.0
0
LINE
8
shape
62
0
5
193
100
AcDbEntity
100
AcDbLine
10
51.42204116308593
20
19.408759869140603
30
0.0
11
51.560758111979155
21
21.342926130208305
31
0.0
0
LINE
8
shape
62
0
5
194
100
AcDbEntity
100
AcDbLine
10
51.560758111979155
20
21.342926130208305
30
0.0
11
51.50577674446613
21
23.271951867838506
31
0.0
0
LINE
8
shape
62
0
5
195
100
AcDbEntity
100
AcDbLine
10
51.50577674446613
20
23.271951867838506
30
0.0
11
51.25216762499999
21
24.97221637499996
31
0.0
0
LINE
8
shape
62
0
5
196
100
AcDbEntity
100
AcDbLine
10
51.25216762499999
20
24.97221637499996
30
0.0
11
50.57812636979166
21
27.28361769791664
31
0.0
0
LINE
8
shape
62
0
5
197
100
AcDbEntity
100
AcDbLine
10
50.57812636979166
20
27.28361769791664
30
0.0
11
49.799028333333325
21
29.07067570833331
31
0.0
0
LINE
8
shape
62
0
5
198
100
AcDbEntity
100
AcDbLine
10
49.799028333333325
20
29.07067570833331
30
0.0
11
48.266950769531235
21
31.482275979817686
31
0.0
0
LINE
8
shape
62
0
5
199
100
AcDbEntity
100
AcDbLine
10
48.266950769531235
20
31.482275979817686
30
0.0
11
46.39343668229165
21
33.68183338020831
31
0.0
0
LINE
8
shape
62
0
5
19a
100
AcDbEntity
100
AcDbLine
10
46.39343668229165
20
33.68183338020831
30
0.0
11
44.20475324348957
21
35.64235197591144
31
0.0
0
LINE
8
shape
62
0
5
19b
100
AcDbEntity
100
AcDbLine
10
44.20475324348957
20
35.64235197591144
30
0.0
11
41.72716762499999
21
37.33683583333331
31
0.0
0
LINE
8
shape
62
0
5
19c
100
AcDbEntity
100
AcDbLine
10
41.72716762499999
20
37.33683583333331
30
0.0
11
39.81540156770832
21
38.37922570572914
31
0.0
0
LINE
8
shape
62
0
5
19d
100
AcDbEntity
100
AcDbLine
10
39.81540156770832
20
38.37922570572914
30
0.0
11
38.64880404166666
21
38.87266006249999
31
0.0
0
LINE
8
shape
62
0
5
19e
100
AcDbEntity
100
AcDbLine
10
38.64880404166666
20
38.87266006249999
30
0.0
11
38.64880404166666
21
38.87266006249999
31
0.0
0
ENDSEC
0
SECTION
2
OBJECTS
0
DICTIONARY
5
C
330
0
100
AcDbDictionary
3
ACAD_GROUP
350
D
3
ACAD_MLINESTYLE
350
17
0
DICTIONARY
5
D
330
C
100
AcDbDictionary
0
DICTIONARY
5
1A
330
C
100
AcDbDictionary
0
DICTIONARY
5
17
330
C
100
AcDbDictionary
3
STANDARD
350
18
0
DICTIONARY
5
19
330
C
100
AcDbDictionary
0
ENDSEC
0
EOF
