<?xml version="1.0" encoding="UTF-8" standalone="no"?>
<!-- Generator: Adobe Illustrator 15.1.0, SVG Export Plug-In . SVG Version: 6.00 Build 0)  -->

<svg
   xmlns:dc="http://purl.org/dc/elements/1.1/"
   xmlns:cc="http://creativecommons.org/ns#"
   xmlns:rdf="http://www.w3.org/1999/02/22-rdf-syntax-ns#"
   xmlns:svg="http://www.w3.org/2000/svg"
   xmlns="http://www.w3.org/2000/svg"
   xmlns:sodipodi="http://sodipodi.sourceforge.net/DTD/sodipodi-0.dtd"
   xmlns:inkscape="http://www.inkscape.org/namespaces/inkscape"
   version="1.1"
   id="Ebene_2"
   x="0px"
   y="0px"
   width="626.03149"
   height="670.09412"
   viewBox="0 0 626.0315 670.09412"
   enable-background="new 0 0 4856 968"
   xml:space="preserve"
   inkscape:version="0.91 r13725"
   sodipodi:docname="badman.svg"><metadata
     id="metadata41"><rdf:RDF><cc:Work
         rdf:about=""><dc:format>image/svg+xml</dc:format><dc:type
           rdf:resource="http://purl.org/dc/dcmitype/StillImage" /><dc:title></dc:title></cc:Work></rdf:RDF></metadata><defs
     id="defs39"><inkscape:path-effect
       effect="spiro"
       id="path-effect3201"
       is_visible="true" /><inkscape:path-effect
       effect="spiro"
       id="path-effect3197"
       is_visible="true" /><inkscape:path-effect
       effect="spiro"
       id="path-effect3193"
       is_visible="true" /><inkscape:path-effect
       effect="spiro"
       id="path-effect3189"
       is_visible="true" /><inkscape:path-effect
       effect="spiro"
       id="path-effect3185"
       is_visible="true" /><inkscape:path-effect
       effect="spiro"
       id="path-effect3181"
       is_visible="true" /><inkscape:path-effect
       effect="spiro"
       id="path-effect3177"
       is_visible="true" /><inkscape:path-effect
       effect="spiro"
       id="path-effect3173"
       is_visible="true" /><inkscape:path-effect
       effect="spiro"
       id="path-effect3152"
       is_visible="true" /><inkscape:path-effect
       is_visible="true"
       id="path-effect3144"
       effect="spiro" /><inkscape:path-effect
       effect="spiro"
       id="path-effect3140"
       is_visible="true" /><inkscape:path-effect
       is_visible="true"
       id="path-effect3136"
       effect="spiro" /><inkscape:path-effect
       effect="spiro"
       id="path-effect3131"
       is_visible="true" /><inkscape:path-effect
       is_visible="true"
       id="path-effect3127"
       effect="spiro" /><inkscape:path-effect
       effect="spiro"
       id="path-effect3123"
       is_visible="true" /><inkscape:path-effect
       is_visible="true"
       id="path-effect3119"
       effect="spiro" /><inkscape:path-effect
       effect="spiro"
       id="path-effect3115"
       is_visible="true" /><inkscape:path-effect
       is_visible="true"
       id="path-effect3111"
       effect="spiro" /><inkscape:path-effect
       effect="spiro"
       id="path-effect3107"
       is_visible="true" /><inkscape:path-effect
       is_visible="true"
       id="path-effect3103"
       effect="spiro" /><inkscape:path-effect
       effect="spiro"
       id="path-effect3099"
       is_visible="true" /><inkscape:path-effect
       is_visible="true"
       id="path-effect3095"
       effect="spiro" /><inkscape:path-effect
       effect="spiro"
       id="path-effect3091"
       is_visible="true" /><inkscape:path-effect
       is_visible="true"
       id="path-effect3087"
       effect="spiro" /><inkscape:path-effect
       effect="spiro"
       id="path-effect3083"
       is_visible="true" /><inkscape:path-effect
       is_visible="true"
       id="path-effect3079"
       effect="spiro" /><inkscape:path-effect
       effect="spiro"
       id="path-effect3075"
       is_visible="true" /><inkscape:path-effect
       is_visible="true"
       id="path-effect3071"
       effect="spiro" /><inkscape:path-effect
       effect="spiro"
       id="path-effect3067"
       is_visible="true" /><inkscape:path-effect
       is_visible="true"
       id="path-effect3063"
       effect="spiro" /><inkscape:path-effect
       effect="spiro"
       id="path-effect3059"
       is_visible="true" /><inkscape:path-effect
       is_visible="true"
       id="path-effect3055"
       effect="spiro" /><inkscape:path-effect
       effect="spiro"
       id="path-effect3051"
       is_visible="true" /><inkscape:path-effect
       is_visible="true"
       id="path-effect3047"
       effect="spiro" /><inkscape:path-effect
       effect="spiro"
       id="path-effect3043"
       is_visible="true" /><inkscape:path-effect
       is_visible="true"
       id="path-effect3039"
       effect="spiro" /><inkscape:path-effect
       effect="spiro"
       id="path-effect3033"
       is_visible="true" /><inkscape:path-effect
       effect="spiro"
       id="path-effect3090"
       is_visible="true" /><inkscape:path-effect
       effect="spiro"
       id="path-effect3086"
       is_visible="true" /><inkscape:path-effect
       is_visible="true"
       id="path-effect3082"
       effect="spiro" /><inkscape:path-effect
       effect="spiro"
       id="path-effect3078"
       is_visible="true" /><inkscape:path-effect
       is_visible="true"
       id="path-effect3074"
       effect="spiro" /><inkscape:path-effect
       is_visible="true"
       id="path-effect3038"
       effect="spiro" /><inkscape:path-effect
       effect="spiro"
       id="path-effect3774"
       is_visible="true" /><inkscape:path-effect
       effect="spiro"
       id="path-effect3768"
       is_visible="true" /><inkscape:path-effect
       effect="spiro"
       id="path-effect3764"
       is_visible="true" /><inkscape:path-effect
       effect="spiro"
       id="path-effect3760"
       is_visible="true" /><inkscape:path-effect
       is_visible="true"
       id="path-effect3079-2"
       effect="spiro" /></defs><sodipodi:namedview
     pagecolor="#ffffff"
     bordercolor="#666666"
     borderopacity="1"
     objecttolerance="10"
     gridtolerance="10"
     guidetolerance="10"
     inkscape:pageopacity="0"
     inkscape:pageshadow="2"
     inkscape:window-width="1920"
     inkscape:window-height="1015"
     id="namedview37"
     showgrid="true"
     fit-margin-top="20"
     fit-margin-left="20"
     fit-margin-right="20"
     fit-margin-bottom="20"
     inkscape:zoom="1.15"
     inkscape:cx="57.770873"
     inkscape:cy="-3.898363"
     inkscape:window-x="0"
     inkscape:window-y="0"
     inkscape:window-maximized="1"
     inkscape:current-layer="layer1"
     inkscape:document-units="mm"
     units="mm"
     inkscape:snap-nodes="true"
     inkscape:snap-bbox="true"
     showguides="true"
     inkscape:guide-bbox="true"
     inkscape:snap-global="false"
     inkscape:bbox-nodes="true"><inkscape:grid
       type="xygrid"
       id="grid2988"
       empspacing="5"
       visible="true"
       enabled="true"
       snapvisiblegridlinesonly="true"
       units="mm"
       spacingx="1mm"
       spacingy="1mm" /></sodipodi:namedview><g
     inkscape:groupmode="layer"
     id="layer1"
     inkscape:label="shape"
     style="display:inline"><g
       style="fill:#020202;stroke:none"
       transform="matrix(0.06617734,0,0,-0.051811,3.7146839,673.68586)"
       id="g3409"><path
         inkscape:connector-curvature="0"
         class="node"
         id="node1"
         d="M 701,2869 C 542,2771 388,2623 277,2458 214,2366 127,2197 114,2143 c -4,-15 -10,-32 -14,-38 -4,-5 -21,-66 -36,-135 -27,-116 -29,-140 -28,-325 0,-182 3,-210 28,-310 28,-117 45,-168 83,-253 12,-29 23,-54 23,-56 0,-3 19,-37 42,-78 94,-165 233,-324 383,-439 102,-78 107,-78 71,-6 -39,77 -79,180 -108,277 -18,60 -23,99 -23,197 0,115 1,123 24,147 45,48 113,30 187,-49 56,-60 164,-241 200,-335 13,-34 14,-32 8,30 -12,115 -7,263 9,302 50,120 139,99 241,-56 68,-105 106,-199 165,-406 30,-107 69,-314 77,-412 9,-99 13,-88 43,107 52,337 140,600 252,751 109,148 212,117 234,-72 6,-55 -7,-226 -21,-271 -3,-10 21,34 53,98 113,224 212,339 292,339 27,0 44,-7 62,-26 21,-23 24,-36 27,-123 5,-139 -36,-292 -131,-492 -15,-29 -24,-55 -22,-57 10,-11 149,101 240,192 197,198 327,439 387,716 32,149 36,384 9,531 -23,123 -52,227 -83,299 -103,244 -262,452 -461,603 -73,56 -177,121 -177,111 0,-3 16,-25 35,-48 111,-135 176,-421 128,-562 -20,-60 -88,-128 -164,-166 -100,-50 -239,-56 -303,-14 -67,44 -149,267 -191,521 -4,22 -12,58 -17,80 l -11,40 -13,-84 c -15,-104 -49,-159 -111,-180 -35,-13 -47,-13 -83,-1 -70,23 -103,79 -117,198 -3,28 -9,52 -12,52 -3,0 -14,-39 -23,-87 -35,-183 -82,-368 -98,-388 -4,-5 -11,-21 -15,-35 -13,-43 -64,-109 -98,-127 -42,-21 -155,-21 -230,1 -74,21 -174,97 -207,156 -36,65 -40,202 -10,320 26,100 88,236 132,285 17,20 29,37 27,39 -2,2 -33,-14 -68,-35 z" /></g></g><g
     inkscape:groupmode="layer"
     id="layer2"
     inkscape:label="struts"
     style="display:inline" /><g
     inkscape:groupmode="layer"
     id="layer3"
     inkscape:label="fillings"
     style="display:inline" /></svg>