0
SECTION
2
HEADER
9
$ACADVER
1
AC1014
9
$HANDSEED
5
FFFF
0
ENDSEC
0
SECTION
2
TABLES
0
TABLE
2
VPORT
5
8
330
0
100
AcDbSymbolTable
70
4
0
VPORT
5
2E
330
8
100
AcDbSymbolTableRecord
100
AcDbViewportTableRecord
2
*ACTIVE
70
0
10
0.0
20
0.0
11
1.0
21
1.0
12
4.25
22
5.5
13
0.0
23
0.0
14
10.0
24
10.0
15
10.0
25
10.0
16
0.0
26
0.0
36
1.0
17
0.0
27
0.0
37
0.0
40
11
41
1.24
42
50.0
43
0.0
44
0.0
50
0.0
51
0.0
71
0
72
100
73
1
74
3
75
0
76
0
77
0
78
0
0
ENDTAB
0
TABLE
2
LTYPE
5
5
330
0
100
AcDbSymbolTable
70
1
0
LTYPE
5
14
330
5
100
AcDbSymbolTableRecord
100
AcDbLinetypeTableRecord
2
BYBLOCK
70
0
3

72
65
73
0
40
0.0
0
LTYPE
5
15
330
5
100
AcDbSymbolTableRecord
100
AcDbLinetypeTableRecord
2
BYLAYER
70
0
3

72
65
73
0
40
0.0
0
LTYPE
5
16
330
5
100
AcDbSymbolTableRecord
100
AcDbLinetypeTableRecord
2
CONTINUOUS
70
0
3
Solid line
72
65
73
0
40
0.0
0
ENDTAB
0
TABLE
2
LAYER
5
2
330
0
100
AcDbSymbolTable
70
1
0
LAYER
5
10
330
2
100
AcDbSymbolTableRecord
100
AcDbLayerTableRecord
2
0
70
0
62
7
6
CONTINUOUS
0
ENDTAB
0
TABLE
2
STYLE
5
3
330
0
100
AcDbSymbolTable
70
1
0
STYLE
5
11
330
3
100
AcDbSymbolTableRecord
100
AcDbTextStyleTableRecord
2
STANDARD
70
0
40
0.0
41
1.0
50
0.0
71
0
42
2.5
3
txt
4

0
ENDTAB
0
TABLE
2
VIEW
5
6
330
0
100
AcDbSymbolTable
70
0
0
ENDTAB
0
TABLE
2
UCS
5
7
330
0
100
AcDbSymbolTable
70
0
0
ENDTAB
0
TABLE
2
APPID
5
9
330
0
100
AcDbSymbolTable
70
2
0
APPID
5
12
330
9
100
AcDbSymbolTableRecord
100
AcDbRegAppTableRecord
2
ACAD
70
0
0
ENDTAB
0
TABLE
2
DIMSTYLE
5
A
330
0
100
AcDbSymbolTable
70
1
0
DIMSTYLE
105
27
330
A
100
AcDbSymbolTableRecord
100
AcDbDimStyleTableRecord
2
ISO-25
70
0
3

4

5

6

7

40
1.0
41
2.5
42
0.625
43
3.75
44
1.25
45
0.0
46
0.0
47
0.0
48
0.0
140
2.5
141
2.5
142
0.0
143
0.03937007874016
144
1.0
145
0.0
146
1.0
147
0.625
71
0
72
0
73
0
74
0
75
0
76
0
77
1
78
8
170
0
171
3
172
1
173
0
174
0
175
0
176
0
177
0
178
0
270
2
271
2
272
2
273
2
274
3
340
11
275
0
280
0
281
0
282
0
283
0
284
8
285
0
286
0
287
3
288
0
0
ENDTAB
0
TABLE
2
BLOCK_RECORD
5
1
330
0
100
AcDbSymbolTable
70
1
0
BLOCK_RECORD
5
1F
330
1
100
AcDbSymbolTableRecord
100
AcDbBlockTableRecord
2
*MODEL_SPACE
0
BLOCK_RECORD
5
1B
330
1
100
AcDbSymbolTableRecord
100
AcDbBlockTableRecord
2
*PAPER_SPACE
0
ENDTAB
0
ENDSEC
0
SECTION
2
BLOCKS
0
BLOCK
5
20
330
1F
100
AcDbEntity
8
0
100
AcDbBlockBegin
2
*MODEL_SPACE
70
0
10
0.0
20
0.0
30
0.0
3
*MODEL_SPACE
1

0
ENDBLK
5
21
330
1F
100
AcDbEntity
8
0
100
AcDbBlockEnd
0
BLOCK
5
1C
330
1B
100
AcDbEntity
67
1
8
0
100
AcDbBlockBegin
2
*PAPER_SPACE
1

0
ENDBLK
5
1D
330
1B
100
AcDbEntity
67
1
8
0
100
AcDbBlockEnd
0
ENDSEC
0
SECTION
2
ENTITIES
0
LINE
8
CC
62
0
5
100
100
AcDbEntity
100
AcDbLine
10
111.37305
20
214.5125946999999
30
0.0
11
108.85938
21
214.35829469999987
31
0.0
0
LINE
8
CC
62
0
5
101
100
AcDbEntity
100
AcDbLine
10
108.85938
20
214.35829469999987
30
0.0
11
88.337891
21
212.58681469999988
31
0.0
0
LINE
8
CC
62
0
5
102
100
AcDbEntity
100
AcDbLine
10
88.337891
20
212.58681469999988
30
0.0
11
80.792969
21
209.96376469999984
31
0.0
0
LINE
8
CC
62
0
5
103
100
AcDbEntity
100
AcDbLine
10
80.792969
20
209.96376469999984
30
0.0
11
74.53125
21
206.2059546999999
31
0.0
0
LINE
8
CC
62
0
5
104
100
AcDbEntity
100
AcDbLine
10
74.53125
20
206.2059546999999
30
0.0
11
69.107422
21
200.97158469999988
31
0.0
0
LINE
8
CC
62
0
5
105
100
AcDbEntity
100
AcDbLine
10
69.107422
20
200.97158469999988
30
0.0
11
64.078125
21
193.9344746999999
31
0.0
0
LINE
8
CC
62
0
5
106
100
AcDbEntity
100
AcDbLine
10
64.078125
20
193.9344746999999
30
0.0
11
58.705078
21
183.55751469999984
31
0.0
0
LINE
8
CC
62
0
5
107
100
AcDbEntity
100
AcDbLine
10
58.705078
20
183.55751469999984
30
0.0
11
54.164062
21
171.29579469999987
31
0.0
0
LINE
8
CC
62
0
5
108
100
AcDbEntity
100
AcDbLine
10
54.164062
20
171.29579469999987
30
0.0
11
50.609375
21
157.66298469999992
31
0.0
0
LINE
8
CC
62
0
5
109
100
AcDbEntity
100
AcDbLine
10
50.609375
20
157.66298469999992
30
0.0
11
48.201172
21
143.17275469999993
31
0.0
0
LINE
8
CC
62
0
5
10a
100
AcDbEntity
100
AcDbLine
10
48.201172
20
143.17275469999993
30
0.0
11
47.685547
21
138.91298469999992
31
0.0
0
LINE
8
CC
62
0
5
10b
100
AcDbEntity
100
AcDbLine
10
47.685547
20
138.91298469999992
30
0.0
11
43.09375
21
131.48915469999986
31
0.0
0
LINE
8
CC
62
0
5
10c
100
AcDbEntity
100
AcDbLine
10
43.09375
20
131.48915469999986
30
0.0
11
35.183594
21
118.05165469999986
31
0.0
0
LINE
8
CC
62
0
5
10d
100
AcDbEntity
100
AcDbLine
10
35.183594
20
118.05165469999986
30
0.0
11
26.6875
21
102.52236469999991
31
0.0
0
LINE
8
CC
62
0
5
10e
100
AcDbEntity
100
AcDbLine
10
26.6875
20
102.52236469999991
30
0.0
11
18.462891
21
86.52626469999984
31
0.0
0
LINE
8
CC
62
0
5
10f
100
AcDbEntity
100
AcDbLine
10
18.462891
20
86.52626469999984
30
0.0
11
11.369141
21
71.67665469999986
31
0.0
0
LINE
8
CC
62
0
5
110
100
AcDbEntity
100
AcDbLine
10
11.369141
20
71.67665469999986
30
0.0
11
7.7695312
21
63.31142469999986
31
0.0
0
LINE
8
CC
62
0
5
111
100
AcDbEntity
100
AcDbLine
10
7.7695312
20
63.31142469999986
30
0.0
11
7.2578125
21
61.194234699999924
31
0.0
0
LINE
8
CC
62
0
5
112
100
AcDbEntity
100
AcDbLine
10
7.2578125
20
61.194234699999924
30
0.0
11
7.171875
21
59.14540469999986
31
0.0
0
LINE
8
CC
62
0
5
113
100
AcDbEntity
100
AcDbLine
10
7.171875
20
59.14540469999986
30
0.0
11
7.609375
21
54.00087469999994
31
0.0
0
LINE
8
CC
62
0
5
114
100
AcDbEntity
100
AcDbLine
10
7.609375
20
54.00087469999994
30
0.0
11
8.9023438
21
49.288004699999874
31
0.0
0
LINE
8
CC
62
0
5
115
100
AcDbEntity
100
AcDbLine
10
8.9023438
20
49.288004699999874
30
0.0
11
11.048828
21
45.02820469999995
31
0.0
0
LINE
8
CC
62
0
5
116
100
AcDbEntity
100
AcDbLine
10
11.048828
20
45.02820469999995
30
0.0
11
14.046875
21
41.22940469999992
31
0.0
0
LINE
8
CC
62
0
5
117
100
AcDbEntity
100
AcDbLine
10
14.046875
20
41.22940469999992
30
0.0
11
16.816406
21
38.75480469999991
31
0.0
0
LINE
8
CC
62
0
5
118
100
AcDbEntity
100
AcDbLine
10
16.816406
20
38.75480469999991
30
0.0
11
19.658203
21
36.86610469999994
31
0.0
0
LINE
8
CC
62
0
5
119
100
AcDbEntity
100
AcDbLine
10
19.658203
20
36.86610469999994
30
0.0
11
22.15625
21
35.81140469999991
31
0.0
0
LINE
8
CC
62
0
5
11a
100
AcDbEntity
100
AcDbLine
10
22.15625
20
35.81140469999991
30
0.0
11
23.986328
21
36.00280469999984
31
0.0
0
LINE
8
CC
62
0
5
11b
100
AcDbEntity
100
AcDbLine
10
23.986328
20
36.00280469999984
30
0.0
11
27.572266
21
45.27820469999995
31
0.0
0
LINE
8
CC
62
0
5
11c
100
AcDbEntity
100
AcDbLine
10
27.572266
20
45.27820469999995
30
0.0
11
30.167969
21
46.0868046999999
31
0.0
0
LINE
8
CC
62
0
5
11d
100
AcDbEntity
100
AcDbLine
10
30.167969
20
46.0868046999999
30
0.0
11
34.388672
21
47.21960469999988
31
0.0
0
LINE
8
CC
62
0
5
11e
100
AcDbEntity
100
AcDbLine
10
34.388672
20
47.21960469999988
30
0.0
11
41.03125
21
49.39540469999986
31
0.0
0
LINE
8
CC
62
0
5
11f
100
AcDbEntity
100
AcDbLine
10
41.03125
20
49.39540469999986
30
0.0
11
47.691406
21
50.71570469999995
31
0.0
0
LINE
8
CC
62
0
5
120
100
AcDbEntity
100
AcDbLine
10
47.691406
20
50.71570469999995
30
0.0
11
54.236328
21
51.17080469999985
31
0.0
0
LINE
8
CC
62
0
5
121
100
AcDbEntity
100
AcDbLine
10
54.236328
20
51.17080469999985
30
0.0
11
60.496094
21
50.73720469999989
31
0.0
0
LINE
8
CC
62
0
5
122
100
AcDbEntity
100
AcDbLine
10
60.496094
20
50.73720469999989
30
0.0
11
66.3125
21
49.518404699999905
31
0.0
0
LINE
8
CC
62
0
5
123
100
AcDbEntity
100
AcDbLine
10
66.3125
20
49.518404699999905
30
0.0
11
67.587891
21
47.39540469999986
31
0.0
0
LINE
8
CC
62
0
5
124
100
AcDbEntity
100
AcDbLine
10
67.587891
20
47.39540469999986
30
0.0
11
70.177734
21
42.16100469999992
31
0.0
0
LINE
8
CC
62
0
5
125
100
AcDbEntity
100
AcDbLine
10
70.177734
20
42.16100469999992
30
0.0
11
73.736328
21
35.551704699999846
31
0.0
0
LINE
8
CC
62
0
5
126
100
AcDbEntity
100
AcDbLine
10
73.736328
20
35.551704699999846
30
0.0
11
78.015625
21
29.17080469999985
31
0.0
0
LINE
8
CC
62
0
5
127
100
AcDbEntity
100
AcDbLine
10
78.015625
20
29.17080469999985
30
0.0
11
82.003906
21
24.87000469999998
31
0.0
0
LINE
8
CC
62
0
5
128
100
AcDbEntity
100
AcDbLine
10
82.003906
20
24.87000469999998
30
0.0
11
85.351562
21
22.145404699999972
31
0.0
0
LINE
8
CC
62
0
5
129
100
AcDbEntity
100
AcDbLine
10
85.351562
20
22.145404699999972
30
0.0
11
115.55859
21
3.059504699999934
31
0.0
0
LINE
8
CC
62
0
5
12a
100
AcDbEntity
100
AcDbLine
10
115.55859
20
3.059504699999934
30
0.0
11
141.36914
21
20.971604699999943
31
0.0
0
LINE
8
CC
62
0
5
12b
100
AcDbEntity
100
AcDbLine
10
141.36914
20
20.971604699999943
30
0.0
11
142.67383
21
21.887604699999883
31
0.0
0
LINE
8
CC
62
0
5
12c
100
AcDbEntity
100
AcDbLine
10
142.67383
20
21.887604699999883
30
0.0
11
144.25
21
22.688404699999865
31
0.0
0
LINE
8
CC
62
0
5
12d
100
AcDbEntity
100
AcDbLine
10
144.25
20
22.688404699999865
30
0.0
11
149.94531
21
26.655204699999786
31
0.0
0
LINE
8
CC
62
0
5
12e
100
AcDbEntity
100
AcDbLine
10
149.94531
20
26.655204699999786
30
0.0
11
153.5918
21
29.663004699999874
31
0.0
0
LINE
8
CC
62
0
5
12f
100
AcDbEntity
100
AcDbLine
10
153.5918
20
29.663004699999874
30
0.0
11
155.54297
21
32.09460469999988
31
0.0
0
LINE
8
CC
62
0
5
130
100
AcDbEntity
100
AcDbLine
10
155.54297
20
32.09460469999988
30
0.0
11
159.75977
21
38.850504699999874
31
0.0
0
LINE
8
CC
62
0
5
131
100
AcDbEntity
100
AcDbLine
10
159.75977
20
38.850504699999874
30
0.0
11
165.53125
21
46.834904699999925
31
0.0
0
LINE
8
CC
62
0
5
132
100
AcDbEntity
100
AcDbLine
10
165.53125
20
46.834904699999925
30
0.0
11
166.53906
21
49.100504699999874
31
0.0
0
LINE
8
CC
62
0
5
133
100
AcDbEntity
100
AcDbLine
10
166.53906
20
49.100504699999874
30
0.0
11
170.05859
21
49.62980469999991
31
0.0
0
LINE
8
CC
62
0
5
134
100
AcDbEntity
100
AcDbLine
10
170.05859
20
49.62980469999991
30
0.0
11
175.22852
21
49.89150469999993
31
0.0
0
LINE
8
CC
62
0
5
135
100
AcDbEntity
100
AcDbLine
10
175.22852
20
49.89150469999993
30
0.0
11
185.03906
21
49.41100469999992
31
0.0
0
LINE
8
CC
62
0
5
136
100
AcDbEntity
100
AcDbLine
10
185.03906
20
49.41100469999992
30
0.0
11
192.14258
21
47.69810469999993
31
0.0
0
LINE
8
CC
62
0
5
137
100
AcDbEntity
100
AcDbLine
10
192.14258
20
47.69810469999993
30
0.0
11
198.38672
21
45.33100469999988
31
0.0
0
LINE
8
CC
62
0
5
138
100
AcDbEntity
100
AcDbLine
10
198.38672
20
45.33100469999988
30
0.0
11
200.89648
21
44.37980469999991
31
0.0
0
LINE
8
CC
62
0
5
139
100
AcDbEntity
100
AcDbLine
10
200.89648
20
44.37980469999991
30
0.0
11
204.42188
21
42.58290469999986
31
0.0
0
LINE
8
CC
62
0
5
13a
100
AcDbEntity
100
AcDbLine
10
204.42188
20
42.58290469999986
30
0.0
11
205.35742
21
39.676704699999846
31
0.0
0
LINE
8
CC
62
0
5
13b
100
AcDbEntity
100
AcDbLine
10
205.35742
20
39.676704699999846
30
0.0
11
206.98047
21
35.13170469999989
31
0.0
0
LINE
8
CC
62
0
5
13c
100
AcDbEntity
100
AcDbLine
10
206.98047
20
35.13170469999989
30
0.0
11
207.73438
21
34.313404699999865
31
0.0
0
LINE
8
CC
62
0
5
13d
100
AcDbEntity
100
AcDbLine
10
207.73438
20
34.313404699999865
30
0.0
11
208.74219
21
34.16100469999992
31
0.0
0
LINE
8
CC
62
0
5
13e
100
AcDbEntity
100
AcDbLine
10
208.74219
20
34.16100469999992
30
0.0
11
210.69531
21
34.67470469999989
31
0.0
0
LINE
8
CC
62
0
5
13f
100
AcDbEntity
100
AcDbLine
10
210.69531
20
34.67470469999989
30
0.0
11
213.14844
21
35.96960469999988
31
0.0
0
LINE
8
CC
62
0
5
140
100
AcDbEntity
100
AcDbLine
10
213.14844
20
35.96960469999988
30
0.0
11
217.98438
21
39.82700469999986
31
0.0
0
LINE
8
CC
62
0
5
141
100
AcDbEntity
100
AcDbLine
10
217.98438
20
39.82700469999986
30
0.0
11
220.80664
21
43.47940469999992
31
0.0
0
LINE
8
CC
62
0
5
142
100
AcDbEntity
100
AcDbLine
10
220.80664
20
43.47940469999992
30
0.0
11
222.87891
21
47.663004699999874
31
0.0
0
LINE
8
CC
62
0
5
143
100
AcDbEntity
100
AcDbLine
10
222.87891
20
47.663004699999874
30
0.0
11
224.16016
21
52.25480469999991
31
0.0
0
LINE
8
CC
62
0
5
144
100
AcDbEntity
100
AcDbLine
10
224.16016
20
52.25480469999991
30
0.0
11
224.60352
21
57.13368469999989
31
0.0
0
LINE
8
CC
62
0
5
145
100
AcDbEntity
100
AcDbLine
10
224.60352
20
57.13368469999989
30
0.0
11
224.29102
21
60.71962469999994
31
0.0
0
LINE
8
CC
62
0
5
146
100
AcDbEntity
100
AcDbLine
10
224.29102
20
60.71962469999994
30
0.0
11
222.83789
21
64.79579469999987
31
0.0
0
LINE
8
CC
62
0
5
147
100
AcDbEntity
100
AcDbLine
10
222.83789
20
64.79579469999987
30
0.0
11
215.30859
21
81.73525469999993
31
0.0
0
LINE
8
CC
62
0
5
148
100
AcDbEntity
100
AcDbLine
10
215.30859
20
81.73525469999993
30
0.0
11
206.50391
21
99.87587469999994
31
0.0
0
LINE
8
CC
62
0
5
149
100
AcDbEntity
100
AcDbLine
10
206.50391
20
99.87587469999994
30
0.0
11
197.2793
21
117.52431469999988
31
0.0
0
LINE
8
CC
62
0
5
14a
100
AcDbEntity
100
AcDbLine
10
197.2793
20
117.52431469999988
30
0.0
11
188.48828
21
132.98329469999987
31
0.0
0
LINE
8
CC
62
0
5
14b
100
AcDbEntity
100
AcDbLine
10
188.48828
20
132.98329469999987
30
0.0
11
185.50391
21
137.95204469999987
31
0.0
0
LINE
8
CC
62
0
5
14c
100
AcDbEntity
100
AcDbLine
10
185.50391
20
137.95204469999987
30
0.0
11
184.73828
21
144.4500946999999
31
0.0
0
LINE
8
CC
62
0
5
14d
100
AcDbEntity
100
AcDbLine
10
184.73828
20
144.4500946999999
30
0.0
11
183.04688
21
155.56923469999992
31
0.0
0
LINE
8
CC
62
0
5
14e
100
AcDbEntity
100
AcDbLine
10
183.04688
20
155.56923469999992
30
0.0
11
180.69531
21
166.06728469999985
31
0.0
0
LINE
8
CC
62
0
5
14f
100
AcDbEntity
100
AcDbLine
10
180.69531
20
166.06728469999985
30
0.0
11
177.74219
21
175.79775469999993
31
0.0
0
LINE
8
CC
62
0
5
150
100
AcDbEntity
100
AcDbLine
10
177.74219
20
175.79775469999993
30
0.0
11
174.25195
21
184.6219746999999
31
0.0
0
LINE
8
CC
62
0
5
151
100
AcDbEntity
100
AcDbLine
10
174.25195
20
184.6219746999999
30
0.0
11
170.2832
21
192.4032246999999
31
0.0
0
LINE
8
CC
62
0
5
152
100
AcDbEntity
100
AcDbLine
10
170.2832
20
192.4032246999999
30
0.0
11
165.89453
21
199.00673469999992
31
0.0
0
LINE
8
CC
62
0
5
153
100
AcDbEntity
100
AcDbLine
10
165.89453
20
199.00673469999992
30
0.0
11
161.13867
21
204.29189469999994
31
0.0
0
LINE
8
CC
62
0
5
154
100
AcDbEntity
100
AcDbLine
10
161.13867
20
204.29189469999994
30
0.0
11
156.07617
21
208.1122046999999
31
0.0
0
LINE
8
CC
62
0
5
155
100
AcDbEntity
100
AcDbLine
10
156.07617
20
208.1122046999999
30
0.0
11
149.81641
21
211.0028246999999
31
0.0
0
LINE
8
CC
62
0
5
156
100
AcDbEntity
100
AcDbLine
10
149.81641
20
211.0028246999999
30
0.0
11
142.91406
21
213.00087469999994
31
0.0
0
LINE
8
CC
62
0
5
157
100
AcDbEntity
100
AcDbLine
10
142.91406
20
213.00087469999994
30
0.0
11
134.13281
21
214.0086846999999
31
0.0
0
LINE
8
CC
62
0
5
158
100
AcDbEntity
100
AcDbLine
10
134.13281
20
214.0086846999999
30
0.0
11
126.08203
21
214.28408469999988
31
0.0
0
LINE
8
CC
62
0
5
159
100
AcDbEntity
100
AcDbLine
10
126.08203
20
214.28408469999988
30
0.0
11
122.97656
21
214.44228469999985
31
0.0
0
LINE
8
CC
62
0
5
15a
100
AcDbEntity
100
AcDbLine
10
122.97656
20
214.44228469999985
30
0.0
11
111.37305
21
214.5125946999999
31
0.0
0
LINE
8
CC
62
0
5
15b
100
AcDbEntity
100
AcDbLine
10
111.37305
20
214.5125946999999
30
0.0
11
111.37305
21
214.5125946999999
31
0.0
0
LINE
8
CC
62
0
5
15c
100
AcDbEntity
100
AcDbLine
10
111.40039
20
213.5125946999999
30
0.0
11
122.94727
21
213.44228469999985
31
0.0
0
LINE
8
CC
62
0
5
15d
100
AcDbEntity
100
AcDbLine
10
122.94727
20
213.44228469999985
30
0.0
11
126.03906
21
213.28408469999988
31
0.0
0
LINE
8
CC
62
0
5
15e
100
AcDbEntity
100
AcDbLine
10
126.03906
20
213.28408469999988
30
0.0
11
134.05859
21
213.01064469999994
31
0.0
0
LINE
8
CC
62
0
5
15f
100
AcDbEntity
100
AcDbLine
10
134.05859
20
213.01064469999994
30
0.0
11
142.7168
21
212.01650469999993
31
0.0
0
LINE
8
CC
62
0
5
160
100
AcDbEntity
100
AcDbLine
10
142.7168
20
212.01650469999993
30
0.0
11
149.46484
21
210.06337469999994
31
0.0
0
LINE
8
CC
62
0
5
161
100
AcDbEntity
100
AcDbLine
10
149.46484
20
210.06337469999994
30
0.0
11
155.55859
21
207.24892469999986
31
0.0
0
LINE
8
CC
62
0
5
162
100
AcDbEntity
100
AcDbLine
10
155.55859
20
207.24892469999986
30
0.0
11
160.46094
21
203.55165469999986
31
0.0
0
LINE
8
CC
62
0
5
163
100
AcDbEntity
100
AcDbLine
10
160.46094
20
203.55165469999986
30
0.0
11
165.10352
21
198.39150469999993
31
0.0
0
LINE
8
CC
62
0
5
164
100
AcDbEntity
100
AcDbLine
10
165.10352
20
198.39150469999993
30
0.0
11
169.41992
21
191.8973646999999
31
0.0
0
LINE
8
CC
62
0
5
165
100
AcDbEntity
100
AcDbLine
10
169.41992
20
191.8973646999999
30
0.0
11
173.33984
21
184.2098646999999
31
0.0
0
LINE
8
CC
62
0
5
166
100
AcDbEntity
100
AcDbLine
10
173.33984
20
184.2098646999999
30
0.0
11
176.79688
21
175.46767469999986
31
0.0
0
LINE
8
CC
62
0
5
167
100
AcDbEntity
100
AcDbLine
10
176.79688
20
175.46767469999986
30
0.0
11
179.72656
21
165.81337469999994
31
0.0
0
LINE
8
CC
62
0
5
168
100
AcDbEntity
100
AcDbLine
10
179.72656
20
165.81337469999994
30
0.0
11
182.06445
21
155.38564469999994
31
0.0
0
LINE
8
CC
62
0
5
169
100
AcDbEntity
100
AcDbLine
10
182.06445
20
155.38564469999994
30
0.0
11
183.74805
21
144.31728469999985
31
0.0
0
LINE
8
CC
62
0
5
16a
100
AcDbEntity
100
AcDbLine
10
183.74805
20
144.31728469999985
30
0.0
11
184.53516
21
137.6219746999999
31
0.0
0
LINE
8
CC
62
0
5
16b
100
AcDbEntity
100
AcDbLine
10
184.53516
20
137.6219746999999
30
0.0
11
187.625
21
132.4774346999999
31
0.0
0
LINE
8
CC
62
0
5
16c
100
AcDbEntity
100
AcDbLine
10
187.625
20
132.4774346999999
30
0.0
11
196.40039
21
117.04579469999987
31
0.0
0
LINE
8
CC
62
0
5
16d
100
AcDbEntity
100
AcDbLine
10
196.40039
20
117.04579469999987
30
0.0
11
205.61133
21
99.4247046999999
31
0.0
0
LINE
8
CC
62
0
5
16e
100
AcDbEntity
100
AcDbLine
10
205.61133
20
99.4247046999999
30
0.0
11
214.40039
21
81.3153246999999
31
0.0
0
LINE
8
CC
62
0
5
16f
100
AcDbEntity
100
AcDbLine
10
214.40039
20
81.3153246999999
30
0.0
11
221.9082
21
64.4247046999999
31
0.0
0
LINE
8
CC
62
0
5
170
100
AcDbEntity
100
AcDbLine
10
221.9082
20
64.4247046999999
30
0.0
11
223.30664
21
60.504784699999846
31
0.0
0
LINE
8
CC
62
0
5
171
100
AcDbEntity
100
AcDbLine
10
223.30664
20
60.504784699999846
30
0.0
11
223.59961
21
57.13564469999994
31
0.0
0
LINE
8
CC
62
0
5
172
100
AcDbEntity
100
AcDbLine
10
223.59961
20
57.13564469999994
30
0.0
11
223.17188
21
52.43642469999986
31
0.0
0
LINE
8
CC
62
0
5
173
100
AcDbEntity
100
AcDbLine
10
223.17188
20
52.43642469999986
30
0.0
11
221.94141
21
48.022404699999925
31
0.0
0
LINE
8
CC
62
0
5
174
100
AcDbEntity
100
AcDbLine
10
221.94141
20
48.022404699999925
30
0.0
11
219.95508
21
44.01260469999988
31
0.0
0
LINE
8
CC
62
0
5
175
100
AcDbEntity
100
AcDbLine
10
219.95508
20
44.01260469999988
30
0.0
11
217.26758
21
40.53410469999994
31
0.0
0
LINE
8
CC
62
0
5
176
100
AcDbEntity
100
AcDbLine
10
217.26758
20
40.53410469999994
30
0.0
11
212.59766
21
36.809504699999934
31
0.0
0
LINE
8
CC
62
0
5
177
100
AcDbEntity
100
AcDbLine
10
212.59766
20
36.809504699999934
30
0.0
11
210.33008
21
35.61220469999989
31
0.0
0
LINE
8
CC
62
0
5
178
100
AcDbEntity
100
AcDbLine
10
210.33008
20
35.61220469999989
30
0.0
11
208.6875
21
35.18060469999989
31
0.0
0
LINE
8
CC
62
0
5
179
100
AcDbEntity
100
AcDbLine
10
208.6875
20
35.18060469999989
30
0.0
11
208.23242
21
35.24890469999991
31
0.0
0
LINE
8
CC
62
0
5
17a
100
AcDbEntity
100
AcDbLine
10
208.23242
20
35.24890469999991
30
0.0
11
207.85352
21
35.65910469999994
31
0.0
0
LINE
8
CC
62
0
5
17b
100
AcDbEntity
100
AcDbLine
10
207.85352
20
35.65910469999994
30
0.0
11
206.30469
21
39.99890469999991
31
0.0
0
LINE
8
CC
62
0
5
17c
100
AcDbEntity
100
AcDbLine
10
206.30469
20
39.99890469999991
30
0.0
11
205.24609
21
43.28600469999992
31
0.0
0
LINE
8
CC
62
0
5
17d
100
AcDbEntity
100
AcDbLine
10
205.24609
20
43.28600469999992
30
0.0
11
201.32617
21
45.28210469999988
31
0.0
0
LINE
8
CC
62
0
5
17e
100
AcDbEntity
100
AcDbLine
10
201.32617
20
45.28210469999988
30
0.0
11
201.09766
21
44.834904699999925
31
0.0
0
LINE
8
CC
62
0
5
17f
100
AcDbEntity
100
AcDbLine
10
201.09766
20
44.834904699999925
30
0.0
11
201.27734
21
45.30560469999989
31
0.0
0
LINE
8
CC
62
0
5
180
100
AcDbEntity
100
AcDbLine
10
201.27734
20
45.30560469999989
30
0.0
11
198.74023
21
46.26650469999993
31
0.0
0
LINE
8
CC
62
0
5
181
100
AcDbEntity
100
AcDbLine
10
198.74023
20
46.26650469999993
30
0.0
11
192.43945
21
48.6552046999999
31
0.0
0
LINE
8
CC
62
0
5
182
100
AcDbEntity
100
AcDbLine
10
192.43945
20
48.6552046999999
30
0.0
11
185.18164
21
50.4052046999999
31
0.0
0
LINE
8
CC
62
0
5
183
100
AcDbEntity
100
AcDbLine
10
185.18164
20
50.4052046999999
30
0.0
11
175.22852
21
50.893404699999905
31
0.0
0
LINE
8
CC
62
0
5
184
100
AcDbEntity
100
AcDbLine
10
175.22852
20
50.893404699999905
30
0.0
11
169.95898
21
50.625904699999865
31
0.0
0
LINE
8
CC
62
0
5
185
100
AcDbEntity
100
AcDbLine
10
169.95898
20
50.625904699999865
30
0.0
11
165.84961
21
50.00670469999989
31
0.0
0
LINE
8
CC
62
0
5
186
100
AcDbEntity
100
AcDbLine
10
165.84961
20
50.00670469999989
30
0.0
11
164.66016
21
47.3368046999999
31
0.0
0
LINE
8
CC
62
0
5
187
100
AcDbEntity
100
AcDbLine
10
164.66016
20
47.3368046999999
30
0.0
11
158.92969
21
39.40910469999994
31
0.0
0
LINE
8
CC
62
0
5
188
100
AcDbEntity
100
AcDbLine
10
158.92969
20
39.40910469999994
30
0.0
11
154.72461
21
32.67470469999989
31
0.0
0
LINE
8
CC
62
0
5
189
100
AcDbEntity
100
AcDbLine
10
154.72461
20
32.67470469999989
30
0.0
11
152.875
21
30.370004699999868
31
0.0
0
LINE
8
CC
62
0
5
18a
100
AcDbEntity
100
AcDbLine
10
152.875
20
30.370004699999868
30
0.0
11
149.3418
21
27.454004699999814
31
0.0
0
LINE
8
CC
62
0
5
18b
100
AcDbEntity
100
AcDbLine
10
149.3418
20
27.454004699999814
30
0.0
11
143.73438
21
23.549704699999893
31
0.0
0
LINE
8
CC
62
0
5
18c
100
AcDbEntity
100
AcDbLine
10
143.73438
20
23.549704699999893
30
0.0
11
142.15625
21
22.74500469999998
31
0.0
0
LINE
8
CC
62
0
5
18d
100
AcDbEntity
100
AcDbLine
10
142.15625
20
22.74500469999998
30
0.0
11
140.79688
21
21.791904699999805
31
0.0
0
LINE
8
CC
62
0
5
18e
100
AcDbEntity
100
AcDbLine
10
140.79688
20
21.791904699999805
30
0.0
11
115.53125
21
4.258704699999953
31
0.0
0
LINE
8
CC
62
0
5
18f
100
AcDbEntity
100
AcDbLine
10
115.53125
20
4.258704699999953
30
0.0
11
85.9375
21
22.957904699999972
31
0.0
0
LINE
8
CC
62
0
5
190
100
AcDbEntity
100
AcDbLine
10
85.9375
20
22.957904699999972
30
0.0
11
82.689453
21
25.600504699999874
31
0.0
0
LINE
8
CC
62
0
5
191
100
AcDbEntity
100
AcDbLine
10
82.689453
20
25.600504699999874
30
0.0
11
78.802734
21
29.791904699999918
31
0.0
0
LINE
8
CC
62
0
5
192
100
AcDbEntity
100
AcDbLine
10
78.802734
20
29.791904699999918
30
0.0
11
74.59375
21
36.06920469999989
31
0.0
0
LINE
8
CC
62
0
5
193
100
AcDbEntity
100
AcDbLine
10
74.59375
20
36.06920469999989
30
0.0
11
71.066406
21
42.61810469999989
31
0.0
0
LINE
8
CC
62
0
5
194
100
AcDbEntity
100
AcDbLine
10
71.066406
20
42.61810469999989
30
0.0
11
68.466797
21
47.875904699999865
31
0.0
0
LINE
8
CC
62
0
5
195
100
AcDbEntity
100
AcDbLine
10
68.466797
20
47.875904699999865
30
0.0
11
66.943359
21
50.40710469999988
31
0.0
0
LINE
8
CC
62
0
5
196
100
AcDbEntity
100
AcDbLine
10
66.943359
20
50.40710469999988
30
0.0
11
60.632812
21
51.72940469999992
31
0.0
0
LINE
8
CC
62
0
5
197
100
AcDbEntity
100
AcDbLine
10
60.632812
20
51.72940469999992
30
0.0
11
54.236328
21
52.17270469999994
31
0.0
0
LINE
8
CC
62
0
5
198
100
AcDbEntity
100
AcDbLine
10
54.236328
20
52.17270469999994
30
0.0
11
47.558594
21
51.709904699999925
31
0.0
0
LINE
8
CC
62
0
5
199
100
AcDbEntity
100
AcDbLine
10
47.558594
20
51.709904699999925
30
0.0
11
40.777344
21
50.36610469999994
31
0.0
0
LINE
8
CC
62
0
5
19a
100
AcDbEntity
100
AcDbLine
10
40.777344
20
50.36610469999994
30
0.0
11
34.103516
21
48.17860469999994
31
0.0
0
LINE
8
CC
62
0
5
19b
100
AcDbEntity
100
AcDbLine
10
34.103516
20
48.17860469999994
30
0.0
11
29.890625
21
47.04770469999994
31
0.0
0
LINE
8
CC
62
0
5
19c
100
AcDbEntity
100
AcDbLine
10
29.890625
20
47.04770469999994
30
0.0
11
26.814453
21
46.09070469999995
31
0.0
0
LINE
8
CC
62
0
5
19d
100
AcDbEntity
100
AcDbLine
10
26.814453
20
46.09070469999995
30
0.0
11
23.275391
21
36.934504699999934
31
0.0
0
LINE
8
CC
62
0
5
19e
100
AcDbEntity
100
AcDbLine
10
23.275391
20
36.934504699999934
30
0.0
11
22.308594
21
36.83290469999986
31
0.0
0
LINE
8
CC
62
0
5
19f
100
AcDbEntity
100
AcDbLine
10
22.308594
20
36.83290469999986
30
0.0
11
20.134766
21
37.750904699999865
31
0.0
0
LINE
8
CC
62
0
5
1a0
100
AcDbEntity
100
AcDbLine
10
20.134766
20
37.750904699999865
30
0.0
11
17.429688
21
39.54770469999994
31
0.0
0
LINE
8
CC
62
0
5
1a1
100
AcDbEntity
100
AcDbLine
10
17.429688
20
39.54770469999994
30
0.0
11
14.777344
21
41.91690469999992
31
0.0
0
LINE
8
CC
62
0
5
1a2
100
AcDbEntity
100
AcDbLine
10
14.777344
20
41.91690469999992
30
0.0
11
11.896484
21
45.56730469999991
31
0.0
0
LINE
8
CC
62
0
5
1a3
100
AcDbEntity
100
AcDbLine
10
11.896484
20
45.56730469999991
30
0.0
11
9.8398438
21
49.6493046999999
31
0.0
0
LINE
8
CC
62
0
5
1a4
100
AcDbEntity
100
AcDbLine
10
9.8398438
20
49.6493046999999
30
0.0
11
8.5976562
21
54.17665469999986
31
0.0
0
LINE
8
CC
62
0
5
1a5
100
AcDbEntity
100
AcDbLine
10
8.5976562
20
54.17665469999986
30
0.0
11
8.1738281
21
59.16689469999994
31
0.0
0
LINE
8
CC
62
0
5
1a6
100
AcDbEntity
100
AcDbLine
10
8.1738281
20
59.16689469999994
30
0.0
11
8.2539062
21
61.05361469999991
31
0.0
0
LINE
8
CC
62
0
5
1a7
100
AcDbEntity
100
AcDbLine
10
8.2539062
20
61.05361469999991
30
0.0
11
8.7226562
21
62.99501469999984
31
0.0
0
LINE
8
CC
62
0
5
1a8
100
AcDbEntity
100
AcDbLine
10
8.7226562
20
62.99501469999984
30
0.0
11
12.279297
21
71.26259469999991
31
0.0
0
LINE
8
CC
62
0
5
1a9
100
AcDbEntity
100
AcDbLine
10
12.279297
20
71.26259469999991
30
0.0
11
19.357422
21
86.0809546999999
31
0.0
0
LINE
8
CC
62
0
5
1aa
100
AcDbEntity
100
AcDbLine
10
19.357422
20
86.0809546999999
30
0.0
11
27.570312
21
102.05361469999991
31
0.0
0
LINE
8
CC
62
0
5
1ab
100
AcDbEntity
100
AcDbLine
10
27.570312
20
102.05361469999991
30
0.0
11
36.054688
21
117.55751469999984
31
0.0
0
LINE
8
CC
62
0
5
1ac
100
AcDbEntity
100
AcDbLine
10
36.054688
20
117.55751469999984
30
0.0
11
43.951172
21
130.97158469999988
31
0.0
0
LINE
8
CC
62
0
5
1ad
100
AcDbEntity
100
AcDbLine
10
43.951172
20
130.97158469999988
30
0.0
11
48.652344
21
138.5750946999999
31
0.0
0
LINE
8
CC
62
0
5
1ae
100
AcDbEntity
100
AcDbLine
10
48.652344
20
138.5750946999999
30
0.0
11
49.191406
21
143.03212469999994
31
0.0
0
LINE
8
CC
62
0
5
1af
100
AcDbEntity
100
AcDbLine
10
49.191406
20
143.03212469999994
30
0.0
11
51.587891
21
157.45400469999993
31
0.0
0
LINE
8
CC
62
0
5
1b0
100
AcDbEntity
100
AcDbLine
10
51.587891
20
157.45400469999993
30
0.0
11
55.119141
21
170.9969746999999
31
0.0
0
LINE
8
CC
62
0
5
1b1
100
AcDbEntity
100
AcDbLine
10
55.119141
20
170.9969746999999
30
0.0
11
59.621094
21
183.1532246999999
31
0.0
0
LINE
8
CC
62
0
5
1b2
100
AcDbEntity
100
AcDbLine
10
59.621094
20
183.1532246999999
30
0.0
11
64.933594
21
193.41103469999985
31
0.0
0
LINE
8
CC
62
0
5
1b3
100
AcDbEntity
100
AcDbLine
10
64.933594
20
193.41103469999985
30
0.0
11
69.869141
21
200.3153246999999
31
0.0
0
LINE
8
CC
62
0
5
1b4
100
AcDbEntity
100
AcDbLine
10
69.869141
20
200.3153246999999
30
0.0
11
75.144531
21
205.40712469999994
31
0.0
0
LINE
8
CC
62
0
5
1b5
100
AcDbEntity
100
AcDbLine
10
75.144531
20
205.40712469999994
30
0.0
11
81.21875
21
209.05165469999986
31
0.0
0
LINE
8
CC
62
0
5
1b6
100
AcDbEntity
100
AcDbLine
10
81.21875
20
209.05165469999986
30
0.0
11
88.546875
21
211.6024346999999
31
0.0
0
LINE
8
CC
62
0
5
1b7
100
AcDbEntity
100
AcDbLine
10
88.546875
20
211.6024346999999
30
0.0
11
108.93359
21
213.3622046999999
31
0.0
0
LINE
8
CC
62
0
5
1b8
100
AcDbEntity
100
AcDbLine
10
108.93359
20
213.3622046999999
30
0.0
11
111.40039
21
213.5125946999999
31
0.0
0
LINE
8
CC
62
0
5
1b9
100
AcDbEntity
100
AcDbLine
10
111.40039
20
213.5125946999999
30
0.0
11
111.40039
21
213.5125946999999
31
0.0
0
LINE
8
CC
62
0
5
1ba
100
AcDbEntity
100
AcDbLine
10
76.035156
20
118.6844746999999
30
0.0
11
74.576172
21
116.94228469999985
31
0.0
0
LINE
8
CC
62
0
5
1bb
100
AcDbEntity
100
AcDbLine
10
74.576172
20
116.94228469999985
30
0.0
11
74.953125
21
116.62587469999994
31
0.0
0
LINE
8
CC
62
0
5
1bc
100
AcDbEntity
100
AcDbLine
10
74.953125
20
116.62587469999994
30
0.0
11
74.541016
21
116.89540469999986
31
0.0
0
LINE
8
CC
62
0
5
1bd
100
AcDbEntity
100
AcDbLine
10
74.541016
20
116.89540469999986
30
0.0
11
73.517578
21
115.3309546999999
31
0.0
0
LINE
8
CC
62
0
5
1be
100
AcDbEntity
100
AcDbLine
10
73.517578
20
115.3309546999999
30
0.0
11
70.744141
21
110.96767469999986
31
0.0
0
LINE
8
CC
62
0
5
1bf
100
AcDbEntity
100
AcDbLine
10
70.744141
20
110.96767469999986
30
0.0
11
69.082031
21
106.69618469999989
31
0.0
0
LINE
8
CC
62
0
5
1c0
100
AcDbEntity
100
AcDbLine
10
69.082031
20
106.69618469999989
30
0.0
11
69.177734
21
104.88564469999994
31
0.0
0
LINE
8
CC
62
0
5
1c1
100
AcDbEntity
100
AcDbLine
10
69.177734
20
104.88564469999994
30
0.0
11
70.0
21
103.07314469999994
31
0.0
0
LINE
8
CC
62
0
5
1c2
100
AcDbEntity
100
AcDbLine
10
70.0
20
103.07314469999994
30
0.0
11
73.353516
21
99.73134469999991
31
0.0
0
LINE
8
CC
62
0
5
1c3
100
AcDbEntity
100
AcDbLine
10
73.353516
20
99.73134469999991
30
0.0
11
78.65625
21
96.79384469999991
31
0.0
0
LINE
8
CC
62
0
5
1c4
100
AcDbEntity
100
AcDbLine
10
78.65625
20
96.79384469999991
30
0.0
11
85.443359
21
94.56337469999994
31
0.0
0
LINE
8
CC
62
0
5
1c5
100
AcDbEntity
100
AcDbLine
10
85.443359
20
94.56337469999994
30
0.0
11
90.90625
21
93.57509469999991
31
0.0
0
LINE
8
CC
62
0
5
1c6
100
AcDbEntity
100
AcDbLine
10
90.90625
20
93.57509469999991
30
0.0
11
98.517578
21
93.34853469999985
31
0.0
0
LINE
8
CC
62
0
5
1c7
100
AcDbEntity
100
AcDbLine
10
98.517578
20
93.34853469999985
30
0.0
11
107.17188
21
93.31337469999994
31
0.0
0
LINE
8
CC
62
0
5
1c8
100
AcDbEntity
100
AcDbLine
10
107.17188
20
93.31337469999994
30
0.0
11
106.89062
21
98.23525469999993
31
0.0
0
LINE
8
CC
62
0
5
1c9
100
AcDbEntity
100
AcDbLine
10
106.89062
20
98.23525469999993
30
0.0
11
106.82031
21
100.03798469999992
31
0.0
0
LINE
8
CC
62
0
5
1ca
100
AcDbEntity
100
AcDbLine
10
106.82031
20
100.03798469999992
30
0.0
11
106.69336
21
101.82704469999987
31
0.0
0
LINE
8
CC
62
0
5
1cb
100
AcDbEntity
100
AcDbLine
10
106.69336
20
101.82704469999987
30
0.0
11
98.357422
21
107.66493469999989
31
0.0
0
LINE
8
CC
62
0
5
1cc
100
AcDbEntity
100
AcDbLine
10
98.357422
20
107.66493469999989
30
0.0
11
91.154297
21
112.4559546999999
31
0.0
0
LINE
8
CC
62
0
5
1cd
100
AcDbEntity
100
AcDbLine
10
91.154297
20
112.4559546999999
30
0.0
11
85.521484
21
115.69618469999989
31
0.0
0
LINE
8
CC
62
0
5
1ce
100
AcDbEntity
100
AcDbLine
10
85.521484
20
115.69618469999989
30
0.0
11
80.785156
21
117.66493469999989
31
0.0
0
LINE
8
CC
62
0
5
1cf
100
AcDbEntity
100
AcDbLine
10
80.785156
20
117.66493469999989
30
0.0
11
76.035156
21
118.6844746999999
31
0.0
0
LINE
8
CC
62
0
5
1d0
100
AcDbEntity
100
AcDbLine
10
76.035156
20
118.6844746999999
30
0.0
11
76.035156
21
118.6844746999999
31
0.0
0
LINE
8
CC
62
0
5
1d1
100
AcDbEntity
100
AcDbLine
10
156.66406
20
118.04189469999994
30
0.0
11
153.17578
21
117.35634469999991
31
0.0
0
LINE
8
CC
62
0
5
1d2
100
AcDbEntity
100
AcDbLine
10
153.17578
20
117.35634469999991
30
0.0
11
149.38281
21
116.07900469999993
31
0.0
0
LINE
8
CC
62
0
5
1d3
100
AcDbEntity
100
AcDbLine
10
149.38281
20
116.07900469999993
30
0.0
11
145.15234
21
114.06337469999994
31
0.0
0
LINE
8
CC
62
0
5
1d4
100
AcDbEntity
100
AcDbLine
10
145.15234
20
114.06337469999994
30
0.0
11
132.90039
21
106.5028246999999
31
0.0
0
LINE
8
CC
62
0
5
1d5
100
AcDbEntity
100
AcDbLine
10
132.90039
20
106.5028246999999
30
0.0
11
126.11914
21
102.11415469999986
31
0.0
0
LINE
8
CC
62
0
5
1d6
100
AcDbEntity
100
AcDbLine
10
126.11914
20
102.11415469999986
30
0.0
11
125.78906
21
100.39540469999986
31
0.0
0
LINE
8
CC
62
0
5
1d7
100
AcDbEntity
100
AcDbLine
10
125.78906
20
100.39540469999986
30
0.0
11
125.64844
21
97.04189469999994
31
0.0
0
LINE
8
CC
62
0
5
1d8
100
AcDbEntity
100
AcDbLine
10
125.64844
20
97.04189469999994
30
0.0
11
125.39844
21
93.31728469999985
31
0.0
0
LINE
8
CC
62
0
5
1d9
100
AcDbEntity
100
AcDbLine
10
125.39844
20
93.31728469999985
30
0.0
11
131.20312
21
92.75087469999994
31
0.0
0
LINE
8
CC
62
0
5
1da
100
AcDbEntity
100
AcDbLine
10
131.20312
20
92.75087469999994
30
0.0
11
139.75781
21
93.0497046999999
31
0.0
0
LINE
8
CC
62
0
5
1db
100
AcDbEntity
100
AcDbLine
10
139.75781
20
93.0497046999999
30
0.0
11
146.58203
21
94.08876469999984
31
0.0
0
LINE
8
CC
62
0
5
1dc
100
AcDbEntity
100
AcDbLine
10
146.58203
20
94.08876469999984
30
0.0
11
152.40039
21
95.70400469999993
31
0.0
0
LINE
8
CC
62
0
5
1dd
100
AcDbEntity
100
AcDbLine
10
152.40039
20
95.70400469999993
30
0.0
11
157.17578
21
97.8934546999999
31
0.0
0
LINE
8
CC
62
0
5
1de
100
AcDbEntity
100
AcDbLine
10
157.17578
20
97.8934546999999
30
0.0
11
160.86328
21
100.65126469999984
31
0.0
0
LINE
8
CC
62
0
5
1df
100
AcDbEntity
100
AcDbLine
10
160.86328
20
100.65126469999984
30
0.0
11
163.51562
21
104.13564469999994
31
0.0
0
LINE
8
CC
62
0
5
1e0
100
AcDbEntity
100
AcDbLine
10
163.51562
20
104.13564469999994
30
0.0
11
163.5625
21
105.99111469999991
31
0.0
0
LINE
8
CC
62
0
5
1e1
100
AcDbEntity
100
AcDbLine
10
163.5625
20
105.99111469999991
30
0.0
11
163.13867
21
107.78603469999985
31
0.0
0
LINE
8
CC
62
0
5
1e2
100
AcDbEntity
100
AcDbLine
10
163.13867
20
107.78603469999985
30
0.0
11
161.49219
21
111.13173469999992
31
0.0
0
LINE
8
CC
62
0
5
1e3
100
AcDbEntity
100
AcDbLine
10
161.49219
20
111.13173469999992
30
0.0
11
158.45898
21
115.74501469999984
31
0.0
0
LINE
8
CC
62
0
5
1e4
100
AcDbEntity
100
AcDbLine
10
158.45898
20
115.74501469999984
30
0.0
11
158.04102
21
114.96962469999994
31
0.0
0
LINE
8
CC
62
0
5
1e5
100
AcDbEntity
100
AcDbLine
10
158.04102
20
114.96962469999994
30
0.0
11
158.04102
21
115.46962469999994
31
0.0
0
LINE
8
CC
62
0
5
1e6
100
AcDbEntity
100
AcDbLine
10
158.04102
20
115.46962469999994
30
0.0
11
158.43555
21
115.7782246999999
31
0.0
0
LINE
8
CC
62
0
5
1e7
100
AcDbEntity
100
AcDbLine
10
158.43555
20
115.7782246999999
30
0.0
11
156.66406
21
118.04189469999994
31
0.0
0
LINE
8
CC
62
0
5
1e8
100
AcDbEntity
100
AcDbLine
10
156.66406
20
118.04189469999994
30
0.0
11
156.66406
21
118.04189469999994
31
0.0
0
LINE
8
CC
62
0
5
1e9
100
AcDbEntity
100
AcDbLine
10
76.416016
20
117.57900469999993
30
0.0
11
80.486328
21
116.7059546999999
31
0.0
0
LINE
8
CC
62
0
5
1ea
100
AcDbEntity
100
AcDbLine
10
80.486328
20
116.7059546999999
30
0.0
11
85.078125
21
114.79775469999993
31
0.0
0
LINE
8
CC
62
0
5
1eb
100
AcDbEntity
100
AcDbLine
10
85.078125
20
114.79775469999993
30
0.0
11
90.626953
21
111.60439469999994
31
0.0
0
LINE
8
CC
62
0
5
1ec
100
AcDbEntity
100
AcDbLine
10
90.626953
20
111.60439469999994
30
0.0
11
97.792969
21
106.83876469999984
31
0.0
0
LINE
8
CC
62
0
5
1ed
100
AcDbEntity
100
AcDbLine
10
97.792969
20
106.83876469999984
30
0.0
11
105.73047
21
101.28017469999986
31
0.0
0
LINE
8
CC
62
0
5
1ee
100
AcDbEntity
100
AcDbLine
10
105.73047
20
101.28017469999986
30
0.0
11
105.82227
21
99.98134469999991
31
0.0
0
LINE
8
CC
62
0
5
1ef
100
AcDbEntity
100
AcDbLine
10
105.82227
20
99.98134469999991
30
0.0
11
105.89258
21
98.18837469999994
31
0.0
0
LINE
8
CC
62
0
5
1f0
100
AcDbEntity
100
AcDbLine
10
105.89258
20
98.18837469999994
30
0.0
11
106.11328
21
94.31728469999985
31
0.0
0
LINE
8
CC
62
0
5
1f1
100
AcDbEntity
100
AcDbLine
10
106.11328
20
94.31728469999985
30
0.0
11
98.533203
21
94.34853469999985
31
0.0
0
LINE
8
CC
62
0
5
1f2
100
AcDbEntity
100
AcDbLine
10
98.533203
20
94.34853469999985
30
0.0
11
91.009766
21
94.57118469999989
31
0.0
0
LINE
8
CC
62
0
5
1f3
100
AcDbEntity
100
AcDbLine
10
91.009766
20
94.57118469999989
30
0.0
11
85.689453
21
95.53408469999988
31
0.0
0
LINE
8
CC
62
0
5
1f4
100
AcDbEntity
100
AcDbLine
10
85.689453
20
95.53408469999988
30
0.0
11
79.058594
21
97.7157246999999
31
0.0
0
LINE
8
CC
62
0
5
1f5
100
AcDbEntity
100
AcDbLine
10
79.058594
20
97.7157246999999
30
0.0
11
73.960938
21
100.53798469999992
31
0.0
0
LINE
8
CC
62
0
5
1f6
100
AcDbEntity
100
AcDbLine
10
73.960938
20
100.53798469999992
30
0.0
11
70.835938
21
103.6532246999999
31
0.0
0
LINE
8
CC
62
0
5
1f7
100
AcDbEntity
100
AcDbLine
10
70.835938
20
103.6532246999999
30
0.0
11
70.167969
21
105.1278246999999
31
0.0
0
LINE
8
CC
62
0
5
1f8
100
AcDbEntity
100
AcDbLine
10
70.167969
20
105.1278246999999
30
0.0
11
70.091797
21
106.53408469999988
31
0.0
0
LINE
8
CC
62
0
5
1f9
100
AcDbEntity
100
AcDbLine
10
70.091797
20
106.53408469999988
30
0.0
11
71.640625
21
110.51454469999987
31
0.0
0
LINE
8
CC
62
0
5
1fa
100
AcDbEntity
100
AcDbLine
10
71.640625
20
110.51454469999987
30
0.0
11
74.357422
21
114.78993469999989
31
0.0
0
LINE
8
CC
62
0
5
1fb
100
AcDbEntity
100
AcDbLine
10
74.357422
20
114.78993469999989
30
0.0
11
75.355469
21
116.31728469999985
31
0.0
0
LINE
8
CC
62
0
5
1fc
100
AcDbEntity
100
AcDbLine
10
75.355469
20
116.31728469999985
30
0.0
11
76.416016
21
117.57900469999993
31
0.0
0
LINE
8
CC
62
0
5
1fd
100
AcDbEntity
100
AcDbLine
10
76.416016
20
117.57900469999993
30
0.0
11
76.416016
21
117.57900469999993
31
0.0
0
LINE
8
CC
62
0
5
1fe
100
AcDbEntity
100
AcDbLine
10
156.25391
20
116.94228469999985
30
0.0
11
157.63867
21
115.17079469999987
31
0.0
0
LINE
8
CC
62
0
5
1ff
100
AcDbEntity
100
AcDbLine
10
157.63867
20
115.17079469999987
30
0.0
11
157.64648
21
115.16103469999985
31
0.0
0
LINE
8
CC
62
0
5
200
100
AcDbEntity
100
AcDbLine
10
157.64648
20
115.16103469999985
30
0.0
11
160.62305
21
110.63564469999994
31
0.0
0
LINE
8
CC
62
0
5
201
100
AcDbEntity
100
AcDbLine
10
160.62305
20
110.63564469999994
30
0.0
11
162.19141
21
107.44618469999989
31
0.0
0
LINE
8
CC
62
0
5
202
100
AcDbEntity
100
AcDbLine
10
162.19141
20
107.44618469999989
30
0.0
11
162.55859
21
105.88759469999991
31
0.0
0
LINE
8
CC
62
0
5
203
100
AcDbEntity
100
AcDbLine
10
162.55859
20
105.88759469999991
30
0.0
11
162.52344
21
104.48329469999987
31
0.0
0
LINE
8
CC
62
0
5
204
100
AcDbEntity
100
AcDbLine
10
162.52344
20
104.48329469999987
30
0.0
11
160.15234
21
101.36806469999988
31
0.0
0
LINE
8
CC
62
0
5
205
100
AcDbEntity
100
AcDbLine
10
160.15234
20
101.36806469999988
30
0.0
11
156.66211
21
98.75673469999992
31
0.0
0
LINE
8
CC
62
0
5
206
100
AcDbEntity
100
AcDbLine
10
156.66211
20
98.75673469999992
30
0.0
11
152.05469
21
96.64736469999991
31
0.0
0
LINE
8
CC
62
0
5
207
100
AcDbEntity
100
AcDbLine
10
152.05469
20
96.64736469999991
30
0.0
11
146.37109
21
95.06923469999992
31
0.0
0
LINE
8
CC
62
0
5
208
100
AcDbEntity
100
AcDbLine
10
146.37109
20
95.06923469999992
30
0.0
11
139.66406
21
94.04775469999993
31
0.0
0
LINE
8
CC
62
0
5
209
100
AcDbEntity
100
AcDbLine
10
139.66406
20
94.04775469999993
30
0.0
11
131.23438
21
93.7528246999999
31
0.0
0
LINE
8
CC
62
0
5
20a
100
AcDbEntity
100
AcDbLine
10
131.23438
20
93.7528246999999
30
0.0
11
126.46094
21
94.21767469999986
31
0.0
0
LINE
8
CC
62
0
5
20b
100
AcDbEntity
100
AcDbLine
10
126.46094
20
94.21767469999986
30
0.0
11
126.64648
21
96.9872046999999
31
0.0
0
LINE
8
CC
62
0
5
20c
100
AcDbEntity
100
AcDbLine
10
126.64648
20
96.9872046999999
30
0.0
11
126.78516
21
100.28017469999986
31
0.0
0
LINE
8
CC
62
0
5
20d
100
AcDbEntity
100
AcDbLine
10
126.78516
20
100.28017469999986
30
0.0
11
127.02148
21
101.50673469999992
31
0.0
0
LINE
8
CC
62
0
5
20e
100
AcDbEntity
100
AcDbLine
10
127.02148
20
101.50673469999992
30
0.0
11
133.43555
21
105.65712469999994
31
0.0
0
LINE
8
CC
62
0
5
20f
100
AcDbEntity
100
AcDbLine
10
133.43555
20
105.65712469999994
30
0.0
11
145.63281
21
113.1844746999999
31
0.0
0
LINE
8
CC
62
0
5
210
100
AcDbEntity
100
AcDbLine
10
145.63281
20
113.1844746999999
30
0.0
11
149.75781
21
115.14931469999988
31
0.0
0
LINE
8
CC
62
0
5
211
100
AcDbEntity
100
AcDbLine
10
149.75781
20
115.14931469999988
30
0.0
11
153.43164
21
116.38759469999991
31
0.0
0
LINE
8
CC
62
0
5
212
100
AcDbEntity
100
AcDbLine
10
153.43164
20
116.38759469999991
30
0.0
11
156.25391
21
116.94228469999985
31
0.0
0
LINE
8
CC
62
0
5
213
100
AcDbEntity
100
AcDbLine
10
156.25391
20
116.94228469999985
30
0.0
11
156.25391
21
116.94228469999985
31
0.0
0
LINE
8
Supports copy
62
1
5
214
100
AcDbEntity
100
AcDbLine
10
146.36975
20
41.2263046999999
30
0.0
11
145.67399
21
45.49910469999986
31
0.0
0
LINE
8
Supports copy
62
1
5
215
100
AcDbEntity
100
AcDbLine
10
145.67399
20
45.49910469999986
30
0.0
11
144.03812
21
51.48160469999982
31
0.0
0
LINE
8
Supports copy
62
1
5
216
100
AcDbEntity
100
AcDbLine
10
144.03812
20
51.48160469999982
30
0.0
11
141.41162
21
57.37232469999981
31
0.0
0
LINE
8
Supports copy
62
1
5
217
100
AcDbEntity
100
AcDbLine
10
141.41162
20
57.37232469999981
30
0.0
11
138.07654
21
62.64322469999979
31
0.0
0
LINE
8
Supports copy
62
1
5
218
100
AcDbEntity
100
AcDbLine
10
138.07654
20
62.64322469999979
30
0.0
11
134.31489
21
66.7662846999998
31
0.0
0
LINE
8
Supports copy
62
1
5
219
100
AcDbEntity
100
AcDbLine
10
134.31489
20
66.7662846999998
30
0.0
11
128.22919
21
70.63918469999976
31
0.0
0
LINE
8
Supports copy
62
1
5
21a
100
AcDbEntity
100
AcDbLine
10
128.22919
20
70.63918469999976
30
0.0
11
125.81594999999999
21
71.91072469999972
31
0.0
0
LINE
8
Supports copy
62
1
5
21b
100
AcDbEntity
100
AcDbLine
10
125.81594999999999
20
71.91072469999972
30
0.0
11
124.89802999999999
21
72.98008469999968
31
0.0
0
LINE
8
Supports copy
62
1
5
21c
100
AcDbEntity
100
AcDbLine
10
124.89802999999999
20
72.98008469999968
30
0.0
11
125.41581
21
74.18636469999967
31
0.0
0
LINE
8
Supports copy
62
1
5
21d
100
AcDbEntity
100
AcDbLine
10
125.41581
20
74.18636469999967
30
0.0
11
127.30964999999999
21
75.86869469999965
31
0.0
0
LINE
8
Supports copy
62
1
5
21e
100
AcDbEntity
100
AcDbLine
10
127.30964999999999
20
75.86869469999965
30
0.0
11
131.72844999999998
21
78.29033469999968
31
0.0
0
LINE
8
Supports copy
62
1
5
21f
100
AcDbEntity
100
AcDbLine
10
131.72844999999998
20
78.29033469999968
30
0.0
11
137.40061999999998
21
79.65982469999972
31
0.0
0
LINE
8
Supports copy
62
1
5
220
100
AcDbEntity
100
AcDbLine
10
137.40061999999998
20
79.65982469999972
30
0.0
11
144.04437
21
79.93944469999974
31
0.0
0
LINE
8
Supports copy
62
1
5
221
100
AcDbEntity
100
AcDbLine
10
144.04437
20
79.93944469999974
30
0.0
11
151.37790999999999
21
79.09145469999976
31
0.0
0
LINE
8
Supports copy
62
1
5
222
100
AcDbEntity
100
AcDbLine
10
151.37790999999999
20
79.09145469999976
30
0.0
11
156.72114
21
78.08798469999977
31
0.0
0
LINE
8
Supports copy
62
1
5
223
100
AcDbEntity
100
AcDbLine
10
156.72114
20
78.08798469999977
30
0.0
11
158.53033
21
79.36374469999976
31
0.0
0
LINE
8
Supports copy
62
1
5
224
100
AcDbEntity
100
AcDbLine
10
158.53033
20
79.36374469999976
30
0.0
11
162.49295999999998
21
82.08239469999978
31
0.0
0
LINE
8
Supports copy
62
1
5
225
100
AcDbEntity
100
AcDbLine
10
162.49295999999998
20
82.08239469999978
30
0.0
11
163.79698
21
82.61828469999978
31
0.0
0
LINE
8
Supports copy
62
1
5
226
100
AcDbEntity
100
AcDbLine
10
163.79698
20
82.61828469999978
30
0.0
11
164.40668
21
81.70765469999981
31
0.0
0
LINE
8
Supports copy
62
1
5
227
100
AcDbEntity
100
AcDbLine
10
164.40668
20
81.70765469999981
30
0.0
11
163.48057
21
80.01549469999986
31
0.0
0
LINE
8
Supports copy
62
1
5
228
100
AcDbEntity
100
AcDbLine
10
163.48057
20
80.01549469999986
30
0.0
11
161.35541
21
77.51556469999991
31
0.0
0
LINE
8
Supports copy
62
1
5
229
100
AcDbEntity
100
AcDbLine
10
161.35541
20
77.51556469999991
30
0.0
11
159.01098000000002
21
75.25204469999994
31
0.0
0
LINE
8
Supports copy
62
1
5
22a
100
AcDbEntity
100
AcDbLine
10
159.01098000000002
20
75.25204469999994
30
0.0
11
157.42707000000001
21
74.2691347
31
0.0
0
LINE
8
Supports copy
62
1
5
22b
100
AcDbEntity
100
AcDbLine
10
157.42707000000001
20
74.2691347
30
0.0
11
153.76728000000003
21
75.11514469999997
31
0.0
0
LINE
8
Supports copy
62
1
5
22c
100
AcDbEntity
100
AcDbLine
10
153.76728000000003
20
75.11514469999997
30
0.0
11
148.23249000000004
21
76.32858469999996
31
0.0
0
LINE
8
Supports copy
62
1
5
22d
100
AcDbEntity
100
AcDbLine
10
148.23249000000004
20
76.32858469999996
30
0.0
11
142.58011000000005
21
76.71810469999991
31
0.0
0
LINE
8
Supports copy
62
1
5
22e
100
AcDbEntity
100
AcDbLine
10
142.58011000000005
20
76.71810469999991
30
0.0
11
137.28487000000004
21
76.2855646999999
31
0.0
0
LINE
8
Supports copy
62
1
5
22f
100
AcDbEntity
100
AcDbLine
10
137.28487000000004
20
76.2855646999999
30
0.0
11
132.82149000000004
21
75.03284469999994
31
0.0
0
LINE
8
Supports copy
62
1
5
230
100
AcDbEntity
100
AcDbLine
10
132.82149000000004
20
75.03284469999994
30
0.0
11
130.46668000000005
21
74.0264246999999
31
0.0
0
LINE
8
Supports copy
62
1
5
231
100
AcDbEntity
100
AcDbLine
10
130.46668000000005
20
74.0264246999999
30
0.0
11
133.11407000000005
21
72.31229469999994
31
0.0
0
LINE
8
Supports copy
62
1
5
232
100
AcDbEntity
100
AcDbLine
10
133.11407000000005
20
72.31229469999994
30
0.0
11
138.09411000000006
21
68.43485469999996
31
0.0
0
LINE
8
Supports copy
62
1
5
233
100
AcDbEntity
100
AcDbLine
10
138.09411000000006
20
68.43485469999996
30
0.0
11
142.26544000000007
21
63.85715469999991
31
0.0
0
LINE
8
Supports copy
62
1
5
234
100
AcDbEntity
100
AcDbLine
10
142.26544000000007
20
63.85715469999991
30
0.0
11
145.44173000000006
21
58.822954699999855
31
0.0
0
LINE
8
Supports copy
62
1
5
235
100
AcDbEntity
100
AcDbLine
10
145.44173000000006
20
58.822954699999855
30
0.0
11
147.43663000000006
21
53.576024699999834
31
0.0
0
LINE
8
Supports copy
62
1
5
236
100
AcDbEntity
100
AcDbLine
10
147.43663000000006
20
53.576024699999834
30
0.0
11
148.43360000000007
21
47.44390469999985
31
0.0
0
LINE
8
Supports copy
62
1
5
237
100
AcDbEntity
100
AcDbLine
10
148.43360000000007
20
47.44390469999985
30
0.0
11
148.43960000000007
21
42.44050469999979
31
0.0
0
LINE
8
Supports copy
62
1
5
238
100
AcDbEntity
100
AcDbLine
10
148.43960000000007
20
42.44050469999979
30
0.0
11
148.00572000000008
21
41.19660469999974
31
0.0
0
LINE
8
Supports copy
62
1
5
239
100
AcDbEntity
100
AcDbLine
10
148.00572000000008
20
41.19660469999974
30
0.0
11
147.2511000000001
21
40.84420469999975
31
0.0
0
LINE
8
Supports copy
62
1
5
23a
100
AcDbEntity
100
AcDbLine
10
147.2511000000001
20
40.84420469999975
30
0.0
11
146.3696800000001
21
41.22630469999979
31
0.0
0
LINE
8
Supports copy
62
1
5
23b
100
AcDbEntity
100
AcDbLine
10
146.3696800000001
20
41.22630469999979
30
0.0
11
146.3696800000001
21
41.22630469999979
31
0.0
0
LINE
8
Supports copy
62
1
5
23c
100
AcDbEntity
100
AcDbLine
10
134.4045800000001
20
32.52340469999979
30
0.0
11
134.3573800000001
21
37.81930469999975
31
0.0
0
LINE
8
Supports copy
62
1
5
23d
100
AcDbEntity
100
AcDbLine
10
134.3573800000001
20
37.81930469999975
30
0.0
11
133.56250000000009
21
41.80450469999971
31
0.0
0
LINE
8
Supports copy
62
1
5
23e
100
AcDbEntity
100
AcDbLine
10
133.56250000000009
20
41.80450469999971
30
0.0
11
131.9154100000001
21
44.55140469999969
31
0.0
0
LINE
8
Supports copy
62
1
5
23f
100
AcDbEntity
100
AcDbLine
10
131.9154100000001
20
44.55140469999969
30
0.0
11
130.1391200000001
21
47.402104699999654
31
0.0
0
LINE
8
Supports copy
62
1
5
240
100
AcDbEntity
100
AcDbLine
10
130.1391200000001
20
47.402104699999654
30
0.0
11
129.6912600000001
21
47.9318046999997
31
0.0
0
LINE
8
Supports copy
62
1
5
241
100
AcDbEntity
100
AcDbLine
10
129.6912600000001
20
47.9318046999997
30
0.0
11
129.4486800000001
21
47.831704699999705
31
0.0
0
LINE
8
Supports copy
62
1
5
242
100
AcDbEntity
100
AcDbLine
10
129.4486800000001
20
47.831704699999705
30
0.0
11
129.2075300000001
21
40.644204699999705
31
0.0
0
LINE
8
Supports copy
62
1
5
243
100
AcDbEntity
100
AcDbLine
10
129.2075300000001
20
40.644204699999705
30
0.0
11
128.7255300000001
21
33.09000469999967
31
0.0
0
LINE
8
Supports copy
62
1
5
244
100
AcDbEntity
100
AcDbLine
10
128.7255300000001
20
33.09000469999967
30
0.0
11
129.3627600000001
21
32.19480469999962
31
0.0
0
LINE
8
Supports copy
62
1
5
245
100
AcDbEntity
100
AcDbLine
10
129.3627600000001
20
32.19480469999962
30
0.0
11
131.3241800000001
21
32.11580469999967
31
0.0
0
LINE
8
Supports copy
62
1
5
246
100
AcDbEntity
100
AcDbLine
10
131.3241800000001
20
32.11580469999967
30
0.0
11
133.1654800000001
21
32.173804699999664
31
0.0
0
LINE
8
Supports copy
62
1
5
247
100
AcDbEntity
100
AcDbLine
10
133.1654800000001
20
32.173804699999664
30
0.0
11
134.4046000000001
21
32.52390469999966
31
0.0
0
LINE
8
Supports copy
62
1
5
248
100
AcDbEntity
100
AcDbLine
10
134.4046000000001
20
32.52390469999966
30
0.0
11
134.4045800000001
21
32.52390469999966
31
0.0
0
LINE
8
Supports copy
62
1
5
249
100
AcDbEntity
100
AcDbLine
10
125.9029700000001
20
32.64760469999965
30
0.0
11
126.02074000000009
21
42.78440469999964
31
0.0
0
LINE
8
Supports copy
62
1
5
24a
100
AcDbEntity
100
AcDbLine
10
126.02074000000009
20
42.78440469999964
30
0.0
11
125.85834000000008
21
52.377154699999664
31
0.0
0
LINE
8
Supports copy
62
1
5
24b
100
AcDbEntity
100
AcDbLine
10
125.85834000000008
20
52.377154699999664
30
0.0
11
124.24229000000008
21
54.07478469999967
31
0.0
0
LINE
8
Supports copy
62
1
5
24c
100
AcDbEntity
100
AcDbLine
10
124.24229000000008
20
54.07478469999967
30
0.0
11
122.55776000000009
21
55.607214699999645
31
0.0
0
LINE
8
Supports copy
62
1
5
24d
100
AcDbEntity
100
AcDbLine
10
122.55776000000009
20
55.607214699999645
30
0.0
11
122.03236000000008
21
55.65621469999962
31
0.0
0
LINE
8
Supports copy
62
1
5
24e
100
AcDbEntity
100
AcDbLine
10
122.03236000000008
20
55.65621469999962
30
0.0
11
121.67504000000008
21
55.08882469999958
31
0.0
0
LINE
8
Supports copy
62
1
5
24f
100
AcDbEntity
100
AcDbLine
10
121.67504000000008
20
55.08882469999958
30
0.0
11
121.33525000000009
21
51.69010469999955
31
0.0
0
LINE
8
Supports copy
62
1
5
250
100
AcDbEntity
100
AcDbLine
10
121.33525000000009
20
51.69010469999955
30
0.0
11
121.27955000000009
21
44.5816046999995
31
0.0
0
LINE
8
Supports copy
62
1
5
251
100
AcDbEntity
100
AcDbLine
10
121.27955000000009
20
44.5816046999995
30
0.0
11
121.60653000000009
21
32.73850469999945
31
0.0
0
LINE
8
Supports copy
62
1
5
252
100
AcDbEntity
100
AcDbLine
10
121.60653000000009
20
32.73850469999945
30
0.0
11
122.3947400000001
21
32.277604699999415
31
0.0
0
LINE
8
Supports copy
62
1
5
253
100
AcDbEntity
100
AcDbLine
10
122.3947400000001
20
32.277604699999415
30
0.0
11
123.7580900000001
21
32.100604699999394
31
0.0
0
LINE
8
Supports copy
62
1
5
254
100
AcDbEntity
100
AcDbLine
10
123.7580900000001
20
32.100604699999394
30
0.0
11
125.11978000000009
21
32.21990469999935
31
0.0
0
LINE
8
Supports copy
62
1
5
255
100
AcDbEntity
100
AcDbLine
10
125.11978000000009
20
32.21990469999935
30
0.0
11
125.90300000000009
21
32.64750469999933
31
0.0
0
LINE
8
Supports copy
62
1
5
256
100
AcDbEntity
100
AcDbLine
10
125.90300000000009
20
32.64750469999933
30
0.0
11
125.90300000000009
21
32.647604699999306
31
0.0
0
LINE
8
Supports copy
62
1
5
257
100
AcDbEntity
100
AcDbLine
10
84.27278200000009
20
41.712904699999285
30
0.0
11
84.9685420000001
21
45.985804699999335
31
0.0
0
LINE
8
Supports copy
62
1
5
258
100
AcDbEntity
100
AcDbLine
10
84.9685420000001
20
45.985804699999335
30
0.0
11
86.6044130000001
21
51.96820469999932
31
0.0
0
LINE
8
Supports copy
62
1
5
259
100
AcDbEntity
100
AcDbLine
10
86.6044130000001
20
51.96820469999932
30
0.0
11
89.23090700000009
21
57.85894469999937
31
0.0
0
LINE
8
Supports copy
62
1
5
25a
100
AcDbEntity
100
AcDbLine
10
89.23090700000009
20
57.85894469999937
30
0.0
11
92.56599300000009
21
63.12983469999938
31
0.0
0
LINE
8
Supports copy
62
1
5
25b
100
AcDbEntity
100
AcDbLine
10
92.56599300000009
20
63.12983469999938
30
0.0
11
96.3276420000001
21
67.25289469999939
31
0.0
0
LINE
8
Supports copy
62
1
5
25c
100
AcDbEntity
100
AcDbLine
10
96.3276420000001
20
67.25289469999939
30
0.0
11
102.41334000000009
21
71.12579469999935
31
0.0
0
LINE
8
Supports copy
62
1
5
25d
100
AcDbEntity
100
AcDbLine
10
102.41334000000009
20
71.12579469999935
30
0.0
11
104.82658000000009
21
72.3973346999993
31
0.0
0
LINE
8
Supports copy
62
1
5
25e
100
AcDbEntity
100
AcDbLine
10
104.82658000000009
20
72.3973346999993
30
0.0
11
105.74450000000009
21
73.46669469999927
31
0.0
0
LINE
8
Supports copy
62
1
5
25f
100
AcDbEntity
100
AcDbLine
10
105.74450000000009
20
73.46669469999927
30
0.0
11
105.22672000000009
21
74.67297469999926
31
0.0
0
LINE
8
Supports copy
62
1
5
260
100
AcDbEntity
100
AcDbLine
10
105.22672000000009
20
74.67297469999926
30
0.0
11
103.33288000000009
21
76.35530469999924
31
0.0
0
LINE
8
Supports copy
62
1
5
261
100
AcDbEntity
100
AcDbLine
10
103.33288000000009
20
76.35530469999924
30
0.0
11
98.91408500000009
21
78.77694469999926
31
0.0
0
LINE
8
Supports copy
62
1
5
262
100
AcDbEntity
100
AcDbLine
10
98.91408500000009
20
78.77694469999926
30
0.0
11
93.24191200000008
21
80.1464346999993
31
0.0
0
LINE
8
Supports copy
62
1
5
263
100
AcDbEntity
100
AcDbLine
10
93.24191200000008
20
80.1464346999993
30
0.0
11
86.59815800000008
21
80.42605469999933
31
0.0
0
LINE
8
Supports copy
62
1
5
264
100
AcDbEntity
100
AcDbLine
10
86.59815800000008
20
80.42605469999933
30
0.0
11
79.26462200000009
21
79.57806469999935
31
0.0
0
LINE
8
Supports copy
62
1
5
265
100
AcDbEntity
100
AcDbLine
10
79.26462200000009
20
79.57806469999935
30
0.0
11
73.92139200000008
21
78.57459469999935
31
0.0
0
LINE
8
Supports copy
62
1
5
266
100
AcDbEntity
100
AcDbLine
10
73.92139200000008
20
78.57459469999935
30
0.0
11
72.11220200000008
21
79.85035469999934
31
0.0
0
LINE
8
Supports copy
62
1
5
267
100
AcDbEntity
100
AcDbLine
10
72.11220200000008
20
79.85035469999934
30
0.0
11
68.14956900000008
21
82.56900469999937
31
0.0
0
LINE
8
Supports copy
62
1
5
268
100
AcDbEntity
100
AcDbLine
10
68.14956900000008
20
82.56900469999937
30
0.0
11
66.84555200000008
21
83.10489469999936
31
0.0
0
LINE
8
Supports copy
62
1
5
269
100
AcDbEntity
100
AcDbLine
10
66.84555200000008
20
83.10489469999936
30
0.0
11
66.23585200000008
21
82.1942646999994
31
0.0
0
LINE
8
Supports copy
62
1
5
26a
100
AcDbEntity
100
AcDbLine
10
66.23585200000008
20
82.1942646999994
30
0.0
11
67.16196600000008
21
80.50211469999942
31
0.0
0
LINE
8
Supports copy
62
1
5
26b
100
AcDbEntity
100
AcDbLine
10
67.16196600000008
20
80.50211469999942
30
0.0
11
69.28712500000007
21
78.00217469999939
31
0.0
0
LINE
8
Supports copy
62
1
5
26c
100
AcDbEntity
100
AcDbLine
10
69.28712500000007
20
78.00217469999939
30
0.0
11
71.63154900000008
21
75.73865469999942
31
0.0
0
LINE
8
Supports copy
62
1
5
26d
100
AcDbEntity
100
AcDbLine
10
71.63154900000008
20
75.73865469999942
30
0.0
11
73.21546200000007
21
74.75574469999947
31
0.0
0
LINE
8
Supports copy
62
1
5
26e
100
AcDbEntity
100
AcDbLine
10
73.21546200000007
20
74.75574469999947
30
0.0
11
76.87525200000007
21
75.60175469999945
31
0.0
0
LINE
8
Supports copy
62
1
5
26f
100
AcDbEntity
100
AcDbLine
10
76.87525200000007
20
75.60175469999945
30
0.0
11
82.41004200000008
21
76.81519469999944
31
0.0
0
LINE
8
Supports copy
62
1
5
270
100
AcDbEntity
100
AcDbLine
10
82.41004200000008
20
76.81519469999944
30
0.0
11
88.06242100000007
21
77.20470469999941
31
0.0
0
LINE
8
Supports copy
62
1
5
271
100
AcDbEntity
100
AcDbLine
10
88.06242100000007
20
77.20470469999941
30
0.0
11
93.35766200000008
21
76.77217469999937
31
0.0
0
LINE
8
Supports copy
62
1
5
272
100
AcDbEntity
100
AcDbLine
10
93.35766200000008
20
76.77217469999937
30
0.0
11
97.82104200000008
21
75.51945469999941
31
0.0
0
LINE
8
Supports copy
62
1
5
273
100
AcDbEntity
100
AcDbLine
10
97.82104200000008
20
75.51945469999941
30
0.0
11
100.17585000000008
21
74.51303469999937
31
0.0
0
LINE
8
Supports copy
62
1
5
274
100
AcDbEntity
100
AcDbLine
10
100.17585000000008
20
74.51303469999937
30
0.0
11
97.52846200000008
21
72.79890469999941
31
0.0
0
LINE
8
Supports copy
62
1
5
275
100
AcDbEntity
100
AcDbLine
10
97.52846200000008
20
72.79890469999941
30
0.0
11
92.54842400000007
21
68.92146469999943
31
0.0
0
LINE
8
Supports copy
62
1
5
276
100
AcDbEntity
100
AcDbLine
10
92.54842400000007
20
68.92146469999943
30
0.0
11
88.37709100000006
21
64.34376469999938
31
0.0
0
LINE
8
Supports copy
62
1
5
277
100
AcDbEntity
100
AcDbLine
10
88.37709100000006
20
64.34376469999938
30
0.0
11
85.20080300000006
21
59.309574699999416
31
0.0
0
LINE
8
Supports copy
62
1
5
278
100
AcDbEntity
100
AcDbLine
10
85.20080300000006
20
59.309574699999416
30
0.0
11
83.20590200000007
21
54.062644699999396
31
0.0
0
LINE
8
Supports copy
62
1
5
279
100
AcDbEntity
100
AcDbLine
10
83.20590200000007
20
54.062644699999396
30
0.0
11
82.20893200000006
21
47.93050469999935
31
0.0
0
LINE
8
Supports copy
62
1
5
27a
100
AcDbEntity
100
AcDbLine
10
82.20893200000006
20
47.93050469999935
30
0.0
11
82.20283200000006
21
42.92710469999929
31
0.0
0
LINE
8
Supports copy
62
1
5
27b
100
AcDbEntity
100
AcDbLine
10
82.20283200000006
20
42.92710469999929
30
0.0
11
82.63671000000005
21
41.68320469999924
31
0.0
0
LINE
8
Supports copy
62
1
5
27c
100
AcDbEntity
100
AcDbLine
10
82.63671000000005
20
41.68320469999924
30
0.0
11
83.39133200000005
21
41.33080469999925
31
0.0
0
LINE
8
Supports copy
62
1
5
27d
100
AcDbEntity
100
AcDbLine
10
83.39133200000005
20
41.33080469999925
30
0.0
11
84.27275200000005
21
41.712904699999285
31
0.0
0
LINE
8
Supports copy
62
1
5
27e
100
AcDbEntity
100
AcDbLine
10
84.27275200000005
20
41.712904699999285
30
0.0
11
84.27275200000005
21
41.712904699999285
31
0.0
0
LINE
8
Supports copy
62
1
5
27f
100
AcDbEntity
100
AcDbLine
10
105.70856000000006
20
32.8872046999993
30
0.0
11
105.59080000000006
21
42.93620469999928
31
0.0
0
LINE
8
Supports copy
62
1
5
280
100
AcDbEntity
100
AcDbLine
10
105.59080000000006
20
42.93620469999928
30
0.0
11
105.75319000000006
21
52.44580469999926
31
0.0
0
LINE
8
Supports copy
62
1
5
281
100
AcDbEntity
100
AcDbLine
10
105.75319000000006
20
52.44580469999926
30
0.0
11
107.36924000000006
21
54.128724699999225
31
0.0
0
LINE
8
Supports copy
62
1
5
282
100
AcDbEntity
100
AcDbLine
10
107.36924000000006
20
54.128724699999225
30
0.0
11
109.05377000000006
21
55.64787469999919
31
0.0
0
LINE
8
Supports copy
62
1
5
283
100
AcDbEntity
100
AcDbLine
10
109.05377000000006
20
55.64787469999919
30
0.0
11
109.57918000000005
21
55.69647469999916
31
0.0
0
LINE
8
Supports copy
62
1
5
284
100
AcDbEntity
100
AcDbLine
10
109.57918000000005
20
55.69647469999916
30
0.0
11
109.93649000000005
21
55.13399469999911
31
0.0
0
LINE
8
Supports copy
62
1
5
285
100
AcDbEntity
100
AcDbLine
10
109.93649000000005
20
55.13399469999911
30
0.0
11
110.27628000000004
21
51.76470469999913
31
0.0
0
LINE
8
Supports copy
62
1
5
286
100
AcDbEntity
100
AcDbLine
10
110.27628000000004
20
51.76470469999913
30
0.0
11
110.33198000000004
21
44.71780469999908
31
0.0
0
LINE
8
Supports copy
62
1
5
287
100
AcDbEntity
100
AcDbLine
10
110.33198000000004
20
44.71780469999908
30
0.0
11
110.00500000000004
21
32.97730469999908
31
0.0
0
LINE
8
Supports copy
62
1
5
288
100
AcDbEntity
100
AcDbLine
10
110.00500000000004
20
32.97730469999908
30
0.0
11
109.21679000000003
21
32.52040469999906
31
0.0
0
LINE
8
Supports copy
62
1
5
289
100
AcDbEntity
100
AcDbLine
10
109.21679000000003
20
32.52040469999906
30
0.0
11
107.85344000000003
21
32.345004699999095
31
0.0
0
LINE
8
Supports copy
62
1
5
28a
100
AcDbEntity
100
AcDbLine
10
107.85344000000003
20
32.345004699999095
30
0.0
11
106.49175000000004
21
32.46330469999907
31
0.0
0
LINE
8
Supports copy
62
1
5
28b
100
AcDbEntity
100
AcDbLine
10
106.49175000000004
20
32.46330469999907
30
0.0
11
105.70853000000004
21
32.88730469999905
31
0.0
0
LINE
8
Supports copy
62
1
5
28c
100
AcDbEntity
100
AcDbLine
10
105.70853000000004
20
32.88730469999905
30
0.0
11
105.70853000000004
21
32.887204699999074
31
0.0
0
LINE
8
Supports copy
62
1
5
28d
100
AcDbEntity
100
AcDbLine
10
113.28993000000004
20
32.58530469999903
30
0.0
11
113.18224000000004
21
47.22940469999901
31
0.0
0
LINE
8
Supports copy
62
1
5
28e
100
AcDbEntity
100
AcDbLine
10
113.18224000000004
20
47.22940469999901
30
0.0
11
113.30145000000003
21
61.296904699999004
31
0.0
0
LINE
8
Supports copy
62
1
5
28f
100
AcDbEntity
100
AcDbLine
10
113.30145000000003
20
61.296904699999004
30
0.0
11
118.54178000000003
21
61.23030469999901
31
0.0
0
LINE
8
Supports copy
62
1
5
290
100
AcDbEntity
100
AcDbLine
10
118.54178000000003
20
61.23030469999901
30
0.0
11
118.48708000000003
21
46.12620469999899
31
0.0
0
LINE
8
Supports copy
62
1
5
291
100
AcDbEntity
100
AcDbLine
10
118.48708000000003
20
46.12620469999899
30
0.0
11
118.26162000000004
21
32.27480469999898
31
0.0
0
LINE
8
Supports copy
62
1
5
292
100
AcDbEntity
100
AcDbLine
10
118.26162000000004
20
32.27480469999898
30
0.0
11
115.88923000000004
21
32.14170469999897
31
0.0
0
LINE
8
Supports copy
62
1
5
293
100
AcDbEntity
100
AcDbLine
10
115.88923000000004
20
32.14170469999897
30
0.0
11
114.03205000000004
21
32.178704699999
31
0.0
0
LINE
8
Supports copy
62
1
5
294
100
AcDbEntity
100
AcDbLine
10
114.03205000000004
20
32.178704699999
30
0.0
11
113.28994000000004
21
32.58480469999904
31
0.0
0
LINE
8
Supports copy
62
1
5
295
100
AcDbEntity
100
AcDbLine
10
113.28994000000004
20
32.58480469999904
30
0.0
11
113.28993000000004
21
32.584904699999015
31
0.0
0
LINE
8
Supports copy
62
1
5
296
100
AcDbEntity
100
AcDbLine
10
97.14491200000003
20
32.24370469999906
30
0.0
11
97.46142200000003
21
37.222804699999074
31
0.0
0
LINE
8
Supports copy
62
1
5
297
100
AcDbEntity
100
AcDbLine
10
97.46142200000003
20
37.222804699999074
30
0.0
11
97.68434400000002
21
40.86590469999908
31
0.0
0
LINE
8
Supports copy
62
1
5
298
100
AcDbEntity
100
AcDbLine
10
97.68434400000002
20
40.86590469999908
30
0.0
11
98.83896200000002
21
43.32920469999908
31
0.0
0
LINE
8
Supports copy
62
1
5
299
100
AcDbEntity
100
AcDbLine
10
98.83896200000002
20
43.32920469999908
30
0.0
11
100.54896000000002
21
46.41370469999913
31
0.0
0
LINE
8
Supports copy
62
1
5
29a
100
AcDbEntity
100
AcDbLine
10
100.54896000000002
20
46.41370469999913
30
0.0
11
101.46901000000003
21
47.15740469999912
31
0.0
0
LINE
8
Supports copy
62
1
5
29b
100
AcDbEntity
100
AcDbLine
10
101.46901000000003
20
47.15740469999912
30
0.0
11
101.96796000000002
21
45.24960469999917
31
0.0
0
LINE
8
Supports copy
62
1
5
29c
100
AcDbEntity
100
AcDbLine
10
101.96796000000002
20
45.24960469999917
30
0.0
11
102.41468000000002
21
40.37970469999914
31
0.0
0
LINE
8
Supports copy
62
1
5
29d
100
AcDbEntity
100
AcDbLine
10
102.41468000000002
20
40.37970469999914
30
0.0
11
102.79220000000002
21
35.94590469999912
31
0.0
0
LINE
8
Supports copy
62
1
5
29e
100
AcDbEntity
100
AcDbLine
10
102.79220000000002
20
35.94590469999912
30
0.0
11
102.73240000000003
21
33.44360469999913
31
0.0
0
LINE
8
Supports copy
62
1
5
29f
100
AcDbEntity
100
AcDbLine
10
102.73240000000003
20
33.44360469999913
30
0.0
11
101.85392000000003
21
32.36260469999911
31
0.0
0
LINE
8
Supports copy
62
1
5
2a0
100
AcDbEntity
100
AcDbLine
10
101.85392000000003
20
32.36260469999911
30
0.0
11
99.77529200000004
21
32.1928046999991
31
0.0
0
LINE
8
Supports copy
62
1
5
2a1
100
AcDbEntity
100
AcDbLine
10
99.77529200000004
20
32.1928046999991
30
0.0
11
97.14487200000003
21
32.243804699999146
31
0.0
0
LINE
8
Supports copy
62
1
5
2a2
100
AcDbEntity
100
AcDbLine
10
97.14487200000003
20
32.243804699999146
30
0.0
11
97.14487200000003
21
32.24370469999917
31
0.0
0
LINE
8
Supports copy
62
1
5
2a3
100
AcDbEntity
100
AcDbLine
10
95.50543200000004
20
26.141404699999157
30
0.0
11
87.95832200000004
21
26.316004699999212
31
0.0
0
LINE
8
Supports copy
62
1
5
2a4
100
AcDbEntity
100
AcDbLine
10
87.95832200000004
20
26.316004699999212
30
0.0
11
87.68454200000004
21
27.822104699999272
31
0.0
0
LINE
8
Supports copy
62
1
5
2a5
100
AcDbEntity
100
AcDbLine
10
87.68454200000004
20
27.822104699999272
30
0.0
11
87.70534200000003
21
29.98610469999926
31
0.0
0
LINE
8
Supports copy
62
1
5
2a6
100
AcDbEntity
100
AcDbLine
10
87.70534200000003
20
29.98610469999926
30
0.0
11
90.68287300000003
21
30.523704699999257
31
0.0
0
LINE
8
Supports copy
62
1
5
2a7
100
AcDbEntity
100
AcDbLine
10
90.68287300000003
20
30.523704699999257
30
0.0
11
99.20574500000004
21
30.709804699999268
31
0.0
0
LINE
8
Supports copy
62
1
5
2a8
100
AcDbEntity
100
AcDbLine
10
99.20574500000004
20
30.709804699999268
30
0.0
11
128.00522000000004
21
30.23210469999924
31
0.0
0
LINE
8
Supports copy
62
1
5
2a9
100
AcDbEntity
100
AcDbLine
10
128.00522000000004
20
30.23210469999924
30
0.0
11
142.14105000000004
21
30.024704699999234
31
0.0
0
LINE
8
Supports copy
62
1
5
2aa
100
AcDbEntity
100
AcDbLine
10
142.14105000000004
20
30.024704699999234
30
0.0
11
142.33956000000003
21
26.35090469999932
31
0.0
0
LINE
8
Supports copy
62
1
5
2ab
100
AcDbEntity
100
AcDbLine
10
142.33956000000003
20
26.35090469999932
30
0.0
11
138.16714000000005
21
25.957604699999365
31
0.0
0
LINE
8
Supports copy
62
1
5
2ac
100
AcDbEntity
100
AcDbLine
10
138.16714000000005
20
25.957604699999365
30
0.0
11
127.74788000000005
21
25.78610469999944
31
0.0
0
LINE
8
Supports copy
62
1
5
2ad
100
AcDbEntity
100
AcDbLine
10
127.74788000000005
20
25.78610469999944
30
0.0
11
95.50548200000006
21
26.141404699999384
31
0.0
0
LINE
8
Supports copy
62
1
5
2ae
100
AcDbEntity
100
AcDbLine
10
95.50548200000006
20
26.141404699999384
30
0.0
11
95.50543200000006
21
26.141404699999384
31
0.0
0
LINE
8
Supports copy
62
1
5
2af
100
AcDbEntity
100
AcDbLine
10
105.48878000000005
20
13.43820469999946
30
0.0
11
101.31897000000005
21
16.175004699999363
31
0.0
0
LINE
8
Supports copy
62
1
5
2b0
100
AcDbEntity
100
AcDbLine
10
101.31897000000005
20
16.175004699999363
30
0.0
11
96.91830100000006
21
18.647104699999318
31
0.0
0
LINE
8
Supports copy
62
1
5
2b1
100
AcDbEntity
100
AcDbLine
10
96.91830100000006
20
18.647104699999318
30
0.0
11
92.60884000000006
21
21.059804699999404
31
0.0
0
LINE
8
Supports copy
62
1
5
2b2
100
AcDbEntity
100
AcDbLine
10
92.60884000000006
20
21.059804699999404
30
0.0
11
88.71265200000006
21
23.618204699999296
31
0.0
0
LINE
8
Supports copy
62
1
5
2b3
100
AcDbEntity
100
AcDbLine
10
88.71265200000006
20
23.618204699999296
30
0.0
11
95.44742300000006
21
23.498404699999355
31
0.0
0
LINE
8
Supports copy
62
1
5
2b4
100
AcDbEntity
100
AcDbLine
10
95.44742300000006
20
23.498404699999355
30
0.0
11
115.59496000000006
21
23.56340469999941
31
0.0
0
LINE
8
Supports copy
62
1
5
2b5
100
AcDbEntity
100
AcDbLine
10
115.59496000000006
20
23.56340469999941
30
0.0
11
136.80220000000006
21
23.56320469999946
31
0.0
0
LINE
8
Supports copy
62
1
5
2b6
100
AcDbEntity
100
AcDbLine
10
136.80220000000006
20
23.56320469999946
30
0.0
11
140.21620000000004
21
23.53220469999951
31
0.0
0
LINE
8
Supports copy
62
1
5
2b7
100
AcDbEntity
100
AcDbLine
10
140.21620000000004
20
23.53220469999951
30
0.0
11
140.70132000000004
21
23.389004699999532
31
0.0
0
LINE
8
Supports copy
62
1
5
2b8
100
AcDbEntity
100
AcDbLine
10
140.70132000000004
20
23.389004699999532
30
0.0
11
128.38856000000004
21
15.611804699999539
31
0.0
0
LINE
8
Supports copy
62
1
5
2b9
100
AcDbEntity
100
AcDbLine
10
128.38856000000004
20
15.611804699999539
30
0.0
11
120.08053000000004
21
10.171104699999432
31
0.0
0
LINE
8
Supports copy
62
1
5
2ba
100
AcDbEntity
100
AcDbLine
10
120.08053000000004
20
10.171104699999432
30
0.0
11
116.28255000000004
21
7.348604699999441
31
0.0
0
LINE
8
Supports copy
62
1
5
2bb
100
AcDbEntity
100
AcDbLine
10
116.28255000000004
20
7.348604699999441
30
0.0
11
105.48878000000005
21
13.438704699999334
31
0.0
0
LINE
8
Supports copy
62
1
5
2bc
100
AcDbEntity
100
AcDbLine
10
105.48878000000005
20
13.438704699999334
30
0.0
11
105.48878000000005
21
13.438204699999233
31
0.0
0
LINE
8
Supports copy
62
1
5
2bd
100
AcDbEntity
100
AcDbLine
10
43.56458200000005
20
111.27425469999923
30
0.0
11
53.12965500000005
21
121.22215469999924
31
0.0
0
LINE
8
Supports copy
62
1
5
2be
100
AcDbEntity
100
AcDbLine
10
53.12965500000005
20
121.22215469999924
30
0.0
11
61.54556200000005
21
128.73481469999922
31
0.0
0
LINE
8
Supports copy
62
1
5
2bf
100
AcDbEntity
100
AcDbLine
10
61.54556200000005
20
128.73481469999922
30
0.0
11
68.08395200000004
21
132.6281046999992
31
0.0
0
LINE
8
Supports copy
62
1
5
2c0
100
AcDbEntity
100
AcDbLine
10
68.08395200000004
20
132.6281046999992
30
0.0
11
71.54729300000004
21
133.96378469999922
31
0.0
0
LINE
8
Supports copy
62
1
5
2c1
100
AcDbEntity
100
AcDbLine
10
71.54729300000004
20
133.96378469999922
30
0.0
11
75.29873200000004
21
134.39653469999928
31
0.0
0
LINE
8
Supports copy
62
1
5
2c2
100
AcDbEntity
100
AcDbLine
10
75.29873200000004
20
134.39653469999928
30
0.0
11
78.91540300000004
21
134.35353469999927
31
0.0
0
LINE
8
Supports copy
62
1
5
2c3
100
AcDbEntity
100
AcDbLine
10
78.91540300000004
20
134.35353469999927
30
0.0
11
82.06258200000003
21
133.83126469999922
31
0.0
0
LINE
8
Supports copy
62
1
5
2c4
100
AcDbEntity
100
AcDbLine
10
82.06258200000003
20
133.83126469999922
30
0.0
11
90.36157000000003
21
130.56707469999924
31
0.0
0
LINE
8
Supports copy
62
1
5
2c5
100
AcDbEntity
100
AcDbLine
10
90.36157000000003
20
130.56707469999924
30
0.0
11
99.84389200000003
21
125.33210469999926
31
0.0
0
LINE
8
Supports copy
62
1
5
2c6
100
AcDbEntity
100
AcDbLine
10
99.84389200000003
20
125.33210469999926
30
0.0
11
105.36770000000003
21
122.17247469999927
31
0.0
0
LINE
8
Supports copy
62
1
5
2c7
100
AcDbEntity
100
AcDbLine
10
105.36770000000003
20
122.17247469999927
30
0.0
11
105.96151000000003
21
123.01692469999932
31
0.0
0
LINE
8
Supports copy
62
1
5
2c8
100
AcDbEntity
100
AcDbLine
10
105.96151000000003
20
123.01692469999932
30
0.0
11
104.29551000000004
21
124.72712469999931
31
0.0
0
LINE
8
Supports copy
62
1
5
2c9
100
AcDbEntity
100
AcDbLine
10
104.29551000000004
20
124.72712469999931
30
0.0
11
100.19742000000004
21
127.60970469999927
31
0.0
0
LINE
8
Supports copy
62
1
5
2ca
100
AcDbEntity
100
AcDbLine
10
100.19742000000004
20
127.60970469999927
30
0.0
11
90.10439200000003
21
133.36759469999924
31
0.0
0
LINE
8
Supports copy
62
1
5
2cb
100
AcDbEntity
100
AcDbLine
10
90.10439200000003
20
133.36759469999924
30
0.0
11
84.49622100000003
21
135.61547469999925
31
0.0
0
LINE
8
Supports copy
62
1
5
2cc
100
AcDbEntity
100
AcDbLine
10
84.49622100000003
20
135.61547469999925
30
0.0
11
79.56372100000003
21
136.8228046999992
31
0.0
0
LINE
8
Supports copy
62
1
5
2cd
100
AcDbEntity
100
AcDbLine
10
79.56372100000003
20
136.8228046999992
30
0.0
11
75.04318600000003
21
137.02902469999924
31
0.0
0
LINE
8
Supports copy
62
1
5
2ce
100
AcDbEntity
100
AcDbLine
10
75.04318600000003
20
137.02902469999924
30
0.0
11
70.67091200000003
21
136.27356469999927
31
0.0
0
LINE
8
Supports copy
62
1
5
2cf
100
AcDbEntity
100
AcDbLine
10
70.67091200000003
20
136.27356469999927
30
0.0
11
64.58125700000004
21
133.69949469999926
31
0.0
0
LINE
8
Supports copy
62
1
5
2d0
100
AcDbEntity
100
AcDbLine
10
64.58125700000004
20
133.69949469999926
30
0.0
11
58.04709300000004
21
129.34844469999928
31
0.0
0
LINE
8
Supports copy
62
1
5
2d1
100
AcDbEntity
100
AcDbLine
10
58.04709300000004
20
129.34844469999928
30
0.0
11
51.36636600000004
21
123.45147469999927
31
0.0
0
LINE
8
Supports copy
62
1
5
2d2
100
AcDbEntity
100
AcDbLine
10
51.36636600000004
20
123.45147469999927
30
0.0
11
44.83702200000004
21
116.23963469999921
31
0.0
0
LINE
8
Supports copy
62
1
5
2d3
100
AcDbEntity
100
AcDbLine
10
44.83702200000004
20
116.23963469999921
30
0.0
11
40.21786600000004
21
110.32930469999917
31
0.0
0
LINE
8
Supports copy
62
1
5
2d4
100
AcDbEntity
100
AcDbLine
10
40.21786600000004
20
110.32930469999917
30
0.0
11
38.782152000000046
21
107.77139469999918
31
0.0
0
LINE
8
Supports copy
62
1
5
2d5
100
AcDbEntity
100
AcDbLine
10
38.782152000000046
20
107.77139469999918
30
0.0
11
39.05849600000005
21
107.21804469999915
31
0.0
0
LINE
8
Supports copy
62
1
5
2d6
100
AcDbEntity
100
AcDbLine
10
39.05849600000005
20
107.21804469999915
30
0.0
11
39.93282900000005
21
107.6065346999992
31
0.0
0
LINE
8
Supports copy
62
1
5
2d7
100
AcDbEntity
100
AcDbLine
10
39.93282900000005
20
107.6065346999992
30
0.0
11
43.564582000000044
21
111.27429469999925
31
0.0
0
LINE
8
Supports copy
62
1
5
2d8
100
AcDbEntity
100
AcDbLine
10
43.564582000000044
20
111.27429469999925
30
0.0
11
43.564582000000044
21
111.27429469999925
31
0.0
0
LINE
8
Supports copy
62
1
5
2d9
100
AcDbEntity
100
AcDbLine
10
192.65646000000004
20
106.5086946999993
30
0.0
11
191.44807000000003
21
108.8093046999993
31
0.0
0
LINE
8
Supports copy
62
1
5
2da
100
AcDbEntity
100
AcDbLine
10
191.44807000000003
20
108.8093046999993
30
0.0
11
188.28978000000004
21
112.8902646999993
31
0.0
0
LINE
8
Supports copy
62
1
5
2db
100
AcDbEntity
100
AcDbLine
10
188.28978000000004
20
112.8902646999993
30
0.0
11
178.92487000000003
21
123.02396469999928
31
0.0
0
LINE
8
Supports copy
62
1
5
2dc
100
AcDbEntity
100
AcDbLine
10
178.92487000000003
20
123.02396469999928
30
0.0
11
173.49819000000002
21
127.96971469999926
31
0.0
0
LINE
8
Supports copy
62
1
5
2dd
100
AcDbEntity
100
AcDbLine
10
173.49819000000002
20
127.96971469999926
30
0.0
11
168.61247000000003
21
131.6137446999993
31
0.0
0
LINE
8
Supports copy
62
1
5
2de
100
AcDbEntity
100
AcDbLine
10
168.61247000000003
20
131.6137446999993
30
0.0
11
163.97376000000003
21
134.14668469999935
31
0.0
0
LINE
8
Supports copy
62
1
5
2df
100
AcDbEntity
100
AcDbLine
10
163.97376000000003
20
134.14668469999935
30
0.0
11
159.28813000000002
21
135.75917469999933
31
0.0
0
LINE
8
Supports copy
62
1
5
2e0
100
AcDbEntity
100
AcDbLine
10
159.28813000000002
20
135.75917469999933
30
0.0
11
155.37018000000003
21
136.2739546999993
31
0.0
0
LINE
8
Supports copy
62
1
5
2e1
100
AcDbEntity
100
AcDbLine
10
155.37018000000003
20
136.2739546999993
30
0.0
11
151.06960000000004
21
135.87825469999927
31
0.0
0
LINE
8
Supports copy
62
1
5
2e2
100
AcDbEntity
100
AcDbLine
10
151.06960000000004
20
135.87825469999927
30
0.0
11
146.19995000000003
21
134.53675469999928
31
0.0
0
LINE
8
Supports copy
62
1
5
2e3
100
AcDbEntity
100
AcDbLine
10
146.19995000000003
20
134.53675469999928
30
0.0
11
140.57481000000004
21
132.21414469999922
31
0.0
0
LINE
8
Supports copy
62
1
5
2e4
100
AcDbEntity
100
AcDbLine
10
140.57481000000004
20
132.21414469999922
30
0.0
11
131.16657000000004
21
126.84723469999926
31
0.0
0
LINE
8
Supports copy
62
1
5
2e5
100
AcDbEntity
100
AcDbLine
10
131.16657000000004
20
126.84723469999926
30
0.0
11
127.13345000000004
21
124.1113146999993
31
0.0
0
LINE
8
Supports copy
62
1
5
2e6
100
AcDbEntity
100
AcDbLine
10
127.13345000000004
20
124.1113146999993
30
0.0
11
125.46888000000004
21
122.56730469999934
31
0.0
0
LINE
8
Supports copy
62
1
5
2e7
100
AcDbEntity
100
AcDbLine
10
125.46888000000004
20
122.56730469999934
30
0.0
11
125.69595000000004
21
121.86578469999938
31
0.0
0
LINE
8
Supports copy
62
1
5
2e8
100
AcDbEntity
100
AcDbLine
10
125.69595000000004
20
121.86578469999938
30
0.0
11
126.47849000000004
21
121.8344846999994
31
0.0
0
LINE
8
Supports copy
62
1
5
2e9
100
AcDbEntity
100
AcDbLine
10
126.47849000000004
20
121.8344846999994
30
0.0
11
130.31776000000005
21
123.95671469999934
31
0.0
0
LINE
8
Supports copy
62
1
5
2ea
100
AcDbEntity
100
AcDbLine
10
130.31776000000005
20
123.95671469999934
30
0.0
11
139.71057000000005
21
129.19233469999938
31
0.0
0
LINE
8
Supports copy
62
1
5
2eb
100
AcDbEntity
100
AcDbLine
10
139.71057000000005
20
129.19233469999938
30
0.0
11
146.85707000000005
21
132.20872469999938
31
0.0
0
LINE
8
Supports copy
62
1
5
2ec
100
AcDbEntity
100
AcDbLine
10
146.85707000000005
20
132.20872469999938
30
0.0
11
152.98107000000005
21
133.64584469999943
31
0.0
0
LINE
8
Supports copy
62
1
5
2ed
100
AcDbEntity
100
AcDbLine
10
152.98107000000005
20
133.64584469999943
30
0.0
11
158.38810000000004
21
133.53893469999946
31
0.0
0
LINE
8
Supports copy
62
1
5
2ee
100
AcDbEntity
100
AcDbLine
10
158.38810000000004
20
133.53893469999946
30
0.0
11
163.38366000000005
21
131.9232446999995
31
0.0
0
LINE
8
Supports copy
62
1
5
2ef
100
AcDbEntity
100
AcDbLine
10
163.38366000000005
20
131.9232446999995
30
0.0
11
169.89757000000006
21
128.00410469999952
31
0.0
0
LINE
8
Supports copy
62
1
5
2f0
100
AcDbEntity
100
AcDbLine
10
169.89757000000006
20
128.00410469999952
30
0.0
11
178.10072000000005
21
120.65506469999957
31
0.0
0
LINE
8
Supports copy
62
1
5
2f1
100
AcDbEntity
100
AcDbLine
10
178.10072000000005
20
120.65506469999957
30
0.0
11
186.66796000000005
21
111.4114446999996
31
0.0
0
LINE
8
Supports copy
62
1
5
2f2
100
AcDbEntity
100
AcDbLine
10
186.66796000000005
20
111.4114446999996
30
0.0
11
190.91053000000005
21
106.44846469999959
31
0.0
0
LINE
8
Supports copy
62
1
5
2f3
100
AcDbEntity
100
AcDbLine
10
190.91053000000005
20
106.44846469999959
30
0.0
11
192.09636000000006
21
105.85758469999962
31
0.0
0
LINE
8
Supports copy
62
1
5
2f4
100
AcDbEntity
100
AcDbLine
10
192.09636000000006
20
105.85758469999962
30
0.0
11
192.65646000000007
21
106.5086646999996
31
0.0
0
LINE
8
Supports copy
62
1
5
2f5
100
AcDbEntity
100
AcDbLine
10
192.65646000000007
20
106.5086646999996
30
0.0
11
192.65646000000007
21
106.50870469999961
31
0.0
0
LINE
8
Supports copy
62
1
5
2f6
100
AcDbEntity
100
AcDbLine
10
108.89674000000007
20
213.86064469999963
30
0.0
11
109.18719000000007
21
209.90309469999966
31
0.0
0
LINE
8
Supports copy
62
1
5
2f7
100
AcDbEntity
100
AcDbLine
10
109.18719000000007
20
209.90309469999966
30
0.0
11
108.92639000000007
21
194.29276469999968
31
0.0
0
LINE
8
Supports copy
62
1
5
2f8
100
AcDbEntity
100
AcDbLine
10
108.92639000000007
20
194.29276469999968
30
0.0
11
109.15974000000007
21
162.18209469999965
31
0.0
0
LINE
8
Supports copy
62
1
5
2f9
100
AcDbEntity
100
AcDbLine
10
109.15974000000007
20
162.18209469999965
30
0.0
11
109.47595000000007
21
142.75433469999962
31
0.0
0
LINE
8
Supports copy
62
1
5
2fa
100
AcDbEntity
100
AcDbLine
10
109.47595000000007
20
142.75433469999962
30
0.0
11
110.00368000000007
21
133.07866469999965
31
0.0
0
LINE
8
Supports copy
62
1
5
2fb
100
AcDbEntity
100
AcDbLine
10
110.00368000000007
20
133.07866469999965
30
0.0
11
110.20807000000008
21
133.1264646999997
31
0.0
0
LINE
8
Supports copy
62
1
5
2fc
100
AcDbEntity
100
AcDbLine
10
110.20807000000008
20
133.1264646999997
30
0.0
11
110.41319000000007
21
134.30017469999973
31
0.0
0
LINE
8
Supports copy
62
1
5
2fd
100
AcDbEntity
100
AcDbLine
10
110.41319000000007
20
134.30017469999973
30
0.0
11
110.81508000000007
21
139.4909246999997
31
0.0
0
LINE
8
Supports copy
62
1
5
2fe
100
AcDbEntity
100
AcDbLine
10
110.81508000000007
20
139.4909246999997
30
0.0
11
111.51139000000006
21
157.50440469999967
31
0.0
0
LINE
8
Supports copy
62
1
5
2ff
100
AcDbEntity
100
AcDbLine
10
111.51139000000006
20
157.50440469999967
30
0.0
11
111.88224000000007
21
194.12900469999965
31
0.0
0
LINE
8
Supports copy
62
1
5
300
100
AcDbEntity
100
AcDbLine
10
111.88224000000007
20
194.12900469999965
30
0.0
11
111.43991000000007
21
214.03935469999965
31
0.0
0
LINE
8
Supports copy
62
1
5
301
100
AcDbEntity
100
AcDbLine
10
111.43991000000007
20
214.03935469999965
30
0.0
11
108.89674000000007
21
213.8606646999997
31
0.0
0
LINE
8
Supports copy
62
1
5
302
100
AcDbEntity
100
AcDbLine
10
122.98788000000006
20
213.91756469999973
30
0.0
11
122.55509000000006
21
196.71127469999976
31
0.0
0
LINE
8
Supports copy
62
1
5
303
100
AcDbEntity
100
AcDbLine
10
122.55509000000006
20
196.71127469999976
30
0.0
11
123.40481000000007
21
160.18268469999975
31
0.0
0
LINE
8
Supports copy
62
1
5
304
100
AcDbEntity
100
AcDbLine
10
123.40481000000007
20
160.18268469999975
30
0.0
11
124.14545000000007
21
132.48029469999972
31
0.0
0
LINE
8
Supports copy
62
1
5
305
100
AcDbEntity
100
AcDbLine
10
124.14545000000007
20
132.48029469999972
30
0.0
11
124.88995000000007
21
141.09295469999972
31
0.0
0
LINE
8
Supports copy
62
1
5
306
100
AcDbEntity
100
AcDbLine
10
124.88995000000007
20
141.09295469999972
30
0.0
11
125.42623000000007
21
160.69008469999972
31
0.0
0
LINE
8
Supports copy
62
1
5
307
100
AcDbEntity
100
AcDbLine
10
125.42623000000007
20
160.69008469999972
30
0.0
11
125.89582000000007
21
196.24951469999974
31
0.0
0
LINE
8
Supports copy
62
1
5
308
100
AcDbEntity
100
AcDbLine
10
125.89582000000007
20
196.24951469999974
30
0.0
11
126.11316000000006
21
213.75765469999976
31
0.0
0
LINE
8
Supports copy
62
1
5
309
100
AcDbEntity
100
AcDbLine
10
126.11316000000006
20
213.75765469999976
30
0.0
11
122.98788000000006
21
213.91756469999973
31
0.0
0
LINE
8
Supports copy
62
1
5
30a
100
AcDbEntity
100
AcDbLine
10
204.79822000000007
20
43.456504699999755
30
0.0
11
193.55199000000007
21
76.36042469999973
31
0.0
0
LINE
8
Supports copy
62
1
5
30b
100
AcDbEntity
100
AcDbLine
10
193.55199000000007
20
76.36042469999973
30
0.0
11
188.63563000000008
21
89.1222346999997
31
0.0
0
LINE
8
Supports copy
62
1
5
30c
100
AcDbEntity
100
AcDbLine
10
188.63563000000008
20
89.1222346999997
30
0.0
11
185.08485000000007
21
96.89350469999965
31
0.0
0
LINE
8
Supports copy
62
1
5
30d
100
AcDbEntity
100
AcDbLine
10
185.08485000000007
20
96.89350469999965
30
0.0
11
180.48515000000006
21
104.50716469999963
31
0.0
0
LINE
8
Supports copy
62
1
5
30e
100
AcDbEntity
100
AcDbLine
10
180.48515000000006
20
104.50716469999963
30
0.0
11
176.09337000000005
21
110.46321469999964
31
0.0
0
LINE
8
Supports copy
62
1
5
30f
100
AcDbEntity
100
AcDbLine
10
176.09337000000005
20
110.46321469999964
30
0.0
11
171.64393000000004
21
114.67876469999965
31
0.0
0
LINE
8
Supports copy
62
1
5
310
100
AcDbEntity
100
AcDbLine
10
171.64393000000004
20
114.67876469999965
30
0.0
11
169.31460000000004
21
116.10797469999966
31
0.0
0
LINE
8
Supports copy
62
1
5
311
100
AcDbEntity
100
AcDbLine
10
169.31460000000004
20
116.10797469999966
30
0.0
11
166.87128000000004
21
117.07097469999962
31
0.0
0
LINE
8
Supports copy
62
1
5
312
100
AcDbEntity
100
AcDbLine
10
166.87128000000004
20
117.07097469999962
30
0.0
11
162.12587000000005
21
117.74702469999966
31
0.0
0
LINE
8
Supports copy
62
1
5
313
100
AcDbEntity
100
AcDbLine
10
162.12587000000005
20
117.74702469999966
30
0.0
11
156.65109000000004
21
117.51247469999964
31
0.0
0
LINE
8
Supports copy
62
1
5
314
100
AcDbEntity
100
AcDbLine
10
156.65109000000004
20
117.51247469999964
30
0.0
11
158.13018000000005
21
115.40346469999963
31
0.0
0
LINE
8
Supports copy
62
1
5
315
100
AcDbEntity
100
AcDbLine
10
158.13018000000005
20
115.40346469999963
30
0.0
11
158.86405000000005
21
115.65037469999959
31
0.0
0
LINE
8
Supports copy
62
1
5
316
100
AcDbEntity
100
AcDbLine
10
158.86405000000005
20
115.65037469999959
30
0.0
11
161.11125000000004
21
116.09518469999955
31
0.0
0
LINE
8
Supports copy
62
1
5
317
100
AcDbEntity
100
AcDbLine
10
161.11125000000004
20
116.09518469999955
30
0.0
11
164.00724000000005
21
115.81381469999951
31
0.0
0
LINE
8
Supports copy
62
1
5
318
100
AcDbEntity
100
AcDbLine
10
164.00724000000005
20
115.81381469999951
30
0.0
11
167.17110000000005
21
114.87766469999951
31
0.0
0
LINE
8
Supports copy
62
1
5
319
100
AcDbEntity
100
AcDbLine
10
167.17110000000005
20
114.87766469999951
30
0.0
11
170.22189000000006
21
113.35811469999953
31
0.0
0
LINE
8
Supports copy
62
1
5
31a
100
AcDbEntity
100
AcDbLine
10
170.22189000000006
20
113.35811469999953
30
0.0
11
173.48144000000005
21
110.27751469999953
31
0.0
0
LINE
8
Supports copy
62
1
5
31b
100
AcDbEntity
100
AcDbLine
10
173.48144000000005
20
110.27751469999953
30
0.0
11
176.67427000000004
21
106.34640469999954
31
0.0
0
LINE
8
Supports copy
62
1
5
31c
100
AcDbEntity
100
AcDbLine
10
176.67427000000004
20
106.34640469999954
30
0.0
11
181.82819000000003
21
98.62605469999949
31
0.0
0
LINE
8
Supports copy
62
1
5
31d
100
AcDbEntity
100
AcDbLine
10
181.82819000000003
20
98.62605469999949
30
0.0
11
185.26512000000002
21
92.17165469999952
31
0.0
0
LINE
8
Supports copy
62
1
5
31e
100
AcDbEntity
100
AcDbLine
10
185.26512000000002
20
92.17165469999952
30
0.0
11
188.70504000000003
21
84.16815469999949
31
0.0
0
LINE
8
Supports copy
62
1
5
31f
100
AcDbEntity
100
AcDbLine
10
188.70504000000003
20
84.16815469999949
30
0.0
11
195.29168
21
65.57499469999948
31
0.0
0
LINE
8
Supports copy
62
1
5
320
100
AcDbEntity
100
AcDbLine
10
195.29168
20
65.57499469999948
30
0.0
11
201.33383
21
47.29330469999945
31
0.0
0
LINE
8
Supports copy
62
1
5
321
100
AcDbEntity
100
AcDbLine
10
201.33383
20
47.29330469999945
30
0.0
11
201.70914000000002
21
44.64670469999942
31
0.0
0
LINE
8
Supports copy
62
1
5
322
100
AcDbEntity
100
AcDbLine
10
201.70914000000002
20
44.64670469999942
30
0.0
11
204.74802000000003
21
43.15530469999942
31
0.0
0
LINE
8
Supports copy
62
1
5
323
100
AcDbEntity
100
AcDbLine
10
204.74802000000003
20
43.15530469999942
30
0.0
11
204.79822000000001
21
43.456504699999414
31
0.0
0
LINE
8
Supports copy
62
1
5
324
100
AcDbEntity
100
AcDbLine
10
146.42923000000002
20
29.815604699999426
30
0.0
11
156.257
21
41.429404699999395
31
0.0
0
LINE
8
Supports copy
62
1
5
325
100
AcDbEntity
100
AcDbLine
10
156.257
20
41.429404699999395
30
0.0
11
160.41498
21
47.06670469999938
31
0.0
0
LINE
8
Supports copy
62
1
5
326
100
AcDbEntity
100
AcDbLine
10
160.41498
20
47.06670469999938
30
0.0
11
162.71740000000003
21
51.58580469999936
31
0.0
0
LINE
8
Supports copy
62
1
5
327
100
AcDbEntity
100
AcDbLine
10
162.71740000000003
20
51.58580469999936
30
0.0
11
165.51746000000003
21
56.279084699999316
31
0.0
0
LINE
8
Supports copy
62
1
5
328
100
AcDbEntity
100
AcDbLine
10
165.51746000000003
20
56.279084699999316
30
0.0
11
167.48844000000003
21
60.42929469999933
31
0.0
0
LINE
8
Supports copy
62
1
5
329
100
AcDbEntity
100
AcDbLine
10
167.48844000000003
20
60.42929469999933
30
0.0
11
168.98209000000003
21
64.68357469999933
31
0.0
0
LINE
8
Supports copy
62
1
5
32a
100
AcDbEntity
100
AcDbLine
10
168.98209000000003
20
64.68357469999933
30
0.0
11
166.06885000000003
21
60.32404469999938
31
0.0
0
LINE
8
Supports copy
62
1
5
32b
100
AcDbEntity
100
AcDbLine
10
166.06885000000003
20
60.32404469999938
30
0.0
11
158.31100000000004
21
49.668904699999416
31
0.0
0
LINE
8
Supports copy
62
1
5
32c
100
AcDbEntity
100
AcDbLine
10
158.31100000000004
20
49.668904699999416
30
0.0
11
147.09867000000003
21
34.950004699999454
31
0.0
0
LINE
8
Supports copy
62
1
5
32d
100
AcDbEntity
100
AcDbLine
10
147.09867000000003
20
34.950004699999454
30
0.0
11
143.35952000000003
21
38.85360469999944
31
0.0
0
LINE
8
Supports copy
62
1
5
32e
100
AcDbEntity
100
AcDbLine
10
143.35952000000003
20
38.85360469999944
30
0.0
11
135.02984000000004
21
48.742904699999485
31
0.0
0
LINE
8
Supports copy
62
1
5
32f
100
AcDbEntity
100
AcDbLine
10
135.02984000000004
20
48.742904699999485
30
0.0
11
126.15426000000004
21
59.52104469999949
31
0.0
0
LINE
8
Supports copy
62
1
5
330
100
AcDbEntity
100
AcDbLine
10
126.15426000000004
20
59.52104469999949
30
0.0
11
122.55370000000003
21
63.25391469999954
31
0.0
0
LINE
8
Supports copy
62
1
5
331
100
AcDbEntity
100
AcDbLine
10
122.55370000000003
20
63.25391469999954
30
0.0
11
121.88947000000003
21
63.8615046999995
31
0.0
0
LINE
8
Supports copy
62
1
5
332
100
AcDbEntity
100
AcDbLine
10
121.88947000000003
20
63.8615046999995
30
0.0
11
121.55498000000003
21
64.84030469999948
31
0.0
0
LINE
8
Supports copy
62
1
5
333
100
AcDbEntity
100
AcDbLine
10
121.55498000000003
20
64.84030469999948
30
0.0
11
121.11530000000003
21
66.95758469999953
31
0.0
0
LINE
8
Supports copy
62
1
5
334
100
AcDbEntity
100
AcDbLine
10
121.11530000000003
20
66.95758469999953
30
0.0
11
120.26342000000004
21
68.14539469999954
31
0.0
0
LINE
8
Supports copy
62
1
5
335
100
AcDbEntity
100
AcDbLine
10
120.26342000000004
20
68.14539469999954
30
0.0
11
118.89780000000003
21
68.93348469999955
31
0.0
0
LINE
8
Supports copy
62
1
5
336
100
AcDbEntity
100
AcDbLine
10
118.89780000000003
20
68.93348469999955
30
0.0
11
114.63181000000003
21
69.30818469999952
31
0.0
0
LINE
8
Supports copy
62
1
5
337
100
AcDbEntity
100
AcDbLine
10
114.63181000000003
20
69.30818469999952
30
0.0
11
112.63210000000004
21
68.9082446999995
31
0.0
0
LINE
8
Supports copy
62
1
5
338
100
AcDbEntity
100
AcDbLine
10
112.63210000000004
20
68.9082446999995
30
0.0
11
111.19038000000003
21
68.08280469999954
31
0.0
0
LINE
8
Supports copy
62
1
5
339
100
AcDbEntity
100
AcDbLine
10
111.19038000000003
20
68.08280469999954
30
0.0
11
110.31743000000003
21
66.8415146999995
31
0.0
0
LINE
8
Supports copy
62
1
5
33a
100
AcDbEntity
100
AcDbLine
10
110.31743000000003
20
66.8415146999995
30
0.0
11
110.02405000000003
21
65.19400469999948
31
0.0
0
LINE
8
Supports copy
62
1
5
33b
100
AcDbEntity
100
AcDbLine
10
110.02405000000003
20
65.19400469999948
30
0.0
11
109.82858000000003
21
63.95206469999948
31
0.0
0
LINE
8
Supports copy
62
1
5
33c
100
AcDbEntity
100
AcDbLine
10
109.82858000000003
20
63.95206469999948
30
0.0
11
109.19716000000003
21
63.34968469999944
31
0.0
0
LINE
8
Supports copy
62
1
5
33d
100
AcDbEntity
100
AcDbLine
10
109.19716000000003
20
63.34968469999944
30
0.0
11
106.49547000000003
21
60.85208469999941
31
0.0
0
LINE
8
Supports copy
62
1
5
33e
100
AcDbEntity
100
AcDbLine
10
106.49547000000003
20
60.85208469999941
30
0.0
11
94.93939200000003
21
46.984004699999446
31
0.0
0
LINE
8
Supports copy
62
1
5
33f
100
AcDbEntity
100
AcDbLine
10
94.93939200000003
20
46.984004699999446
30
0.0
11
83.51913200000003
21
34.01210469999944
31
0.0
0
LINE
8
Supports copy
62
1
5
340
100
AcDbEntity
100
AcDbLine
10
83.51913200000003
20
34.01210469999944
30
0.0
11
81.31879900000003
21
38.08300469999949
31
0.0
0
LINE
8
Supports copy
62
1
5
341
100
AcDbEntity
100
AcDbLine
10
81.31879900000003
20
38.08300469999949
30
0.0
11
75.66470200000003
21
48.319704699999534
31
0.0
0
LINE
8
Supports copy
62
1
5
342
100
AcDbEntity
100
AcDbLine
10
75.66470200000003
20
48.319704699999534
30
0.0
11
72.07349900000003
21
53.685194699999556
31
0.0
0
LINE
8
Supports copy
62
1
5
343
100
AcDbEntity
100
AcDbLine
10
72.07349900000003
20
53.685194699999556
30
0.0
11
68.82780700000002
21
57.893134699999564
31
0.0
0
LINE
8
Supports copy
62
1
5
344
100
AcDbEntity
100
AcDbLine
10
68.82780700000002
20
57.893134699999564
30
0.0
11
65.27195200000003
21
62.01238469999953
31
0.0
0
LINE
8
Supports copy
62
1
5
345
100
AcDbEntity
100
AcDbLine
10
65.27195200000003
20
62.01238469999953
30
0.0
11
65.19831200000003
21
61.945984699999485
31
0.0
0
LINE
8
Supports copy
62
1
5
346
100
AcDbEntity
100
AcDbLine
10
65.19831200000003
20
61.945984699999485
30
0.0
11
65.84839000000002
21
60.63158469999951
31
0.0
0
LINE
8
Supports copy
62
1
5
347
100
AcDbEntity
100
AcDbLine
10
65.84839000000002
20
60.63158469999951
30
0.0
11
68.90245400000002
21
54.89316469999949
31
0.0
0
LINE
8
Supports copy
62
1
5
348
100
AcDbEntity
100
AcDbLine
10
68.90245400000002
20
54.89316469999949
30
0.0
11
79.10547400000002
21
35.4181046999995
31
0.0
0
LINE
8
Supports copy
62
1
5
349
100
AcDbEntity
100
AcDbLine
10
79.10547400000002
20
35.4181046999995
30
0.0
11
83.81960400000001
21
29.697204699999475
31
0.0
0
LINE
8
Supports copy
62
1
5
34a
100
AcDbEntity
100
AcDbLine
10
83.81960400000001
20
29.697204699999475
30
0.0
11
83.99162400000002
21
29.793204699999478
31
0.0
0
LINE
8
Supports copy
62
1
5
34b
100
AcDbEntity
100
AcDbLine
10
83.99162400000002
20
29.793204699999478
30
0.0
11
85.64953400000002
21
31.269504699999516
31
0.0
0
LINE
8
Supports copy
62
1
5
34c
100
AcDbEntity
100
AcDbLine
10
85.64953400000002
20
31.269504699999516
30
0.0
11
105.09480000000002
21
55.48657469999955
31
0.0
0
LINE
8
Supports copy
62
1
5
34d
100
AcDbEntity
100
AcDbLine
10
105.09480000000002
20
55.48657469999955
30
0.0
11
113.21753000000002
21
65.02929469999958
31
0.0
0
LINE
8
Supports copy
62
1
5
34e
100
AcDbEntity
100
AcDbLine
10
113.21753000000002
20
65.02929469999958
30
0.0
11
117.82037000000003
21
64.94309469999962
31
0.0
0
LINE
8
Supports copy
62
1
5
34f
100
AcDbEntity
100
AcDbLine
10
117.82037000000003
20
64.94309469999962
30
0.0
11
131.42316000000002
21
48.875004699999636
31
0.0
0
LINE
8
Supports copy
62
1
5
350
100
AcDbEntity
100
AcDbLine
10
131.42316000000002
20
48.875004699999636
30
0.0
11
138.26895000000002
21
40.03470469999968
31
0.0
0
LINE
8
Supports copy
62
1
5
351
100
AcDbEntity
100
AcDbLine
10
138.26895000000002
20
40.03470469999968
30
0.0
11
144.61364000000003
21
30.95800469999972
31
0.0
0
LINE
8
Supports copy
62
1
5
352
100
AcDbEntity
100
AcDbLine
10
144.61364000000003
20
30.95800469999972
30
0.0
11
146.12723000000003
21
30.041104699999664
31
0.0
0
LINE
8
Supports copy
62
1
5
353
100
AcDbEntity
100
AcDbLine
10
146.12723000000003
20
30.041104699999664
30
0.0
11
146.42923000000002
21
29.815604699999653
31
0.0
0
LINE
8
Supports copy
62
1
5
354
100
AcDbEntity
100
AcDbLine
10
30.134694000000025
20
46.76420469999971
30
0.0
11
36.986490000000025
21
66.51387469999975
31
0.0
0
LINE
8
Supports copy
62
1
5
355
100
AcDbEntity
100
AcDbLine
10
36.986490000000025
20
66.51387469999975
30
0.0
11
43.23007200000002
21
82.52694469999972
31
0.0
0
LINE
8
Supports copy
62
1
5
356
100
AcDbEntity
100
AcDbLine
10
43.23007200000002
20
82.52694469999972
30
0.0
11
49.07128400000002
21
95.60752469999977
31
0.0
0
LINE
8
Supports copy
62
1
5
357
100
AcDbEntity
100
AcDbLine
10
49.07128400000002
20
95.60752469999977
30
0.0
11
54.31746400000002
21
105.59794469999974
31
0.0
0
LINE
8
Supports copy
62
1
5
358
100
AcDbEntity
100
AcDbLine
10
54.31746400000002
20
105.59794469999974
30
0.0
11
56.40989200000002
21
108.7552546999998
31
0.0
0
LINE
8
Supports copy
62
1
5
359
100
AcDbEntity
100
AcDbLine
10
56.40989200000002
20
108.7552546999998
30
0.0
11
58.86983400000002
21
111.51380469999981
31
0.0
0
LINE
8
Supports copy
62
1
5
35a
100
AcDbEntity
100
AcDbLine
10
58.86983400000002
20
111.51380469999981
30
0.0
11
61.74883800000002
21
114.03565469999978
31
0.0
0
LINE
8
Supports copy
62
1
5
35b
100
AcDbEntity
100
AcDbLine
10
61.74883800000002
20
114.03565469999978
30
0.0
11
64.22759600000002
21
115.42718469999977
31
0.0
0
LINE
8
Supports copy
62
1
5
35c
100
AcDbEntity
100
AcDbLine
10
64.22759600000002
20
115.42718469999977
30
0.0
11
66.91666600000002
21
116.07229469999982
31
0.0
0
LINE
8
Supports copy
62
1
5
35d
100
AcDbEntity
100
AcDbLine
10
66.91666600000002
20
116.07229469999982
30
0.0
11
70.42660400000003
21
116.35488469999984
31
0.0
0
LINE
8
Supports copy
62
1
5
35e
100
AcDbEntity
100
AcDbLine
10
70.42660400000003
20
116.35488469999984
30
0.0
11
74.79892400000003
21
116.67187469999988
31
0.0
0
LINE
8
Supports copy
62
1
5
35f
100
AcDbEntity
100
AcDbLine
10
74.79892400000003
20
116.67187469999988
30
0.0
11
75.96695400000003
21
118.1464246999999
31
0.0
0
LINE
8
Supports copy
62
1
5
360
100
AcDbEntity
100
AcDbLine
10
75.96695400000003
20
118.1464246999999
30
0.0
11
71.92102400000003
21
118.36875469999995
31
0.0
0
LINE
8
Supports copy
62
1
5
361
100
AcDbEntity
100
AcDbLine
10
71.92102400000003
20
118.36875469999995
30
0.0
11
68.30461700000004
21
118.24384469999995
31
0.0
0
LINE
8
Supports copy
62
1
5
362
100
AcDbEntity
100
AcDbLine
10
68.30461700000004
20
118.24384469999995
30
0.0
11
65.45546700000004
21
117.75176469999997
31
0.0
0
LINE
8
Supports copy
62
1
5
363
100
AcDbEntity
100
AcDbLine
10
65.45546700000004
20
117.75176469999997
30
0.0
11
62.91689500000004
21
116.76734469999997
31
0.0
0
LINE
8
Supports copy
62
1
5
364
100
AcDbEntity
100
AcDbLine
10
62.91689500000004
20
116.76734469999997
30
0.0
11
60.23222400000004
21
115.16543469999999
31
0.0
0
LINE
8
Supports copy
62
1
5
365
100
AcDbEntity
100
AcDbLine
10
60.23222400000004
20
115.16543469999999
30
0.0
11
57.07458600000004
21
112.36601469999994
31
0.0
0
LINE
8
Supports copy
62
1
5
366
100
AcDbEntity
100
AcDbLine
10
57.07458600000004
20
112.36601469999994
30
0.0
11
53.70624400000004
21
108.03912469999989
31
0.0
0
LINE
8
Supports copy
62
1
5
367
100
AcDbEntity
100
AcDbLine
10
53.70624400000004
20
108.03912469999989
30
0.0
11
50.101438000000044
21
102.13089469999989
31
0.0
0
LINE
8
Supports copy
62
1
5
368
100
AcDbEntity
100
AcDbLine
10
50.101438000000044
20
102.13089469999989
30
0.0
11
46.234405000000045
21
94.58745469999985
31
0.0
0
LINE
8
Supports copy
62
1
5
369
100
AcDbEntity
100
AcDbLine
10
46.234405000000045
20
94.58745469999985
30
0.0
11
37.61061300000004
21
74.3794446999998
31
0.0
0
LINE
8
Supports copy
62
1
5
36a
100
AcDbEntity
100
AcDbLine
10
37.61061300000004
20
74.3794446999998
30
0.0
11
27.628774000000043
21
46.98410469999976
31
0.0
0
LINE
8
Supports copy
62
1
5
36b
100
AcDbEntity
100
AcDbLine
10
27.628774000000043
20
46.98410469999976
30
0.0
11
27.226574000000042
21
45.86550469999975
31
0.0
0
LINE
8
Supports copy
62
1
5
36c
100
AcDbEntity
100
AcDbLine
10
27.226574000000042
20
45.86550469999975
30
0.0
11
30.134694000000042
21
46.76420469999971
31
0.0
0
ENDSEC
0
SECTION
2
OBJECTS
0
DICTIONARY
5
C
330
0
100
AcDbDictionary
3
ACAD_GROUP
350
D
3
ACAD_MLINESTYLE
350
17
0
DICTIONARY
5
D
330
C
100
AcDbDictionary
0
DICTIONARY
5
1A
330
C
100
AcDbDictionary
0
DICTIONARY
5
17
330
C
100
AcDbDictionary
3
STANDARD
350
18
0
DICTIONARY
5
19
330
C
100
AcDbDictionary
0
ENDSEC
0
EOF
