0
SECTION
2
HEADER
9
$ACADVER
1
AC1014
9
$HANDSEED
5
FFFF
0
ENDSEC
0
SECTION
2
TABLES
0
TABLE
2
VPORT
5
8
330
0
100
AcDbSymbolTable
70
4
0
VPORT
5
2E
330
8
100
AcDbSymbolTableRecord
100
AcDbViewportTableRecord
2
*ACTIVE
70
0
10
0.0
20
0.0
11
1.0
21
1.0
12
4.25
22
5.5
13
0.0
23
0.0
14
10.0
24
10.0
15
10.0
25
10.0
16
0.0
26
0.0
36
1.0
17
0.0
27
0.0
37
0.0
40
11
41
1.24
42
50.0
43
0.0
44
0.0
50
0.0
51
0.0
71
0
72
100
73
1
74
3
75
0
76
0
77
0
78
0
0
ENDTAB
0
TABLE
2
LTYPE
5
5
330
0
100
AcDbSymbolTable
70
1
0
LTYPE
5
14
330
5
100
AcDbSymbolTableRecord
100
AcDbLinetypeTableRecord
2
BYBLOCK
70
0
3

72
65
73
0
40
0.0
0
LTYPE
5
15
330
5
100
AcDbSymbolTableRecord
100
AcDbLinetypeTableRecord
2
BYLAYER
70
0
3

72
65
73
0
40
0.0
0
LTYPE
5
16
330
5
100
AcDbSymbolTableRecord
100
AcDbLinetypeTableRecord
2
CONTINUOUS
70
0
3
Solid line
72
65
73
0
40
0.0
0
ENDTAB
0
TABLE
2
LAYER
5
2
330
0
100
AcDbSymbolTable
70
1
0
LAYER
5
10
330
2
100
AcDbSymbolTableRecord
100
AcDbLayerTableRecord
2
0
70
0
62
7
6
CONTINUOUS
0
ENDTAB
0
TABLE
2
STYLE
5
3
330
0
100
AcDbSymbolTable
70
1
0
STYLE
5
11
330
3
100
AcDbSymbolTableRecord
100
AcDbTextStyleTableRecord
2
STANDARD
70
0
40
0.0
41
1.0
50
0.0
71
0
42
2.5
3
txt
4

0
ENDTAB
0
TABLE
2
VIEW
5
6
330
0
100
AcDbSymbolTable
70
0
0
ENDTAB
0
TABLE
2
UCS
5
7
330
0
100
AcDbSymbolTable
70
0
0
ENDTAB
0
TABLE
2
APPID
5
9
330
0
100
AcDbSymbolTable
70
2
0
APPID
5
12
330
9
100
AcDbSymbolTableRecord
100
AcDbRegAppTableRecord
2
ACAD
70
0
0
ENDTAB
0
TABLE
2
DIMSTYLE
5
A
330
0
100
AcDbSymbolTable
70
1
0
DIMSTYLE
105
27
330
A
100
AcDbSymbolTableRecord
100
AcDbDimStyleTableRecord
2
ISO-25
70
0
3

4

5

6

7

40
1.0
41
2.5
42
0.625
43
3.75
44
1.25
45
0.0
46
0.0
47
0.0
48
0.0
140
2.5
141
2.5
142
0.0
143
0.03937007874016
144
1.0
145
0.0
146
1.0
147
0.625
71
0
72
0
73
0
74
0
75
0
76
0
77
1
78
8
170
0
171
3
172
1
173
0
174
0
175
0
176
0
177
0
178
0
270
2
271
2
272
2
273
2
274
3
340
11
275
0
280
0
281
0
282
0
283
0
284
8
285
0
286
0
287
3
288
0
0
ENDTAB
0
TABLE
2
BLOCK_RECORD
5
1
330
0
100
AcDbSymbolTable
70
1
0
BLOCK_RECORD
5
1F
330
1
100
AcDbSymbolTableRecord
100
AcDbBlockTableRecord
2
*MODEL_SPACE
0
BLOCK_RECORD
5
1B
330
1
100
AcDbSymbolTableRecord
100
AcDbBlockTableRecord
2
*PAPER_SPACE
0
ENDTAB
0
ENDSEC
0
SECTION
2
BLOCKS
0
BLOCK
5
20
330
1F
100
AcDbEntity
8
0
100
AcDbBlockBegin
2
*MODEL_SPACE
70
0
10
0.0
20
0.0
30
0.0
3
*MODEL_SPACE
1

0
ENDBLK
5
21
330
1F
100
AcDbEntity
8
0
100
AcDbBlockEnd
0
BLOCK
5
1C
330
1B
100
AcDbEntity
67
1
8
0
100
AcDbBlockBegin
2
*PAPER_SPACE
1

0
ENDBLK
5
1D
330
1B
100
AcDbEntity
67
1
8
0
100
AcDbBlockEnd
0
ENDSEC
0
SECTION
2
ENTITIES
0
LINE
8
shape
62
0
5
100
100
AcDbEntity
100
AcDbLine
10
7.740164250538198
20
64.51992812704
30
0.0
11
7.740164250538198
21
54.197320962066
31
0.0
0
LINE
8
shape
62
0
5
101
100
AcDbEntity
100
AcDbLine
10
7.740164250538198
20
54.197320962066
30
0.0
11
0.0
21
54.197320962066
31
0.0
0
LINE
8
shape
62
0
5
102
100
AcDbEntity
100
AcDbLine
10
0.0
20
54.197320962066
30
0.0
11
0.0
21
38.708723914974
31
0.0
0
LINE
8
shape
62
0
5
103
100
AcDbEntity
100
AcDbLine
10
0.0
20
38.708723914974
30
0.0
11
1.300262267352379
21
38.57796091086058
31
0.0
0
LINE
8
shape
62
0
5
104
100
AcDbEntity
100
AcDbLine
10
1.300262267352379
20
38.57796091086058
30
0.0
11
2.511449906796633
21
38.202855614528374
31
0.0
0
LINE
8
shape
62
0
5
105
100
AcDbEntity
100
AcDbLine
10
2.511449906796633
20
38.202855614528374
30
0.0
11
3.6075819912899645
21
37.60918359998948
31
0.0
0
LINE
8
shape
62
0
5
106
100
AcDbEntity
100
AcDbLine
10
3.6075819912899645
20
37.60918359998948
30
0.0
11
4.562677593789573
21
36.822720441255996
31
0.0
0
LINE
8
shape
62
0
5
107
100
AcDbEntity
100
AcDbLine
10
4.562677593789573
20
36.822720441255996
30
0.0
11
5.350755787252661
21
35.86924171234001
31
0.0
0
LINE
8
shape
62
0
5
108
100
AcDbEntity
100
AcDbLine
10
5.350755787252661
20
35.86924171234001
30
0.0
11
5.945835644636427
21
34.77452298725362
31
0.0
0
LINE
8
shape
62
0
5
109
100
AcDbEntity
100
AcDbLine
10
5.945835644636427
20
34.77452298725362
30
0.0
11
6.321936238898072
21
33.56433984000891
31
0.0
0
LINE
8
shape
62
0
5
10a
100
AcDbEntity
100
AcDbLine
10
6.321936238898072
20
33.56433984000891
30
0.0
11
6.453076642994798
21
32.264467844618
31
0.0
0
LINE
8
shape
62
0
5
10b
100
AcDbEntity
100
AcDbLine
10
6.453076642994798
20
32.264467844618
30
0.0
11
6.321936238898072
21
30.964210285194937
31
0.0
0
LINE
8
shape
62
0
5
10c
100
AcDbEntity
100
AcDbLine
10
6.321936238898072
20
30.964210285194937
30
0.0
11
5.945835644636427
21
29.753024697925007
31
0.0
0
LINE
8
shape
62
0
5
10d
100
AcDbEntity
100
AcDbLine
10
5.945835644636427
20
29.753024697925007
30
0.0
11
5.350755787252661
21
28.65689263492907
31
0.0
0
LINE
8
shape
62
0
5
10e
100
AcDbEntity
100
AcDbLine
10
5.350755787252661
20
28.65689263492907
30
0.0
11
4.562677593789573
21
27.70179564832801
31
0.0
0
LINE
8
shape
62
0
5
10f
100
AcDbEntity
100
AcDbLine
10
4.562677593789573
20
27.70179564832801
30
0.0
11
3.6075819912899645
21
26.913715290242692
31
0.0
0
LINE
8
shape
62
0
5
110
100
AcDbEntity
100
AcDbLine
10
3.6075819912899645
20
26.913715290242692
30
0.0
11
2.511449906796633
21
26.318633112794007
31
0.0
0
LINE
8
shape
62
0
5
111
100
AcDbEntity
100
AcDbLine
10
2.511449906796633
20
26.318633112794007
30
0.0
11
1.300262267352379
21
25.94253066810282
31
0.0
0
LINE
8
shape
62
0
5
112
100
AcDbEntity
100
AcDbLine
10
1.300262267352379
20
25.94253066810282
30
0.0
11
0.0
21
25.811389508290006
31
0.0
0
LINE
8
shape
62
0
5
113
100
AcDbEntity
100
AcDbLine
10
0.0
20
25.811389508290006
30
0.0
11
0.0
21
10.322792461198006
31
0.0
0
LINE
8
shape
62
0
5
114
100
AcDbEntity
100
AcDbLine
10
0.0
20
10.322792461198006
30
0.0
11
7.740164250538198
21
10.322792461198006
31
0.0
0
LINE
8
shape
62
0
5
115
100
AcDbEntity
100
AcDbLine
10
7.740164250538198
20
10.322792461198006
30
0.0
11
7.740164250538198
21
0.00018529622400365042
31
0.0
0
LINE
8
shape
62
0
5
116
100
AcDbEntity
100
AcDbLine
10
7.740164250538198
20
0.00018529622400365042
30
0.0
11
18.062771979956594
21
0.00018529622400365042
31
0.0
0
LINE
8
shape
62
0
5
117
100
AcDbEntity
100
AcDbLine
10
18.062771979956594
20
0.00018529622400365042
30
0.0
11
18.062771979956594
21
10.322792461198006
31
0.0
0
LINE
8
shape
62
0
5
118
100
AcDbEntity
100
AcDbLine
10
18.062771979956594
20
10.322792461198006
30
0.0
11
25.802936230494794
21
10.322792461198006
31
0.0
0
LINE
8
shape
62
0
5
119
100
AcDbEntity
100
AcDbLine
10
25.802936230494794
20
10.322792461198006
30
0.0
11
25.802936230494794
21
0.00018529622400365042
31
0.0
0
LINE
8
shape
62
0
5
11a
100
AcDbEntity
100
AcDbLine
10
25.802936230494794
20
0.00018529622400365042
30
0.0
11
36.125545088801985
21
0.00018529622400365042
31
0.0
0
LINE
8
shape
62
0
5
11b
100
AcDbEntity
100
AcDbLine
10
36.125545088801985
20
0.00018529622400365042
30
0.0
11
36.125545088801985
21
10.322792461198006
31
0.0
0
LINE
8
shape
62
0
5
11c
100
AcDbEntity
100
AcDbLine
10
36.125545088801985
20
10.322792461198006
30
0.0
11
43.87452850086799
21
10.322792461198006
31
0.0
0
LINE
8
shape
62
0
5
11d
100
AcDbEntity
100
AcDbLine
10
43.87452850086799
20
10.322792461198006
30
0.0
11
43.87452850086799
21
0.00018529622400365042
31
0.0
0
LINE
8
shape
62
0
5
11e
100
AcDbEntity
100
AcDbLine
10
43.87452850086799
20
0.00018529622400365042
30
0.0
11
54.18831622209199
21
0.00018529622400365042
31
0.0
0
LINE
8
shape
62
0
5
11f
100
AcDbEntity
100
AcDbLine
10
54.18831622209199
20
0.00018529622400365042
30
0.0
11
54.18831622209199
21
10.322792461198006
31
0.0
0
LINE
8
shape
62
0
5
120
100
AcDbEntity
100
AcDbLine
10
54.18831622209199
20
10.322792461198006
30
0.0
11
61.93729963415798
21
10.322792461198006
31
0.0
0
LINE
8
shape
62
0
5
121
100
AcDbEntity
100
AcDbLine
10
61.93729963415798
20
10.322792461198006
30
0.0
11
61.93729963415798
21
0.00018529622400365042
31
0.0
0
LINE
8
shape
62
0
5
122
100
AcDbEntity
100
AcDbLine
10
61.93729963415798
20
0.00018529622400365042
30
0.0
11
72.25990679913198
21
0.00018529622400365042
31
0.0
0
LINE
8
shape
62
0
5
123
100
AcDbEntity
100
AcDbLine
10
72.25990679913198
20
0.00018529622400365042
30
0.0
11
72.25990679913198
21
10.322792461198006
31
0.0
0
LINE
8
shape
62
0
5
124
100
AcDbEntity
100
AcDbLine
10
72.25990679913198
20
10.322792461198006
30
0.0
11
80.00007076744798
21
10.322792461198006
31
0.0
0
LINE
8
shape
62
0
5
125
100
AcDbEntity
100
AcDbLine
10
80.00007076744798
20
10.322792461198006
30
0.0
11
80.00007076744798
21
54.197320962066
31
0.0
0
LINE
8
shape
62
0
5
126
100
AcDbEntity
100
AcDbLine
10
80.00007076744798
20
54.197320962066
30
0.0
11
72.25990679913198
21
54.197320962066
31
0.0
0
LINE
8
shape
62
0
5
127
100
AcDbEntity
100
AcDbLine
10
72.25990679913198
20
54.197320962066
30
0.0
11
72.25990679913198
21
64.51992812704
31
0.0
0
LINE
8
shape
62
0
5
128
100
AcDbEntity
100
AcDbLine
10
72.25990679913198
20
64.51992812704
30
0.0
11
61.93729963415798
21
64.51992812704
31
0.0
0
LINE
8
shape
62
0
5
129
100
AcDbEntity
100
AcDbLine
10
61.93729963415798
20
64.51992812704
30
0.0
11
61.93729963415798
21
54.197320962066
31
0.0
0
LINE
8
shape
62
0
5
12a
100
AcDbEntity
100
AcDbLine
10
61.93729963415798
20
54.197320962066
30
0.0
11
54.18831622209199
21
54.197320962066
31
0.0
0
LINE
8
shape
62
0
5
12b
100
AcDbEntity
100
AcDbLine
10
54.18831622209199
20
54.197320962066
30
0.0
11
54.18831622209199
21
64.51992812704
31
0.0
0
LINE
8
shape
62
0
5
12c
100
AcDbEntity
100
AcDbLine
10
54.18831622209199
20
64.51992812704
30
0.0
11
43.87452850086799
21
64.51992812704
31
0.0
0
LINE
8
shape
62
0
5
12d
100
AcDbEntity
100
AcDbLine
10
43.87452850086799
20
64.51992812704
30
0.0
11
43.87452850086799
21
54.197320962066
31
0.0
0
LINE
8
shape
62
0
5
12e
100
AcDbEntity
100
AcDbLine
10
43.87452850086799
20
54.197320962066
30
0.0
11
36.125545088801985
21
54.197320962066
31
0.0
0
LINE
8
shape
62
0
5
12f
100
AcDbEntity
100
AcDbLine
10
36.125545088801985
20
54.197320962066
30
0.0
11
36.125545088801985
21
64.51992812704
31
0.0
0
LINE
8
shape
62
0
5
130
100
AcDbEntity
100
AcDbLine
10
36.125545088801985
20
64.51992812704
30
0.0
11
25.802936230494794
21
64.51992812704
31
0.0
0
LINE
8
shape
62
0
5
131
100
AcDbEntity
100
AcDbLine
10
25.802936230494794
20
64.51992812704
30
0.0
11
25.802936230494794
21
54.197320962066
31
0.0
0
LINE
8
shape
62
0
5
132
100
AcDbEntity
100
AcDbLine
10
25.802936230494794
20
54.197320962066
30
0.0
11
18.062771979956594
21
54.197320962066
31
0.0
0
LINE
8
shape
62
0
5
133
100
AcDbEntity
100
AcDbLine
10
18.062771979956594
20
54.197320962066
30
0.0
11
18.062771979956594
21
64.51992812704
31
0.0
0
LINE
8
shape
62
0
5
134
100
AcDbEntity
100
AcDbLine
10
18.062771979956594
20
64.51992812704
30
0.0
11
7.740164250538198
21
64.51992812704
31
0.0
0
LINE
8
shape
62
0
5
135
100
AcDbEntity
100
AcDbLine
10
7.740164250538198
20
64.51992812704
30
0.0
11
7.740164250538198
21
64.51992812704
31
0.0
0
ENDSEC
0
SECTION
2
OBJECTS
0
DICTIONARY
5
C
330
0
100
AcDbDictionary
3
ACAD_GROUP
350
D
3
ACAD_MLINESTYLE
350
17
0
DICTIONARY
5
D
330
C
100
AcDbDictionary
0
DICTIONARY
5
1A
330
C
100
AcDbDictionary
0
DICTIONARY
5
17
330
C
100
AcDbDictionary
3
STANDARD
350
18
0
DICTIONARY
5
19
330
C
100
AcDbDictionary
0
ENDSEC
0
EOF
