0
SECTION
2
HEADER
9
$ACADVER
1
AC1014
9
$HANDSEED
5
FFFF
0
ENDSEC
0
SECTION
2
TABLES
0
TABLE
2
VPORT
5
8
330
0
100
AcDbSymbolTable
70
4
0
VPORT
5
2E
330
8
100
AcDbSymbolTableRecord
100
AcDbViewportTableRecord
2
*ACTIVE
70
0
10
0.0
20
0.0
11
1.0
21
1.0
12
4.25
22
5.5
13
0.0
23
0.0
14
10.0
24
10.0
15
10.0
25
10.0
16
0.0
26
0.0
36
1.0
17
0.0
27
0.0
37
0.0
40
11
41
1.24
42
50.0
43
0.0
44
0.0
50
0.0
51
0.0
71
0
72
100
73
1
74
3
75
0
76
0
77
0
78
0
0
ENDTAB
0
TABLE
2
LTYPE
5
5
330
0
100
AcDbSymbolTable
70
1
0
LTYPE
5
14
330
5
100
AcDbSymbolTableRecord
100
AcDbLinetypeTableRecord
2
BYBLOCK
70
0
3

72
65
73
0
40
0.0
0
LTYPE
5
15
330
5
100
AcDbSymbolTableRecord
100
AcDbLinetypeTableRecord
2
BYLAYER
70
0
3

72
65
73
0
40
0.0
0
LTYPE
5
16
330
5
100
AcDbSymbolTableRecord
100
AcDbLinetypeTableRecord
2
CONTINUOUS
70
0
3
Solid line
72
65
73
0
40
0.0
0
ENDTAB
0
TABLE
2
LAYER
5
2
330
0
100
AcDbSymbolTable
70
1
0
LAYER
5
10
330
2
100
AcDbSymbolTableRecord
100
AcDbLayerTableRecord
2
0
70
0
62
7
6
CONTINUOUS
0
ENDTAB
0
TABLE
2
STYLE
5
3
330
0
100
AcDbSymbolTable
70
1
0
STYLE
5
11
330
3
100
AcDbSymbolTableRecord
100
AcDbTextStyleTableRecord
2
STANDARD
70
0
40
0.0
41
1.0
50
0.0
71
0
42
2.5
3
txt
4

0
ENDTAB
0
TABLE
2
VIEW
5
6
330
0
100
AcDbSymbolTable
70
0
0
ENDTAB
0
TABLE
2
UCS
5
7
330
0
100
AcDbSymbolTable
70
0
0
ENDTAB
0
TABLE
2
APPID
5
9
330
0
100
AcDbSymbolTable
70
2
0
APPID
5
12
330
9
100
AcDbSymbolTableRecord
100
AcDbRegAppTableRecord
2
ACAD
70
0
0
ENDTAB
0
TABLE
2
DIMSTYLE
5
A
330
0
100
AcDbSymbolTable
70
1
0
DIMSTYLE
105
27
330
A
100
AcDbSymbolTableRecord
100
AcDbDimStyleTableRecord
2
ISO-25
70
0
3

4

5

6

7

40
1.0
41
2.5
42
0.625
43
3.75
44
1.25
45
0.0
46
0.0
47
0.0
48
0.0
140
2.5
141
2.5
142
0.0
143
0.03937007874016
144
1.0
145
0.0
146
1.0
147
0.625
71
0
72
0
73
0
74
0
75
0
76
0
77
1
78
8
170
0
171
3
172
1
173
0
174
0
175
0
176
0
177
0
178
0
270
2
271
2
272
2
273
2
274
3
340
11
275
0
280
0
281
0
282
0
283
0
284
8
285
0
286
0
287
3
288
0
0
ENDTAB
0
TABLE
2
BLOCK_RECORD
5
1
330
0
100
AcDbSymbolTable
70
1
0
BLOCK_RECORD
5
1F
330
1
100
AcDbSymbolTableRecord
100
AcDbBlockTableRecord
2
*MODEL_SPACE
0
BLOCK_RECORD
5
1B
330
1
100
AcDbSymbolTableRecord
100
AcDbBlockTableRecord
2
*PAPER_SPACE
0
ENDTAB
0
ENDSEC
0
SECTION
2
BLOCKS
0
BLOCK
5
20
330
1F
100
AcDbEntity
8
0
100
AcDbBlockBegin
2
*MODEL_SPACE
70
0
10
0.0
20
0.0
30
0.0
3
*MODEL_SPACE
1

0
ENDBLK
5
21
330
1F
100
AcDbEntity
8
0
100
AcDbBlockEnd
0
BLOCK
5
1C
330
1B
100
AcDbEntity
67
1
8
0
100
AcDbBlockBegin
2
*PAPER_SPACE
1

0
ENDBLK
5
1D
330
1B
100
AcDbEntity
67
1
8
0
100
AcDbBlockEnd
0
ENDSEC
0
SECTION
2
ENTITIES
0
LINE
8
shape
62
0
5
100
100
AcDbEntity
100
AcDbLine
10
10.061401433333332
20
45.95233062499997
30
0.0
11
9.845910743749998
21
45.95181468749996
31
0.0
0
LINE
8
shape
62
0
5
101
100
AcDbEntity
100
AcDbLine
10
9.845910743749998
20
45.95181468749996
30
0.0
11
9.279020049999998
21
45.87998560416665
31
0.0
0
LINE
8
shape
62
0
5
102
100
AcDbEntity
100
AcDbLine
10
9.279020049999998
20
45.87998560416665
30
0.0
11
8.527818973274739
21
45.59225916666665
31
0.0
0
LINE
8
shape
62
0
5
103
100
AcDbEntity
100
AcDbLine
10
8.527818973274739
20
45.59225916666665
30
0.0
11
7.831836628385416
21
45.115915901041646
31
0.0
0
LINE
8
shape
62
0
5
104
100
AcDbEntity
100
AcDbLine
10
7.831836628385416
20
45.115915901041646
30
0.0
11
7.224601040136717
21
44.47861700260414
31
0.0
0
LINE
8
shape
62
0
5
105
100
AcDbEntity
100
AcDbLine
10
7.224601040136717
20
44.47861700260414
30
0.0
11
6.739640233333332
21
43.708023666666634
31
0.0
0
LINE
8
shape
62
0
5
106
100
AcDbEntity
100
AcDbLine
10
6.739640233333332
20
43.708023666666634
30
0.0
11
6.433798271093748
21
42.86394264062498
31
0.0
0
LINE
8
shape
62
0
5
107
100
AcDbEntity
100
AcDbLine
10
6.433798271093748
20
42.86394264062498
30
0.0
11
6.356718035416665
21
41.9753123958333
31
0.0
0
LINE
8
shape
62
0
5
108
100
AcDbEntity
100
AcDbLine
10
6.356718035416665
20
41.9753123958333
30
0.0
11
6.476541675520832
21
41.082850984374964
31
0.0
0
LINE
8
shape
62
0
5
109
100
AcDbEntity
100
AcDbLine
10
6.476541675520832
20
41.082850984374964
30
0.0
11
6.795450912499999
21
40.154754166666635
31
0.0
0
LINE
8
shape
62
0
5
10a
100
AcDbEntity
100
AcDbLine
10
6.795450912499999
20
40.154754166666635
30
0.0
11
7.474479166666665
21
38.869043208333295
31
0.0
0
LINE
8
shape
62
0
5
10b
100
AcDbEntity
100
AcDbLine
10
7.474479166666665
20
38.869043208333295
30
0.0
11
7.833630404166665
21
38.24634104166665
31
0.0
0
LINE
8
shape
62
0
5
10c
100
AcDbEntity
100
AcDbLine
10
7.833630404166665
20
38.24634104166665
30
0.0
11
8.361154107552082
21
37.19231876302081
31
0.0
0
LINE
8
shape
62
0
5
10d
100
AcDbEntity
100
AcDbLine
10
8.361154107552082
20
37.19231876302081
30
0.0
11
8.608260024999998
21
36.321912687499974
31
0.0
0
LINE
8
shape
62
0
5
10e
100
AcDbEntity
100
AcDbLine
10
8.608260024999998
20
36.321912687499974
30
0.0
11
8.638562588802081
21
35.875739197916644
31
0.0
0
LINE
8
shape
62
0
5
10f
100
AcDbEntity
100
AcDbLine
10
8.638562588802081
20
35.875739197916644
30
0.0
11
8.552449610416664
21
35.451163645833304
31
0.0
0
LINE
8
shape
62
0
5
110
100
AcDbEntity
100
AcDbLine
10
8.552449610416664
20
35.451163645833304
30
0.0
11
7.793839452083332
21
34.724593999999996
31
0.0
0
LINE
8
shape
62
0
5
111
100
AcDbEntity
100
AcDbLine
10
7.793839452083332
20
34.724593999999996
30
0.0
11
7.456075188216145
21
34.554816166666654
31
0.0
0
LINE
8
shape
62
0
5
112
100
AcDbEntity
100
AcDbLine
10
7.456075188216145
20
34.554816166666654
30
0.0
11
7.1577085567708325
21
34.549993473958324
31
0.0
0
LINE
8
shape
62
0
5
113
100
AcDbEntity
100
AcDbLine
10
7.1577085567708325
20
34.549993473958324
30
0.0
11
6.540169270833332
21
34.812443604166646
31
0.0
0
LINE
8
shape
62
0
5
114
100
AcDbEntity
100
AcDbLine
10
6.540169270833332
20
34.812443604166646
30
0.0
11
5.582132930729165
21
35.40969086979163
31
0.0
0
LINE
8
shape
62
0
5
115
100
AcDbEntity
100
AcDbLine
10
5.582132930729165
20
35.40969086979163
30
0.0
11
4.328417968749999
21
36.42578016666664
31
0.0
0
LINE
8
shape
62
0
5
116
100
AcDbEntity
100
AcDbLine
10
4.328417968749999
20
36.42578016666664
30
0.0
11
3.481957941666666
21
37.13633193749999
31
0.0
0
LINE
8
shape
62
0
5
117
100
AcDbEntity
100
AcDbLine
10
3.481957941666666
20
37.13633193749999
30
0.0
11
2.9487012499218745
21
37.30990654166664
31
0.0
0
LINE
8
shape
62
0
5
118
100
AcDbEntity
100
AcDbLine
10
2.9487012499218745
20
37.30990654166664
30
0.0
11
2.555399570208333
21
37.312031145833316
31
0.0
0
LINE
8
shape
62
0
5
119
100
AcDbEntity
100
AcDbLine
10
2.555399570208333
20
37.312031145833316
30
0.0
11
1.7807698699999996
21
37.19214314583331
31
0.0
0
LINE
8
shape
62
0
5
11a
100
AcDbEntity
100
AcDbLine
10
1.7807698699999996
20
37.19214314583331
30
0.0
11
1.087829827473958
21
36.78970627343749
31
0.0
0
LINE
8
shape
62
0
5
11b
100
AcDbEntity
100
AcDbLine
10
1.087829827473958
20
36.78970627343749
30
0.0
11
0.6071980860416665
21
36.121924729166665
31
0.0
0
LINE
8
shape
62
0
5
11c
100
AcDbEntity
100
AcDbLine
10
0.6071980860416665
20
36.121924729166665
30
0.0
11
0.34056373511979154
21
35.03821520833332
31
0.0
0
LINE
8
shape
62
0
5
11d
100
AcDbEntity
100
AcDbLine
10
0.34056373511979154
20
35.03821520833332
30
0.0
11
0.40772704416666655
21
33.71845237499997
31
0.0
0
LINE
8
shape
62
0
5
11e
100
AcDbEntity
100
AcDbLine
10
0.40772704416666655
20
33.71845237499997
30
0.0
11
0.4392496612499999
21
33.55102139583332
31
0.0
0
LINE
8
shape
62
0
5
11f
100
AcDbEntity
100
AcDbLine
10
0.4392496612499999
20
33.55102139583332
30
0.0
11
0.3994588149999999
21
33.51898299999999
31
0.0
0
LINE
8
shape
62
0
5
120
100
AcDbEntity
100
AcDbLine
10
0.3994588149999999
20
33.51898299999999
30
0.0
11
0.07234700520833331
21
33.16758193749999
31
0.0
0
LINE
8
shape
62
0
5
121
100
AcDbEntity
100
AcDbLine
10
0.07234700520833331
20
33.16758193749999
30
0.0
11
-0.42974104888020825
21
32.301559346354146
31
0.0
0
LINE
8
shape
62
0
5
122
100
AcDbEntity
100
AcDbLine
10
-0.42974104888020825
20
32.301559346354146
30
0.0
11
-0.6624918487499998
21
31.298962145833315
31
0.0
0
LINE
8
shape
62
0
5
123
100
AcDbEntity
100
AcDbLine
10
-0.6624918487499998
20
31.298962145833315
30
0.0
11
-0.6464721745833332
21
30.48454289583333
31
0.0
0
LINE
8
shape
62
0
5
124
100
AcDbEntity
100
AcDbLine
10
-0.6464721745833332
20
30.48454289583333
30
0.0
11
-0.342217295625
21
29.37326875260414
31
0.0
0
LINE
8
shape
62
0
5
125
100
AcDbEntity
100
AcDbLine
10
-0.342217295625
20
29.37326875260414
30
0.0
11
0.23977864583333328
21
28.400430562499963
31
0.0
0
LINE
8
shape
62
0
5
126
100
AcDbEntity
100
AcDbLine
10
0.23977864583333328
20
28.400430562499963
30
0.0
11
0.8387085027083331
21
27.80150120833332
31
0.0
0
LINE
8
shape
62
0
5
127
100
AcDbEntity
100
AcDbLine
10
0.8387085027083331
20
27.80150120833332
30
0.0
11
1.6469848586197915
21
27.320794963541648
31
0.0
0
LINE
8
shape
62
0
5
128
100
AcDbEntity
100
AcDbLine
10
1.6469848586197915
20
27.320794963541648
30
0.0
11
2.9626099624999997
21
26.867191312499983
31
0.0
0
LINE
8
shape
62
0
5
129
100
AcDbEntity
100
AcDbLine
10
2.9626099624999997
20
26.867191312499983
30
0.0
11
4.671549479166666
21
26.292032124999963
31
0.0
0
LINE
8
shape
62
0
5
12a
100
AcDbEntity
100
AcDbLine
10
4.671549479166666
20
26.292032124999963
30
0.0
11
5.39198909296875
21
25.904043486979145
31
0.0
0
LINE
8
shape
62
0
5
12b
100
AcDbEntity
100
AcDbLine
10
5.39198909296875
20
25.904043486979145
30
0.0
11
5.9091999333333325
21
25.430069895833327
31
0.0
0
LINE
8
shape
62
0
5
12c
100
AcDbEntity
100
AcDbLine
10
5.9091999333333325
20
25.430069895833327
30
0.0
11
6.460070899999998
21
24.663190979166643
31
0.0
0
LINE
8
shape
62
0
5
12d
100
AcDbEntity
100
AcDbLine
10
6.460070899999998
20
24.663190979166643
30
0.0
11
6.888226132291665
21
23.620916531249975
31
0.0
0
LINE
8
shape
62
0
5
12e
100
AcDbEntity
100
AcDbLine
10
6.888226132291665
20
23.620916531249975
30
0.0
11
7.035229558333332
21
22.443172770833314
31
0.0
0
LINE
8
shape
62
0
5
12f
100
AcDbEntity
100
AcDbLine
10
7.035229558333332
20
22.443172770833314
30
0.0
11
7.035229558333332
21
22.211662354166634
31
0.0
0
LINE
8
shape
62
0
5
130
100
AcDbEntity
100
AcDbLine
10
7.035229558333332
20
22.211662354166634
30
0.0
11
6.9711506499999984
21
22.107792229166648
31
0.0
0
LINE
8
shape
62
0
5
131
100
AcDbEntity
100
AcDbLine
10
6.9711506499999984
20
22.107792229166648
30
0.0
11
6.441988878124999
21
21.60776478645831
31
0.0
0
LINE
8
shape
62
0
5
132
100
AcDbEntity
100
AcDbLine
10
6.441988878124999
20
21.60776478645831
30
0.0
11
5.693709243749999
21
21.325411374999987
31
0.0
0
LINE
8
shape
62
0
5
133
100
AcDbEntity
100
AcDbLine
10
5.693709243749999
20
21.325411374999987
30
0.0
11
5.087027862499999
21
21.253582291666646
31
0.0
0
LINE
8
shape
62
0
5
134
100
AcDbEntity
100
AcDbLine
10
5.087027862499999
20
21.253582291666646
30
0.0
11
2.8587403666666664
21
21.485092708333298
31
0.0
0
LINE
8
shape
62
0
5
135
100
AcDbEntity
100
AcDbLine
10
2.8587403666666664
20
21.485092708333298
30
0.0
11
1.9166788670833328
21
21.748641520833303
31
0.0
0
LINE
8
shape
62
0
5
136
100
AcDbEntity
100
AcDbLine
10
1.9166788670833328
20
21.748641520833303
30
0.0
11
1.1100097656249999
21
21.964131416666646
31
0.0
0
LINE
8
shape
62
0
5
137
100
AcDbEntity
100
AcDbLine
10
1.1100097656249999
20
21.964131416666646
30
0.0
11
0.6790283070833332
21
21.90057056249998
31
0.0
0
LINE
8
shape
62
0
5
138
100
AcDbEntity
100
AcDbLine
10
0.6790283070833332
20
21.90057056249998
30
0.0
11
0.07258091440364581
21
21.472245203124977
31
0.0
0
LINE
8
shape
62
0
5
139
100
AcDbEntity
100
AcDbLine
10
0.07258091440364581
20
21.472245203124977
30
0.0
11
-0.26303303904166664
21
20.71046149999998
31
0.0
0
LINE
8
shape
62
0
5
13a
100
AcDbEntity
100
AcDbLine
10
-0.26303303904166664
20
20.71046149999998
30
0.0
11
-0.26303303904166664
21
19.417000895833297
31
0.0
0
LINE
8
shape
62
0
5
13b
100
AcDbEntity
100
AcDbLine
10
-0.26303303904166664
20
19.417000895833297
30
0.0
11
0.2557983411666666
21
17.947838437499968
31
0.0
0
LINE
8
shape
62
0
5
13c
100
AcDbEntity
100
AcDbLine
10
0.2557983411666666
20
17.947838437499968
30
0.0
11
0.3038574218749999
21
17.851720604166644
31
0.0
0
LINE
8
shape
62
0
5
13d
100
AcDbEntity
100
AcDbLine
10
0.3038574218749999
20
17.851720604166644
30
0.0
11
0.22375895049999997
21
17.644498937499975
31
0.0
0
LINE
8
shape
62
0
5
13e
100
AcDbEntity
100
AcDbLine
10
0.22375895049999997
20
17.644498937499975
30
0.0
11
0.080098471375
21
17.24503895833331
31
0.0
0
LINE
8
shape
62
0
5
13f
100
AcDbEntity
100
AcDbLine
10
0.080098471375
20
17.24503895833331
30
0.0
11
-0.13539225260416665
21
16.438371999999987
31
0.0
0
LINE
8
shape
62
0
5
140
100
AcDbEntity
100
AcDbLine
10
-0.13539225260416665
20
16.438371999999987
30
0.0
11
-0.03979085154166666
21
15.552121020833312
31
0.0
0
LINE
8
shape
62
0
5
141
100
AcDbEntity
100
AcDbLine
10
-0.03979085154166666
20
15.552121020833312
30
0.0
11
0.2561475928203124
21
14.90251139062498
31
0.0
0
LINE
8
shape
62
0
5
142
100
AcDbEntity
100
AcDbLine
10
0.2561475928203124
20
14.90251139062498
30
0.0
11
0.7746297266666665
21
14.210598854166648
31
0.0
0
LINE
8
shape
62
0
5
143
100
AcDbEntity
100
AcDbLine
10
0.7746297266666665
20
14.210598854166648
30
0.0
11
2.421939596145833
21
12.829143124999984
31
0.0
0
LINE
8
shape
62
0
5
144
100
AcDbEntity
100
AcDbLine
10
2.421939596145833
20
12.829143124999984
30
0.0
11
3.317258810221354
21
12.340789264322897
31
0.0
0
LINE
8
shape
62
0
5
145
100
AcDbEntity
100
AcDbLine
10
3.317258810221354
20
12.340789264322897
30
0.0
11
4.1284302749999995
21
12.070677958333306
31
0.0
0
LINE
8
shape
62
0
5
146
100
AcDbEntity
100
AcDbLine
10
4.1284302749999995
20
12.070677958333306
30
0.0
11
5.733500195833332
21
11.998848874999965
31
0.0
0
LINE
8
shape
62
0
5
147
100
AcDbEntity
100
AcDbLine
10
5.733500195833332
20
11.998848874999965
30
0.0
11
7.115327929166665
21
11.974560124999954
31
0.0
0
LINE
8
shape
62
0
5
148
100
AcDbEntity
100
AcDbLine
10
7.115327929166665
20
11.974560124999954
30
0.0
11
7.686164321093749
21
11.850007148762993
31
0.0
0
LINE
8
shape
62
0
5
149
100
AcDbEntity
100
AcDbLine
10
7.686164321093749
20
11.850007148762993
30
0.0
11
8.093718797395832
21
11.623782486979149
31
0.0
0
LINE
8
shape
62
0
5
14a
100
AcDbEntity
100
AcDbLine
10
8.093718797395832
20
11.623782486979149
30
0.0
11
8.351333601041667
21
11.285496696289044
31
0.0
0
LINE
8
shape
62
0
5
14b
100
AcDbEntity
100
AcDbLine
10
8.351333601041667
20
11.285496696289044
30
0.0
11
8.472350975
21
10.824760333333302
31
0.0
0
LINE
8
shape
62
0
5
14c
100
AcDbEntity
100
AcDbLine
10
8.472350975
20
10.824760333333302
30
0.0
11
8.344710154166666
21
9.938509354166655
31
0.0
0
LINE
8
shape
62
0
5
14d
100
AcDbEntity
100
AcDbLine
10
8.344710154166666
20
9.938509354166655
30
0.0
11
8.033618097916666
21
9.515279208333311
31
0.0
0
LINE
8
shape
62
0
5
14e
100
AcDbEntity
100
AcDbLine
10
8.033618097916666
20
9.515279208333311
30
0.0
11
6.699849545833332
21
8.764936749999976
31
0.0
0
LINE
8
shape
62
0
5
14f
100
AcDbEntity
100
AcDbLine
10
6.699849545833332
20
8.764936749999976
30
0.0
11
5.805330337499999
21
8.309668208333306
31
0.0
0
LINE
8
shape
62
0
5
150
100
AcDbEntity
100
AcDbLine
10
5.805330337499999
20
8.309668208333306
30
0.0
11
5.503516094270832
21
7.9702921276041465
31
0.0
0
LINE
8
shape
62
0
5
151
100
AcDbEntity
100
AcDbLine
10
5.503516094270832
20
7.9702921276041465
30
0.0
11
5.302518816666665
21
7.479228437499955
31
0.0
0
LINE
8
shape
62
0
5
152
100
AcDbEntity
100
AcDbLine
10
5.302518816666665
20
7.479228437499955
30
0.0
11
5.223192929947915
21
6.466083953124986
31
0.0
0
LINE
8
shape
62
0
5
153
100
AcDbEntity
100
AcDbLine
10
5.223192929947915
20
6.466083953124986
30
0.0
11
5.453930597916666
21
5.5305086874999745
31
0.0
0
LINE
8
shape
62
0
5
154
100
AcDbEntity
100
AcDbLine
10
5.453930597916666
20
5.5305086874999745
30
0.0
11
5.709728970833332
21
5.211148666666645
31
0.0
0
LINE
8
shape
62
0
5
155
100
AcDbEntity
100
AcDbLine
10
5.709728970833332
20
5.211148666666645
30
0.0
11
6.348449806249999
21
4.955868083333314
31
0.0
0
LINE
8
shape
62
0
5
156
100
AcDbEntity
100
AcDbLine
10
6.348449806249999
20
4.955868083333314
30
0.0
11
7.051249285416665
21
4.732109958333325
31
0.0
0
LINE
8
shape
62
0
5
157
100
AcDbEntity
100
AcDbLine
10
7.051249285416665
20
4.732109958333325
30
0.0
11
7.410400258333333
21
4.213277916666641
31
0.0
0
LINE
8
shape
62
0
5
158
100
AcDbEntity
100
AcDbLine
10
7.410400258333333
20
4.213277916666641
30
0.0
11
7.506518620833332
21
3.965746979166653
31
0.0
0
LINE
8
shape
62
0
5
159
100
AcDbEntity
100
AcDbLine
10
7.506518620833332
20
3.965746979166653
30
0.0
11
7.897709047916665
21
3.5823075208332966
31
0.0
0
LINE
8
shape
62
0
5
15a
100
AcDbEntity
100
AcDbLine
10
7.897709047916665
20
3.5823075208332966
30
0.0
11
8.864058397916665
21
3.3265109999999822
31
0.0
0
LINE
8
shape
62
0
5
15b
100
AcDbEntity
100
AcDbLine
10
8.864058397916665
20
3.3265109999999822
30
0.0
11
10.157519531249998
21
3.0314370833333157
31
0.0
0
LINE
8
shape
62
0
5
15c
100
AcDbEntity
100
AcDbLine
10
10.157519531249998
20
3.0314370833333157
30
0.0
11
10.740429687499997
21
2.6082069375000003
31
0.0
0
LINE
8
shape
62
0
5
15d
100
AcDbEntity
100
AcDbLine
10
10.740429687499997
20
2.6082069375000003
30
0.0
11
11.219470247916664
21
1.961218666666639
31
0.0
0
LINE
8
shape
62
0
5
15e
100
AcDbEntity
100
AcDbLine
10
11.219470247916664
20
1.961218666666639
30
0.0
11
11.610660674999998
21
1.4103482291666296
31
0.0
0
LINE
8
shape
62
0
5
15f
100
AcDbEntity
100
AcDbLine
10
11.610660674999998
20
1.4103482291666296
30
0.0
11
11.882478774999997
21
0.4760383333332925
31
0.0
0
LINE
8
shape
62
0
5
160
100
AcDbEntity
100
AcDbLine
10
11.882478774999997
20
0.4760383333332925
30
0.0
11
12.377539062499997
21
-0.3864424791667034
31
0.0
0
LINE
8
shape
62
0
5
161
100
AcDbEntity
100
AcDbLine
10
12.377539062499997
20
-0.3864424791667034
30
0.0
11
12.953228665169267
21
-0.7664853076172182
31
0.0
0
LINE
8
shape
62
0
5
162
100
AcDbEntity
100
AcDbLine
10
12.953228665169267
20
-0.7664853076172182
30
0.0
11
13.724356533854163
21
-0.8967208723958606
31
0.0
0
LINE
8
shape
62
0
5
163
100
AcDbEntity
100
AcDbLine
10
13.724356533854163
20
-0.8967208723958606
30
0.0
11
14.458858495507808
21
-0.8057943707682522
31
0.0
0
LINE
8
shape
62
0
5
164
100
AcDbEntity
100
AcDbLine
10
14.458858495507808
20
-0.8057943707682522
30
0.0
11
14.92467037708333
21
-0.5223510000000147
31
0.0
0
LINE
8
shape
62
0
5
165
100
AcDbEntity
100
AcDbLine
10
14.92467037708333
20
-0.5223510000000147
30
0.0
11
15.435750391666664
21
0.7556076666666343
31
0.0
0
LINE
8
shape
62
0
5
166
100
AcDbEntity
100
AcDbLine
10
15.435750391666664
20
0.7556076666666343
30
0.0
11
15.675423601041663
21
1.3873565989583128
31
0.0
0
LINE
8
shape
62
0
5
167
100
AcDbEntity
100
AcDbLine
10
15.675423601041663
20
1.3873565989583128
30
0.0
11
16.081705729166664
21
1.8144569374999833
31
0.0
0
LINE
8
shape
62
0
5
168
100
AcDbEntity
100
AcDbLine
10
16.081705729166664
20
1.8144569374999833
30
0.0
11
16.69717207083333
21
2.025298104166666
31
0.0
0
LINE
8
shape
62
0
5
169
100
AcDbEntity
100
AcDbLine
10
16.69717207083333
20
2.025298104166666
30
0.0
11
17.506790249544267
21
2.377710867187486
31
0.0
0
LINE
8
shape
62
0
5
16a
100
AcDbEntity
100
AcDbLine
10
17.506790249544267
20
2.377710867187486
30
0.0
11
18.148483422395827
21
2.905230833333313
31
0.0
0
LINE
8
shape
62
0
5
16b
100
AcDbEntity
100
AcDbLine
10
18.148483422395827
20
2.905230833333313
30
0.0
11
18.60156820071614
21
3.5837041901041493
31
0.0
0
LINE
8
shape
62
0
5
16c
100
AcDbEntity
100
AcDbLine
10
18.60156820071614
20
3.5837041901041493
30
0.0
11
18.84536119583333
21
4.388977124999997
31
0.0
0
LINE
8
shape
62
0
5
16d
100
AcDbEntity
100
AcDbLine
10
18.84536119583333
20
4.388977124999997
30
0.0
11
18.80723526666666
21
5.173789830729149
31
0.0
0
LINE
8
shape
62
0
5
16e
100
AcDbEntity
100
AcDbLine
10
18.80723526666666
20
5.173789830729149
30
0.0
11
18.813322006249997
21
5.874157458333315
31
0.0
0
LINE
8
shape
62
0
5
16f
100
AcDbEntity
100
AcDbLine
10
18.813322006249997
20
5.874157458333315
30
0.0
11
18.992260541406246
21
6.066334916666651
31
0.0
0
LINE
8
shape
62
0
5
170
100
AcDbEntity
100
AcDbLine
10
18.992260541406246
20
6.066334916666651
30
0.0
11
19.260839843749995
21
6.169231374999981
31
0.0
0
LINE
8
shape
62
0
5
171
100
AcDbEntity
100
AcDbLine
10
19.260839843749995
20
6.169231374999981
30
0.0
11
19.763651629166663
21
6.3051398958332925
31
0.0
0
LINE
8
shape
62
0
5
172
100
AcDbEntity
100
AcDbLine
10
19.763651629166663
20
6.3051398958332925
30
0.0
11
20.39462070208333
21
6.473086812499986
31
0.0
0
LINE
8
shape
62
0
5
173
100
AcDbEntity
100
AcDbLine
10
20.39462070208333
20
6.473086812499986
30
0.0
11
20.882613902604163
21
6.9200643046874895
31
0.0
0
LINE
8
shape
62
0
5
174
100
AcDbEntity
100
AcDbLine
10
20.882613902604163
20
6.9200643046874895
30
0.0
11
21.257100456249997
21
7.454939687500001
31
0.0
0
LINE
8
shape
62
0
5
175
100
AcDbEntity
100
AcDbLine
10
21.257100456249997
20
7.454939687500001
30
0.0
11
21.758734283593746
21
8.625911106770825
31
0.0
0
LINE
8
shape
62
0
5
176
100
AcDbEntity
100
AcDbLine
10
21.758734283593746
20
8.625911106770825
30
0.0
11
21.727872787499997
21
9.651187729166622
31
0.0
0
LINE
8
shape
62
0
5
177
100
AcDbEntity
100
AcDbLine
10
21.727872787499997
20
9.651187729166622
30
0.0
11
21.360970052083328
21
10.273889895833292
31
0.0
0
LINE
8
shape
62
0
5
178
100
AcDbEntity
100
AcDbLine
10
21.360970052083328
20
10.273889895833292
30
0.0
11
20.97726713489583
21
10.539579518229136
31
0.0
0
LINE
8
shape
62
0
5
179
100
AcDbEntity
100
AcDbLine
10
20.97726713489583
20
10.539579518229136
30
0.0
11
20.466451108333327
21
10.665078999999963
31
0.0
0
LINE
8
shape
62
0
5
17a
100
AcDbEntity
100
AcDbLine
10
20.466451108333327
20
10.665078999999963
30
0.0
11
19.580200129166663
21
10.641308833333312
31
0.0
0
LINE
8
shape
62
0
5
17b
100
AcDbEntity
100
AcDbLine
10
19.580200129166663
20
10.641308833333312
30
0.0
11
18.66424590052083
21
10.61377761458332
31
0.0
0
LINE
8
shape
62
0
5
17c
100
AcDbEntity
100
AcDbLine
10
18.66424590052083
20
10.61377761458332
30
0.0
11
18.095019531249996
21
10.745178958333298
31
0.0
0
LINE
8
shape
62
0
5
17d
100
AcDbEntity
100
AcDbLine
10
18.095019531249996
20
10.745178958333298
30
0.0
11
17.66352142083333
21
11.056270749999982
31
0.0
0
LINE
8
shape
62
0
5
17e
100
AcDbEntity
100
AcDbLine
10
17.66352142083333
20
11.056270749999982
30
0.0
11
17.59169101458333
21
11.34410831249997
31
0.0
0
LINE
8
shape
62
0
5
17f
100
AcDbEntity
100
AcDbLine
10
17.59169101458333
20
11.34410831249997
30
0.0
11
17.607710741666665
21
11.679488854166635
31
0.0
0
LINE
8
shape
62
0
5
180
100
AcDbEntity
100
AcDbLine
10
17.607710741666665
20
11.679488854166635
30
0.0
11
17.781012370247396
21
12.299622991536445
31
0.0
0
LINE
8
shape
62
0
5
181
100
AcDbEntity
100
AcDbLine
10
17.781012370247396
20
12.299622991536445
30
0.0
11
18.13409901875
21
12.841882812499989
31
0.0
0
LINE
8
shape
62
0
5
182
100
AcDbEntity
100
AcDbLine
10
18.13409901875
20
12.841882812499989
30
0.0
11
18.675126815690103
21
13.31596347721353
31
0.0
0
LINE
8
shape
62
0
5
183
100
AcDbEntity
100
AcDbLine
10
18.675126815690103
20
13.31596347721353
30
0.0
11
19.41225188958333
21
13.731560145833328
31
0.0
0
LINE
8
shape
62
0
5
184
100
AcDbEntity
100
AcDbLine
10
19.41225188958333
20
13.731560145833328
30
0.0
11
21.01732181041666
21
14.282430583333309
31
0.0
0
LINE
8
shape
62
0
5
185
100
AcDbEntity
100
AcDbLine
10
21.01732181041666
20
14.282430583333309
30
0.0
11
21.821796960416663
21
14.299529281249992
31
0.0
0
LINE
8
shape
62
0
5
186
100
AcDbEntity
100
AcDbLine
10
21.821796960416663
20
14.299529281249992
30
0.0
11
22.65494791666666
21
14.234371666666647
31
0.0
0
LINE
8
shape
62
0
5
187
100
AcDbEntity
100
AcDbLine
10
22.65494791666666
20
14.234371666666647
30
0.0
11
23.48487148541666
21
14.56199991666665
31
0.0
0
LINE
8
shape
62
0
5
188
100
AcDbEntity
100
AcDbLine
10
23.48487148541666
20
14.56199991666665
30
0.0
11
24.419181381249995
21
15.08910018749998
31
0.0
0
LINE
8
shape
62
0
5
189
100
AcDbEntity
100
AcDbLine
10
24.419181381249995
20
15.08910018749998
30
0.0
11
25.44931436458333
21
15.866087510416648
31
0.0
0
LINE
8
shape
62
0
5
18a
100
AcDbEntity
100
AcDbLine
10
25.44931436458333
20
15.866087510416648
30
0.0
11
26.06404225416666
21
16.6941685208333
31
0.0
0
LINE
8
shape
62
0
5
18b
100
AcDbEntity
100
AcDbLine
10
26.06404225416666
20
16.6941685208333
30
0.0
11
26.31157213333333
21
17.827950437499965
31
0.0
0
LINE
8
shape
62
0
5
18c
100
AcDbEntity
100
AcDbLine
10
26.31157213333333
20
17.827950437499965
30
0.0
11
26.239741991666662
21
18.267201104166645
31
0.0
0
LINE
8
shape
62
0
5
18d
100
AcDbEntity
100
AcDbLine
10
26.239741991666662
20
18.267201104166645
30
0.0
11
25.97619212083333
21
18.802051020833318
31
0.0
0
LINE
8
shape
62
0
5
18e
100
AcDbEntity
100
AcDbLine
10
25.97619212083333
20
18.802051020833318
30
0.0
11
25.665100064583328
21
19.568929937500002
31
0.0
0
LINE
8
shape
62
0
5
18f
100
AcDbEntity
100
AcDbLine
10
25.665100064583328
20
19.568929937500002
30
0.0
11
25.64081210833333
21
19.69657022916664
31
0.0
0
LINE
8
shape
62
0
5
190
100
AcDbEntity
100
AcDbLine
10
25.64081210833333
20
19.69657022916664
30
0.0
11
25.71264251458333
21
19.776151604166643
31
0.0
0
LINE
8
shape
62
0
5
191
100
AcDbEntity
100
AcDbLine
10
25.71264251458333
20
19.776151604166643
30
0.0
11
26.32381103072916
21
20.58402010156248
31
0.0
0
LINE
8
shape
62
0
5
192
100
AcDbEntity
100
AcDbLine
10
26.32381103072916
20
20.58402010156248
30
0.0
11
26.718783874999996
21
21.437031145833316
31
0.0
0
LINE
8
shape
62
0
5
193
100
AcDbEntity
100
AcDbLine
10
26.718783874999996
20
21.437031145833316
30
0.0
11
26.86244204166666
21
22.299511958333312
31
0.0
0
LINE
8
shape
62
0
5
194
100
AcDbEntity
100
AcDbLine
10
26.86244204166666
20
22.299511958333312
30
0.0
11
26.788349778645827
21
22.874516695312465
31
0.0
0
LINE
8
shape
62
0
5
195
100
AcDbEntity
100
AcDbLine
10
26.788349778645827
20
22.874516695312465
30
0.0
11
26.551350249999995
21
23.377482666666623
31
0.0
0
LINE
8
shape
62
0
5
196
100
AcDbEntity
100
AcDbLine
10
26.551350249999995
20
23.377482666666623
30
0.0
11
26.39942226666666
21
23.561450104166653
31
0.0
0
LINE
8
shape
62
0
5
197
100
AcDbEntity
100
AcDbLine
10
26.39942226666666
20
23.561450104166653
30
0.0
11
25.352912567187495
21
24.104787854166645
31
0.0
0
LINE
8
shape
62
0
5
198
100
AcDbEntity
100
AcDbLine
10
25.352912567187495
20
24.104787854166645
30
0.0
11
24.16338300833333
21
24.320060791666634
31
0.0
0
LINE
8
shape
62
0
5
199
100
AcDbEntity
100
AcDbLine
10
24.16338300833333
20
24.320060791666634
30
0.0
11
23.037870379166662
21
23.80898104166664
31
0.0
0
LINE
8
shape
62
0
5
19a
100
AcDbEntity
100
AcDbLine
10
23.037870379166662
20
23.80898104166664
30
0.0
11
22.23120130416666
21
23.34596020833331
31
0.0
0
LINE
8
shape
62
0
5
19b
100
AcDbEntity
100
AcDbLine
10
22.23120130416666
20
23.34596020833331
30
0.0
11
20.696378225260414
21
22.871733278645806
31
0.0
0
LINE
8
shape
62
0
5
19c
100
AcDbEntity
100
AcDbLine
10
20.696378225260414
20
22.871733278645806
30
0.0
11
20.071710977506505
21
22.858179377278624
31
0.0
0
LINE
8
shape
62
0
5
19d
100
AcDbEntity
100
AcDbLine
10
20.071710977506505
20
22.858179377278624
30
0.0
11
19.555912172916663
21
22.994559145833307
31
0.0
0
LINE
8
shape
62
0
5
19e
100
AcDbEntity
100
AcDbLine
10
19.555912172916663
20
22.994559145833307
30
0.0
11
19.09341422239583
21
23.36126172395832
31
0.0
0
LINE
8
shape
62
0
5
19f
100
AcDbEntity
100
AcDbLine
10
19.09341422239583
20
23.36126172395832
30
0.0
11
18.813322006249997
21
23.936621333333306
31
0.0
0
LINE
8
shape
62
0
5
1a0
100
AcDbEntity
100
AcDbLine
10
18.813322006249997
20
23.936621333333306
30
0.0
11
18.86964915208333
21
24.320060791666634
31
0.0
0
LINE
8
shape
62
0
5
1a1
100
AcDbEntity
100
AcDbLine
10
18.86964915208333
20
24.320060791666634
30
0.0
11
19.069120379166662
21
24.799102145833302
31
0.0
0
LINE
8
shape
62
0
5
1a2
100
AcDbEntity
100
AcDbLine
10
19.069120379166662
20
24.799102145833302
30
0.0
11
19.500236828124997
21
25.41920246614582
31
0.0
0
LINE
8
shape
62
0
5
1a3
100
AcDbEntity
100
AcDbLine
10
19.500236828124997
20
25.41920246614582
30
0.0
11
20.10729987083333
21
25.94114964583332
31
0.0
0
LINE
8
shape
62
0
5
1a4
100
AcDbEntity
100
AcDbLine
10
20.10729987083333
20
25.94114964583332
30
0.0
11
21.728389518749996
21
26.78760993749998
31
0.0
0
LINE
8
shape
62
0
5
1a5
100
AcDbEntity
100
AcDbLine
10
21.728389518749996
20
26.78760993749998
30
0.0
11
23.788544261197913
21
27.796910356770805
31
0.0
0
LINE
8
shape
62
0
5
1a6
100
AcDbEntity
100
AcDbLine
10
23.788544261197913
20
27.796910356770805
30
0.0
11
25.01811126458333
21
28.57613241666664
31
0.0
0
LINE
8
shape
62
0
5
1a7
100
AcDbEntity
100
AcDbLine
10
25.01811126458333
20
28.57613241666664
30
0.0
11
25.725953867447913
21
29.237324843749978
31
0.0
0
LINE
8
shape
62
0
5
1a8
100
AcDbEntity
100
AcDbLine
10
25.725953867447913
20
29.237324843749978
30
0.0
11
26.266097137499994
21
29.97397908333332
31
0.0
0
LINE
8
shape
62
0
5
1a9
100
AcDbEntity
100
AcDbLine
10
26.266097137499994
20
29.97397908333332
30
0.0
11
26.58339129166666
21
31.39507997916664
31
0.0
0
LINE
8
shape
62
0
5
1aa
100
AcDbEntity
100
AcDbLine
10
26.58339129166666
20
31.39507997916664
30
0.0
11
26.68674283333333
21
32.34489445833333
31
0.0
0
LINE
8
shape
62
0
5
1ab
100
AcDbEntity
100
AcDbLine
10
26.68674283333333
20
32.34489445833333
30
0.0
11
26.66297266666666
21
32.64048166666663
31
0.0
0
LINE
8
shape
62
0
5
1ac
100
AcDbEntity
100
AcDbLine
10
26.66297266666666
20
32.64048166666663
30
0.0
11
26.452950980729163
21
33.277763367187475
31
0.0
0
LINE
8
shape
62
0
5
1ad
100
AcDbEntity
100
AcDbLine
10
26.452950980729163
20
33.277763367187475
30
0.0
11
26.04027102916666
21
33.81457020833332
31
0.0
0
LINE
8
shape
62
0
5
1ae
100
AcDbEntity
100
AcDbLine
10
26.04027102916666
20
33.81457020833332
30
0.0
11
25.720910743749993
21
34.101891833333326
31
0.0
0
LINE
8
shape
62
0
5
1af
100
AcDbEntity
100
AcDbLine
10
25.720910743749993
20
34.101891833333326
30
0.0
11
25.201562499999994
21
34.60470335416662
31
0.0
0
LINE
8
shape
62
0
5
1b0
100
AcDbEntity
100
AcDbLine
10
25.201562499999994
20
34.60470335416662
30
0.0
11
24.98607181041666
21
35.33179158333331
31
0.0
0
LINE
8
shape
62
0
5
1b1
100
AcDbEntity
100
AcDbLine
10
24.98607181041666
20
35.33179158333331
30
0.0
11
25.138000587499995
21
35.85837327083331
31
0.0
0
LINE
8
shape
62
0
5
1b2
100
AcDbEntity
100
AcDbLine
10
25.138000587499995
20
35.85837327083331
30
0.0
11
25.281660870833328
21
36.37772124999998
31
0.0
0
LINE
8
shape
62
0
5
1b3
100
AcDbEntity
100
AcDbLine
10
25.281660870833328
20
36.37772124999998
30
0.0
11
25.23721781614583
21
37.66496348437498
31
0.0
0
LINE
8
shape
62
0
5
1b4
100
AcDbEntity
100
AcDbLine
10
25.23721781614583
20
37.66496348437498
30
0.0
11
25.01284602317708
21
38.218364992187475
31
0.0
0
LINE
8
shape
62
0
5
1b5
100
AcDbEntity
100
AcDbLine
10
25.01284602317708
20
38.218364992187475
30
0.0
11
24.658960027083328
21
38.693343999999996
31
0.0
0
LINE
8
shape
62
0
5
1b6
100
AcDbEntity
100
AcDbLine
10
24.658960027083328
20
38.693343999999996
30
0.0
11
23.95616054791666
21
39.21217604166665
31
0.0
0
LINE
8
shape
62
0
5
1b7
100
AcDbEntity
100
AcDbLine
10
23.95616054791666
20
39.21217604166665
30
0.0
11
23.234449908854163
21
39.43598443749998
31
0.0
0
LINE
8
shape
62
0
5
1b8
100
AcDbEntity
100
AcDbLine
10
23.234449908854163
20
39.43598443749998
30
0.0
11
22.494750910416663
21
39.38012295833332
31
0.0
0
LINE
8
shape
62
0
5
1b9
100
AcDbEntity
100
AcDbLine
10
22.494750910416663
20
39.38012295833332
30
0.0
11
21.79536164583333
21
39.09466796874997
31
0.0
0
LINE
8
shape
62
0
5
1ba
100
AcDbEntity
100
AcDbLine
10
21.79536164583333
20
39.09466796874997
30
0.0
11
21.033341537499997
21
38.57345335416662
31
0.0
0
LINE
8
shape
62
0
5
1bb
100
AcDbEntity
100
AcDbLine
10
21.033341537499997
20
38.57345335416662
30
0.0
11
19.87578945416666
21
37.51925545833333
31
0.0
0
LINE
8
shape
62
0
5
1bc
100
AcDbEntity
100
AcDbLine
10
19.87578945416666
20
37.51925545833333
30
0.0
11
18.957499285416663
21
36.72085408333331
31
0.0
0
LINE
8
shape
62
0
5
1bd
100
AcDbEntity
100
AcDbLine
10
18.957499285416663
20
36.72085408333331
30
0.0
11
18.40474475
21
36.404882052083316
31
0.0
0
LINE
8
shape
62
0
5
1be
100
AcDbEntity
100
AcDbLine
10
18.40474475
20
36.404882052083316
30
0.0
11
17.92707102708333
21
36.32966233333332
31
0.0
0
LINE
8
shape
62
0
5
1bf
100
AcDbEntity
100
AcDbLine
10
17.92707102708333
20
36.32966233333332
30
0.0
11
17.206624897916665
21
36.6466900520833
31
0.0
0
LINE
8
shape
62
0
5
1c0
100
AcDbEntity
100
AcDbLine
10
17.206624897916665
20
36.6466900520833
30
0.0
11
16.745230987499998
21
37.33580395833329
31
0.0
0
LINE
8
shape
62
0
5
1c1
100
AcDbEntity
100
AcDbLine
10
16.745230987499998
20
37.33580395833329
30
0.0
11
16.656939165364577
21
37.947331117187474
31
0.0
0
LINE
8
shape
62
0
5
1c2
100
AcDbEntity
100
AcDbLine
10
16.656939165364577
20
37.947331117187474
30
0.0
11
16.777270441666662
21
38.59774210416663
31
0.0
0
LINE
8
shape
62
0
5
1c3
100
AcDbEntity
100
AcDbLine
10
16.777270441666662
20
38.59774210416663
30
0.0
11
17.55190032708333
21
39.995072833333296
31
0.0
0
LINE
8
shape
62
0
5
1c4
100
AcDbEntity
100
AcDbLine
10
17.55190032708333
20
39.995072833333296
30
0.0
11
18.014921160416662
21
40.73766299999997
31
0.0
0
LINE
8
shape
62
0
5
1c5
100
AcDbEntity
100
AcDbLine
10
18.014921160416662
20
40.73766299999997
30
0.0
11
18.346939244791663
21
41.59424624999998
31
0.0
0
LINE
8
shape
62
0
5
1c6
100
AcDbEntity
100
AcDbLine
10
18.346939244791663
20
41.59424624999998
30
0.0
11
18.350301172916662
21
42.41456306249998
31
0.0
0
LINE
8
shape
62
0
5
1c7
100
AcDbEntity
100
AcDbLine
10
18.350301172916662
20
42.41456306249998
30
0.0
11
17.92528866145833
21
43.5107781145833
31
0.0
0
LINE
8
shape
62
0
5
1c8
100
AcDbEntity
100
AcDbLine
10
17.92528866145833
20
43.5107781145833
30
0.0
11
17.088879493749996
21
44.57050447916663
31
0.0
0
LINE
8
shape
62
0
5
1c9
100
AcDbEntity
100
AcDbLine
10
17.088879493749996
20
44.57050447916663
30
0.0
11
16.23291057317708
21
45.248057085937475
31
0.0
0
LINE
8
shape
62
0
5
1ca
100
AcDbEntity
100
AcDbLine
10
16.23291057317708
20
45.248057085937475
30
0.0
11
15.459521616666663
21
45.56062558333332
31
0.0
0
LINE
8
shape
62
0
5
1cb
100
AcDbEntity
100
AcDbLine
10
15.459521616666663
20
45.56062558333332
30
0.0
11
14.597907215364582
21
45.55523172135415
31
0.0
0
LINE
8
shape
62
0
5
1cc
100
AcDbEntity
100
AcDbLine
10
14.597907215364582
20
45.55523172135415
30
0.0
11
13.838948699999998
21
45.21749274999999
31
0.0
0
LINE
8
shape
62
0
5
1cd
100
AcDbEntity
100
AcDbLine
10
13.838948699999998
20
45.21749274999999
30
0.0
11
13.431738281249997
21
44.929655187499975
31
0.0
0
LINE
8
shape
62
0
5
1ce
100
AcDbEntity
100
AcDbLine
10
13.431738281249997
20
44.929655187499975
30
0.0
11
12.949291011979163
21
44.540239453124975
31
0.0
0
LINE
8
shape
62
0
5
1cf
100
AcDbEntity
100
AcDbLine
10
12.949291011979163
20
44.540239453124975
30
0.0
11
12.70812261738281
21
44.40745227148436
31
0.0
0
LINE
8
shape
62
0
5
1d0
100
AcDbEntity
100
AcDbLine
10
12.70812261738281
20
44.40745227148436
30
0.0
11
12.481408658333331
21
44.41857543749998
31
0.0
0
LINE
8
shape
62
0
5
1d1
100
AcDbEntity
100
AcDbLine
10
12.481408658333331
20
44.41857543749998
30
0.0
11
11.547098762499997
21
45.1694338333333
31
0.0
0
LINE
8
shape
62
0
5
1d2
100
AcDbEntity
100
AcDbLine
10
11.547098762499997
20
45.1694338333333
30
0.0
11
11.047929098958331
21
45.62443117708331
31
0.0
0
LINE
8
shape
62
0
5
1d3
100
AcDbEntity
100
AcDbLine
10
11.047929098958331
20
45.62443117708331
30
0.0
11
10.588500910416665
21
45.86396508333331
31
0.0
0
LINE
8
shape
62
0
5
1d4
100
AcDbEntity
100
AcDbLine
10
10.588500910416665
20
45.86396508333331
30
0.0
11
10.061401433333332
21
45.95233062499997
31
0.0
0
LINE
8
shape
62
0
5
1d5
100
AcDbEntity
100
AcDbLine
10
10.061401433333332
20
45.95233062499997
30
0.0
11
10.061401433333332
21
45.95233062499997
31
0.0
0
ENDSEC
0
SECTION
2
OBJECTS
0
DICTIONARY
5
C
330
0
100
AcDbDictionary
3
ACAD_GROUP
350
D
3
ACAD_MLINESTYLE
350
17
0
DICTIONARY
5
D
330
C
100
AcDbDictionary
0
DICTIONARY
5
1A
330
C
100
AcDbDictionary
0
DICTIONARY
5
17
330
C
100
AcDbDictionary
3
STANDARD
350
18
0
DICTIONARY
5
19
330
C
100
AcDbDictionary
0
ENDSEC
0
EOF
