0
SECTION
2
HEADER
9
$ACADVER
1
AC1014
9
$HANDSEED
5
FFFF
0
ENDSEC
0
SECTION
2
TABLES
0
TABLE
2
VPORT
5
8
330
0
100
AcDbSymbolTable
70
4
0
VPORT
5
2E
330
8
100
AcDbSymbolTableRecord
100
AcDbViewportTableRecord
2
*ACTIVE
70
0
10
0.0
20
0.0
11
1.0
21
1.0
12
4.25
22
5.5
13
0.0
23
0.0
14
10.0
24
10.0
15
10.0
25
10.0
16
0.0
26
0.0
36
1.0
17
0.0
27
0.0
37
0.0
40
11
41
1.24
42
50.0
43
0.0
44
0.0
50
0.0
51
0.0
71
0
72
100
73
1
74
3
75
0
76
0
77
0
78
0
0
ENDTAB
0
TABLE
2
LTYPE
5
5
330
0
100
AcDbSymbolTable
70
1
0
LTYPE
5
14
330
5
100
AcDbSymbolTableRecord
100
AcDbLinetypeTableRecord
2
BYBLOCK
70
0
3

72
65
73
0
40
0.0
0
LTYPE
5
15
330
5
100
AcDbSymbolTableRecord
100
AcDbLinetypeTableRecord
2
BYLAYER
70
0
3

72
65
73
0
40
0.0
0
LTYPE
5
16
330
5
100
AcDbSymbolTableRecord
100
AcDbLinetypeTableRecord
2
CONTINUOUS
70
0
3
Solid line
72
65
73
0
40
0.0
0
ENDTAB
0
TABLE
2
LAYER
5
2
330
0
100
AcDbSymbolTable
70
1
0
LAYER
5
10
330
2
100
AcDbSymbolTableRecord
100
AcDbLayerTableRecord
2
0
70
0
62
7
6
CONTINUOUS
0
ENDTAB
0
TABLE
2
STYLE
5
3
330
0
100
AcDbSymbolTable
70
1
0
STYLE
5
11
330
3
100
AcDbSymbolTableRecord
100
AcDbTextStyleTableRecord
2
STANDARD
70
0
40
0.0
41
1.0
50
0.0
71
0
42
2.5
3
txt
4

0
ENDTAB
0
TABLE
2
VIEW
5
6
330
0
100
AcDbSymbolTable
70
0
0
ENDTAB
0
TABLE
2
UCS
5
7
330
0
100
AcDbSymbolTable
70
0
0
ENDTAB
0
TABLE
2
APPID
5
9
330
0
100
AcDbSymbolTable
70
2
0
APPID
5
12
330
9
100
AcDbSymbolTableRecord
100
AcDbRegAppTableRecord
2
ACAD
70
0
0
ENDTAB
0
TABLE
2
DIMSTYLE
5
A
330
0
100
AcDbSymbolTable
70
1
0
DIMSTYLE
105
27
330
A
100
AcDbSymbolTableRecord
100
AcDbDimStyleTableRecord
2
ISO-25
70
0
3

4

5

6

7

40
1.0
41
2.5
42
0.625
43
3.75
44
1.25
45
0.0
46
0.0
47
0.0
48
0.0
140
2.5
141
2.5
142
0.0
143
0.03937007874016
144
1.0
145
0.0
146
1.0
147
0.625
71
0
72
0
73
0
74
0
75
0
76
0
77
1
78
8
170
0
171
3
172
1
173
0
174
0
175
0
176
0
177
0
178
0
270
2
271
2
272
2
273
2
274
3
340
11
275
0
280
0
281
0
282
0
283
0
284
8
285
0
286
0
287
3
288
0
0
ENDTAB
0
TABLE
2
BLOCK_RECORD
5
1
330
0
100
AcDbSymbolTable
70
1
0
BLOCK_RECORD
5
1F
330
1
100
AcDbSymbolTableRecord
100
AcDbBlockTableRecord
2
*MODEL_SPACE
0
BLOCK_RECORD
5
1B
330
1
100
AcDbSymbolTableRecord
100
AcDbBlockTableRecord
2
*PAPER_SPACE
0
ENDTAB
0
ENDSEC
0
SECTION
2
BLOCKS
0
BLOCK
5
20
330
1F
100
AcDbEntity
8
0
100
AcDbBlockBegin
2
*MODEL_SPACE
70
0
10
0.0
20
0.0
30
0.0
3
*MODEL_SPACE
1

0
ENDBLK
5
21
330
1F
100
AcDbEntity
8
0
100
AcDbBlockEnd
0
BLOCK
5
1C
330
1B
100
AcDbEntity
67
1
8
0
100
AcDbBlockBegin
2
*PAPER_SPACE
1

0
ENDBLK
5
1D
330
1B
100
AcDbEntity
67
1
8
0
100
AcDbBlockEnd
0
ENDSEC
0
SECTION
2
ENTITIES
0
LINE
8
shape
62
0
5
100
100
AcDbEntity
100
AcDbLine
10
2.2908002571582076
20
2.4269964534226673
30
0.0
11
2.82900631497527
21
1.6966002287553295
31
0.0
0
LINE
8
shape
62
0
5
101
100
AcDbEntity
100
AcDbLine
10
2.82900631497527
20
1.6966002287553295
30
0.0
11
3.5309794370004157
21
1.048854342469994
31
0.0
0
LINE
8
shape
62
0
5
102
100
AcDbEntity
100
AcDbLine
10
3.5309794370004157
20
1.048854342469994
30
0.0
11
4.042206107241457
21
0.7647153903866624
31
0.0
0
LINE
8
shape
62
0
5
103
100
AcDbEntity
100
AcDbLine
10
4.042206107241457
20
0.7647153903866624
30
0.0
11
4.7614140401979155
21
0.41229216533866264
31
0.0
0
LINE
8
shape
62
0
5
104
100
AcDbEntity
100
AcDbLine
10
4.7614140401979155
20
0.41229216533866264
30
0.0
11
4.861114149003103
21
0.40001736260866494
31
0.0
0
LINE
8
shape
62
0
5
105
100
AcDbEntity
100
AcDbLine
10
4.861114149003103
20
0.40001736260866494
30
0.0
11
5.53072655008127
21
0.29463590806000184
31
0.0
0
LINE
8
shape
62
0
5
106
100
AcDbEntity
100
AcDbLine
10
5.53072655008127
20
0.29463590806000184
30
0.0
11
5.806047200654895
21
0.3094565958006683
31
0.0
0
LINE
8
shape
62
0
5
107
100
AcDbEntity
100
AcDbLine
10
5.806047200654895
20
0.3094565958006683
30
0.0
11
6.938672433799165
21
0.28666865184358414
31
0.0
0
LINE
8
shape
62
0
5
108
100
AcDbEntity
100
AcDbLine
10
6.938672433799165
20
0.28666865184358414
30
0.0
11
8.050572261393123
21
0.564408794725999
31
0.0
0
LINE
8
shape
62
0
5
109
100
AcDbEntity
100
AcDbLine
10
8.050572261393123
20
0.564408794725999
30
0.0
11
8.452972372314717
21
0.9621692309684153
31
0.0
0
LINE
8
shape
62
0
5
10a
100
AcDbEntity
100
AcDbLine
10
8.452972372314717
20
0.9621692309684153
30
0.0
11
8.51940275115756
21
1.5964923931573338
31
0.0
0
LINE
8
shape
62
0
5
10b
100
AcDbEntity
100
AcDbLine
10
8.51940275115756
20
1.5964923931573338
30
0.0
11
8.202040433623324
21
2.101930126681248
31
0.0
0
LINE
8
shape
62
0
5
10c
100
AcDbEntity
100
AcDbLine
10
8.202040433623324
20
2.101930126681248
30
0.0
11
7.6939498444852905
21
2.1825914923986645
31
0.0
0
LINE
8
shape
62
0
5
10d
100
AcDbEntity
100
AcDbLine
10
7.6939498444852905
20
2.1825914923986645
30
0.0
11
7.266061120772874
21
2.0374760467906654
31
0.0
0
LINE
8
shape
62
0
5
10e
100
AcDbEntity
100
AcDbLine
10
7.266061120772874
20
2.0374760467906654
30
0.0
11
7.23668194939629
21
2.030111165152661
31
0.0
0
LINE
8
shape
62
0
5
10f
100
AcDbEntity
100
AcDbLine
10
7.23668194939629
20
2.030111165152661
30
0.0
11
6.127036464160437
21
2.0452955507519945
31
0.0
0
LINE
8
shape
62
0
5
110
100
AcDbEntity
100
AcDbLine
10
6.127036464160437
20
2.0452955507519945
30
0.0
11
5.480840135318062
21
2.255603837525996
31
0.0
0
LINE
8
shape
62
0
5
111
100
AcDbEntity
100
AcDbLine
10
5.480840135318062
20
2.255603837525996
30
0.0
11
5.131635231975603
21
2.389535573979998
31
0.0
0
LINE
8
shape
62
0
5
112
100
AcDbEntity
100
AcDbLine
10
5.131635231975603
20
2.389535573979998
30
0.0
11
4.353378073381062
21
2.86543422204533
31
0.0
0
LINE
8
shape
62
0
5
113
100
AcDbEntity
100
AcDbLine
10
4.353378073381062
20
2.86543422204533
30
0.0
11
3.795919204618578
21
3.4256198488566625
31
0.0
0
LINE
8
shape
62
0
5
114
100
AcDbEntity
100
AcDbLine
10
3.795919204618578
20
3.4256198488566625
30
0.0
11
3.3214710391391877
21
4.084822217689997
31
0.0
0
LINE
8
shape
62
0
5
115
100
AcDbEntity
100
AcDbLine
10
3.3214710391391877
20
4.084822217689997
30
0.0
11
2.985574027781667
21
4.864590426671327
31
0.0
0
LINE
8
shape
62
0
5
116
100
AcDbEntity
100
AcDbLine
10
2.985574027781667
20
4.864590426671327
30
0.0
11
2.7066900618678127
21
5.605352040310663
31
0.0
0
LINE
8
shape
62
0
5
117
100
AcDbEntity
100
AcDbLine
10
2.7066900618678127
20
5.605352040310663
30
0.0
11
2.586846313282146
21
6.210818050525994
31
0.0
0
LINE
8
shape
62
0
5
118
100
AcDbEntity
100
AcDbLine
10
2.586846313282146
20
6.210818050525994
30
0.0
11
2.406135321027667
21
7.235082144995992
31
0.0
0
LINE
8
shape
62
0
5
119
100
AcDbEntity
100
AcDbLine
10
2.406135321027667
20
7.235082144995992
30
0.0
11
2.3937000776974795
21
7.422477466673989
31
0.0
0
LINE
8
shape
62
0
5
11a
100
AcDbEntity
100
AcDbLine
10
2.3937000776974795
20
7.422477466673989
30
0.0
11
2.3915911767818336
21
8.93227820246399
31
0.0
0
LINE
8
shape
62
0
5
11b
100
AcDbEntity
100
AcDbLine
10
2.3915911767818336
20
8.93227820246399
30
0.0
11
2.503726528917209
21
9.989911575466657
31
0.0
0
LINE
8
shape
62
0
5
11c
100
AcDbEntity
100
AcDbLine
10
2.503726528917209
20
9.989911575466657
30
0.0
11
2.7052356474432298
21
10.760496413516663
31
0.0
0
LINE
8
shape
62
0
5
11d
100
AcDbEntity
100
AcDbLine
10
2.7052356474432298
20
10.760496413516663
30
0.0
11
3.056767613865021
21
11.522807125281993
31
0.0
0
LINE
8
shape
62
0
5
11e
100
AcDbEntity
100
AcDbLine
10
3.056767613865021
20
11.522807125281993
30
0.0
11
3.439778562488888
21
12.214560452465992
31
0.0
0
LINE
8
shape
62
0
5
11f
100
AcDbEntity
100
AcDbLine
10
3.439778562488888
20
12.214560452465992
30
0.0
11
3.9115269711926457
21
12.808660904597993
31
0.0
0
LINE
8
shape
62
0
5
120
100
AcDbEntity
100
AcDbLine
10
3.9115269711926457
20
12.808660904597993
30
0.0
11
4.558595948689771
21
13.37175611427866
31
0.0
0
LINE
8
shape
62
0
5
121
100
AcDbEntity
100
AcDbLine
10
4.558595948689771
20
13.37175611427866
30
0.0
11
5.115491231862729
21
13.837289373371995
31
0.0
0
LINE
8
shape
62
0
5
122
100
AcDbEntity
100
AcDbLine
10
5.115491231862729
20
13.837289373371995
30
0.0
11
5.611301109203187
21
14.121519249919992
31
0.0
0
LINE
8
shape
62
0
5
123
100
AcDbEntity
100
AcDbLine
10
5.611301109203187
20
14.121519249919992
30
0.0
11
6.135253905659332
21
14.44684698449732
31
0.0
0
LINE
8
shape
62
0
5
124
100
AcDbEntity
100
AcDbLine
10
6.135253905659332
20
14.44684698449732
30
0.0
11
6.473477980096186
21
14.614147999483986
31
0.0
0
LINE
8
shape
62
0
5
125
100
AcDbEntity
100
AcDbLine
10
6.473477980096186
20
14.614147999483986
30
0.0
11
6.953216578044998
21
14.850824381011321
31
0.0
0
LINE
8
shape
62
0
5
126
100
AcDbEntity
100
AcDbLine
10
6.953216578044998
20
14.850824381011321
30
0.0
11
7.381687067527248
21
15.001122521105323
31
0.0
0
LINE
8
shape
62
0
5
127
100
AcDbEntity
100
AcDbLine
10
7.381687067527248
20
15.001122521105323
30
0.0
11
7.824992584140248
21
15.212521901455322
31
0.0
0
LINE
8
shape
62
0
5
128
100
AcDbEntity
100
AcDbLine
10
7.824992584140248
20
15.212521901455322
30
0.0
11
7.884623575548164
21
15.240708485501987
31
0.0
0
LINE
8
shape
62
0
5
129
100
AcDbEntity
100
AcDbLine
10
7.884623575548164
20
15.240708485501987
30
0.0
11
8.484860408573706
21
15.479657978645985
31
0.0
0
LINE
8
shape
62
0
5
12a
100
AcDbEntity
100
AcDbLine
10
8.484860408573706
20
15.479657978645985
30
0.0
11
9.003504592380123
21
15.632502003750652
31
0.0
0
LINE
8
shape
62
0
5
12b
100
AcDbEntity
100
AcDbLine
10
9.003504592380123
20
15.632502003750652
30
0.0
11
9.252718504032478
21
15.744248170825983
31
0.0
0
LINE
8
shape
62
0
5
12c
100
AcDbEntity
100
AcDbLine
10
9.252718504032478
20
15.744248170825983
30
0.0
11
12.072591730955565
21
16.68232723835007
31
0.0
0
LINE
8
shape
62
0
5
12d
100
AcDbEntity
100
AcDbLine
10
12.072591730955565
20
16.68232723835007
30
0.0
11
14.812290362723495
21
17.94371097111265
31
0.0
0
LINE
8
shape
62
0
5
12e
100
AcDbEntity
100
AcDbLine
10
14.812290362723495
20
17.94371097111265
30
0.0
11
15.243087915285079
21
17.62129281940465
31
0.0
0
LINE
8
shape
62
0
5
12f
100
AcDbEntity
100
AcDbLine
10
15.243087915285079
20
17.62129281940465
30
0.0
11
15.93233491109512
21
17.24477461121998
31
0.0
0
LINE
8
shape
62
0
5
130
100
AcDbEntity
100
AcDbLine
10
15.93233491109512
20
17.24477461121998
30
0.0
11
16.367568427651683
21
17.071472581565313
31
0.0
0
LINE
8
shape
62
0
5
131
100
AcDbEntity
100
AcDbLine
10
16.367568427651683
20
17.071472581565313
30
0.0
11
16.792111998187558
21
16.894169875465316
31
0.0
0
LINE
8
shape
62
0
5
132
100
AcDbEntity
100
AcDbLine
10
16.792111998187558
20
16.894169875465316
30
0.0
11
17.098629838168495
21
16.836341915937314
31
0.0
0
LINE
8
shape
62
0
5
133
100
AcDbEntity
100
AcDbLine
10
17.098629838168495
20
16.836341915937314
30
0.0
11
18.488977307348932
21
16.757328556141978
31
0.0
0
LINE
8
shape
62
0
5
134
100
AcDbEntity
100
AcDbLine
10
18.488977307348932
20
16.757328556141978
30
0.0
11
18.688159362795616
21
16.69214708053406
31
0.0
0
LINE
8
shape
62
0
5
135
100
AcDbEntity
100
AcDbLine
10
18.688159362795616
20
16.69214708053406
30
0.0
11
18.818620336680745
21
16.474280697634644
31
0.0
0
LINE
8
shape
62
0
5
136
100
AcDbEntity
100
AcDbLine
10
18.818620336680745
20
16.474280697634644
30
0.0
11
18.881523760543974
21
15.775071564347979
31
0.0
0
LINE
8
shape
62
0
5
137
100
AcDbEntity
100
AcDbLine
10
18.881523760543974
20
15.775071564347979
30
0.0
11
18.708230281854867
21
14.978209556009311
31
0.0
0
LINE
8
shape
62
0
5
138
100
AcDbEntity
100
AcDbLine
10
18.708230281854867
20
14.978209556009311
30
0.0
11
18.603803326169785
21
14.605692024269977
31
0.0
0
LINE
8
shape
62
0
5
139
100
AcDbEntity
100
AcDbLine
10
18.603803326169785
20
14.605692024269977
30
0.0
11
18.58574131703449
21
14.449631546227732
31
0.0
0
LINE
8
shape
62
0
5
13a
100
AcDbEntity
100
AcDbLine
10
18.58574131703449
20
14.449631546227732
30
0.0
11
18.491377091149495
21
14.37901733385598
31
0.0
0
LINE
8
shape
62
0
5
13b
100
AcDbEntity
100
AcDbLine
10
18.491377091149495
20
14.37901733385598
30
0.0
11
18.300339756480472
21
14.562321054623983
31
0.0
0
LINE
8
shape
62
0
5
13c
100
AcDbEntity
100
AcDbLine
10
18.300339756480472
20
14.562321054623983
30
0.0
11
17.866269771463575
21
15.30871998507265
31
0.0
0
LINE
8
shape
62
0
5
13d
100
AcDbEntity
100
AcDbLine
10
17.866269771463575
20
15.30871998507265
30
0.0
11
17.42903643507321
21
15.50700351139448
31
0.0
0
LINE
8
shape
62
0
5
13e
100
AcDbEntity
100
AcDbLine
10
17.42903643507321
20
15.50700351139448
30
0.0
11
16.935517260451473
21
15.404827144225315
31
0.0
0
LINE
8
shape
62
0
5
13f
100
AcDbEntity
100
AcDbLine
10
16.935517260451473
20
15.404827144225315
30
0.0
11
16.67648605143318
21
14.958933569499983
31
0.0
0
LINE
8
shape
62
0
5
140
100
AcDbEntity
100
AcDbLine
10
16.67648605143318
20
14.958933569499983
30
0.0
11
16.598456717554285
21
14.555683568703316
31
0.0
0
LINE
8
shape
62
0
5
141
100
AcDbEntity
100
AcDbLine
10
16.598456717554285
20
14.555683568703316
30
0.0
11
16.715064394045253
21
14.072976951346067
31
0.0
0
LINE
8
shape
62
0
5
142
100
AcDbEntity
100
AcDbLine
10
16.715064394045253
20
14.072976951346067
30
0.0
11
17.01143769341472
21
13.706539993181316
31
0.0
0
LINE
8
shape
62
0
5
143
100
AcDbEntity
100
AcDbLine
10
17.01143769341472
20
13.706539993181316
30
0.0
11
17.347043821887326
21
13.609341740452649
31
0.0
0
LINE
8
shape
62
0
5
144
100
AcDbEntity
100
AcDbLine
10
17.347043821887326
20
13.609341740452649
30
0.0
11
17.73064562637118
21
13.453497208013985
31
0.0
0
LINE
8
shape
62
0
5
145
100
AcDbEntity
100
AcDbLine
10
17.73064562637118
20
13.453497208013985
30
0.0
11
17.768896725737722
21
13.115894670706645
31
0.0
0
LINE
8
shape
62
0
5
146
100
AcDbEntity
100
AcDbLine
10
17.768896725737722
20
13.115894670706645
30
0.0
11
17.600039211043597
21
12.97087014956331
31
0.0
0
LINE
8
shape
62
0
5
147
100
AcDbEntity
100
AcDbLine
10
17.600039211043597
20
12.97087014956331
30
0.0
11
16.779094989087536
21
12.968324264552642
31
0.0
0
LINE
8
shape
62
0
5
148
100
AcDbEntity
100
AcDbLine
10
16.779094989087536
20
12.968324264552642
30
0.0
11
16.22843550775998
21
12.671217210696225
31
0.0
0
LINE
8
shape
62
0
5
149
100
AcDbEntity
100
AcDbLine
10
16.22843550775998
20
12.671217210696225
30
0.0
11
16.09360220051095
21
12.362703398608422
31
0.0
0
LINE
8
shape
62
0
5
14a
100
AcDbEntity
100
AcDbLine
10
16.09360220051095
20
12.362703398608422
30
0.0
11
16.09457484015739
21
11.939241173455308
31
0.0
0
LINE
8
shape
62
0
5
14b
100
AcDbEntity
100
AcDbLine
10
16.09457484015739
20
11.939241173455308
30
0.0
11
16.19043893091774
21
11.550686839260395
31
0.0
0
LINE
8
shape
62
0
5
14c
100
AcDbEntity
100
AcDbLine
10
16.19043893091774
20
11.550686839260395
30
0.0
11
16.41294615769868
21
11.273765016559977
31
0.0
0
LINE
8
shape
62
0
5
14d
100
AcDbEntity
100
AcDbLine
10
16.41294615769868
20
11.273765016559977
30
0.0
11
16.74817050238483
21
11.113806152095144
31
0.0
0
LINE
8
shape
62
0
5
14e
100
AcDbEntity
100
AcDbLine
10
16.74817050238483
20
11.113806152095144
30
0.0
11
17.13477203661939
21
11.179567271165311
31
0.0
0
LINE
8
shape
62
0
5
14f
100
AcDbEntity
100
AcDbLine
10
17.13477203661939
20
11.179567271165311
30
0.0
11
17.600911859698346
21
11.57090616709064
31
0.0
0
LINE
8
shape
62
0
5
150
100
AcDbEntity
100
AcDbLine
10
17.600911859698346
20
11.57090616709064
30
0.0
11
17.853979969575846
21
11.675923923780637
31
0.0
0
LINE
8
shape
62
0
5
151
100
AcDbEntity
100
AcDbLine
10
17.853979969575846
20
11.675923923780637
30
0.0
11
17.892940095974375
21
11.459921492406886
31
0.0
0
LINE
8
shape
62
0
5
152
100
AcDbEntity
100
AcDbLine
10
17.892940095974375
20
11.459921492406886
30
0.0
11
17.747444112975117
21
11.33168390055264
31
0.0
0
LINE
8
shape
62
0
5
153
100
AcDbEntity
100
AcDbLine
10
17.747444112975117
20
11.33168390055264
30
0.0
11
17.227127352580432
21
10.961030320338972
31
0.0
0
LINE
8
shape
62
0
5
154
100
AcDbEntity
100
AcDbLine
10
17.227127352580432
20
10.961030320338972
30
0.0
11
16.83094486332393
21
10.413074034025307
31
0.0
0
LINE
8
shape
62
0
5
155
100
AcDbEntity
100
AcDbLine
10
16.83094486332393
20
10.413074034025307
30
0.0
11
16.823527349758553
21
9.765782770063304
31
0.0
0
LINE
8
shape
62
0
5
156
100
AcDbEntity
100
AcDbLine
10
16.823527349758553
20
9.765782770063304
30
0.0
11
17.096448216531616
21
9.28279201375397
31
0.0
0
LINE
8
shape
62
0
5
157
100
AcDbEntity
100
AcDbLine
10
17.096448216531616
20
9.28279201375397
30
0.0
11
17.437408408104716
21
9.093760051711971
31
0.0
0
LINE
8
shape
62
0
5
158
100
AcDbEntity
100
AcDbLine
10
17.437408408104716
20
9.093760051711971
30
0.0
11
17.81769232968249
21
9.152951878209976
31
0.0
0
LINE
8
shape
62
0
5
159
100
AcDbEntity
100
AcDbLine
10
17.81769232968249
20
9.152951878209976
30
0.0
11
18.348844477540325
21
9.723139196134639
31
0.0
0
LINE
8
shape
62
0
5
15a
100
AcDbEntity
100
AcDbLine
10
18.348844477540325
20
9.723139196134639
30
0.0
11
18.48795921725172
21
10.064469636493307
31
0.0
0
LINE
8
shape
62
0
5
15b
100
AcDbEntity
100
AcDbLine
10
18.48795921725172
20
10.064469636493307
30
0.0
11
18.59980368650218
21
10.54109568027598
31
0.0
0
LINE
8
shape
62
0
5
15c
100
AcDbEntity
100
AcDbLine
10
18.59980368650218
20
10.54109568027598
30
0.0
11
18.834764336793615
21
10.468447033007315
31
0.0
0
LINE
8
shape
62
0
5
15d
100
AcDbEntity
100
AcDbLine
10
18.834764336793615
20
10.468447033007315
30
0.0
11
18.91664786889766
21
10.441715240395311
31
0.0
0
LINE
8
shape
62
0
5
15e
100
AcDbEntity
100
AcDbLine
10
18.91664786889766
20
10.441715240395311
30
0.0
11
18.926392445542366
21
9.591389646832653
31
0.0
0
LINE
8
shape
62
0
5
15f
100
AcDbEntity
100
AcDbLine
10
18.926392445542366
20
9.591389646832653
30
0.0
11
18.951626535808888
21
9.383263547210653
31
0.0
0
LINE
8
shape
62
0
5
160
100
AcDbEntity
100
AcDbLine
10
18.951626535808888
20
9.383263547210653
30
0.0
11
18.956353382688782
21
9.33652837237198
31
0.0
0
LINE
8
shape
62
0
5
161
100
AcDbEntity
100
AcDbLine
10
18.956353382688782
20
9.33652837237198
30
0.0
11
18.96464354490891
21
9.300158586505319
31
0.0
0
LINE
8
shape
62
0
5
162
100
AcDbEntity
100
AcDbLine
10
18.96464354490891
20
9.300158586505319
30
0.0
11
18.99874956316539
21
9.128402272749987
31
0.0
0
LINE
8
shape
62
0
5
163
100
AcDbEntity
100
AcDbLine
10
18.99874956316539
20
9.128402272749987
30
0.0
11
19.096049888170015
21
8.81343992714465
31
0.0
0
LINE
8
shape
62
0
5
164
100
AcDbEntity
100
AcDbLine
10
19.096049888170015
20
8.81343992714465
30
0.0
11
19.360680592722954
21
8.429829610715984
31
0.0
0
LINE
8
shape
62
0
5
165
100
AcDbEntity
100
AcDbLine
10
19.360680592722954
20
8.429829610715984
30
0.0
11
19.425983800386746
21
8.342996746959322
31
0.0
0
LINE
8
shape
62
0
5
166
100
AcDbEntity
100
AcDbLine
10
19.425983800386746
20
8.342996746959322
30
0.0
11
19.478197278229292
21
8.352634740213986
31
0.0
0
LINE
8
shape
62
0
5
167
100
AcDbEntity
100
AcDbLine
10
19.478197278229292
20
8.352634740213986
30
0.0
11
19.570479873469104
21
8.31481016291265
31
0.0
0
LINE
8
shape
62
0
5
168
100
AcDbEntity
100
AcDbLine
10
19.570479873469104
20
8.31481016291265
30
0.0
11
19.69897738788104
21
8.28844206815932
31
0.0
0
LINE
8
shape
62
0
5
169
100
AcDbEntity
100
AcDbLine
10
19.69897738788104
20
8.28844206815932
30
0.0
11
19.965716993349623
21
8.278440377045982
31
0.0
0
LINE
8
shape
62
0
5
16a
100
AcDbEntity
100
AcDbLine
10
19.965716993349623
20
8.278440377045982
30
0.0
11
20.327957085972407
21
8.5226293924664
31
0.0
0
LINE
8
shape
62
0
5
16b
100
AcDbEntity
100
AcDbLine
10
20.327957085972407
20
8.5226293924664
30
0.0
11
20.562681393919853
21
8.870540490955314
31
0.0
0
LINE
8
shape
62
0
5
16c
100
AcDbEntity
100
AcDbLine
10
20.562681393919853
20
8.870540490955314
30
0.0
11
20.706132106634534
21
9.332061708045233
31
0.0
0
LINE
8
shape
62
0
5
16d
100
AcDbEntity
100
AcDbLine
10
20.706132106634534
20
9.332061708045233
30
0.0
11
20.633874980003206
21
9.872619016046649
31
0.0
0
LINE
8
shape
62
0
5
16e
100
AcDbEntity
100
AcDbLine
10
20.633874980003206
20
9.872619016046649
30
0.0
11
20.21907598611204
21
10.462446018339321
31
0.0
0
LINE
8
shape
62
0
5
16f
100
AcDbEntity
100
AcDbLine
10
20.21907598611204
20
10.462446018339321
30
0.0
11
20.100159426722044
21
10.72123977589682
31
0.0
0
LINE
8
shape
62
0
5
170
100
AcDbEntity
100
AcDbLine
10
20.100159426722044
20
10.72123977589682
30
0.0
11
20.175734436259457
21
11.011811633855316
31
0.0
0
LINE
8
shape
62
0
5
171
100
AcDbEntity
100
AcDbLine
10
20.175734436259457
20
11.011811633855316
30
0.0
11
20.216094436541642
21
11.083460112012652
31
0.0
0
LINE
8
shape
62
0
5
172
100
AcDbEntity
100
AcDbLine
10
20.216094436541642
20
11.083460112012652
30
0.0
11
20.37338935656033
21
11.319772795681317
31
0.0
0
LINE
8
shape
62
0
5
173
100
AcDbEntity
100
AcDbLine
10
20.37338935656033
20
11.319772795681317
30
0.0
11
20.479852492439832
21
11.348686775445316
31
0.0
0
LINE
8
shape
62
0
5
174
100
AcDbEntity
100
AcDbLine
10
20.479852492439832
20
11.348686775445316
30
0.0
11
21.144519884474413
21
11.134286887761313
31
0.0
0
LINE
8
shape
62
0
5
175
100
AcDbEntity
100
AcDbLine
10
21.144519884474413
20
11.134286887761313
30
0.0
11
21.57626280641198
21
11.094552896701984
31
0.0
0
LINE
8
shape
62
0
5
176
100
AcDbEntity
100
AcDbLine
10
21.57626280641198
20
11.094552896701984
30
0.0
11
21.891952547357945
21
11.141026663704732
31
0.0
0
LINE
8
shape
62
0
5
177
100
AcDbEntity
100
AcDbLine
10
21.891952547357945
20
11.141026663704732
30
0.0
11
22.152501801431892
21
11.357233675123979
31
0.0
0
LINE
8
shape
62
0
5
178
100
AcDbEntity
100
AcDbLine
10
22.152501801431892
20
11.357233675123979
30
0.0
11
22.310960252990245
21
11.725659605953318
31
0.0
0
LINE
8
shape
62
0
5
179
100
AcDbEntity
100
AcDbLine
10
22.310960252990245
20
11.725659605953318
30
0.0
11
22.32514079362993
21
12.33139838956265
31
0.0
0
LINE
8
shape
62
0
5
17a
100
AcDbEntity
100
AcDbLine
10
22.32514079362993
20
12.33139838956265
30
0.0
11
22.176126945741217
21
12.82170856527765
31
0.0
0
LINE
8
shape
62
0
5
17b
100
AcDbEntity
100
AcDbLine
10
22.176126945741217
20
12.82170856527765
30
0.0
11
21.81805920449895
21
13.13198830095265
31
0.0
0
LINE
8
shape
62
0
5
17c
100
AcDbEntity
100
AcDbLine
10
21.81805920449895
20
13.13198830095265
30
0.0
11
21.255855308676264
21
13.22136704971998
31
0.0
0
LINE
8
shape
62
0
5
17d
100
AcDbEntity
100
AcDbLine
10
21.255855308676264
20
13.22136704971998
30
0.0
11
20.905195990909224
21
13.055975448491317
31
0.0
0
LINE
8
shape
62
0
5
17e
100
AcDbEntity
100
AcDbLine
10
20.905195990909224
20
13.055975448491317
30
0.0
11
20.745283124926285
21
12.954685594852648
31
0.0
0
LINE
8
shape
62
0
5
17f
100
AcDbEntity
100
AcDbLine
10
20.745283124926285
20
12.954685594852648
30
0.0
11
20.422403122668783
21
13.892480523424652
31
0.0
0
LINE
8
shape
62
0
5
180
100
AcDbEntity
100
AcDbLine
10
20.422403122668783
20
13.892480523424652
30
0.0
11
20.37062596915362
21
14.188348731449985
31
0.0
0
LINE
8
shape
62
0
5
181
100
AcDbEntity
100
AcDbLine
10
20.37062596915362
20
14.188348731449985
30
0.0
11
20.477016384311888
21
14.52567849536332
31
0.0
0
LINE
8
shape
62
0
5
182
100
AcDbEntity
100
AcDbLine
10
20.477016384311888
20
14.52567849536332
30
0.0
11
20.81204074701466
21
15.175970266659316
31
0.0
0
LINE
8
shape
62
0
5
183
100
AcDbEntity
100
AcDbLine
10
20.81204074701466
20
15.175970266659316
30
0.0
11
21.179643992828098
21
15.77652635578265
31
0.0
0
LINE
8
shape
62
0
5
184
100
AcDbEntity
100
AcDbLine
10
21.179643992828098
20
15.77652635578265
30
0.0
11
21.41816795845976
21
16.29597782242332
31
0.0
0
LINE
8
shape
62
0
5
185
100
AcDbEntity
100
AcDbLine
10
21.41816795845976
20
16.29597782242332
30
0.0
11
21.678653581902637
21
16.892078612777986
31
0.0
0
LINE
8
shape
62
0
5
186
100
AcDbEntity
100
AcDbLine
10
21.678653581902637
20
16.892078612777986
30
0.0
11
21.726431095750197
21
17.444444735627982
31
0.0
0
LINE
8
shape
62
0
5
187
100
AcDbEntity
100
AcDbLine
10
21.726431095750197
20
17.444444735627982
30
0.0
11
21.704760320823905
21
17.87997292138132
31
0.0
0
LINE
8
shape
62
0
5
188
100
AcDbEntity
100
AcDbLine
10
21.704760320823905
20
17.87997292138132
30
0.0
11
21.46085502182128
21
18.702111930897317
31
0.0
0
LINE
8
shape
62
0
5
189
100
AcDbEntity
100
AcDbLine
10
21.46085502182128
20
18.702111930897317
30
0.0
11
20.999442045622217
21
19.288574727997315
31
0.0
0
LINE
8
shape
62
0
5
18a
100
AcDbEntity
100
AcDbLine
10
20.999442045622217
20
19.288574727997315
30
0.0
11
20.255581788169074
21
19.930683297473315
31
0.0
0
LINE
8
shape
62
0
5
18b
100
AcDbEntity
100
AcDbLine
10
20.255581788169074
20
19.930683297473315
30
0.0
11
19.44525479151247
21
20.42485776293665
31
0.0
0
LINE
8
shape
62
0
5
18c
100
AcDbEntity
100
AcDbLine
10
19.44525479151247
20
20.42485776293665
30
0.0
11
18.966388842218404
21
20.762096602385316
31
0.0
0
LINE
8
shape
62
0
5
18d
100
AcDbEntity
100
AcDbLine
10
18.966388842218404
20
20.762096602385316
30
0.0
11
18.951262932202738
21
20.770643502063983
31
0.0
0
LINE
8
shape
62
0
5
18e
100
AcDbEntity
100
AcDbLine
10
18.951262932202738
20
20.770643502063983
30
0.0
11
18.460543505348323
21
20.934216613999315
31
0.0
0
LINE
8
shape
62
0
5
18f
100
AcDbEntity
100
AcDbLine
10
18.460543505348323
20
20.934216613999315
30
0.0
11
18.637400299377653
21
21.38165590462398
31
0.0
0
LINE
8
shape
62
0
5
190
100
AcDbEntity
100
AcDbLine
10
18.637400299377653
20
21.38165590462398
30
0.0
11
18.869543021721462
21
21.71696259919848
31
0.0
0
LINE
8
shape
62
0
5
191
100
AcDbEntity
100
AcDbLine
10
18.869543021721462
20
21.71696259919848
30
0.0
11
19.1630983931433
21
21.96184491366198
31
0.0
0
LINE
8
shape
62
0
5
192
100
AcDbEntity
100
AcDbLine
10
19.1630983931433
20
21.96184491366198
30
0.0
11
19.59549580157193
21
22.1472512626754
31
0.0
0
LINE
8
shape
62
0
5
193
100
AcDbEntity
100
AcDbLine
10
19.59549580157193
20
22.1472512626754
30
0.0
11
20.049927588532988
21
22.069499479827318
31
0.0
0
LINE
8
shape
62
0
5
194
100
AcDbEntity
100
AcDbLine
10
20.049927588532988
20
22.069499479827318
30
0.0
11
20.11515807547555
21
22.052769378328648
31
0.0
0
LINE
8
shape
62
0
5
195
100
AcDbEntity
100
AcDbLine
10
20.11515807547555
20
22.052769378328648
30
0.0
11
20.79640579195038
21
21.90765393272065
31
0.0
0
LINE
8
shape
62
0
5
196
100
AcDbEntity
100
AcDbLine
10
20.79640579195038
20
21.90765393272065
30
0.0
11
21.23760240764774
21
21.69807304166398
31
0.0
0
LINE
8
shape
62
0
5
197
100
AcDbEntity
100
AcDbLine
10
21.23760240764774
20
21.69807304166398
30
0.0
11
21.285089038610383
21
21.68061554444798
31
0.0
0
LINE
8
shape
62
0
5
198
100
AcDbEntity
100
AcDbLine
10
21.285089038610383
20
21.68061554444798
30
0.0
11
21.90692392584099
21
21.53004463095998
31
0.0
0
LINE
8
shape
62
0
5
199
100
AcDbEntity
100
AcDbLine
10
21.90692392584099
20
21.53004463095998
30
0.0
11
22.63901251654516
21
21.40171611464106
31
0.0
0
LINE
8
shape
62
0
5
19a
100
AcDbEntity
100
AcDbLine
10
22.63901251654516
20
21.40171611464106
30
0.0
11
23.37530072890032
21
21.419116784066645
31
0.0
0
LINE
8
shape
62
0
5
19b
100
AcDbEntity
100
AcDbLine
10
23.37530072890032
20
21.419116784066645
30
0.0
11
24.1511581036943
21
21.655065769876646
31
0.0
0
LINE
8
shape
62
0
5
19c
100
AcDbEntity
100
AcDbLine
10
24.1511581036943
20
21.655065769876646
30
0.0
11
24.667766107306296
21
21.930294124422645
31
0.0
0
LINE
8
shape
62
0
5
19d
100
AcDbEntity
100
AcDbLine
10
24.667766107306296
20
21.930294124422645
30
0.0
11
24.859748811351295
21
22.142511824954646
31
0.0
0
LINE
8
shape
62
0
5
19e
100
AcDbEntity
100
AcDbLine
10
24.859748811351295
20
22.142511824954646
30
0.0
11
25.052022398281213
21
22.34800111510131
31
0.0
0
LINE
8
shape
62
0
5
19f
100
AcDbEntity
100
AcDbLine
10
25.052022398281213
20
22.34800111510131
30
0.0
11
25.348432058011298
21
22.54167022484131
31
0.0
0
LINE
8
shape
62
0
5
1a0
100
AcDbEntity
100
AcDbLine
10
25.348432058011298
20
22.54167022484131
30
0.0
11
25.462021824571256
21
22.624775185546643
31
0.0
0
LINE
8
shape
62
0
5
1a1
100
AcDbEntity
100
AcDbLine
10
25.462021824571256
20
22.624775185546643
30
0.0
11
25.1878647055373
21
20.66017027749398
31
0.0
0
LINE
8
shape
62
0
5
1a2
100
AcDbEntity
100
AcDbLine
10
25.1878647055373
20
20.66017027749398
30
0.0
11
25.10925360588857
21
20.171996826698646
31
0.0
0
LINE
8
shape
62
0
5
1a3
100
AcDbEntity
100
AcDbLine
10
25.10925360588857
20
20.171996826698646
30
0.0
11
25.052895046935966
21
20.00651430100531
31
0.0
0
LINE
8
shape
62
0
5
1a4
100
AcDbEntity
100
AcDbLine
10
25.052895046935966
20
20.00651430100531
30
0.0
11
24.932760415465385
21
19.537253138860645
31
0.0
0
LINE
8
shape
62
0
5
1a5
100
AcDbEntity
100
AcDbLine
10
24.932760415465385
20
19.537253138860645
30
0.0
11
24.771320414336632
21
19.023893611352644
31
0.0
0
LINE
8
shape
62
0
5
1a6
100
AcDbEntity
100
AcDbLine
10
24.771320414336632
20
19.023893611352644
30
0.0
11
24.73655990958909
21
18.847681998828644
31
0.0
0
LINE
8
shape
62
0
5
1a7
100
AcDbEntity
100
AcDbLine
10
24.73655990958909
20
18.847681998828644
30
0.0
11
24.65823969282528
21
18.47852867228198
31
0.0
0
LINE
8
shape
62
0
5
1a8
100
AcDbEntity
100
AcDbLine
10
24.65823969282528
20
18.47852867228198
30
0.0
11
24.65111306214482
21
18.33577726275531
31
0.0
0
LINE
8
shape
62
0
5
1a9
100
AcDbEntity
100
AcDbLine
10
24.65111306214482
20
18.33577726275531
30
0.0
11
24.968248127425213
21
17.71358115104131
31
0.0
0
LINE
8
shape
62
0
5
1aa
100
AcDbEntity
100
AcDbLine
10
24.968248127425213
20
17.71358115104131
30
0.0
11
25.392209932191253
21
17.393436110949974
31
0.0
0
LINE
8
shape
62
0
5
1ab
100
AcDbEntity
100
AcDbLine
10
25.392209932191253
20
17.393436110949974
30
0.0
11
25.97615732366146
21
17.03655758713331
31
0.0
0
LINE
8
shape
62
0
5
1ac
100
AcDbEntity
100
AcDbLine
10
25.97615732366146
20
17.03655758713331
30
0.0
11
26.35350514611961
21
16.884077259887306
31
0.0
0
LINE
8
shape
62
0
5
1ad
100
AcDbEntity
100
AcDbLine
10
26.35350514611961
20
16.884077259887306
30
0.0
11
26.990538664087108
21
16.521652343725975
31
0.0
0
LINE
8
shape
62
0
5
1ae
100
AcDbEntity
100
AcDbLine
10
26.990538664087108
20
16.521652343725975
30
0.0
11
27.04602457438496
21
16.412542986125974
31
0.0
0
LINE
8
shape
62
0
5
1af
100
AcDbEntity
100
AcDbLine
10
27.04602457438496
20
16.412542986125974
30
0.0
11
27.143479430922195
21
16.01297542614831
31
0.0
0
LINE
8
shape
62
0
5
1b0
100
AcDbEntity
100
AcDbLine
10
27.143479430922195
20
16.01297542614831
30
0.0
11
27.355523963936296
21
15.676145746790642
31
0.0
0
LINE
8
shape
62
0
5
1b1
100
AcDbEntity
100
AcDbLine
10
27.355523963936296
20
15.676145746790642
30
0.0
11
27.062386736661523
21
15.31144771901264
31
0.0
0
LINE
8
shape
62
0
5
1b2
100
AcDbEntity
100
AcDbLine
10
27.062386736661523
20
15.31144771901264
30
0.0
11
26.8783305912305
21
14.920483886504057
31
0.0
0
LINE
8
shape
62
0
5
1b3
100
AcDbEntity
100
AcDbLine
10
26.8783305912305
20
14.920483886504057
30
0.0
11
26.83062579810417
21
14.466032046541972
31
0.0
0
LINE
8
shape
62
0
5
1b4
100
AcDbEntity
100
AcDbLine
10
26.83062579810417
20
14.466032046541972
30
0.0
11
26.87266746506478
21
14.09521934851514
31
0.0
0
LINE
8
shape
62
0
5
1b5
100
AcDbEntity
100
AcDbLine
10
26.87266746506478
20
14.09521934851514
30
0.0
11
27.063550268201187
21
13.813467163629305
31
0.0
0
LINE
8
shape
62
0
5
1b6
100
AcDbEntity
100
AcDbLine
10
27.063550268201187
20
13.813467163629305
30
0.0
11
27.208628107053375
21
13.741909609936641
31
0.0
0
LINE
8
shape
62
0
5
1b7
100
AcDbEntity
100
AcDbLine
10
27.208628107053375
20
13.741909609936641
30
0.0
11
27.660514668771416
21
13.73699968884464
31
0.0
0
LINE
8
shape
62
0
5
1b8
100
AcDbEntity
100
AcDbLine
10
27.660514668771416
20
13.73699968884464
30
0.0
11
27.949125031149674
21
13.885138372902809
31
0.0
0
LINE
8
shape
62
0
5
1b9
100
AcDbEntity
100
AcDbLine
10
27.949125031149674
20
13.885138372902809
30
0.0
11
28.14381658206046
21
14.180711076417975
31
0.0
0
LINE
8
shape
62
0
5
1ba
100
AcDbEntity
100
AcDbLine
10
28.14381658206046
20
14.180711076417975
30
0.0
11
28.246134636829897
21
14.677431426891978
31
0.0
0
LINE
8
shape
62
0
5
1bb
100
AcDbEntity
100
AcDbLine
10
28.246134636829897
20
14.677431426891978
30
0.0
11
28.215591933913643
21
14.834730750765313
31
0.0
0
LINE
8
shape
62
0
5
1bc
100
AcDbEntity
100
AcDbLine
10
28.215591933913643
20
14.834730750765313
30
0.0
11
28.203374852747146
21
14.998667560559312
31
0.0
0
LINE
8
shape
62
0
5
1bd
100
AcDbEntity
100
AcDbLine
10
28.203374852747146
20
14.998667560559312
30
0.0
11
28.233990276384624
21
15.05958695188598
31
0.0
0
LINE
8
shape
62
0
5
1be
100
AcDbEntity
100
AcDbLine
10
28.233990276384624
20
15.05958695188598
30
0.0
11
28.28562198845733
21
15.082590841446645
31
0.0
0
LINE
8
shape
62
0
5
1bf
100
AcDbEntity
100
AcDbLine
10
28.28562198845733
20
15.082590841446645
30
0.0
11
28.561524404800785
21
14.855916151032648
31
0.0
0
LINE
8
shape
62
0
5
1c0
100
AcDbEntity
100
AcDbLine
10
28.561524404800785
20
14.855916151032648
30
0.0
11
28.5647968372561
21
14.653700141613982
31
0.0
0
LINE
8
shape
62
0
5
1c1
100
AcDbEntity
100
AcDbLine
10
28.5647968372561
20
14.653700141613982
30
0.0
11
28.832118208494517
21
13.794191177119984
31
0.0
0
LINE
8
shape
62
0
5
1c2
100
AcDbEntity
100
AcDbLine
10
28.832118208494517
20
13.794191177119984
30
0.0
11
29.050380363173705
21
13.641244861992565
31
0.0
0
LINE
8
shape
62
0
5
1c3
100
AcDbEntity
100
AcDbLine
10
29.050380363173705
20
13.641244861992565
30
0.0
11
29.335345599400352
21
13.61234224778665
31
0.0
0
LINE
8
shape
62
0
5
1c4
100
AcDbEntity
100
AcDbLine
10
29.335345599400352
20
13.61234224778665
30
0.0
11
29.780105530437933
21
13.779734187237985
31
0.0
0
LINE
8
shape
62
0
5
1c5
100
AcDbEntity
100
AcDbLine
10
29.780105530437933
20
13.779734187237985
30
0.0
11
29.93732772973539
21
14.141068009823318
31
0.0
0
LINE
8
shape
62
0
5
1c6
100
AcDbEntity
100
AcDbLine
10
29.93732772973539
20
14.141068009823318
30
0.0
11
29.96496160380247
21
14.290275056341319
31
0.0
0
LINE
8
shape
62
0
5
1c7
100
AcDbEntity
100
AcDbLine
10
29.96496160380247
20
14.290275056341319
30
0.0
11
29.966706901111973
21
14.718347435991987
31
0.0
0
LINE
8
shape
62
0
5
1c8
100
AcDbEntity
100
AcDbLine
10
29.966706901111973
20
14.718347435991987
30
0.0
11
30.37256124629195
21
14.612602283584653
31
0.0
0
LINE
8
shape
62
0
5
1c9
100
AcDbEntity
100
AcDbLine
10
30.37256124629195
20
14.612602283584653
30
0.0
11
30.721975221707947
21
14.65452982735407
31
0.0
0
LINE
8
shape
62
0
5
1ca
100
AcDbEntity
100
AcDbLine
10
30.721975221707947
20
14.65452982735407
30
0.0
11
30.990614656018643
21
15.074862261949985
31
0.0
0
LINE
8
shape
62
0
5
1cb
100
AcDbEntity
100
AcDbLine
10
30.990614656018643
20
15.074862261949985
30
0.0
11
31.067189575472955
21
15.578583796203322
31
0.0
0
LINE
8
shape
62
0
5
1cc
100
AcDbEntity
100
AcDbLine
10
31.067189575472955
20
15.578583796203322
30
0.0
11
30.992723556934287
21
15.826716660278652
31
0.0
0
LINE
8
shape
62
0
5
1cd
100
AcDbEntity
100
AcDbLine
10
30.992723556934287
20
15.826716660278652
30
0.0
11
30.958253935071664
21
16.083851046355985
31
0.0
0
LINE
8
shape
62
0
5
1ce
100
AcDbEntity
100
AcDbLine
10
30.958253935071664
20
16.083851046355985
30
0.0
11
30.762698825596278
21
16.345804429060653
31
0.0
0
LINE
8
shape
62
0
5
1cf
100
AcDbEntity
100
AcDbLine
10
30.762698825596278
20
16.345804429060653
30
0.0
11
30.496622796708913
21
16.342076526009315
31
0.0
0
LINE
8
shape
62
0
5
1d0
100
AcDbEntity
100
AcDbLine
10
30.496622796708913
20
16.342076526009315
30
0.0
11
29.961907333510847
21
16.41145189254998
31
0.0
0
LINE
8
shape
62
0
5
1d1
100
AcDbEntity
100
AcDbLine
10
29.961907333510847
20
16.41145189254998
30
0.0
11
30.095713460572515
21
16.959362716631315
31
0.0
0
LINE
8
shape
62
0
5
1d2
100
AcDbEntity
100
AcDbLine
10
30.095713460572515
20
16.959362716631315
30
0.0
11
30.200213136978828
21
17.00309738413598
31
0.0
0
LINE
8
shape
62
0
5
1d3
100
AcDbEntity
100
AcDbLine
10
30.200213136978828
20
17.00309738413598
30
0.0
11
30.468407156871994
21
17.010825963632644
31
0.0
0
LINE
8
shape
62
0
5
1d4
100
AcDbEntity
100
AcDbLine
10
30.468407156871994
20
17.010825963632644
30
0.0
11
30.862553465934077
21
17.137472377355227
31
0.0
0
LINE
8
shape
62
0
5
1d5
100
AcDbEntity
100
AcDbLine
10
30.862553465934077
20
17.137472377355227
30
0.0
11
31.178379558232344
21
17.45935634783331
31
0.0
0
LINE
8
shape
62
0
5
1d6
100
AcDbEntity
100
AcDbLine
10
31.178379558232344
20
17.45935634783331
30
0.0
11
31.34769157743415
21
17.814143608962645
31
0.0
0
LINE
8
shape
62
0
5
1d7
100
AcDbEntity
100
AcDbLine
10
31.34769157743415
20
17.814143608962645
30
0.0
11
31.379888676758366
21
18.22730437640798
31
0.0
0
LINE
8
shape
62
0
5
1d8
100
AcDbEntity
100
AcDbLine
10
31.379888676758366
20
18.22730437640798
30
0.0
11
30.95650863776216
21
18.907328447649977
31
0.0
0
LINE
8
shape
62
0
5
1d9
100
AcDbEntity
100
AcDbLine
10
30.95650863776216
20
18.907328447649977
30
0.0
11
30.41619367902945
21
19.023438989029312
31
0.0
0
LINE
8
shape
62
0
5
1da
100
AcDbEntity
100
AcDbLine
10
30.41619367902945
20
19.023438989029312
30
0.0
11
30.00085836981922
21
18.83446385477773
31
0.0
0
LINE
8
shape
62
0
5
1db
100
AcDbEntity
100
AcDbLine
10
30.00085836981922
20
18.83446385477773
30
0.0
11
29.766434034846846
21
18.380148401512646
31
0.0
0
LINE
8
shape
62
0
5
1dc
100
AcDbEntity
100
AcDbLine
10
29.766434034846846
20
18.380148401512646
30
0.0
11
29.601857952615088
21
18.160531722668395
31
0.0
0
LINE
8
shape
62
0
5
1dd
100
AcDbEntity
100
AcDbLine
10
29.601857952615088
20
18.160531722668395
30
0.0
11
29.367633599626096
21
18.206937296322646
31
0.0
0
LINE
8
shape
62
0
5
1de
100
AcDbEntity
100
AcDbLine
10
29.367633599626096
20
18.206937296322646
30
0.0
11
29.1756508955811
21
18.31050026157798
31
0.0
0
LINE
8
shape
62
0
5
1df
100
AcDbEntity
100
AcDbLine
10
29.1756508955811
20
18.31050026157798
30
0.0
11
29.22873702207839
21
18.819859112640646
31
0.0
0
LINE
8
shape
62
0
5
1e0
100
AcDbEntity
100
AcDbLine
10
29.22873702207839
20
18.819859112640646
30
0.0
11
29.340872374213763
21
19.747288652240645
31
0.0
0
LINE
8
shape
62
0
5
1e1
100
AcDbEntity
100
AcDbLine
10
29.340872374213763
20
19.747288652240645
30
0.0
11
29.24940788708778
21
20.115021284026895
31
0.0
0
LINE
8
shape
62
0
5
1e2
100
AcDbEntity
100
AcDbLine
10
29.24940788708778
20
20.115021284026895
30
0.0
11
29.017556047628887
21
20.369757537348644
31
0.0
0
LINE
8
shape
62
0
5
1e3
100
AcDbEntity
100
AcDbLine
10
29.017556047628887
20
20.369757537348644
30
0.0
11
28.49178523314201
21
20.38012292632064
31
0.0
0
LINE
8
shape
62
0
5
1e4
100
AcDbEntity
100
AcDbLine
10
28.49178523314201
20
20.38012292632064
30
0.0
11
28.231772294387124
21
20.263898729360477
31
0.0
0
LINE
8
shape
62
0
5
1e5
100
AcDbEntity
100
AcDbLine
10
28.231772294387124
20
20.263898729360477
30
0.0
11
28.018227896497677
21
20.02888171931331
31
0.0
0
LINE
8
shape
62
0
5
1e6
100
AcDbEntity
100
AcDbLine
10
28.018227896497677
20
20.02888171931331
30
0.0
11
27.869004976535425
21
19.723193669103974
31
0.0
0
LINE
8
shape
62
0
5
1e7
100
AcDbEntity
100
AcDbLine
10
27.869004976535425
20
19.723193669103974
30
0.0
11
27.84148018355019
21
19.156404653046224
31
0.0
0
LINE
8
shape
62
0
5
1e8
100
AcDbEntity
100
AcDbLine
10
27.84148018355019
20
19.156404653046224
30
0.0
11
27.94703431041432
21
18.60291333994597
31
0.0
0
LINE
8
shape
62
0
5
1e9
100
AcDbEntity
100
AcDbLine
10
27.94703431041432
20
18.60291333994597
30
0.0
11
27.944925409498676
21
18.556905560824642
31
0.0
0
LINE
8
shape
62
0
5
1ea
100
AcDbEntity
100
AcDbLine
10
27.944925409498676
20
18.556905560824642
30
0.0
11
27.782794561518248
21
18.54169844410914
31
0.0
0
LINE
8
shape
62
0
5
1eb
100
AcDbEntity
100
AcDbLine
10
27.782794561518248
20
18.54169844410914
30
0.0
11
27.66516879493007
21
18.67337980006264
31
0.0
0
LINE
8
shape
62
0
5
1ec
100
AcDbEntity
100
AcDbLine
10
27.66516879493007
20
18.67337980006264
30
0.0
11
27.424890441898754
21
19.15750711218031
31
0.0
0
LINE
8
shape
62
0
5
1ed
100
AcDbEntity
100
AcDbLine
10
27.424890441898754
20
19.15750711218031
30
0.0
11
27.46904100977501
21
19.712828280131976
31
0.0
0
LINE
8
shape
62
0
5
1ee
100
AcDbEntity
100
AcDbLine
10
27.46904100977501
20
19.712828280131976
30
0.0
11
27.822100111342614
21
20.718271010415975
31
0.0
0
LINE
8
shape
62
0
5
1ef
100
AcDbEntity
100
AcDbLine
10
27.822100111342614
20
20.718271010415975
30
0.0
11
28.059460545434618
21
21.417207370308642
31
0.0
0
LINE
8
shape
62
0
5
1f0
100
AcDbEntity
100
AcDbLine
10
28.059460545434618
20
21.417207370308642
30
0.0
11
28.228536222292426
21
21.824458047550642
31
0.0
0
LINE
8
shape
62
0
5
1f1
100
AcDbEntity
100
AcDbLine
10
28.228536222292426
20
21.824458047550642
30
0.0
11
28.3546339529038
21
22.29453752987731
31
0.0
0
LINE
8
shape
62
0
5
1f2
100
AcDbEntity
100
AcDbLine
10
28.3546339529038
20
22.29453752987731
30
0.0
11
28.522618818943176
21
22.699242322108642
31
0.0
0
LINE
8
shape
62
0
5
1f3
100
AcDbEntity
100
AcDbLine
10
28.522618818943176
20
22.699242322108642
30
0.0
11
28.742162676334033
21
23.136225299296644
31
0.0
0
LINE
8
shape
62
0
5
1f4
100
AcDbEntity
100
AcDbLine
10
28.742162676334033
20
23.136225299296644
30
0.0
11
28.989631290676886
21
23.568025581998644
31
0.0
0
LINE
8
shape
62
0
5
1f5
100
AcDbEntity
100
AcDbLine
10
28.989631290676886
20
23.568025581998644
30
0.0
11
29.5583800514102
21
24.433535561160642
31
0.0
0
LINE
8
shape
62
0
5
1f6
100
AcDbEntity
100
AcDbLine
10
29.5583800514102
20
24.433535561160642
30
0.0
11
30.116511586844055
21
25.189936182722644
31
0.0
0
LINE
8
shape
62
0
5
1f7
100
AcDbEntity
100
AcDbLine
10
30.116511586844055
20
25.189936182722644
30
0.0
11
30.262462074350992
21
25.353963916981307
31
0.0
0
LINE
8
shape
62
0
5
1f8
100
AcDbEntity
100
AcDbLine
10
30.262462074350992
20
25.353963916981307
30
0.0
11
30.42327485925914
21
25.557134633278977
31
0.0
0
LINE
8
shape
62
0
5
1f9
100
AcDbEntity
100
AcDbLine
10
30.42327485925914
20
25.557134633278977
30
0.0
11
30.62417494174487
21
25.622554785606642
31
0.0
0
LINE
8
shape
62
0
5
1fa
100
AcDbEntity
100
AcDbLine
10
30.62417494174487
20
25.622554785606642
30
0.0
11
30.995341502898533
21
25.38960630713064
31
0.0
0
LINE
8
shape
62
0
5
1fb
100
AcDbEntity
100
AcDbLine
10
30.995341502898533
20
25.38960630713064
30
0.0
11
31.565326515892743
21
24.616111886211307
31
0.0
0
LINE
8
shape
62
0
5
1fc
100
AcDbEntity
100
AcDbLine
10
31.565326515892743
20
24.616111886211307
30
0.0
11
32.18010749316412
21
24.15830720661464
31
0.0
0
LINE
8
shape
62
0
5
1fd
100
AcDbEntity
100
AcDbLine
10
32.18010749316412
20
24.15830720661464
30
0.0
11
32.593824766327
21
24.072531339759724
31
0.0
0
LINE
8
shape
62
0
5
1fe
100
AcDbEntity
100
AcDbLine
10
32.593824766327
20
24.072531339759724
30
0.0
11
32.99516133670062
21
23.96472902133931
31
0.0
0
LINE
8
shape
62
0
5
1ff
100
AcDbEntity
100
AcDbLine
10
32.99516133670062
20
23.96472902133931
30
0.0
11
33.16954562620816
21
24.01519209922931
31
0.0
0
LINE
8
shape
62
0
5
200
100
AcDbEntity
100
AcDbLine
10
33.16954562620816
20
24.01519209922931
30
0.0
11
33.41316004232587
21
24.05338037438931
31
0.0
0
LINE
8
shape
62
0
5
201
100
AcDbEntity
100
AcDbLine
10
33.41316004232587
20
24.05338037438931
30
0.0
11
34.220796372296995
21
24.206951795211307
31
0.0
0
LINE
8
shape
62
0
5
202
100
AcDbEntity
100
AcDbLine
10
34.220796372296995
20
24.206951795211307
30
0.0
11
34.92102419701264
21
24.54900963128731
31
0.0
0
LINE
8
shape
62
0
5
203
100
AcDbEntity
100
AcDbLine
10
34.92102419701264
20
24.54900963128731
30
0.0
11
35.50875306598677
21
24.828693284601975
31
0.0
0
LINE
8
shape
62
0
5
204
100
AcDbEntity
100
AcDbLine
10
35.50875306598677
20
24.828693284601975
30
0.0
11
35.92558824007236
21
25.11656013973664
31
0.0
0
LINE
8
shape
62
0
5
205
100
AcDbEntity
100
AcDbLine
10
35.92558824007236
20
25.11656013973664
30
0.0
11
36.43143357694244
21
25.452253263285975
31
0.0
0
LINE
8
shape
62
0
5
206
100
AcDbEntity
100
AcDbLine
10
36.43143357694244
20
25.452253263285975
30
0.0
11
36.79227379568156
21
25.71420664599064
31
0.0
0
LINE
8
shape
62
0
5
207
100
AcDbEntity
100
AcDbLine
10
36.79227379568156
20
25.71420664599064
30
0.0
11
37.35207790770369
21
26.20310749250331
31
0.0
0
LINE
8
shape
62
0
5
208
100
AcDbEntity
100
AcDbLine
10
37.35207790770369
20
26.20310749250331
30
0.0
11
38.4484155009546
21
27.265923559991975
31
0.0
0
LINE
8
shape
62
0
5
209
100
AcDbEntity
100
AcDbLine
10
38.4484155009546
20
27.265923559991975
30
0.0
11
39.1557699563507
21
28.07205986372664
31
0.0
0
LINE
8
shape
62
0
5
20a
100
AcDbEntity
100
AcDbLine
10
39.1557699563507
20
28.07205986372664
30
0.0
11
39.94348080870503
21
29.157516122917304
31
0.0
0
LINE
8
shape
62
0
5
20b
100
AcDbEntity
100
AcDbLine
10
39.94348080870503
20
29.157516122917304
30
0.0
11
40.35413472148614
21
30.048666801115303
31
0.0
0
LINE
8
shape
62
0
5
20c
100
AcDbEntity
100
AcDbLine
10
40.35413472148614
20
30.048666801115303
30
0.0
11
40.44992609152526
21
30.72196246197197
31
0.0
0
LINE
8
shape
62
0
5
20d
100
AcDbEntity
100
AcDbLine
10
40.44992609152526
20
30.72196246197197
30
0.0
11
40.41492924443373
21
31.394167029252635
31
0.0
0
LINE
8
shape
62
0
5
20e
100
AcDbEntity
100
AcDbLine
10
40.41492924443373
20
31.394167029252635
30
0.0
11
40.22265565750381
21
32.17175305108197
31
0.0
0
LINE
8
shape
62
0
5
20f
100
AcDbEntity
100
AcDbLine
10
40.22265565750381
20
32.17175305108197
30
0.0
11
40.012156439815826
21
32.58782340139663
31
0.0
0
LINE
8
shape
62
0
5
210
100
AcDbEntity
100
AcDbLine
10
40.012156439815826
20
32.58782340139663
30
0.0
11
39.6853222483415
21
32.891783886777304
31
0.0
0
LINE
8
shape
62
0
5
211
100
AcDbEntity
100
AcDbLine
10
39.6853222483415
20
32.891783886777304
30
0.0
11
39.10435640644168
21
33.335131576491975
31
0.0
0
LINE
8
shape
62
0
5
212
100
AcDbEntity
100
AcDbLine
10
39.10435640644168
20
33.335131576491975
30
0.0
11
38.76555056623499
21
33.498340990568636
31
0.0
0
LINE
8
shape
62
0
5
213
100
AcDbEntity
100
AcDbLine
10
38.76555056623499
20
33.498340990568636
30
0.0
11
38.646288583419164
21
33.56544324549264
31
0.0
0
LINE
8
shape
62
0
5
214
100
AcDbEntity
100
AcDbLine
10
38.646288583419164
20
33.56544324549264
30
0.0
11
38.53349874479272
21
33.632181802557966
31
0.0
0
LINE
8
shape
62
0
5
215
100
AcDbEntity
100
AcDbLine
10
38.53349874479272
20
33.632181802557966
30
0.0
11
38.41307323043723
21
33.701557169098635
31
0.0
0
LINE
8
shape
62
0
5
216
100
AcDbEntity
100
AcDbLine
10
38.41307323043723
20
33.701557169098635
30
0.0
11
38.18458472433518
21
33.81957712423597
31
0.0
0
LINE
8
shape
62
0
5
217
100
AcDbEntity
100
AcDbLine
10
38.18458472433518
20
33.81957712423597
30
0.0
11
38.05397830900759
21
33.88704307701864
31
0.0
0
LINE
8
shape
62
0
5
218
100
AcDbEntity
100
AcDbLine
10
38.05397830900759
20
33.88704307701864
30
0.0
11
37.22917988882639
21
34.23501100329797
31
0.0
0
LINE
8
shape
62
0
5
219
100
AcDbEntity
100
AcDbLine
10
37.22917988882639
20
34.23501100329797
30
0.0
11
35.36171176766138
21
34.54406325869997
31
0.0
0
LINE
8
shape
62
0
5
21a
100
AcDbEntity
100
AcDbLine
10
35.36171176766138
20
34.54406325869997
30
0.0
11
35.15940272120184
21
34.59179860264997
31
0.0
0
LINE
8
shape
62
0
5
21b
100
AcDbEntity
100
AcDbLine
10
35.15940272120184
20
34.59179860264997
30
0.0
11
34.8012531691482
21
34.652263371653305
31
0.0
0
LINE
8
shape
62
0
5
21c
100
AcDbEntity
100
AcDbLine
10
34.8012531691482
20
34.652263371653305
30
0.0
11
34.724969132578806
21
34.639261173205966
31
0.0
0
LINE
8
shape
62
0
5
21d
100
AcDbEntity
100
AcDbLine
10
34.724969132578806
20
34.639261173205966
30
0.0
11
33.68360840457714
21
34.59107120693264
31
0.0
0
LINE
8
shape
62
0
5
21e
100
AcDbEntity
100
AcDbLine
10
33.68360840457714
20
34.59107120693264
30
0.0
11
32.93378504798321
21
34.487508241677304
31
0.0
0
LINE
8
shape
62
0
5
21f
100
AcDbEntity
100
AcDbLine
10
32.93378504798321
20
34.487508241677304
30
0.0
11
32.35318280968954
21
34.27128986469997
31
0.0
0
LINE
8
shape
62
0
5
220
100
AcDbEntity
100
AcDbLine
10
32.35318280968954
20
34.27128986469997
30
0.0
11
31.999832825237018
21
34.14217712487331
31
0.0
0
LINE
8
shape
62
0
5
221
100
AcDbEntity
100
AcDbLine
10
31.999832825237018
20
34.14217712487331
30
0.0
11
31.496669064962262
21
33.915354682204224
31
0.0
0
LINE
8
shape
62
0
5
222
100
AcDbEntity
100
AcDbLine
10
31.496669064962262
20
33.915354682204224
30
0.0
11
31.03381076442877
21
33.588628983982645
31
0.0
0
LINE
8
shape
62
0
5
223
100
AcDbEntity
100
AcDbLine
10
31.03381076442877
20
33.588628983982645
30
0.0
11
30.47298856230944
21
32.93942830626264
31
0.0
0
LINE
8
shape
62
0
5
224
100
AcDbEntity
100
AcDbLine
10
30.47298856230944
20
32.93942830626264
30
0.0
11
30.254026470688416
21
32.369604686196645
31
0.0
0
LINE
8
shape
62
0
5
225
100
AcDbEntity
100
AcDbLine
10
30.254026470688416
20
32.369604686196645
30
0.0
11
29.992304594984645
21
31.575743185191975
31
0.0
0
LINE
8
shape
62
0
5
226
100
AcDbEntity
100
AcDbLine
10
29.992304594984645
20
31.575743185191975
30
0.0
11
29.582886934464437
21
30.93245259767531
31
0.0
0
LINE
8
shape
62
0
5
227
100
AcDbEntity
100
AcDbLine
10
29.582886934464437
20
30.93245259767531
30
0.0
11
29.387059122284445
21
30.82919650248823
31
0.0
0
LINE
8
shape
62
0
5
228
100
AcDbEntity
100
AcDbLine
10
29.387059122284445
20
30.82919650248823
30
0.0
11
29.21615633730575
21
30.878352541198645
31
0.0
0
LINE
8
shape
62
0
5
229
100
AcDbEntity
100
AcDbLine
10
29.21615633730575
20
30.878352541198645
30
0.0
11
28.88771319987422
21
31.139635355976395
31
0.0
0
LINE
8
shape
62
0
5
22a
100
AcDbEntity
100
AcDbLine
10
28.88771319987422
20
31.139635355976395
30
0.0
11
28.649152873881935
21
31.540100795042644
31
0.0
0
LINE
8
shape
62
0
5
22b
100
AcDbEntity
100
AcDbLine
10
28.649152873881935
20
31.540100795042644
30
0.0
11
28.396084764004435
21
32.014180953814645
31
0.0
0
LINE
8
shape
62
0
5
22c
100
AcDbEntity
100
AcDbLine
10
28.396084764004435
20
32.014180953814645
30
0.0
11
28.266714600937746
21
32.32587001869197
31
0.0
0
LINE
8
shape
62
0
5
22d
100
AcDbEntity
100
AcDbLine
10
28.266714600937746
20
32.32587001869197
30
0.0
11
27.83533528260633
21
33.24293416931998
31
0.0
0
LINE
8
shape
62
0
5
22e
100
AcDbEntity
100
AcDbLine
10
27.83533528260633
20
33.24293416931998
30
0.0
11
27.44693391052135
21
33.96178298697464
31
0.0
0
LINE
8
shape
62
0
5
22f
100
AcDbEntity
100
AcDbLine
10
27.44693391052135
20
33.96178298697464
30
0.0
11
27.202974070977803
21
34.56949937769048
31
0.0
0
LINE
8
shape
62
0
5
230
100
AcDbEntity
100
AcDbLine
10
27.202974070977803
20
34.56949937769048
30
0.0
11
27.15612374632591
21
35.244181636633314
31
0.0
0
LINE
8
shape
62
0
5
231
100
AcDbEntity
100
AcDbLine
10
27.15612374632591
20
35.244181636633314
30
0.0
11
27.252551422675786
21
35.49204172731464
31
0.0
0
LINE
8
shape
62
0
5
232
100
AcDbEntity
100
AcDbLine
10
27.252551422675786
20
35.49204172731464
30
0.0
11
27.384539531706725
21
35.393752381009975
31
0.0
0
LINE
8
shape
62
0
5
233
100
AcDbEntity
100
AcDbLine
10
27.384539531706725
20
35.393752381009975
30
0.0
11
27.743634453136348
21
34.989411286637306
31
0.0
0
LINE
8
shape
62
0
5
234
100
AcDbEntity
100
AcDbLine
10
27.743634453136348
20
34.989411286637306
30
0.0
11
28.161051392991766
21
34.75719020387864
31
0.0
0
LINE
8
shape
62
0
5
235
100
AcDbEntity
100
AcDbLine
10
28.161051392991766
20
34.75719020387864
30
0.0
11
28.496293917858225
21
34.756826506019976
31
0.0
0
LINE
8
shape
62
0
5
236
100
AcDbEntity
100
AcDbLine
10
28.496293917858225
20
34.756826506019976
30
0.0
11
28.818446712903434
21
34.90319216301714
31
0.0
0
LINE
8
shape
62
0
5
237
100
AcDbEntity
100
AcDbLine
10
28.818446712903434
20
34.90319216301714
30
0.0
11
29.063588264166953
21
35.20790277523131
31
0.0
0
LINE
8
shape
62
0
5
238
100
AcDbEntity
100
AcDbLine
10
29.063588264166953
20
35.20790277523131
30
0.0
11
29.180823156878525
21
35.593581623231145
31
0.0
0
LINE
8
shape
62
0
5
239
100
AcDbEntity
100
AcDbLine
10
29.180823156878525
20
35.593581623231145
30
0.0
11
29.14430826473133
21
35.98212459186797
31
0.0
0
LINE
8
shape
62
0
5
23a
100
AcDbEntity
100
AcDbLine
10
29.14430826473133
20
35.98212459186797
30
0.0
11
28.81939208227941
21
36.51521472820864
31
0.0
0
LINE
8
shape
62
0
5
23b
100
AcDbEntity
100
AcDbLine
10
28.81939208227941
20
36.51521472820864
30
0.0
11
28.484949485346473
21
36.74028687493289
31
0.0
0
LINE
8
shape
62
0
5
23c
100
AcDbEntity
100
AcDbLine
10
28.484949485346473
20
36.74028687493289
30
0.0
11
28.10011142860172
21
36.76234742317264
31
0.0
0
LINE
8
shape
62
0
5
23d
100
AcDbEntity
100
AcDbLine
10
28.10011142860172
20
36.76234742317264
30
0.0
11
27.976122598905995
21
36.71588502172798
31
0.0
0
LINE
8
shape
62
0
5
23e
100
AcDbEntity
100
AcDbLine
10
27.976122598905995
20
36.71588502172798
30
0.0
11
27.73199913773968
21
36.71333913671731
31
0.0
0
LINE
8
shape
62
0
5
23f
100
AcDbEntity
100
AcDbLine
10
27.73199913773968
20
36.71333913671731
30
0.0
11
27.553397046400846
21
36.793079892229976
31
0.0
0
LINE
8
shape
62
0
5
240
100
AcDbEntity
100
AcDbLine
10
27.553397046400846
20
36.793079892229976
30
0.0
11
27.426717550019635
21
37.41782188895464
31
0.0
0
LINE
8
shape
62
0
5
241
100
AcDbEntity
100
AcDbLine
10
27.426717550019635
20
37.41782188895464
30
0.0
11
28.07204123020726
21
37.522385023321306
31
0.0
0
LINE
8
shape
62
0
5
242
100
AcDbEntity
100
AcDbLine
10
28.07204123020726
20
37.522385023321306
30
0.0
11
28.46246060230635
21
37.64522397508597
31
0.0
0
LINE
8
shape
62
0
5
243
100
AcDbEntity
100
AcDbLine
10
28.46246060230635
20
37.64522397508597
30
0.0
11
28.769869271122346
21
37.94154680543464
31
0.0
0
LINE
8
shape
62
0
5
244
100
AcDbEntity
100
AcDbLine
10
28.769869271122346
20
37.94154680543464
30
0.0
11
28.90134833510468
21
38.079570142798644
31
0.0
0
LINE
8
shape
62
0
5
245
100
AcDbEntity
100
AcDbLine
10
28.90134833510468
20
38.079570142798644
30
0.0
11
29.11304744469294
21
38.62232100351014
31
0.0
0
LINE
8
shape
62
0
5
246
100
AcDbEntity
100
AcDbLine
10
29.11304744469294
20
38.62232100351014
30
0.0
11
29.025046281915493
21
39.21621687559664
31
0.0
0
LINE
8
shape
62
0
5
247
100
AcDbEntity
100
AcDbLine
10
29.025046281915493
20
39.21621687559664
30
0.0
11
28.64910742343116
21
39.65868941733889
31
0.0
0
LINE
8
shape
62
0
5
248
100
AcDbEntity
100
AcDbLine
10
28.64910742343116
20
39.65868941733889
30
0.0
11
28.139380618065474
21
39.70775453158464
31
0.0
0
LINE
8
shape
62
0
5
249
100
AcDbEntity
100
AcDbLine
10
28.139380618065474
20
39.70775453158464
30
0.0
11
27.90260194974331
21
39.55863840953131
31
0.0
0
LINE
8
shape
62
0
5
24a
100
AcDbEntity
100
AcDbLine
10
27.90260194974331
20
39.55863840953131
30
0.0
11
27.51420057765833
21
39.282228036944645
31
0.0
0
LINE
8
shape
62
0
5
24b
100
AcDbEntity
100
AcDbLine
10
27.51420057765833
20
39.282228036944645
30
0.0
11
27.36083257658602
21
38.96435610846998
31
0.0
0
LINE
8
shape
62
0
5
24c
100
AcDbEntity
100
AcDbLine
10
27.36083257658602
20
38.96435610846998
30
0.0
11
27.23475302615495
21
38.68094455210397
31
0.0
0
LINE
8
shape
62
0
5
24d
100
AcDbEntity
100
AcDbLine
10
27.23475302615495
20
38.68094455210397
30
0.0
11
26.9626139071351
21
38.665669242039975
31
0.0
0
LINE
8
shape
62
0
5
24e
100
AcDbEntity
100
AcDbLine
10
26.9626139071351
20
38.665669242039975
30
0.0
11
26.999156069552757
21
39.039834779701394
31
0.0
0
LINE
8
shape
62
0
5
24f
100
AcDbEntity
100
AcDbLine
10
26.999156069552757
20
39.039834779701394
30
0.0
11
27.216336503503662
21
39.28040954765131
31
0.0
0
LINE
8
shape
62
0
5
250
100
AcDbEntity
100
AcDbLine
10
27.216336503503662
20
39.28040954765131
30
0.0
11
27.56910472218635
21
39.705936042291306
31
0.0
0
LINE
8
shape
62
0
5
251
100
AcDbEntity
100
AcDbLine
10
27.56910472218635
20
39.705936042291306
30
0.0
11
27.7056015159335
21
40.33922493869464
31
0.0
0
LINE
8
shape
62
0
5
252
100
AcDbEntity
100
AcDbLine
10
27.7056015159335
20
40.33922493869464
30
0.0
11
27.595211461107624
21
40.81475988890131
31
0.0
0
LINE
8
shape
62
0
5
253
100
AcDbEntity
100
AcDbLine
10
27.595211461107624
20
40.81475988890131
30
0.0
11
27.469986379151
21
41.05179996828731
31
0.0
0
LINE
8
shape
62
0
5
254
100
AcDbEntity
100
AcDbLine
10
27.469986379151
20
41.05179996828731
30
0.0
11
27.062677619546434
21
41.320197622425226
31
0.0
0
LINE
8
shape
62
0
5
255
100
AcDbEntity
100
AcDbLine
10
27.062677619546434
20
41.320197622425226
30
0.0
11
26.61217275153175
21
41.272928266356644
31
0.0
0
LINE
8
shape
62
0
5
256
100
AcDbEntity
100
AcDbLine
10
26.61217275153175
20
41.272928266356644
30
0.0
11
26.25613210039375
21
40.88895425206931
31
0.0
0
LINE
8
shape
62
0
5
257
100
AcDbEntity
100
AcDbLine
10
26.25613210039375
20
40.88895425206931
30
0.0
11
26.05287768455823
21
40.09609292017598
31
0.0
0
LINE
8
shape
62
0
5
258
100
AcDbEntity
100
AcDbLine
10
26.05287768455823
20
40.09609292017598
30
0.0
11
26.10778182908625
21
39.89696834255598
31
0.0
0
LINE
8
shape
62
0
5
259
100
AcDbEntity
100
AcDbLine
10
26.10778182908625
20
39.89696834255598
30
0.0
11
26.131779667091873
21
39.71739252483931
31
0.0
0
LINE
8
shape
62
0
5
25a
100
AcDbEntity
100
AcDbLine
10
26.131779667091873
20
39.71739252483931
30
0.0
11
26.05258680167331
21
39.219490156324646
31
0.0
0
LINE
8
shape
62
0
5
25b
100
AcDbEntity
100
AcDbLine
10
26.05258680167331
20
39.219490156324646
30
0.0
11
25.82528000729124
21
39.06549820985356
31
0.0
0
LINE
8
shape
62
0
5
25c
100
AcDbEntity
100
AcDbLine
10
25.82528000729124
20
39.06549820985356
30
0.0
11
25.60157288861002
21
39.07592042661598
31
0.0
0
LINE
8
shape
62
0
5
25d
100
AcDbEntity
100
AcDbLine
10
25.60157288861002
20
39.07592042661598
30
0.0
11
25.43191544598237
21
39.34305650380664
31
0.0
0
LINE
8
shape
62
0
5
25e
100
AcDbEntity
100
AcDbLine
10
25.43191544598237
20
39.34305650380664
30
0.0
11
25.325379589381644
21
40.372503292762644
31
0.0
0
LINE
8
shape
62
0
5
25f
100
AcDbEntity
100
AcDbLine
10
25.325379589381644
20
40.372503292762644
30
0.0
11
25.188410110946506
21
40.82388643204223
31
0.0
0
LINE
8
shape
62
0
5
260
100
AcDbEntity
100
AcDbLine
10
25.188410110946506
20
40.82388643204223
30
0.0
11
24.916834577516184
21
41.20237088177531
31
0.0
0
LINE
8
shape
62
0
5
261
100
AcDbEntity
100
AcDbLine
10
24.916834577516184
20
41.20237088177531
30
0.0
11
24.378628519699124
21
41.52433441115998
31
0.0
0
LINE
8
shape
62
0
5
262
100
AcDbEntity
100
AcDbLine
10
24.378628519699124
20
41.52433441115998
30
0.0
11
24.26351161799335
21
41.53588181817265
31
0.0
0
LINE
8
shape
62
0
5
263
100
AcDbEntity
100
AcDbLine
10
24.26351161799335
20
41.53588181817265
30
0.0
11
23.833523083455443
21
41.32952874561164
31
0.0
0
LINE
8
shape
62
0
5
264
100
AcDbEntity
100
AcDbLine
10
23.833523083455443
20
41.32952874561164
30
0.0
11
23.507216117210017
21
40.902229223910645
31
0.0
0
LINE
8
shape
62
0
5
265
100
AcDbEntity
100
AcDbLine
10
23.507216117210017
20
40.902229223910645
30
0.0
11
23.410343026442614
21
40.44160588590931
31
0.0
0
LINE
8
shape
62
0
5
266
100
AcDbEntity
100
AcDbLine
10
23.410343026442614
20
40.44160588590931
30
0.0
11
23.44671247714735
21
39.997076178153975
31
0.0
0
LINE
8
shape
62
0
5
267
100
AcDbEntity
100
AcDbLine
10
23.44671247714735
20
39.997076178153975
30
0.0
11
23.59638081152713
21
39.60160021908631
31
0.0
0
LINE
8
shape
62
0
5
268
100
AcDbEntity
100
AcDbLine
10
23.59638081152713
20
39.60160021908631
30
0.0
11
23.86151147103852
21
39.28850182500664
31
0.0
0
LINE
8
shape
62
0
5
269
100
AcDbEntity
100
AcDbLine
10
23.86151147103852
20
39.28850182500664
30
0.0
11
23.981646102509103
21
39.20348745054331
31
0.0
0
LINE
8
shape
62
0
5
26a
100
AcDbEntity
100
AcDbLine
10
23.981646102509103
20
39.20348745054331
30
0.0
11
24.33412343830687
21
38.85515582640531
31
0.0
0
LINE
8
shape
62
0
5
26b
100
AcDbEntity
100
AcDbLine
10
24.33412343830687
20
38.85515582640531
30
0.0
11
24.413970790216496
21
38.80732955799064
31
0.0
0
LINE
8
shape
62
0
5
26c
100
AcDbEntity
100
AcDbLine
10
24.413970790216496
20
38.80732955799064
30
0.0
11
24.431132880426578
21
38.73286242142864
31
0.0
0
LINE
8
shape
62
0
5
26d
100
AcDbEntity
100
AcDbLine
10
24.431132880426578
20
38.73286242142864
30
0.0
11
24.367065925023685
21
38.15076399863264
31
0.0
0
LINE
8
shape
62
0
5
26e
100
AcDbEntity
100
AcDbLine
10
24.367065925023685
20
38.15076399863264
30
0.0
11
24.351940015008015
21
38.107029331127976
31
0.0
0
LINE
8
shape
62
0
5
26f
100
AcDbEntity
100
AcDbLine
10
24.351940015008015
20
38.107029331127976
30
0.0
11
24.26802030270956
21
37.94600210420331
31
0.0
0
LINE
8
shape
62
0
5
270
100
AcDbEntity
100
AcDbLine
10
24.26802030270956
20
37.94600210420331
30
0.0
11
24.139522788297622
21
37.83916585821998
31
0.0
0
LINE
8
shape
62
0
5
271
100
AcDbEntity
100
AcDbLine
10
24.139522788297622
20
37.83916585821998
30
0.0
11
23.562656577057105
21
37.93405690265772
31
0.0
0
LINE
8
shape
62
0
5
272
100
AcDbEntity
100
AcDbLine
10
23.562656577057105
20
37.93405690265772
30
0.0
11
22.993589663168414
21
37.770154189537976
31
0.0
0
LINE
8
shape
62
0
5
273
100
AcDbEntity
100
AcDbLine
10
22.993589663168414
20
37.770154189537976
30
0.0
11
22.632540372355756
21
37.58338397355456
31
0.0
0
LINE
8
shape
62
0
5
274
100
AcDbEntity
100
AcDbLine
10
22.632540372355756
20
37.58338397355456
30
0.0
11
22.363391892996457
21
37.212150749878646
31
0.0
0
LINE
8
shape
62
0
5
275
100
AcDbEntity
100
AcDbLine
10
22.363391892996457
20
37.212150749878646
30
0.0
11
22.316850631409793
21
36.74407160577464
31
0.0
0
LINE
8
shape
62
0
5
276
100
AcDbEntity
100
AcDbLine
10
22.316850631409793
20
36.74407160577464
30
0.0
11
22.413060145595978
21
36.117158787456056
31
0.0
0
LINE
8
shape
62
0
5
277
100
AcDbEntity
100
AcDbLine
10
22.413060145595978
20
36.117158787456056
30
0.0
11
22.754483931766913
21
35.68971151349998
31
0.0
0
LINE
8
shape
62
0
5
278
100
AcDbEntity
100
AcDbLine
10
22.754483931766913
20
35.68971151349998
30
0.0
11
23.124232438856613
21
35.51736419072431
31
0.0
0
LINE
8
shape
62
0
5
279
100
AcDbEntity
100
AcDbLine
10
23.124232438856613
20
35.51736419072431
30
0.0
11
23.56270202750787
21
35.591058469336645
31
0.0
0
LINE
8
shape
62
0
5
27a
100
AcDbEntity
100
AcDbLine
10
23.56270202750787
20
35.591058469336645
30
0.0
11
24.100835364603704
21
36.00240074748864
31
0.0
0
LINE
8
shape
62
0
5
27b
100
AcDbEntity
100
AcDbLine
10
24.100835364603704
20
36.00240074748864
30
0.0
11
24.254203365676013
21
36.165246463706644
31
0.0
0
LINE
8
shape
62
0
5
27c
100
AcDbEntity
100
AcDbLine
10
24.254203365676013
20
36.165246463706644
30
0.0
11
24.79568185594839
21
35.382932369714645
31
0.0
0
LINE
8
shape
62
0
5
27d
100
AcDbEntity
100
AcDbLine
10
24.79568185594839
20
35.382932369714645
30
0.0
11
24.839896054455725
21
35.221177747072645
31
0.0
0
LINE
8
shape
62
0
5
27e
100
AcDbEntity
100
AcDbLine
10
24.839896054455725
20
35.221177747072645
30
0.0
11
24.824697423718828
21
34.29865812856465
31
0.0
0
LINE
8
shape
62
0
5
27f
100
AcDbEntity
100
AcDbLine
10
24.824697423718828
20
34.29865812856465
30
0.0
11
24.752922071865637
21
34.02897616636331
31
0.0
0
LINE
8
shape
62
0
5
280
100
AcDbEntity
100
AcDbLine
10
24.752922071865637
20
34.02897616636331
30
0.0
11
24.89065511787368
21
33.35122520673798
31
0.0
0
LINE
8
shape
62
0
5
281
100
AcDbEntity
100
AcDbLine
10
24.89065511787368
20
33.35122520673798
30
0.0
11
25.260367264602763
21
32.74094019989531
31
0.0
0
LINE
8
shape
62
0
5
282
100
AcDbEntity
100
AcDbLine
10
25.260367264602763
20
32.74094019989531
30
0.0
11
25.303708814455348
21
32.50417289390331
31
0.0
0
LINE
8
shape
62
0
5
283
100
AcDbEntity
100
AcDbLine
10
25.303708814455348
20
32.50417289390331
30
0.0
11
25.33396063448668
21
32.421522555521314
31
0.0
0
LINE
8
shape
62
0
5
284
100
AcDbEntity
100
AcDbLine
10
25.33396063448668
20
32.421522555521314
30
0.0
11
25.229460958080367
21
32.16520648962598
31
0.0
0
LINE
8
shape
62
0
5
285
100
AcDbEntity
100
AcDbLine
10
25.229460958080367
20
32.16520648962598
30
0.0
11
25.005481136694534
21
32.00790716575265
31
0.0
0
LINE
8
shape
62
0
5
286
100
AcDbEntity
100
AcDbLine
10
25.005481136694534
20
32.00790716575265
30
0.0
11
24.73190578343041
21
32.081010435344645
31
0.0
0
LINE
8
shape
62
0
5
287
100
AcDbEntity
100
AcDbLine
10
24.73190578343041
20
32.081010435344645
30
0.0
11
24.620352197064868
21
32.10856054813865
31
0.0
0
LINE
8
shape
62
0
5
288
100
AcDbEntity
100
AcDbLine
10
24.620352197064868
20
32.10856054813865
30
0.0
11
24.557739656086557
21
32.11519803405932
31
0.0
0
LINE
8
shape
62
0
5
289
100
AcDbEntity
100
AcDbLine
10
24.557739656086557
20
32.11519803405932
30
0.0
11
24.432223691245017
21
32.12665451660732
31
0.0
0
LINE
8
shape
62
0
5
28a
100
AcDbEntity
100
AcDbLine
10
24.432223691245017
20
32.12665451660732
30
0.0
11
23.339813016940475
21
32.26649634326465
31
0.0
0
LINE
8
shape
62
0
5
28b
100
AcDbEntity
100
AcDbLine
10
23.339813016940475
20
32.26649634326465
30
0.0
11
22.617405372249937
21
32.3577731402319
31
0.0
0
LINE
8
shape
62
0
5
28c
100
AcDbEntity
100
AcDbLine
10
22.617405372249937
20
32.3577731402319
30
0.0
11
21.89783383568733
21
32.34669172110065
31
0.0
0
LINE
8
shape
62
0
5
28d
100
AcDbEntity
100
AcDbLine
10
21.89783383568733
20
32.34669172110065
30
0.0
11
20.811895305572182
21
32.21948839503198
31
0.0
0
LINE
8
shape
62
0
5
28e
100
AcDbEntity
100
AcDbLine
10
20.811895305572182
20
32.21948839503198
30
0.0
11
20.00338632694631
21
31.96535451628865
31
0.0
0
LINE
8
shape
62
0
5
28f
100
AcDbEntity
100
AcDbLine
10
20.00338632694631
20
31.96535451628865
30
0.0
11
19.04950862658333
21
31.39780400783932
31
0.0
0
LINE
8
shape
62
0
5
290
100
AcDbEntity
100
AcDbLine
10
19.04950862658333
20
31.39780400783932
30
0.0
11
18.16529737715789
21
30.587212405335986
31
0.0
0
LINE
8
shape
62
0
5
291
100
AcDbEntity
100
AcDbLine
10
18.16529737715789
20
30.587212405335986
30
0.0
11
17.687958563009644
21
29.922736417551988
31
0.0
0
LINE
8
shape
62
0
5
292
100
AcDbEntity
100
AcDbLine
10
17.687958563009644
20
29.922736417551988
30
0.0
11
17.21949167685135
21
29.200159696845986
31
0.0
0
LINE
8
shape
62
0
5
293
100
AcDbEntity
100
AcDbLine
10
17.21949167685135
20
29.200159696845986
30
0.0
11
16.971441296738664
21
28.66406905317132
31
0.0
0
LINE
8
shape
62
0
5
294
100
AcDbEntity
100
AcDbLine
10
16.971441296738664
20
28.66406905317132
30
0.0
11
16.64296179894652
21
28.06642254691732
31
0.0
0
LINE
8
shape
62
0
5
295
100
AcDbEntity
100
AcDbLine
10
16.64296179894652
20
28.06642254691732
30
0.0
11
16.37920374304833
21
27.528149716090656
31
0.0
0
LINE
8
shape
62
0
5
296
100
AcDbEntity
100
AcDbLine
10
16.37920374304833
20
27.528149716090656
30
0.0
11
16.122281434945688
21
27.059252251804654
31
0.0
0
LINE
8
shape
62
0
5
297
100
AcDbEntity
100
AcDbLine
10
16.122281434945688
20
27.059252251804654
30
0.0
11
15.871903991753666
21
26.525798417605323
31
0.0
0
LINE
8
shape
62
0
5
298
100
AcDbEntity
100
AcDbLine
10
15.871903991753666
20
26.525798417605323
30
0.0
11
15.533970800201729
21
25.942608901233324
31
0.0
0
LINE
8
shape
62
0
5
299
100
AcDbEntity
100
AcDbLine
10
15.533970800201729
20
25.942608901233324
30
0.0
11
15.318572023920938
21
25.671472147597324
31
0.0
0
LINE
8
shape
62
0
5
29a
100
AcDbEntity
100
AcDbLine
10
15.318572023920938
20
25.671472147597324
30
0.0
11
15.102891454845384
21
25.579729362748658
31
0.0
0
LINE
8
shape
62
0
5
29b
100
AcDbEntity
100
AcDbLine
10
15.102891454845384
20
25.579729362748658
30
0.0
11
14.976493751258937
21
25.81695129106399
31
0.0
0
LINE
8
shape
62
0
5
29c
100
AcDbEntity
100
AcDbLine
10
14.976493751258937
20
25.81695129106399
30
0.0
11
14.861376849553167
21
26.53407254388999
31
0.0
0
LINE
8
shape
62
0
5
29d
100
AcDbEntity
100
AcDbLine
10
14.861376849553167
20
26.53407254388999
30
0.0
11
14.685683587063501
21
27.222916288204654
31
0.0
0
LINE
8
shape
62
0
5
29e
100
AcDbEntity
100
AcDbLine
10
14.685683587063501
20
27.222916288204654
30
0.0
11
14.670266794162918
21
27.346846333545322
31
0.0
0
LINE
8
shape
62
0
5
29f
100
AcDbEntity
100
AcDbLine
10
14.670266794162918
20
27.346846333545322
30
0.0
11
14.38811039579375
21
28.389295320948655
31
0.0
0
LINE
8
shape
62
0
5
2a0
100
AcDbEntity
100
AcDbLine
10
14.38811039579375
20
28.389295320948655
30
0.0
11
14.267321277832107
21
28.75908511874799
31
0.0
0
LINE
8
shape
62
0
5
2a1
100
AcDbEntity
100
AcDbLine
10
14.267321277832107
20
28.75908511874799
30
0.0
11
14.052795150206064
21
29.33372773544132
31
0.0
0
LINE
8
shape
62
0
5
2a2
100
AcDbEntity
100
AcDbLine
10
14.052795150206064
20
29.33372773544132
30
0.0
11
13.851286031680045
21
29.792259810755322
31
0.0
0
LINE
8
shape
62
0
5
2a3
100
AcDbEntity
100
AcDbLine
10
13.851286031680045
20
29.792259810755322
30
0.0
11
13.537423398854962
21
30.357264434193986
31
0.0
0
LINE
8
shape
62
0
5
2a4
100
AcDbEntity
100
AcDbLine
10
13.537423398854962
20
30.357264434193986
30
0.0
11
13.141604513204607
21
31.054291380328657
31
0.0
0
LINE
8
shape
62
0
5
2a5
100
AcDbEntity
100
AcDbLine
10
13.141604513204607
20
31.054291380328657
30
0.0
11
12.703680329962566
21
31.604111618167988
31
0.0
0
LINE
8
shape
62
0
5
2a6
100
AcDbEntity
100
AcDbLine
10
12.703680329962566
20
31.604111618167988
30
0.0
11
12.133695316968359
21
32.19693912779466
31
0.0
0
LINE
8
shape
62
0
5
2a7
100
AcDbEntity
100
AcDbLine
10
12.133695316968359
20
32.19693912779466
30
0.0
11
11.555711024638942
21
32.49144346884999
31
0.0
0
LINE
8
shape
62
0
5
2a8
100
AcDbEntity
100
AcDbLine
10
11.555711024638942
20
32.49144346884999
30
0.0
11
11.281553905604982
21
32.59682492339866
31
0.0
0
LINE
8
shape
62
0
5
2a9
100
AcDbEntity
100
AcDbLine
10
11.281553905604982
20
32.59682492339866
30
0.0
11
10.73454864051919
21
32.42400024718349
31
0.0
0
LINE
8
shape
62
0
5
2aa
100
AcDbEntity
100
AcDbLine
10
10.73454864051919
20
32.42400024718349
30
0.0
11
10.32084045744646
21
31.924256658259324
31
0.0
0
LINE
8
shape
62
0
5
2ab
100
AcDbEntity
100
AcDbLine
10
10.32084045744646
20
31.924256658259324
30
0.0
11
9.807577607011003
21
31.089570072619324
31
0.0
0
LINE
8
shape
62
0
5
2ac
100
AcDbEntity
100
AcDbLine
10
9.807577607011003
20
31.089570072619324
30
0.0
11
9.553564127757525
21
30.61358050008932
31
0.0
0
LINE
8
shape
62
0
5
2ad
100
AcDbEntity
100
AcDbLine
10
9.553564127757525
20
30.61358050008932
30
0.0
11
9.296932702539795
21
30.09831155882332
31
0.0
0
LINE
8
shape
62
0
5
2ae
100
AcDbEntity
100
AcDbLine
10
9.296932702539795
20
30.09831155882332
30
0.0
11
9.251554972492796
21
30.104221649026655
31
0.0
0
LINE
8
shape
62
0
5
2af
100
AcDbEntity
100
AcDbLine
10
9.251554972492796
20
30.104221649026655
30
0.0
11
9.253954756293359
21
30.272977455447986
31
0.0
0
LINE
8
shape
62
0
5
2b0
100
AcDbEntity
100
AcDbLine
10
9.253954756293359
20
30.272977455447986
30
0.0
11
9.344528414584286
21
30.76854988455557
31
0.0
0
LINE
8
shape
62
0
5
2b1
100
AcDbEntity
100
AcDbLine
10
9.344528414584286
20
30.76854988455557
30
0.0
11
9.255990936487775
21
31.272782868922654
31
0.0
0
LINE
8
shape
62
0
5
2b2
100
AcDbEntity
100
AcDbLine
10
9.255990936487775
20
31.272782868922654
30
0.0
11
9.01303100686113
21
31.682306657781318
31
0.0
0
LINE
8
shape
62
0
5
2b3
100
AcDbEntity
100
AcDbLine
10
9.01303100686113
20
31.682306657781318
30
0.0
11
8.70346798667872
21
31.815374611820985
31
0.0
0
LINE
8
shape
62
0
5
2b4
100
AcDbEntity
100
AcDbLine
10
8.70346798667872
20
31.815374611820985
30
0.0
11
8.352290533772921
21
31.783141889096655
31
0.0
0
LINE
8
shape
62
0
5
2b5
100
AcDbEntity
100
AcDbLine
10
8.352290533772921
20
31.783141889096655
30
0.0
11
7.986141702384068
21
31.477908461210653
31
0.0
0
LINE
8
shape
62
0
5
2b6
100
AcDbEntity
100
AcDbLine
10
7.986141702384068
20
31.477908461210653
30
0.0
11
7.832482818426839
21
31.105027231612652
31
0.0
0
LINE
8
shape
62
0
5
2b7
100
AcDbEntity
100
AcDbLine
10
7.832482818426839
20
31.105027231612652
30
0.0
11
7.812848223694965
21
30.583484502284655
31
0.0
0
LINE
8
shape
62
0
5
2b8
100
AcDbEntity
100
AcDbLine
10
7.812848223694965
20
30.583484502284655
30
0.0
11
7.998286062829339
21
29.94946821016399
31
0.0
0
LINE
8
shape
62
0
5
2b9
100
AcDbEntity
100
AcDbLine
10
7.998286062829339
20
29.94946821016399
30
0.0
11
8.180742352393318
21
29.40819487200332
31
0.0
0
LINE
8
shape
62
0
5
2ba
100
AcDbEntity
100
AcDbLine
10
8.180742352393318
20
29.40819487200332
30
0.0
11
7.921838404637178
21
29.356788452792404
31
0.0
0
LINE
8
shape
62
0
5
2bb
100
AcDbEntity
100
AcDbLine
10
7.921838404637178
20
29.356788452792404
30
0.0
11
7.813139106579881
21
29.640143181367986
31
0.0
0
LINE
8
shape
62
0
5
2bc
100
AcDbEntity
100
AcDbLine
10
7.813139106579881
20
29.640143181367986
30
0.0
11
7.645472393695884
21
30.326247826184566
31
0.0
0
LINE
8
shape
62
0
5
2bd
100
AcDbEntity
100
AcDbLine
10
7.645472393695884
20
30.326247826184566
30
0.0
11
7.251735138690715
21
30.866896058650653
31
0.0
0
LINE
8
shape
62
0
5
2be
100
AcDbEntity
100
AcDbLine
10
7.251735138690715
20
30.866896058650653
30
0.0
11
6.749544018062397
21
30.982301935428822
31
0.0
0
LINE
8
shape
62
0
5
2bf
100
AcDbEntity
100
AcDbLine
10
6.749544018062397
20
30.982301935428822
30
0.0
11
6.310292681657924
21
30.682955866629985
31
0.0
0
LINE
8
shape
62
0
5
2c0
100
AcDbEntity
100
AcDbLine
10
6.310292681657924
20
30.682955866629985
30
0.0
11
6.126736491185354
21
30.211773925169236
31
0.0
0
LINE
8
shape
62
0
5
2c1
100
AcDbEntity
100
AcDbLine
10
6.126736491185354
20
30.211773925169236
30
0.0
11
6.126381977669362
21
29.702881061987988
31
0.0
0
LINE
8
shape
62
0
5
2c2
100
AcDbEntity
100
AcDbLine
10
6.126381977669362
20
29.702881061987988
30
0.0
11
6.463151637681633
21
29.098233371954652
31
0.0
0
LINE
8
shape
62
0
5
2c3
100
AcDbEntity
100
AcDbLine
10
6.463151637681633
20
29.098233371954652
30
0.0
11
6.767269693862008
21
28.95757322511532
31
0.0
0
LINE
8
shape
62
0
5
2c4
100
AcDbEntity
100
AcDbLine
10
6.767269693862008
20
28.95757322511532
30
0.0
11
6.996921731503716
21
28.78518044010732
31
0.0
0
LINE
8
shape
62
0
5
2c5
100
AcDbEntity
100
AcDbLine
10
6.996921731503716
20
28.78518044010732
30
0.0
11
6.981214055718216
21
28.582964430688655
31
0.0
0
LINE
8
shape
62
0
5
2c6
100
AcDbEntity
100
AcDbLine
10
6.981214055718216
20
28.582964430688655
30
0.0
11
6.629036692895515
21
28.407321096068824
31
0.0
0
LINE
8
shape
62
0
5
2c7
100
AcDbEntity
100
AcDbLine
10
6.629036692895515
20
28.407321096068824
30
0.0
11
6.3124743032948
21
28.708349267463987
31
0.0
0
LINE
8
shape
62
0
5
2c8
100
AcDbEntity
100
AcDbLine
10
6.3124743032948
20
28.708349267463987
30
0.0
11
6.118164536170467
21
28.95348162420532
31
0.0
0
LINE
8
shape
62
0
5
2c9
100
AcDbEntity
100
AcDbLine
10
6.118164536170467
20
28.95348162420532
30
0.0
11
5.7992478132199565
21
29.093198429723735
31
0.0
0
LINE
8
shape
62
0
5
2ca
100
AcDbEntity
100
AcDbLine
10
5.7992478132199565
20
29.093198429723735
30
0.0
11
5.459169360391759
21
29.098233371954656
31
0.0
0
LINE
8
shape
62
0
5
2cb
100
AcDbEntity
100
AcDbLine
10
5.459169360391759
20
29.098233371954656
30
0.0
11
4.99572020399828
21
28.841917306059322
31
0.0
0
LINE
8
shape
62
0
5
2cc
100
AcDbEntity
100
AcDbLine
10
4.99572020399828
20
28.841917306059322
30
0.0
11
4.80286485129853
21
28.34146905253399
31
0.0
0
LINE
8
shape
62
0
5
2cd
100
AcDbEntity
100
AcDbLine
10
4.80286485129853
20
28.34146905253399
30
0.0
11
4.799010653073385
21
28.236905918167324
31
0.0
0
LINE
8
shape
62
0
5
2ce
100
AcDbEntity
100
AcDbLine
10
4.799010653073385
20
28.236905918167324
30
0.0
11
4.899028915033949
21
27.644032946308325
31
0.0
0
LINE
8
shape
62
0
5
2cf
100
AcDbEntity
100
AcDbLine
10
4.899028915033949
20
27.644032946308325
30
0.0
11
5.252060746331092
21
27.231463187883325
31
0.0
0
LINE
8
shape
62
0
5
2d0
100
AcDbEntity
100
AcDbLine
10
5.252060746331092
20
27.231463187883325
30
0.0
11
5.415246044769343
21
27.201458114543325
31
0.0
0
LINE
8
shape
62
0
5
2d1
100
AcDbEntity
100
AcDbLine
10
5.415246044769343
20
27.201458114543325
30
0.0
11
5.611373829924405
21
27.124990639758657
31
0.0
0
LINE
8
shape
62
0
5
2d2
100
AcDbEntity
100
AcDbLine
10
5.611373829924405
20
27.124990639758657
30
0.0
11
5.720527632489384
21
27.10280507037999
31
0.0
0
LINE
8
shape
62
0
5
2d3
100
AcDbEntity
100
AcDbLine
10
5.720527632489384
20
27.10280507037999
30
0.0
11
6.0768591665123015
21
27.218824687294656
31
0.0
0
LINE
8
shape
62
0
5
2d4
100
AcDbEntity
100
AcDbLine
10
6.0768591665123015
20
27.218824687294656
30
0.0
11
6.543580755361093
21
27.364303830761322
31
0.0
0
LINE
8
shape
62
0
5
2d5
100
AcDbEntity
100
AcDbLine
10
6.543580755361093
20
27.364303830761322
30
0.0
11
6.61717412524501
21
27.326115555601323
31
0.0
0
LINE
8
shape
62
0
5
2d6
100
AcDbEntity
100
AcDbLine
10
6.61717412524501
20
27.326115555601323
30
0.0
11
6.614483458559531
21
26.78293280368266
31
0.0
0
LINE
8
shape
62
0
5
2d7
100
AcDbEntity
100
AcDbLine
10
6.614483458559531
20
26.78293280368266
30
0.0
11
6.277422915662343
21
26.447239680133325
31
0.0
0
LINE
8
shape
62
0
5
2d8
100
AcDbEntity
100
AcDbLine
10
6.277422915662343
20
26.447239680133325
30
0.0
11
5.737980605584385
21
26.256082358729742
31
0.0
0
LINE
8
shape
62
0
5
2d9
100
AcDbEntity
100
AcDbLine
10
5.737980605584385
20
26.256082358729742
30
0.0
11
5.332708026174239
21
25.79140151649266
31
0.0
0
LINE
8
shape
62
0
5
2da
100
AcDbEntity
100
AcDbLine
10
5.332708026174239
20
25.79140151649266
30
0.0
11
5.169759070079984
21
25.22970427045624
31
0.0
0
LINE
8
shape
62
0
5
2db
100
AcDbEntity
100
AcDbLine
10
5.169759070079984
20
25.22970427045624
30
0.0
11
5.237734764248947
21
24.648844693491323
31
0.0
0
LINE
8
shape
62
0
5
2dc
100
AcDbEntity
100
AcDbLine
10
5.237734764248947
20
24.648844693491323
30
0.0
11
5.445643306243135
21
24.255585018249906
31
0.0
0
LINE
8
shape
62
0
5
2dd
100
AcDbEntity
100
AcDbLine
10
5.445643306243135
20
24.255585018249906
30
0.0
11
5.8204459034582605
21
24.051561885095992
31
0.0
0
LINE
8
shape
62
0
5
2de
100
AcDbEntity
100
AcDbLine
10
5.8204459034582605
20
24.051561885095992
30
0.0
11
5.92429109337351
21
24.00228082524666
31
0.0
0
LINE
8
shape
62
0
5
2df
100
AcDbEntity
100
AcDbLine
10
5.92429109337351
20
24.00228082524666
30
0.0
11
6.028790769779822
21
23.95618212166066
31
0.0
0
LINE
8
shape
62
0
5
2e0
100
AcDbEntity
100
AcDbLine
10
6.028790769779822
20
23.95618212166066
30
0.0
11
6.512901701092539
21
24.17576470383066
31
0.0
0
LINE
8
shape
62
0
5
2e1
100
AcDbEntity
100
AcDbLine
10
6.512901701092539
20
24.17576470383066
30
0.0
11
6.9002031722689265
21
24.59392631683266
31
0.0
0
LINE
8
shape
62
0
5
2e2
100
AcDbEntity
100
AcDbLine
10
6.9002031722689265
20
24.59392631683266
30
0.0
11
7.026591785765218
21
25.039819891557993
31
0.0
0
LINE
8
shape
62
0
5
2e3
100
AcDbEntity
100
AcDbLine
10
7.026591785765218
20
25.039819891557993
30
0.0
11
7.193340399543698
21
25.343689452473992
31
0.0
0
LINE
8
shape
62
0
5
2e4
100
AcDbEntity
100
AcDbLine
10
7.193340399543698
20
25.343689452473992
30
0.0
11
7.390631716238427
21
25.580365834001327
31
0.0
0
LINE
8
shape
62
0
5
2e5
100
AcDbEntity
100
AcDbLine
10
7.390631716238427
20
25.580365834001327
30
0.0
11
7.541599933510176
21
25.686633802080493
31
0.0
0
LINE
8
shape
62
0
5
2e6
100
AcDbEntity
100
AcDbLine
10
7.541599933510176
20
25.686633802080493
30
0.0
11
7.702167285984177
21
25.66019751397866
31
0.0
0
LINE
8
shape
62
0
5
2e7
100
AcDbEntity
100
AcDbLine
10
7.702167285984177
20
25.66019751397866
30
0.0
11
7.832991863475448
21
25.586639622063327
31
0.0
0
LINE
8
shape
62
0
5
2e8
100
AcDbEntity
100
AcDbLine
10
7.832991863475448
20
25.586639622063327
30
0.0
11
7.934219107426448
21
25.15747614883666
31
0.0
0
LINE
8
shape
62
0
5
2e9
100
AcDbEntity
100
AcDbLine
10
7.934219107426448
20
25.15747614883666
30
0.0
11
7.927383359630906
21
24.331245538410663
31
0.0
0
LINE
8
shape
62
0
5
2ea
100
AcDbEntity
100
AcDbLine
10
7.927383359630906
20
24.331245538410663
30
0.0
11
8.031092198193852
21
23.71140209721991
31
0.0
0
LINE
8
shape
62
0
5
2eb
100
AcDbEntity
100
AcDbLine
10
8.031092198193852
20
23.71140209721991
30
0.0
11
8.34778184905672
21
23.21942118446666
31
0.0
0
LINE
8
shape
62
0
5
2ec
100
AcDbEntity
100
AcDbLine
10
8.34778184905672
20
23.21942118446666
30
0.0
11
8.50653118349999
21
23.176777610537993
31
0.0
0
LINE
8
shape
62
0
5
2ed
100
AcDbEntity
100
AcDbLine
10
8.50653118349999
20
23.176777610537993
30
0.0
11
8.557581129802864
21
23.164866505666662
31
0.0
0
LINE
8
shape
62
0
5
2ee
100
AcDbEntity
100
AcDbLine
10
8.557581129802864
20
23.164866505666662
30
0.0
11
9.224784656990314
21
23.16200238502966
31
0.0
0
LINE
8
shape
62
0
5
2ef
100
AcDbEntity
100
AcDbLine
10
9.224784656990314
20
23.16200238502966
30
0.0
11
9.766054075189155
21
23.64385658553066
31
0.0
0
LINE
8
shape
62
0
5
2f0
100
AcDbEntity
100
AcDbLine
10
9.766054075189155
20
23.64385658553066
30
0.0
11
9.808159372780842
21
23.722869945325996
31
0.0
0
LINE
8
shape
62
0
5
2f1
100
AcDbEntity
100
AcDbLine
10
9.808159372780842
20
23.722869945325996
30
0.0
11
9.935675157456187
21
24.088284003263244
31
0.0
0
LINE
8
shape
62
0
5
2f2
100
AcDbEntity
100
AcDbLine
10
9.935675157456187
20
24.088284003263244
30
0.0
11
9.919422076261469
21
24.494818650345994
31
0.0
0
LINE
8
shape
62
0
5
2f3
100
AcDbEntity
100
AcDbLine
10
9.919422076261469
20
24.494818650345994
30
0.0
11
9.658863732097364
21
25.200392496159328
31
0.0
0
LINE
8
shape
62
0
5
2f4
100
AcDbEntity
100
AcDbLine
10
9.658863732097364
20
25.200392496159328
30
0.0
11
9.40964982044501
21
25.456072090801996
31
0.0
0
LINE
8
shape
62
0
5
2f5
100
AcDbEntity
100
AcDbLine
10
9.40964982044501
20
25.456072090801996
30
0.0
11
9.24290120666653
21
25.653014481269995
31
0.0
0
LINE
8
shape
62
0
5
2f6
100
AcDbEntity
100
AcDbLine
10
9.24290120666653
20
25.653014481269995
30
0.0
11
9.363108558858343
21
25.942427052303994
31
0.0
0
LINE
8
shape
62
0
5
2f7
100
AcDbEntity
100
AcDbLine
10
9.363108558858343
20
25.942427052303994
30
0.0
11
10.10515079828076
21
26.594264539499328
31
0.0
0
LINE
8
shape
62
0
5
2f8
100
AcDbEntity
100
AcDbLine
10
10.10515079828076
20
26.594264539499328
30
0.0
11
10.463227629613177
21
26.924411270703995
31
0.0
0
LINE
8
shape
62
0
5
2f9
100
AcDbEntity
100
AcDbLine
10
10.463227629613177
20
26.924411270703995
30
0.0
11
10.727858334166115
21
27.057615611440664
31
0.0
0
LINE
8
shape
62
0
5
2fa
100
AcDbEntity
100
AcDbLine
10
10.727858334166115
20
27.057615611440664
30
0.0
11
10.745965793752177
21
27.055069726429995
31
0.0
0
LINE
8
shape
62
0
5
2fb
100
AcDbEntity
100
AcDbLine
10
10.745965793752177
20
27.055069726429995
30
0.0
11
10.836139488076345
21
26.692281112409994
31
0.0
0
LINE
8
shape
62
0
5
2fc
100
AcDbEntity
100
AcDbLine
10
10.836139488076345
20
26.692281112409994
30
0.0
11
10.84530229895122
21
26.46224221680333
31
0.0
0
LINE
8
shape
62
0
5
2fd
100
AcDbEntity
100
AcDbLine
10
10.84530229895122
20
26.46224221680333
30
0.0
11
10.960128317772075
21
25.277769215590663
31
0.0
0
LINE
8
shape
62
0
5
2fe
100
AcDbEntity
100
AcDbLine
10
10.960128317772075
20
25.277769215590663
30
0.0
11
11.160110301152283
21
24.26096092722333
31
0.0
0
LINE
8
shape
62
0
5
2ff
100
AcDbEntity
100
AcDbLine
10
11.160110301152283
20
24.26096092722333
30
0.0
11
11.338712392491116
21
23.669588209031332
31
0.0
0
LINE
8
shape
62
0
5
300
100
AcDbEntity
100
AcDbLine
10
11.338712392491116
20
23.669588209031332
30
0.0
11
11.77103708019851
21
21.979847957666003
31
0.0
0
LINE
8
shape
62
0
5
301
100
AcDbEntity
100
AcDbLine
10
11.77103708019851
20
21.979847957666003
30
0.0
11
11.733076863716887
21
21.923383865108004
31
0.0
0
LINE
8
shape
62
0
5
302
100
AcDbEntity
100
AcDbLine
10
11.733076863716887
20
21.923383865108004
30
0.0
11
11.23108572507195
21
21.325100887601337
31
0.0
0
LINE
8
shape
62
0
5
303
100
AcDbEntity
100
AcDbLine
10
11.23108572507195
20
21.325100887601337
30
0.0
11
10.79643397428522
21
21.027596039212007
31
0.0
0
LINE
8
shape
62
0
5
304
100
AcDbEntity
100
AcDbLine
10
10.79643397428522
20
21.027596039212007
30
0.0
11
10.589325360224553
21
20.869933017480008
31
0.0
0
LINE
8
shape
62
0
5
305
100
AcDbEntity
100
AcDbLine
10
10.589325360224553
20
20.869933017480008
30
0.0
11
8.72309349132045
21
19.780021459520672
31
0.0
0
LINE
8
shape
62
0
5
306
100
AcDbEntity
100
AcDbLine
10
8.72309349132045
20
19.780021459520672
30
0.0
11
8.186705451534115
21
19.504065709257336
31
0.0
0
LINE
8
shape
62
0
5
307
100
AcDbEntity
100
AcDbLine
10
8.186705451534115
20
19.504065709257336
30
0.0
11
7.613448006084596
21
19.13191187537667
31
0.0
0
LINE
8
shape
62
0
5
308
100
AcDbEntity
100
AcDbLine
10
7.613448006084596
20
19.13191187537667
30
0.0
11
7.515565915310137
21
19.074811311566002
31
0.0
0
LINE
8
shape
62
0
5
309
100
AcDbEntity
100
AcDbLine
10
7.515565915310137
20
19.074811311566002
30
0.0
11
7.4686610501173245
21
19.065173318311338
31
0.0
0
LINE
8
shape
62
0
5
30a
100
AcDbEntity
100
AcDbLine
10
7.4686610501173245
20
19.065173318311338
30
0.0
11
7.076114596922284
21
18.850046034910005
31
0.0
0
LINE
8
shape
62
0
5
30b
100
AcDbEntity
100
AcDbLine
10
7.076114596922284
20
18.850046034910005
30
0.0
11
6.8895132262482415
21
18.752484084322674
31
0.0
0
LINE
8
shape
62
0
5
30c
100
AcDbEntity
100
AcDbLine
10
6.8895132262482415
20
18.752484084322674
30
0.0
11
6.539435674251033
21
18.50462399364134
31
0.0
0
LINE
8
shape
62
0
5
30d
100
AcDbEntity
100
AcDbLine
10
6.539435674251033
20
18.50462399364134
30
0.0
11
4.753269319420242
21
17.461811308379342
31
0.0
0
LINE
8
shape
62
0
5
30e
100
AcDbEntity
100
AcDbLine
10
4.753269319420242
20
17.461811308379342
30
0.0
11
4.520635732208138
21
17.351701781668005
31
0.0
0
LINE
8
shape
62
0
5
30f
100
AcDbEntity
100
AcDbLine
10
4.520635732208138
20
17.351701781668005
30
0.0
11
2.7613862705835617
21
15.504888096896245
31
0.0
0
LINE
8
shape
62
0
5
310
100
AcDbEntity
100
AcDbLine
10
2.7613862705835617
20
15.504888096896245
30
0.0
11
2.0189518789906105
21
14.403372481720673
31
0.0
0
LINE
8
shape
62
0
5
311
100
AcDbEntity
100
AcDbLine
10
2.0189518789906105
20
14.403372481720673
30
0.0
11
1.3917812508724747
21
13.202193353233422
31
0.0
0
LINE
8
shape
62
0
5
312
100
AcDbEntity
100
AcDbLine
10
1.3917812508724747
20
13.202193353233422
30
0.0
11
0.897727039225598
21
11.915657462845576
31
0.0
0
LINE
8
shape
62
0
5
313
100
AcDbEntity
100
AcDbLine
10
0.897727039225598
20
11.915657462845576
30
0.0
11
0.5546418970464232
21
10.558071561968225
31
0.0
0
LINE
8
shape
62
0
5
314
100
AcDbEntity
100
AcDbLine
10
0.5546418970464232
20
10.558071561968225
30
0.0
11
0.3803784773313934
21
9.143742402012451
31
0.0
0
LINE
8
shape
62
0
5
315
100
AcDbEntity
100
AcDbLine
10
0.3803784773313934
20
9.143742402012451
30
0.0
11
0.3927894330769517
21
7.68697673438934
31
0.0
0
LINE
8
shape
62
0
5
316
100
AcDbEntity
100
AcDbLine
10
0.3927894330769517
20
7.68697673438934
30
0.0
11
0.5952814176008354
21
6.2199872145097395
31
0.0
0
LINE
8
shape
62
0
5
317
100
AcDbEntity
100
AcDbLine
10
0.5952814176008354
20
6.2199872145097395
30
0.0
11
0.9780912479800532
21
4.831062030325511
31
0.0
0
LINE
8
shape
62
0
5
318
100
AcDbEntity
100
AcDbLine
10
0.9780912479800532
20
4.831062030325511
30
0.0
11
1.5427528769280325
21
3.555099127931531
31
0.0
0
LINE
8
shape
62
0
5
319
100
AcDbEntity
100
AcDbLine
10
1.5427528769280325
20
3.555099127931531
30
0.0
11
2.2908002571582013
21
2.4269964534226744
31
0.0
0
LINE
8
shape
62
0
5
31a
100
AcDbEntity
100
AcDbLine
10
2.2908002571582013
20
2.4269964534226744
30
0.0
11
2.2908002571582076
21
2.4269964534226673
31
0.0
0
ENDSEC
0
SECTION
2
OBJECTS
0
DICTIONARY
5
C
330
0
100
AcDbDictionary
3
ACAD_GROUP
350
D
3
ACAD_MLINESTYLE
350
17
0
DICTIONARY
5
D
330
C
100
AcDbDictionary
0
DICTIONARY
5
1A
330
C
100
AcDbDictionary
0
DICTIONARY
5
17
330
C
100
AcDbDictionary
3
STANDARD
350
18
0
DICTIONARY
5
19
330
C
100
AcDbDictionary
0
ENDSEC
0
EOF
