0
SECTION
2
HEADER
9
$ACADVER
1
AC1014
9
$HANDSEED
5
FFFF
0
ENDSEC
0
SECTION
2
TABLES
0
TABLE
2
VPORT
5
8
330
0
100
AcDbSymbolTable
70
4
0
VPORT
5
2E
330
8
100
AcDbSymbolTableRecord
100
AcDbViewportTableRecord
2
*ACTIVE
70
0
10
0.0
20
0.0
11
1.0
21
1.0
12
4.25
22
5.5
13
0.0
23
0.0
14
10.0
24
10.0
15
10.0
25
10.0
16
0.0
26
0.0
36
1.0
17
0.0
27
0.0
37
0.0
40
11
41
1.24
42
50.0
43
0.0
44
0.0
50
0.0
51
0.0
71
0
72
100
73
1
74
3
75
0
76
0
77
0
78
0
0
ENDTAB
0
TABLE
2
LTYPE
5
5
330
0
100
AcDbSymbolTable
70
1
0
LTYPE
5
14
330
5
100
AcDbSymbolTableRecord
100
AcDbLinetypeTableRecord
2
BYBLOCK
70
0
3

72
65
73
0
40
0.0
0
LTYPE
5
15
330
5
100
AcDbSymbolTableRecord
100
AcDbLinetypeTableRecord
2
BYLAYER
70
0
3

72
65
73
0
40
0.0
0
LTYPE
5
16
330
5
100
AcDbSymbolTableRecord
100
AcDbLinetypeTableRecord
2
CONTINUOUS
70
0
3
Solid line
72
65
73
0
40
0.0
0
ENDTAB
0
TABLE
2
LAYER
5
2
330
0
100
AcDbSymbolTable
70
1
0
LAYER
5
10
330
2
100
AcDbSymbolTableRecord
100
AcDbLayerTableRecord
2
0
70
0
62
7
6
CONTINUOUS
0
ENDTAB
0
TABLE
2
STYLE
5
3
330
0
100
AcDbSymbolTable
70
1
0
STYLE
5
11
330
3
100
AcDbSymbolTableRecord
100
AcDbTextStyleTableRecord
2
STANDARD
70
0
40
0.0
41
1.0
50
0.0
71
0
42
2.5
3
txt
4

0
ENDTAB
0
TABLE
2
VIEW
5
6
330
0
100
AcDbSymbolTable
70
0
0
ENDTAB
0
TABLE
2
UCS
5
7
330
0
100
AcDbSymbolTable
70
0
0
ENDTAB
0
TABLE
2
APPID
5
9
330
0
100
AcDbSymbolTable
70
2
0
APPID
5
12
330
9
100
AcDbSymbolTableRecord
100
AcDbRegAppTableRecord
2
ACAD
70
0
0
ENDTAB
0
TABLE
2
DIMSTYLE
5
A
330
0
100
AcDbSymbolTable
70
1
0
DIMSTYLE
105
27
330
A
100
AcDbSymbolTableRecord
100
AcDbDimStyleTableRecord
2
ISO-25
70
0
3

4

5

6

7

40
1.0
41
2.5
42
0.625
43
3.75
44
1.25
45
0.0
46
0.0
47
0.0
48
0.0
140
2.5
141
2.5
142
0.0
143
0.03937007874016
144
1.0
145
0.0
146
1.0
147
0.625
71
0
72
0
73
0
74
0
75
0
76
0
77
1
78
8
170
0
171
3
172
1
173
0
174
0
175
0
176
0
177
0
178
0
270
2
271
2
272
2
273
2
274
3
340
11
275
0
280
0
281
0
282
0
283
0
284
8
285
0
286
0
287
3
288
0
0
ENDTAB
0
TABLE
2
BLOCK_RECORD
5
1
330
0
100
AcDbSymbolTable
70
1
0
BLOCK_RECORD
5
1F
330
1
100
AcDbSymbolTableRecord
100
AcDbBlockTableRecord
2
*MODEL_SPACE
0
BLOCK_RECORD
5
1B
330
1
100
AcDbSymbolTableRecord
100
AcDbBlockTableRecord
2
*PAPER_SPACE
0
ENDTAB
0
ENDSEC
0
SECTION
2
BLOCKS
0
BLOCK
5
20
330
1F
100
AcDbEntity
8
0
100
AcDbBlockBegin
2
*MODEL_SPACE
70
0
10
0.0
20
0.0
30
0.0
3
*MODEL_SPACE
1

0
ENDBLK
5
21
330
1F
100
AcDbEntity
8
0
100
AcDbBlockEnd
0
BLOCK
5
1C
330
1B
100
AcDbEntity
67
1
8
0
100
AcDbBlockBegin
2
*PAPER_SPACE
1

0
ENDBLK
5
1D
330
1B
100
AcDbEntity
67
1
8
0
100
AcDbBlockEnd
0
ENDSEC
0
SECTION
2
ENTITIES
0
LINE
8
foo
62
0
5
100
100
AcDbEntity
100
AcDbLine
10
10.000146852586797
20
40.00022067994801
30
0.0
11
8.177870797888218
21
39.81662061983873
31
0.0
0
LINE
8
foo
62
0
5
101
100
AcDbEntity
100
AcDbLine
10
8.177870797888218
20
39.81662061983873
30
0.0
11
6.4844839565981705
21
39.2814477441832
31
0.0
0
LINE
8
foo
62
0
5
102
100
AcDbEntity
100
AcDbLine
10
6.4844839565981705
20
39.2814477441832
30
0.0
11
4.955148258338626
21
38.418143009989805
31
0.0
0
LINE
8
foo
62
0
5
103
100
AcDbEntity
100
AcDbLine
10
4.955148258338626
20
38.418143009989805
30
0.0
11
3.625025632731554
21
37.250147374267
31
0.0
0
LINE
8
foo
62
0
5
104
100
AcDbEntity
100
AcDbLine
10
3.625025632731554
20
37.250147374267
30
0.0
11
2.5292780093989222
21
35.80090179402319
31
0.0
0
LINE
8
foo
62
0
5
105
100
AcDbEntity
100
AcDbLine
10
2.5292780093989222
20
35.80090179402319
30
0.0
11
1.7030673179627
21
34.09384722626682
31
0.0
0
LINE
8
foo
62
0
5
106
100
AcDbEntity
100
AcDbLine
10
1.7030673179627
20
34.09384722626682
30
0.0
11
1.1815554880448564
21
32.15242462800628
31
0.0
0
LINE
8
foo
62
0
5
107
100
AcDbEntity
100
AcDbLine
10
1.1815554880448564
20
32.15242462800628
30
0.0
11
0.9999044492673598
21
30.000074956250003
31
0.0
0
LINE
8
foo
62
0
5
108
100
AcDbEntity
100
AcDbLine
10
0.9999044492673598
20
30.000074956250003
30
0.0
11
1.2132815338648846
21
28.136062690419557
31
0.0
0
LINE
8
foo
62
0
5
109
100
AcDbEntity
100
AcDbLine
10
1.2132815338648846
20
28.136062690419557
30
0.0
11
1.8163037294665854
21
26.291095606845996
31
0.0
0
LINE
8
foo
62
0
5
10a
100
AcDbEntity
100
AcDbLine
10
1.8163037294665854
20
26.291095606845996
30
0.0
11
2.7533074487861513
21
24.46077885681939
31
0.0
0
LINE
8
foo
62
0
5
10b
100
AcDbEntity
100
AcDbLine
10
2.7533074487861513
20
24.46077885681939
30
0.0
11
3.9686291045372712
21
22.64071759162979
31
0.0
0
LINE
8
foo
62
0
5
10c
100
AcDbEntity
100
AcDbLine
10
3.9686291045372712
20
22.64071759162979
30
0.0
11
7.01157187618893
21
19.01378212092188
31
0.0
0
LINE
8
foo
62
0
5
10d
100
AcDbEntity
100
AcDbLine
10
7.01157187618893
20
19.01378212092188
30
0.0
11
10.499823346131077
21
15.37513040504276
31
0.0
0
LINE
8
foo
62
0
5
10e
100
AcDbEntity
100
AcDbLine
10
10.499823346131077
20
15.37513040504276
30
0.0
11
13.988074816073224
21
11.689603654312922
31
0.0
0
LINE
8
foo
62
0
5
10f
100
AcDbEntity
100
AcDbLine
10
13.988074816073224
20
11.689603654312922
30
0.0
11
15.593041582828521
21
9.818275019104135
31
0.0
0
LINE
8
foo
62
0
5
110
100
AcDbEntity
100
AcDbLine
10
15.593041582828521
20
9.818275019104135
30
0.0
11
17.031017587724882
21
7.922043079052852
31
0.0
0
LINE
8
foo
62
0
5
111
100
AcDbEntity
100
AcDbLine
10
17.031017587724882
20
7.922043079052852
30
0.0
11
18.246339243476008
21
5.996512985449137
31
0.0
0
LINE
8
foo
62
0
5
112
100
AcDbEntity
100
AcDbLine
10
18.246339243476008
20
5.996512985449137
30
0.0
11
19.18334296279557
21
4.0372898895830485
31
0.0
0
LINE
8
foo
62
0
5
113
100
AcDbEntity
100
AcDbLine
10
19.18334296279557
20
4.0372898895830485
30
0.0
11
19.78636515839727
21
2.039978942744651
31
0.0
0
LINE
8
foo
62
0
5
114
100
AcDbEntity
100
AcDbLine
10
19.78636515839727
20
2.039978942744651
30
0.0
11
19.999742242994795
21
0.00018529622400365042
31
0.0
0
LINE
8
foo
62
0
5
115
100
AcDbEntity
100
AcDbLine
10
19.999742242994795
20
0.00018529622400365042
30
0.0
11
20.12081793095693
21
1.5323725359525961
31
0.0
0
LINE
8
foo
62
0
5
116
100
AcDbEntity
100
AcDbLine
10
20.12081793095693
20
1.5323725359525961
30
0.0
11
20.46843504022179
21
3.0400705065157276
31
0.0
0
LINE
8
foo
62
0
5
117
100
AcDbEntity
100
AcDbLine
10
20.46843504022179
20
3.0400705065157276
30
0.0
11
21.019178638857014
21
4.525137145006687
31
0.0
0
LINE
8
foo
62
0
5
118
100
AcDbEntity
100
AcDbLine
10
21.019178638857014
20
4.525137145006687
30
0.0
11
21.74963379493027
21
5.9894303885187625
31
0.0
0
LINE
8
foo
62
0
5
119
100
AcDbEntity
100
AcDbLine
10
21.74963379493027
20
5.9894303885187625
30
0.0
11
23.65601905166146
21
8.863128438979421
31
0.0
0
LINE
8
foo
62
0
5
11a
100
AcDbEntity
100
AcDbLine
10
23.65601905166146
20
8.863128438979421
30
0.0
11
26.000271354956592
21
11.676028154644015
31
0.0
0
LINE
8
foo
62
0
5
11b
100
AcDbEntity
100
AcDbLine
10
26.000271354956592
20
11.676028154644015
30
0.0
11
26.000271354956592
21
5.000259569184024
31
0.0
0
LINE
8
foo
62
0
5
11c
100
AcDbEntity
100
AcDbLine
10
26.000271354956592
20
5.000259569184024
30
0.0
11
26.081239353568137
21
4.192142840497555
31
0.0
0
LINE
8
foo
62
0
5
11d
100
AcDbEntity
100
AcDbLine
10
26.081239353568137
20
4.192142840497555
30
0.0
11
26.313586799348585
21
3.4403579826359225
31
0.0
0
LINE
8
foo
62
0
5
11e
100
AcDbEntity
100
AcDbLine
10
26.313586799348585
20
3.4403579826359225
30
0.0
11
27.169080732091018
21
2.169174733770765
31
0.0
0
LINE
8
foo
62
0
5
11f
100
AcDbEntity
100
AcDbLine
10
27.169080732091018
20
2.169174733770765
30
0.0
11
28.440074552533588
21
1.3134915313557352
31
0.0
0
LINE
8
foo
62
0
5
120
100
AcDbEntity
100
AcDbLine
10
28.440074552533588
20
1.3134915313557352
30
0.0
11
29.191796857939202
21
1.0810817315567633
31
0.0
0
LINE
8
foo
62
0
5
121
100
AcDbEntity
100
AcDbLine
10
29.191796857939202
20
1.0810817315567633
30
0.0
11
29.99988966002599
21
1.0000900841580176
31
0.0
0
LINE
8
foo
62
0
5
122
100
AcDbEntity
100
AcDbLine
10
29.99988966002599
20
1.0000900841580176
30
0.0
11
30.808006388712457
21
1.0810817315567633
31
0.0
0
LINE
8
foo
62
0
5
123
100
AcDbEntity
100
AcDbLine
10
30.808006388712457
20
1.0810817315567633
30
0.0
11
31.55979124657409
21
1.3134915313557352
31
0.0
0
LINE
8
foo
62
0
5
124
100
AcDbEntity
100
AcDbLine
10
31.55979124657409
20
1.3134915313557352
30
0.0
11
32.83097449543925
21
2.169174733770765
31
0.0
0
LINE
8
foo
62
0
5
125
100
AcDbEntity
100
AcDbLine
10
32.83097449543925
20
2.169174733770765
30
0.0
11
33.68665769785427
21
3.4403579826359225
31
0.0
0
LINE
8
foo
62
0
5
126
100
AcDbEntity
100
AcDbLine
10
33.68665769785427
20
3.4403579826359225
30
0.0
11
33.919067497653245
21
4.192142840497555
31
0.0
0
LINE
8
foo
62
0
5
127
100
AcDbEntity
100
AcDbLine
10
33.919067497653245
20
4.192142840497555
30
0.0
11
34.00005914505199
21
5.000259569184024
31
0.0
0
LINE
8
foo
62
0
5
128
100
AcDbEntity
100
AcDbLine
10
34.00005914505199
20
5.000259569184024
30
0.0
11
34.00005914505199
21
20.141590665842003
31
0.0
0
LINE
8
foo
62
0
5
129
100
AcDbEntity
100
AcDbLine
10
34.00005914505199
20
20.141590665842003
30
0.0
11
35.9836597739324
21
22.580026721755814
31
0.0
0
LINE
8
foo
62
0
5
12a
100
AcDbEntity
100
AcDbLine
10
35.9836597739324
20
22.580026721755814
30
0.0
11
37.56884106126774
21
25.028821214354004
31
0.0
0
LINE
8
foo
62
0
5
12b
100
AcDbEntity
100
AcDbLine
10
37.56884106126774
20
25.028821214354004
30
0.0
11
38.61964925317971
21
27.49862150529819
31
0.0
0
LINE
8
foo
62
0
5
12c
100
AcDbEntity
100
AcDbLine
10
38.61964925317971
20
27.49862150529819
30
0.0
11
38.90217789026495
21
28.74472612566929
31
0.0
0
LINE
8
foo
62
0
5
12d
100
AcDbEntity
100
AcDbLine
10
38.90217789026495
20
28.74472612566929
30
0.0
11
39.00013059578999
21
30.000074956250003
31
0.0
0
LINE
8
foo
62
0
5
12e
100
AcDbEntity
100
AcDbLine
10
39.00013059578999
20
30.000074956250003
30
0.0
11
38.818479539042876
21
32.15242462800628
31
0.0
0
LINE
8
foo
62
0
5
12f
100
AcDbEntity
100
AcDbLine
10
38.818479539042876
20
32.15242462800628
30
0.0
11
38.296967678587706
21
34.09384722626682
31
0.0
0
LINE
8
foo
62
0
5
130
100
AcDbEntity
100
AcDbLine
10
38.296967678587706
20
34.09384722626682
30
0.0
11
37.47075697910374
21
35.80090179402319
31
0.0
0
LINE
8
foo
62
0
5
131
100
AcDbEntity
100
AcDbLine
10
37.47075697910374
20
35.80090179402319
30
0.0
11
36.37500940527024
21
37.250147374267
31
0.0
0
LINE
8
foo
62
0
5
132
100
AcDbEntity
100
AcDbLine
10
36.37500940527024
20
37.250147374267
30
0.0
11
35.044886921766455
21
38.418143009989805
31
0.0
0
LINE
8
foo
62
0
5
133
100
AcDbEntity
100
AcDbLine
10
35.044886921766455
20
38.418143009989805
30
0.0
11
33.515551493271644
21
39.2814477441832
31
0.0
0
LINE
8
foo
62
0
5
134
100
AcDbEntity
100
AcDbLine
10
33.515551493271644
20
39.2814477441832
30
0.0
11
31.82216508446507
21
39.81662061983873
31
0.0
0
LINE
8
foo
62
0
5
135
100
AcDbEntity
100
AcDbLine
10
31.82216508446507
20
39.81662061983873
30
0.0
11
29.99988966002599
21
40.00022067994801
31
0.0
0
LINE
8
foo
62
0
5
136
100
AcDbEntity
100
AcDbLine
10
29.99988966002599
20
40.00022067994801
30
0.0
11
28.134648855740846
21
39.77170695762003
31
0.0
0
LINE
8
foo
62
0
5
137
100
AcDbEntity
100
AcDbLine
10
28.134648855740846
20
39.77170695762003
30
0.0
11
26.327991486582413
21
39.10960260250597
31
0.0
0
LINE
8
foo
62
0
5
138
100
AcDbEntity
100
AcDbLine
10
26.327991486582413
20
39.10960260250597
30
0.0
11
24.638514746009655
21
38.04906283241061
31
0.0
0
LINE
8
foo
62
0
5
139
100
AcDbEntity
100
AcDbLine
10
24.638514746009655
20
38.04906283241061
30
0.0
11
23.12481582748154
21
36.62524286513875
31
0.0
0
LINE
8
foo
62
0
5
13a
100
AcDbEntity
100
AcDbLine
10
23.12481582748154
20
36.62524286513875
30
0.0
11
21.845491924457036
21
34.873297918495176
31
0.0
0
LINE
8
foo
62
0
5
13b
100
AcDbEntity
100
AcDbLine
10
21.845491924457036
20
34.873297918495176
30
0.0
11
20.8591402303951
21
32.82838321028466
31
0.0
0
LINE
8
foo
62
0
5
13c
100
AcDbEntity
100
AcDbLine
10
20.8591402303951
20
32.82838321028466
30
0.0
11
20.2243579387547
21
30.52565395831201
31
0.0
0
LINE
8
foo
62
0
5
13d
100
AcDbEntity
100
AcDbLine
10
20.2243579387547
20
30.52565395831201
30
0.0
11
19.999742242994795
21
28.000265380382004
31
0.0
0
LINE
8
foo
62
0
5
13e
100
AcDbEntity
100
AcDbLine
10
19.999742242994795
20
28.000265380382004
30
0.0
11
19.775150243977816
21
30.52565395831201
31
0.0
0
LINE
8
foo
62
0
5
13f
100
AcDbEntity
100
AcDbLine
10
19.775150243977816
20
30.52565395831201
30
0.0
11
19.140430430379368
21
32.82838321028466
31
0.0
0
LINE
8
foo
62
0
5
140
100
AcDbEntity
100
AcDbLine
10
19.140430430379368
20
32.82838321028466
30
0.0
11
18.154167077378187
21
34.873297918495176
31
0.0
0
LINE
8
foo
62
0
5
141
100
AcDbEntity
100
AcDbLine
10
18.154167077378187
20
34.873297918495176
30
0.0
11
16.874944460152996
21
36.62524286513875
31
0.0
0
LINE
8
foo
62
0
5
142
100
AcDbEntity
100
AcDbLine
10
16.874944460152996
20
36.62524286513875
30
0.0
11
15.36134685388253
21
38.04906283241061
31
0.0
0
LINE
8
foo
62
0
5
143
100
AcDbEntity
100
AcDbLine
10
15.36134685388253
20
38.04906283241061
30
0.0
11
13.67195853374552
21
39.10960260250597
31
0.0
0
LINE
8
foo
62
0
5
144
100
AcDbEntity
100
AcDbLine
10
13.67195853374552
20
39.10960260250597
30
0.0
11
11.8653637749207
21
39.77170695762003
31
0.0
0
LINE
8
foo
62
0
5
145
100
AcDbEntity
100
AcDbLine
10
11.8653637749207
20
39.77170695762003
30
0.0
11
10.000146852586797
21
40.00022067994801
31
0.0
0
LINE
8
foo
62
0
5
146
100
AcDbEntity
100
AcDbLine
10
10.000146852586797
20
40.00022067994801
30
0.0
11
10.000146852586797
21
40.00022067994801
31
0.0
0
LINE
8
shape
62
1
5
147
100
AcDbEntity
100
AcDbLine
10
11.936565935668396
20
46.592756294184
30
0.0
11
9.551143485580285
21
46.355621383689375
31
0.0
0
LINE
8
shape
62
1
5
148
100
AcDbEntity
100
AcDbLine
10
9.551143485580285
20
46.355621383689375
30
0.0
11
7.268404866573498
21
45.6592492176885
31
0.0
0
LINE
8
shape
62
1
5
149
100
AcDbEntity
100
AcDbLine
10
7.268404866573498
20
45.6592492176885
30
0.0
11
5.183236533676661
21
44.52618864440587
31
0.0
0
LINE
8
shape
62
1
5
14a
100
AcDbEntity
100
AcDbLine
10
5.183236533676661
20
44.52618864440587
30
0.0
11
3.390524941918399
21
42.978988512066
31
0.0
0
LINE
8
shape
62
1
5
14b
100
AcDbEntity
100
AcDbLine
10
3.390524941918399
20
42.978988512066
30
0.0
11
1.944663435158132
21
41.02817350386793
31
0.0
0
LINE
8
shape
62
1
5
14c
100
AcDbEntity
100
AcDbLine
10
1.944663435158132
20
41.02817350386793
30
0.0
11
0.8809584846609622
21
38.7343574518445
31
0.0
0
LINE
8
shape
62
1
5
14d
100
AcDbEntity
100
AcDbLine
10
0.8809584846609622
20
38.7343574518445
30
0.0
11
0.22440552731291086
21
36.15060148098432
31
0.0
0
LINE
8
shape
62
1
5
14e
100
AcDbEntity
100
AcDbLine
10
0.22440552731291086
20
36.15060148098432
30
0.0
11
0.0
21
33.329966716276004
31
0.0
0
LINE
8
shape
62
1
5
14f
100
AcDbEntity
100
AcDbLine
10
0.0
20
33.329966716276004
30
0.0
11
0.2780747617675421
21
30.814148904996912
31
0.0
0
LINE
8
shape
62
1
5
150
100
AcDbEntity
100
AcDbLine
10
0.2780747617675421
20
30.814148904996912
30
0.0
11
1.0696435692483122
21
28.385005147309755
31
0.0
0
LINE
8
shape
62
1
5
151
100
AcDbEntity
100
AcDbLine
10
1.0696435692483122
20
28.385005147309755
30
0.0
11
2.3107232057095257
21
25.988939066184724
31
0.0
0
LINE
8
shape
62
1
5
152
100
AcDbEntity
100
AcDbLine
10
2.3107232057095257
20
25.988939066184724
30
0.0
11
3.9373304544183987
21
23.572354284591995
31
0.0
0
LINE
8
shape
62
1
5
153
100
AcDbEntity
100
AcDbLine
10
3.9373304544183987
20
23.572354284591995
30
0.0
11
5.849407427368089
21
21.158375913210726
31
0.0
0
LINE
8
shape
62
1
5
154
100
AcDbEntity
100
AcDbLine
10
5.849407427368089
20
21.158375913210726
30
0.0
11
7.973443864669722
21
18.75819423865976
31
0.0
0
LINE
8
shape
62
1
5
155
100
AcDbEntity
100
AcDbLine
10
7.973443864669722
20
18.75819423865976
30
0.0
11
12.596921857005196
21
13.936009910026016
31
0.0
0
LINE
8
shape
62
1
5
156
100
AcDbEntity
100
AcDbLine
10
12.596921857005196
20
13.936009910026016
30
0.0
11
15.517646742582397
21
10.879577923953859
31
0.0
0
LINE
8
shape
62
1
5
157
100
AcDbEntity
100
AcDbLine
10
15.517646742582397
20
10.879577923953859
30
0.0
11
18.273937544440493
21
7.777742647706763
31
0.0
0
LINE
8
shape
62
1
5
158
100
AcDbEntity
100
AcDbLine
10
18.273937544440493
20
7.777742647706763
30
0.0
11
20.739988495818793
21
4.614905572096295
31
0.0
0
LINE
8
shape
62
1
5
159
100
AcDbEntity
100
AcDbLine
10
20.739988495818793
20
4.614905572096295
30
0.0
11
22.789993829956593
21
1.3754681879340183
31
0.0
0
LINE
8
shape
62
1
5
15a
100
AcDbEntity
100
AcDbLine
10
22.789993829956593
20
1.3754681879340183
30
0.0
11
23.211355922542364
21
0.8114679792184833
31
0.0
0
LINE
8
shape
62
1
5
15b
100
AcDbEntity
100
AcDbLine
10
23.211355922542364
20
0.8114679792184833
30
0.0
11
23.766464932513543
21
0.377833524821261
31
0.0
0
LINE
8
shape
62
1
5
15c
100
AcDbEntity
100
AcDbLine
10
23.766464932513543
20
0.377833524821261
30
0.0
11
24.41349240774705
21
0.0991956790529136
31
0.0
0
LINE
8
shape
62
1
5
15d
100
AcDbEntity
100
AcDbLine
10
24.41349240774705
20
0.0991956790529136
30
0.0
11
25.110609896119794
21
0.00018529622400365042
31
0.0
0
LINE
8
shape
62
1
5
15e
100
AcDbEntity
100
AcDbLine
10
25.110609896119794
20
0.00018529622400365042
30
0.0
11
25.808695331673263
21
0.09749652502004325
31
0.0
0
LINE
8
shape
62
1
5
15f
100
AcDbEntity
100
AcDbLine
10
25.808695331673263
20
0.09749652502004325
30
0.0
11
26.458024862524116
21
0.3748490250562657
31
0.0
0
LINE
8
shape
62
1
5
160
100
AcDbEntity
100
AcDbLine
10
26.458024862524116
20
0.3748490250562657
30
0.0
11
27.015867992661953
21
0.8074500170348606
31
0.0
0
LINE
8
shape
62
1
5
161
100
AcDbEntity
100
AcDbLine
10
27.015867992661953
20
0.8074500170348606
30
0.0
11
27.43949422607639
21
1.3705067216580176
31
0.0
0
LINE
8
shape
62
1
5
162
100
AcDbEntity
100
AcDbLine
10
27.43949422607639
20
1.3705067216580176
30
0.0
11
29.529939320363294
21
4.738025756499011
31
0.0
0
LINE
8
shape
62
1
5
163
100
AcDbEntity
100
AcDbLine
10
29.529939320363294
20
4.738025756499011
30
0.0
11
31.76377841002599
21
8.382514836197998
31
0.0
0
LINE
8
shape
62
1
5
164
100
AcDbEntity
100
AcDbLine
10
31.76377841002599
20
8.382514836197998
30
0.0
11
32.71945036372588
21
10.645906072778553
31
0.0
0
LINE
8
shape
62
1
5
165
100
AcDbEntity
100
AcDbLine
10
32.71945036372588
20
10.645906072778553
30
0.0
11
33.315569636101586
21
13.178631843620412
31
0.0
0
LINE
8
shape
62
1
5
166
100
AcDbEntity
100
AcDbLine
10
33.315569636101586
20
13.178631843620412
30
0.0
11
33.63446519436843
21
15.968173488511379
31
0.0
0
LINE
8
shape
62
1
5
167
100
AcDbEntity
100
AcDbLine
10
33.63446519436843
20
15.968173488511379
30
0.0
11
33.75846600574174
21
19.00201234723926
31
0.0
0
LINE
8
shape
62
1
5
168
100
AcDbEntity
100
AcDbLine
10
33.75846600574174
20
19.00201234723926
30
0.0
11
33.75109925666902
21
25.752507065356976
31
0.0
0
LINE
8
shape
62
1
5
169
100
AcDbEntity
100
AcDbLine
10
33.75109925666902
20
25.752507065356976
30
0.0
11
33.784389630653635
21
29.444125604322423
31
0.0
0
LINE
8
shape
62
1
5
16a
100
AcDbEntity
100
AcDbLine
10
33.784389630653635
20
29.444125604322423
30
0.0
11
33.95210112660599
21
33.329966716276004
31
0.0
0
LINE
8
shape
62
1
5
16b
100
AcDbEntity
100
AcDbLine
10
33.95210112660599
20
33.329966716276004
30
0.0
11
34.098394890043394
21
34.394083994509806
31
0.0
0
LINE
8
shape
62
1
5
16c
100
AcDbEntity
100
AcDbLine
10
34.098394890043394
20
34.394083994509806
30
0.0
11
34.38947026265358
21
35.38751820461129
31
0.0
0
LINE
8
shape
62
1
5
16d
100
AcDbEntity
100
AcDbLine
10
34.38947026265358
20
35.38751820461129
30
0.0
11
34.81967075087154
21
36.28832437669382
31
0.0
0
LINE
8
shape
62
1
5
16e
100
AcDbEntity
100
AcDbLine
10
34.81967075087154
20
36.28832437669382
30
0.0
11
35.38333986113224
21
37.07455754087076
31
0.0
0
LINE
8
shape
62
1
5
16f
100
AcDbEntity
100
AcDbLine
10
35.38333986113224
20
37.07455754087076
30
0.0
11
36.07482109987066
21
37.72427272725548
31
0.0
0
LINE
8
shape
62
1
5
170
100
AcDbEntity
100
AcDbLine
10
36.07482109987066
20
37.72427272725548
30
0.0
11
36.88845797352177
21
38.21552496596135
31
0.0
0
LINE
8
shape
62
1
5
171
100
AcDbEntity
100
AcDbLine
10
36.88845797352177
20
38.21552496596135
30
0.0
11
37.818593988520554
21
38.52636928710173
31
0.0
0
LINE
8
shape
62
1
5
172
100
AcDbEntity
100
AcDbLine
10
37.818593988520554
20
38.52636928710173
30
0.0
11
38.85957265130199
21
38.63486072079
31
0.0
0
LINE
8
shape
62
1
5
173
100
AcDbEntity
100
AcDbLine
10
38.85957265130199
20
38.63486072079
30
0.0
11
39.884344434152965
21
38.511146282267404
31
0.0
0
LINE
8
shape
62
1
5
174
100
AcDbEntity
100
AcDbLine
10
39.884344434152965
20
38.511146282267404
30
0.0
11
40.77275024232474
21
38.161328734464874
31
0.0
0
LINE
8
shape
62
1
5
175
100
AcDbEntity
100
AcDbLine
10
40.77275024232474
20
38.161328734464874
30
0.0
11
41.52946605669915
21
37.61739672903028
31
0.0
0
LINE
8
shape
62
1
5
176
100
AcDbEntity
100
AcDbLine
10
41.52946605669915
20
37.61739672903028
30
0.0
11
42.159167858157986
21
36.9113389176115
31
0.0
0
LINE
8
shape
62
1
5
177
100
AcDbEntity
100
AcDbLine
10
42.159167858157986
20
36.9113389176115
30
0.0
11
42.66653162758308
21
36.075143951856404
31
0.0
0
LINE
8
shape
62
1
5
178
100
AcDbEntity
100
AcDbLine
10
42.66653162758308
20
36.075143951856404
30
0.0
11
43.056233345856235
21
35.140800483412875
31
0.0
0
LINE
8
shape
62
1
5
179
100
AcDbEntity
100
AcDbLine
10
43.056233345856235
20
35.140800483412875
30
0.0
11
43.501354552473984
21
33.105622645051994
31
0.0
0
LINE
8
shape
62
1
5
17a
100
AcDbEntity
100
AcDbLine
10
43.501354552473984
20
33.105622645051994
30
0.0
11
44.010127801301984
21
28.533843138368
31
0.0
0
LINE
8
shape
62
1
5
17b
100
AcDbEntity
100
AcDbLine
10
44.010127801301984
20
28.533843138368
30
0.0
11
44.285816204594234
21
27.114585794565006
31
0.0
0
LINE
8
shape
62
1
5
17c
100
AcDbEntity
100
AcDbLine
10
44.285816204594234
20
27.114585794565006
30
0.0
11
44.65426817870726
21
26.661571979540952
31
0.0
0
LINE
8
shape
62
1
5
17d
100
AcDbEntity
100
AcDbLine
10
44.65426817870726
20
26.661571979540952
30
0.0
11
45.32863323081599
21
26.376387063802014
31
0.0
0
LINE
8
shape
62
1
5
17e
100
AcDbEntity
100
AcDbLine
10
45.32863323081599
20
26.376387063802014
30
0.0
11
46.242359176924616
21
26.432944216293134
31
0.0
0
LINE
8
shape
62
1
5
17f
100
AcDbEntity
100
AcDbLine
10
46.242359176924616
20
26.432944216293134
30
0.0
11
47.16618903057099
21
26.89998544479601
31
0.0
0
LINE
8
shape
62
1
5
180
100
AcDbEntity
100
AcDbLine
10
47.16618903057099
20
26.89998544479601
30
0.0
11
47.97201896017536
21
27.61689280362438
31
0.0
0
LINE
8
shape
62
1
5
181
100
AcDbEntity
100
AcDbLine
10
47.97201896017536
20
27.61689280362438
30
0.0
11
48.53174513415798
21
28.423048347092006
31
0.0
0
LINE
8
shape
62
1
5
182
100
AcDbEntity
100
AcDbLine
10
48.53174513415798
20
28.423048347092006
30
0.0
11
49.615969096008236
21
30.780644764232253
31
0.0
0
LINE
8
shape
62
1
5
183
100
AcDbEntity
100
AcDbLine
10
49.615969096008236
20
30.780644764232253
30
0.0
11
49.901992079389515
21
31.92421621828447
31
0.0
0
LINE
8
shape
62
1
5
184
100
AcDbEntity
100
AcDbLine
10
49.901992079389515
20
31.92421621828447
30
0.0
11
50.00018392964399
21
33.329966716276004
31
0.0
0
LINE
8
shape
62
1
5
185
100
AcDbEntity
100
AcDbLine
10
50.00018392964399
20
33.329966716276004
30
0.0
11
49.83787613443802
21
36.15060148098432
31
0.0
0
LINE
8
shape
62
1
5
186
100
AcDbEntity
100
AcDbLine
10
49.83787613443802
20
36.15060148098432
30
0.0
11
49.31793821947524
21
38.7343574518445
31
0.0
0
LINE
8
shape
62
1
5
187
100
AcDbEntity
100
AcDbLine
10
49.31793821947524
20
38.7343574518445
30
0.0
11
48.39084839073834
21
41.02817350386793
31
0.0
0
LINE
8
shape
62
1
5
188
100
AcDbEntity
100
AcDbLine
10
48.39084839073834
20
41.02817350386793
30
0.0
11
47.75914594807418
21
42.049772458756934
31
0.0
0
LINE
8
shape
62
1
5
189
100
AcDbEntity
100
AcDbLine
10
47.75914594807418
20
42.049772458756934
30
0.0
11
47.00708485420999
21
42.978988512066
31
0.0
0
LINE
8
shape
62
1
5
18a
100
AcDbEntity
100
AcDbLine
10
47.00708485420999
20
42.978988512066
30
0.0
11
45.21445829952836
21
44.52618864440587
31
0.0
0
LINE
8
shape
62
1
5
18b
100
AcDbEntity
100
AcDbLine
10
45.21445829952836
20
44.52618864440587
30
0.0
11
43.129478826199986
21
45.6592492176885
31
0.0
0
LINE
8
shape
62
1
5
18c
100
AcDbEntity
100
AcDbLine
10
43.129478826199986
20
45.6592492176885
30
0.0
11
40.84692970176161
21
46.355621383689375
31
0.0
0
LINE
8
shape
62
1
5
18d
100
AcDbEntity
100
AcDbLine
10
40.84692970176161
20
46.355621383689375
30
0.0
11
38.46159419374999
21
46.592756294184
31
0.0
0
LINE
8
shape
62
1
5
18e
100
AcDbEntity
100
AcDbLine
10
38.46159419374999
20
46.592756294184
30
0.0
11
36.799577813797114
21
46.461439506173214
31
0.0
0
LINE
8
shape
62
1
5
18f
100
AcDbEntity
100
AcDbLine
10
36.799577813797114
20
46.461439506173214
30
0.0
11
35.201073272254774
21
46.076032052232065
31
0.0
0
LINE
8
shape
62
1
5
190
100
AcDbEntity
100
AcDbLine
10
35.201073272254774
20
46.076032052232065
30
0.0
11
33.676595840873105
21
45.44934829749739
31
0.0
0
LINE
8
shape
62
1
5
191
100
AcDbEntity
100
AcDbLine
10
33.676595840873105
20
45.44934829749739
30
0.0
11
32.236660791402265
21
44.594202607106
31
0.0
0
LINE
8
shape
62
1
5
192
100
AcDbEntity
100
AcDbLine
10
32.236660791402265
20
44.594202607106
30
0.0
11
30.891783395592405
21
43.52340934619474
31
0.0
0
LINE
8
shape
62
1
5
193
100
AcDbEntity
100
AcDbLine
10
30.891783395592405
20
43.52340934619474
30
0.0
11
29.65247892519367
21
42.24978287990044
31
0.0
0
LINE
8
shape
62
1
5
194
100
AcDbEntity
100
AcDbLine
10
29.65247892519367
20
42.24978287990044
30
0.0
11
28.529262651956216
21
40.78613757335992
31
0.0
0
LINE
8
shape
62
1
5
195
100
AcDbEntity
100
AcDbLine
10
28.529262651956216
20
40.78613757335992
30
0.0
11
27.532649847630193
21
39.145287791710004
31
0.0
0
LINE
8
shape
62
1
5
196
100
AcDbEntity
100
AcDbLine
10
27.532649847630193
20
39.145287791710004
30
0.0
11
27.08534284881476
21
38.536385810488376
31
0.0
0
LINE
8
shape
62
1
5
197
100
AcDbEntity
100
AcDbLine
10
27.08534284881476
20
38.536385810488376
30
0.0
11
26.521332232053176
21
38.1014558239015
31
0.0
0
LINE
8
shape
62
1
5
198
100
AcDbEntity
100
AcDbLine
10
26.521332232053176
20
38.1014558239015
30
0.0
11
25.8795191856886
21
37.84049783194938
31
0.0
0
LINE
8
shape
62
1
5
199
100
AcDbEntity
100
AcDbLine
10
25.8795191856886
20
37.84049783194938
30
0.0
11
25.198804898064193
21
37.75351183463201
31
0.0
0
LINE
8
shape
62
1
5
19a
100
AcDbEntity
100
AcDbLine
10
25.198804898064193
20
37.75351183463201
30
0.0
11
24.518090557523127
21
37.84049783194938
31
0.0
0
LINE
8
shape
62
1
5
19b
100
AcDbEntity
100
AcDbLine
10
24.518090557523127
20
37.84049783194938
30
0.0
11
23.87627735240856
21
38.1014558239015
31
0.0
0
LINE
8
shape
62
1
5
19c
100
AcDbEntity
100
AcDbLine
10
23.87627735240856
20
38.1014558239015
30
0.0
11
23.312266471063666
21
38.536385810488376
31
0.0
0
LINE
8
shape
62
1
5
19d
100
AcDbEntity
100
AcDbLine
10
23.312266471063666
20
38.536385810488376
30
0.0
11
22.864959101831595
21
39.145287791710004
31
0.0
0
LINE
8
shape
62
1
5
19e
100
AcDbEntity
100
AcDbLine
10
22.864959101831595
20
39.145287791710004
30
0.0
11
21.86837016622765
21
40.78613757335992
31
0.0
0
LINE
8
shape
62
1
5
19f
100
AcDbEntity
100
AcDbLine
10
21.86837016622765
20
40.78613757335992
30
0.0
11
20.74521646363631
21
42.24978287990044
31
0.0
0
LINE
8
shape
62
1
5
1a0
100
AcDbEntity
100
AcDbLine
10
20.74521646363631
20
42.24978287990044
30
0.0
11
19.506000347527497
21
43.52340934619474
31
0.0
0
LINE
8
shape
62
1
5
1a1
100
AcDbEntity
100
AcDbLine
10
19.506000347527497
20
43.52340934619474
30
0.0
11
18.16122417137112
21
44.594202607106
31
0.0
0
LINE
8
shape
62
1
5
1a2
100
AcDbEntity
100
AcDbLine
10
18.16122417137112
20
44.594202607106
30
0.0
11
16.721390288637103
21
45.44934829749739
31
0.0
0
LINE
8
shape
62
1
5
1a3
100
AcDbEntity
100
AcDbLine
10
16.721390288637103
20
45.44934829749739
30
0.0
11
15.197001052795368
21
46.076032052232065
31
0.0
0
LINE
8
shape
62
1
5
1a4
100
AcDbEntity
100
AcDbLine
10
15.197001052795368
20
46.076032052232065
30
0.0
11
13.598558817315826
21
46.461439506173214
31
0.0
0
LINE
8
shape
62
1
5
1a5
100
AcDbEntity
100
AcDbLine
10
13.598558817315826
20
46.461439506173214
30
0.0
11
11.936565935668396
21
46.592756294184
31
0.0
0
LINE
8
shape
62
1
5
1a6
100
AcDbEntity
100
AcDbLine
10
11.936565935668396
20
46.592756294184
30
0.0
11
11.936565935668396
21
46.592756294184
31
0.0
0
ENDSEC
0
SECTION
2
OBJECTS
0
DICTIONARY
5
C
330
0
100
AcDbDictionary
3
ACAD_GROUP
350
D
3
ACAD_MLINESTYLE
350
17
0
DICTIONARY
5
D
330
C
100
AcDbDictionary
0
DICTIONARY
5
1A
330
C
100
AcDbDictionary
0
DICTIONARY
5
17
330
C
100
AcDbDictionary
3
STANDARD
350
18
0
DICTIONARY
5
19
330
C
100
AcDbDictionary
0
ENDSEC
0
EOF
