0
SECTION
2
HEADER
9
$ACADVER
1
AC1014
9
$HANDSEED
5
FFFF
0
ENDSEC
0
SECTION
2
TABLES
0
TABLE
2
VPORT
5
8
330
0
100
AcDbSymbolTable
70
4
0
VPORT
5
2E
330
8
100
AcDbSymbolTableRecord
100
AcDbViewportTableRecord
2
*ACTIVE
70
0
10
0.0
20
0.0
11
1.0
21
1.0
12
4.25
22
5.5
13
0.0
23
0.0
14
10.0
24
10.0
15
10.0
25
10.0
16
0.0
26
0.0
36
1.0
17
0.0
27
0.0
37
0.0
40
11
41
1.24
42
50.0
43
0.0
44
0.0
50
0.0
51
0.0
71
0
72
100
73
1
74
3
75
0
76
0
77
0
78
0
0
ENDTAB
0
TABLE
2
LTYPE
5
5
330
0
100
AcDbSymbolTable
70
1
0
LTYPE
5
14
330
5
100
AcDbSymbolTableRecord
100
AcDbLinetypeTableRecord
2
BYBLOCK
70
0
3

72
65
73
0
40
0.0
0
LTYPE
5
15
330
5
100
AcDbSymbolTableRecord
100
AcDbLinetypeTableRecord
2
BYLAYER
70
0
3

72
65
73
0
40
0.0
0
LTYPE
5
16
330
5
100
AcDbSymbolTableRecord
100
AcDbLinetypeTableRecord
2
CONTINUOUS
70
0
3
Solid line
72
65
73
0
40
0.0
0
ENDTAB
0
TABLE
2
LAYER
5
2
330
0
100
AcDbSymbolTable
70
1
0
LAYER
5
10
330
2
100
AcDbSymbolTableRecord
100
AcDbLayerTableRecord
2
0
70
0
62
7
6
CONTINUOUS
0
ENDTAB
0
TABLE
2
STYLE
5
3
330
0
100
AcDbSymbolTable
70
1
0
STYLE
5
11
330
3
100
AcDbSymbolTableRecord
100
AcDbTextStyleTableRecord
2
STANDARD
70
0
40
0.0
41
1.0
50
0.0
71
0
42
2.5
3
txt
4

0
ENDTAB
0
TABLE
2
VIEW
5
6
330
0
100
AcDbSymbolTable
70
0
0
ENDTAB
0
TABLE
2
UCS
5
7
330
0
100
AcDbSymbolTable
70
0
0
ENDTAB
0
TABLE
2
APPID
5
9
330
0
100
AcDbSymbolTable
70
2
0
APPID
5
12
330
9
100
AcDbSymbolTableRecord
100
AcDbRegAppTableRecord
2
ACAD
70
0
0
ENDTAB
0
TABLE
2
DIMSTYLE
5
A
330
0
100
AcDbSymbolTable
70
1
0
DIMSTYLE
105
27
330
A
100
AcDbSymbolTableRecord
100
AcDbDimStyleTableRecord
2
ISO-25
70
0
3

4

5

6

7

40
1.0
41
2.5
42
0.625
43
3.75
44
1.25
45
0.0
46
0.0
47
0.0
48
0.0
140
2.5
141
2.5
142
0.0
143
0.03937007874016
144
1.0
145
0.0
146
1.0
147
0.625
71
0
72
0
73
0
74
0
75
0
76
0
77
1
78
8
170
0
171
3
172
1
173
0
174
0
175
0
176
0
177
0
178
0
270
2
271
2
272
2
273
2
274
3
340
11
275
0
280
0
281
0
282
0
283
0
284
8
285
0
286
0
287
3
288
0
0
ENDTAB
0
TABLE
2
BLOCK_RECORD
5
1
330
0
100
AcDbSymbolTable
70
1
0
BLOCK_RECORD
5
1F
330
1
100
AcDbSymbolTableRecord
100
AcDbBlockTableRecord
2
*MODEL_SPACE
0
BLOCK_RECORD
5
1B
330
1
100
AcDbSymbolTableRecord
100
AcDbBlockTableRecord
2
*PAPER_SPACE
0
ENDTAB
0
ENDSEC
0
SECTION
2
BLOCKS
0
BLOCK
5
20
330
1F
100
AcDbEntity
8
0
100
AcDbBlockBegin
2
*MODEL_SPACE
70
0
10
0.0
20
0.0
30
0.0
3
*MODEL_SPACE
1

0
ENDBLK
5
21
330
1F
100
AcDbEntity
8
0
100
AcDbBlockEnd
0
BLOCK
5
1C
330
1B
100
AcDbEntity
67
1
8
0
100
AcDbBlockBegin
2
*PAPER_SPACE
1

0
ENDBLK
5
1D
330
1B
100
AcDbEntity
67
1
8
0
100
AcDbBlockEnd
0
ENDSEC
0
SECTION
2
ENTITIES
0
LINE
8
shape
62
0
5
100
100
AcDbEntity
100
AcDbLine
10
4.036549055494799
20
80.00025775700519
30
0.0
11
3.222804931950655
21
79.9184311177451
31
0.0
0
LINE
8
shape
62
0
5
101
100
AcDbEntity
100
AcDbLine
10
3.222804931950655
20
79.9184311177451
30
0.0
11
2.464991260374934
21
79.68371787547125
31
0.0
0
LINE
8
shape
62
0
5
102
100
AcDbEntity
100
AcDbLine
10
2.464991260374934
20
79.68371787547125
30
0.0
11
1.7793107421558951
21
79.31226804344323
31
0.0
0
LINE
8
shape
62
0
5
103
100
AcDbEntity
100
AcDbLine
10
1.7793107421558951
20
79.31226804344323
30
0.0
11
1.1819660786817971
21
78.82023163492065
31
0.0
0
LINE
8
shape
62
0
5
104
100
AcDbEntity
100
AcDbLine
10
1.1819660786817971
20
78.82023163492065
30
0.0
11
0.6891599713408996
21
78.22375866316307
31
0.0
0
LINE
8
shape
62
0
5
105
100
AcDbEntity
100
AcDbLine
10
0.6891599713408996
20
78.22375866316307
30
0.0
11
0.3170951215214613
21
77.5389991414301
31
0.0
0
LINE
8
shape
62
0
5
106
100
AcDbEntity
100
AcDbLine
10
0.3170951215214613
20
77.5389991414301
30
0.0
11
0.08197423061174178
21
76.78210308298134
31
0.0
0
LINE
8
shape
62
0
5
107
100
AcDbEntity
100
AcDbLine
10
0.08197423061174178
20
76.78210308298134
30
0.0
11
0.0
21
75.96922050107639
31
0.0
0
LINE
8
shape
62
0
5
108
100
AcDbEntity
100
AcDbLine
10
0.0
20
75.96922050107639
30
0.0
11
0.0
21
5.4285543354600065
31
0.0
0
LINE
8
shape
62
0
5
109
100
AcDbEntity
100
AcDbLine
10
0.0
20
5.4285543354600065
30
0.0
11
0.08197423061174189
21
4.615967273271372
31
0.0
0
LINE
8
shape
62
0
5
10a
100
AcDbEntity
100
AcDbLine
10
0.08197423061174189
20
4.615967273271372
30
0.0
11
0.31709512152146146
21
3.8592097704887913
31
0.0
0
LINE
8
shape
62
0
5
10b
100
AcDbEntity
100
AcDbLine
10
0.31709512152146146
20
3.8592097704887913
30
0.0
11
0.6891599713408996
21
3.174468075056507
31
0.0
0
LINE
8
shape
62
0
5
10c
100
AcDbEntity
100
AcDbLine
10
0.6891599713408996
20
3.174468075056507
30
0.0
11
1.1819660786817971
21
2.5779284349187606
31
0.0
0
LINE
8
shape
62
0
5
10d
100
AcDbEntity
100
AcDbLine
10
1.1819660786817971
20
2.5779284349187606
30
0.0
11
1.7793107421558951
21
2.085777098019795
31
0.0
0
LINE
8
shape
62
0
5
10e
100
AcDbEntity
100
AcDbLine
10
1.7793107421558951
20
2.085777098019795
30
0.0
11
2.464991260374934
21
1.7142003123038534
31
0.0
0
LINE
8
shape
62
0
5
10f
100
AcDbEntity
100
AcDbLine
10
2.464991260374934
20
1.7142003123038534
30
0.0
11
3.222804931950655
21
1.479384325715177
31
0.0
0
LINE
8
shape
62
0
5
110
100
AcDbEntity
100
AcDbLine
10
3.222804931950655
20
1.479384325715177
30
0.0
11
4.036549055494799
21
1.397515386198009
31
0.0
0
LINE
8
shape
62
0
5
111
100
AcDbEntity
100
AcDbLine
10
4.036549055494799
20
1.397515386198009
30
0.0
11
18.164746763038195
21
1.397515386198009
31
0.0
0
LINE
8
shape
62
0
5
112
100
AcDbEntity
100
AcDbLine
10
18.164746763038195
20
1.397515386198009
30
0.0
11
18.977925018999727
21
1.479384325715177
31
0.0
0
LINE
8
shape
62
0
5
113
100
AcDbEntity
100
AcDbLine
10
18.977925018999727
20
1.479384325715177
30
0.0
11
19.735442466791916
21
1.7142003123038534
31
0.0
0
LINE
8
shape
62
0
5
114
100
AcDbEntity
100
AcDbLine
10
19.735442466791916
20
1.7142003123038534
30
0.0
11
20.421052268891955
21
2.085777098019795
31
0.0
0
LINE
8
shape
62
0
5
115
100
AcDbEntity
100
AcDbLine
10
20.421052268891955
20
2.085777098019795
30
0.0
11
21.018507587777044
21
2.5779284349187606
31
0.0
0
LINE
8
shape
62
0
5
116
100
AcDbEntity
100
AcDbLine
10
21.018507587777044
20
2.5779284349187606
30
0.0
11
21.511561585924376
21
3.174468075056507
31
0.0
0
LINE
8
shape
62
0
5
117
100
AcDbEntity
100
AcDbLine
10
21.511561585924376
20
3.174468075056507
30
0.0
11
21.88396742581115
21
3.8592097704887913
31
0.0
0
LINE
8
shape
62
0
5
118
100
AcDbEntity
100
AcDbLine
10
21.88396742581115
20
3.8592097704887913
30
0.0
11
22.119478269914556
21
4.615967273271372
31
0.0
0
LINE
8
shape
62
0
5
119
100
AcDbEntity
100
AcDbLine
10
22.119478269914556
20
4.615967273271372
30
0.0
11
22.201847280711792
21
5.4285543354600065
31
0.0
0
LINE
8
shape
62
0
5
11a
100
AcDbEntity
100
AcDbLine
10
22.201847280711792
20
5.4285543354600065
30
0.0
11
22.201847280711792
21
31.629467894618003
31
0.0
0
LINE
8
shape
62
0
5
11b
100
AcDbEntity
100
AcDbLine
10
22.201847280711792
20
31.629467894618003
30
0.0
11
55.050417554209986
21
0.7696810578560189
31
0.0
0
LINE
8
shape
62
0
5
11c
100
AcDbEntity
100
AcDbLine
10
55.050417554209986
20
0.7696810578560189
30
0.0
11
55.76213780129402
21
0.2995919177875779
31
0.0
0
LINE
8
shape
62
0
5
11d
100
AcDbEntity
100
AcDbLine
10
55.76213780129402
20
0.2995919177875779
30
0.0
11
56.61913942235523
21
0.04362423169251173
31
0.0
0
LINE
8
shape
62
0
5
11e
100
AcDbEntity
100
AcDbLine
10
56.61913942235523
20
0.04362423169251173
30
0.0
11
57.51364149463033
21
0.01949608567569694
31
0.0
0
LINE
8
shape
62
0
5
11f
100
AcDbEntity
100
AcDbLine
10
57.51364149463033
20
0.01949608567569694
30
0.0
11
58.337863095355985
21
0.24492556584200997
31
0.0
0
LINE
8
shape
62
0
5
120
100
AcDbEntity
100
AcDbLine
10
58.337863095355985
20
0.24492556584200997
30
0.0
11
73.65337891163198
21
7.479073596224012
31
0.0
0
LINE
8
shape
62
0
5
121
100
AcDbEntity
100
AcDbLine
10
73.65337891163198
20
7.479073596224012
30
0.0
11
74.24305525513131
21
7.91977264555107
31
0.0
0
LINE
8
shape
62
0
5
122
100
AcDbEntity
100
AcDbLine
10
74.24305525513131
20
7.91977264555107
30
0.0
11
74.50070626435772
21
8.483432556029507
31
0.0
0
LINE
8
shape
62
0
5
123
100
AcDbEntity
100
AcDbLine
10
74.50070626435772
20
8.483432556029507
30
0.0
11
74.41558482974074
21
9.097368587549198
31
0.0
0
LINE
8
shape
62
0
5
124
100
AcDbEntity
100
AcDbLine
10
74.41558482974074
20
9.097368587549198
30
0.0
11
73.97694384170997
21
9.688896000000014
31
0.0
0
LINE
8
shape
62
0
5
125
100
AcDbEntity
100
AcDbLine
10
73.97694384170997
20
9.688896000000014
30
0.0
11
73.97694384170997
21
9.689446333290022
31
0.0
0
LINE
8
shape
62
0
5
126
100
AcDbEntity
100
AcDbLine
10
73.97694384170997
20
9.689446333290022
30
0.0
11
38.348044913801985
21
41.706784456684
31
0.0
0
LINE
8
shape
62
0
5
127
100
AcDbEntity
100
AcDbLine
10
38.348044913801985
20
41.706784456684
30
0.0
11
70.10079690247397
21
73.39173820625
31
0.0
0
LINE
8
shape
62
0
5
128
100
AcDbEntity
100
AcDbLine
10
70.10079690247397
20
73.39173820625
30
0.0
11
70.50129145913341
21
73.98626886419349
31
0.0
0
LINE
8
shape
62
0
5
129
100
AcDbEntity
100
AcDbLine
10
70.50129145913341
20
73.98626886419349
30
0.0
11
70.53661924037948
21
74.55280044288331
31
0.0
0
LINE
8
shape
62
0
5
12a
100
AcDbEntity
100
AcDbLine
10
70.53661924037948
20
74.55280044288331
30
0.0
11
70.22381147403779
21
75.02717760091272
31
0.0
0
LINE
8
shape
62
0
5
12b
100
AcDbEntity
100
AcDbLine
10
70.22381147403779
20
75.02717760091272
30
0.0
11
69.57989938793398
21
75.345244996875
31
0.0
0
LINE
8
shape
62
0
5
12c
100
AcDbEntity
100
AcDbLine
10
69.57989938793398
20
75.345244996875
30
0.0
11
54.424237047959984
21
79.4710911320052
31
0.0
0
LINE
8
shape
62
0
5
12d
100
AcDbEntity
100
AcDbLine
10
54.424237047959984
20
79.4710911320052
30
0.0
11
53.55649960621633
21
79.56290287758841
31
0.0
0
LINE
8
shape
62
0
5
12e
100
AcDbEntity
100
AcDbLine
10
53.55649960621633
20
79.56290287758841
30
0.0
11
52.63427202501323
21
79.42141730841652
31
0.0
0
LINE
8
shape
62
0
5
12f
100
AcDbEntity
100
AcDbLine
10
52.63427202501323
20
79.42141730841652
30
0.0
11
51.76766356026402
21
79.0765655440077
31
0.0
0
LINE
8
shape
62
0
5
130
100
AcDbEntity
100
AcDbLine
10
51.76766356026402
20
79.0765655440077
30
0.0
11
51.06678346788199
21
78.55827870388019
31
0.0
0
LINE
8
shape
62
0
5
131
100
AcDbEntity
100
AcDbLine
10
51.06678346788199
20
78.55827870388019
30
0.0
11
22.201847280711792
21
48.760685634592
31
0.0
0
LINE
8
shape
62
0
5
132
100
AcDbEntity
100
AcDbLine
10
22.201847280711792
20
48.760685634592
30
0.0
11
22.201847280711792
21
75.96922050107639
31
0.0
0
LINE
8
shape
62
0
5
133
100
AcDbEntity
100
AcDbLine
10
22.201847280711792
20
75.96922050107639
30
0.0
11
22.201847280711792
21
75.9703231432118
31
0.0
0
LINE
8
shape
62
0
5
134
100
AcDbEntity
100
AcDbLine
10
22.201847280711792
20
75.9703231432118
30
0.0
11
22.119812732987178
21
76.78232853166585
31
0.0
0
LINE
8
shape
62
0
5
135
100
AcDbEntity
100
AcDbLine
10
22.119812732987178
20
76.78232853166585
30
0.0
11
21.884540433891033
21
77.53871017676536
31
0.0
0
LINE
8
shape
62
0
5
136
100
AcDbEntity
100
AcDbLine
10
21.884540433891033
20
77.53871017676536
30
0.0
11
21.51227739953989
21
78.22324229851189
31
0.0
0
LINE
8
shape
62
0
5
137
100
AcDbEntity
100
AcDbLine
10
21.51227739953989
20
78.22324229851189
30
0.0
11
21.019270646050295
21
78.81969911690702
31
0.0
0
LINE
8
shape
62
0
5
138
100
AcDbEntity
100
AcDbLine
10
21.019270646050295
20
78.81969911690702
30
0.0
11
20.421767189538787
21
79.31185485195233
31
0.0
0
LINE
8
shape
62
0
5
139
100
AcDbEntity
100
AcDbLine
10
20.421767189538787
20
79.31185485195233
30
0.0
11
19.73601404612191
21
79.68348372364942
31
0.0
0
LINE
8
shape
62
0
5
13a
100
AcDbEntity
100
AcDbLine
10
19.73601404612191
20
79.68348372364942
30
0.0
11
18.978258231916197
21
79.91835995199983
31
0.0
0
LINE
8
shape
62
0
5
13b
100
AcDbEntity
100
AcDbLine
10
18.978258231916197
20
79.91835995199983
30
0.0
11
18.164746763038195
21
80.00025775700519
31
0.0
0
LINE
8
shape
62
0
5
13c
100
AcDbEntity
100
AcDbLine
10
18.164746763038195
20
80.00025775700519
30
0.0
11
4.036549055494799
21
80.00025775700519
31
0.0
0
LINE
8
shape
62
0
5
13d
100
AcDbEntity
100
AcDbLine
10
4.036549055494799
20
80.00025775700519
30
0.0
11
4.036549055494799
21
80.00025775700519
31
0.0
0
LINE
8
struts
62
1
5
13e
100
AcDbEntity
100
AcDbLine
10
31.63369090915799
20
58.594365415842
30
0.0
11
28.773433823263993
21
55.794743769617995
31
0.0
0
LINE
8
struts
62
1
5
13f
100
AcDbEntity
100
AcDbLine
10
28.773433823263993
20
55.794743769617995
30
0.0
11
40.50825547703999
21
43.838885688802
31
0.0
0
LINE
8
struts
62
1
5
140
100
AcDbEntity
100
AcDbLine
10
40.50825547703999
20
43.838885688802
30
0.0
11
43.36906289622399
21
46.638507335026006
31
0.0
0
LINE
8
struts
62
1
5
141
100
AcDbEntity
100
AcDbLine
10
43.36906289622399
20
46.638507335026006
30
0.0
11
31.63369090915799
21
58.594365415842
31
0.0
0
LINE
8
struts
62
1
5
142
100
AcDbEntity
100
AcDbLine
10
31.63369090915799
20
58.594365415842
30
0.0
11
31.63369090915799
21
58.594365415842
31
0.0
0
LINE
8
struts
62
1
5
143
100
AcDbEntity
100
AcDbLine
10
0.0
20
54.836732045051995
30
0.0
11
0.0
21
50.836562560026
31
0.0
0
LINE
8
struts
62
1
5
144
100
AcDbEntity
100
AcDbLine
10
0.0
20
50.836562560026
30
0.0
11
22.301065881788194
21
50.836562560026
31
0.0
0
LINE
8
struts
62
1
5
145
100
AcDbEntity
100
AcDbLine
10
22.301065881788194
20
50.836562560026
30
0.0
11
22.301065881788194
21
54.836732045051995
31
0.0
0
LINE
8
struts
62
1
5
146
100
AcDbEntity
100
AcDbLine
10
22.301065881788194
20
54.836732045051995
30
0.0
11
0.0
21
54.836732045051995
31
0.0
0
LINE
8
struts
62
1
5
147
100
AcDbEntity
100
AcDbLine
10
0.0
20
54.836732045051995
30
0.0
11
0.0
21
54.836732045051995
31
0.0
0
LINE
8
struts
62
1
5
148
100
AcDbEntity
100
AcDbLine
10
40.35501728910599
20
39.964942904948
30
0.0
11
27.250427647630193
21
26.203303010764003
31
0.0
0
LINE
8
struts
62
1
5
149
100
AcDbEntity
100
AcDbLine
10
27.250427647630193
20
26.203303010764003
30
0.0
11
30.153127847959993
21
23.44722825000001
31
0.0
0
LINE
8
struts
62
1
5
14a
100
AcDbEntity
100
AcDbLine
10
30.153127847959993
20
23.44722825000001
30
0.0
11
43.25771777165799
21
37.208868144184
31
0.0
0
LINE
8
struts
62
1
5
14b
100
AcDbEntity
100
AcDbLine
10
43.25771777165799
20
37.208868144184
30
0.0
11
40.35501728910599
21
39.964942904948
31
0.0
0
LINE
8
struts
62
1
5
14c
100
AcDbEntity
100
AcDbLine
10
40.35501728910599
20
39.964942904948
30
0.0
11
40.35501728910599
21
39.964942904948
31
0.0
0
LINE
8
struts
62
1
5
14d
100
AcDbEntity
100
AcDbLine
10
0.0
20
29.739349621224008
30
0.0
11
0.0
21
25.739180136198
31
0.0
0
LINE
8
struts
62
1
5
14e
100
AcDbEntity
100
AcDbLine
10
0.0
20
25.739180136198
30
0.0
11
22.301065881788194
21
25.739180136198
31
0.0
0
LINE
8
struts
62
1
5
14f
100
AcDbEntity
100
AcDbLine
10
22.301065881788194
20
25.739180136198
30
0.0
11
22.301065881788194
21
29.739349621224008
31
0.0
0
LINE
8
struts
62
1
5
150
100
AcDbEntity
100
AcDbLine
10
22.301065881788194
20
29.739349621224008
30
0.0
11
0.0
21
29.739349621224008
31
0.0
0
LINE
8
struts
62
1
5
151
100
AcDbEntity
100
AcDbLine
10
0.0
20
29.739349621224008
30
0.0
11
0.0
21
29.739349621224008
31
0.0
0
ENDSEC
0
SECTION
2
OBJECTS
0
DICTIONARY
5
C
330
0
100
AcDbDictionary
3
ACAD_GROUP
350
D
3
ACAD_MLINESTYLE
350
17
0
DICTIONARY
5
D
330
C
100
AcDbDictionary
0
DICTIONARY
5
1A
330
C
100
AcDbDictionary
0
DICTIONARY
5
17
330
C
100
AcDbDictionary
3
STANDARD
350
18
0
DICTIONARY
5
19
330
C
100
AcDbDictionary
0
ENDSEC
0
EOF
