0
SECTION
2
HEADER
9
$ACADVER
1
AC1014
9
$HANDSEED
5
FFFF
0
ENDSEC
0
SECTION
2
TABLES
0
TABLE
2
VPORT
5
8
330
0
100
AcDbSymbolTable
70
4
0
VPORT
5
2E
330
8
100
AcDbSymbolTableRecord
100
AcDbViewportTableRecord
2
*ACTIVE
70
0
10
0.0
20
0.0
11
1.0
21
1.0
12
4.25
22
5.5
13
0.0
23
0.0
14
10.0
24
10.0
15
10.0
25
10.0
16
0.0
26
0.0
36
1.0
17
0.0
27
0.0
37
0.0
40
11
41
1.24
42
50.0
43
0.0
44
0.0
50
0.0
51
0.0
71
0
72
100
73
1
74
3
75
0
76
0
77
0
78
0
0
ENDTAB
0
TABLE
2
LTYPE
5
5
330
0
100
AcDbSymbolTable
70
1
0
LTYPE
5
14
330
5
100
AcDbSymbolTableRecord
100
AcDbLinetypeTableRecord
2
BYBLOCK
70
0
3

72
65
73
0
40
0.0
0
LTYPE
5
15
330
5
100
AcDbSymbolTableRecord
100
AcDbLinetypeTableRecord
2
BYLAYER
70
0
3

72
65
73
0
40
0.0
0
LTYPE
5
16
330
5
100
AcDbSymbolTableRecord
100
AcDbLinetypeTableRecord
2
CONTINUOUS
70
0
3
Solid line
72
65
73
0
40
0.0
0
ENDTAB
0
TABLE
2
LAYER
5
2
330
0
100
AcDbSymbolTable
70
1
0
LAYER
5
10
330
2
100
AcDbSymbolTableRecord
100
AcDbLayerTableRecord
2
0
70
0
62
7
6
CONTINUOUS
0
ENDTAB
0
TABLE
2
STYLE
5
3
330
0
100
AcDbSymbolTable
70
1
0
STYLE
5
11
330
3
100
AcDbSymbolTableRecord
100
AcDbTextStyleTableRecord
2
STANDARD
70
0
40
0.0
41
1.0
50
0.0
71
0
42
2.5
3
txt
4

0
ENDTAB
0
TABLE
2
VIEW
5
6
330
0
100
AcDbSymbolTable
70
0
0
ENDTAB
0
TABLE
2
UCS
5
7
330
0
100
AcDbSymbolTable
70
0
0
ENDTAB
0
TABLE
2
APPID
5
9
330
0
100
AcDbSymbolTable
70
2
0
APPID
5
12
330
9
100
AcDbSymbolTableRecord
100
AcDbRegAppTableRecord
2
ACAD
70
0
0
ENDTAB
0
TABLE
2
DIMSTYLE
5
A
330
0
100
AcDbSymbolTable
70
1
0
DIMSTYLE
105
27
330
A
100
AcDbSymbolTableRecord
100
AcDbDimStyleTableRecord
2
ISO-25
70
0
3

4

5

6

7

40
1.0
41
2.5
42
0.625
43
3.75
44
1.25
45
0.0
46
0.0
47
0.0
48
0.0
140
2.5
141
2.5
142
0.0
143
0.03937007874016
144
1.0
145
0.0
146
1.0
147
0.625
71
0
72
0
73
0
74
0
75
0
76
0
77
1
78
8
170
0
171
3
172
1
173
0
174
0
175
0
176
0
177
0
178
0
270
2
271
2
272
2
273
2
274
3
340
11
275
0
280
0
281
0
282
0
283
0
284
8
285
0
286
0
287
3
288
0
0
ENDTAB
0
TABLE
2
BLOCK_RECORD
5
1
330
0
100
AcDbSymbolTable
70
1
0
BLOCK_RECORD
5
1F
330
1
100
AcDbSymbolTableRecord
100
AcDbBlockTableRecord
2
*MODEL_SPACE
0
BLOCK_RECORD
5
1B
330
1
100
AcDbSymbolTableRecord
100
AcDbBlockTableRecord
2
*PAPER_SPACE
0
ENDTAB
0
ENDSEC
0
SECTION
2
BLOCKS
0
BLOCK
5
20
330
1F
100
AcDbEntity
8
0
100
AcDbBlockBegin
2
*MODEL_SPACE
70
0
10
0.0
20
0.0
30
0.0
3
*MODEL_SPACE
1

0
ENDBLK
5
21
330
1F
100
AcDbEntity
8
0
100
AcDbBlockEnd
0
BLOCK
5
1C
330
1B
100
AcDbEntity
67
1
8
0
100
AcDbBlockBegin
2
*PAPER_SPACE
1

0
ENDBLK
5
1D
330
1B
100
AcDbEntity
67
1
8
0
100
AcDbBlockEnd
0
ENDSEC
0
SECTION
2
ENTITIES
0
LINE
8
shape
62
0
5
100
100
AcDbEntity
100
AcDbLine
10
25.68990475208333
20
52.24393708333329
30
0.0
11
24.39127604166666
21
52.24135474999997
31
0.0
0
LINE
8
shape
62
0
5
101
100
AcDbEntity
100
AcDbLine
10
24.39127604166666
20
52.24135474999997
30
0.0
11
20.18144409140625
21
51.91694581770831
31
0.0
0
LINE
8
shape
62
0
5
102
100
AcDbEntity
100
AcDbLine
10
20.18144409140625
20
51.91694581770831
30
0.0
11
18.474297263248694
21
51.572799464843726
31
0.0
0
LINE
8
shape
62
0
5
103
100
AcDbEntity
100
AcDbLine
10
18.474297263248694
20
51.572799464843726
30
0.0
11
16.98294270833333
21
51.09878866666665
31
0.0
0
LINE
8
shape
62
0
5
104
100
AcDbEntity
100
AcDbLine
10
16.98294270833333
20
51.09878866666665
30
0.0
11
14.387752212499997
21
50.333976145833304
31
0.0
0
LINE
8
shape
62
0
5
105
100
AcDbEntity
100
AcDbLine
10
14.387752212499997
20
50.333976145833304
30
0.0
11
12.477010324218748
21
50.10220313020831
31
0.0
0
LINE
8
shape
62
0
5
106
100
AcDbEntity
100
AcDbLine
10
12.477010324218748
20
50.10220313020831
30
0.0
11
10.961604949999998
21
50.1706779583333
31
0.0
0
LINE
8
shape
62
0
5
107
100
AcDbEntity
100
AcDbLine
10
10.961604949999998
20
50.1706779583333
30
0.0
11
9.894315007812498
21
50.40628445572914
31
0.0
0
LINE
8
shape
62
0
5
108
100
AcDbEntity
100
AcDbLine
10
9.894315007812498
20
50.40628445572914
30
0.0
11
8.519376693749997
21
50.92825412499998
31
0.0
0
LINE
8
shape
62
0
5
109
100
AcDbEntity
100
AcDbLine
10
8.519376693749997
20
50.92825412499998
30
0.0
11
6.986687744010415
21
51.49961554947913
31
0.0
0
LINE
8
shape
62
0
5
10a
100
AcDbEntity
100
AcDbLine
10
6.986687744010415
20
51.49961554947913
30
0.0
11
5.744869077083332
21
51.7829826458333
31
0.0
0
LINE
8
shape
62
0
5
10b
100
AcDbEntity
100
AcDbLine
10
5.744869077083332
20
51.7829826458333
30
0.0
11
3.491776629166666
21
51.81864054166664
31
0.0
0
LINE
8
shape
62
0
5
10c
100
AcDbEntity
100
AcDbLine
10
3.491776629166666
20
51.81864054166664
30
0.0
11
3.065962827083333
21
51.740091041666645
31
0.0
0
LINE
8
shape
62
0
5
10d
100
AcDbEntity
100
AcDbLine
10
3.065962827083333
20
51.740091041666645
30
0.0
11
3.765661654166666
21
50.769609958333305
31
0.0
0
LINE
8
shape
62
0
5
10e
100
AcDbEntity
100
AcDbLine
10
3.765661654166666
20
50.769609958333305
30
0.0
11
6.4272321726562485
21
46.581666888020806
31
0.0
0
LINE
8
shape
62
0
5
10f
100
AcDbEntity
100
AcDbLine
10
6.4272321726562485
20
46.581666888020806
30
0.0
11
7.466261857389322
21
44.60883065657549
31
0.0
0
LINE
8
shape
62
0
5
110
100
AcDbEntity
100
AcDbLine
10
7.466261857389322
20
44.60883065657549
30
0.0
11
8.116300389583332
21
43.0651708333333
31
0.0
0
LINE
8
shape
62
0
5
111
100
AcDbEntity
100
AcDbLine
10
8.116300389583332
20
43.0651708333333
30
0.0
11
8.621333517447916
21
40.80451626302081
31
0.0
0
LINE
8
shape
62
0
5
112
100
AcDbEntity
100
AcDbLine
10
8.621333517447916
20
40.80451626302081
30
0.0
11
8.655802474999998
21
38.57087102083332
31
0.0
0
LINE
8
shape
62
0
5
113
100
AcDbEntity
100
AcDbLine
10
8.655802474999998
20
38.57087102083332
30
0.0
11
8.447303982910155
21
37.1189201630859
31
0.0
0
LINE
8
shape
62
0
5
114
100
AcDbEntity
100
AcDbLine
10
8.447303982910155
20
37.1189201630859
30
0.0
11
8.057932214843749
21
35.62723294010413
31
0.0
0
LINE
8
shape
62
0
5
115
100
AcDbEntity
100
AcDbLine
10
8.057932214843749
20
35.62723294010413
30
0.0
11
6.496761199999998
21
31.773352124999974
31
0.0
0
LINE
8
shape
62
0
5
116
100
AcDbEntity
100
AcDbLine
10
6.496761199999998
20
31.773352124999974
30
0.0
11
3.578593035416666
21
24.773778874999977
31
0.0
0
LINE
8
shape
62
0
5
117
100
AcDbEntity
100
AcDbLine
10
3.578593035416666
20
24.773778874999977
30
0.0
11
3.219474611262614
21
23.395014232218397
31
0.0
0
LINE
8
shape
62
0
5
118
100
AcDbEntity
100
AcDbLine
10
3.219474611262614
20
23.395014232218397
30
0.0
11
3.0308371476529943
21
21.999751650716114
31
0.0
0
LINE
8
shape
62
0
5
119
100
AcDbEntity
100
AcDbLine
10
3.0308371476529943
20
21.999751650716114
30
0.0
11
3.011068250913492
21
20.597260549194303
31
0.0
0
LINE
8
shape
62
0
5
11a
100
AcDbEntity
100
AcDbLine
10
3.011068250913492
20
20.597260549194303
30
0.0
11
3.158555527369791
21
19.196810346354134
31
0.0
0
LINE
8
shape
62
0
5
11b
100
AcDbEntity
100
AcDbLine
10
3.158555527369791
20
19.196810346354134
30
0.0
11
3.471686583347574
21
17.80767046089678
31
0.0
0
LINE
8
shape
62
0
5
11c
100
AcDbEntity
100
AcDbLine
10
3.471686583347574
20
17.80767046089678
30
0.0
11
3.948849025172525
21
16.43911031152341
31
0.0
0
LINE
8
shape
62
0
5
11d
100
AcDbEntity
100
AcDbLine
10
3.948849025172525
20
16.43911031152341
30
0.0
11
4.588430459170327
21
15.1003993169352
31
0.0
0
LINE
8
shape
62
0
5
11e
100
AcDbEntity
100
AcDbLine
10
4.588430459170327
20
15.1003993169352
30
0.0
11
5.388818491666665
21
13.800806895833318
31
0.0
0
LINE
8
shape
62
0
5
11f
100
AcDbEntity
100
AcDbLine
10
5.388818491666665
20
13.800806895833318
30
0.0
11
6.52885205361328
21
12.348644412760397
31
0.0
0
LINE
8
shape
62
0
5
120
100
AcDbEntity
100
AcDbLine
10
6.52885205361328
20
12.348644412760397
30
0.0
11
7.803969984114582
21
11.11838764062498
31
0.0
0
LINE
8
shape
62
0
5
121
100
AcDbEntity
100
AcDbLine
10
7.803969984114582
20
11.11838764062498
30
0.0
11
9.249851767350258
21
10.080185626302068
31
0.0
0
LINE
8
shape
62
0
5
122
100
AcDbEntity
100
AcDbLine
10
9.249851767350258
20
10.080185626302068
30
0.0
11
10.902176887499998
21
9.204187416666656
31
0.0
0
LINE
8
shape
62
0
5
123
100
AcDbEntity
100
AcDbLine
10
10.902176887499998
20
9.204187416666656
30
0.0
11
11.35279537708333
21
8.997997624999982
31
0.0
0
LINE
8
shape
62
0
5
124
100
AcDbEntity
100
AcDbLine
10
11.35279537708333
20
8.997997624999982
30
0.0
11
11.448396743749997
21
8.954074145833317
31
0.0
0
LINE
8
shape
62
0
5
125
100
AcDbEntity
100
AcDbLine
10
11.448396743749997
20
8.954074145833317
30
0.0
11
11.431343554166665
21
8.917900312499967
31
0.0
0
LINE
8
shape
62
0
5
126
100
AcDbEntity
100
AcDbLine
10
11.431343554166665
20
8.917900312499967
30
0.0
11
11.22928867083333
21
8.557715083333306
31
0.0
0
LINE
8
shape
62
0
5
127
100
AcDbEntity
100
AcDbLine
10
11.22928867083333
20
8.557715083333306
30
0.0
11
10.760690983072914
21
7.4919019791666415
31
0.0
0
LINE
8
shape
62
0
5
128
100
AcDbEntity
100
AcDbLine
10
10.760690983072914
20
7.4919019791666415
30
0.0
11
10.677384506249998
21
6.303073499999982
31
0.0
0
LINE
8
shape
62
0
5
129
100
AcDbEntity
100
AcDbLine
10
10.677384506249998
20
6.303073499999982
30
0.0
11
10.880971988541663
21
5.140319046874971
31
0.0
0
LINE
8
shape
62
0
5
12a
100
AcDbEntity
100
AcDbLine
10
10.880971988541663
20
5.140319046874971
30
0.0
11
11.47423515833333
21
4.081502187499979
31
0.0
0
LINE
8
shape
62
0
5
12b
100
AcDbEntity
100
AcDbLine
10
11.47423515833333
20
4.081502187499979
30
0.0
11
12.317088029882811
21
3.3179378798827868
31
0.0
0
LINE
8
shape
62
0
5
12c
100
AcDbEntity
100
AcDbLine
10
12.317088029882811
20
3.3179378798827868
30
0.0
11
13.384964313541666
21
2.959174414062481
31
0.0
0
LINE
8
shape
62
0
5
12d
100
AcDbEntity
100
AcDbLine
10
13.384964313541666
20
2.959174414062481
30
0.0
11
14.59198278938802
21
3.012875694335926
31
0.0
0
LINE
8
shape
62
0
5
12e
100
AcDbEntity
100
AcDbLine
10
14.59198278938802
20
3.012875694335926
30
0.0
11
15.852262237499998
21
3.486705624999985
31
0.0
0
LINE
8
shape
62
0
5
12f
100
AcDbEntity
100
AcDbLine
10
15.852262237499998
20
3.486705624999985
30
0.0
11
16.437559927604163
21
3.7398437447916386
31
0.0
0
LINE
8
shape
62
0
5
130
100
AcDbEntity
100
AcDbLine
10
16.437559927604163
20
3.7398437447916386
30
0.0
11
16.93281660208333
21
3.804517833333307
31
0.0
0
LINE
8
shape
62
0
5
131
100
AcDbEntity
100
AcDbLine
10
16.93281660208333
20
3.804517833333307
30
0.0
11
17.388308815885416
21
3.688634632812473
31
0.0
0
LINE
8
shape
62
0
5
132
100
AcDbEntity
100
AcDbLine
10
17.388308815885416
20
3.688634632812473
30
0.0
11
17.858858268749998
21
3.3807691041666317
31
0.0
0
LINE
8
shape
62
0
5
133
100
AcDbEntity
100
AcDbLine
10
17.858858268749998
20
3.3807691041666317
30
0.0
11
18.504605544531245
21
2.971770895833316
31
0.0
0
LINE
8
shape
62
0
5
134
100
AcDbEntity
100
AcDbLine
10
18.504605544531245
20
2.971770895833316
30
0.0
11
19.261873306249996
21
2.696575124999981
31
0.0
0
LINE
8
shape
62
0
5
135
100
AcDbEntity
100
AcDbLine
10
19.261873306249996
20
2.696575124999981
30
0.0
11
19.269624804166664
21
2.6908892291666575
31
0.0
0
LINE
8
shape
62
0
5
136
100
AcDbEntity
100
AcDbLine
10
19.269624804166664
20
2.6908892291666575
30
0.0
11
19.295462954166663
21
2.684687395833322
31
0.0
0
LINE
8
shape
62
0
5
137
100
AcDbEntity
100
AcDbLine
10
19.295462954166663
20
2.684687395833322
30
0.0
11
20.554651483854162
21
2.6289757369791538
31
0.0
0
LINE
8
shape
62
0
5
138
100
AcDbEntity
100
AcDbLine
10
20.554651483854162
20
2.6289757369791538
30
0.0
11
21.764046091666664
21
2.9993986874999905
31
0.0
0
LINE
8
shape
62
0
5
139
100
AcDbEntity
100
AcDbLine
10
21.764046091666664
20
2.9993986874999905
30
0.0
11
22.696249374999997
21
3.7501747317708087
31
0.0
0
LINE
8
shape
62
0
5
13a
100
AcDbEntity
100
AcDbLine
10
22.696249374999997
20
3.7501747317708087
30
0.0
11
23.384619008333328
21
4.813757729166639
31
0.0
0
LINE
8
shape
62
0
5
13b
100
AcDbEntity
100
AcDbLine
10
23.384619008333328
20
4.813757729166639
30
0.0
11
23.647551804687495
21
5.798749885416651
31
0.0
0
LINE
8
shape
62
0
5
13c
100
AcDbEntity
100
AcDbLine
10
23.647551804687495
20
5.798749885416651
30
0.0
11
23.773225779166662
21
6.878230041666654
31
0.0
0
LINE
8
shape
62
0
5
13d
100
AcDbEntity
100
AcDbLine
10
23.773225779166662
20
6.878230041666654
30
0.0
11
23.774259506249994
21
7.078736583333324
31
0.0
0
LINE
8
shape
62
0
5
13e
100
AcDbEntity
100
AcDbLine
10
23.774259506249994
20
7.078736583333324
30
0.0
11
24.068815104166664
21
7.051862854166643
31
0.0
0
LINE
8
shape
62
0
5
13f
100
AcDbEntity
100
AcDbLine
10
24.068815104166664
20
7.051862854166643
30
0.0
11
24.966434699999994
21
7.022925374999971
31
0.0
0
LINE
8
shape
62
0
5
140
100
AcDbEntity
100
AcDbLine
10
24.966434699999994
20
7.022925374999971
30
0.0
11
26.48830533333333
21
7.0105217083333
31
0.0
0
LINE
8
shape
62
0
5
141
100
AcDbEntity
100
AcDbLine
10
26.48830533333333
20
7.0105217083333
30
0.0
11
28.334186833333327
21
7.010005770833317
31
0.0
0
LINE
8
shape
62
0
5
142
100
AcDbEntity
100
AcDbLine
10
28.334186833333327
20
7.010005770833317
30
0.0
11
28.37862889583333
21
6.379553958333304
31
0.0
0
LINE
8
shape
62
0
5
143
100
AcDbEntity
100
AcDbLine
10
28.37862889583333
20
6.379553958333304
30
0.0
11
28.524627756835937
21
5.425926502604149
31
0.0
0
LINE
8
shape
62
0
5
144
100
AcDbEntity
100
AcDbLine
10
28.524627756835937
20
5.425926502604149
30
0.0
11
28.820598486979165
21
4.59046262499999
31
0.0
0
LINE
8
shape
62
0
5
145
100
AcDbEntity
100
AcDbLine
10
28.820598486979165
20
4.59046262499999
30
0.0
11
29.265975291341142
21
3.8773692005208225
31
0.0
0
LINE
8
shape
62
0
5
146
100
AcDbEntity
100
AcDbLine
10
29.265975291341142
20
3.8773692005208225
30
0.0
11
29.860192374999997
21
3.2908531041666436
31
0.0
0
LINE
8
shape
62
0
5
147
100
AcDbEntity
100
AcDbLine
10
29.860192374999997
20
3.2908531041666436
30
0.0
11
30.76138503645833
21
2.7876539687499893
31
0.0
0
LINE
8
shape
62
0
5
148
100
AcDbEntity
100
AcDbLine
10
30.76138503645833
20
2.7876539687499893
30
0.0
11
31.85800291666666
21
2.604074145833323
31
0.0
0
LINE
8
shape
62
0
5
149
100
AcDbEntity
100
AcDbLine
10
31.85800291666666
20
2.604074145833323
30
0.0
11
33.064738395833324
21
2.723655890624979
31
0.0
0
LINE
8
shape
62
0
5
14a
100
AcDbEntity
100
AcDbLine
10
33.064738395833324
20
2.723655890624979
30
0.0
11
34.131249999999994
21
3.291369041666627
31
0.0
0
LINE
8
shape
62
0
5
14b
100
AcDbEntity
100
AcDbLine
10
34.131249999999994
20
3.291369041666627
30
0.0
11
34.70593855989583
21
3.6482354036458062
31
0.0
0
LINE
8
shape
62
0
5
14c
100
AcDbEntity
100
AcDbLine
10
34.70593855989583
20
3.6482354036458062
30
0.0
11
35.186482416666664
21
3.778162687499986
31
0.0
0
LINE
8
shape
62
0
5
14d
100
AcDbEntity
100
AcDbLine
10
35.186482416666664
20
3.778162687499986
30
0.0
11
35.6918944609375
21
3.70030705729166
31
0.0
0
LINE
8
shape
62
0
5
14e
100
AcDbEntity
100
AcDbLine
10
35.6918944609375
20
3.70030705729166
30
0.0
11
36.33990170833332
21
3.4076428333333126
31
0.0
0
LINE
8
shape
62
0
5
14f
100
AcDbEntity
100
AcDbLine
10
36.33990170833332
20
3.4076428333333126
30
0.0
11
37.35713135937499
21
3.0138909088541546
31
0.0
0
LINE
8
shape
62
0
5
150
100
AcDbEntity
100
AcDbLine
10
37.35713135937499
20
3.0138909088541546
30
0.0
11
38.42142641666666
21
2.9208491874999822
31
0.0
0
LINE
8
shape
62
0
5
151
100
AcDbEntity
100
AcDbLine
10
38.42142641666666
20
2.9208491874999822
30
0.0
11
39.154147294270814
21
3.030864384440076
31
0.0
0
LINE
8
shape
62
0
5
152
100
AcDbEntity
100
AcDbLine
10
39.154147294270814
20
3.030864384440076
30
0.0
11
39.783889031249984
21
3.2961239348957996
31
0.0
0
LINE
8
shape
62
0
5
153
100
AcDbEntity
100
AcDbLine
10
39.783889031249984
20
3.2961239348957996
30
0.0
11
40.32835820572916
21
3.72682529394528
31
0.0
0
LINE
8
shape
62
0
5
154
100
AcDbEntity
100
AcDbLine
10
40.32835820572916
20
3.72682529394528
30
0.0
11
40.80526139583333
21
4.333165916666644
31
0.0
0
LINE
8
shape
62
0
5
155
100
AcDbEntity
100
AcDbLine
10
40.80526139583333
20
4.333165916666644
30
0.0
11
41.29797906249999
21
5.354507523437476
31
0.0
0
LINE
8
shape
62
0
5
156
100
AcDbEntity
100
AcDbLine
10
41.29797906249999
20
5.354507523437476
30
0.0
11
41.42227766666665
21
6.534065333333302
31
0.0
0
LINE
8
shape
62
0
5
157
100
AcDbEntity
100
AcDbLine
10
41.42227766666665
20
6.534065333333302
30
0.0
11
41.376748828124995
21
7.339389200520824
31
0.0
0
LINE
8
shape
62
0
5
158
100
AcDbEntity
100
AcDbLine
10
41.376748828124995
20
7.339389200520824
30
0.0
11
41.17733170833333
21
7.9334624583333095
31
0.0
0
LINE
8
shape
62
0
5
159
100
AcDbEntity
100
AcDbLine
10
41.17733170833333
20
7.9334624583333095
30
0.0
11
40.642481791666654
21
8.877075104166664
31
0.0
0
LINE
8
shape
62
0
5
15a
100
AcDbEntity
100
AcDbLine
10
40.642481791666654
20
8.877075104166664
30
0.0
11
40.448693020833325
21
9.162846270833313
31
0.0
0
LINE
8
shape
62
0
5
15b
100
AcDbEntity
100
AcDbLine
10
40.448693020833325
20
9.162846270833313
30
0.0
11
40.446626624999986
21
9.165947187499967
31
0.0
0
LINE
8
shape
62
0
5
15c
100
AcDbEntity
100
AcDbLine
10
40.446626624999986
20
9.165947187499967
30
0.0
11
40.580468749999994
21
9.235193937499986
31
0.0
0
LINE
8
shape
62
0
5
15d
100
AcDbEntity
100
AcDbLine
10
40.580468749999994
20
9.235193937499986
30
0.0
11
41.147359708333326
21
9.529233333333309
31
0.0
0
LINE
8
shape
62
0
5
15e
100
AcDbEntity
100
AcDbLine
10
41.147359708333326
20
9.529233333333309
30
0.0
11
42.834807716145825
21
10.62408611197915
31
0.0
0
LINE
8
shape
62
0
5
15f
100
AcDbEntity
100
AcDbLine
10
42.834807716145825
20
10.62408611197915
30
0.0
11
44.37300095833332
21
11.944072187499955
31
0.0
0
LINE
8
shape
62
0
5
160
100
AcDbEntity
100
AcDbLine
10
44.37300095833332
20
11.944072187499955
30
0.0
11
45.5764298486328
21
13.415190619466118
31
0.0
0
LINE
8
shape
62
0
5
161
100
AcDbEntity
100
AcDbLine
10
45.5764298486328
20
13.415190619466118
30
0.0
11
46.581119861979154
21
15.110470252604145
31
0.0
0
LINE
8
shape
62
0
5
162
100
AcDbEntity
100
AcDbLine
10
46.581119861979154
20
15.110470252604145
30
0.0
11
47.36412591829426
21
16.982908436523417
31
0.0
0
LINE
8
shape
62
0
5
163
100
AcDbEntity
100
AcDbLine
10
47.36412591829426
20
16.982908436523417
30
0.0
11
47.902502937499996
21
18.985502520833307
31
0.0
0
LINE
8
shape
62
0
5
164
100
AcDbEntity
100
AcDbLine
10
47.902502937499996
20
18.985502520833307
30
0.0
11
48.124995031249995
21
21.25389979166664
31
0.0
0
LINE
8
shape
62
0
5
165
100
AcDbEntity
100
AcDbLine
10
48.124995031249995
20
21.25389979166664
30
0.0
11
48.031693687499995
21
23.628111874999973
31
0.0
0
LINE
8
shape
62
0
5
166
100
AcDbEntity
100
AcDbLine
10
48.031693687499995
20
23.628111874999973
30
0.0
11
47.758480844726556
21
25.271072841145813
31
0.0
0
LINE
8
shape
62
0
5
167
100
AcDbEntity
100
AcDbLine
10
47.758480844726556
20
25.271072841145813
30
0.0
11
47.30023222656249
21
26.95594777604165
31
0.0
0
LINE
8
shape
62
0
5
168
100
AcDbEntity
100
AcDbLine
10
47.30023222656249
20
26.95594777604165
30
0.0
11
45.382759437499985
21
31.83433064583332
31
0.0
0
LINE
8
shape
62
0
5
169
100
AcDbEntity
100
AcDbLine
10
45.382759437499985
20
31.83433064583332
30
0.0
11
43.87046063541666
21
35.71921169791665
31
0.0
0
LINE
8
shape
62
0
5
16a
100
AcDbEntity
100
AcDbLine
10
43.87046063541666
20
35.71921169791665
30
0.0
11
43.05783658333333
21
38.89178149999998
31
0.0
0
LINE
8
shape
62
0
5
16b
100
AcDbEntity
100
AcDbLine
10
43.05783658333333
20
38.89178149999998
30
0.0
11
42.86562655851236
21
40.38536061267088
31
0.0
0
LINE
8
shape
62
0
5
16c
100
AcDbEntity
100
AcDbLine
10
42.86562655851236
20
40.38536061267088
30
0.0
11
42.85813115039062
21
41.87128943261716
31
0.0
0
LINE
8
shape
62
0
5
16d
100
AcDbEntity
100
AcDbLine
10
42.85813115039062
20
41.87128943261716
30
0.0
11
43.03420742097981
21
43.345392307739225
31
0.0
0
LINE
8
shape
62
0
5
16e
100
AcDbEntity
100
AcDbLine
10
43.03420742097981
20
43.345392307739225
30
0.0
11
43.39271243229166
21
44.803493585937474
31
0.0
0
LINE
8
shape
62
0
5
16f
100
AcDbEntity
100
AcDbLine
10
43.39271243229166
20
44.803493585937474
30
0.0
11
43.93250324633788
21
46.241417615112276
31
0.0
0
LINE
8
shape
62
0
5
170
100
AcDbEntity
100
AcDbLine
10
43.93250324633788
20
46.241417615112276
30
0.0
11
44.652436925130196
21
47.65498874316403
31
0.0
0
LINE
8
shape
62
0
5
171
100
AcDbEntity
100
AcDbLine
10
44.652436925130196
20
47.65498874316403
30
0.0
11
45.55137053068033
21
49.04003131799314
31
0.0
0
LINE
8
shape
62
0
5
172
100
AcDbEntity
100
AcDbLine
10
45.55137053068033
20
49.04003131799314
30
0.0
11
46.62816112499999
21
50.39236968749998
31
0.0
0
LINE
8
shape
62
0
5
173
100
AcDbEntity
100
AcDbLine
10
46.62816112499999
20
50.39236968749998
30
0.0
11
46.98938087499999
21
50.81663435416664
31
0.0
0
LINE
8
shape
62
0
5
174
100
AcDbEntity
100
AcDbLine
10
46.98938087499999
20
50.81663435416664
30
0.0
11
47.11030339583332
21
50.96701293749997
31
0.0
0
LINE
8
shape
62
0
5
175
100
AcDbEntity
100
AcDbLine
10
47.11030339583332
20
50.96701293749997
30
0.0
11
47.179031562499986
21
51.06571574999998
31
0.0
0
LINE
8
shape
62
0
5
176
100
AcDbEntity
100
AcDbLine
10
47.179031562499986
20
51.06571574999998
30
0.0
11
47.187818374999985
21
51.216610270833314
31
0.0
0
LINE
8
shape
62
0
5
177
100
AcDbEntity
100
AcDbLine
10
47.187818374999985
20
51.216610270833314
30
0.0
11
47.10926887499999
21
51.31737947916665
31
0.0
0
LINE
8
shape
62
0
5
178
100
AcDbEntity
100
AcDbLine
10
47.10926887499999
20
51.31737947916665
30
0.0
11
46.88602668749999
21
51.41763010416663
31
0.0
0
LINE
8
shape
62
0
5
179
100
AcDbEntity
100
AcDbLine
10
46.88602668749999
20
51.41763010416663
30
0.0
11
46.12121681249999
21
51.53028704166664
31
0.0
0
LINE
8
shape
62
0
5
17a
100
AcDbEntity
100
AcDbLine
10
46.12121681249999
20
51.53028704166664
30
0.0
11
44.656024427083324
21
51.4455029661458
31
0.0
0
LINE
8
shape
62
0
5
17b
100
AcDbEntity
100
AcDbLine
10
44.656024427083324
20
51.4455029661458
30
0.0
11
42.61703810416666
21
51.00112037499997
31
0.0
0
LINE
8
shape
62
0
5
17c
100
AcDbEntity
100
AcDbLine
10
42.61703810416666
20
51.00112037499997
30
0.0
11
39.28176145833332
21
50.20065723437497
31
0.0
0
LINE
8
shape
62
0
5
17d
100
AcDbEntity
100
AcDbLine
10
39.28176145833332
20
50.20065723437497
30
0.0
11
37.25198924999999
21
50.10350024999997
31
0.0
0
LINE
8
shape
62
0
5
17e
100
AcDbEntity
100
AcDbLine
10
37.25198924999999
20
50.10350024999997
30
0.0
11
35.37570778645833
21
50.29261714062498
31
0.0
0
LINE
8
shape
62
0
5
17f
100
AcDbEntity
100
AcDbLine
10
35.37570778645833
20
50.29261714062498
30
0.0
11
33.18660547916666
21
51.06674762499998
31
0.0
0
LINE
8
shape
62
0
5
180
100
AcDbEntity
100
AcDbLine
10
33.18660547916666
20
51.06674762499998
30
0.0
11
31.68375429886067
21
51.54403673470049
31
0.0
0
LINE
8
shape
62
0
5
181
100
AcDbEntity
100
AcDbLine
10
31.68375429886067
20
51.54403673470049
30
0.0
11
29.892329427343743
21
51.904237549479134
31
0.0
0
LINE
8
shape
62
0
5
182
100
AcDbEntity
100
AcDbLine
10
29.892329427343743
20
51.904237549479134
30
0.0
11
25.68990475208333
21
52.24393708333329
31
0.0
0
LINE
8
shape
62
0
5
183
100
AcDbEntity
100
AcDbLine
10
25.68990475208333
20
52.24393708333329
30
0.0
11
25.68990475208333
21
52.24393708333329
31
0.0
0
LINE
8
shape
62
0
5
184
100
AcDbEntity
100
AcDbLine
10
25.685770637499996
20
51.978837812499975
30
0.0
11
29.853205655208328
21
51.64039141145831
31
0.0
0
LINE
8
shape
62
0
5
185
100
AcDbEntity
100
AcDbLine
10
29.853205655208328
20
51.64039141145831
30
0.0
11
31.619717049999995
21
51.28599973046872
31
0.0
0
LINE
8
shape
62
0
5
186
100
AcDbEntity
100
AcDbLine
10
31.619717049999995
20
51.28599973046872
30
0.0
11
33.08841860416666
21
50.820769791666635
31
0.0
0
LINE
8
shape
62
0
5
187
100
AcDbEntity
100
AcDbLine
10
33.08841860416666
20
50.820769791666635
30
0.0
11
35.3207746640625
21
50.03691289322914
31
0.0
0
LINE
8
shape
62
0
5
188
100
AcDbEntity
100
AcDbLine
10
35.3207746640625
20
50.03691289322914
30
0.0
11
37.242689145833324
21
49.83891691666663
31
0.0
0
LINE
8
shape
62
0
5
189
100
AcDbEntity
100
AcDbLine
10
37.242689145833324
20
49.83891691666663
30
0.0
11
39.31368674479165
21
49.94012963281247
31
0.0
0
LINE
8
shape
62
0
5
18a
100
AcDbEntity
100
AcDbLine
10
39.31368674479165
20
49.94012963281247
30
0.0
11
42.68421581249999
21
50.74532120833331
31
0.0
0
LINE
8
shape
62
0
5
18b
100
AcDbEntity
100
AcDbLine
10
42.68421581249999
20
50.74532120833331
30
0.0
11
44.69506435937499
21
51.18303563802081
31
0.0
0
LINE
8
shape
62
0
5
18c
100
AcDbEntity
100
AcDbLine
10
44.69506435937499
20
51.18303563802081
30
0.0
11
46.102611312499995
21
51.26621964583332
31
0.0
0
LINE
8
shape
62
0
5
18d
100
AcDbEntity
100
AcDbLine
10
46.102611312499995
20
51.26621964583332
30
0.0
11
46.812647145833324
21
51.16338404166663
31
0.0
0
LINE
8
shape
62
0
5
18e
100
AcDbEntity
100
AcDbLine
10
46.812647145833324
20
51.16338404166663
30
0.0
11
46.89998081249999
21
51.12772614583329
31
0.0
0
LINE
8
shape
62
0
5
18f
100
AcDbEntity
100
AcDbLine
10
46.89998081249999
20
51.12772614583329
30
0.0
11
46.78525747916665
21
50.98509985416665
31
0.0
0
LINE
8
shape
62
0
5
190
100
AcDbEntity
100
AcDbLine
10
46.78525747916665
20
50.98509985416665
30
0.0
11
46.42869174999999
21
50.5665210833333
31
0.0
0
LINE
8
shape
62
0
5
191
100
AcDbEntity
100
AcDbLine
10
46.42869174999999
20
50.5665210833333
30
0.0
11
45.33677359326171
21
49.19436673990883
31
0.0
0
LINE
8
shape
62
0
5
192
100
AcDbEntity
100
AcDbLine
10
45.33677359326171
20
49.19436673990883
30
0.0
11
44.423838496093744
21
47.785859886718725
31
0.0
0
LINE
8
shape
62
0
5
193
100
AcDbEntity
100
AcDbLine
10
44.423838496093744
20
47.785859886718725
30
0.0
11
43.691547752441394
21
46.345835453450505
31
0.0
0
LINE
8
shape
62
0
5
194
100
AcDbEntity
100
AcDbLine
10
43.691547752441394
20
46.345835453450505
30
0.0
11
43.14156265624999
21
44.879128369791644
31
0.0
0
LINE
8
shape
62
0
5
195
100
AcDbEntity
100
AcDbLine
10
43.14156265624999
20
44.879128369791644
30
0.0
11
42.775544501464836
21
43.390573565429676
31
0.0
0
LINE
8
shape
62
0
5
196
100
AcDbEntity
100
AcDbLine
10
42.775544501464836
20
43.390573565429676
30
0.0
11
42.59515458203124
21
41.88500597005207
31
0.0
0
LINE
8
shape
62
0
5
197
100
AcDbEntity
100
AcDbLine
10
42.59515458203124
20
41.88500597005207
30
0.0
11
42.602054191894524
21
40.36726051334634
31
0.0
0
LINE
8
shape
62
0
5
198
100
AcDbEntity
100
AcDbLine
10
42.602054191894524
20
40.36726051334634
30
0.0
11
42.797904624999994
21
38.84217212499999
31
0.0
0
LINE
8
shape
62
0
5
199
100
AcDbEntity
100
AcDbLine
10
42.797904624999994
20
38.84217212499999
30
0.0
11
43.61890803124999
21
35.638369252604136
31
0.0
0
LINE
8
shape
62
0
5
19a
100
AcDbEntity
100
AcDbLine
10
43.61890803124999
20
35.638369252604136
30
0.0
11
45.13936393749999
21
31.729944583333292
31
0.0
0
LINE
8
shape
62
0
5
19b
100
AcDbEntity
100
AcDbLine
10
45.13936393749999
20
31.729944583333292
30
0.0
11
47.04753298437498
21
26.880811731770812
31
0.0
0
LINE
8
shape
62
0
5
19c
100
AcDbEntity
100
AcDbLine
10
47.04753298437498
20
26.880811731770812
30
0.0
11
47.49982116015624
21
25.218291070637996
31
0.0
0
LINE
8
shape
62
0
5
19d
100
AcDbEntity
100
AcDbLine
10
47.49982116015624
20
25.218291070637996
30
0.0
11
47.769176749999986
21
23.595038958333305
31
0.0
0
LINE
8
shape
62
0
5
19e
100
AcDbEntity
100
AcDbLine
10
47.769176749999986
20
23.595038958333305
30
0.0
11
47.85868066145832
21
21.260144289062488
31
0.0
0
LINE
8
shape
62
0
5
19f
100
AcDbEntity
100
AcDbLine
10
47.85868066145832
20
21.260144289062488
30
0.0
11
47.64308691666666
21
19.037178291666663
31
0.0
0
LINE
8
shape
62
0
5
1a0
100
AcDbEntity
100
AcDbLine
10
47.64308691666666
20
19.037178291666663
30
0.0
11
47.11358861132812
21
17.06870140136718
31
0.0
0
LINE
8
shape
62
0
5
1a1
100
AcDbEntity
100
AcDbLine
10
47.11358861132812
20
17.06870140136718
30
0.0
11
46.344257255208326
21
15.229514231770821
31
0.0
0
LINE
8
shape
62
0
5
1a2
100
AcDbEntity
100
AcDbLine
10
46.344257255208326
20
15.229514231770821
30
0.0
11
45.359276922526035
21
13.566874425455719
31
0.0
0
LINE
8
shape
62
0
5
1a3
100
AcDbEntity
100
AcDbLine
10
45.359276922526035
20
13.566874425455719
30
0.0
11
44.18283168749999
21
12.128039624999985
31
0.0
0
LINE
8
shape
62
0
5
1a4
100
AcDbEntity
100
AcDbLine
10
44.18283168749999
20
12.128039624999985
30
0.0
11
42.674919677083324
21
10.83793658333332
31
0.0
0
LINE
8
shape
62
0
5
1a5
100
AcDbEntity
100
AcDbLine
10
42.674919677083324
20
10.83793658333332
30
0.0
11
41.02591860416666
21
9.764360604166654
31
0.0
0
LINE
8
shape
62
0
5
1a6
100
AcDbEntity
100
AcDbLine
10
41.02591860416666
20
9.764360604166654
30
0.0
11
40.458511708333326
21
9.46980527083332
31
0.0
0
LINE
8
shape
62
0
5
1a7
100
AcDbEntity
100
AcDbLine
10
40.458511708333326
20
9.46980527083332
30
0.0
11
40.279711583333324
21
9.377304291666661
31
0.0
0
LINE
8
shape
62
0
5
1a8
100
AcDbEntity
100
AcDbLine
10
40.279711583333324
20
9.377304291666661
30
0.0
11
40.20478158333333
21
9.337513604166645
31
0.0
0
LINE
8
shape
62
0
5
1a9
100
AcDbEntity
100
AcDbLine
10
40.20478158333333
20
9.337513604166645
30
0.0
11
40.16085545833333
21
9.298754791666653
31
0.0
0
LINE
8
shape
62
0
5
1aa
100
AcDbEntity
100
AcDbLine
10
40.16085545833333
20
9.298754791666653
30
0.0
11
40.14793585416666
21
9.276535083333329
31
0.0
0
LINE
8
shape
62
0
5
1ab
100
AcDbEntity
100
AcDbLine
10
40.14793585416666
20
9.276535083333329
30
0.0
11
40.14070214583332
21
9.256897708333298
31
0.0
0
LINE
8
shape
62
0
5
1ac
100
AcDbEntity
100
AcDbLine
10
40.14070214583332
20
9.256897708333298
30
0.0
11
40.13605077083333
21
9.206769749999978
31
0.0
0
LINE
8
shape
62
0
5
1ad
100
AcDbEntity
100
AcDbLine
10
40.13605077083333
20
9.206769749999978
30
0.0
11
40.145353520833325
21
9.165947187499967
31
0.0
0
LINE
8
shape
62
0
5
1ae
100
AcDbEntity
100
AcDbLine
10
40.145353520833325
20
9.165947187499967
30
0.0
11
40.16499089583333
21
9.122539645833314
31
0.0
0
LINE
8
shape
62
0
5
1af
100
AcDbEntity
100
AcDbLine
10
40.16499089583333
20
9.122539645833314
30
0.0
11
40.22493489583333
21
9.021770437499981
31
0.0
0
LINE
8
shape
62
0
5
1b0
100
AcDbEntity
100
AcDbLine
10
40.22493489583333
20
9.021770437499981
30
0.0
11
40.42698924999999
21
8.72307966666665
31
0.0
0
LINE
8
shape
62
0
5
1b1
100
AcDbEntity
100
AcDbLine
10
40.42698924999999
20
8.72307966666665
30
0.0
11
40.93600260416666
21
7.824943604166634
31
0.0
0
LINE
8
shape
62
0
5
1b2
100
AcDbEntity
100
AcDbLine
10
40.93600260416666
20
7.824943604166634
30
0.0
11
41.121775492187496
21
7.286896859374977
31
0.0
0
LINE
8
shape
62
0
5
1b3
100
AcDbEntity
100
AcDbLine
10
41.121775492187496
20
7.286896859374977
30
0.0
11
41.157694333333325
21
6.533033458333307
31
0.0
0
LINE
8
shape
62
0
5
1b4
100
AcDbEntity
100
AcDbLine
10
41.157694333333325
20
6.533033458333307
30
0.0
11
41.04908155208332
21
5.425757499999978
31
0.0
0
LINE
8
shape
62
0
5
1b5
100
AcDbEntity
100
AcDbLine
10
41.04908155208332
20
5.425757499999978
30
0.0
11
40.582535145833326
21
4.476310791666634
31
0.0
0
LINE
8
shape
62
0
5
1b6
100
AcDbEntity
100
AcDbLine
10
40.582535145833326
20
4.476310791666634
30
0.0
11
40.14264832161457
21
3.908794631184866
31
0.0
0
LINE
8
shape
62
0
5
1b7
100
AcDbEntity
100
AcDbLine
10
40.14264832161457
20
3.908794631184866
30
0.0
11
39.65412744270833
21
3.5167262421874774
31
0.0
0
LINE
8
shape
62
0
5
1b8
100
AcDbEntity
100
AcDbLine
10
39.65412744270833
20
3.5167262421874774
30
0.0
11
39.086432977864575
21
3.2816015758463384
31
0.0
0
LINE
8
shape
62
0
5
1b9
100
AcDbEntity
100
AcDbLine
10
39.086432977864575
20
3.2816015758463384
30
0.0
11
38.409025395833325
21
3.184916583333319
31
0.0
0
LINE
8
shape
62
0
5
1ba
100
AcDbEntity
100
AcDbLine
10
38.409025395833325
20
3.184916583333319
30
0.0
11
37.41671519531249
21
3.270105802083304
31
0.0
0
LINE
8
shape
62
0
5
1bb
100
AcDbEntity
100
AcDbLine
10
37.41671519531249
20
3.270105802083304
30
0.0
11
36.46547560416666
21
3.6407037083333194
31
0.0
0
LINE
8
shape
62
0
5
1bc
100
AcDbEntity
100
AcDbLine
10
36.46547560416666
20
3.6407037083333194
30
0.0
11
35.77031663020833
21
3.953514299479153
31
0.0
0
LINE
8
shape
62
0
5
1bd
100
AcDbEntity
100
AcDbLine
10
35.77031663020833
20
3.953514299479153
30
0.0
11
35.17253093749999
21
4.0422274374999745
31
0.0
0
LINE
8
shape
62
0
5
1be
100
AcDbEntity
100
AcDbLine
10
35.17253093749999
20
4.0422274374999745
30
0.0
11
34.598378489583325
21
3.8897487239583164
31
0.0
0
LINE
8
shape
62
0
5
1bf
100
AcDbEntity
100
AcDbLine
10
34.598378489583325
20
3.8897487239583164
30
0.0
11
33.975188166666655
21
3.5047925416666317
31
0.0
0
LINE
8
shape
62
0
5
1c0
100
AcDbEntity
100
AcDbLine
10
33.975188166666655
20
3.5047925416666317
30
0.0
11
32.99014772395833
21
2.970296835937482
31
0.0
0
LINE
8
shape
62
0
5
1c1
100
AcDbEntity
100
AcDbLine
10
32.99014772395833
20
2.970296835937482
30
0.0
11
31.869372062499995
21
2.8681388958333116
31
0.0
0
LINE
8
shape
62
0
5
1c2
100
AcDbEntity
100
AcDbLine
10
31.869372062499995
20
2.8681388958333116
30
0.0
11
30.847988453124998
21
3.0334227812499712
31
0.0
0
LINE
8
shape
62
0
5
1c3
100
AcDbEntity
100
AcDbLine
10
30.847988453124998
20
3.0334227812499712
30
0.0
11
30.022974624999996
21
3.4996252291666394
31
0.0
0
LINE
8
shape
62
0
5
1c4
100
AcDbEntity
100
AcDbLine
10
30.022974624999996
20
3.4996252291666394
30
0.0
11
29.47066063736979
21
4.043265761718729
31
0.0
0
LINE
8
shape
62
0
5
1c5
100
AcDbEntity
100
AcDbLine
10
29.47066063736979
20
4.043265761718729
30
0.0
11
29.056255255208328
21
4.705981692708317
31
0.0
0
LINE
8
shape
62
0
5
1c6
100
AcDbEntity
100
AcDbLine
10
29.056255255208328
20
4.705981692708317
30
0.0
11
28.78013997460937
21
5.490152287760404
31
0.0
0
LINE
8
shape
62
0
5
1c7
100
AcDbEntity
100
AcDbLine
10
28.78013997460937
20
5.490152287760404
30
0.0
11
28.64269629166666
21
6.398156812499991
31
0.0
0
LINE
8
shape
62
0
5
1c8
100
AcDbEntity
100
AcDbLine
10
28.64269629166666
20
6.398156812499991
30
0.0
11
28.581201833333328
21
7.274589104166665
31
0.0
0
LINE
8
shape
62
0
5
1c9
100
AcDbEntity
100
AcDbLine
10
28.581201833333328
20
7.274589104166665
30
0.0
11
26.48830533333333
21
7.275105041666649
31
0.0
0
LINE
8
shape
62
0
5
1ca
100
AcDbEntity
100
AcDbLine
10
26.48830533333333
20
7.275105041666649
30
0.0
11
24.97108554583333
21
7.28750870833332
31
0.0
0
LINE
8
shape
62
0
5
1cb
100
AcDbEntity
100
AcDbLine
10
24.97108554583333
20
7.28750870833332
30
0.0
11
24.093103060416663
21
7.315414312499996
31
0.0
0
LINE
8
shape
62
0
5
1cc
100
AcDbEntity
100
AcDbLine
10
24.093103060416663
20
7.315414312499996
30
0.0
11
23.510709635416664
21
7.369156479166634
31
0.0
0
LINE
8
shape
62
0
5
1cd
100
AcDbEntity
100
AcDbLine
10
23.510709635416664
20
7.369156479166634
30
0.0
11
23.508642445833328
21
6.879264562499969
31
0.0
0
LINE
8
shape
62
0
5
1ce
100
AcDbEntity
100
AcDbLine
10
23.508642445833328
20
6.879264562499969
30
0.0
11
23.142773437499997
21
4.920728770833307
31
0.0
0
LINE
8
shape
62
0
5
1cf
100
AcDbEntity
100
AcDbLine
10
23.142773437499997
20
4.920728770833307
30
0.0
11
22.496730589062494
21
3.927559666666646
31
0.0
0
LINE
8
shape
62
0
5
1d0
100
AcDbEntity
100
AcDbLine
10
22.496730589062494
20
3.927559666666646
30
0.0
11
21.640539649999994
21
3.2329754999999807
31
0.0
0
LINE
8
shape
62
0
5
1d1
100
AcDbEntity
100
AcDbLine
10
21.640539649999994
20
3.2329754999999807
30
0.0
11
20.520691022395834
21
2.894527776041649
31
0.0
0
LINE
8
shape
62
0
5
1d2
100
AcDbEntity
100
AcDbLine
10
20.520691022395834
20
2.894527776041649
30
0.0
11
19.356957941666664
21
2.942037020833311
31
0.0
0
LINE
8
shape
62
0
5
1d3
100
AcDbEntity
100
AcDbLine
10
19.356957941666664
20
2.942037020833311
30
0.0
11
18.63522537526041
21
3.201580703124982
31
0.0
0
LINE
8
shape
62
0
5
1d4
100
AcDbEntity
100
AcDbLine
10
18.63522537526041
20
3.201580703124982
30
0.0
11
18.02784023541666
21
3.5843739166666637
31
0.0
0
LINE
8
shape
62
0
5
1d5
100
AcDbEntity
100
AcDbLine
10
18.02784023541666
20
3.5843739166666637
30
0.0
11
17.495741588541662
21
3.929370078124979
31
0.0
0
LINE
8
shape
62
0
5
1d6
100
AcDbEntity
100
AcDbLine
10
17.495741588541662
20
3.929370078124979
30
0.0
11
16.947802866666663
21
4.068582583333296
31
0.0
0
LINE
8
shape
62
0
5
1d7
100
AcDbEntity
100
AcDbLine
10
16.947802866666663
20
4.068582583333296
30
0.0
11
16.365259555208333
21
3.994467830729139
31
0.0
0
LINE
8
shape
62
0
5
1d8
100
AcDbEntity
100
AcDbLine
10
16.365259555208333
20
3.994467830729139
30
0.0
11
15.725655143749997
21
3.7192505624999797
31
0.0
0
LINE
8
shape
62
0
5
1d9
100
AcDbEntity
100
AcDbLine
10
15.725655143749997
20
3.7192505624999797
30
0.0
11
14.541778957649736
21
3.2686647737630095
31
0.0
0
LINE
8
shape
62
0
5
1da
100
AcDbEntity
100
AcDbLine
10
14.541778957649736
20
3.2686647737630095
30
0.0
11
13.428282723697915
21
3.213358299479161
31
0.0
0
LINE
8
shape
62
0
5
1db
100
AcDbEntity
100
AcDbLine
10
13.428282723697915
20
3.213358299479161
30
0.0
11
12.454102761230468
21
3.540447336914057
31
0.0
0
LINE
8
shape
62
0
5
1dc
100
AcDbEntity
100
AcDbLine
10
12.454102761230468
20
3.540447336914057
30
0.0
11
11.688175389583332
21
4.23704808333332
31
0.0
0
LINE
8
shape
62
0
5
1dd
100
AcDbEntity
100
AcDbLine
10
11.688175389583332
20
4.23704808333332
30
0.0
11
11.125630675520831
21
5.227104364583326
31
0.0
0
LINE
8
shape
62
0
5
1de
100
AcDbEntity
100
AcDbLine
10
11.125630675520831
20
5.227104364583326
30
0.0
11
10.94145110833333
21
6.314958583333322
31
0.0
0
LINE
8
shape
62
0
5
1df
100
AcDbEntity
100
AcDbLine
10
10.94145110833333
20
6.314958583333322
30
0.0
11
11.012015417187499
21
7.42950330729165
31
0.0
0
LINE
8
shape
62
0
5
1e0
100
AcDbEntity
100
AcDbLine
10
11.012015417187499
20
7.42950330729165
30
0.0
11
11.456664972916665
21
8.422322499999979
31
0.0
0
LINE
8
shape
62
0
5
1e1
100
AcDbEntity
100
AcDbLine
10
11.456664972916665
20
8.422322499999979
30
0.0
11
11.666471354166664
21
8.79749372916666
31
0.0
0
LINE
8
shape
62
0
5
1e2
100
AcDbEntity
100
AcDbLine
10
11.666471354166664
20
8.79749372916666
30
0.0
11
11.726415883333331
21
8.924102145833302
31
0.0
0
LINE
8
shape
62
0
5
1e3
100
AcDbEntity
100
AcDbLine
10
11.726415883333331
20
8.924102145833302
30
0.0
11
11.743986068749997
21
8.976809791666653
31
0.0
0
LINE
8
shape
62
0
5
1e4
100
AcDbEntity
100
AcDbLine
10
11.743986068749997
20
8.976809791666653
30
0.0
11
11.749153645833331
21
9.020735916666638
31
0.0
0
LINE
8
shape
62
0
5
1e5
100
AcDbEntity
100
AcDbLine
10
11.749153645833331
20
9.020735916666638
30
0.0
11
11.739335222916663
21
9.068278895833316
31
0.0
0
LINE
8
shape
62
0
5
1e6
100
AcDbEntity
100
AcDbLine
10
11.739335222916663
20
9.068278895833316
30
0.0
11
11.719181381249998
21
9.103934145833307
31
0.0
0
LINE
8
shape
62
0
5
1e7
100
AcDbEntity
100
AcDbLine
10
11.719181381249998
20
9.103934145833307
30
0.0
11
11.701611195833332
21
9.122021062499982
31
0.0
0
LINE
8
shape
62
0
5
1e8
100
AcDbEntity
100
AcDbLine
10
11.701611195833332
20
9.122021062499982
30
0.0
11
11.679907160416665
21
9.137007062499976
31
0.0
0
LINE
8
shape
62
0
5
1e9
100
AcDbEntity
100
AcDbLine
10
11.679907160416665
20
9.137007062499976
30
0.0
11
11.679390429166665
21
9.137007062499976
31
0.0
0
LINE
8
shape
62
0
5
1ea
100
AcDbEntity
100
AcDbLine
10
11.679390429166665
20
9.137007062499976
30
0.0
11
11.609110481249997
21
9.171114499999987
31
0.0
0
LINE
8
shape
62
0
5
1eb
100
AcDbEntity
100
AcDbLine
10
11.609110481249997
20
9.171114499999987
30
0.0
11
11.46338300833333
21
9.23829485416664
31
0.0
0
LINE
8
shape
62
0
5
1ec
100
AcDbEntity
100
AcDbLine
10
11.46338300833333
20
9.23829485416664
30
0.0
11
11.011731056249998
21
9.445000583333325
31
0.0
0
LINE
8
shape
62
0
5
1ed
100
AcDbEntity
100
AcDbLine
10
11.011731056249998
20
9.445000583333325
30
0.0
11
9.388376810644528
21
10.304670569986964
31
0.0
0
LINE
8
shape
62
0
5
1ee
100
AcDbEntity
100
AcDbLine
10
9.388376810644528
20
10.304670569986964
30
0.0
11
7.972615797656248
21
11.320513101562486
31
0.0
0
LINE
8
shape
62
0
5
1ef
100
AcDbEntity
100
AcDbLine
10
7.972615797656248
20
11.320513101562486
30
0.0
11
6.725202859277342
21
12.525145597981755
31
0.0
0
LINE
8
shape
62
0
5
1f0
100
AcDbEntity
100
AcDbLine
10
6.725202859277342
20
12.525145597981755
30
0.0
11
5.606892837499999
21
13.95118547916664
31
0.0
0
LINE
8
shape
62
0
5
1f1
100
AcDbEntity
100
AcDbLine
10
5.606892837499999
20
13.95118547916664
30
0.0
11
4.820737804402669
21
15.227080933268208
31
0.0
0
LINE
8
shape
62
0
5
1f2
100
AcDbEntity
100
AcDbLine
10
4.820737804402669
20
15.227080933268208
30
0.0
11
4.193054977408854
21
16.5394886393229
31
0.0
0
LINE
8
shape
62
0
5
1f3
100
AcDbEntity
100
AcDbLine
10
4.193054977408854
20
16.5394886393229
30
0.0
11
3.72519047590332
21
17.879684292643212
31
0.0
0
LINE
8
shape
62
0
5
1f4
100
AcDbEntity
100
AcDbLine
10
3.72519047590332
20
17.879684292643212
30
0.0
11
3.418490419270833
21
19.23894358854165
31
0.0
0
LINE
8
shape
62
0
5
1f5
100
AcDbEntity
100
AcDbLine
10
3.418490419270833
20
19.23894358854165
30
0.0
11
3.2743009268961583
21
20.608542222330712
31
0.0
0
LINE
8
shape
62
0
5
1f6
100
AcDbEntity
100
AcDbLine
10
3.2743009268961583
20
20.608542222330712
30
0.0
11
3.293968118164062
21
21.979755889322895
31
0.0
0
LINE
8
shape
62
0
5
1f7
100
AcDbEntity
100
AcDbLine
10
3.293968118164062
20
21.979755889322895
30
0.0
11
3.478838112459309
21
23.343860284830704
31
0.0
0
LINE
8
shape
62
0
5
1f8
100
AcDbEntity
100
AcDbLine
10
3.478838112459309
20
23.343860284830704
30
0.0
11
3.830257029166666
21
24.692131104166634
31
0.0
0
LINE
8
shape
62
0
5
1f9
100
AcDbEntity
100
AcDbLine
10
3.830257029166666
20
24.692131104166634
30
0.0
11
6.737056577083332
21
31.66276422916667
31
0.0
0
LINE
8
shape
62
0
5
1fa
100
AcDbEntity
100
AcDbLine
10
6.737056577083332
20
31.66276422916667
30
0.0
11
8.310114758854164
21
35.551466195312486
31
0.0
0
LINE
8
shape
62
0
5
1fb
100
AcDbEntity
100
AcDbLine
10
8.310114758854164
20
35.551466195312486
30
0.0
11
8.706157594661455
21
37.06913525358071
31
0.0
0
LINE
8
shape
62
0
5
1fc
100
AcDbEntity
100
AcDbLine
10
8.706157594661455
20
37.06913525358071
30
0.0
11
8.918835349999998
21
38.54658227083331
31
0.0
0
LINE
8
shape
62
0
5
1fd
100
AcDbEntity
100
AcDbLine
10
8.918835349999998
20
38.54658227083331
30
0.0
11
8.883686876302082
21
40.83587765624998
31
0.0
0
LINE
8
shape
62
0
5
1fe
100
AcDbEntity
100
AcDbLine
10
8.883686876302082
20
40.83587765624998
30
0.0
11
8.367447916666665
21
43.14733454166665
31
0.0
0
LINE
8
shape
62
0
5
1ff
100
AcDbEntity
100
AcDbLine
10
8.367447916666665
20
43.14733454166665
30
0.0
11
7.703506828417967
21
44.73062179622393
31
0.0
0
LINE
8
shape
62
0
5
200
100
AcDbEntity
100
AcDbLine
10
7.703506828417967
20
44.73062179622393
30
0.0
11
6.656387466927082
21
46.72016667187496
31
0.0
0
LINE
8
shape
62
0
5
201
100
AcDbEntity
100
AcDbLine
10
6.656387466927082
20
46.72016667187496
30
0.0
11
3.9801188812499992
21
50.924121333333304
31
0.0
0
LINE
8
shape
62
0
5
202
100
AcDbEntity
100
AcDbLine
10
3.9801188812499992
20
50.924121333333304
30
0.0
11
3.5253662770833323
21
51.555607666666646
31
0.0
0
LINE
8
shape
62
0
5
203
100
AcDbEntity
100
AcDbLine
10
3.5253662770833323
20
51.555607666666646
30
0.0
11
3.539835545833333
21
51.55818999999997
31
0.0
0
LINE
8
shape
62
0
5
204
100
AcDbEntity
100
AcDbLine
10
3.539835545833333
20
51.55818999999997
30
0.0
11
5.706111587499999
21
51.520984291666636
31
0.0
0
LINE
8
shape
62
0
5
205
100
AcDbEntity
100
AcDbLine
10
5.706111587499999
20
51.520984291666636
30
0.0
11
6.910550384114581
21
51.2463461302083
31
0.0
0
LINE
8
shape
62
0
5
206
100
AcDbEntity
100
AcDbLine
10
6.910550384114581
20
51.2463461302083
30
0.0
11
8.417574022916664
21
50.683826749999966
31
0.0
0
LINE
8
shape
62
0
5
207
100
AcDbEntity
100
AcDbLine
10
8.417574022916664
20
50.683826749999966
30
0.0
11
9.820168869010415
21
50.153323606770805
31
0.0
0
LINE
8
shape
62
0
5
208
100
AcDbEntity
100
AcDbLine
10
9.820168869010415
20
50.153323606770805
30
0.0
11
10.923364191666664
21
49.90919554166665
31
0.0
0
LINE
8
shape
62
0
5
209
100
AcDbEntity
100
AcDbLine
10
10.923364191666664
20
49.90919554166665
30
0.0
11
12.488014808072915
21
49.83815590885415
31
0.0
0
LINE
8
shape
62
0
5
20a
100
AcDbEntity
100
AcDbLine
10
12.488014808072915
20
49.83815590885415
30
0.0
11
14.433227472916665
21
50.07300966666665
31
0.0
0
LINE
8
shape
62
0
5
20b
100
AcDbEntity
100
AcDbLine
10
14.433227472916665
20
50.07300966666665
30
0.0
11
17.078544074999996
21
50.851773666666645
31
0.0
0
LINE
8
shape
62
0
5
20c
100
AcDbEntity
100
AcDbLine
10
17.078544074999996
20
50.851773666666645
30
0.0
11
18.540398200097652
21
51.31619294694008
31
0.0
0
LINE
8
shape
62
0
5
20d
100
AcDbEntity
100
AcDbLine
10
18.540398200097652
20
51.31619294694008
30
0.0
11
20.222460130468747
21
51.65514490885414
31
0.0
0
LINE
8
shape
62
0
5
20e
100
AcDbEntity
100
AcDbLine
10
20.222460130468747
20
51.65514490885414
30
0.0
11
24.396443618749995
21
51.97677141666664
31
0.0
0
LINE
8
shape
62
0
5
20f
100
AcDbEntity
100
AcDbLine
10
24.396443618749995
20
51.97677141666664
30
0.0
11
25.685770637499996
21
51.978837812499975
31
0.0
0
LINE
8
shape
62
0
5
210
100
AcDbEntity
100
AcDbLine
10
25.685770637499996
20
51.978837812499975
30
0.0
11
25.685770637499996
21
51.978837812499975
31
0.0
0
ENDSEC
0
SECTION
2
OBJECTS
0
DICTIONARY
5
C
330
0
100
AcDbDictionary
3
ACAD_GROUP
350
D
3
ACAD_MLINESTYLE
350
17
0
DICTIONARY
5
D
330
C
100
AcDbDictionary
0
DICTIONARY
5
1A
330
C
100
AcDbDictionary
0
DICTIONARY
5
17
330
C
100
AcDbDictionary
3
STANDARD
350
18
0
DICTIONARY
5
19
330
C
100
AcDbDictionary
0
ENDSEC
0
EOF
