<?xml version="1.0" encoding="UTF-8" standalone="no"?>
<!-- Generator: Adobe Illustrator 15.1.0, SVG Export Plug-In . SVG Version: 6.00 Build 0)  -->

<svg
   xmlns:dc="http://purl.org/dc/elements/1.1/"
   xmlns:cc="http://creativecommons.org/ns#"
   xmlns:rdf="http://www.w3.org/1999/02/22-rdf-syntax-ns#"
   xmlns:svg="http://www.w3.org/2000/svg"
   xmlns="http://www.w3.org/2000/svg"
   xmlns:sodipodi="http://sodipodi.sourceforge.net/DTD/sodipodi-0.dtd"
   xmlns:inkscape="http://www.inkscape.org/namespaces/inkscape"
   version="1.1"
   id="Ebene_2"
   x="0px"
   y="0px"
   width="626.03149"
   height="670.09412"
   viewBox="0 0 626.0315 670.09412"
   enable-background="new 0 0 4856 968"
   xml:space="preserve"
   inkscape:version="0.91 r13725"
   sodipodi:docname="owl.svg"><metadata
     id="metadata41"><rdf:RDF><cc:Work
         rdf:about=""><dc:format>image/svg+xml</dc:format><dc:type
           rdf:resource="http://purl.org/dc/dcmitype/StillImage" /><dc:title /></cc:Work></rdf:RDF></metadata><defs
     id="defs39"><inkscape:path-effect
       effect="spiro"
       id="path-effect3201"
       is_visible="true" /><inkscape:path-effect
       effect="spiro"
       id="path-effect3197"
       is_visible="true" /><inkscape:path-effect
       effect="spiro"
       id="path-effect3193"
       is_visible="true" /><inkscape:path-effect
       effect="spiro"
       id="path-effect3189"
       is_visible="true" /><inkscape:path-effect
       effect="spiro"
       id="path-effect3185"
       is_visible="true" /><inkscape:path-effect
       effect="spiro"
       id="path-effect3181"
       is_visible="true" /><inkscape:path-effect
       effect="spiro"
       id="path-effect3177"
       is_visible="true" /><inkscape:path-effect
       effect="spiro"
       id="path-effect3173"
       is_visible="true" /><inkscape:path-effect
       effect="spiro"
       id="path-effect3152"
       is_visible="true" /><inkscape:path-effect
       is_visible="true"
       id="path-effect3144"
       effect="spiro" /><inkscape:path-effect
       effect="spiro"
       id="path-effect3140"
       is_visible="true" /><inkscape:path-effect
       is_visible="true"
       id="path-effect3136"
       effect="spiro" /><inkscape:path-effect
       effect="spiro"
       id="path-effect3131"
       is_visible="true" /><inkscape:path-effect
       is_visible="true"
       id="path-effect3127"
       effect="spiro" /><inkscape:path-effect
       effect="spiro"
       id="path-effect3123"
       is_visible="true" /><inkscape:path-effect
       is_visible="true"
       id="path-effect3119"
       effect="spiro" /><inkscape:path-effect
       effect="spiro"
       id="path-effect3115"
       is_visible="true" /><inkscape:path-effect
       is_visible="true"
       id="path-effect3111"
       effect="spiro" /><inkscape:path-effect
       effect="spiro"
       id="path-effect3107"
       is_visible="true" /><inkscape:path-effect
       is_visible="true"
       id="path-effect3103"
       effect="spiro" /><inkscape:path-effect
       effect="spiro"
       id="path-effect3099"
       is_visible="true" /><inkscape:path-effect
       is_visible="true"
       id="path-effect3095"
       effect="spiro" /><inkscape:path-effect
       effect="spiro"
       id="path-effect3091"
       is_visible="true" /><inkscape:path-effect
       is_visible="true"
       id="path-effect3087"
       effect="spiro" /><inkscape:path-effect
       effect="spiro"
       id="path-effect3083"
       is_visible="true" /><inkscape:path-effect
       is_visible="true"
       id="path-effect3079"
       effect="spiro" /><inkscape:path-effect
       effect="spiro"
       id="path-effect3075"
       is_visible="true" /><inkscape:path-effect
       is_visible="true"
       id="path-effect3071"
       effect="spiro" /><inkscape:path-effect
       effect="spiro"
       id="path-effect3067"
       is_visible="true" /><inkscape:path-effect
       is_visible="true"
       id="path-effect3063"
       effect="spiro" /><inkscape:path-effect
       effect="spiro"
       id="path-effect3059"
       is_visible="true" /><inkscape:path-effect
       is_visible="true"
       id="path-effect3055"
       effect="spiro" /><inkscape:path-effect
       effect="spiro"
       id="path-effect3051"
       is_visible="true" /><inkscape:path-effect
       is_visible="true"
       id="path-effect3047"
       effect="spiro" /><inkscape:path-effect
       effect="spiro"
       id="path-effect3043"
       is_visible="true" /><inkscape:path-effect
       is_visible="true"
       id="path-effect3039"
       effect="spiro" /><inkscape:path-effect
       effect="spiro"
       id="path-effect3033"
       is_visible="true" /><inkscape:path-effect
       effect="spiro"
       id="path-effect3090"
       is_visible="true" /><inkscape:path-effect
       effect="spiro"
       id="path-effect3086"
       is_visible="true" /><inkscape:path-effect
       is_visible="true"
       id="path-effect3082"
       effect="spiro" /><inkscape:path-effect
       effect="spiro"
       id="path-effect3078"
       is_visible="true" /><inkscape:path-effect
       is_visible="true"
       id="path-effect3074"
       effect="spiro" /><inkscape:path-effect
       is_visible="true"
       id="path-effect3038"
       effect="spiro" /><inkscape:path-effect
       effect="spiro"
       id="path-effect3774"
       is_visible="true" /><inkscape:path-effect
       effect="spiro"
       id="path-effect3768"
       is_visible="true" /><inkscape:path-effect
       effect="spiro"
       id="path-effect3764"
       is_visible="true" /><inkscape:path-effect
       effect="spiro"
       id="path-effect3760"
       is_visible="true" /><inkscape:path-effect
       is_visible="true"
       id="path-effect3079-2"
       effect="spiro" /></defs><sodipodi:namedview
     pagecolor="#ffffff"
     bordercolor="#666666"
     borderopacity="1"
     objecttolerance="10"
     gridtolerance="10"
     guidetolerance="10"
     inkscape:pageopacity="0"
     inkscape:pageshadow="2"
     inkscape:window-width="1680"
     inkscape:window-height="1002"
     id="namedview37"
     showgrid="true"
     fit-margin-top="20"
     fit-margin-left="20"
     fit-margin-right="20"
     fit-margin-bottom="20"
     inkscape:zoom="0.5"
     inkscape:cx="-91.460793"
     inkscape:cy="-121.85042"
     inkscape:window-x="0"
     inkscape:window-y="9"
     inkscape:window-maximized="0"
     inkscape:current-layer="layer1"
     inkscape:document-units="mm"
     units="mm"
     inkscape:snap-nodes="true"
     inkscape:snap-bbox="true"
     showguides="true"
     inkscape:guide-bbox="true"
     inkscape:snap-global="false"
     inkscape:bbox-nodes="true"><inkscape:grid
       type="xygrid"
       id="grid2988"
       empspacing="5"
       visible="true"
       enabled="true"
       snapvisiblegridlinesonly="true"
       units="mm"
       spacingx="1mm"
       spacingy="1mm" /></sodipodi:namedview><g
     inkscape:groupmode="layer"
     id="layer1"
     inkscape:label="shape"
     style="display:inline"><path
       style="fill:#000000"
       d="m 73.044114,659.46043 c -1.93597,-0.46453 -3.86644,-1.3984 -5.22639,-2.52825 -2.58738,-2.14961 -4.81003,-2.27407 -8.14266,-0.45596 -6.18424,3.37378 -12.52585,2.53573 -15.90358,-2.10168 -2.088,-2.86668 -2.76451,-4.75111 -2.91729,-8.1261 -0.16115,-3.55982 0.26461,-5.29993 2.01685,-8.24308 0.63479,-1.06623 1.0977,-1.97014 1.02868,-2.00868 -0.069,-0.0386 -1.1886,-0.5542 -2.48796,-1.14589 -8.83823,-4.0247 -15.21173,-9.33848 -20.63214,-17.20161 -8.79469,-12.75805 -11.2143,-27.4033 -6.77946,-41.03415 1.39327,-4.28231 6.62061,-16.81798 11.00879,-26.40014 5.55824,-12.13714 7.50182,-18.26316 8.203,-25.85518 0.51836,-5.6126 -0.1818,-11.4504 -2.06131,-17.18689 -2.09633,-6.39824 -9.53372,-19.57526 -16.51247,-29.25556 l -2.18261,-3.02754 0.83293,-0.153 c 1.55126,-0.28494 5.97034,-0.21209 8.35133,0.13769 3.06513,0.45027 5.80579,1.29544 10.36624,3.19673 4.51924,1.88411 6.36148,2.45455 9.35115,2.89553 3.68682,0.5438 7.46499,0.36573 13.10683,-0.61776 2.20208,-0.38387 7.06206,-1.8153 9.90489,-2.91733 6.95431,-2.69585 15.72974,-4.04713 27.82773,-4.28504 13.173236,-0.25907 25.456196,1.37775 33.047686,4.4039 7.96029,3.17315 9.14262,3.45297 15.53248,3.6759 6.06962,0.21176 7.78895,-0.0753 20.42244,-3.40946 6.01047,-1.58626 10.03757,-2.19695 13.08213,-1.98383 2.4203,0.16942 3.81641,0.5715 3.58588,1.03274 -0.0867,0.17351 -0.99224,1.27126 -2.01226,2.43944 -11.82334,13.54059 -16.50953,28.65539 -13.60772,43.89022 1.61136,8.45965 3.68213,14.74736 8.81885,26.77724 7.07068,16.55927 8.88228,22.1677 9.97492,30.8809 0.64691,5.15867 0.43581,12.77744 -0.48173,17.38746 -2.04078,10.25354 -6.76119,19.67412 -13.20973,26.36275 -2.87664,2.98374 -8.45361,7.15874 -12.06182,9.02965 -1.64825,0.85464 -3.03897,1.57728 -3.09049,1.60586 -0.0515,0.0286 0.40094,0.74622 1.00552,1.59475 0.60453,0.84852 1.49172,2.41471 1.9715,3.4804 0.77514,1.7217 0.87356,2.28849 0.88321,5.08626 0.0126,3.61995 -0.43609,5.22129 -2.25364,8.0449 -2.20415,3.42417 -4.75086,4.93526 -8.61242,5.11019 -2.73581,0.12393 -5.09327,-0.42798 -7.60701,-1.78088 -3.84708,-2.07051 -5.51948,-1.98094 -8.87884,0.47548 -2.83214,2.0709 -4.74821,2.65037 -8.27568,2.50276 -3.15945,-0.13221 -5.09353,-0.79531 -7.26578,-2.49108 -3.24936,-2.53662 -5.05799,-6.32097 -5.40773,-11.31504 l -0.1994,-2.84726 -7.44359,-0.002 c -4.093966,-10e-4 -8.188846,-0.0708 -9.099726,-0.15483 l -1.65615,-0.15274 -0.006,1.30531 c -0.009,1.92855 -0.81304,6.21494 -1.42592,7.60258 -1.23554,2.79745 -3.52152,5.36129 -5.90095,6.61823 -2.58991,1.36813 -6.15448,1.82229 -8.98043,1.1442 z"
       id="path3020"
       inkscape:connector-curvature="0" /></g><g
     inkscape:groupmode="layer"
     id="layer2"
     inkscape:label="struts"
     style="display:inline" /><g
     inkscape:groupmode="layer"
     id="layer3"
     inkscape:label="fillings"
     style="display:inline" /></svg>