0
SECTION
2
HEADER
9
$ACADVER
1
AC1014
9
$HANDSEED
5
FFFF
0
ENDSEC
0
SECTION
2
TABLES
0
TABLE
2
VPORT
5
8
330
0
100
AcDbSymbolTable
70
4
0
VPORT
5
2E
330
8
100
AcDbSymbolTableRecord
100
AcDbViewportTableRecord
2
*ACTIVE
70
0
10
0.0
20
0.0
11
1.0
21
1.0
12
4.25
22
5.5
13
0.0
23
0.0
14
10.0
24
10.0
15
10.0
25
10.0
16
0.0
26
0.0
36
1.0
17
0.0
27
0.0
37
0.0
40
11
41
1.24
42
50.0
43
0.0
44
0.0
50
0.0
51
0.0
71
0
72
100
73
1
74
3
75
0
76
0
77
0
78
0
0
ENDTAB
0
TABLE
2
LTYPE
5
5
330
0
100
AcDbSymbolTable
70
1
0
LTYPE
5
14
330
5
100
AcDbSymbolTableRecord
100
AcDbLinetypeTableRecord
2
BYBLOCK
70
0
3

72
65
73
0
40
0.0
0
LTYPE
5
15
330
5
100
AcDbSymbolTableRecord
100
AcDbLinetypeTableRecord
2
BYLAYER
70
0
3

72
65
73
0
40
0.0
0
LTYPE
5
16
330
5
100
AcDbSymbolTableRecord
100
AcDbLinetypeTableRecord
2
CONTINUOUS
70
0
3
Solid line
72
65
73
0
40
0.0
0
ENDTAB
0
TABLE
2
LAYER
5
2
330
0
100
AcDbSymbolTable
70
1
0
LAYER
5
10
330
2
100
AcDbSymbolTableRecord
100
AcDbLayerTableRecord
2
0
70
0
62
7
6
CONTINUOUS
0
ENDTAB
0
TABLE
2
STYLE
5
3
330
0
100
AcDbSymbolTable
70
1
0
STYLE
5
11
330
3
100
AcDbSymbolTableRecord
100
AcDbTextStyleTableRecord
2
STANDARD
70
0
40
0.0
41
1.0
50
0.0
71
0
42
2.5
3
txt
4

0
ENDTAB
0
TABLE
2
VIEW
5
6
330
0
100
AcDbSymbolTable
70
0
0
ENDTAB
0
TABLE
2
UCS
5
7
330
0
100
AcDbSymbolTable
70
0
0
ENDTAB
0
TABLE
2
APPID
5
9
330
0
100
AcDbSymbolTable
70
2
0
APPID
5
12
330
9
100
AcDbSymbolTableRecord
100
AcDbRegAppTableRecord
2
ACAD
70
0
0
ENDTAB
0
TABLE
2
DIMSTYLE
5
A
330
0
100
AcDbSymbolTable
70
1
0
DIMSTYLE
105
27
330
A
100
AcDbSymbolTableRecord
100
AcDbDimStyleTableRecord
2
ISO-25
70
0
3

4

5

6

7

40
1.0
41
2.5
42
0.625
43
3.75
44
1.25
45
0.0
46
0.0
47
0.0
48
0.0
140
2.5
141
2.5
142
0.0
143
0.03937007874016
144
1.0
145
0.0
146
1.0
147
0.625
71
0
72
0
73
0
74
0
75
0
76
0
77
1
78
8
170
0
171
3
172
1
173
0
174
0
175
0
176
0
177
0
178
0
270
2
271
2
272
2
273
2
274
3
340
11
275
0
280
0
281
0
282
0
283
0
284
8
285
0
286
0
287
3
288
0
0
ENDTAB
0
TABLE
2
BLOCK_RECORD
5
1
330
0
100
AcDbSymbolTable
70
1
0
BLOCK_RECORD
5
1F
330
1
100
AcDbSymbolTableRecord
100
AcDbBlockTableRecord
2
*MODEL_SPACE
0
BLOCK_RECORD
5
1B
330
1
100
AcDbSymbolTableRecord
100
AcDbBlockTableRecord
2
*PAPER_SPACE
0
ENDTAB
0
ENDSEC
0
SECTION
2
BLOCKS
0
BLOCK
5
20
330
1F
100
AcDbEntity
8
0
100
AcDbBlockBegin
2
*MODEL_SPACE
70
0
10
0.0
20
0.0
30
0.0
3
*MODEL_SPACE
1

0
ENDBLK
5
21
330
1F
100
AcDbEntity
8
0
100
AcDbBlockEnd
0
BLOCK
5
1C
330
1B
100
AcDbEntity
67
1
8
0
100
AcDbBlockBegin
2
*PAPER_SPACE
1

0
ENDBLK
5
1D
330
1B
100
AcDbEntity
67
1
8
0
100
AcDbBlockEnd
0
ENDSEC
0
SECTION
2
ENTITIES
0
LINE
8
shape
62
0
5
100
100
AcDbEntity
100
AcDbLine
10
16.335263364869796
20
55.19557192790799
30
0.0
11
13.805064458368907
21
54.95483484790533
31
0.0
0
LINE
8
shape
62
0
5
101
100
AcDbEntity
100
AcDbLine
10
13.805064458368907
20
54.95483484790533
30
0.0
11
11.40287532408017
21
54.247638710881745
31
0.0
0
LINE
8
shape
62
0
5
102
100
AcDbEntity
100
AcDbLine
10
11.40287532408017
20
54.247638710881745
30
0.0
11
9.1717577692379
21
53.096360121325276
31
0.0
0
LINE
8
shape
62
0
5
103
100
AcDbEntity
100
AcDbLine
10
9.1717577692379
20
53.096360121325276
30
0.0
11
7.154773601076398
21
51.523375683724
31
0.0
0
LINE
8
shape
62
0
5
104
100
AcDbEntity
100
AcDbLine
10
7.154773601076398
20
51.523375683724
30
0.0
11
5.244703946312401
21
49.32863779195469
31
0.0
0
LINE
8
shape
62
0
5
105
100
AcDbEntity
100
AcDbLine
10
5.244703946312401
20
49.32863779195469
30
0.0
11
3.489115362238706
21
46.4887383634855
31
0.0
0
LINE
8
shape
62
0
5
106
100
AcDbEntity
100
AcDbLine
10
3.489115362238706
20
46.4887383634855
30
0.0
11
1.8173499941897577
21
42.97668831294157
31
0.0
0
LINE
8
shape
62
0
5
107
100
AcDbEntity
100
AcDbLine
10
1.8173499941897577
20
42.97668831294157
30
0.0
11
0.15874998749999972
21
38.76549855494801
31
0.0
0
LINE
8
shape
62
0
5
108
100
AcDbEntity
100
AcDbLine
10
0.15874998749999972
20
38.76549855494801
30
0.0
11
0.015719815852043566
21
38.15584374406514
31
0.0
0
LINE
8
shape
62
0
5
109
100
AcDbEntity
100
AcDbLine
10
0.015719815852043566
20
38.15584374406514
30
0.0
11
0.021851218984651533
21
37.53834234958143
31
0.0
0
LINE
8
shape
62
0
5
10a
100
AcDbEntity
100
AcDbLine
10
0.021851218984651533
20
37.53834234958143
30
0.0
11
0.173667438363598
21
36.93976286294061
31
0.0
0
LINE
8
shape
62
0
5
10b
100
AcDbEntity
100
AcDbLine
10
0.173667438363598
20
36.93976286294061
30
0.0
11
0.46769171545465743
21
36.38687377558642
31
0.0
0
LINE
8
shape
62
0
5
10c
100
AcDbEntity
100
AcDbLine
10
0.46769171545465743
20
36.38687377558642
30
0.0
11
0.8855663533149256
21
35.9204861626855
31
0.0
0
LINE
8
shape
62
0
5
10d
100
AcDbEntity
100
AcDbLine
10
0.8855663533149256
20
35.9204861626855
30
0.0
11
1.3952945632966671
21
35.57188507513339
31
0.0
0
LINE
8
shape
62
0
5
10e
100
AcDbEntity
100
AcDbLine
10
1.3952945632966671
20
35.57188507513339
30
0.0
11
1.9729409493084094
21
35.3535499679672
31
0.0
0
LINE
8
shape
62
0
5
10f
100
AcDbEntity
100
AcDbLine
10
1.9729409493084094
20
35.3535499679672
30
0.0
11
2.59457011525868
21
35.277960296223995
31
0.0
0
LINE
8
shape
62
0
5
110
100
AcDbEntity
100
AcDbLine
10
2.59457011525868
20
35.277960296223995
30
0.0
11
4.279083758619799
21
35.277960296223995
31
0.0
0
LINE
8
shape
62
0
5
111
100
AcDbEntity
100
AcDbLine
10
4.279083758619799
20
35.277960296223995
30
0.0
11
4.910001298999423
21
35.35588547859392
31
0.0
0
LINE
8
shape
62
0
5
112
100
AcDbEntity
100
AcDbLine
10
4.910001298999423
20
35.35588547859392
30
0.0
11
5.494945995740872
21
35.58066797410021
31
0.0
0
LINE
8
shape
62
0
5
113
100
AcDbEntity
100
AcDbLine
10
5.494945995740872
20
35.58066797410021
30
0.0
11
6.008981077747735
21
35.939074730451395
31
0.0
0
LINE
8
shape
62
0
5
114
100
AcDbEntity
100
AcDbLine
10
6.008981077747735
20
35.939074730451395
30
0.0
11
6.4271697739236
21
36.417872695356
31
0.0
0
LINE
8
shape
62
0
5
115
100
AcDbEntity
100
AcDbLine
10
6.4271697739236
20
36.417872695356
30
0.0
11
8.489265789331597
21
39.4633381
31
0.0
0
LINE
8
shape
62
0
5
116
100
AcDbEntity
100
AcDbLine
10
8.489265789331597
20
39.4633381
30
0.0
11
8.491470791380197
21
39.465542255382005
31
0.0
0
LINE
8
shape
62
0
5
117
100
AcDbEntity
100
AcDbLine
10
8.491470791380197
20
39.465542255382005
30
0.0
11
9.276234782851642
21
40.391541427607564
31
0.0
0
LINE
8
shape
62
0
5
118
100
AcDbEntity
100
AcDbLine
10
9.276234782851642
20
40.391541427607564
30
0.0
11
10.206632467439197
21
41.02492997704
31
0.0
0
LINE
8
shape
62
0
5
119
100
AcDbEntity
100
AcDbLine
10
10.206632467439197
20
41.02492997704
30
0.0
11
11.376091969869654
21
41.38836099772894
31
0.0
0
LINE
8
shape
62
0
5
11a
100
AcDbEntity
100
AcDbLine
10
11.376091969869654
20
41.38836099772894
30
0.0
11
12.878041414869797
21
41.504487583724
31
0.0
0
LINE
8
shape
62
0
5
11b
100
AcDbEntity
100
AcDbLine
10
12.878041414869797
20
41.504487583724
30
0.0
11
14.573579616918396
21
41.504487583724
31
0.0
0
LINE
8
shape
62
0
5
11c
100
AcDbEntity
100
AcDbLine
10
14.573579616918396
20
41.504487583724
30
0.0
11
12.077125855711792
21
21.79413429127601
31
0.0
0
LINE
8
shape
62
0
5
11d
100
AcDbEntity
100
AcDbLine
10
12.077125855711792
20
21.79413429127601
30
0.0
11
12.069959951831592
21
21.735152673697996
31
0.0
0
LINE
8
shape
62
0
5
11e
100
AcDbEntity
100
AcDbLine
10
12.069959951831592
20
21.735152673697996
30
0.0
11
11.77654283059503
21
20.834306246366907
31
0.0
0
LINE
8
shape
62
0
5
11f
100
AcDbEntity
100
AcDbLine
10
11.77654283059503
20
20.834306246366907
30
0.0
11
10.97895683634847
21
19.26947714840125
31
0.0
0
LINE
8
shape
62
0
5
120
100
AcDbEntity
100
AcDbLine
10
10.97895683634847
20
19.26947714840125
30
0.0
11
9.636982051217174
21
17.16009273081397
31
0.0
0
LINE
8
shape
62
0
5
121
100
AcDbEntity
100
AcDbLine
10
9.636982051217174
20
17.16009273081397
30
0.0
11
7.710398557326398
21
14.625580344618001
31
0.0
0
LINE
8
shape
62
0
5
122
100
AcDbEntity
100
AcDbLine
10
7.710398557326398
20
14.625580344618001
30
0.0
11
6.4616167396834605
21
13.006196460670227
31
0.0
0
LINE
8
shape
62
0
5
123
100
AcDbEntity
100
AcDbLine
10
6.4616167396834605
20
13.006196460670227
30
0.0
11
5.494436127367199
21
11.401858106787758
31
0.0
0
LINE
8
shape
62
0
5
124
100
AcDbEntity
100
AcDbLine
10
5.494436127367199
20
11.401858106787758
30
0.0
11
4.869598804761436
21
9.759869018369914
31
0.0
0
LINE
8
shape
62
0
5
125
100
AcDbEntity
100
AcDbLine
10
4.869598804761436
20
9.759869018369914
30
0.0
11
4.647846856249998
21
8.027532930816008
31
0.0
0
LINE
8
shape
62
0
5
126
100
AcDbEntity
100
AcDbLine
10
4.647846856249998
20
8.027532930816008
30
0.0
11
4.813008222168777
21
6.335497291477727
31
0.0
0
LINE
8
shape
62
0
5
127
100
AcDbEntity
100
AcDbLine
10
4.813008222168777
20
6.335497291477727
30
0.0
11
5.301854647808874
21
4.728206893383264
31
0.0
0
LINE
8
shape
62
0
5
128
100
AcDbEntity
100
AcDbLine
10
5.301854647808874
20
4.728206893383264
30
0.0
11
6.104347075002433
21
3.2722385708736814
31
0.0
0
LINE
8
shape
62
0
5
129
100
AcDbEntity
100
AcDbLine
10
6.104347075002433
20
3.2722385708736814
30
0.0
11
7.210446445581598
21
2.034169158290041
31
0.0
0
LINE
8
shape
62
0
5
12a
100
AcDbEntity
100
AcDbLine
10
7.210446445581598
20
2.034169158290041
30
0.0
11
7.277694633619798
21
1.9768441850260103
31
0.0
0
LINE
8
shape
62
0
5
12b
100
AcDbEntity
100
AcDbLine
10
7.277694633619798
20
1.9768441850260103
30
0.0
11
8.450642772858892
21
1.15263043360529
31
0.0
0
LINE
8
shape
62
0
5
12c
100
AcDbEntity
100
AcDbLine
10
8.450642772858892
20
1.15263043360529
30
0.0
11
9.726695695229498
21
0.5304141350292593
31
0.0
0
LINE
8
shape
62
0
5
12d
100
AcDbEntity
100
AcDbLine
10
9.726695695229498
20
0.5304141350292593
30
0.0
11
11.079116039920255
21
0.13724813925110246
31
0.0
0
LINE
8
shape
62
0
5
12e
100
AcDbEntity
100
AcDbLine
10
11.079116039920255
20
0.13724813925110246
30
0.0
11
12.481166446119797
21
0.00018529622400365042
31
0.0
0
LINE
8
shape
62
0
5
12f
100
AcDbEntity
100
AcDbLine
10
12.481166446119797
20
0.00018529622400365042
30
0.0
11
14.325850711216278
21
0.20216511018119765
31
0.0
0
LINE
8
shape
62
0
5
130
100
AcDbEntity
100
AcDbLine
10
14.325850711216278
20
0.20216511018119765
30
0.0
11
16.068705696414145
21
0.7877700897650133
31
0.0
0
LINE
8
shape
62
0
5
131
100
AcDbEntity
100
AcDbLine
10
16.068705696414145
20
0.7877700897650133
30
0.0
11
17.64566747384114
21
1.7264794915453263
31
0.0
0
LINE
8
shape
62
0
5
132
100
AcDbEntity
100
AcDbLine
10
17.64566747384114
20
1.7264794915453263
30
0.0
11
18.992672115624995
21
2.9877725720920125
31
0.0
0
LINE
8
shape
62
0
5
133
100
AcDbEntity
100
AcDbLine
10
18.992672115624995
20
2.9877725720920125
30
0.0
11
19.74676321062274
21
4.042544133830795
31
0.0
0
LINE
8
shape
62
0
5
134
100
AcDbEntity
100
AcDbLine
10
19.74676321062274
20
4.042544133830795
30
0.0
11
20.329145080390894
21
5.21886923808176
31
0.0
0
LINE
8
shape
62
0
5
135
100
AcDbEntity
100
AcDbLine
10
20.329145080390894
20
5.21886923808176
30
0.0
11
21.254308257543393
21
8.089269037066003
31
0.0
0
LINE
8
shape
62
0
5
136
100
AcDbEntity
100
AcDbLine
10
21.254308257543393
20
8.089269037066003
30
0.0
11
22.12451469374542
21
11.833683825563512
31
0.0
0
LINE
8
shape
62
0
5
137
100
AcDbEntity
100
AcDbLine
10
22.12451469374542
20
11.833683825563512
30
0.0
11
22.945436455494793
21
16.519553773264008
31
0.0
0
LINE
8
shape
62
0
5
138
100
AcDbEntity
100
AcDbLine
10
22.945436455494793
20
16.519553773264008
30
0.0
11
24.467670012578317
21
27.584731290879006
31
0.0
0
LINE
8
shape
62
0
5
139
100
AcDbEntity
100
AcDbLine
10
24.467670012578317
20
27.584731290879006
30
0.0
11
25.896643032005194
21
41.504487583724
31
0.0
0
LINE
8
shape
62
0
5
13a
100
AcDbEntity
100
AcDbLine
10
25.896643032005194
20
41.504487583724
30
0.0
11
31.831576649131993
21
41.504487583724
31
0.0
0
LINE
8
shape
62
0
5
13b
100
AcDbEntity
100
AcDbLine
10
31.831576649131993
20
41.504487583724
30
0.0
11
30.45078195785599
21
28.462184099566002
31
0.0
0
LINE
8
shape
62
0
5
13c
100
AcDbEntity
100
AcDbLine
10
30.45078195785599
20
28.462184099566002
30
0.0
11
30.447477135893994
21
28.430764302040004
31
0.0
0
LINE
8
shape
62
0
5
13d
100
AcDbEntity
100
AcDbLine
10
30.447477135893994
20
28.430764302040004
30
0.0
11
30.218252384498744
21
24.907249062815502
31
0.0
0
LINE
8
shape
62
0
5
13e
100
AcDbEntity
100
AcDbLine
10
30.218252384498744
20
24.907249062815502
30
0.0
11
30.14485873749999
21
20.974476355815995
31
0.0
0
LINE
8
shape
62
0
5
13f
100
AcDbEntity
100
AcDbLine
10
30.14485873749999
20
20.974476355815995
30
0.0
11
30.326147254475302
21
16.398153336295312
31
0.0
0
LINE
8
shape
62
0
5
140
100
AcDbEntity
100
AcDbLine
10
30.326147254475302
20
16.398153336295312
30
0.0
11
30.90169401123999
21
12.354035945702005
31
0.0
0
LINE
8
shape
62
0
5
141
100
AcDbEntity
100
AcDbLine
10
30.90169401123999
20
12.354035945702005
30
0.0
11
31.91889381656218
21
8.835770480369698
31
0.0
0
LINE
8
shape
62
0
5
142
100
AcDbEntity
100
AcDbLine
10
31.91889381656218
20
8.835770480369698
30
0.0
11
32.60792449017237
21
7.271846687280677
31
0.0
0
LINE
8
shape
62
0
5
143
100
AcDbEntity
100
AcDbLine
10
32.60792449017237
20
7.271846687280677
30
0.0
11
33.42514147920999
21
5.837003236632015
31
0.0
0
LINE
8
shape
62
0
5
144
100
AcDbEntity
100
AcDbLine
10
33.42514147920999
20
5.837003236632015
30
0.0
11
33.439472722525984
21
5.81495603836801
31
0.0
0
LINE
8
shape
62
0
5
145
100
AcDbEntity
100
AcDbLine
10
33.439472722525984
20
5.81495603836801
30
0.0
11
35.244851046342426
21
3.5478937248629823
31
0.0
0
LINE
8
shape
62
0
5
146
100
AcDbEntity
100
AcDbLine
10
35.244851046342426
20
3.5478937248629823
30
0.0
11
36.25850310914883
21
2.606088913300362
31
0.0
0
LINE
8
shape
62
0
5
147
100
AcDbEntity
100
AcDbLine
10
36.25850310914883
20
2.606088913300362
30
0.0
11
37.33892839325999
21
1.8082922677422655
31
0.0
0
LINE
8
shape
62
0
5
148
100
AcDbEntity
100
AcDbLine
10
37.33892839325999
20
1.8082922677422655
30
0.0
11
38.4807253642054
21
1.1666467400971365
31
0.0
0
LINE
8
shape
62
0
5
149
100
AcDbEntity
100
AcDbLine
10
38.4807253642054
20
1.1666467400971365
30
0.0
11
39.67849248751455
21
0.6932952822734209
31
0.0
0
LINE
8
shape
62
0
5
14a
100
AcDbEntity
100
AcDbLine
10
39.67849248751455
20
0.6932952822734209
30
0.0
11
40.92682822871692
21
0.40038084617956327
31
0.0
0
LINE
8
shape
62
0
5
14b
100
AcDbEntity
100
AcDbLine
10
40.92682822871692
20
0.40038084617956327
30
0.0
11
42.220331053341994
21
0.30004638372400905
31
0.0
0
LINE
8
shape
62
0
5
14c
100
AcDbEntity
100
AcDbLine
10
42.220331053341994
20
0.30004638372400905
30
0.0
11
43.790407455755584
21
0.4053843756900941
31
0.0
0
LINE
8
shape
62
0
5
14d
100
AcDbEntity
100
AcDbLine
10
43.790407455755584
20
0.4053843756900941
30
0.0
11
45.30776483940361
21
0.7155424614244448
31
0.0
0
LINE
8
shape
62
0
5
14e
100
AcDbEntity
100
AcDbLine
10
45.30776483940361
20
0.7155424614244448
30
0.0
11
46.762971867528705
21
1.2217304556817017
31
0.0
0
LINE
8
shape
62
0
5
14f
100
AcDbEntity
100
AcDbLine
10
46.762971867528705
20
1.2217304556817017
30
0.0
11
48.14659720337349
21
1.915158173216506
31
0.0
0
LINE
8
shape
62
0
5
150
100
AcDbEntity
100
AcDbLine
10
48.14659720337349
20
1.915158173216506
30
0.0
11
49.44920951018058
21
2.7870354287834984
31
0.0
0
LINE
8
shape
62
0
5
151
100
AcDbEntity
100
AcDbLine
10
49.44920951018058
20
2.7870354287834984
30
0.0
11
50.66137745119261
21
3.8285720371373193
31
0.0
0
LINE
8
shape
62
0
5
152
100
AcDbEntity
100
AcDbLine
10
50.66137745119261
20
3.8285720371373193
30
0.0
11
51.7736696896522
21
5.03097781303261
31
0.0
0
LINE
8
shape
62
0
5
153
100
AcDbEntity
100
AcDbLine
10
51.7736696896522
20
5.03097781303261
30
0.0
11
52.776654888801986
21
6.385462571224011
31
0.0
0
LINE
8
shape
62
0
5
154
100
AcDbEntity
100
AcDbLine
10
52.776654888801986
20
6.385462571224011
30
0.0
11
54.44170673443164
21
9.313192899721553
31
0.0
0
LINE
8
shape
62
0
5
155
100
AcDbEntity
100
AcDbLine
10
54.44170673443164
20
9.313192899721553
30
0.0
11
55.63012417800824
21
12.473967680700852
31
0.0
0
LINE
8
shape
62
0
5
156
100
AcDbEntity
100
AcDbLine
10
55.63012417800824
20
12.473967680700852
30
0.0
11
56.34265307988971
21
15.843073245272912
31
0.0
0
LINE
8
shape
62
0
5
157
100
AcDbEntity
100
AcDbLine
10
56.34265307988971
20
15.843073245272912
30
0.0
11
56.580039300433995
21
19.395795924548736
31
0.0
0
LINE
8
shape
62
0
5
158
100
AcDbEntity
100
AcDbLine
10
56.580039300433995
20
19.395795924548736
30
0.0
11
56.382541209062346
21
20.38869603899688
31
0.0
0
LINE
8
shape
62
0
5
159
100
AcDbEntity
100
AcDbLine
10
56.382541209062346
20
20.38869603899688
30
0.0
11
55.8201092422203
21
21.230436150932107
31
0.0
0
LINE
8
shape
62
0
5
15a
100
AcDbEntity
100
AcDbLine
10
55.8201092422203
20
21.230436150932107
30
0.0
11
54.978369130288804
21
21.79286811777977
31
0.0
0
LINE
8
shape
62
0
5
15b
100
AcDbEntity
100
AcDbLine
10
54.978369130288804
20
21.79286811777977
30
0.0
11
53.985469015841986
21
21.99036620915801
31
0.0
0
LINE
8
shape
62
0
5
15c
100
AcDbEntity
100
AcDbLine
10
53.985469015841986
20
21.99036620915801
30
0.0
11
51.90408029084198
21
21.99036620915801
31
0.0
0
LINE
8
shape
62
0
5
15d
100
AcDbEntity
100
AcDbLine
10
51.90408029084198
20
21.99036620915801
30
0.0
11
50.98609791366137
21
21.82290635784331
31
0.0
0
LINE
8
shape
62
0
5
15e
100
AcDbEntity
100
AcDbLine
10
50.98609791366137
20
21.82290635784331
30
0.0
11
50.2078246982379
21
21.359001696037197
31
0.0
0
LINE
8
shape
62
0
5
15f
100
AcDbEntity
100
AcDbLine
10
50.2078246982379
20
21.359001696037197
30
0.0
11
49.635927162981474
21
20.656257117787995
31
0.0
0
LINE
8
shape
62
0
5
160
100
AcDbEntity
100
AcDbLine
10
49.635927162981474
20
20.656257117787995
30
0.0
11
49.33707182630199
21
19.772277517144005
31
0.0
0
LINE
8
shape
62
0
5
161
100
AcDbEntity
100
AcDbLine
10
49.33707182630199
20
19.772277517144005
30
0.0
11
49.047666453950924
21
18.269430014645128
31
0.0
0
LINE
8
shape
62
0
5
162
100
AcDbEntity
100
AcDbLine
10
49.047666453950924
20
18.269430014645128
30
0.0
11
48.68341628332648
21
17.053093431253004
31
0.0
0
LINE
8
shape
62
0
5
163
100
AcDbEntity
100
AcDbLine
10
48.68341628332648
20
17.053093431253004
30
0.0
11
47.85375145420999
21
15.45956952339401
31
0.0
0
LINE
8
shape
62
0
5
164
100
AcDbEntity
100
AcDbLine
10
47.85375145420999
20
15.45956952339401
30
0.0
11
47.064039410836486
21
14.759728670166261
31
0.0
0
LINE
8
shape
62
0
5
165
100
AcDbEntity
100
AcDbLine
10
47.064039410836486
20
14.759728670166261
30
0.0
11
45.97741409084199
21
14.582033459158012
31
0.0
0
LINE
8
shape
62
0
5
166
100
AcDbEntity
100
AcDbLine
10
45.97741409084199
20
14.582033459158012
30
0.0
11
44.9853682651364
21
14.646407461033636
31
0.0
0
LINE
8
shape
62
0
5
167
100
AcDbEntity
100
AcDbLine
10
44.9853682651364
20
14.646407461033636
30
0.0
11
44.26311777860374
21
14.84919981034351
31
0.0
0
LINE
8
shape
62
0
5
168
100
AcDbEntity
100
AcDbLine
10
44.26311777860374
20
14.84919981034351
30
0.0
11
43.719745190486215
21
15.204903322613132
31
0.0
0
LINE
8
shape
62
0
5
169
100
AcDbEntity
100
AcDbLine
10
43.719745190486215
20
15.204903322613132
30
0.0
11
43.26433306002599
21
15.728010813368002
31
0.0
0
LINE
8
shape
62
0
5
16a
100
AcDbEntity
100
AcDbLine
10
43.26433306002599
20
15.728010813368002
30
0.0
11
42.841959624186515
21
16.503649890835725
31
0.0
0
LINE
8
shape
62
0
5
16b
100
AcDbEntity
100
AcDbLine
10
42.841959624186515
20
16.503649890835725
30
0.0
11
42.48700175178874
21
17.61386435654226
31
0.0
0
LINE
8
shape
62
0
5
16c
100
AcDbEntity
100
AcDbLine
10
42.48700175178874
20
17.61386435654226
30
0.0
11
42.242483599861586
21
19.068514965961164
31
0.0
0
LINE
8
shape
62
0
5
16d
100
AcDbEntity
100
AcDbLine
10
42.242483599861586
20
19.068514965961164
30
0.0
11
42.15142932543399
21
20.877462474566002
31
0.0
0
LINE
8
shape
62
0
5
16e
100
AcDbEntity
100
AcDbLine
10
42.15142932543399
20
20.877462474566002
30
0.0
11
42.39524355345824
21
31.17070053907475
31
0.0
0
LINE
8
shape
62
0
5
16f
100
AcDbEntity
100
AcDbLine
10
42.39524355345824
20
31.17070053907475
30
0.0
11
43.11219836089399
21
41.504487583724
31
0.0
0
LINE
8
shape
62
0
5
170
100
AcDbEntity
100
AcDbLine
10
43.11219836089399
20
41.504487583724
30
0.0
11
53.19171907834199
21
41.504487583724
31
0.0
0
LINE
8
shape
62
0
5
171
100
AcDbEntity
100
AcDbLine
10
53.19171907834199
20
41.504487583724
30
0.0
11
54.18461919276332
21
41.70198567509169
31
0.0
0
LINE
8
shape
62
0
5
172
100
AcDbEntity
100
AcDbLine
10
54.18461919276332
20
41.70198567509169
30
0.0
11
55.02635930468127
21
42.264417641910896
31
0.0
0
LINE
8
shape
62
0
5
173
100
AcDbEntity
100
AcDbLine
10
55.02635930468127
20
42.264417641910896
30
0.0
11
55.58879127153067
21
43.106157753808674
31
0.0
0
LINE
8
shape
62
0
5
174
100
AcDbEntity
100
AcDbLine
10
55.58879127153067
20
43.106157753808674
30
0.0
11
55.78628936293398
21
44.09905786822292
31
0.0
0
LINE
8
shape
62
0
5
175
100
AcDbEntity
100
AcDbLine
10
55.78628936293398
20
44.09905786822292
30
0.0
11
55.78628936293398
21
52.60100164340907
31
0.0
0
LINE
8
shape
62
0
5
176
100
AcDbEntity
100
AcDbLine
10
55.78628936293398
20
52.60100164340907
30
0.0
11
55.58879127153067
21
53.59390175782332
31
0.0
0
LINE
8
shape
62
0
5
177
100
AcDbEntity
100
AcDbLine
10
55.58879127153067
20
53.59390175782332
30
0.0
11
55.02635930468127
21
54.435641869721096
31
0.0
0
LINE
8
shape
62
0
5
178
100
AcDbEntity
100
AcDbLine
10
55.02635930468127
20
54.435641869721096
30
0.0
11
54.18461919276332
21
54.9980738365403
31
0.0
0
LINE
8
shape
62
0
5
179
100
AcDbEntity
100
AcDbLine
10
54.18461919276332
20
54.9980738365403
30
0.0
11
53.19171907834199
21
55.19557192790799
31
0.0
0
LINE
8
shape
62
0
5
17a
100
AcDbEntity
100
AcDbLine
10
53.19171907834199
20
55.19557192790799
30
0.0
11
16.335263364869796
21
55.19557192790799
31
0.0
0
LINE
8
shape
62
0
5
17b
100
AcDbEntity
100
AcDbLine
10
16.335263364869796
20
55.19557192790799
30
0.0
11
16.335263364869796
21
55.19557192790799
31
0.0
0
ENDSEC
0
SECTION
2
OBJECTS
0
DICTIONARY
5
C
330
0
100
AcDbDictionary
3
ACAD_GROUP
350
D
3
ACAD_MLINESTYLE
350
17
0
DICTIONARY
5
D
330
C
100
AcDbDictionary
0
DICTIONARY
5
1A
330
C
100
AcDbDictionary
0
DICTIONARY
5
17
330
C
100
AcDbDictionary
3
STANDARD
350
18
0
DICTIONARY
5
19
330
C
100
AcDbDictionary
0
ENDSEC
0
EOF
