0
SECTION
2
HEADER
9
$ACADVER
1
AC1014
9
$HANDSEED
5
FFFF
0
ENDSEC
0
SECTION
2
TABLES
0
TABLE
2
VPORT
5
8
330
0
100
AcDbSymbolTable
70
4
0
VPORT
5
2E
330
8
100
AcDbSymbolTableRecord
100
AcDbViewportTableRecord
2
*ACTIVE
70
0
10
0.0
20
0.0
11
1.0
21
1.0
12
4.25
22
5.5
13
0.0
23
0.0
14
10.0
24
10.0
15
10.0
25
10.0
16
0.0
26
0.0
36
1.0
17
0.0
27
0.0
37
0.0
40
11
41
1.24
42
50.0
43
0.0
44
0.0
50
0.0
51
0.0
71
0
72
100
73
1
74
3
75
0
76
0
77
0
78
0
0
ENDTAB
0
TABLE
2
LTYPE
5
5
330
0
100
AcDbSymbolTable
70
1
0
LTYPE
5
14
330
5
100
AcDbSymbolTableRecord
100
AcDbLinetypeTableRecord
2
BYBLOCK
70
0
3

72
65
73
0
40
0.0
0
LTYPE
5
15
330
5
100
AcDbSymbolTableRecord
100
AcDbLinetypeTableRecord
2
BYLAYER
70
0
3

72
65
73
0
40
0.0
0
LTYPE
5
16
330
5
100
AcDbSymbolTableRecord
100
AcDbLinetypeTableRecord
2
CONTINUOUS
70
0
3
Solid line
72
65
73
0
40
0.0
0
ENDTAB
0
TABLE
2
LAYER
5
2
330
0
100
AcDbSymbolTable
70
1
0
LAYER
5
10
330
2
100
AcDbSymbolTableRecord
100
AcDbLayerTableRecord
2
0
70
0
62
7
6
CONTINUOUS
0
ENDTAB
0
TABLE
2
STYLE
5
3
330
0
100
AcDbSymbolTable
70
1
0
STYLE
5
11
330
3
100
AcDbSymbolTableRecord
100
AcDbTextStyleTableRecord
2
STANDARD
70
0
40
0.0
41
1.0
50
0.0
71
0
42
2.5
3
txt
4

0
ENDTAB
0
TABLE
2
VIEW
5
6
330
0
100
AcDbSymbolTable
70
0
0
ENDTAB
0
TABLE
2
UCS
5
7
330
0
100
AcDbSymbolTable
70
0
0
ENDTAB
0
TABLE
2
APPID
5
9
330
0
100
AcDbSymbolTable
70
2
0
APPID
5
12
330
9
100
AcDbSymbolTableRecord
100
AcDbRegAppTableRecord
2
ACAD
70
0
0
ENDTAB
0
TABLE
2
DIMSTYLE
5
A
330
0
100
AcDbSymbolTable
70
1
0
DIMSTYLE
105
27
330
A
100
AcDbSymbolTableRecord
100
AcDbDimStyleTableRecord
2
ISO-25
70
0
3

4

5

6

7

40
1.0
41
2.5
42
0.625
43
3.75
44
1.25
45
0.0
46
0.0
47
0.0
48
0.0
140
2.5
141
2.5
142
0.0
143
0.03937007874016
144
1.0
145
0.0
146
1.0
147
0.625
71
0
72
0
73
0
74
0
75
0
76
0
77
1
78
8
170
0
171
3
172
1
173
0
174
0
175
0
176
0
177
0
178
0
270
2
271
2
272
2
273
2
274
3
340
11
275
0
280
0
281
0
282
0
283
0
284
8
285
0
286
0
287
3
288
0
0
ENDTAB
0
TABLE
2
BLOCK_RECORD
5
1
330
0
100
AcDbSymbolTable
70
1
0
BLOCK_RECORD
5
1F
330
1
100
AcDbSymbolTableRecord
100
AcDbBlockTableRecord
2
*MODEL_SPACE
0
BLOCK_RECORD
5
1B
330
1
100
AcDbSymbolTableRecord
100
AcDbBlockTableRecord
2
*PAPER_SPACE
0
ENDTAB
0
ENDSEC
0
SECTION
2
BLOCKS
0
BLOCK
5
20
330
1F
100
AcDbEntity
8
0
100
AcDbBlockBegin
2
*MODEL_SPACE
70
0
10
0.0
20
0.0
30
0.0
3
*MODEL_SPACE
1

0
ENDBLK
5
21
330
1F
100
AcDbEntity
8
0
100
AcDbBlockEnd
0
BLOCK
5
1C
330
1B
100
AcDbEntity
67
1
8
0
100
AcDbBlockBegin
2
*PAPER_SPACE
1

0
ENDBLK
5
1D
330
1B
100
AcDbEntity
67
1
8
0
100
AcDbBlockEnd
0
ENDSEC
0
SECTION
2
ENTITIES
0
LINE
8
shape
62
0
5
100
100
AcDbEntity
100
AcDbLine
10
10.000146852586797
20
19.999929232552006
30
0.0
11
8.040093894841766
21
19.806028090834346
31
0.0
0
LINE
8
shape
62
0
5
101
100
AcDbEntity
100
AcDbLine
10
8.040093894841766
20
19.806028090834346
30
0.0
11
6.173233093031562
21
19.238752545265573
31
0.0
0
LINE
8
shape
62
0
5
102
100
AcDbEntity
100
AcDbLine
10
6.173233093031562
20
19.238752545265573
30
0.0
11
4.452025341381814
21
18.319832160467953
31
0.0
0
LINE
8
shape
62
0
5
103
100
AcDbEntity
100
AcDbLine
10
4.452025341381814
20
18.319832160467953
30
0.0
11
2.9289315341181554
21
17.070996501063746
31
0.0
0
LINE
8
shape
62
0
5
104
100
AcDbEntity
100
AcDbLine
10
2.9289315341181554
20
17.070996501063746
30
0.0
11
1.6800961326196926
21
15.54790248233452
31
0.0
0
LINE
8
shape
62
0
5
105
100
AcDbEntity
100
AcDbLine
10
1.6800961326196926
20
15.54790248233452
30
0.0
11
0.7611760392744791
21
13.826694575083616
31
0.0
0
LINE
8
shape
62
0
5
106
100
AcDbEntity
100
AcDbLine
10
0.7611760392744791
20
13.826694575083616
30
0.0
11
0.1939008098215649
21
11.959833677215942
31
0.0
0
LINE
8
shape
62
0
5
107
100
AcDbEntity
100
AcDbLine
10
0.1939008098215649
20
11.959833677215942
30
0.0
11
0.0
21
9.999780686636399
31
0.0
0
LINE
8
shape
62
0
5
108
100
AcDbEntity
100
AcDbLine
10
0.0
20
9.999780686636399
30
0.0
11
0.20323902159949048
21
7.984474836431284
31
0.0
0
LINE
8
shape
62
0
5
109
100
AcDbEntity
100
AcDbLine
10
0.20323902159949048
20
7.984474836431284
30
0.0
11
0.7859808921626079
21
6.107423646903074
31
0.0
0
LINE
8
shape
62
0
5
10a
100
AcDbEntity
100
AcDbLine
10
0.7859808921626079
20
6.107423646903074
30
0.0
11
1.7080140922038045
21
4.408836420056684
31
0.0
0
LINE
8
shape
62
0
5
10b
100
AcDbEntity
100
AcDbLine
10
1.7080140922038045
20
4.408836420056684
30
0.0
11
2.9291271022375325
21
2.928922457897027
31
0.0
0
LINE
8
shape
62
0
5
10c
100
AcDbEntity
100
AcDbLine
10
2.9291271022375325
20
2.928922457897027
30
0.0
11
4.4091084027782435
21
1.7078910624290191
31
0.0
0
LINE
8
shape
62
0
5
10d
100
AcDbEntity
100
AcDbLine
10
4.4091084027782435
20
1.7078910624290191
30
0.0
11
6.10774647434039
21
0.7859515356575741
31
0.0
0
LINE
8
shape
62
0
5
10e
100
AcDbEntity
100
AcDbLine
10
6.10774647434039
20
0.7859515356575741
30
0.0
11
7.984829797438423
21
0.20331317958760697
31
0.0
0
LINE
8
shape
62
0
5
10f
100
AcDbEntity
100
AcDbLine
10
7.984829797438423
20
0.20331317958760697
30
0.0
11
10.000146852586797
21
0.00018529622403207213
31
0.0
0
LINE
8
shape
62
0
5
110
100
AcDbEntity
100
AcDbLine
10
10.000146852586797
20
0.00018529622403207213
30
0.0
11
12.015378381267801
21
0.20340945160681492
31
0.0
0
LINE
8
shape
62
0
5
111
100
AcDbEntity
100
AcDbLine
10
12.015378381267801
20
0.20340945160681492
30
0.0
11
13.892370212422048
21
0.7861103018336124
31
0.0
0
LINE
8
shape
62
0
5
112
100
AcDbEntity
100
AcDbLine
10
13.892370212422048
20
0.7861103018336124
30
0.0
11
15.590916179830058
21
1.7080816806852372
31
0.0
0
LINE
8
shape
62
0
5
113
100
AcDbEntity
100
AcDbLine
10
15.590916179830058
20
1.7080816806852372
30
0.0
11
17.07081011727235
21
2.929117421942502
31
0.0
0
LINE
8
shape
62
0
5
114
100
AcDbEntity
100
AcDbLine
10
17.07081011727235
20
2.929117421942502
30
0.0
11
18.29184585852945
21
4.40901135938622
31
0.0
0
LINE
8
shape
62
0
5
115
100
AcDbEntity
100
AcDbLine
10
18.29184585852945
20
4.40901135938622
30
0.0
11
19.213817237381875
21
6.1075573267972025
31
0.0
0
LINE
8
shape
62
0
5
116
100
AcDbEntity
100
AcDbLine
10
19.213817237381875
20
6.1075573267972025
30
0.0
11
19.79651808761015
21
7.984549157956264
31
0.0
0
LINE
8
shape
62
0
5
117
100
AcDbEntity
100
AcDbLine
10
19.79651808761015
20
7.984549157956264
30
0.0
11
19.999742242994795
21
9.999780686644215
31
0.0
0
LINE
8
shape
62
0
5
118
100
AcDbEntity
100
AcDbLine
10
19.999742242994795
20
9.999780686644215
30
0.0
11
19.796614655255823
21
12.01509800440973
31
0.0
0
LINE
8
shape
62
0
5
119
100
AcDbEntity
100
AcDbLine
10
19.796614655255823
20
12.01509800440973
30
0.0
11
19.213976491088008
21
13.892181608444721
31
0.0
0
LINE
8
shape
62
0
5
11a
100
AcDbEntity
100
AcDbLine
10
19.213976491088008
20
13.892181608444721
30
0.0
11
18.29203706212548
21
15.590819962824877
31
0.0
0
LINE
8
shape
62
0
5
11b
100
AcDbEntity
100
AcDbLine
10
18.29203706212548
20
15.590819962824877
30
0.0
11
17.071005680002376
21
17.070801531625875
31
0.0
0
LINE
8
shape
62
0
5
11c
100
AcDbEntity
100
AcDbLine
10
17.071005680002376
20
17.070801531625875
30
0.0
11
15.591091656352821
21
18.291914778923406
31
0.0
0
LINE
8
shape
62
0
5
11d
100
AcDbEntity
100
AcDbLine
10
15.591091656352821
20
18.291914778923406
30
0.0
11
13.892504302810954
21
19.213948168793152
31
0.0
0
LINE
8
shape
62
0
5
11e
100
AcDbEntity
100
AcDbLine
10
13.892504302810954
20
19.213948168793152
30
0.0
11
12.015452931010902
21
19.796690165310785
31
0.0
0
LINE
8
shape
62
0
5
11f
100
AcDbEntity
100
AcDbLine
10
12.015452931010902
20
19.796690165310785
30
0.0
11
10.000146852586797
21
19.999929232552006
31
0.0
0
LINE
8
shape
62
0
5
120
100
AcDbEntity
100
AcDbLine
10
10.000146852586797
20
19.999929232552006
30
0.0
11
10.000146852586797
21
19.999929232552006
31
0.0
0
LINE
8
struts
62
1
5
121
100
AcDbEntity
100
AcDbLine
10
0.0
20
11.000235807856015
30
0.0
11
0.0
21
8.999875898698008
31
0.0
0
LINE
8
struts
62
1
5
122
100
AcDbEntity
100
AcDbLine
10
0.0
20
8.999875898698008
30
0.0
11
19.999742242994795
21
8.999875898698008
31
0.0
0
LINE
8
struts
62
1
5
123
100
AcDbEntity
100
AcDbLine
10
19.999742242994795
20
8.999875898698008
30
0.0
11
19.999742242994795
21
11.000235807856015
31
0.0
0
LINE
8
struts
62
1
5
124
100
AcDbEntity
100
AcDbLine
10
19.999742242994795
20
11.000235807856015
30
0.0
11
0.0
21
11.000235807856015
31
0.0
0
LINE
8
struts
62
1
5
125
100
AcDbEntity
100
AcDbLine
10
0.0
20
11.000235807856015
30
0.0
11
0.0
21
11.000235807856015
31
0.0
0
LINE
8
fillings
62
2
5
126
100
AcDbEntity
100
AcDbLine
10
22.000102434374995
20
12.000140595790015
30
0.0
11
21.234541810081502
21
11.847968648496572
31
0.0
0
LINE
8
fillings
62
2
5
127
100
AcDbEntity
100
AcDbLine
10
21.234541810081502
20
11.847968648496572
30
0.0
11
20.58552873714076
21
11.4143543012204
31
0.0
0
LINE
8
fillings
62
2
5
128
100
AcDbEntity
100
AcDbLine
10
20.58552873714076
20
11.4143543012204
30
0.0
11
20.151914298298017
21
10.7653412894569
31
0.0
0
LINE
8
fillings
62
2
5
129
100
AcDbEntity
100
AcDbLine
10
20.151914298298017
20
10.7653412894569
30
0.0
11
19.999742242994795
21
9.999780686635376
31
0.0
0
LINE
8
fillings
62
2
5
12a
100
AcDbEntity
100
AcDbLine
10
19.999742242994795
20
9.999780686635376
30
0.0
11
20.15207227702116
21
9.234389093332894
31
0.0
0
LINE
8
fillings
62
2
5
12b
100
AcDbEntity
100
AcDbLine
10
20.15207227702116
20
9.234389093332894
30
0.0
11
20.585723337825684
21
8.585562854785394
31
0.0
0
LINE
8
fillings
62
2
5
12c
100
AcDbEntity
100
AcDbLine
10
20.585723337825684
20
8.585562854785394
30
0.0
11
21.234668934217265
21
8.152090429724053
31
0.0
0
LINE
8
fillings
62
2
5
12d
100
AcDbEntity
100
AcDbLine
10
21.234668934217265
20
8.152090429724053
30
0.0
11
22.000102434374995
21
7.99997111076398
31
0.0
0
LINE
8
fillings
62
2
5
12e
100
AcDbEntity
100
AcDbLine
10
22.000102434374995
20
7.99997111076398
30
0.0
11
22.778485142781836
21
8.157176779338336
31
0.0
0
LINE
8
fillings
62
2
5
12f
100
AcDbEntity
100
AcDbLine
10
22.778485142781836
20
8.157176779338336
30
0.0
11
23.41412504522905
21
8.585757827772786
31
0.0
0
LINE
8
fillings
62
2
5
130
100
AcDbEntity
100
AcDbLine
10
23.41412504522905
20
8.585757827772786
30
0.0
11
23.842705824549583
21
9.221397911670415
31
0.0
0
LINE
8
fillings
62
2
5
131
100
AcDbEntity
100
AcDbLine
10
23.842705824549583
20
9.221397911670415
30
0.0
11
23.9999111635764
21
9.99978068663431
31
0.0
0
LINE
8
fillings
62
2
5
132
100
AcDbEntity
100
AcDbLine
10
23.9999111635764
20
9.99978068663431
30
0.0
11
23.847791844593246
21
10.765213904581419
31
0.0
0
LINE
8
fillings
62
2
5
133
100
AcDbEntity
100
AcDbLine
10
23.847791844593246
20
10.765213904581419
30
0.0
11
23.414319619084846
21
11.414159301404283
31
0.0
0
LINE
8
fillings
62
2
5
134
100
AcDbEntity
100
AcDbLine
10
23.414319619084846
20
11.414159301404283
30
0.0
11
22.765493702465818
21
11.847810345757061
31
0.0
0
LINE
8
fillings
62
2
5
135
100
AcDbEntity
100
AcDbLine
10
22.765493702465818
20
11.847810345757061
30
0.0
11
22.000102434374995
21
12.000140595790015
31
0.0
0
LINE
8
fillings
62
2
5
136
100
AcDbEntity
100
AcDbLine
10
22.000102434374995
20
12.000140595790015
30
0.0
11
22.000102434374995
21
12.000140595790015
31
0.0
0
ENDSEC
0
SECTION
2
OBJECTS
0
DICTIONARY
5
C
330
0
100
AcDbDictionary
3
ACAD_GROUP
350
D
3
ACAD_MLINESTYLE
350
17
0
DICTIONARY
5
D
330
C
100
AcDbDictionary
0
DICTIONARY
5
1A
330
C
100
AcDbDictionary
0
DICTIONARY
5
17
330
C
100
AcDbDictionary
3
STANDARD
350
18
0
DICTIONARY
5
19
330
C
100
AcDbDictionary
0
ENDSEC
0
EOF
