0
SECTION
2
HEADER
9
$ACADVER
1
AC1014
9
$HANDSEED
5
FFFF
0
ENDSEC
0
SECTION
2
TABLES
0
TABLE
2
VPORT
5
8
330
0
100
AcDbSymbolTable
70
4
0
VPORT
5
2E
330
8
100
AcDbSymbolTableRecord
100
AcDbViewportTableRecord
2
*ACTIVE
70
0
10
0.0
20
0.0
11
1.0
21
1.0
12
4.25
22
5.5
13
0.0
23
0.0
14
10.0
24
10.0
15
10.0
25
10.0
16
0.0
26
0.0
36
1.0
17
0.0
27
0.0
37
0.0
40
11
41
1.24
42
50.0
43
0.0
44
0.0
50
0.0
51
0.0
71
0
72
100
73
1
74
3
75
0
76
0
77
0
78
0
0
ENDTAB
0
TABLE
2
LTYPE
5
5
330
0
100
AcDbSymbolTable
70
1
0
LTYPE
5
14
330
5
100
AcDbSymbolTableRecord
100
AcDbLinetypeTableRecord
2
BYBLOCK
70
0
3

72
65
73
0
40
0.0
0
LTYPE
5
15
330
5
100
AcDbSymbolTableRecord
100
AcDbLinetypeTableRecord
2
BYLAYER
70
0
3

72
65
73
0
40
0.0
0
LTYPE
5
16
330
5
100
AcDbSymbolTableRecord
100
AcDbLinetypeTableRecord
2
CONTINUOUS
70
0
3
Solid line
72
65
73
0
40
0.0
0
ENDTAB
0
TABLE
2
LAYER
5
2
330
0
100
AcDbSymbolTable
70
1
0
LAYER
5
10
330
2
100
AcDbSymbolTableRecord
100
AcDbLayerTableRecord
2
0
70
0
62
7
6
CONTINUOUS
0
ENDTAB
0
TABLE
2
STYLE
5
3
330
0
100
AcDbSymbolTable
70
1
0
STYLE
5
11
330
3
100
AcDbSymbolTableRecord
100
AcDbTextStyleTableRecord
2
STANDARD
70
0
40
0.0
41
1.0
50
0.0
71
0
42
2.5
3
txt
4

0
ENDTAB
0
TABLE
2
VIEW
5
6
330
0
100
AcDbSymbolTable
70
0
0
ENDTAB
0
TABLE
2
UCS
5
7
330
0
100
AcDbSymbolTable
70
0
0
ENDTAB
0
TABLE
2
APPID
5
9
330
0
100
AcDbSymbolTable
70
2
0
APPID
5
12
330
9
100
AcDbSymbolTableRecord
100
AcDbRegAppTableRecord
2
ACAD
70
0
0
ENDTAB
0
TABLE
2
DIMSTYLE
5
A
330
0
100
AcDbSymbolTable
70
1
0
DIMSTYLE
105
27
330
A
100
AcDbSymbolTableRecord
100
AcDbDimStyleTableRecord
2
ISO-25
70
0
3

4

5

6

7

40
1.0
41
2.5
42
0.625
43
3.75
44
1.25
45
0.0
46
0.0
47
0.0
48
0.0
140
2.5
141
2.5
142
0.0
143
0.03937007874016
144
1.0
145
0.0
146
1.0
147
0.625
71
0
72
0
73
0
74
0
75
0
76
0
77
1
78
8
170
0
171
3
172
1
173
0
174
0
175
0
176
0
177
0
178
0
270
2
271
2
272
2
273
2
274
3
340
11
275
0
280
0
281
0
282
0
283
0
284
8
285
0
286
0
287
3
288
0
0
ENDTAB
0
TABLE
2
BLOCK_RECORD
5
1
330
0
100
AcDbSymbolTable
70
1
0
BLOCK_RECORD
5
1F
330
1
100
AcDbSymbolTableRecord
100
AcDbBlockTableRecord
2
*MODEL_SPACE
0
BLOCK_RECORD
5
1B
330
1
100
AcDbSymbolTableRecord
100
AcDbBlockTableRecord
2
*PAPER_SPACE
0
ENDTAB
0
ENDSEC
0
SECTION
2
BLOCKS
0
BLOCK
5
20
330
1F
100
AcDbEntity
8
0
100
AcDbBlockBegin
2
*MODEL_SPACE
70
0
10
0.0
20
0.0
30
0.0
3
*MODEL_SPACE
1

0
ENDBLK
5
21
330
1F
100
AcDbEntity
8
0
100
AcDbBlockEnd
0
BLOCK
5
1C
330
1B
100
AcDbEntity
67
1
8
0
100
AcDbBlockBegin
2
*PAPER_SPACE
1

0
ENDBLK
5
1D
330
1B
100
AcDbEntity
67
1
8
0
100
AcDbBlockEnd
0
ENDSEC
0
SECTION
2
ENTITIES
0
LINE
8
shape
62
0
5
100
100
AcDbEntity
100
AcDbLine
10
55.443127937499995
20
64.10626360416664
30
0.0
11
52.83223580989582
21
63.88450506770831
31
0.0
0
LINE
8
shape
62
0
5
101
100
AcDbEntity
100
AcDbLine
10
52.83223580989582
20
63.88450506770831
30
0.0
11
50.232593104166654
21
63.23603049999997
31
0.0
0
LINE
8
shape
62
0
5
102
100
AcDbEntity
100
AcDbLine
10
50.232593104166654
20
63.23603049999997
30
0.0
11
48.36450563659667
21
62.47505992036943
31
0.0
0
LINE
8
shape
62
0
5
103
100
AcDbEntity
100
AcDbLine
10
48.36450563659667
20
62.47505992036943
30
0.0
11
46.620245742513006
21
61.4934775973307
31
0.0
0
LINE
8
shape
62
0
5
104
100
AcDbEntity
100
AcDbLine
10
46.620245742513006
20
61.4934775973307
30
0.0
11
45.01703615360513
21
60.30970265466306
31
0.0
0
LINE
8
shape
62
0
5
105
100
AcDbEntity
100
AcDbLine
10
45.01703615360513
20
60.30970265466306
30
0.0
11
43.57209960156249
21
58.94215421614581
31
0.0
0
LINE
8
shape
62
0
5
106
100
AcDbEntity
100
AcDbLine
10
43.57209960156249
20
58.94215421614581
30
0.0
11
42.30265881807453
21
57.409251405558244
31
0.0
0
LINE
8
shape
62
0
5
107
100
AcDbEntity
100
AcDbLine
10
42.30265881807453
20
57.409251405558244
30
0.0
11
41.22593653483072
21
55.729413346679664
31
0.0
0
LINE
8
shape
62
0
5
108
100
AcDbEntity
100
AcDbLine
10
41.22593653483072
20
55.729413346679664
30
0.0
11
40.359155483520496
21
53.921059163289364
31
0.0
0
LINE
8
shape
62
0
5
109
100
AcDbEntity
100
AcDbLine
10
40.359155483520496
20
53.921059163289364
30
0.0
11
39.719538395833325
21
52.00260797916664
31
0.0
0
LINE
8
shape
62
0
5
10a
100
AcDbEntity
100
AcDbLine
10
39.719538395833325
20
52.00260797916664
30
0.0
11
39.408965187499994
21
50.12365356249997
31
0.0
0
LINE
8
shape
62
0
5
10b
100
AcDbEntity
100
AcDbLine
10
39.408965187499994
20
50.12365356249997
30
0.0
11
39.25341929166665
21
47.904151291666636
31
0.0
0
LINE
8
shape
62
0
5
10c
100
AcDbEntity
100
AcDbLine
10
39.25341929166665
20
47.904151291666636
30
0.0
11
39.300959625
21
46.65823102083331
31
0.0
0
LINE
8
shape
62
0
5
10d
100
AcDbEntity
100
AcDbLine
10
39.300959625
20
46.65823102083331
30
0.0
11
39.408965187499994
21
45.28622356249997
31
0.0
0
LINE
8
shape
62
0
5
10e
100
AcDbEntity
100
AcDbLine
10
39.408965187499994
20
45.28622356249997
30
0.0
11
39.53143816666665
21
44.36069783333329
31
0.0
0
LINE
8
shape
62
0
5
10f
100
AcDbEntity
100
AcDbLine
10
39.53143816666665
20
44.36069783333329
30
0.0
11
38.69892935416666
21
44.36328016666664
31
0.0
0
LINE
8
shape
62
0
5
110
100
AcDbEntity
100
AcDbLine
10
38.69892935416666
20
44.36328016666664
30
0.0
11
36.33250953938801
21
44.55479848177082
31
0.0
0
LINE
8
shape
62
0
5
111
100
AcDbEntity
100
AcDbLine
10
36.33250953938801
20
44.55479848177082
30
0.0
11
33.3533561484375
21
45.063421906249985
31
0.0
0
LINE
8
shape
62
0
5
112
100
AcDbEntity
100
AcDbLine
10
33.3533561484375
20
45.063421906249985
30
0.0
11
30.154143011393224
21
45.810440205729144
31
0.0
0
LINE
8
shape
62
0
5
113
100
AcDbEntity
100
AcDbLine
10
30.154143011393224
20
45.810440205729144
30
0.0
11
27.12754395833333
21
46.71714314583329
31
0.0
0
LINE
8
shape
62
0
5
114
100
AcDbEntity
100
AcDbLine
10
27.12754395833333
20
46.71714314583329
30
0.0
11
24.425396926924634
21
47.74534397216793
31
0.0
0
LINE
8
shape
62
0
5
115
100
AcDbEntity
100
AcDbLine
10
24.425396926924634
20
47.74534397216793
30
0.0
11
21.756338874251295
21
48.96549624479164
31
0.0
0
LINE
8
shape
62
0
5
116
100
AcDbEntity
100
AcDbLine
10
21.756338874251295
20
48.96549624479164
30
0.0
11
19.148098982173657
21
50.359346318196586
31
0.0
0
LINE
8
shape
62
0
5
117
100
AcDbEntity
100
AcDbLine
10
19.148098982173657
20
50.359346318196586
30
0.0
11
16.62840643255208
21
51.90864054687497
31
0.0
0
LINE
8
shape
62
0
5
118
100
AcDbEntity
100
AcDbLine
10
16.62840643255208
20
51.90864054687497
30
0.0
11
14.224990407246905
21
53.59512528531898
31
0.0
0
LINE
8
shape
62
0
5
119
100
AcDbEntity
100
AcDbLine
10
14.224990407246905
20
53.59512528531898
30
0.0
11
11.965580088118486
21
55.4005468880208
31
0.0
0
LINE
8
shape
62
0
5
11a
100
AcDbEntity
100
AcDbLine
10
11.965580088118486
20
55.4005468880208
30
0.0
11
9.877904657027178
21
57.30665170947262
31
0.0
0
LINE
8
shape
62
0
5
11b
100
AcDbEntity
100
AcDbLine
10
9.877904657027178
20
57.30665170947262
30
0.0
11
7.989693295833331
21
59.29518610416663
31
0.0
0
LINE
8
shape
62
0
5
11c
100
AcDbEntity
100
AcDbLine
10
7.989693295833331
20
59.29518610416663
30
0.0
11
6.970633918749999
21
60.42690162499997
31
0.0
0
LINE
8
shape
62
0
5
11d
100
AcDbEntity
100
AcDbLine
10
6.970633918749999
20
60.42690162499997
30
0.0
11
6.629569597916666
21
60.78553374999997
31
0.0
0
LINE
8
shape
62
0
5
11e
100
AcDbEntity
100
AcDbLine
10
6.629569597916666
20
60.78553374999997
30
0.0
11
6.520015429166666
21
60.89198885416664
31
0.0
0
LINE
8
shape
62
0
5
11f
100
AcDbEntity
100
AcDbLine
10
6.520015429166666
20
60.89198885416664
30
0.0
11
6.509680274999998
21
60.90128895833331
31
0.0
0
LINE
8
shape
62
0
5
120
100
AcDbEntity
100
AcDbLine
10
6.509680274999998
20
60.90128895833331
30
0.0
11
6.328812695833332
21
61.11729743749997
31
0.0
0
LINE
8
shape
62
0
5
121
100
AcDbEntity
100
AcDbLine
10
6.328812695833332
20
61.11729743749997
30
0.0
11
6.140710349999999
21
60.781916895833305
31
0.0
0
LINE
8
shape
62
0
5
122
100
AcDbEntity
100
AcDbLine
10
6.140710349999999
20
60.781916895833305
30
0.0
11
6.002217643749999
21
60.5684933958333
31
0.0
0
LINE
8
shape
62
0
5
123
100
AcDbEntity
100
AcDbLine
10
6.002217643749999
20
60.5684933958333
30
0.0
11
5.547465039583332
21
59.676559166666635
31
0.0
0
LINE
8
shape
62
0
5
124
100
AcDbEntity
100
AcDbLine
10
5.547465039583332
20
59.676559166666635
30
0.0
11
4.823348246614582
21
57.77335064388018
31
0.0
0
LINE
8
shape
62
0
5
125
100
AcDbEntity
100
AcDbLine
10
4.823348246614582
20
57.77335064388018
30
0.0
11
4.358976219270833
21
55.80729845312497
31
0.0
0
LINE
8
shape
62
0
5
126
100
AcDbEntity
100
AcDbLine
10
4.358976219270833
20
55.80729845312497
30
0.0
11
4.147654966145833
21
53.806100004557265
31
0.0
0
LINE
8
shape
62
0
5
127
100
AcDbEntity
100
AcDbLine
10
4.147654966145833
20
53.806100004557265
30
0.0
11
4.182690495833333
21
51.797452708333296
31
0.0
0
LINE
8
shape
62
0
5
128
100
AcDbEntity
100
AcDbLine
10
4.182690495833333
20
51.797452708333296
30
0.0
11
4.4988514726562485
21
49.57607090364581
31
0.0
0
LINE
8
shape
62
0
5
129
100
AcDbEntity
100
AcDbLine
10
4.4988514726562485
20
49.57607090364581
30
0.0
11
5.105114779166666
21
47.4617997083333
31
0.0
0
LINE
8
shape
62
0
5
12a
100
AcDbEntity
100
AcDbLine
10
5.105114779166666
20
47.4617997083333
30
0.0
11
5.954549148730468
21
45.48764295800778
31
0.0
0
LINE
8
shape
62
0
5
12b
100
AcDbEntity
100
AcDbLine
10
5.954549148730468
20
45.48764295800778
30
0.0
11
7.055856838802082
21
43.64153619010415
31
0.0
0
LINE
8
shape
62
0
5
12c
100
AcDbEntity
100
AcDbLine
10
7.055856838802082
20
43.64153619010415
30
0.0
11
8.401357301139322
21
41.95773492610675
31
0.0
0
LINE
8
shape
62
0
5
12d
100
AcDbEntity
100
AcDbLine
10
8.401357301139322
20
41.95773492610675
30
0.0
11
9.983369987499998
21
40.47049468749998
31
0.0
0
LINE
8
shape
62
0
5
12e
100
AcDbEntity
100
AcDbLine
10
9.983369987499998
20
40.47049468749998
30
0.0
11
10.757482877083332
21
39.81627270833329
31
0.0
0
LINE
8
shape
62
0
5
12f
100
AcDbEntity
100
AcDbLine
10
10.757482877083332
20
39.81627270833329
30
0.0
11
10.953853452083331
21
39.63385308333332
31
0.0
0
LINE
8
shape
62
0
5
130
100
AcDbEntity
100
AcDbLine
10
10.953853452083331
20
39.63385308333332
30
0.0
11
10.813810287499997
21
39.63075481249999
31
0.0
0
LINE
8
shape
62
0
5
131
100
AcDbEntity
100
AcDbLine
10
10.813810287499997
20
39.63075481249999
30
0.0
11
9.778731183333331
21
39.739792249999965
31
0.0
0
LINE
8
shape
62
0
5
132
100
AcDbEntity
100
AcDbLine
10
9.778731183333331
20
39.739792249999965
30
0.0
11
7.261572133333332
21
40.25914022916666
31
0.0
0
LINE
8
shape
62
0
5
133
100
AcDbEntity
100
AcDbLine
10
7.261572133333332
20
40.25914022916666
30
0.0
11
5.056538866666666
21
41.10766691666666
31
0.0
0
LINE
8
shape
62
0
5
134
100
AcDbEntity
100
AcDbLine
10
5.056538866666666
20
41.10766691666666
30
0.0
11
3.9243082020833326
21
41.681275645833324
31
0.0
0
LINE
8
shape
62
0
5
135
100
AcDbEntity
100
AcDbLine
10
3.9243082020833326
20
41.681275645833324
30
0.0
11
4.061250714583332
21
39.885519458333306
31
0.0
0
LINE
8
shape
62
0
5
136
100
AcDbEntity
100
AcDbLine
10
4.061250714583332
20
39.885519458333306
30
0.0
11
4.414630430468749
21
37.517276044270815
31
0.0
0
LINE
8
shape
62
0
5
137
100
AcDbEntity
100
AcDbLine
10
4.414630430468749
20
37.517276044270815
30
0.0
11
5.192964647916666
21
35.257893458333285
31
0.0
0
LINE
8
shape
62
0
5
138
100
AcDbEntity
100
AcDbLine
10
5.192964647916666
20
35.257893458333285
30
0.0
11
6.4306153666666654
21
32.825483624999976
31
0.0
0
LINE
8
shape
62
0
5
139
100
AcDbEntity
100
AcDbLine
10
6.4306153666666654
20
32.825483624999976
30
0.0
11
8.190335113997394
21
30.454002000325488
31
0.0
0
LINE
8
shape
62
0
5
13a
100
AcDbEntity
100
AcDbLine
10
8.190335113997394
20
30.454002000325488
30
0.0
11
10.341656037499998
21
28.466554236979135
31
0.0
0
LINE
8
shape
62
0
5
13b
100
AcDbEntity
100
AcDbLine
10
10.341656037499998
20
28.466554236979135
30
0.0
11
12.853077523502602
21
26.890332969726536
31
0.0
0
LINE
8
shape
62
0
5
13c
100
AcDbEntity
100
AcDbLine
10
12.853077523502602
20
26.890332969726536
30
0.0
11
15.69309895833333
21
25.75253083333331
31
0.0
0
LINE
8
shape
62
0
5
13d
100
AcDbEntity
100
AcDbLine
10
15.69309895833333
20
25.75253083333331
30
0.0
11
16.454292772916663
21
25.513786708333328
31
0.0
0
LINE
8
shape
62
0
5
13e
100
AcDbEntity
100
AcDbLine
10
16.454292772916663
20
25.513786708333328
30
0.0
11
16.61035566458333
21
25.4497072708333
31
0.0
0
LINE
8
shape
62
0
5
13f
100
AcDbEntity
100
AcDbLine
10
16.61035566458333
20
25.4497072708333
30
0.0
11
16.53852525833333
21
25.42593710416665
31
0.0
0
LINE
8
shape
62
0
5
140
100
AcDbEntity
100
AcDbLine
10
16.53852525833333
20
25.42593710416665
30
0.0
11
13.92569046067708
21
25.05408573437498
31
0.0
0
LINE
8
shape
62
0
5
141
100
AcDbEntity
100
AcDbLine
10
13.92569046067708
20
25.05408573437498
30
0.0
11
11.241691014583331
21
25.057999583333327
31
0.0
0
LINE
8
shape
62
0
5
142
100
AcDbEntity
100
AcDbLine
10
11.241691014583331
20
25.057999583333327
30
0.0
11
10.250537241666665
21
25.171688395833314
31
0.0
0
LINE
8
shape
62
0
5
143
100
AcDbEntity
100
AcDbLine
10
10.250537241666665
20
25.171688395833314
30
0.0
11
9.939961652083332
21
25.201144458333317
31
0.0
0
LINE
8
shape
62
0
5
144
100
AcDbEntity
100
AcDbLine
10
9.939961652083332
20
25.201144458333317
30
0.0
11
9.847460937499998
21
25.207343645833305
31
0.0
0
LINE
8
shape
62
0
5
145
100
AcDbEntity
100
AcDbLine
10
9.847460937499998
20
25.207343645833305
30
0.0
11
9.813871289583332
21
25.207343645833305
31
0.0
0
LINE
8
shape
62
0
5
146
100
AcDbEntity
100
AcDbLine
10
9.813871289583332
20
25.207343645833305
30
0.0
11
9.793200716666664
21
25.205795833333298
31
0.0
0
LINE
8
shape
62
0
5
147
100
AcDbEntity
100
AcDbLine
10
9.793200716666664
20
25.205795833333298
30
0.0
11
9.773563606249999
21
25.2016603958333
31
0.0
0
LINE
8
shape
62
0
5
148
100
AcDbEntity
100
AcDbLine
10
9.773563606249999
20
25.2016603958333
30
0.0
11
9.756510416666664
21
25.195977145833325
31
0.0
0
LINE
8
shape
62
0
5
149
100
AcDbEntity
100
AcDbLine
10
9.756510416666664
20
25.195977145833325
30
0.0
11
9.748242187499999
21
25.191325770833316
31
0.0
0
LINE
8
shape
62
0
5
14a
100
AcDbEntity
100
AcDbLine
10
9.748242187499999
20
25.191325770833316
30
0.0
11
9.680546160416664
21
25.202694916666644
31
0.0
0
LINE
8
shape
62
0
5
14b
100
AcDbEntity
100
AcDbLine
10
9.680546160416664
20
25.202694916666644
30
0.0
11
9.700183006249999
21
25.14481731249998
31
0.0
0
LINE
8
shape
62
0
5
14c
100
AcDbEntity
100
AcDbLine
10
9.700183006249999
20
25.14481731249998
30
0.0
11
9.671244204166666
21
25.073504166666652
31
0.0
0
LINE
8
shape
62
0
5
14d
100
AcDbEntity
100
AcDbLine
10
9.671244204166666
20
25.073504166666652
30
0.0
11
9.673828124999998
21
25.017692958333328
31
0.0
0
LINE
8
shape
62
0
5
14e
100
AcDbEntity
100
AcDbLine
10
9.673828124999998
20
25.017692958333328
30
0.0
11
9.698632812499998
21
24.915889229166652
31
0.0
0
LINE
8
shape
62
0
5
14f
100
AcDbEntity
100
AcDbLine
10
9.698632812499998
20
24.915889229166652
30
0.0
11
9.806636522916666
21
24.623400291666627
31
0.0
0
LINE
8
shape
62
0
5
150
100
AcDbEntity
100
AcDbLine
10
9.806636522916666
20
24.623400291666627
30
0.0
11
10.205578712499998
21
23.720096916666648
31
0.0
0
LINE
8
shape
62
0
5
151
100
AcDbEntity
100
AcDbLine
10
10.205578712499998
20
23.720096916666648
30
0.0
11
11.242724741666665
21
21.68353020833331
31
0.0
0
LINE
8
shape
62
0
5
152
100
AcDbEntity
100
AcDbLine
10
11.242724741666665
20
21.68353020833331
30
0.0
11
12.346016339583331
21
20.179744374999984
31
0.0
0
LINE
8
shape
62
0
5
153
100
AcDbEntity
100
AcDbLine
10
12.346016339583331
20
20.179744374999984
30
0.0
11
13.913617589322914
21
18.45050278385414
31
0.0
0
LINE
8
shape
62
0
5
154
100
AcDbEntity
100
AcDbLine
10
13.913617589322914
20
18.45050278385414
30
0.0
11
15.713769531249996
21
16.962368708333315
31
0.0
0
LINE
8
shape
62
0
5
155
100
AcDbEntity
100
AcDbLine
10
15.713769531249996
20
16.962368708333315
30
0.0
11
16.99172766875
21
16.092656833333308
31
0.0
0
LINE
8
shape
62
0
5
156
100
AcDbEntity
100
AcDbLine
10
16.99172766875
20
16.092656833333308
30
0.0
11
18.740037404524735
21
15.237174994140592
31
0.0
0
LINE
8
shape
62
0
5
157
100
AcDbEntity
100
AcDbLine
10
18.740037404524735
20
15.237174994140592
30
0.0
11
20.568947020572914
21
14.570387869791634
31
0.0
0
LINE
8
shape
62
0
5
158
100
AcDbEntity
100
AcDbLine
10
20.568947020572914
20
14.570387869791634
30
0.0
11
22.340407442480462
21
14.135956175130183
31
0.0
0
LINE
8
shape
62
0
5
159
100
AcDbEntity
100
AcDbLine
10
22.340407442480462
20
14.135956175130183
30
0.0
11
23.916369595833327
21
13.977540624999989
31
0.0
0
LINE
8
shape
62
0
5
15a
100
AcDbEntity
100
AcDbLine
10
23.916369595833327
20
13.977540624999989
30
0.0
11
24.449153645833327
21
13.926380791666645
31
0.0
0
LINE
8
shape
62
0
5
15b
100
AcDbEntity
100
AcDbLine
10
24.449153645833327
20
13.926380791666645
30
0.0
11
24.518916862499996
21
13.903642499999961
31
0.0
0
LINE
8
shape
62
0
5
15c
100
AcDbEntity
100
AcDbLine
10
24.518916862499996
20
13.903642499999961
30
0.0
11
24.472924870833328
21
13.859200437499965
31
0.0
0
LINE
8
shape
62
0
5
15d
100
AcDbEntity
100
AcDbLine
10
24.472924870833328
20
13.859200437499965
30
0.0
11
24.068815104166664
21
13.534154520833312
31
0.0
0
LINE
8
shape
62
0
5
15e
100
AcDbEntity
100
AcDbLine
10
24.068815104166664
20
13.534154520833312
30
0.0
11
22.720577018749996
21
12.582276291666659
31
0.0
0
LINE
8
shape
62
0
5
15f
100
AcDbEntity
100
AcDbLine
10
22.720577018749996
20
12.582276291666659
30
0.0
11
20.58355262001953
21
11.269218444417309
31
0.0
0
LINE
8
shape
62
0
5
160
100
AcDbEntity
100
AcDbLine
10
20.58355262001953
20
11.269218444417309
30
0.0
11
18.370554067968747
21
10.133700830078112
31
0.0
0
LINE
8
shape
62
0
5
161
100
AcDbEntity
100
AcDbLine
10
18.370554067968747
20
10.133700830078112
30
0.0
11
16.088268731152343
21
9.177658152262357
31
0.0
0
LINE
8
shape
62
0
5
162
100
AcDbEntity
100
AcDbLine
10
16.088268731152343
20
9.177658152262357
30
0.0
11
13.743383978125
21
8.403025114583318
31
0.0
0
LINE
8
shape
62
0
5
163
100
AcDbEntity
100
AcDbLine
10
13.743383978125
20
8.403025114583318
30
0.0
11
11.342587177441404
21
7.811736420654281
31
0.0
0
LINE
8
shape
62
0
5
164
100
AcDbEntity
100
AcDbLine
10
11.342587177441404
20
7.811736420654281
30
0.0
11
8.892565697656249
21
7.405726774088526
31
0.0
0
LINE
8
shape
62
0
5
165
100
AcDbEntity
100
AcDbLine
10
8.892565697656249
20
7.405726774088526
30
0.0
11
6.400006907324217
21
7.186930878499333
31
0.0
0
LINE
8
shape
62
0
5
166
100
AcDbEntity
100
AcDbLine
10
6.400006907324217
20
7.186930878499333
30
0.0
11
3.871598174999999
21
7.157283437499984
31
0.0
0
LINE
8
shape
62
0
5
167
100
AcDbEntity
100
AcDbLine
10
3.871598174999999
20
7.157283437499984
30
0.0
11
2.074292005416666
21
7.192941333333323
31
0.0
0
LINE
8
shape
62
0
5
168
100
AcDbEntity
100
AcDbLine
10
2.074292005416666
20
7.192941333333323
30
0.0
11
1.529622395833333
21
7.195523666666645
31
0.0
0
LINE
8
shape
62
0
5
169
100
AcDbEntity
100
AcDbLine
10
1.529622395833333
20
7.195523666666645
30
0.0
11
0.8418090754166665
21
7.266320874999991
31
0.0
0
LINE
8
shape
62
0
5
16a
100
AcDbEntity
100
AcDbLine
10
0.8418090754166665
20
7.266320874999991
30
0.0
11
1.1947591145833332
21
7.044629145833312
31
0.0
0
LINE
8
shape
62
0
5
16b
100
AcDbEntity
100
AcDbLine
10
1.1947591145833332
20
7.044629145833312
30
0.0
11
1.1983764714583331
21
7.018273999999991
31
0.0
0
LINE
8
shape
62
0
5
16c
100
AcDbEntity
100
AcDbLine
10
1.1983764714583331
20
7.018273999999991
30
0.0
11
1.2066447006249998
21
6.99657022916665
31
0.0
0
LINE
8
shape
62
0
5
16d
100
AcDbEntity
100
AcDbLine
10
1.2066447006249998
20
6.99657022916665
30
0.0
11
1.2205973174999998
21
6.973315999999983
31
0.0
0
LINE
8
shape
62
0
5
16e
100
AcDbEntity
100
AcDbLine
10
1.2205973174999998
20
6.973315999999983
30
0.0
11
1.2371337758333332
21
6.9552290833333075
31
0.0
0
LINE
8
shape
62
0
5
16f
100
AcDbEntity
100
AcDbLine
10
1.2371337758333332
20
6.9552290833333075
30
0.0
11
1.2557373179166664
21
6.939727145833302
31
0.0
0
LINE
8
shape
62
0
5
170
100
AcDbEntity
100
AcDbLine
10
1.2557373179166664
20
6.939727145833302
30
0.0
11
1.2908772654166665
21
6.91543839583332
31
0.0
0
LINE
8
shape
62
0
5
171
100
AcDbEntity
100
AcDbLine
10
1.2908772654166665
20
6.91543839583332
30
0.0
11
1.4035319010416665
21
6.844641187499974
31
0.0
0
LINE
8
shape
62
0
5
172
100
AcDbEntity
100
AcDbLine
10
1.4035319010416665
20
6.844641187499974
30
0.0
11
1.8050577733333328
21
6.605378479166632
31
0.0
0
LINE
8
shape
62
0
5
173
100
AcDbEntity
100
AcDbLine
10
1.8050577733333328
20
6.605378479166632
30
0.0
11
3.119706316666666
21
5.850387291666635
31
0.0
0
LINE
8
shape
62
0
5
174
100
AcDbEntity
100
AcDbLine
10
3.119706316666666
20
5.850387291666635
30
0.0
11
7.331160675390624
21
3.761388517578097
31
0.0
0
LINE
8
shape
62
0
5
175
100
AcDbEntity
100
AcDbLine
10
7.331160675390624
20
3.761388517578097
30
0.0
11
11.81470330677083
21
2.098116067708304
31
0.0
0
LINE
8
shape
62
0
5
176
100
AcDbEntity
100
AcDbLine
10
11.81470330677083
20
2.098116067708304
30
0.0
11
16.503441127994787
21
0.8814797975260129
31
0.0
0
LINE
8
shape
62
0
5
177
100
AcDbEntity
100
AcDbLine
10
16.503441127994787
20
0.8814797975260129
30
0.0
11
21.330481056249994
21
0.13238956249998068
31
0.0
0
LINE
8
shape
62
0
5
178
100
AcDbEntity
100
AcDbLine
10
21.330481056249994
20
0.13238956249998068
30
0.0
11
21.57077643333333
21
0.10758487499998637
31
0.0
0
LINE
8
shape
62
0
5
179
100
AcDbEntity
100
AcDbLine
10
21.57077643333333
20
0.10758487499998637
30
0.0
11
21.563541666666662
21
0.12205493749999619
31
0.0
0
LINE
8
shape
62
0
5
17a
100
AcDbEntity
100
AcDbLine
10
21.563541666666662
20
0.12205493749999619
30
0.0
11
23.923087631249995
21
0.03162035416664821
31
0.0
0
LINE
8
shape
62
0
5
17b
100
AcDbEntity
100
AcDbLine
10
23.923087631249995
20
0.03162035416664821
30
0.0
11
23.933422785416663
21
0.031104416666664747
31
0.0
0
LINE
8
shape
62
0
5
17c
100
AcDbEntity
100
AcDbLine
10
23.933422785416663
20
0.031104416666664747
30
0.0
11
25.638745183333327
21
9.789583330643836e-05
31
0.0
0
LINE
8
shape
62
0
5
17d
100
AcDbEntity
100
AcDbLine
10
25.638745183333327
20
9.789583330643836e-05
30
0.0
11
29.850892270833327
21
0.17062979166666992
31
0.0
0
LINE
8
shape
62
0
5
17e
100
AcDbEntity
100
AcDbLine
10
29.850892270833327
20
0.17062979166666992
30
0.0
11
32.55201822916666
21
0.4036906666666482
31
0.0
0
LINE
8
shape
62
0
5
17f
100
AcDbEntity
100
AcDbLine
10
32.55201822916666
20
0.4036906666666482
30
0.0
11
35.72428650443523
21
0.9675694987792807
31
0.0
0
LINE
8
shape
62
0
5
180
100
AcDbEntity
100
AcDbLine
10
35.72428650443523
20
0.9675694987792807
30
0.0
11
38.77616184928385
21
1.713634729817692
31
0.0
0
LINE
8
shape
62
0
5
181
100
AcDbEntity
100
AcDbLine
10
38.77616184928385
20
1.713634729817692
30
0.0
11
41.71179294071452
21
2.643927227457664
31
0.0
0
LINE
8
shape
62
0
5
182
100
AcDbEntity
100
AcDbLine
10
41.71179294071452
20
2.643927227457664
30
0.0
11
44.53532845572916
21
3.7604878593749795
31
0.0
0
LINE
8
shape
62
0
5
183
100
AcDbEntity
100
AcDbLine
10
44.53532845572916
20
3.7604878593749795
30
0.0
11
47.250917071329745
21
5.065357493245421
31
0.0
0
LINE
8
shape
62
0
5
184
100
AcDbEntity
100
AcDbLine
10
47.250917071329745
20
5.065357493245421
30
0.0
11
49.86270746451822
21
6.56057699674477
31
0.0
0
LINE
8
shape
62
0
5
185
100
AcDbEntity
100
AcDbLine
10
49.86270746451822
20
6.56057699674477
30
0.0
11
52.374848312296535
21
8.248187237548809
31
0.0
0
LINE
8
shape
62
0
5
186
100
AcDbEntity
100
AcDbLine
10
52.374848312296535
20
8.248187237548809
30
0.0
11
54.79148829166665
21
10.130229083333319
31
0.0
0
LINE
8
shape
62
0
5
187
100
AcDbEntity
100
AcDbLine
10
54.79148829166665
20
10.130229083333319
30
0.0
11
56.731365666666655
21
11.835453122395819
31
0.0
0
LINE
8
shape
62
0
5
188
100
AcDbEntity
100
AcDbLine
10
56.731365666666655
20
11.835453122395819
30
0.0
11
58.55663347916665
21
13.637508708333314
31
0.0
0
LINE
8
shape
62
0
5
189
100
AcDbEntity
100
AcDbLine
10
58.55663347916665
20
13.637508708333314
30
0.0
11
58.576786791666656
21
13.658177958333312
31
0.0
0
LINE
8
shape
62
0
5
18a
100
AcDbEntity
100
AcDbLine
10
58.576786791666656
20
13.658177958333312
30
0.0
11
58.66050095833332
21
13.747062083333333
31
0.0
0
LINE
8
shape
62
0
5
18b
100
AcDbEntity
100
AcDbLine
10
58.66050095833332
20
13.747062083333333
30
0.0
11
59.15246191666666
21
14.270026916666637
31
0.0
0
LINE
8
shape
62
0
5
18c
100
AcDbEntity
100
AcDbLine
10
59.15246191666666
20
14.270026916666637
30
0.0
11
61.79342599682616
21
17.387828997110976
31
0.0
0
LINE
8
shape
62
0
5
18d
100
AcDbEntity
100
AcDbLine
10
61.79342599682616
20
17.387828997110976
30
0.0
11
64.15226646028646
21
20.73594579459633
31
0.0
0
LINE
8
shape
62
0
5
18e
100
AcDbEntity
100
AcDbLine
10
64.15226646028646
20
20.73594579459633
30
0.0
11
66.21508393839518
21
24.280633229288714
31
0.0
0
LINE
8
shape
62
0
5
18f
100
AcDbEntity
100
AcDbLine
10
66.21508393839518
20
24.280633229288714
30
0.0
11
67.96797906249999
21
27.98814722135415
31
0.0
0
LINE
8
shape
62
0
5
190
100
AcDbEntity
100
AcDbLine
10
67.96797906249999
20
27.98814722135415
30
0.0
11
69.39705246394857
21
31.824743690958645
31
0.0
0
LINE
8
shape
62
0
5
191
100
AcDbEntity
100
AcDbLine
10
69.39705246394857
20
31.824743690958645
30
0.0
11
70.48840477408854
21
35.75667855826821
31
0.0
0
LINE
8
shape
62
0
5
192
100
AcDbEntity
100
AcDbLine
10
70.48840477408854
20
35.75667855826821
30
0.0
11
71.22813662426758
21
39.750207743448875
31
0.0
0
LINE
8
shape
62
0
5
193
100
AcDbEntity
100
AcDbLine
10
71.22813662426758
20
39.750207743448875
30
0.0
11
71.60234864583332
21
43.77158716666665
31
0.0
0
LINE
8
shape
62
0
5
194
100
AcDbEntity
100
AcDbLine
10
71.60234864583332
20
43.77158716666665
30
0.0
11
71.6261188125
21
44.287834229166634
31
0.0
0
LINE
8
shape
62
0
5
195
100
AcDbEntity
100
AcDbLine
10
71.6261188125
20
44.287834229166634
30
0.0
11
71.62766927083332
21
44.33124177083329
31
0.0
0
LINE
8
shape
62
0
5
196
100
AcDbEntity
100
AcDbLine
10
71.62766927083332
20
44.33124177083329
30
0.0
11
71.66384310416666
21
46.02571281249999
31
0.0
0
LINE
8
shape
62
0
5
197
100
AcDbEntity
100
AcDbLine
10
71.66384310416666
20
46.02571281249999
30
0.0
11
71.65867579166665
21
46.50733649999998
31
0.0
0
LINE
8
shape
62
0
5
198
100
AcDbEntity
100
AcDbLine
10
71.65867579166665
20
46.50733649999998
30
0.0
11
71.67159539583332
21
48.087602791666626
31
0.0
0
LINE
8
shape
62
0
5
199
100
AcDbEntity
100
AcDbLine
10
71.67159539583332
20
48.087602791666626
30
0.0
11
72.57386424999999
21
48.7702489583333
31
0.0
0
LINE
8
shape
62
0
5
19a
100
AcDbEntity
100
AcDbLine
10
72.57386424999999
20
48.7702489583333
30
0.0
11
75.3234549296875
21
51.19529940624997
31
0.0
0
LINE
8
shape
62
0
5
19b
100
AcDbEntity
100
AcDbLine
10
75.3234549296875
20
51.19529940624997
30
0.0
11
77.96578418749999
21
54.105323166666636
31
0.0
0
LINE
8
shape
62
0
5
19c
100
AcDbEntity
100
AcDbLine
10
77.96578418749999
20
54.105323166666636
30
0.0
11
79.01171385416666
21
55.4437417708333
31
0.0
0
LINE
8
shape
62
0
5
19d
100
AcDbEntity
100
AcDbLine
10
79.01171385416666
20
55.4437417708333
30
0.0
11
79.31918879166665
21
55.86800643749997
31
0.0
0
LINE
8
shape
62
0
5
19e
100
AcDbEntity
100
AcDbLine
10
79.31918879166665
20
55.86800643749997
30
0.0
11
79.40187108333332
21
55.99719718749998
31
0.0
0
LINE
8
shape
62
0
5
19f
100
AcDbEntity
100
AcDbLine
10
79.40187108333332
20
55.99719718749998
30
0.0
11
79.42771029166666
21
56.0493888958333
31
0.0
0
LINE
8
shape
62
0
5
1a0
100
AcDbEntity
100
AcDbLine
10
79.42771029166666
20
56.0493888958333
30
0.0
11
79.43856085416665
21
56.09124862499996
31
0.0
0
LINE
8
shape
62
0
5
1a1
100
AcDbEntity
100
AcDbLine
10
79.43856085416665
20
56.09124862499996
30
0.0
11
79.43752897916666
21
56.12845433333331
31
0.0
0
LINE
8
shape
62
0
5
1a2
100
AcDbEntity
100
AcDbLine
10
79.43752897916666
20
56.12845433333331
30
0.0
11
79.68764224999998
21
56.49380687499996
31
0.0
0
LINE
8
shape
62
0
5
1a3
100
AcDbEntity
100
AcDbLine
10
79.68764224999998
20
56.49380687499996
30
0.0
11
78.83291372916665
21
56.132589770833306
31
0.0
0
LINE
8
shape
62
0
5
1a4
100
AcDbEntity
100
AcDbLine
10
78.83291372916665
20
56.132589770833306
30
0.0
11
78.61638931249999
21
56.06954485416664
31
0.0
0
LINE
8
shape
62
0
5
1a5
100
AcDbEntity
100
AcDbLine
10
78.61638931249999
20
56.06954485416664
30
0.0
11
77.13017445833331
21
55.580168874999984
31
0.0
0
LINE
8
shape
62
0
5
1a6
100
AcDbEntity
100
AcDbLine
10
77.13017445833331
20
55.580168874999984
30
0.0
11
73.53814614583332
21
54.5647271458333
31
0.0
0
LINE
8
shape
62
0
5
1a7
100
AcDbEntity
100
AcDbLine
10
73.53814614583332
20
54.5647271458333
30
0.0
11
70.79567904166666
21
54.0887867083333
31
0.0
0
LINE
8
shape
62
0
5
1a8
100
AcDbEntity
100
AcDbLine
10
70.79567904166666
20
54.0887867083333
30
0.0
11
70.74710154166665
21
54.09136904166664
31
0.0
0
LINE
8
shape
62
0
5
1a9
100
AcDbEntity
100
AcDbLine
10
70.74710154166665
20
54.09136904166664
30
0.0
11
70.83288474999998
21
54.1632007708333
31
0.0
0
LINE
8
shape
62
0
5
1aa
100
AcDbEntity
100
AcDbLine
10
70.83288474999998
20
54.1632007708333
30
0.0
11
71.37342056249999
21
54.53475249999997
31
0.0
0
LINE
8
shape
62
0
5
1ab
100
AcDbEntity
100
AcDbLine
10
71.37342056249999
20
54.53475249999997
30
0.0
11
73.58193336458332
21
56.41679228906247
31
0.0
0
LINE
8
shape
62
0
5
1ac
100
AcDbEntity
100
AcDbLine
10
73.58193336458332
20
56.41679228906247
30
0.0
11
75.50908560416664
21
58.72106143749997
31
0.0
0
LINE
8
shape
62
0
5
1ad
100
AcDbEntity
100
AcDbLine
10
75.50908560416664
20
58.72106143749997
30
0.0
11
76.79376204166665
21
60.98759074999998
31
0.0
0
LINE
8
shape
62
0
5
1ae
100
AcDbEntity
100
AcDbLine
10
76.79376204166665
20
60.98759074999998
30
0.0
11
77.24024641666665
21
61.97977824999998
31
0.0
0
LINE
8
shape
62
0
5
1af
100
AcDbEntity
100
AcDbLine
10
77.24024641666665
20
61.97977824999998
30
0.0
11
77.35031837499999
21
62.31567472916663
31
0.0
0
LINE
8
shape
62
0
5
1b0
100
AcDbEntity
100
AcDbLine
10
77.35031837499999
20
62.31567472916663
30
0.0
11
77.36892122916666
21
62.44279908333331
31
0.0
0
LINE
8
shape
62
0
5
1b1
100
AcDbEntity
100
AcDbLine
10
77.36892122916666
20
62.44279908333331
30
0.0
11
77.36633624999999
21
62.47587199999998
31
0.0
0
LINE
8
shape
62
0
5
1b2
100
AcDbEntity
100
AcDbLine
10
77.36633624999999
20
62.47587199999998
30
0.0
11
77.51154752083332
21
62.8944507708333
31
0.0
0
LINE
8
shape
62
0
5
1b3
100
AcDbEntity
100
AcDbLine
10
77.51154752083332
20
62.8944507708333
30
0.0
11
76.88884799999998
21
62.53478147916664
31
0.0
0
LINE
8
shape
62
0
5
1b4
100
AcDbEntity
100
AcDbLine
10
76.88884799999998
20
62.53478147916664
30
0.0
11
76.55915070833332
21
62.3993888958333
31
0.0
0
LINE
8
shape
62
0
5
1b5
100
AcDbEntity
100
AcDbLine
10
76.55915070833332
20
62.3993888958333
30
0.0
11
75.19902833333332
21
61.752400624999964
31
0.0
0
LINE
8
shape
62
0
5
1b6
100
AcDbEntity
100
AcDbLine
10
75.19902833333332
20
61.752400624999964
30
0.0
11
71.80512696614582
21
60.322003924479134
31
0.0
0
LINE
8
shape
62
0
5
1b7
100
AcDbEntity
100
AcDbLine
10
71.80512696614582
20
60.322003924479134
30
0.0
11
68.32864583333333
21
59.2683150208333
31
0.0
0
LINE
8
shape
62
0
5
1b8
100
AcDbEntity
100
AcDbLine
10
68.32864583333333
20
59.2683150208333
30
0.0
11
67.30648633333332
21
59.09881499999997
31
0.0
0
LINE
8
shape
62
0
5
1b9
100
AcDbEntity
100
AcDbLine
10
67.30648633333332
20
59.09881499999997
30
0.0
11
67.11373208333332
21
59.180465416666635
31
0.0
0
LINE
8
shape
62
0
5
1ba
100
AcDbEntity
100
AcDbLine
10
67.11373208333332
20
59.180465416666635
30
0.0
11
66.86465333333332
21
59.42592731249998
31
0.0
0
LINE
8
shape
62
0
5
1bb
100
AcDbEntity
100
AcDbLine
10
66.86465333333332
20
59.42592731249998
30
0.0
11
65.37792254166665
21
60.70853735416665
31
0.0
0
LINE
8
shape
62
0
5
1bc
100
AcDbEntity
100
AcDbLine
10
65.37792254166665
20
60.70853735416665
30
0.0
11
63.26097343229165
21
62.10238256998696
31
0.0
0
LINE
8
shape
62
0
5
1bd
100
AcDbEntity
100
AcDbLine
10
63.26097343229165
20
62.10238256998696
30
0.0
11
60.99952808854165
21
63.13486540885414
31
0.0
0
LINE
8
shape
62
0
5
1be
100
AcDbEntity
100
AcDbLine
10
60.99952808854165
20
63.13486540885414
30
0.0
11
58.629099877604155
21
63.80012725162757
31
0.0
0
LINE
8
shape
62
0
5
1bf
100
AcDbEntity
100
AcDbLine
10
58.629099877604155
20
63.80012725162757
30
0.0
11
56.185202166666656
21
64.09230947916663
31
0.0
0
LINE
8
shape
62
0
5
1c0
100
AcDbEntity
100
AcDbLine
10
56.185202166666656
20
64.09230947916663
30
0.0
11
55.443127937499995
21
64.10626360416664
31
0.0
0
LINE
8
shape
62
0
5
1c1
100
AcDbEntity
100
AcDbLine
10
55.443127937499995
20
64.10626360416664
30
0.0
11
55.443127937499995
21
64.10626360416664
31
0.0
0
LINE
8
shape
62
0
5
1c2
100
AcDbEntity
100
AcDbLine
10
11.32799068958333
20
39.527400624999984
30
0.0
11
11.336775649999998
21
39.52119879166665
31
0.0
0
LINE
8
shape
62
0
5
1c3
100
AcDbEntity
100
AcDbLine
10
11.336775649999998
20
39.52119879166665
30
0.0
11
11.326440495833332
21
39.52171737499998
31
0.0
0
LINE
8
shape
62
0
5
1c4
100
AcDbEntity
100
AcDbLine
10
11.326440495833332
20
39.52171737499998
30
0.0
11
11.32799068958333
21
39.527400624999984
31
0.0
0
LINE
8
shape
62
0
5
1c5
100
AcDbEntity
100
AcDbLine
10
11.32799068958333
20
39.527400624999984
30
0.0
11
11.32799068958333
21
39.527400624999984
31
0.0
0
ENDSEC
0
SECTION
2
OBJECTS
0
DICTIONARY
5
C
330
0
100
AcDbDictionary
3
ACAD_GROUP
350
D
3
ACAD_MLINESTYLE
350
17
0
DICTIONARY
5
D
330
C
100
AcDbDictionary
0
DICTIONARY
5
1A
330
C
100
AcDbDictionary
0
DICTIONARY
5
17
330
C
100
AcDbDictionary
3
STANDARD
350
18
0
DICTIONARY
5
19
330
C
100
AcDbDictionary
0
ENDSEC
0
EOF
