<?xml version="1.0" encoding="UTF-8" standalone="no"?>
<!-- Generator: Adobe Illustrator 15.1.0, SVG Export Plug-In . SVG Version: 6.00 Build 0)  -->

<svg
   xmlns:dc="http://purl.org/dc/elements/1.1/"
   xmlns:cc="http://creativecommons.org/ns#"
   xmlns:rdf="http://www.w3.org/1999/02/22-rdf-syntax-ns#"
   xmlns:svg="http://www.w3.org/2000/svg"
   xmlns="http://www.w3.org/2000/svg"
   xmlns:sodipodi="http://sodipodi.sourceforge.net/DTD/sodipodi-0.dtd"
   xmlns:inkscape="http://www.inkscape.org/namespaces/inkscape"
   version="1.1"
   id="Ebene_2"
   x="0px"
   y="0px"
   width="626.03149"
   height="670.09412"
   viewBox="0 0 626.0315 670.09412"
   enable-background="new 0 0 4856 968"
   xml:space="preserve"
   inkscape:version="0.91 r13725"
   sodipodi:docname="Twitter_bird_logo_2012.svg"><metadata
     id="metadata41"><rdf:RDF><cc:Work
         rdf:about=""><dc:format>image/svg+xml</dc:format><dc:type
           rdf:resource="http://purl.org/dc/dcmitype/StillImage" /><dc:title></dc:title></cc:Work></rdf:RDF></metadata><defs
     id="defs39"><inkscape:path-effect
       effect="spiro"
       id="path-effect3201"
       is_visible="true" /><inkscape:path-effect
       effect="spiro"
       id="path-effect3197"
       is_visible="true" /><inkscape:path-effect
       effect="spiro"
       id="path-effect3193"
       is_visible="true" /><inkscape:path-effect
       effect="spiro"
       id="path-effect3189"
       is_visible="true" /><inkscape:path-effect
       effect="spiro"
       id="path-effect3185"
       is_visible="true" /><inkscape:path-effect
       effect="spiro"
       id="path-effect3181"
       is_visible="true" /><inkscape:path-effect
       effect="spiro"
       id="path-effect3177"
       is_visible="true" /><inkscape:path-effect
       effect="spiro"
       id="path-effect3173"
       is_visible="true" /><inkscape:path-effect
       effect="spiro"
       id="path-effect3152"
       is_visible="true" /><inkscape:path-effect
       is_visible="true"
       id="path-effect3144"
       effect="spiro" /><inkscape:path-effect
       effect="spiro"
       id="path-effect3140"
       is_visible="true" /><inkscape:path-effect
       is_visible="true"
       id="path-effect3136"
       effect="spiro" /><inkscape:path-effect
       effect="spiro"
       id="path-effect3131"
       is_visible="true" /><inkscape:path-effect
       is_visible="true"
       id="path-effect3127"
       effect="spiro" /><inkscape:path-effect
       effect="spiro"
       id="path-effect3123"
       is_visible="true" /><inkscape:path-effect
       is_visible="true"
       id="path-effect3119"
       effect="spiro" /><inkscape:path-effect
       effect="spiro"
       id="path-effect3115"
       is_visible="true" /><inkscape:path-effect
       is_visible="true"
       id="path-effect3111"
       effect="spiro" /><inkscape:path-effect
       effect="spiro"
       id="path-effect3107"
       is_visible="true" /><inkscape:path-effect
       is_visible="true"
       id="path-effect3103"
       effect="spiro" /><inkscape:path-effect
       effect="spiro"
       id="path-effect3099"
       is_visible="true" /><inkscape:path-effect
       is_visible="true"
       id="path-effect3095"
       effect="spiro" /><inkscape:path-effect
       effect="spiro"
       id="path-effect3091"
       is_visible="true" /><inkscape:path-effect
       is_visible="true"
       id="path-effect3087"
       effect="spiro" /><inkscape:path-effect
       effect="spiro"
       id="path-effect3083"
       is_visible="true" /><inkscape:path-effect
       is_visible="true"
       id="path-effect3079"
       effect="spiro" /><inkscape:path-effect
       effect="spiro"
       id="path-effect3075"
       is_visible="true" /><inkscape:path-effect
       is_visible="true"
       id="path-effect3071"
       effect="spiro" /><inkscape:path-effect
       effect="spiro"
       id="path-effect3067"
       is_visible="true" /><inkscape:path-effect
       is_visible="true"
       id="path-effect3063"
       effect="spiro" /><inkscape:path-effect
       effect="spiro"
       id="path-effect3059"
       is_visible="true" /><inkscape:path-effect
       is_visible="true"
       id="path-effect3055"
       effect="spiro" /><inkscape:path-effect
       effect="spiro"
       id="path-effect3051"
       is_visible="true" /><inkscape:path-effect
       is_visible="true"
       id="path-effect3047"
       effect="spiro" /><inkscape:path-effect
       effect="spiro"
       id="path-effect3043"
       is_visible="true" /><inkscape:path-effect
       is_visible="true"
       id="path-effect3039"
       effect="spiro" /><inkscape:path-effect
       effect="spiro"
       id="path-effect3033"
       is_visible="true" /><inkscape:path-effect
       effect="spiro"
       id="path-effect3090"
       is_visible="true" /><inkscape:path-effect
       effect="spiro"
       id="path-effect3086"
       is_visible="true" /><inkscape:path-effect
       is_visible="true"
       id="path-effect3082"
       effect="spiro" /><inkscape:path-effect
       effect="spiro"
       id="path-effect3078"
       is_visible="true" /><inkscape:path-effect
       is_visible="true"
       id="path-effect3074"
       effect="spiro" /><inkscape:path-effect
       is_visible="true"
       id="path-effect3038"
       effect="spiro" /><inkscape:path-effect
       effect="spiro"
       id="path-effect3774"
       is_visible="true" /><inkscape:path-effect
       effect="spiro"
       id="path-effect3768"
       is_visible="true" /><inkscape:path-effect
       effect="spiro"
       id="path-effect3764"
       is_visible="true" /><inkscape:path-effect
       effect="spiro"
       id="path-effect3760"
       is_visible="true" /><inkscape:path-effect
       is_visible="true"
       id="path-effect3079-2"
       effect="spiro" /></defs><sodipodi:namedview
     pagecolor="#ffffff"
     bordercolor="#666666"
     borderopacity="1"
     objecttolerance="10"
     gridtolerance="10"
     guidetolerance="10"
     inkscape:pageopacity="0"
     inkscape:pageshadow="2"
     inkscape:window-width="1211"
     inkscape:window-height="1002"
     id="namedview37"
     showgrid="true"
     fit-margin-top="20"
     fit-margin-left="20"
     fit-margin-right="20"
     fit-margin-bottom="20"
     inkscape:zoom="1.4142136"
     inkscape:cx="170.47408"
     inkscape:cy="211.28306"
     inkscape:window-x="0"
     inkscape:window-y="9"
     inkscape:window-maximized="0"
     inkscape:current-layer="layer1"
     inkscape:document-units="mm"
     units="mm"
     inkscape:snap-nodes="true"
     inkscape:snap-bbox="true"
     showguides="true"
     inkscape:guide-bbox="true"
     inkscape:snap-global="true"
     inkscape:bbox-nodes="true"><inkscape:grid
       type="xygrid"
       id="grid2988"
       empspacing="5"
       visible="true"
       enabled="true"
       snapvisiblegridlinesonly="true"
       units="mm"
       spacingx="1mm"
       spacingy="1mm" /></sodipodi:namedview><g
     inkscape:groupmode="layer"
     id="layer1"
     inkscape:label="shape"
     style="display:inline"><path
       inkscape:connector-curvature="0"
       id="path3611"
       style="fill:#1da1f2;fill-opacity:1;fill-rule:nonzero;stroke:none"
       d="m 96.89981,670.09412 c 112.46038,0 173.95627,-93.16765 173.95627,-173.95625 0,-2.64628 -0.0539,-5.28062 -0.1726,-7.90305 11.93799,-8.63016 22.31446,-19.39999 30.49762,-31.65984 -10.95459,4.86937 -22.74358,8.14741 -35.11071,9.62551 12.62341,-7.56929 22.31446,-19.54304 26.88583,-33.81739 -11.81284,7.00307 -24.89517,12.09297 -38.82383,14.84055 -11.15723,-11.88436 -27.04079,-19.31655 -44.62892,-19.31655 -33.76374,0 -61.14426,27.38052 -61.14426,61.13233 0,4.79784 0.5364,9.46458 1.58538,13.94057 -50.81546,-2.55686 -95.87353,-26.88582 -126.02546,-63.87991 -5.25082,9.03545 -8.27852,19.53111 -8.27852,30.73006 0,21.21186 10.79366,39.93837 27.20766,50.89296 -10.03077,-0.30992 -19.45363,-3.06348 -27.69044,-7.64676 -0.009,0.25652 -0.009,0.50661 -0.009,0.78077 0,29.60957 21.07478,54.3319 49.0513,59.93435 -5.13757,1.40062 -10.54335,2.15158 -16.12196,2.15158 -3.93364,0 -7.76596,-0.38716 -11.49099,-1.1026 7.78383,24.2932 30.35457,41.97073 57.11525,42.46543 -20.92578,16.40207 -47.28712,26.17062 -75.93712,26.17062 -4.92898,0 -9.7983396,-0.28036 -14.5842696,-0.84634 C 30.23972,659.97395 62.3704,670.09412 96.90297,670.09412" /><path
       style="fill:#ffffff"
       d="M 80.671521,669.0959 C 56.176924,666.54111 32.397804,659.07527 12.037376,647.5471 8.1729226,645.35903 5.0109238,643.50723 5.0107114,643.432 c -2.124e-4,-0.0752 4.3243578,-0.0253 9.6101556,0.11091 25.741049,0.66345 50.313135,-6.40862 71.530732,-20.58719 3.986314,-2.66385 7.247844,-5.14342 7.247844,-5.51018 0,-0.36676 -1.352342,-0.67236 -3.005204,-0.67911 -7.067086,-0.0289 -17.625079,-3.25835 -25.928419,-7.93099 -6.776996,-3.8137 -17.867549,-14.59742 -21.541216,-20.94526 -2.265575,-3.91476 -6.182304,-12.31867 -5.855284,-12.56337 0.06332,-0.0474 2.474605,0.20288 5.358401,0.55614 5.130567,0.62849 15.4336,-0.0875 20.212578,-1.4046 2.003405,-0.55216 1.826533,-0.67421 -3.181981,-2.19581 -16.873012,-5.12605 -29.958326,-16.13081 -37.476541,-31.51781 -4.068806,-8.32734 -5.521425,-13.40853 -6.13432,-21.45753 l -0.449348,-5.90118 3.486387,1.76668 c 1.917513,0.97168 5.705749,2.42957 8.4183,3.23974 5.199729,1.55304 15.354642,3.0076 15.025181,2.15215 -0.106576,-0.27672 -2.032568,-1.99514 -4.279982,-3.81872 -20.763843,-16.84801 -27.857615,-47.56216 -16.627284,-71.99172 1.212049,-2.63659 2.419052,-4.70487 2.68223,-4.59619 0.263178,0.10869 2.836578,2.87963 5.718667,6.15766 18.001936,20.47501 45.149805,38.31894 72.545912,47.68345 14.2122,4.85801 34.0386,8.88816 43.89433,8.92249 l 3.71849,0.0129 -0.53651,-4.06586 c -0.97406,-7.38179 -0.43069,-19.17537 1.16073,-25.1929 5.20038,-19.66392 20.17874,-35.66818 39.4105,-42.1098 19.66144,-6.58554 40.5143,-3.10571 56.77693,9.47467 2.16629,1.6758 4.66735,3.83222 5.5579,4.79206 1.60384,1.72861 1.66086,1.73566 6.01041,0.74287 7.7413,-1.76696 18.76407,-5.75222 26.0811,-9.42956 3.91352,-1.96683 7.25562,-3.43594 7.42688,-3.26468 0.56324,0.56324 -3.79326,9.40766 -6.89397,13.99591 -3.75646,5.55858 -10.35728,12.2405 -15.49584,15.68621 -3.56995,2.39387 -3.72192,2.60155 -1.90375,2.60155 3.68278,0 16.22704,-2.94803 24.10451,-5.66481 4.31225,-1.4872 7.93921,-2.60525 8.05991,-2.48455 0.1207,0.1207 -2.33372,3.39359 -5.45427,7.27308 -5.83358,7.25235 -13.93831,15.27217 -20.29111,20.07852 l -3.60699,2.72894 -0.0844,10.42439 c -0.35172,43.45255 -18.64176,87.85362 -49.26896,119.60579 -26.97596,27.96681 -58.86428,44.20704 -98.07441,49.94778 -8.77443,1.28465 -33.937685,1.89267 -42.287499,1.02179 z"
       id="path3226"
       inkscape:connector-curvature="0" /></g><g
     inkscape:groupmode="layer"
     id="layer2"
     inkscape:label="struts"
     style="display:inline" /><g
     inkscape:groupmode="layer"
     id="layer3"
     inkscape:label="fillings"
     style="display:inline" /></svg>