solid OpenSCAD_Model
  facet normal -1 0 0
    outer loop
      vertex 0 0 0
      vertex 0 0 3.5
      vertex 0 18.1 0
    endloop
  endfacet
  facet normal -1 0 0
    outer loop
      vertex 0 18.1 0
      vertex 0 0 3.5
      vertex 0 18.1 3.5
    endloop
  endfacet
  facet normal 0 -1 0
    outer loop
      vertex 0 0 3.5
      vertex 0 0 0
      vertex 16.6924 0 0
    endloop
  endfacet
  facet normal 0 -1 0
    outer loop
      vertex 16.6924 0 3.5
      vertex 0 0 3.5
      vertex 16.6924 0 0
    endloop
  endfacet
  facet normal 0 0 -1
    outer loop
      vertex 11.95 16.35 0
      vertex 0 18.1 0
      vertex 16.6924 18.1 0
    endloop
  endfacet
  facet normal 0 0 -1
    outer loop
      vertex 1.75 1.75 0
      vertex 0 18.1 0
      vertex 1.75 16.35 0
    endloop
  endfacet
  facet normal 0 0 -1
    outer loop
      vertex 1.75 16.35 0
      vertex 0 18.1 0
      vertex 11.95 16.35 0
    endloop
  endfacet
  facet normal 0 0 -1
    outer loop
      vertex 13.69 14.15 0
      vertex 11.95 16.35 0
      vertex 16.6924 18.1 0
    endloop
  endfacet
  facet normal 0 0 -1
    outer loop
      vertex 0 0 0
      vertex 0 18.1 0
      vertex 1.75 1.75 0
    endloop
  endfacet
  facet normal 0 0 -1
    outer loop
      vertex 0 0 0
      vertex 1.75 1.75 0
      vertex 16.6924 0 0
    endloop
  endfacet
  facet normal 0 0 -1
    outer loop
      vertex 13.69 3.95 0
      vertex 16.6924 0 0
      vertex 11.95 3.95 0
    endloop
  endfacet
  facet normal 0 0 -1
    outer loop
      vertex 1.75 1.75 0
      vertex 11.95 1.75 0
      vertex 16.6924 0 0
    endloop
  endfacet
  facet normal 0 0 -1
    outer loop
      vertex 11.95 1.75 0
      vertex 11.95 3.95 0
      vertex 16.6924 0 0
    endloop
  endfacet
  facet normal 0 0 -1
    outer loop
      vertex 11.95 16.35 0
      vertex 13.69 14.15 0
      vertex 11.95 14.15 0
    endloop
  endfacet
  facet normal 0 1 0
    outer loop
      vertex 0 18.1 0
      vertex 0 18.1 3.5
      vertex 16.6924 18.1 0
    endloop
  endfacet
  facet normal 0 1 0
    outer loop
      vertex 16.6924 18.1 0
      vertex 0 18.1 3.5
      vertex 16.6924 18.1 3.5
    endloop
  endfacet
  facet normal 0 0 1
    outer loop
      vertex 11.95 1.75 3.5
      vertex 0 0 3.5
      vertex 16.6924 0 3.5
    endloop
  endfacet
  facet normal 0 0 1
    outer loop
      vertex 11.95 1.75 3.5
      vertex 1.75 1.75 3.5
      vertex 0 0 3.5
    endloop
  endfacet
  facet normal 0 0 1
    outer loop
      vertex 11.95 3.95 3.5
      vertex 11.95 1.75 3.5
      vertex 16.6924 0 3.5
    endloop
  endfacet
  facet normal 0 0 1
    outer loop
      vertex 11.95 14.15 3.5
      vertex 13.69 14.15 3.5
      vertex 11.95 16.35 3.5
    endloop
  endfacet
  facet normal 0 0 1
    outer loop
      vertex 0 18.1 3.5
      vertex 0 0 3.5
      vertex 1.75 1.75 3.5
    endloop
  endfacet
  facet normal 0 0 1
    outer loop
      vertex 11.95 16.35 3.5
      vertex 0 18.1 3.5
      vertex 1.75 16.35 3.5
    endloop
  endfacet
  facet normal 0 0 1
    outer loop
      vertex 16.6924 18.1 3.5
      vertex 0 18.1 3.5
      vertex 11.95 16.35 3.5
    endloop
  endfacet
  facet normal 0 0 1
    outer loop
      vertex 16.6924 18.1 3.5
      vertex 11.95 16.35 3.5
      vertex 13.69 14.15 3.5
    endloop
  endfacet
  facet normal 0 0 1
    outer loop
      vertex 13.69 3.95 3.5
      vertex 11.95 3.95 3.5
      vertex 16.6924 0 3.5
    endloop
  endfacet
  facet normal 0 0 1
    outer loop
      vertex 1.75 1.75 3.5
      vertex 1.75 16.35 3.5
      vertex 0 18.1 3.5
    endloop
  endfacet
  facet normal 0.796123 0.605134 0
    outer loop
      vertex 13.69 3.95 3.5
      vertex 16.6924 0 3.5
      vertex 16.6924 0 0
    endloop
  endfacet
  facet normal 0.796123 0.605134 0
    outer loop
      vertex 13.69 3.95 0
      vertex 13.69 3.95 3.5
      vertex 16.6924 0 0
    endloop
  endfacet
  facet normal 0 1 0
    outer loop
      vertex 13.69 3.95 3.5
      vertex 13.69 3.95 0
      vertex 11.95 3.95 3.5
    endloop
  endfacet
  facet normal 0 1 0
    outer loop
      vertex 11.95 3.95 3.5
      vertex 13.69 3.95 0
      vertex 11.95 3.95 0
    endloop
  endfacet
  facet normal -1 0 0
    outer loop
      vertex 11.95 3.95 3.5
      vertex 11.95 3.95 0
      vertex 11.95 1.75 3.5
    endloop
  endfacet
  facet normal -1 0 0
    outer loop
      vertex 11.95 1.75 3.5
      vertex 11.95 3.95 0
      vertex 11.95 1.75 0
    endloop
  endfacet
  facet normal 0 1 0
    outer loop
      vertex 11.95 1.75 3.5
      vertex 11.95 1.75 0
      vertex 1.75 1.75 3.5
    endloop
  endfacet
  facet normal 0 1 0
    outer loop
      vertex 1.75 1.75 3.5
      vertex 11.95 1.75 0
      vertex 1.75 1.75 0
    endloop
  endfacet
  facet normal 1 0 0
    outer loop
      vertex 1.75 16.35 0
      vertex 1.75 16.35 3.5
      vertex 1.75 1.75 3.5
    endloop
  endfacet
  facet normal 1 0 0
    outer loop
      vertex 1.75 1.75 0
      vertex 1.75 16.35 0
      vertex 1.75 1.75 3.5
    endloop
  endfacet
  facet normal 0 -1 0
    outer loop
      vertex 11.95 16.35 0
      vertex 11.95 16.35 3.5
      vertex 1.75 16.35 3.5
    endloop
  endfacet
  facet normal 0 -1 0
    outer loop
      vertex 1.75 16.35 0
      vertex 11.95 16.35 0
      vertex 1.75 16.35 3.5
    endloop
  endfacet
  facet normal -1 0 0
    outer loop
      vertex 11.95 16.35 3.5
      vertex 11.95 16.35 0
      vertex 11.95 14.15 3.5
    endloop
  endfacet
  facet normal -1 0 0
    outer loop
      vertex 11.95 14.15 3.5
      vertex 11.95 16.35 0
      vertex 11.95 14.15 0
    endloop
  endfacet
  facet normal 0 -1 0
    outer loop
      vertex 13.69 14.15 0
      vertex 13.69 14.15 3.5
      vertex 11.95 14.15 3.5
    endloop
  endfacet
  facet normal 0 -1 0
    outer loop
      vertex 11.95 14.15 0
      vertex 13.69 14.15 0
      vertex 11.95 14.15 3.5
    endloop
  endfacet
  facet normal 0.796123 -0.605134 0
    outer loop
      vertex 16.6924 18.1 0
      vertex 16.6924 18.1 3.5
      vertex 13.69 14.15 3.5
    endloop
  endfacet
  facet normal 0.796123 -0.605134 0
    outer loop
      vertex 13.69 14.15 0
      vertex 16.6924 18.1 0
      vertex 13.69 14.15 3.5
    endloop
  endfacet
  facet normal -1 0 0
    outer loop
      vertex 0 21 0
      vertex 0 21 3.5
      vertex 0 39.1 0
    endloop
  endfacet
  facet normal -1 0 0
    outer loop
      vertex 0 39.1 0
      vertex 0 21 3.5
      vertex 0 39.1 3.5
    endloop
  endfacet
  facet normal 0 -1 0
    outer loop
      vertex 0 21 3.5
      vertex 0 21 0
      vertex 16.6924 21 0
    endloop
  endfacet
  facet normal 0 -1 0
    outer loop
      vertex 16.6924 21 3.5
      vertex 0 21 3.5
      vertex 16.6924 21 0
    endloop
  endfacet
  facet normal 0 0 -1
    outer loop
      vertex 11.95 37.35 0
      vertex 0 39.1 0
      vertex 16.6924 39.1 0
    endloop
  endfacet
  facet normal 0 0 -1
    outer loop
      vertex 1.75 22.75 0
      vertex 0 39.1 0
      vertex 1.75 37.35 0
    endloop
  endfacet
  facet normal 0 0 -1
    outer loop
      vertex 1.75 37.35 0
      vertex 0 39.1 0
      vertex 11.95 37.35 0
    endloop
  endfacet
  facet normal 0 0 -1
    outer loop
      vertex 13.69 35.15 0
      vertex 11.95 37.35 0
      vertex 16.6924 39.1 0
    endloop
  endfacet
  facet normal 0 0 -1
    outer loop
      vertex 0 21 0
      vertex 0 39.1 0
      vertex 1.75 22.75 0
    endloop
  endfacet
  facet normal 0 0 -1
    outer loop
      vertex 0 21 0
      vertex 1.75 22.75 0
      vertex 16.6924 21 0
    endloop
  endfacet
  facet normal 0 0 -1
    outer loop
      vertex 13.69 24.95 0
      vertex 16.6924 21 0
      vertex 11.95 24.95 0
    endloop
  endfacet
  facet normal 0 0 -1
    outer loop
      vertex 1.75 22.75 0
      vertex 11.95 22.75 0
      vertex 16.6924 21 0
    endloop
  endfacet
  facet normal 0 0 -1
    outer loop
      vertex 11.95 22.75 0
      vertex 11.95 24.95 0
      vertex 16.6924 21 0
    endloop
  endfacet
  facet normal 0 0 -1
    outer loop
      vertex 11.95 37.35 0
      vertex 13.69 35.15 0
      vertex 11.95 35.15 0
    endloop
  endfacet
  facet normal 0 1 0
    outer loop
      vertex 0 39.1 0
      vertex 0 39.1 3.5
      vertex 16.6924 39.1 0
    endloop
  endfacet
  facet normal 0 1 0
    outer loop
      vertex 16.6924 39.1 0
      vertex 0 39.1 3.5
      vertex 16.6924 39.1 3.5
    endloop
  endfacet
  facet normal 0 0 1
    outer loop
      vertex 11.95 22.75 3.5
      vertex 0 21 3.5
      vertex 16.6924 21 3.5
    endloop
  endfacet
  facet normal 0 0 1
    outer loop
      vertex 11.95 22.75 3.5
      vertex 1.75 22.75 3.5
      vertex 0 21 3.5
    endloop
  endfacet
  facet normal 0 0 1
    outer loop
      vertex 11.95 24.95 3.5
      vertex 11.95 22.75 3.5
      vertex 16.6924 21 3.5
    endloop
  endfacet
  facet normal 0 0 1
    outer loop
      vertex 11.95 35.15 3.5
      vertex 13.69 35.15 3.5
      vertex 11.95 37.35 3.5
    endloop
  endfacet
  facet normal 0 0 1
    outer loop
      vertex 0 39.1 3.5
      vertex 0 21 3.5
      vertex 1.75 22.75 3.5
    endloop
  endfacet
  facet normal 0 0 1
    outer loop
      vertex 11.95 37.35 3.5
      vertex 0 39.1 3.5
      vertex 1.75 37.35 3.5
    endloop
  endfacet
  facet normal 0 0 1
    outer loop
      vertex 16.6924 39.1 3.5
      vertex 0 39.1 3.5
      vertex 11.95 37.35 3.5
    endloop
  endfacet
  facet normal 0 0 1
    outer loop
      vertex 16.6924 39.1 3.5
      vertex 11.95 37.35 3.5
      vertex 13.69 35.15 3.5
    endloop
  endfacet
  facet normal 0 0 1
    outer loop
      vertex 13.69 24.95 3.5
      vertex 11.95 24.95 3.5
      vertex 16.6924 21 3.5
    endloop
  endfacet
  facet normal 0 0 1
    outer loop
      vertex 1.75 22.75 3.5
      vertex 1.75 37.35 3.5
      vertex 0 39.1 3.5
    endloop
  endfacet
  facet normal 0.796123 0.605134 0
    outer loop
      vertex 13.69 24.95 3.5
      vertex 16.6924 21 3.5
      vertex 16.6924 21 0
    endloop
  endfacet
  facet normal 0.796123 0.605134 0
    outer loop
      vertex 13.69 24.95 0
      vertex 13.69 24.95 3.5
      vertex 16.6924 21 0
    endloop
  endfacet
  facet normal 0 1 0
    outer loop
      vertex 13.69 24.95 3.5
      vertex 13.69 24.95 0
      vertex 11.95 24.95 3.5
    endloop
  endfacet
  facet normal 0 1 0
    outer loop
      vertex 11.95 24.95 3.5
      vertex 13.69 24.95 0
      vertex 11.95 24.95 0
    endloop
  endfacet
  facet normal -1 0 0
    outer loop
      vertex 11.95 24.95 3.5
      vertex 11.95 24.95 0
      vertex 11.95 22.75 3.5
    endloop
  endfacet
  facet normal -1 0 0
    outer loop
      vertex 11.95 22.75 3.5
      vertex 11.95 24.95 0
      vertex 11.95 22.75 0
    endloop
  endfacet
  facet normal 0 1 0
    outer loop
      vertex 11.95 22.75 3.5
      vertex 11.95 22.75 0
      vertex 1.75 22.75 3.5
    endloop
  endfacet
  facet normal 0 1 0
    outer loop
      vertex 1.75 22.75 3.5
      vertex 11.95 22.75 0
      vertex 1.75 22.75 0
    endloop
  endfacet
  facet normal 1 0 0
    outer loop
      vertex 1.75 37.35 0
      vertex 1.75 37.35 3.5
      vertex 1.75 22.75 3.5
    endloop
  endfacet
  facet normal 1 0 0
    outer loop
      vertex 1.75 22.75 0
      vertex 1.75 37.35 0
      vertex 1.75 22.75 3.5
    endloop
  endfacet
  facet normal 0 -1 0
    outer loop
      vertex 11.95 37.35 0
      vertex 11.95 37.35 3.5
      vertex 1.75 37.35 3.5
    endloop
  endfacet
  facet normal 0 -1 0
    outer loop
      vertex 1.75 37.35 0
      vertex 11.95 37.35 0
      vertex 1.75 37.35 3.5
    endloop
  endfacet
  facet normal -1 0 0
    outer loop
      vertex 11.95 37.35 3.5
      vertex 11.95 37.35 0
      vertex 11.95 35.15 3.5
    endloop
  endfacet
  facet normal -1 0 0
    outer loop
      vertex 11.95 35.15 3.5
      vertex 11.95 37.35 0
      vertex 11.95 35.15 0
    endloop
  endfacet
  facet normal 0 -1 0
    outer loop
      vertex 13.69 35.15 0
      vertex 13.69 35.15 3.5
      vertex 11.95 35.15 3.5
    endloop
  endfacet
  facet normal 0 -1 0
    outer loop
      vertex 11.95 35.15 0
      vertex 13.69 35.15 0
      vertex 11.95 35.15 3.5
    endloop
  endfacet
  facet normal 0.796123 -0.605134 0
    outer loop
      vertex 16.6924 39.1 0
      vertex 16.6924 39.1 3.5
      vertex 13.69 35.15 3.5
    endloop
  endfacet
  facet normal 0.796123 -0.605134 0
    outer loop
      vertex 13.69 35.15 0
      vertex 16.6924 39.1 0
      vertex 13.69 35.15 3.5
    endloop
  endfacet
  facet normal 0 0 -1
    outer loop
      vertex 17.75 12.65 0
      vertex 19.5 10.9 0
      vertex 7.55 12.65 0
    endloop
  endfacet
  facet normal 0 0 -1
    outer loop
      vertex 2.8076 10.9 0
      vertex 5.81 14.85 0
      vertex 7.55 12.65 0
    endloop
  endfacet
  facet normal 0 0 -1
    outer loop
      vertex 2.8076 10.9 0
      vertex 7.55 12.65 0
      vertex 19.5 10.9 0
    endloop
  endfacet
  facet normal 0 0 -1
    outer loop
      vertex 5.81 25.05 0
      vertex 7.55 27.25 0
      vertex 7.55 25.05 0
    endloop
  endfacet
  facet normal 0 0 -1
    outer loop
      vertex 19.5 10.9 0
      vertex 17.75 12.65 0
      vertex 17.75 27.25 0
    endloop
  endfacet
  facet normal 0 0 -1
    outer loop
      vertex 7.55 27.25 0
      vertex 5.81 25.05 0
      vertex 2.8076 29 0
    endloop
  endfacet
  facet normal 0 0 -1
    outer loop
      vertex 7.55 27.25 0
      vertex 2.8076 29 0
      vertex 17.75 27.25 0
    endloop
  endfacet
  facet normal 0 0 -1
    outer loop
      vertex 17.75 27.25 0
      vertex 2.8076 29 0
      vertex 19.5 29 0
    endloop
  endfacet
  facet normal 0 0 -1
    outer loop
      vertex 17.75 27.25 0
      vertex 19.5 29 0
      vertex 19.5 10.9 0
    endloop
  endfacet
  facet normal 0 0 -1
    outer loop
      vertex 7.55 12.65 0
      vertex 5.81 14.85 0
      vertex 7.55 14.85 0
    endloop
  endfacet
  facet normal -0.796123 0.605134 0
    outer loop
      vertex 5.81 14.85 3.5
      vertex 5.81 14.85 0
      vertex 2.8076 10.9 3.5
    endloop
  endfacet
  facet normal -0.796123 0.605134 0
    outer loop
      vertex 2.8076 10.9 3.5
      vertex 5.81 14.85 0
      vertex 2.8076 10.9 0
    endloop
  endfacet
  facet normal -1.22461e-16 -1 0
    outer loop
      vertex 2.8076 10.9 3.5
      vertex 2.8076 10.9 0
      vertex 19.5 10.9 0
    endloop
  endfacet
  facet normal -1.22461e-16 -1 0
    outer loop
      vertex 19.5 10.9 3.5
      vertex 2.8076 10.9 3.5
      vertex 19.5 10.9 0
    endloop
  endfacet
  facet normal 1 -1.22461e-16 0
    outer loop
      vertex 19.5 10.9 3.5
      vertex 19.5 10.9 0
      vertex 19.5 29 0
    endloop
  endfacet
  facet normal 1 -1.22461e-16 0
    outer loop
      vertex 19.5 29 3.5
      vertex 19.5 10.9 3.5
      vertex 19.5 29 0
    endloop
  endfacet
  facet normal 1.22461e-16 1 0
    outer loop
      vertex 2.8076 29 0
      vertex 2.8076 29 3.5
      vertex 19.5 29 0
    endloop
  endfacet
  facet normal 1.22461e-16 1 0
    outer loop
      vertex 19.5 29 0
      vertex 2.8076 29 3.5
      vertex 19.5 29 3.5
    endloop
  endfacet
  facet normal -0.796123 -0.605134 0
    outer loop
      vertex 5.81 25.05 3.5
      vertex 2.8076 29 3.5
      vertex 5.81 25.05 0
    endloop
  endfacet
  facet normal -0.796123 -0.605134 0
    outer loop
      vertex 5.81 25.05 0
      vertex 2.8076 29 3.5
      vertex 2.8076 29 0
    endloop
  endfacet
  facet normal -1.22461e-16 -1 0
    outer loop
      vertex 7.55 25.05 0
      vertex 7.55 25.05 3.5
      vertex 5.81 25.05 3.5
    endloop
  endfacet
  facet normal -1.22461e-16 -1 0
    outer loop
      vertex 5.81 25.05 0
      vertex 7.55 25.05 0
      vertex 5.81 25.05 3.5
    endloop
  endfacet
  facet normal 1 -1.22461e-16 0
    outer loop
      vertex 7.55 27.25 0
      vertex 7.55 27.25 3.5
      vertex 7.55 25.05 3.5
    endloop
  endfacet
  facet normal 1 -1.22461e-16 0
    outer loop
      vertex 7.55 25.05 0
      vertex 7.55 27.25 0
      vertex 7.55 25.05 3.5
    endloop
  endfacet
  facet normal -1.22461e-16 -1 0
    outer loop
      vertex 17.75 27.25 0
      vertex 17.75 27.25 3.5
      vertex 7.55 27.25 3.5
    endloop
  endfacet
  facet normal -1.22461e-16 -1 0
    outer loop
      vertex 7.55 27.25 0
      vertex 17.75 27.25 0
      vertex 7.55 27.25 3.5
    endloop
  endfacet
  facet normal -1 1.22461e-16 0
    outer loop
      vertex 17.75 27.25 3.5
      vertex 17.75 27.25 0
      vertex 17.75 12.65 3.5
    endloop
  endfacet
  facet normal -1 1.22461e-16 0
    outer loop
      vertex 17.75 12.65 3.5
      vertex 17.75 27.25 0
      vertex 17.75 12.65 0
    endloop
  endfacet
  facet normal 1.22461e-16 1 0
    outer loop
      vertex 17.75 12.65 3.5
      vertex 17.75 12.65 0
      vertex 7.55 12.65 3.5
    endloop
  endfacet
  facet normal 1.22461e-16 1 0
    outer loop
      vertex 7.55 12.65 3.5
      vertex 17.75 12.65 0
      vertex 7.55 12.65 0
    endloop
  endfacet
  facet normal 1 -1.22461e-16 0
    outer loop
      vertex 7.55 14.85 0
      vertex 7.55 14.85 3.5
      vertex 7.55 12.65 3.5
    endloop
  endfacet
  facet normal 1 -1.22461e-16 0
    outer loop
      vertex 7.55 12.65 0
      vertex 7.55 14.85 0
      vertex 7.55 12.65 3.5
    endloop
  endfacet
  facet normal 1.22461e-16 1 0
    outer loop
      vertex 7.55 14.85 3.5
      vertex 7.55 14.85 0
      vertex 5.81 14.85 3.5
    endloop
  endfacet
  facet normal 1.22461e-16 1 0
    outer loop
      vertex 5.81 14.85 3.5
      vertex 7.55 14.85 0
      vertex 5.81 14.85 0
    endloop
  endfacet
  facet normal 0 0 1
    outer loop
      vertex 7.55 12.65 3.5
      vertex 2.8076 10.9 3.5
      vertex 19.5 10.9 3.5
    endloop
  endfacet
  facet normal 0 0 1
    outer loop
      vertex 7.55 12.65 3.5
      vertex 7.55 14.85 3.5
      vertex 5.81 14.85 3.5
    endloop
  endfacet
  facet normal 0 0 1
    outer loop
      vertex 7.55 27.25 3.5
      vertex 17.75 27.25 3.5
      vertex 19.5 29 3.5
    endloop
  endfacet
  facet normal 0 0 1
    outer loop
      vertex 2.8076 29 3.5
      vertex 7.55 27.25 3.5
      vertex 19.5 29 3.5
    endloop
  endfacet
  facet normal 0 0 1
    outer loop
      vertex 2.8076 29 3.5
      vertex 5.81 25.05 3.5
      vertex 7.55 27.25 3.5
    endloop
  endfacet
  facet normal 0 0 1
    outer loop
      vertex 19.5 29 3.5
      vertex 17.75 12.65 3.5
      vertex 19.5 10.9 3.5
    endloop
  endfacet
  facet normal 0 0 1
    outer loop
      vertex 5.81 14.85 3.5
      vertex 2.8076 10.9 3.5
      vertex 7.55 12.65 3.5
    endloop
  endfacet
  facet normal 0 0 1
    outer loop
      vertex 17.75 12.65 3.5
      vertex 7.55 12.65 3.5
      vertex 19.5 10.9 3.5
    endloop
  endfacet
  facet normal 0 0 1
    outer loop
      vertex 7.55 25.05 3.5
      vertex 7.55 27.25 3.5
      vertex 5.81 25.05 3.5
    endloop
  endfacet
  facet normal 0 0 1
    outer loop
      vertex 17.75 27.25 3.5
      vertex 17.75 12.65 3.5
      vertex 19.5 29 3.5
    endloop
  endfacet
endsolid OpenSCAD_Model
