  0
SECTION
  2
HEADER
  9
$ACADVER
  1
AC1014
  9
$HANDSEED
  5
FFFF
  9
$MEASUREMENT
 70
     1
  0
ENDSEC
  0
SECTION
  2
TABLES
  0
TABLE
  2
VPORT
  5
8
330
0
100
AcDbSymbolTable
 70
     4
  0
VPORT
  5
2E
330
8
100
AcDbSymbolTableRecord
100
AcDbViewportTableRecord
  2
*ACTIVE
 70
     0
 10
0.0
 20
0.0
 11
1.0
 21
1.0
 12
210.0
 22
148.5
 13
0.0
 23
0.0
 14
10.0
 24
10.0
 15
10.0
 25
10.0
 16
0.0
 26
0.0
 36
1.0
 17
0.0
 27
0.0
 37
0.0
 40
341.0
 41
1.24
 42
50.0
 43
0.0
 44
0.0
 50
0.0
 51
0.0
 71
     0
 72
   100
 73
     1
 74
     3
 75
     0
 76
     0
 77
     0
 78
     0
  0
ENDTAB
  0
TABLE
  2
LTYPE
  5
5
330
0
100
AcDbSymbolTable
 70
     1
  0
LTYPE
  5
14
330
5
100
AcDbSymbolTableRecord
100
AcDbLinetypeTableRecord
  2
BYBLOCK
 70
     0
  3

 72
    65
 73
     0
 40
0.0
  0
LTYPE
  5
15
330
5
100
AcDbSymbolTableRecord
100
AcDbLinetypeTableRecord
  2
BYLAYER
 70
     0
  3

 72
    65
 73
     0
 40
0.0
  0
LTYPE
  5
16
330
5
100
AcDbSymbolTableRecord
100
AcDbLinetypeTableRecord
  2
CONTINUOUS
 70
     0
  3
Solid line
 72
    65
 73
     0
 40
0.0
  0
ENDTAB
  0
TABLE
  2
LAYER
  5
2
100
AcDbSymbolTable
 70
1
  0
LAYER
  5
50
100
AcDbSymbolTableRecord
100
AcDbLayerTableRecord
  2
0
 70
0
  6
CONTINUOUS
  0
ENDTAB
  0
TABLE
  2
STYLE
  5
3
330
0
100
AcDbSymbolTable
 70
     1
  0
STYLE
  5
11
330
3
100
AcDbSymbolTableRecord
100
AcDbTextStyleTableRecord
  2
STANDARD
 70
     0
 40
0.0
 41
1.0
 50
0.0
 71
     0
 42
2.5
  3
txt
  4

  0
ENDTAB
  0
TABLE
  2
VIEW
  5
6
330
0
100
AcDbSymbolTable
 70
     0
  0
ENDTAB
  0
TABLE
  2
UCS
  5
7
330
0
100
AcDbSymbolTable
 70
     0
  0
ENDTAB
  0
TABLE
  2
APPID
  5
9
330
0
100
AcDbSymbolTable
 70
     2
  0
APPID
  5
12
330
9
100
AcDbSymbolTableRecord
100
AcDbRegAppTableRecord
  2
ACAD
 70
     0
  0
ENDTAB
  0
TABLE
  2
DIMSTYLE
  5
A
330
0
100
AcDbSymbolTable
 70
     1
  0
DIMSTYLE
105
27
330
A
100
AcDbSymbolTableRecord
100
AcDbDimStyleTableRecord
  2
ISO-25
 70
     0
  3

  4

  5

  6

  7

 40
1.0
 41
2.5
 42
0.625
 43
3.75
 44
1.25
 45
0.0
 46
0.0
 47
0.0
 48
0.0
140
2.5
141
2.5
142
0.0
143
0.03937007874016
144
1.0
145
0.0
146
1.0
147
0.625
 71
     0
 72
     0
 73
     0
 74
     0
 75
     0
 76
     0
 77
     1
 78
     8
170
     0
171
     3
172
     1
173
     0
174
     0
175
     0
176
     0
177
     0
178
     0
270
     2
271
     2
272
     2
273
     2
274
     3
340
11
275
     0
280
     0
281
     0
282
     0
283
     0
284
     8
285
     0
286
     0
287
     3
288
     0
  0
ENDTAB
  0
TABLE
  2
BLOCK_RECORD
  5
1
330
0
100
AcDbSymbolTable
 70
     1
  0
BLOCK_RECORD
  5
1F
330
1
100
AcDbSymbolTableRecord
100
AcDbBlockTableRecord
  2
*MODEL_SPACE
  0
BLOCK_RECORD
  5
1B
330
1
100
AcDbSymbolTableRecord
100
AcDbBlockTableRecord
  2
*PAPER_SPACE
  0
ENDTAB
  0
ENDSEC
  0
SECTION
  2
BLOCKS
  0
BLOCK
  5
20
330
1F
100
AcDbEntity
  8
0
100
AcDbBlockBegin
  2
*MODEL_SPACE
 70
     0
 10
0.0
 20
0.0
 30
0.0
  3
*MODEL_SPACE
  1

  0
ENDBLK
  5
21
330
1F
100
AcDbEntity
  8
0
100
AcDbBlockEnd
  0
BLOCK
  5
1C
330
1B
100
AcDbEntity
 67
     1
  8
0
100
AcDbBlockBegin
  2
*PAPER_SPACE
  1

  0
ENDBLK
  5
1D
330
1B
100
AcDbEntity
 67
     1
  8
0
100
AcDbBlockEnd
  0
ENDSEC
  0
SECTION
  2
ENTITIES
  0
SPLINE
  5
100
100
AcDbEntity
  8
0
 62
7
100
AcDbSpline
 70
8
 71
3
 72
8
 73
4
 74
0
 40
0
 40
0
 40
0
 40
0
 40
1
 40
1
 40
1
 40
1
 10
21.220800
 20
57.957600
 30
0.0
 10
23.114400
 20
55.735200
 30
0.0
 10
25.062400
 20
53.560800
 30
0.0
 10
27.141600
 20
51.531200
 30
0.0
  0
SPLINE
  5
101
100
AcDbEntity
  8
0
 62
7
100
AcDbSpline
 70
8
 71
3
 72
8
 73
4
 74
0
 40
0
 40
0
 40
0
 40
0
 40
1
 40
1
 40
1
 40
1
 10
27.141600
 20
51.531200
 30
0.0
 10
29.409600
 20
49.312000
 30
0.0
 10
32.164800
 20
47.539200
 30
0.0
 10
34.864000
 20
45.832000
 30
0.0
  0
SPLINE
  5
102
100
AcDbEntity
  8
0
 62
7
100
AcDbSpline
 70
8
 71
3
 72
8
 73
4
 74
0
 40
0
 40
0
 40
0
 40
0
 40
1
 40
1
 40
1
 40
1
 10
34.864000
 20
45.832000
 30
0.0
 10
36.580800
 20
44.745600
 30
0.0
 10
38.584800
 20
44.105600
 30
0.0
 10
40.488000
 20
43.332000
 30
0.0
  0
SPLINE
  5
103
100
AcDbEntity
  8
0
 62
7
100
AcDbSpline
 70
8
 71
3
 72
8
 73
4
 74
0
 40
0
 40
0
 40
0
 40
0
 40
1
 40
1
 40
1
 40
1
 10
40.488000
 20
43.332000
 30
0.0
 10
43.108800
 20
42.260800
 30
0.0
 10
45.752800
 20
41.243200
 30
0.0
 10
48.400000
 20
40.231200
 30
0.0
  0
SPLINE
  5
104
100
AcDbEntity
  8
0
 62
7
100
AcDbSpline
 70
8
 71
3
 72
8
 73
4
 74
0
 40
0
 40
0
 40
0
 40
0
 40
1
 40
1
 40
1
 40
1
 10
48.400000
 20
40.231200
 30
0.0
 10
48.729600
 20
40.104000
 30
0.0
 10
49.131200
 20
40.172000
 30
0.0
 10
49.496800
 20
40.123200
 30
0.0
  0
SPLINE
  5
105
100
AcDbEntity
  8
0
 62
7
100
AcDbSpline
 70
8
 71
3
 72
8
 73
4
 74
0
 40
0
 40
0
 40
0
 40
0
 40
1
 40
1
 40
1
 40
1
 10
49.496800
 20
40.123200
 30
0.0
 10
51.954400
 20
39.793600
 30
0.0
 10
54.415200
 20
39.147200
 30
0.0
 10
56.863200
 20
39.196000
 30
0.0
  0
SPLINE
  5
106
100
AcDbEntity
  8
0
 62
7
100
AcDbSpline
 70
8
 71
3
 72
8
 73
4
 74
0
 40
0
 40
0
 40
0
 40
0
 40
1
 40
1
 40
1
 40
1
 10
56.863200
 20
39.196000
 30
0.0
 10
57.872000
 20
39.215200
 30
0.0
 10
58.880000
 20
39.261600
 30
0.0
 10
59.892000
 20
39.326400
 30
0.0
  0
SPLINE
  5
107
100
AcDbEntity
  8
0
 62
7
100
AcDbSpline
 70
8
 71
3
 72
8
 73
4
 74
0
 40
0
 40
0
 40
0
 40
0
 40
1
 40
1
 40
1
 40
1
 10
59.892000
 20
39.326400
 30
0.0
 10
68.169600
 20
38.357600
 30
0.0
 10
76.610400
 20
39.012800
 30
0.0
 10
84.584000
 20
41.569600
 30
0.0
  0
SPLINE
  5
108
100
AcDbEntity
  8
0
 62
7
100
AcDbSpline
 70
8
 71
3
 72
8
 73
4
 74
0
 40
0
 40
0
 40
0
 40
0
 40
1
 40
1
 40
1
 40
1
 10
84.584000
 20
41.569600
 30
0.0
 10
88.412800
 20
42.796800
 30
0.0
 10
90.840800
 20
46.648000
 30
0.0
 10
89.741600
 20
50.650400
 30
0.0
  0
SPLINE
  5
109
100
AcDbEntity
  8
0
 62
7
100
AcDbSpline
 70
8
 71
3
 72
8
 73
4
 74
0
 40
0
 40
0
 40
0
 40
0
 40
1
 40
1
 40
1
 40
1
 10
89.741600
 20
50.650400
 30
0.0
 10
88.707200
 20
54.406400
 30
0.0
 10
84.492800
 20
57.034400
 30
0.0
 10
80.660800
 20
55.807200
 30
0.0
  0
SPLINE
  5
10a
100
AcDbEntity
  8
0
 62
7
100
AcDbSpline
 70
8
 71
3
 72
8
 73
4
 74
0
 40
0
 40
0
 40
0
 40
0
 40
1
 40
1
 40
1
 40
1
 10
80.660800
 20
55.807200
 30
0.0
 10
79.113600
 20
55.311200
 30
0.0
 10
77.544000
 20
54.866400
 30
0.0
 10
75.953600
 20
54.530400
 30
0.0
  0
SPLINE
  5
10b
100
AcDbEntity
  8
0
 62
7
100
AcDbSpline
 70
8
 71
3
 72
8
 73
4
 74
0
 40
0
 40
0
 40
0
 40
0
 40
1
 40
1
 40
1
 40
1
 10
75.953600
 20
54.530400
 30
0.0
 10
75.846400
 20
54.508000
 30
0.0
 10
75.738400
 20
54.488000
 30
0.0
 10
75.630400
 20
54.465600
 30
0.0
  0
SPLINE
  5
10c
100
AcDbEntity
  8
0
 62
7
100
AcDbSpline
 70
8
 71
3
 72
8
 73
4
 74
0
 40
0
 40
0
 40
0
 40
0
 40
1
 40
1
 40
1
 40
1
 10
75.630400
 20
54.465600
 30
0.0
 10
71.556800
 20
54.429600
 30
0.0
 10
67.486400
 20
54.416000
 30
0.0
 10
63.423200
 20
54.599200
 30
0.0
  0
SPLINE
  5
10d
100
AcDbEntity
  8
0
 62
7
100
AcDbSpline
 70
8
 71
3
 72
8
 73
4
 74
0
 40
0
 40
0
 40
0
 40
0
 40
1
 40
1
 40
1
 40
1
 10
63.423200
 20
54.599200
 30
0.0
 10
61.031200
 20
54.707200
 30
0.0
 10
58.677600
 20
55.784000
 30
0.0
 10
56.314400
 20
56.449600
 30
0.0
  0
SPLINE
  5
10e
100
AcDbEntity
  8
0
 62
7
100
AcDbSpline
 70
8
 71
3
 72
8
 73
4
 74
0
 40
0
 40
0
 40
0
 40
0
 40
1
 40
1
 40
1
 40
1
 10
56.314400
 20
56.449600
 30
0.0
 10
55.025600
 20
56.815200
 30
0.0
 10
53.778400
 20
57.350400
 30
0.0
 10
52.472800
 20
57.628000
 30
0.0
  0
SPLINE
  5
10f
100
AcDbEntity
  8
0
 62
7
100
AcDbSpline
 70
8
 71
3
 72
8
 73
4
 74
0
 40
0
 40
0
 40
0
 40
0
 40
1
 40
1
 40
1
 40
1
 10
52.472800
 20
57.628000
 30
0.0
 10
49.254400
 20
58.316800
 30
0.0
 10
46.682400
 20
60.187200
 30
0.0
 10
43.911200
 20
61.815200
 30
0.0
  0
SPLINE
  5
110
100
AcDbEntity
  8
0
 62
7
100
AcDbSpline
 70
8
 71
3
 72
8
 73
4
 74
0
 40
0
 40
0
 40
0
 40
0
 40
1
 40
1
 40
1
 40
1
 10
43.911200
 20
61.815200
 30
0.0
 10
39.260000
 20
64.550400
 30
0.0
 10
35.992800
 20
68.647200
 30
0.0
 10
32.559200
 20
72.544000
 30
0.0
  0
SPLINE
  5
111
100
AcDbEntity
  8
0
 62
7
100
AcDbSpline
 70
8
 71
3
 72
8
 73
4
 74
0
 40
0
 40
0
 40
0
 40
0
 40
1
 40
1
 40
1
 40
1
 10
32.559200
 20
72.544000
 30
0.0
 10
30.884800
 20
74.444000
 30
0.0
 10
30.032800
 20
77.077600
 30
0.0
 10
28.864000
 20
79.404800
 30
0.0
  0
SPLINE
  5
112
100
AcDbEntity
  8
0
 62
7
100
AcDbSpline
 70
8
 71
3
 72
8
 73
4
 74
0
 40
0
 40
0
 40
0
 40
0
 40
1
 40
1
 40
1
 40
1
 10
28.864000
 20
79.404800
 30
0.0
 10
27.786400
 20
81.552800
 30
0.0
 10
26.651200
 20
83.687200
 30
0.0
 10
25.796000
 20
85.922400
 30
0.0
  0
SPLINE
  5
113
100
AcDbEntity
  8
0
 62
7
100
AcDbSpline
 70
8
 71
3
 72
8
 73
4
 74
0
 40
0
 40
0
 40
0
 40
0
 40
1
 40
1
 40
1
 40
1
 10
25.796000
 20
85.922400
 30
0.0
 10
25.146400
 20
87.620000
 30
0.0
 10
24.882400
 20
89.464000
 30
0.0
 10
24.477600
 20
91.249600
 30
0.0
  0
SPLINE
  5
114
100
AcDbEntity
  8
0
 62
7
100
AcDbSpline
 70
8
 71
3
 72
8
 73
4
 74
0
 40
0
 40
0
 40
0
 40
0
 40
1
 40
1
 40
1
 40
1
 10
24.477600
 20
91.249600
 30
0.0
 10
23.798400
 20
94.248800
 30
0.0
 10
23.132800
 20
97.252000
 30
0.0
 10
22.489600
 20
100.261600
 30
0.0
  0
SPLINE
  5
115
100
AcDbEntity
  8
0
 62
7
100
AcDbSpline
 70
8
 71
3
 72
8
 73
4
 74
0
 40
0
 40
0
 40
0
 40
0
 40
1
 40
1
 40
1
 40
1
 10
22.489600
 20
100.261600
 30
0.0
 10
22.375200
 20
100.796800
 30
0.0
 10
22.356000
 20
101.358400
 30
0.0
 10
22.352800
 20
101.910400
 30
0.0
  0
SPLINE
  5
116
100
AcDbEntity
  8
0
 62
7
100
AcDbSpline
 70
8
 71
3
 72
8
 73
4
 74
0
 40
0
 40
0
 40
0
 40
0
 40
1
 40
1
 40
1
 40
1
 10
22.352800
 20
101.910400
 30
0.0
 10
22.320000
 20
106.339200
 30
0.0
 10
22.140800
 20
110.775200
 30
0.0
 10
22.329600
 20
115.194400
 30
0.0
  0
SPLINE
  5
117
100
AcDbEntity
  8
0
 62
7
100
AcDbSpline
 70
8
 71
3
 72
8
 73
4
 74
0
 40
0
 40
0
 40
0
 40
0
 40
1
 40
1
 40
1
 40
1
 10
22.329600
 20
115.194400
 30
0.0
 10
22.463200
 20
118.311200
 30
0.0
 10
22.940000
 20
121.438400
 30
0.0
 10
23.563200
 20
124.500000
 30
0.0
  0
SPLINE
  5
118
100
AcDbEntity
  8
0
 62
7
100
AcDbSpline
 70
8
 71
3
 72
8
 73
4
 74
0
 40
0
 40
0
 40
0
 40
0
 40
1
 40
1
 40
1
 40
1
 10
23.563200
 20
124.500000
 30
0.0
 10
24.036000
 20
126.817600
 30
0.0
 10
24.787200
 20
129.132000
 30
0.0
 10
25.780000
 20
131.280000
 30
0.0
  0
SPLINE
  5
119
100
AcDbEntity
  8
0
 62
7
100
AcDbSpline
 70
8
 71
3
 72
8
 73
4
 74
0
 40
0
 40
0
 40
0
 40
0
 40
1
 40
1
 40
1
 40
1
 10
25.780000
 20
131.280000
 30
0.0
 10
26.856800
 20
133.613600
 30
0.0
 10
28.496000
 20
135.683200
 30
0.0
 10
29.647200
 20
137.987200
 30
0.0
  0
SPLINE
  5
11a
100
AcDbEntity
  8
0
 62
7
100
AcDbSpline
 70
8
 71
3
 72
8
 73
4
 74
0
 40
0
 40
0
 40
0
 40
0
 40
1
 40
1
 40
1
 40
1
 10
29.647200
 20
137.987200
 30
0.0
 10
31.909600
 20
142.504800
 30
0.0
 10
35.486400
 20
145.928800
 30
0.0
 10
39.050400
 20
149.300800
 30
0.0
  0
SPLINE
  5
11b
100
AcDbEntity
  8
0
 62
7
100
AcDbSpline
 70
8
 71
3
 72
8
 73
4
 74
0
 40
0
 40
0
 40
0
 40
0
 40
1
 40
1
 40
1
 40
1
 10
39.050400
 20
149.300800
 30
0.0
 10
41.129600
 20
151.265600
 30
0.0
 10
43.776800
 20
152.626400
 30
0.0
 10
46.168800
 20
154.255200
 30
0.0
  0
SPLINE
  5
11c
100
AcDbEntity
  8
0
 62
7
100
AcDbSpline
 70
8
 71
3
 72
8
 73
4
 74
0
 40
0
 40
0
 40
0
 40
0
 40
1
 40
1
 40
1
 40
1
 10
46.168800
 20
154.255200
 30
0.0
 10
48.202400
 20
155.636000
 30
0.0
 10
50.173600
 20
157.124800
 30
0.0
 10
52.295200
 20
158.351200
 30
0.0
  0
SPLINE
  5
11d
100
AcDbEntity
  8
0
 62
7
100
AcDbSpline
 70
8
 71
3
 72
8
 73
4
 74
0
 40
0
 40
0
 40
0
 40
0
 40
1
 40
1
 40
1
 40
1
 10
52.295200
 20
158.351200
 30
0.0
 10
54.018400
 20
159.347200
 30
0.0
 10
55.944800
 20
159.993600
 30
0.0
 10
57.749600
 20
160.852000
 30
0.0
  0
SPLINE
  5
11e
100
AcDbEntity
  8
0
 62
7
100
AcDbSpline
 70
8
 71
3
 72
8
 73
4
 74
0
 40
0
 40
0
 40
0
 40
0
 40
1
 40
1
 40
1
 40
1
 10
57.749600
 20
160.852000
 30
0.0
 10
59.688000
 20
161.775200
 30
0.0
 10
61.572000
 20
162.806400
 30
0.0
 10
63.513600
 20
163.714400
 30
0.0
  0
SPLINE
  5
11f
100
AcDbEntity
  8
0
 62
7
100
AcDbSpline
 70
8
 71
3
 72
8
 73
4
 74
0
 40
0
 40
0
 40
0
 40
0
 40
1
 40
1
 40
1
 40
1
 10
63.513600
 20
163.714400
 30
0.0
 10
64.718400
 20
164.279200
 30
0.0
 10
65.994400
 20
164.693600
 30
0.0
 10
67.234400
 20
165.186400
 30
0.0
  0
SPLINE
  5
120
100
AcDbEntity
  8
0
 62
7
100
AcDbSpline
 70
8
 71
3
 72
8
 73
4
 74
0
 40
0
 40
0
 40
0
 40
0
 40
1
 40
1
 40
1
 40
1
 10
67.234400
 20
165.186400
 30
0.0
 10
68.993600
 20
165.884800
 30
0.0
 10
70.723200
 20
166.658400
 30
0.0
 10
72.512000
 20
167.268800
 30
0.0
  0
SPLINE
  5
121
100
AcDbEntity
  8
0
 62
7
100
AcDbSpline
 70
8
 71
3
 72
8
 73
4
 74
0
 40
0
 40
0
 40
0
 40
0
 40
1
 40
1
 40
1
 40
1
 10
72.512000
 20
167.268800
 30
0.0
 10
74.052800
 20
167.797600
 30
0.0
 10
75.678400
 20
168.082400
 30
0.0
 10
77.225600
 20
168.591200
 30
0.0
  0
SPLINE
  5
122
100
AcDbEntity
  8
0
 62
7
100
AcDbSpline
 70
8
 71
3
 72
8
 73
4
 74
0
 40
0
 40
0
 40
0
 40
0
 40
1
 40
1
 40
1
 40
1
 10
77.225600
 20
168.591200
 30
0.0
 10
78.874400
 20
169.136000
 30
0.0
 10
80.480000
 20
169.824800
 30
0.0
 10
82.102400
 20
170.451200
 30
0.0
  0
SPLINE
  5
123
100
AcDbEntity
  8
0
 62
7
100
AcDbSpline
 70
8
 71
3
 72
8
 73
4
 74
0
 40
0
 40
0
 40
0
 40
0
 40
1
 40
1
 40
1
 40
1
 10
82.102400
 20
170.451200
 30
0.0
 10
82.320800
 20
170.536000
 30
0.0
 10
82.536000
 20
170.628000
 30
0.0
 10
82.758400
 20
170.699200
 30
0.0
  0
SPLINE
  5
124
100
AcDbEntity
  8
0
 62
7
100
AcDbSpline
 70
8
 71
3
 72
8
 73
4
 74
0
 40
0
 40
0
 40
0
 40
0
 40
1
 40
1
 40
1
 40
1
 10
82.758400
 20
170.699200
 30
0.0
 10
84.958400
 20
171.408000
 30
0.0
 10
87.139200
 20
172.178400
 30
0.0
 10
89.361600
 20
172.801600
 30
0.0
  0
SPLINE
  5
125
100
AcDbEntity
  8
0
 62
7
100
AcDbSpline
 70
8
 71
3
 72
8
 73
4
 74
0
 40
0
 40
0
 40
0
 40
0
 40
1
 40
1
 40
1
 40
1
 10
89.361600
 20
172.801600
 30
0.0
 10
91.241600
 20
173.327200
 30
0.0
 10
93.196800
 20
173.591200
 30
0.0
 10
95.067200
 20
174.146400
 30
0.0
  0
SPLINE
  5
126
100
AcDbEntity
  8
0
 62
7
100
AcDbSpline
 70
8
 71
3
 72
8
 73
4
 74
0
 40
0
 40
0
 40
0
 40
0
 40
1
 40
1
 40
1
 40
1
 10
95.067200
 20
174.146400
 30
0.0
 10
95.997600
 20
174.420800
 30
0.0
 10
96.904800
 20
174.769600
 30
0.0
 10
97.808800
 20
175.129600
 30
0.0
  0
SPLINE
  5
127
100
AcDbEntity
  8
0
 62
7
100
AcDbSpline
 70
8
 71
3
 72
8
 73
4
 74
0
 40
0
 40
0
 40
0
 40
0
 40
1
 40
1
 40
1
 40
1
 10
97.808800
 20
175.129600
 30
0.0
 10
118.764000
 20
179.633600
 30
0.0
 10
139.190400
 20
186.184800
 30
0.0
 10
158.969600
 20
194.481600
 30
0.0
  0
SPLINE
  5
128
100
AcDbEntity
  8
0
 62
7
100
AcDbSpline
 70
8
 71
3
 72
8
 73
4
 74
0
 40
0
 40
0
 40
0
 40
0
 40
1
 40
1
 40
1
 40
1
 10
158.969600
 20
194.481600
 30
0.0
 10
160.493600
 20
193.453600
 30
0.0
 10
162.086400
 20
192.552800
 30
0.0
 10
163.708800
 20
191.644800
 30
0.0
  0
SPLINE
  5
129
100
AcDbEntity
  8
0
 62
7
100
AcDbSpline
 70
8
 71
3
 72
8
 73
4
 74
0
 40
0
 40
0
 40
0
 40
0
 40
1
 40
1
 40
1
 40
1
 10
163.708800
 20
191.644800
 30
0.0
 10
166.156800
 20
190.270400
 30
0.0
 10
168.744800
 20
189.402400
 30
0.0
 10
171.291200
 20
188.332000
 30
0.0
  0
SPLINE
  5
12a
100
AcDbEntity
  8
0
 62
7
100
AcDbSpline
 70
8
 71
3
 72
8
 73
4
 74
0
 40
0
 40
0
 40
0
 40
0
 40
1
 40
1
 40
1
 40
1
 10
171.291200
 20
188.332000
 30
0.0
 10
172.857600
 20
187.672800
 30
0.0
 10
174.473600
 20
187.244800
 30
0.0
 10
176.079200
 20
186.807200
 30
0.0
  0
SPLINE
  5
12b
100
AcDbEntity
  8
0
 62
7
100
AcDbSpline
 70
8
 71
3
 72
8
 73
4
 74
0
 40
0
 40
0
 40
0
 40
0
 40
1
 40
1
 40
1
 40
1
 10
176.079200
 20
186.807200
 30
0.0
 10
177.610400
 20
186.210400
 30
0.0
 10
179.170400
 20
185.684800
 30
0.0
 10
180.749600
 20
185.247200
 30
0.0
  0
SPLINE
  5
12c
100
AcDbEntity
  8
0
 62
7
100
AcDbSpline
 70
8
 71
3
 72
8
 73
4
 74
0
 40
0
 40
0
 40
0
 40
0
 40
1
 40
1
 40
1
 40
1
 10
180.749600
 20
185.247200
 30
0.0
 10
181.868800
 20
184.937600
 30
0.0
 10
182.999200
 20
184.774400
 30
0.0
 10
184.121600
 20
184.738400
 30
0.0
  0
SPLINE
  5
12d
100
AcDbEntity
  8
0
 62
7
100
AcDbSpline
 70
8
 71
3
 72
8
 73
4
 74
0
 40
0
 40
0
 40
0
 40
0
 40
1
 40
1
 40
1
 40
1
 10
184.121600
 20
184.738400
 30
0.0
 10
189.174400
 20
183.899200
 30
0.0
 10
194.288800
 20
183.977600
 30
0.0
 10
199.416800
 20
184.043200
 30
0.0
  0
SPLINE
  5
12e
100
AcDbEntity
  8
0
 62
7
100
AcDbSpline
 70
8
 71
3
 72
8
 73
4
 74
0
 40
0
 40
0
 40
0
 40
0
 40
1
 40
1
 40
1
 40
1
 10
199.416800
 20
184.043200
 30
0.0
 10
201.312800
 20
184.068800
 30
0.0
 10
202.155200
 20
183.318400
 30
0.0
 10
203.043200
 20
181.552800
 30
0.0
  0
SPLINE
  5
12f
100
AcDbEntity
  8
0
 62
7
100
AcDbSpline
 70
8
 71
3
 72
8
 73
4
 74
0
 40
0
 40
0
 40
0
 40
0
 40
1
 40
1
 40
1
 40
1
 10
203.043200
 20
181.552800
 30
0.0
 10
204.100800
 20
179.444000
 30
0.0
 10
203.996000
 20
177.407200
 30
0.0
 10
203.735200
 20
175.400800
 30
0.0
  0
SPLINE
  5
130
100
AcDbEntity
  8
0
 62
7
100
AcDbSpline
 70
8
 71
3
 72
8
 73
4
 74
0
 40
0
 40
0
 40
0
 40
0
 40
1
 40
1
 40
1
 40
1
 10
203.735200
 20
175.400800
 30
0.0
 10
203.424800
 20
173.020800
 30
0.0
 10
202.524000
 20
170.713600
 30
0.0
 10
201.828800
 20
168.389600
 30
0.0
  0
SPLINE
  5
131
100
AcDbEntity
  8
0
 62
7
100
AcDbSpline
 70
8
 71
3
 72
8
 73
4
 74
0
 40
0
 40
0
 40
0
 40
0
 40
1
 40
1
 40
1
 40
1
 10
201.828800
 20
168.389600
 30
0.0
 10
201.499200
 20
167.279200
 30
0.0
 10
201.006400
 20
166.221600
 30
0.0
 10
200.680000
 20
165.112000
 30
0.0
  0
SPLINE
  5
132
100
AcDbEntity
  8
0
 62
7
100
AcDbSpline
 70
8
 71
3
 72
8
 73
4
 74
0
 40
0
 40
0
 40
0
 40
0
 40
1
 40
1
 40
1
 40
1
 10
200.680000
 20
165.112000
 30
0.0
 10
200.441600
 20
164.292800
 30
0.0
 10
200.800800
 20
162.934400
 30
0.0
 10
199.443200
 20
163.117600
 30
0.0
  0
SPLINE
  5
133
100
AcDbEntity
  8
0
 62
7
100
AcDbSpline
 70
8
 71
3
 72
8
 73
4
 74
0
 40
0
 40
0
 40
0
 40
0
 40
1
 40
1
 40
1
 40
1
 10
199.443200
 20
163.117600
 30
0.0
 10
198.669600
 20
163.222400
 30
0.0
 10
197.743200
 20
164.001600
 30
0.0
 10
197.341600
 20
164.730400
 30
0.0
  0
SPLINE
  5
134
100
AcDbEntity
  8
0
 62
7
100
AcDbSpline
 70
8
 71
3
 72
8
 73
4
 74
0
 40
0
 40
0
 40
0
 40
0
 40
1
 40
1
 40
1
 40
1
 10
197.341600
 20
164.730400
 30
0.0
 10
196.016800
 20
167.132800
 30
0.0
 10
194.675200
 20
169.538400
 30
0.0
 10
192.566400
 20
171.297600
 30
0.0
  0
SPLINE
  5
135
100
AcDbEntity
  8
0
 62
7
100
AcDbSpline
 70
8
 71
3
 72
8
 73
4
 74
0
 40
0
 40
0
 40
0
 40
0
 40
1
 40
1
 40
1
 40
1
 10
192.566400
 20
171.297600
 30
0.0
 10
190.448000
 20
173.063200
 30
0.0
 10
185.271200
 20
173.902400
 30
0.0
 10
182.327200
 20
172.143200
 30
0.0
  0
SPLINE
  5
136
100
AcDbEntity
  8
0
 62
7
100
AcDbSpline
 70
8
 71
3
 72
8
 73
4
 74
0
 40
0
 40
0
 40
0
 40
0
 40
1
 40
1
 40
1
 40
1
 10
182.327200
 20
172.143200
 30
0.0
 10
180.660000
 20
171.144800
 30
0.0
 10
179.970400
 20
169.845600
 30
0.0
 10
179.477600
 20
168.220000
 30
0.0
  0
SPLINE
  5
137
100
AcDbEntity
  8
0
 62
7
100
AcDbSpline
 70
8
 71
3
 72
8
 73
4
 74
0
 40
0
 40
0
 40
0
 40
0
 40
1
 40
1
 40
1
 40
1
 10
179.477600
 20
168.220000
 30
0.0
 10
179.121600
 20
167.041600
 30
0.0
 10
178.358400
 20
165.720000
 30
0.0
 10
178.619200
 20
164.672000
 30
0.0
  0
SPLINE
  5
138
100
AcDbEntity
  8
0
 62
7
100
AcDbSpline
 70
8
 71
3
 72
8
 73
4
 74
0
 40
0
 40
0
 40
0
 40
0
 40
1
 40
1
 40
1
 40
1
 10
178.619200
 20
164.672000
 30
0.0
 10
179.331200
 20
161.787200
 30
0.0
 10
179.813600
 20
158.721600
 30
0.0
 10
183.162400
 20
157.200800
 30
0.0
  0
SPLINE
  5
139
100
AcDbEntity
  8
0
 62
7
100
AcDbSpline
 70
8
 71
3
 72
8
 73
4
 74
0
 40
0
 40
0
 40
0
 40
0
 40
1
 40
1
 40
1
 40
1
 10
183.162400
 20
157.200800
 30
0.0
 10
184.425600
 20
156.625600
 30
0.0
 10
185.620000
 20
156.096800
 30
0.0
 10
186.854400
 20
156.345600
 30
0.0
  0
SPLINE
  5
13a
100
AcDbEntity
  8
0
 62
7
100
AcDbSpline
 70
8
 71
3
 72
8
 73
4
 74
0
 40
0
 40
0
 40
0
 40
0
 40
1
 40
1
 40
1
 40
1
 10
186.854400
 20
156.345600
 30
0.0
 10
188.600800
 20
156.695200
 30
0.0
 10
189.867200
 20
155.699200
 30
0.0
 10
191.074400
 20
154.974400
 30
0.0
  0
SPLINE
  5
13b
100
AcDbEntity
  8
0
 62
7
100
AcDbSpline
 70
8
 71
3
 72
8
 73
4
 74
0
 40
0
 40
0
 40
0
 40
0
 40
1
 40
1
 40
1
 40
1
 10
191.074400
 20
154.974400
 30
0.0
 10
191.642400
 20
154.635200
 30
0.0
 10
191.694400
 20
152.967200
 30
0.0
 10
191.495200
 20
152.004000
 30
0.0
  0
SPLINE
  5
13c
100
AcDbEntity
  8
0
 62
7
100
AcDbSpline
 70
8
 71
3
 72
8
 73
4
 74
0
 40
0
 40
0
 40
0
 40
0
 40
1
 40
1
 40
1
 40
1
 10
191.495200
 20
152.004000
 30
0.0
 10
191.384000
 20
151.455200
 30
0.0
 10
190.304000
 20
150.751200
 30
0.0
 10
189.637600
 20
150.728000
 30
0.0
  0
SPLINE
  5
13d
100
AcDbEntity
  8
0
 62
7
100
AcDbSpline
 70
8
 71
3
 72
8
 73
4
 74
0
 40
0
 40
0
 40
0
 40
0
 40
1
 40
1
 40
1
 40
1
 10
189.637600
 20
150.728000
 30
0.0
 10
186.628000
 20
150.623200
 30
0.0
 10
183.580000
 20
151.044800
 30
0.0
 10
180.606400
 20
150.705600
 30
0.0
  0
SPLINE
  5
13e
100
AcDbEntity
  8
0
 62
7
100
AcDbSpline
 70
8
 71
3
 72
8
 73
4
 74
0
 40
0
 40
0
 40
0
 40
0
 40
1
 40
1
 40
1
 40
1
 10
180.606400
 20
150.705600
 30
0.0
 10
175.657600
 20
150.140800
 30
0.0
 10
171.911200
 20
147.317600
 30
0.0
 10
173.076000
 20
141.651200
 30
0.0
  0
SPLINE
  5
13f
100
AcDbEntity
  8
0
 62
7
100
AcDbSpline
 70
8
 71
3
 72
8
 73
4
 74
0
 40
0
 40
0
 40
0
 40
0
 40
1
 40
1
 40
1
 40
1
 10
173.076000
 20
141.651200
 30
0.0
 10
173.523200
 20
139.473600
 30
0.0
 10
174.273600
 20
136.664000
 30
0.0
 10
176.578400
 20
135.796000
 30
0.0
  0
SPLINE
  5
140
100
AcDbEntity
  8
0
 62
7
100
AcDbSpline
 70
8
 71
3
 72
8
 73
4
 74
0
 40
0
 40
0
 40
0
 40
0
 40
1
 40
1
 40
1
 40
1
 10
176.578400
 20
135.796000
 30
0.0
 10
178.984000
 20
134.888000
 30
0.0
 10
181.360000
 20
133.227200
 30
0.0
 10
184.519200
 20
134.967200
 30
0.0
  0
SPLINE
  5
141
100
AcDbEntity
  8
0
 62
7
100
AcDbSpline
 70
8
 71
3
 72
8
 73
4
 74
0
 40
0
 40
0
 40
0
 40
0
 40
1
 40
1
 40
1
 40
1
 10
184.519200
 20
134.967200
 30
0.0
 10
186.383200
 20
135.991200
 30
0.0
 10
188.191200
 20
136.782400
 30
0.0
 10
189.647200
 20
138.410400
 30
0.0
  0
SPLINE
  5
142
100
AcDbEntity
  8
0
 62
7
100
AcDbSpline
 70
8
 71
3
 72
8
 73
4
 74
0
 40
0
 40
0
 40
0
 40
0
 40
1
 40
1
 40
1
 40
1
 10
189.647200
 20
138.410400
 30
0.0
 10
190.179200
 20
139.001600
 30
0.0
 10
191.367200
 20
139.004800
 30
0.0
 10
192.431200
 20
139.334400
 30
0.0
  0
SPLINE
  5
143
100
AcDbEntity
  8
0
 62
7
100
AcDbSpline
 70
8
 71
3
 72
8
 73
4
 74
0
 40
0
 40
0
 40
0
 40
0
 40
1
 40
1
 40
1
 40
1
 10
192.431200
 20
139.334400
 30
0.0
 10
193.305600
 20
137.417600
 30
0.0
 10
193.090400
 20
137.192800
 30
0.0
 10
191.259200
 20
136.305600
 30
0.0
  0
SPLINE
  5
144
100
AcDbEntity
  8
0
 62
7
100
AcDbSpline
 70
8
 71
3
 72
8
 73
4
 74
0
 40
0
 40
0
 40
0
 40
0
 40
1
 40
1
 40
1
 40
1
 10
191.259200
 20
136.305600
 30
0.0
 10
187.293600
 20
134.386400
 30
0.0
 10
183.321600
 20
132.222400
 30
0.0
 10
181.176800
 20
128.223200
 30
0.0
  0
SPLINE
  5
145
100
AcDbEntity
  8
0
 62
7
100
AcDbSpline
 70
8
 71
3
 72
8
 73
4
 74
0
 40
0
 40
0
 40
0
 40
0
 40
1
 40
1
 40
1
 40
1
 10
181.176800
 20
128.223200
 30
0.0
 10
180.367200
 20
126.712000
 30
0.0
 10
180.586400
 20
124.309600
 30
0.0
 10
181.095200
 20
122.528000
 30
0.0
  0
SPLINE
  5
146
100
AcDbEntity
  8
0
 62
7
100
AcDbSpline
 70
8
 71
3
 72
8
 73
4
 74
0
 40
0
 40
0
 40
0
 40
0
 40
1
 40
1
 40
1
 40
1
 10
181.095200
 20
122.528000
 30
0.0
 10
181.545600
 20
120.951200
 30
0.0
 10
182.978400
 20
119.616000
 30
0.0
 10
184.097600
 20
118.278400
 30
0.0
  0
SPLINE
  5
147
100
AcDbEntity
  8
0
 62
7
100
AcDbSpline
 70
8
 71
3
 72
8
 73
4
 74
0
 40
0
 40
0
 40
0
 40
0
 40
1
 40
1
 40
1
 40
1
 10
184.097600
 20
118.278400
 30
0.0
 10
185.729600
 20
116.326400
 30
0.0
 10
189.823200
 20
116.176000
 30
0.0
 10
192.032000
 20
117.136000
 30
0.0
  0
SPLINE
  5
148
100
AcDbEntity
  8
0
 62
7
100
AcDbSpline
 70
8
 71
3
 72
8
 73
4
 74
0
 40
0
 40
0
 40
0
 40
0
 40
1
 40
1
 40
1
 40
1
 10
192.032000
 20
117.136000
 30
0.0
 10
194.591200
 20
118.248800
 30
0.0
 10
196.105600
 20
120.308800
 30
0.0
 10
197.875200
 20
122.152800
 30
0.0
  0
SPLINE
  5
149
100
AcDbEntity
  8
0
 62
7
100
AcDbSpline
 70
8
 71
3
 72
8
 73
4
 74
0
 40
0
 40
0
 40
0
 40
0
 40
1
 40
1
 40
1
 40
1
 10
197.875200
 20
122.152800
 30
0.0
 10
198.622400
 20
122.933600
 30
0.0
 10
199.024000
 20
124.101600
 30
0.0
 10
199.405600
 20
125.156000
 30
0.0
  0
SPLINE
  5
14a
100
AcDbEntity
  8
0
 62
7
100
AcDbSpline
 70
8
 71
3
 72
8
 73
4
 74
0
 40
0
 40
0
 40
0
 40
0
 40
1
 40
1
 40
1
 40
1
 10
199.405600
 20
125.156000
 30
0.0
 10
199.915200
 20
126.556000
 30
0.0
 10
200.254400
 20
128.018400
 30
0.0
 10
200.636000
 20
129.349600
 30
0.0
  0
SPLINE
  5
14b
100
AcDbEntity
  8
0
 62
7
100
AcDbSpline
 70
8
 71
3
 72
8
 73
4
 74
0
 40
0
 40
0
 40
0
 40
0
 40
1
 40
1
 40
1
 40
1
 10
200.636000
 20
129.349600
 30
0.0
 10
201.703200
 20
129.075200
 30
0.0
 10
202.451200
 20
128.788800
 30
0.0
 10
203.220800
 20
128.710400
 30
0.0
  0
SPLINE
  5
14c
100
AcDbEntity
  8
0
 62
7
100
AcDbSpline
 70
8
 71
3
 72
8
 73
4
 74
0
 40
0
 40
0
 40
0
 40
0
 40
1
 40
1
 40
1
 40
1
 10
203.220800
 20
128.710400
 30
0.0
 10
203.567200
 20
128.674400
 30
0.0
 10
203.867200
 20
128.592800
 30
0.0
 10
204.121600
 20
128.475200
 30
0.0
  0
SPLINE
  5
14d
100
AcDbEntity
  8
0
 62
7
100
AcDbSpline
 70
8
 71
3
 72
8
 73
4
 74
0
 40
0
 40
0
 40
0
 40
0
 40
1
 40
1
 40
1
 40
1
 10
204.121600
 20
128.475200
 30
0.0
 10
203.905600
 20
125.978400
 30
0.0
 10
203.922400
 20
123.464800
 30
0.0
 10
204.228800
 20
120.993600
 30
0.0
  0
SPLINE
  5
14e
100
AcDbEntity
  8
0
 62
7
100
AcDbSpline
 70
8
 71
3
 72
8
 73
4
 74
0
 40
0
 40
0
 40
0
 40
0
 40
1
 40
1
 40
1
 40
1
 10
204.228800
 20
120.993600
 30
0.0
 10
204.304000
 20
120.396000
 30
0.0
 10
204.395200
 20
119.782400
 30
0.0
 10
204.506400
 20
119.162400
 30
0.0
  0
SPLINE
  5
14f
100
AcDbEntity
  8
0
 62
7
100
AcDbSpline
 70
8
 71
3
 72
8
 73
4
 74
0
 40
0
 40
0
 40
0
 40
0
 40
1
 40
1
 40
1
 40
1
 10
204.506400
 20
119.162400
 30
0.0
 10
204.526400
 20
119.025600
 30
0.0
 10
204.542400
 20
118.888000
 30
0.0
 10
204.558400
 20
118.751200
 30
0.0
  0
SPLINE
  5
150
100
AcDbEntity
  8
0
 62
7
100
AcDbSpline
 70
8
 71
3
 72
8
 73
4
 74
0
 40
0
 40
0
 40
0
 40
0
 40
1
 40
1
 40
1
 40
1
 10
204.558400
 20
118.751200
 30
0.0
 10
204.572000
 20
118.643200
 30
0.0
 10
204.608000
 20
118.535200
 30
0.0
 10
204.649600
 20
118.431200
 30
0.0
  0
SPLINE
  5
151
100
AcDbEntity
  8
0
 62
7
100
AcDbSpline
 70
8
 71
3
 72
8
 73
4
 74
0
 40
0
 40
0
 40
0
 40
0
 40
1
 40
1
 40
1
 40
1
 10
204.649600
 20
118.431200
 30
0.0
 10
204.757600
 20
117.925600
 30
0.0
 10
204.881600
 20
117.419200
 30
0.0
 10
205.024800
 20
116.920000
 30
0.0
  0
SPLINE
  5
152
100
AcDbEntity
  8
0
 62
7
100
AcDbSpline
 70
8
 71
3
 72
8
 73
4
 74
0
 40
0
 40
0
 40
0
 40
0
 40
1
 40
1
 40
1
 40
1
 10
205.024800
 20
116.920000
 30
0.0
 10
205.188000
 20
115.872000
 30
0.0
 10
205.576000
 20
114.971200
 30
0.0
 10
206.095200
 20
114.148800
 30
0.0
  0
SPLINE
  5
153
100
AcDbEntity
  8
0
 62
7
100
AcDbSpline
 70
8
 71
3
 72
8
 73
4
 74
0
 40
0
 40
0
 40
0
 40
0
 40
1
 40
1
 40
1
 40
1
 10
206.095200
 20
114.148800
 30
0.0
 10
206.793600
 20
112.794400
 30
0.0
 10
207.733600
 20
111.608800
 30
0.0
 10
209.006400
 20
110.773600
 30
0.0
  0
SPLINE
  5
154
100
AcDbEntity
  8
0
 62
7
100
AcDbSpline
 70
8
 71
3
 72
8
 73
4
 74
0
 40
0
 40
0
 40
0
 40
0
 40
1
 40
1
 40
1
 40
1
 10
209.006400
 20
110.773600
 30
0.0
 10
209.248000
 20
110.522400
 30
0.0
 10
209.489600
 20
110.267200
 30
0.0
 10
209.724800
 20
110.009600
 30
0.0
  0
SPLINE
  5
155
100
AcDbEntity
  8
0
 62
7
100
AcDbSpline
 70
8
 71
3
 72
8
 73
4
 74
0
 40
0
 40
0
 40
0
 40
0
 40
1
 40
1
 40
1
 40
1
 10
209.724800
 20
110.009600
 30
0.0
 10
209.920800
 20
110.061600
 30
0.0
 10
210.112800
 20
110.084800
 30
0.0
 10
210.299200
 20
110.094400
 30
0.0
  0
SPLINE
  5
156
100
AcDbEntity
  8
0
 62
7
100
AcDbSpline
 70
8
 71
3
 72
8
 73
4
 74
0
 40
0
 40
0
 40
0
 40
0
 40
1
 40
1
 40
1
 40
1
 10
210.299200
 20
110.094400
 30
0.0
 10
210.622400
 20
109.964000
 30
0.0
 10
210.958400
 20
109.849600
 30
0.0
 10
211.314400
 20
109.761600
 30
0.0
  0
SPLINE
  5
157
100
AcDbEntity
  8
0
 62
7
100
AcDbSpline
 70
8
 71
3
 72
8
 73
4
 74
0
 40
0
 40
0
 40
0
 40
0
 40
1
 40
1
 40
1
 40
1
 10
211.314400
 20
109.761600
 30
0.0
 10
211.791200
 20
109.640800
 30
0.0
 10
212.264000
 20
109.565600
 30
0.0
 10
212.728000
 20
109.529600
 30
0.0
  0
SPLINE
  5
158
100
AcDbEntity
  8
0
 62
7
100
AcDbSpline
 70
8
 71
3
 72
8
 73
4
 74
0
 40
0
 40
0
 40
0
 40
0
 40
1
 40
1
 40
1
 40
1
 10
212.728000
 20
109.529600
 30
0.0
 10
213.586400
 20
109.248800
 30
0.0
 10
214.510400
 20
109.049600
 30
0.0
 10
215.662400
 20
109.441600
 30
0.0
  0
SPLINE
  5
159
100
AcDbEntity
  8
0
 62
7
100
AcDbSpline
 70
8
 71
3
 72
8
 73
4
 74
0
 40
0
 40
0
 40
0
 40
0
 40
1
 40
1
 40
1
 40
1
 10
215.662400
 20
109.441600
 30
0.0
 10
218.753600
 20
110.489600
 30
0.0
 10
221.008800
 20
112.386400
 30
0.0
 10
222.229600
 20
114.651200
 30
0.0
  0
SPLINE
  5
15a
100
AcDbEntity
  8
0
 62
7
100
AcDbSpline
 70
8
 71
3
 72
8
 73
4
 74
0
 40
0
 40
0
 40
0
 40
0
 40
1
 40
1
 40
1
 40
1
 10
222.229600
 20
114.651200
 30
0.0
 10
223.545600
 20
117.092800
 30
0.0
 10
224.860800
 20
120.099200
 30
0.0
 10
223.012800
 20
123.468000
 30
0.0
  0
SPLINE
  5
15b
100
AcDbEntity
  8
0
 62
7
100
AcDbSpline
 70
8
 71
3
 72
8
 73
4
 74
0
 40
0
 40
0
 40
0
 40
0
 40
1
 40
1
 40
1
 40
1
 10
223.012800
 20
123.468000
 30
0.0
 10
221.808000
 20
125.668000
 30
0.0
 10
220.323200
 20
127.240800
 30
0.0
 10
218.449600
 20
128.657600
 30
0.0
  0
SPLINE
  5
15c
100
AcDbEntity
  8
0
 62
7
100
AcDbSpline
 70
8
 71
3
 72
8
 73
4
 74
0
 40
0
 40
0
 40
0
 40
0
 40
1
 40
1
 40
1
 40
1
 10
218.449600
 20
128.657600
 30
0.0
 10
216.879200
 20
129.841600
 30
0.0
 10
216.690400
 20
131.934400
 30
0.0
 10
217.972800
 20
133.491200
 30
0.0
  0
SPLINE
  5
15d
100
AcDbEntity
  8
0
 62
7
100
AcDbSpline
 70
8
 71
3
 72
8
 73
4
 74
0
 40
0
 40
0
 40
0
 40
0
 40
1
 40
1
 40
1
 40
1
 10
217.972800
 20
133.491200
 30
0.0
 10
218.136000
 20
133.687200
 30
0.0
 10
218.279200
 20
133.903200
 30
0.0
 10
218.416800
 20
134.121600
 30
0.0
  0
SPLINE
  5
15e
100
AcDbEntity
  8
0
 62
7
100
AcDbSpline
 70
8
 71
3
 72
8
 73
4
 74
0
 40
0
 40
0
 40
0
 40
0
 40
1
 40
1
 40
1
 40
1
 10
218.416800
 20
134.121600
 30
0.0
 10
219.180800
 20
134.512800
 30
0.0
 10
219.813600
 20
135.198400
 30
0.0
 10
220.147200
 20
136.200800
 30
0.0
  0
SPLINE
  5
15f
100
AcDbEntity
  8
0
 62
7
100
AcDbSpline
 70
8
 71
3
 72
8
 73
4
 74
0
 40
0
 40
0
 40
0
 40
0
 40
1
 40
1
 40
1
 40
1
 10
220.147200
 20
136.200800
 30
0.0
 10
220.538400
 20
136.406400
 30
0.0
 10
220.989600
 20
136.530400
 30
0.0
 10
221.318400
 20
136.455200
 30
0.0
  0
SPLINE
  5
160
100
AcDbEntity
  8
0
 62
7
100
AcDbSpline
 70
8
 71
3
 72
8
 73
4
 74
0
 40
0
 40
0
 40
0
 40
0
 40
1
 40
1
 40
1
 40
1
 10
221.318400
 20
136.455200
 30
0.0
 10
223.772800
 20
135.909600
 30
0.0
 10
226.166400
 20
135.077600
 30
0.0
 10
228.630400
 20
134.568800
 30
0.0
  0
SPLINE
  5
161
100
AcDbEntity
  8
0
 62
7
100
AcDbSpline
 70
8
 71
3
 72
8
 73
4
 74
0
 40
0
 40
0
 40
0
 40
0
 40
1
 40
1
 40
1
 40
1
 10
228.630400
 20
134.568800
 30
0.0
 10
230.171200
 20
134.252000
 30
0.0
 10
231.796800
 20
134.360000
 30
0.0
 10
233.380000
 20
134.219200
 30
0.0
  0
SPLINE
  5
162
100
AcDbEntity
  8
0
 62
7
100
AcDbSpline
 70
8
 71
3
 72
8
 73
4
 74
0
 40
0
 40
0
 40
0
 40
0
 40
1
 40
1
 40
1
 40
1
 10
233.380000
 20
134.219200
 30
0.0
 10
235.864000
 20
134.000800
 30
0.0
 10
238.044000
 20
134.757600
 30
0.0
 10
239.719200
 20
136.530400
 30
0.0
  0
SPLINE
  5
163
100
AcDbEntity
  8
0
 62
7
100
AcDbSpline
 70
8
 71
3
 72
8
 73
4
 74
0
 40
0
 40
0
 40
0
 40
0
 40
1
 40
1
 40
1
 40
1
 10
239.719200
 20
136.530400
 30
0.0
 10
240.540800
 20
137.398400
 30
0.0
 10
241.252800
 20
138.612800
 30
0.0
 10
241.462400
 20
139.772000
 30
0.0
  0
SPLINE
  5
164
100
AcDbEntity
  8
0
 62
7
100
AcDbSpline
 70
8
 71
3
 72
8
 73
4
 74
0
 40
0
 40
0
 40
0
 40
0
 40
1
 40
1
 40
1
 40
1
 10
241.462400
 20
139.772000
 30
0.0
 10
241.776000
 20
141.501600
 30
0.0
 10
241.712800
 20
143.325600
 30
0.0
 10
241.618400
 20
145.101600
 30
0.0
  0
SPLINE
  5
165
100
AcDbEntity
  8
0
 62
7
100
AcDbSpline
 70
8
 71
3
 72
8
 73
4
 74
0
 40
0
 40
0
 40
0
 40
0
 40
1
 40
1
 40
1
 40
1
 10
241.618400
 20
145.101600
 30
0.0
 10
241.426400
 20
148.652800
 30
0.0
 10
239.298400
 20
150.706400
 30
0.0
 10
236.040000
 20
152.145600
 30
0.0
  0
SPLINE
  5
166
100
AcDbEntity
  8
0
 62
7
100
AcDbSpline
 70
8
 71
3
 72
8
 73
4
 74
0
 40
0
 40
0
 40
0
 40
0
 40
1
 40
1
 40
1
 40
1
 10
236.040000
 20
152.145600
 30
0.0
 10
233.918400
 20
153.085600
 30
0.0
 10
231.914400
 20
153.108000
 30
0.0
 10
229.855200
 20
152.932000
 30
0.0
  0
SPLINE
  5
167
100
AcDbEntity
  8
0
 62
7
100
AcDbSpline
 70
8
 71
3
 72
8
 73
4
 74
0
 40
0
 40
0
 40
0
 40
0
 40
1
 40
1
 40
1
 40
1
 10
229.855200
 20
152.932000
 30
0.0
 10
228.536800
 20
152.817600
 30
0.0
 10
227.270400
 20
152.012000
 30
0.0
 10
225.997600
 20
151.476800
 30
0.0
  0
SPLINE
  5
168
100
AcDbEntity
  8
0
 62
7
100
AcDbSpline
 70
8
 71
3
 72
8
 73
4
 74
0
 40
0
 40
0
 40
0
 40
0
 40
1
 40
1
 40
1
 40
1
 10
225.997600
 20
151.476800
 30
0.0
 10
225.377600
 20
151.215200
 30
0.0
 10
224.796000
 20
150.872800
 30
0.0
 10
224.238400
 20
150.585600
 30
0.0
  0
SPLINE
  5
169
100
AcDbEntity
  8
0
 62
7
100
AcDbSpline
 70
8
 71
3
 72
8
 73
4
 74
0
 40
0
 40
0
 40
0
 40
0
 40
1
 40
1
 40
1
 40
1
 10
224.238400
 20
150.585600
 30
0.0
 10
222.788800
 20
153.432000
 30
0.0
 10
222.201600
 20
156.274400
 30
0.0
 10
220.686400
 20
158.836800
 30
0.0
  0
SPLINE
  5
16a
100
AcDbEntity
  8
0
 62
7
100
AcDbSpline
 70
8
 71
3
 72
8
 73
4
 74
0
 40
0
 40
0
 40
0
 40
0
 40
1
 40
1
 40
1
 40
1
 10
220.686400
 20
158.836800
 30
0.0
 10
219.884000
 20
160.191200
 30
0.0
 10
219.769600
 20
162.567200
 30
0.0
 10
221.287200
 20
164.408000
 30
0.0
  0
SPLINE
  5
16b
100
AcDbEntity
  8
0
 62
7
100
AcDbSpline
 70
8
 71
3
 72
8
 73
4
 74
0
 40
0
 40
0
 40
0
 40
0
 40
1
 40
1
 40
1
 40
1
 10
221.287200
 20
164.408000
 30
0.0
 10
222.717600
 20
166.148000
 30
0.0
 10
223.673600
 20
168.269600
 30
0.0
 10
224.972800
 20
170.129600
 30
0.0
  0
SPLINE
  5
16c
100
AcDbEntity
  8
0
 62
7
100
AcDbSpline
 70
8
 71
3
 72
8
 73
4
 74
0
 40
0
 40
0
 40
0
 40
0
 40
1
 40
1
 40
1
 40
1
 10
224.972800
 20
170.129600
 30
0.0
 10
226.242400
 20
171.947200
 30
0.0
 10
227.760000
 20
173.589600
 30
0.0
 10
229.016800
 20
175.413600
 30
0.0
  0
SPLINE
  5
16d
100
AcDbEntity
  8
0
 62
7
100
AcDbSpline
 70
8
 71
3
 72
8
 73
4
 74
0
 40
0
 40
0
 40
0
 40
0
 40
1
 40
1
 40
1
 40
1
 10
229.016800
 20
175.413600
 30
0.0
 10
230.008800
 20
176.856800
 30
0.0
 10
230.776000
 20
178.452800
 30
0.0
 10
231.640800
 20
179.984000
 30
0.0
  0
SPLINE
  5
16e
100
AcDbEntity
  8
0
 62
7
100
AcDbSpline
 70
8
 71
3
 72
8
 73
4
 74
0
 40
0
 40
0
 40
0
 40
0
 40
1
 40
1
 40
1
 40
1
 10
231.640800
 20
179.984000
 30
0.0
 10
232.624000
 20
181.720000
 30
0.0
 10
233.844000
 20
183.374400
 30
0.0
 10
234.506400
 20
185.228800
 30
0.0
  0
SPLINE
  5
16f
100
AcDbEntity
  8
0
 62
7
100
AcDbSpline
 70
8
 71
3
 72
8
 73
4
 74
0
 40
0
 40
0
 40
0
 40
0
 40
1
 40
1
 40
1
 40
1
 10
234.506400
 20
185.228800
 30
0.0
 10
235.042400
 20
186.724000
 30
0.0
 10
234.967200
 20
188.456800
 30
0.0
 10
235.032000
 20
190.088800
 30
0.0
  0
SPLINE
  5
170
100
AcDbEntity
  8
0
 62
7
100
AcDbSpline
 70
8
 71
3
 72
8
 73
4
 74
0
 40
0
 40
0
 40
0
 40
0
 40
1
 40
1
 40
1
 40
1
 10
235.032000
 20
190.088800
 30
0.0
 10
235.081600
 20
191.374400
 30
0.0
 10
235.286400
 20
192.828000
 30
0.0
 10
234.793600
 20
193.920800
 30
0.0
  0
SPLINE
  5
171
100
AcDbEntity
  8
0
 62
7
100
AcDbSpline
 70
8
 71
3
 72
8
 73
4
 74
0
 40
0
 40
0
 40
0
 40
0
 40
1
 40
1
 40
1
 40
1
 10
234.793600
 20
193.920800
 30
0.0
 10
233.740000
 20
196.261600
 30
0.0
 10
234.010400
 20
198.944000
 30
0.0
 10
232.110400
 20
201.154400
 30
0.0
  0
SPLINE
  5
172
100
AcDbEntity
  8
0
 62
7
100
AcDbSpline
 70
8
 71
3
 72
8
 73
4
 74
0
 40
0
 40
0
 40
0
 40
0
 40
1
 40
1
 40
1
 40
1
 10
232.110400
 20
201.154400
 30
0.0
 10
230.517600
 20
203.008000
 30
0.0
 10
228.996000
 20
204.940000
 30
0.0
 10
227.034400
 20
206.314400
 30
0.0
  0
SPLINE
  5
173
100
AcDbEntity
  8
0
 62
7
100
AcDbSpline
 70
8
 71
3
 72
8
 73
4
 74
0
 40
0
 40
0
 40
0
 40
0
 40
1
 40
1
 40
1
 40
1
 10
227.034400
 20
206.314400
 30
0.0
 10
224.328800
 20
208.210400
 30
0.0
 10
222.070400
 20
210.711200
 30
0.0
 10
218.851200
 20
211.964000
 30
0.0
  0
SPLINE
  5
174
100
AcDbEntity
  8
0
 62
7
100
AcDbSpline
 70
8
 71
3
 72
8
 73
4
 74
0
 40
0
 40
0
 40
0
 40
0
 40
1
 40
1
 40
1
 40
1
 10
218.851200
 20
211.964000
 30
0.0
 10
215.783200
 20
213.161600
 30
0.0
 10
212.878400
 20
214.796800
 30
0.0
 10
209.936800
 20
216.312000
 30
0.0
  0
SPLINE
  5
175
100
AcDbEntity
  8
0
 62
7
100
AcDbSpline
 70
8
 71
3
 72
8
 73
4
 74
0
 40
0
 40
0
 40
0
 40
0
 40
1
 40
1
 40
1
 40
1
 10
209.936800
 20
216.312000
 30
0.0
 10
208.144800
 20
217.232000
 30
0.0
 10
206.421600
 20
218.283200
 30
0.0
 10
204.668800
 20
219.279200
 30
0.0
  0
SPLINE
  5
176
100
AcDbEntity
  8
0
 62
7
100
AcDbSpline
 70
8
 71
3
 72
8
 73
4
 74
0
 40
0
 40
0
 40
0
 40
0
 40
1
 40
1
 40
1
 40
1
 10
204.668800
 20
219.279200
 30
0.0
 10
204.616800
 20
219.308000
 30
0.0
 10
204.560800
 20
219.340800
 30
0.0
 10
204.502400
 20
219.354400
 30
0.0
  0
SPLINE
  5
177
100
AcDbEntity
  8
0
 62
7
100
AcDbSpline
 70
8
 71
3
 72
8
 73
4
 74
0
 40
0
 40
0
 40
0
 40
0
 40
1
 40
1
 40
1
 40
1
 10
204.502400
 20
219.354400
 30
0.0
 10
202.884000
 20
219.788800
 30
0.0
 10
201.264800
 20
220.219200
 30
0.0
 10
199.104000
 20
220.793600
 30
0.0
  0
SPLINE
  5
178
100
AcDbEntity
  8
0
 62
7
100
AcDbSpline
 70
8
 71
3
 72
8
 73
4
 74
0
 40
0
 40
0
 40
0
 40
0
 40
1
 40
1
 40
1
 40
1
 10
199.104000
 20
220.793600
 30
0.0
 10
199.776000
 20
222.207200
 30
0.0
 10
200.154400
 20
223.692000
 30
0.0
 10
201.049600
 20
224.730400
 30
0.0
  0
SPLINE
  5
179
100
AcDbEntity
  8
0
 62
7
100
AcDbSpline
 70
8
 71
3
 72
8
 73
4
 74
0
 40
0
 40
0
 40
0
 40
0
 40
1
 40
1
 40
1
 40
1
 10
201.049600
 20
224.730400
 30
0.0
 10
202.730400
 20
226.676000
 30
0.0
 10
204.251200
 20
228.950400
 30
0.0
 10
206.832800
 20
229.835200
 30
0.0
  0
SPLINE
  5
17a
100
AcDbEntity
  8
0
 62
7
100
AcDbSpline
 70
8
 71
3
 72
8
 73
4
 74
0
 40
0
 40
0
 40
0
 40
0
 40
1
 40
1
 40
1
 40
1
 10
206.832800
 20
229.835200
 30
0.0
 10
209.985600
 20
230.916000
 30
0.0
 10
213.112800
 20
232.788800
 30
0.0
 10
216.588800
 20
230.782400
 30
0.0
  0
SPLINE
  5
17b
100
AcDbEntity
  8
0
 62
7
100
AcDbSpline
 70
8
 71
3
 72
8
 73
4
 74
0
 40
0
 40
0
 40
0
 40
0
 40
1
 40
1
 40
1
 40
1
 10
216.588800
 20
230.782400
 30
0.0
 10
216.791200
 20
230.664800
 30
0.0
 10
217.065600
 20
230.677600
 30
0.0
 10
217.306400
 20
230.635200
 30
0.0
  0
SPLINE
  5
17c
100
AcDbEntity
  8
0
 62
7
100
AcDbSpline
 70
8
 71
3
 72
8
 73
4
 74
0
 40
0
 40
0
 40
0
 40
0
 40
1
 40
1
 40
1
 40
1
 10
217.306400
 20
230.635200
 30
0.0
 10
219.809600
 20
230.223200
 30
0.0
 10
222.340000
 20
229.943200
 30
0.0
 10
224.800800
 20
229.358400
 30
0.0
  0
SPLINE
  5
17d
100
AcDbEntity
  8
0
 62
7
100
AcDbSpline
 70
8
 71
3
 72
8
 73
4
 74
0
 40
0
 40
0
 40
0
 40
0
 40
1
 40
1
 40
1
 40
1
 10
224.800800
 20
229.358400
 30
0.0
 10
226.472800
 20
228.964000
 30
0.0
 10
228.039200
 20
228.141600
 30
0.0
 10
229.654400
 20
227.514400
 30
0.0
  0
SPLINE
  5
17e
100
AcDbEntity
  8
0
 62
7
100
AcDbSpline
 70
8
 71
3
 72
8
 73
4
 74
0
 40
0
 40
0
 40
0
 40
0
 40
1
 40
1
 40
1
 40
1
 10
229.654400
 20
227.514400
 30
0.0
 10
229.824000
 20
227.448800
 30
0.0
 10
230.000800
 20
227.396800
 30
0.0
 10
230.176800
 20
227.360800
 30
0.0
  0
SPLINE
  5
17f
100
AcDbEntity
  8
0
 62
7
100
AcDbSpline
 70
8
 71
3
 72
8
 73
4
 74
0
 40
0
 40
0
 40
0
 40
0
 40
1
 40
1
 40
1
 40
1
 10
230.176800
 20
227.360800
 30
0.0
 10
232.464000
 20
226.933600
 30
0.0
 10
234.847200
 20
226.789600
 30
0.0
 10
237.017600
 20
226.036000
 30
0.0
  0
SPLINE
  5
180
100
AcDbEntity
  8
0
 62
7
100
AcDbSpline
 70
8
 71
3
 72
8
 73
4
 74
0
 40
0
 40
0
 40
0
 40
0
 40
1
 40
1
 40
1
 40
1
 10
237.017600
 20
226.036000
 30
0.0
 10
242.344800
 20
224.179200
 30
0.0
 10
247.782400
 20
225.207200
 30
0.0
 10
253.171200
 20
225.060000
 30
0.0
  0
SPLINE
  5
181
100
AcDbEntity
  8
0
 62
7
100
AcDbSpline
 70
8
 71
3
 72
8
 73
4
 74
0
 40
0
 40
0
 40
0
 40
0
 40
1
 40
1
 40
1
 40
1
 10
253.171200
 20
225.060000
 30
0.0
 10
256.167200
 20
224.977600
 30
0.0
 10
258.981600
 20
225.918400
 30
0.0
 10
261.706400
 20
227.136000
 30
0.0
  0
SPLINE
  5
182
100
AcDbEntity
  8
0
 62
7
100
AcDbSpline
 70
8
 71
3
 72
8
 73
4
 74
0
 40
0
 40
0
 40
0
 40
0
 40
1
 40
1
 40
1
 40
1
 10
261.706400
 20
227.136000
 30
0.0
 10
263.587200
 20
227.975200
 30
0.0
 10
265.548800
 20
228.640800
 30
0.0
 10
267.389600
 20
229.557600
 30
0.0
  0
SPLINE
  5
183
100
AcDbEntity
  8
0
 62
7
100
AcDbSpline
 70
8
 71
3
 72
8
 73
4
 74
0
 40
0
 40
0
 40
0
 40
0
 40
1
 40
1
 40
1
 40
1
 10
267.389600
 20
229.557600
 30
0.0
 10
268.202400
 20
229.962400
 30
0.0
 10
268.772800
 20
230.824000
 30
0.0
 10
269.501600
 20
231.424800
 30
0.0
  0
SPLINE
  5
184
100
AcDbEntity
  8
0
 62
7
100
AcDbSpline
 70
8
 71
3
 72
8
 73
4
 74
0
 40
0
 40
0
 40
0
 40
0
 40
1
 40
1
 40
1
 40
1
 10
269.501600
 20
231.424800
 30
0.0
 10
270.213600
 20
232.015200
 30
0.0
 10
270.912000
 20
232.628800
 30
0.0
 10
271.616800
 20
233.232800
 30
0.0
  0
SPLINE
  5
185
100
AcDbEntity
  8
0
 62
7
100
AcDbSpline
 70
8
 71
3
 72
8
 73
4
 74
0
 40
0
 40
0
 40
0
 40
0
 40
1
 40
1
 40
1
 40
1
 10
271.616800
 20
233.232800
 30
0.0
 10
272.710400
 20
233.761600
 30
0.0
 10
273.797600
 20
234.326400
 30
0.0
 10
274.877600
 20
234.936800
 30
0.0
  0
SPLINE
  5
186
100
AcDbEntity
  8
0
 62
7
100
AcDbSpline
 70
8
 71
3
 72
8
 73
4
 74
0
 40
0
 40
0
 40
0
 40
0
 40
1
 40
1
 40
1
 40
1
 10
274.877600
 20
234.936800
 30
0.0
 10
275.295200
 20
235.175200
 30
0.0
 10
275.713600
 20
235.420000
 30
0.0
 10
276.127200
 20
235.668000
 30
0.0
  0
SPLINE
  5
187
100
AcDbEntity
  8
0
 62
7
100
AcDbSpline
 70
8
 71
3
 72
8
 73
4
 74
0
 40
0
 40
0
 40
0
 40
0
 40
1
 40
1
 40
1
 40
1
 10
276.127200
 20
235.668000
 30
0.0
 10
275.243200
 20
229.887200
 30
0.0
 10
274.234400
 20
224.123200
 30
0.0
 10
273.111200
 20
218.382400
 30
0.0
  0
SPLINE
  5
188
100
AcDbEntity
  8
0
 62
7
100
AcDbSpline
 70
8
 71
3
 72
8
 73
4
 74
0
 40
0
 40
0
 40
0
 40
0
 40
1
 40
1
 40
1
 40
1
 10
273.111200
 20
218.382400
 30
0.0
 10
272.830400
 20
216.949600
 30
0.0
 10
272.540000
 20
215.516800
 30
0.0
 10
272.246400
 20
214.087200
 30
0.0
  0
SPLINE
  5
189
100
AcDbEntity
  8
0
 62
7
100
AcDbSpline
 70
8
 71
3
 72
8
 73
4
 74
0
 40
0
 40
0
 40
0
 40
0
 40
1
 40
1
 40
1
 40
1
 10
272.246400
 20
214.087200
 30
0.0
 10
272.036800
 20
213.604000
 30
0.0
 10
271.825600
 20
213.117600
 30
0.0
 10
271.626400
 20
212.631200
 30
0.0
  0
SPLINE
  5
18a
100
AcDbEntity
  8
0
 62
7
100
AcDbSpline
 70
8
 71
3
 72
8
 73
4
 74
0
 40
0
 40
0
 40
0
 40
0
 40
1
 40
1
 40
1
 40
1
 10
271.626400
 20
212.631200
 30
0.0
 10
271.080800
 20
211.300000
 30
0.0
 10
270.790400
 20
209.864000
 30
0.0
 10
270.304800
 20
208.502400
 30
0.0
  0
SPLINE
  5
18b
100
AcDbEntity
  8
0
 62
7
100
AcDbSpline
 70
8
 71
3
 72
8
 73
4
 74
0
 40
0
 40
0
 40
0
 40
0
 40
1
 40
1
 40
1
 40
1
 10
270.304800
 20
208.502400
 30
0.0
 10
269.759200
 20
206.981600
 30
0.0
 10
269.100000
 20
205.499200
 30
0.0
 10
268.528800
 20
203.985600
 30
0.0
  0
SPLINE
  5
18c
100
AcDbEntity
  8
0
 62
7
100
AcDbSpline
 70
8
 71
3
 72
8
 73
4
 74
0
 40
0
 40
0
 40
0
 40
0
 40
1
 40
1
 40
1
 40
1
 10
268.528800
 20
203.985600
 30
0.0
 10
268.343200
 20
203.489600
 30
0.0
 10
268.280800
 20
202.950400
 30
0.0
 10
268.146400
 20
202.435200
 30
0.0
  0
SPLINE
  5
18d
100
AcDbEntity
  8
0
 62
7
100
AcDbSpline
 70
8
 71
3
 72
8
 73
4
 74
0
 40
0
 40
0
 40
0
 40
0
 40
1
 40
1
 40
1
 40
1
 10
268.146400
 20
202.435200
 30
0.0
 10
267.863200
 20
201.352000
 30
0.0
 10
267.542400
 20
200.278400
 30
0.0
 10
267.284800
 20
199.187200
 30
0.0
  0
SPLINE
  5
18e
100
AcDbEntity
  8
0
 62
7
100
AcDbSpline
 70
8
 71
3
 72
8
 73
4
 74
0
 40
0
 40
0
 40
0
 40
0
 40
1
 40
1
 40
1
 40
1
 10
267.284800
 20
199.187200
 30
0.0
 10
267.187200
 20
198.779200
 30
0.0
 10
267.030400
 20
198.236800
 30
0.0
 10
267.206400
 20
197.931200
 30
0.0
  0
SPLINE
  5
18f
100
AcDbEntity
  8
0
 62
7
100
AcDbSpline
 70
8
 71
3
 72
8
 73
4
 74
0
 40
0
 40
0
 40
0
 40
0
 40
1
 40
1
 40
1
 40
1
 10
267.206400
 20
197.931200
 30
0.0
 10
268.296800
 20
196.053600
 30
0.0
 10
269.229600
 20
193.997600
 30
0.0
 10
270.695200
 20
192.456800
 30
0.0
  0
SPLINE
  5
190
100
AcDbEntity
  8
0
 62
7
100
AcDbSpline
 70
8
 71
3
 72
8
 73
4
 74
0
 40
0
 40
0
 40
0
 40
0
 40
1
 40
1
 40
1
 40
1
 10
270.695200
 20
192.456800
 30
0.0
 10
271.903200
 20
191.187200
 30
0.0
 10
273.747200
 20
190.488800
 30
0.0
 10
275.359200
 20
189.640000
 30
0.0
  0
SPLINE
  5
191
100
AcDbEntity
  8
0
 62
7
100
AcDbSpline
 70
8
 71
3
 72
8
 73
4
 74
0
 40
0
 40
0
 40
0
 40
0
 40
1
 40
1
 40
1
 40
1
 10
275.359200
 20
189.640000
 30
0.0
 10
277.468000
 20
188.529600
 30
0.0
 10
279.600000
 20
187.449600
 30
0.0
 10
281.783200
 20
186.500000
 30
0.0
  0
SPLINE
  5
192
100
AcDbEntity
  8
0
 62
7
100
AcDbSpline
 70
8
 71
3
 72
8
 73
4
 74
0
 40
0
 40
0
 40
0
 40
0
 40
1
 40
1
 40
1
 40
1
 10
281.783200
 20
186.500000
 30
0.0
 10
283.111200
 20
185.921600
 30
0.0
 10
284.596800
 20
185.713600
 30
0.0
 10
285.934400
 20
185.158400
 30
0.0
  0
SPLINE
  5
193
100
AcDbEntity
  8
0
 62
7
100
AcDbSpline
 70
8
 71
3
 72
8
 73
4
 74
0
 40
0
 40
0
 40
0
 40
0
 40
1
 40
1
 40
1
 40
1
 10
285.934400
 20
185.158400
 30
0.0
 10
288.304000
 20
184.175200
 30
0.0
 10
290.628000
 20
183.078400
 30
0.0
 10
292.942400
 20
181.969600
 30
0.0
  0
SPLINE
  5
194
100
AcDbEntity
  8
0
 62
7
100
AcDbSpline
 70
8
 71
3
 72
8
 73
4
 74
0
 40
0
 40
0
 40
0
 40
0
 40
1
 40
1
 40
1
 40
1
 10
292.942400
 20
181.969600
 30
0.0
 10
293.239200
 20
181.828800
 30
0.0
 10
293.529600
 20
181.349600
 30
0.0
 10
293.552800
 20
181.009600
 30
0.0
  0
SPLINE
  5
195
100
AcDbEntity
  8
0
 62
7
100
AcDbSpline
 70
8
 71
3
 72
8
 73
4
 74
0
 40
0
 40
0
 40
0
 40
0
 40
1
 40
1
 40
1
 40
1
 10
293.552800
 20
181.009600
 30
0.0
 10
293.726400
 20
178.389600
 30
0.0
 10
295.103200
 20
176.414400
 30
0.0
 10
296.957600
 20
174.530400
 30
0.0
  0
SPLINE
  5
196
100
AcDbEntity
  8
0
 62
7
100
AcDbSpline
 70
8
 71
3
 72
8
 73
4
 74
0
 40
0
 40
0
 40
0
 40
0
 40
1
 40
1
 40
1
 40
1
 10
296.957600
 20
174.530400
 30
0.0
 10
295.874400
 20
173.456800
 30
0.0
 10
294.767200
 20
172.425600
 30
0.0
 10
293.732800
 20
171.321600
 30
0.0
  0
SPLINE
  5
197
100
AcDbEntity
  8
0
 62
7
100
AcDbSpline
 70
8
 71
3
 72
8
 73
4
 74
0
 40
0
 40
0
 40
0
 40
0
 40
1
 40
1
 40
1
 40
1
 10
293.732800
 20
171.321600
 30
0.0
 10
291.777600
 20
169.233600
 30
0.0
 10
291.138400
 20
166.716000
 30
0.0
 10
291.183200
 20
163.883200
 30
0.0
  0
SPLINE
  5
198
100
AcDbEntity
  8
0
 62
7
100
AcDbSpline
 70
8
 71
3
 72
8
 73
4
 74
0
 40
0
 40
0
 40
0
 40
0
 40
1
 40
1
 40
1
 40
1
 10
291.183200
 20
163.883200
 30
0.0
 10
291.222400
 20
161.542400
 30
0.0
 10
291.523200
 20
159.437600
 30
0.0
 10
293.745600
 20
158.141600
 30
0.0
  0
SPLINE
  5
199
100
AcDbEntity
  8
0
 62
7
100
AcDbSpline
 70
8
 71
3
 72
8
 73
4
 74
0
 40
0
 40
0
 40
0
 40
0
 40
1
 40
1
 40
1
 40
1
 10
293.745600
 20
158.141600
 30
0.0
 10
294.238400
 20
157.854400
 30
0.0
 10
294.796000
 20
157.537600
 30
0.0
 10
295.341600
 20
157.512000
 30
0.0
  0
SPLINE
  5
19a
100
AcDbEntity
  8
0
 62
7
100
AcDbSpline
 70
8
 71
3
 72
8
 73
4
 74
0
 40
0
 40
0
 40
0
 40
0
 40
1
 40
1
 40
1
 40
1
 10
295.341600
 20
157.512000
 30
0.0
 10
296.992800
 20
157.427200
 30
0.0
 10
298.654400
 20
157.462400
 30
0.0
 10
300.312800
 20
157.468800
 30
0.0
  0
SPLINE
  5
19b
100
AcDbEntity
  8
0
 62
7
100
AcDbSpline
 70
8
 71
3
 72
8
 73
4
 74
0
 40
0
 40
0
 40
0
 40
0
 40
1
 40
1
 40
1
 40
1
 10
300.312800
 20
157.468800
 30
0.0
 10
303.005600
 20
157.482400
 30
0.0
 10
304.314400
 20
159.629600
 30
0.0
 10
305.629600
 20
161.372800
 30
0.0
  0
SPLINE
  5
19c
100
AcDbEntity
  8
0
 62
7
100
AcDbSpline
 70
8
 71
3
 72
8
 73
4
 74
0
 40
0
 40
0
 40
0
 40
0
 40
1
 40
1
 40
1
 40
1
 10
305.629600
 20
161.372800
 30
0.0
 10
306.468000
 20
162.486400
 30
0.0
 10
306.478400
 20
164.248800
 30
0.0
 10
306.755200
 20
165.743200
 30
0.0
  0
SPLINE
  5
19d
100
AcDbEntity
  8
0
 62
7
100
AcDbSpline
 70
8
 71
3
 72
8
 73
4
 74
0
 40
0
 40
0
 40
0
 40
0
 40
1
 40
1
 40
1
 40
1
 10
306.755200
 20
165.743200
 30
0.0
 10
306.833600
 20
166.167200
 30
0.0
 10
306.506400
 20
166.657600
 30
0.0
 10
306.419200
 20
167.127200
 30
0.0
  0
SPLINE
  5
19e
100
AcDbEntity
  8
0
 62
7
100
AcDbSpline
 70
8
 71
3
 72
8
 73
4
 74
0
 40
0
 40
0
 40
0
 40
0
 40
1
 40
1
 40
1
 40
1
 10
306.419200
 20
167.127200
 30
0.0
 10
306.328000
 20
167.607200
 30
0.0
 10
306.108800
 20
168.191200
 30
0.0
 10
306.284800
 20
168.569600
 30
0.0
  0
SPLINE
  5
19f
100
AcDbEntity
  8
0
 62
7
100
AcDbSpline
 70
8
 71
3
 72
8
 73
4
 74
0
 40
0
 40
0
 40
0
 40
0
 40
1
 40
1
 40
1
 40
1
 10
306.284800
 20
168.569600
 30
0.0
 10
306.383200
 20
168.779200
 30
0.0
 10
306.497600
 20
168.954400
 30
0.0
 10
306.621600
 20
169.105600
 30
0.0
  0
SPLINE
  5
1a0
100
AcDbEntity
  8
0
 62
7
100
AcDbSpline
 70
8
 71
3
 72
8
 73
4
 74
0
 40
0
 40
0
 40
0
 40
0
 40
1
 40
1
 40
1
 40
1
 10
306.621600
 20
169.105600
 30
0.0
 10
306.813600
 20
169.167200
 30
0.0
 10
307.003200
 20
169.236000
 30
0.0
 10
307.189600
 20
169.308000
 30
0.0
  0
SPLINE
  5
1a1
100
AcDbEntity
  8
0
 62
7
100
AcDbSpline
 70
8
 71
3
 72
8
 73
4
 74
0
 40
0
 40
0
 40
0
 40
0
 40
1
 40
1
 40
1
 40
1
 10
307.189600
 20
169.308000
 30
0.0
 10
307.773600
 20
168.060800
 30
0.0
 10
308.922400
 20
167.430400
 30
0.0
 10
310.224800
 20
167.313600
 30
0.0
  0
SPLINE
  5
1a2
100
AcDbEntity
  8
0
 62
7
100
AcDbSpline
 70
8
 71
3
 72
8
 73
4
 74
0
 40
0
 40
0
 40
0
 40
0
 40
1
 40
1
 40
1
 40
1
 10
310.224800
 20
167.313600
 30
0.0
 10
310.235200
 20
166.723200
 30
0.0
 10
310.202400
 20
166.122400
 30
0.0
 10
310.260800
 20
165.534400
 30
0.0
  0
SPLINE
  5
1a3
100
AcDbEntity
  8
0
 62
7
100
AcDbSpline
 70
8
 71
3
 72
8
 73
4
 74
0
 40
0
 40
0
 40
0
 40
0
 40
1
 40
1
 40
1
 40
1
 10
310.260800
 20
165.534400
 30
0.0
 10
310.538400
 20
162.747200
 30
0.0
 10
311.341600
 20
160.142400
 30
0.0
 10
313.201600
 20
157.972000
 30
0.0
  0
SPLINE
  5
1a4
100
AcDbEntity
  8
0
 62
7
100
AcDbSpline
 70
8
 71
3
 72
8
 73
4
 74
0
 40
0
 40
0
 40
0
 40
0
 40
1
 40
1
 40
1
 40
1
 10
313.201600
 20
157.972000
 30
0.0
 10
314.315200
 20
156.676000
 30
0.0
 10
316.645600
 20
156.212800
 30
0.0
 10
318.737600
 20
156.372000
 30
0.0
  0
SPLINE
  5
1a5
100
AcDbEntity
  8
0
 62
7
100
AcDbSpline
 70
8
 71
3
 72
8
 73
4
 74
0
 40
0
 40
0
 40
0
 40
0
 40
1
 40
1
 40
1
 40
1
 10
318.737600
 20
156.372000
 30
0.0
 10
320.484000
 20
156.108000
 30
0.0
 10
322.279200
 20
156.506400
 30
0.0
 10
323.630400
 20
157.844800
 30
0.0
  0
SPLINE
  5
1a6
100
AcDbEntity
  8
0
 62
7
100
AcDbSpline
 70
8
 71
3
 72
8
 73
4
 74
0
 40
0
 40
0
 40
0
 40
0
 40
1
 40
1
 40
1
 40
1
 10
323.630400
 20
157.844800
 30
0.0
 10
324.550400
 20
158.755200
 30
0.0
 10
325.108800
 20
159.858400
 30
0.0
 10
325.360000
 20
161.024000
 30
0.0
  0
SPLINE
  5
1a7
100
AcDbEntity
  8
0
 62
7
100
AcDbSpline
 70
8
 71
3
 72
8
 73
4
 74
0
 40
0
 40
0
 40
0
 40
0
 40
1
 40
1
 40
1
 40
1
 10
325.360000
 20
161.024000
 30
0.0
 10
325.545600
 20
161.425600
 30
0.0
 10
325.644000
 20
161.896000
 30
0.0
 10
325.664000
 20
162.336800
 30
0.0
  0
SPLINE
  5
1a8
100
AcDbEntity
  8
0
 62
7
100
AcDbSpline
 70
8
 71
3
 72
8
 73
4
 74
0
 40
0
 40
0
 40
0
 40
0
 40
1
 40
1
 40
1
 40
1
 10
325.664000
 20
162.336800
 30
0.0
 10
325.719200
 20
163.616000
 30
0.0
 10
325.683200
 20
164.901600
 30
0.0
 10
325.683200
 20
166.103200
 30
0.0
  0
SPLINE
  5
1a9
100
AcDbEntity
  8
0
 62
7
100
AcDbSpline
 70
8
 71
3
 72
8
 73
4
 74
0
 40
0
 40
0
 40
0
 40
0
 40
1
 40
1
 40
1
 40
1
 10
325.683200
 20
166.103200
 30
0.0
 10
327.279200
 20
165.756800
 30
0.0
 10
328.704800
 20
165.235200
 30
0.0
 10
330.148000
 20
165.172800
 30
0.0
  0
SPLINE
  5
1aa
100
AcDbEntity
  8
0
 62
7
100
AcDbSpline
 70
8
 71
3
 72
8
 73
4
 74
0
 40
0
 40
0
 40
0
 40
0
 40
1
 40
1
 40
1
 40
1
 10
330.148000
 20
165.172800
 30
0.0
 10
333.846400
 20
165.016800
 30
0.0
 10
334.433600
 20
164.956800
 30
0.0
 10
336.947200
 20
169.240000
 30
0.0
  0
SPLINE
  5
1ab
100
AcDbEntity
  8
0
 62
7
100
AcDbSpline
 70
8
 71
3
 72
8
 73
4
 74
0
 40
0
 40
0
 40
0
 40
0
 40
1
 40
1
 40
1
 40
1
 10
336.947200
 20
169.240000
 30
0.0
 10
337.861600
 20
170.796800
 30
0.0
 10
337.916800
 20
172.196800
 30
0.0
 10
337.789600
 20
173.672000
 30
0.0
  0
SPLINE
  5
1ac
100
AcDbEntity
  8
0
 62
7
100
AcDbSpline
 70
8
 71
3
 72
8
 73
4
 74
0
 40
0
 40
0
 40
0
 40
0
 40
1
 40
1
 40
1
 40
1
 10
337.789600
 20
173.672000
 30
0.0
 10
337.734400
 20
174.328000
 30
0.0
 10
337.424000
 20
175.088800
 30
0.0
 10
336.970400
 20
175.855200
 30
0.0
  0
SPLINE
  5
1ad
100
AcDbEntity
  8
0
 62
7
100
AcDbSpline
 70
8
 71
3
 72
8
 73
4
 74
0
 40
0
 40
0
 40
0
 40
0
 40
1
 40
1
 40
1
 40
1
 10
336.970400
 20
175.855200
 30
0.0
 10
336.960000
 20
176.609600
 30
0.0
 10
336.840000
 20
177.370400
 30
0.0
 10
336.591200
 20
178.117600
 30
0.0
  0
SPLINE
  5
1ae
100
AcDbEntity
  8
0
 62
7
100
AcDbSpline
 70
8
 71
3
 72
8
 73
4
 74
0
 40
0
 40
0
 40
0
 40
0
 40
1
 40
1
 40
1
 40
1
 10
336.591200
 20
178.117600
 30
0.0
 10
335.784800
 20
180.532800
 30
0.0
 10
333.353600
 20
181.091200
 30
0.0
 10
331.512800
 20
180.389600
 30
0.0
  0
SPLINE
  5
1af
100
AcDbEntity
  8
0
 62
7
100
AcDbSpline
 70
8
 71
3
 72
8
 73
4
 74
0
 40
0
 40
0
 40
0
 40
0
 40
1
 40
1
 40
1
 40
1
 10
331.512800
 20
180.389600
 30
0.0
 10
329.622400
 20
180.826400
 30
0.0
 10
327.654400
 20
180.454400
 30
0.0
 10
325.630400
 20
181.000000
 30
0.0
  0
SPLINE
  5
1b0
100
AcDbEntity
  8
0
 62
7
100
AcDbSpline
 70
8
 71
3
 72
8
 73
4
 74
0
 40
0
 40
0
 40
0
 40
0
 40
1
 40
1
 40
1
 40
1
 10
325.630400
 20
181.000000
 30
0.0
 10
326.126400
 20
182.677600
 30
0.0
 10
326.550400
 20
184.270400
 30
0.0
 10
327.102400
 20
185.820800
 30
0.0
  0
SPLINE
  5
1b1
100
AcDbEntity
  8
0
 62
7
100
AcDbSpline
 70
8
 71
3
 72
8
 73
4
 74
0
 40
0
 40
0
 40
0
 40
0
 40
1
 40
1
 40
1
 40
1
 10
327.102400
 20
185.820800
 30
0.0
 10
327.187200
 20
186.059200
 30
0.0
 10
327.847200
 20
186.176000
 30
0.0
 10
328.252000
 20
186.205600
 30
0.0
  0
SPLINE
  5
1b2
100
AcDbEntity
  8
0
 62
7
100
AcDbSpline
 70
8
 71
3
 72
8
 73
4
 74
0
 40
0
 40
0
 40
0
 40
0
 40
1
 40
1
 40
1
 40
1
 10
328.252000
 20
186.205600
 30
0.0
 10
329.231200
 20
186.273600
 30
0.0
 10
330.220000
 20
186.280800
 30
0.0
 10
331.202400
 20
186.273600
 30
0.0
  0
SPLINE
  5
1b3
100
AcDbEntity
  8
0
 62
7
100
AcDbSpline
 70
8
 71
3
 72
8
 73
4
 74
0
 40
0
 40
0
 40
0
 40
0
 40
1
 40
1
 40
1
 40
1
 10
331.202400
 20
186.273600
 30
0.0
 10
334.485600
 20
186.251200
 30
0.0
 10
336.878400
 20
187.952000
 30
0.0
 10
339.012800
 20
190.220000
 30
0.0
  0
SPLINE
  5
1b4
100
AcDbEntity
  8
0
 62
7
100
AcDbSpline
 70
8
 71
3
 72
8
 73
4
 74
0
 40
0
 40
0
 40
0
 40
0
 40
1
 40
1
 40
1
 40
1
 10
339.012800
 20
190.220000
 30
0.0
 10
340.824800
 20
192.142400
 30
0.0
 10
341.428800
 20
194.369600
 30
0.0
 10
341.229600
 20
196.976800
 30
0.0
  0
SPLINE
  5
1b5
100
AcDbEntity
  8
0
 62
7
100
AcDbSpline
 70
8
 71
3
 72
8
 73
4
 74
0
 40
0
 40
0
 40
0
 40
0
 40
1
 40
1
 40
1
 40
1
 10
341.229600
 20
196.976800
 30
0.0
 10
341.096000
 20
198.696800
 30
0.0
 10
338.109600
 20
202.160000
 30
0.0
 10
336.572000
 20
202.960000
 30
0.0
  0
SPLINE
  5
1b6
100
AcDbEntity
  8
0
 62
7
100
AcDbSpline
 70
8
 71
3
 72
8
 73
4
 74
0
 40
0
 40
0
 40
0
 40
0
 40
1
 40
1
 40
1
 40
1
 10
336.572000
 20
202.960000
 30
0.0
 10
334.604000
 20
203.984800
 30
0.0
 10
332.658400
 20
203.932800
 30
0.0
 10
330.628000
 20
203.981600
 30
0.0
  0
SPLINE
  5
1b7
100
AcDbEntity
  8
0
 62
7
100
AcDbSpline
 70
8
 71
3
 72
8
 73
4
 74
0
 40
0
 40
0
 40
0
 40
0
 40
1
 40
1
 40
1
 40
1
 10
330.628000
 20
203.981600
 30
0.0
 10
327.125600
 20
204.065600
 30
0.0
 10
324.328800
 20
201.350400
 30
0.0
 10
323.480000
 20
198.321600
 30
0.0
  0
SPLINE
  5
1b8
100
AcDbEntity
  8
0
 62
7
100
AcDbSpline
 70
8
 71
3
 72
8
 73
4
 74
0
 40
0
 40
0
 40
0
 40
0
 40
1
 40
1
 40
1
 40
1
 10
323.480000
 20
198.321600
 30
0.0
 10
322.937600
 20
196.389600
 30
0.0
 10
320.656800
 20
195.608800
 30
0.0
 10
319.092800
 20
196.797600
 30
0.0
  0
SPLINE
  5
1b9
100
AcDbEntity
  8
0
 62
7
100
AcDbSpline
 70
8
 71
3
 72
8
 73
4
 74
0
 40
0
 40
0
 40
0
 40
0
 40
1
 40
1
 40
1
 40
1
 10
319.092800
 20
196.797600
 30
0.0
 10
318.557600
 20
197.205600
 30
0.0
 10
317.823200
 20
197.355200
 30
0.0
 10
316.980800
 20
197.708800
 30
0.0
  0
SPLINE
  5
1ba
100
AcDbEntity
  8
0
 62
7
100
AcDbSpline
 70
8
 71
3
 72
8
 73
4
 74
0
 40
0
 40
0
 40
0
 40
0
 40
1
 40
1
 40
1
 40
1
 10
316.980800
 20
197.708800
 30
0.0
 10
316.883200
 20
199.131200
 30
0.0
 10
316.916000
 20
200.512000
 30
0.0
 10
317.564800
 20
202.190400
 30
0.0
  0
SPLINE
  5
1bb
100
AcDbEntity
  8
0
 62
7
100
AcDbSpline
 70
8
 71
3
 72
8
 73
4
 74
0
 40
0
 40
0
 40
0
 40
0
 40
1
 40
1
 40
1
 40
1
 10
317.564800
 20
202.190400
 30
0.0
 10
318.540800
 20
204.712800
 30
0.0
 10
318.965600
 20
207.644000
 30
0.0
 10
318.798400
 20
210.350400
 30
0.0
  0
SPLINE
  5
1bc
100
AcDbEntity
  8
0
 62
7
100
AcDbSpline
 70
8
 71
3
 72
8
 73
4
 74
0
 40
0
 40
0
 40
0
 40
0
 40
1
 40
1
 40
1
 40
1
 10
318.798400
 20
210.350400
 30
0.0
 10
318.664800
 20
212.514400
 30
0.0
 10
317.434400
 20
214.988800
 30
0.0
 10
315.241600
 20
215.827200
 30
0.0
  0
SPLINE
  5
1bd
100
AcDbEntity
  8
0
 62
7
100
AcDbSpline
 70
8
 71
3
 72
8
 73
4
 74
0
 40
0
 40
0
 40
0
 40
0
 40
1
 40
1
 40
1
 40
1
 10
315.241600
 20
215.827200
 30
0.0
 10
313.518400
 20
216.486400
 30
0.0
 10
311.188000
 20
216.536000
 30
0.0
 10
309.457600
 20
215.918400
 30
0.0
  0
SPLINE
  5
1be
100
AcDbEntity
  8
0
 62
7
100
AcDbSpline
 70
8
 71
3
 72
8
 73
4
 74
0
 40
0
 40
0
 40
0
 40
0
 40
1
 40
1
 40
1
 40
1
 10
309.457600
 20
215.918400
 30
0.0
 10
307.640000
 20
215.272000
 30
0.0
 10
305.384000
 20
214.868000
 30
0.0
 10
304.248000
 20
212.828000
 30
0.0
  0
SPLINE
  5
1bf
100
AcDbEntity
  8
0
 62
7
100
AcDbSpline
 70
8
 71
3
 72
8
 73
4
 74
0
 40
0
 40
0
 40
0
 40
0
 40
1
 40
1
 40
1
 40
1
 10
304.248000
 20
212.828000
 30
0.0
 10
303.732000
 20
211.897600
 30
0.0
 10
302.626400
 20
211.045600
 30
0.0
 10
302.606400
 20
210.138400
 30
0.0
  0
SPLINE
  5
1c0
100
AcDbEntity
  8
0
 62
7
100
AcDbSpline
 70
8
 71
3
 72
8
 73
4
 74
0
 40
0
 40
0
 40
0
 40
0
 40
1
 40
1
 40
1
 40
1
 10
302.606400
 20
210.138400
 30
0.0
 10
302.534400
 20
206.842400
 30
0.0
 10
301.584800
 20
203.421600
 30
0.0
 10
303.464800
 20
200.281600
 30
0.0
  0
SPLINE
  5
1c1
100
AcDbEntity
  8
0
 62
7
100
AcDbSpline
 70
8
 71
3
 72
8
 73
4
 74
0
 40
0
 40
0
 40
0
 40
0
 40
1
 40
1
 40
1
 40
1
 10
303.464800
 20
200.281600
 30
0.0
 10
303.516000
 20
200.196800
 30
0.0
 10
303.454400
 20
200.043200
 30
0.0
 10
303.441600
 20
199.876800
 30
0.0
  0
SPLINE
  5
1c2
100
AcDbEntity
  8
0
 62
7
100
AcDbSpline
 70
8
 71
3
 72
8
 73
4
 74
0
 40
0
 40
0
 40
0
 40
0
 40
1
 40
1
 40
1
 40
1
 10
303.441600
 20
199.876800
 30
0.0
 10
301.956800
 20
198.724800
 30
0.0
 10
301.196000
 20
200.330400
 30
0.0
 10
300.364000
 20
200.901600
 30
0.0
  0
SPLINE
  5
1c3
100
AcDbEntity
  8
0
 62
7
100
AcDbSpline
 70
8
 71
3
 72
8
 73
4
 74
0
 40
0
 40
0
 40
0
 40
0
 40
1
 40
1
 40
1
 40
1
 10
300.364000
 20
200.901600
 30
0.0
 10
296.965600
 20
203.232000
 30
0.0
 10
297.432800
 20
206.881600
 30
0.0
 10
298.206400
 20
210.047200
 30
0.0
  0
SPLINE
  5
1c4
100
AcDbEntity
  8
0
 62
7
100
AcDbSpline
 70
8
 71
3
 72
8
 73
4
 74
0
 40
0
 40
0
 40
0
 40
0
 40
1
 40
1
 40
1
 40
1
 10
298.206400
 20
210.047200
 30
0.0
 10
298.960000
 20
213.128800
 30
0.0
 10
300.781600
 20
215.942400
 30
0.0
 10
302.090400
 20
218.893600
 30
0.0
  0
SPLINE
  5
1c5
100
AcDbEntity
  8
0
 62
7
100
AcDbSpline
 70
8
 71
3
 72
8
 73
4
 74
0
 40
0
 40
0
 40
0
 40
0
 40
1
 40
1
 40
1
 40
1
 10
302.090400
 20
218.893600
 30
0.0
 10
302.994400
 20
220.926400
 30
0.0
 10
303.784000
 20
223.012000
 30
0.0
 10
304.701600
 20
225.043200
 30
0.0
  0
SPLINE
  5
1c6
100
AcDbEntity
  8
0
 62
7
100
AcDbSpline
 70
8
 71
3
 72
8
 73
4
 74
0
 40
0
 40
0
 40
0
 40
0
 40
1
 40
1
 40
1
 40
1
 10
304.701600
 20
225.043200
 30
0.0
 10
305.252800
 20
226.267200
 30
0.0
 10
306.046400
 20
227.387200
 30
0.0
 10
306.561600
 20
228.626400
 30
0.0
  0
SPLINE
  5
1c7
100
AcDbEntity
  8
0
 62
7
100
AcDbSpline
 70
8
 71
3
 72
8
 73
4
 74
0
 40
0
 40
0
 40
0
 40
0
 40
1
 40
1
 40
1
 40
1
 10
306.561600
 20
228.626400
 30
0.0
 10
307.120000
 20
229.964800
 30
0.0
 10
307.394400
 20
231.420000
 30
0.0
 10
307.948800
 20
232.762400
 30
0.0
  0
SPLINE
  5
1c8
100
AcDbEntity
  8
0
 62
7
100
AcDbSpline
 70
8
 71
3
 72
8
 73
4
 74
0
 40
0
 40
0
 40
0
 40
0
 40
1
 40
1
 40
1
 40
1
 10
307.948800
 20
232.762400
 30
0.0
 10
308.455200
 20
233.992800
 30
0.0
 10
309.127200
 20
235.164800
 30
0.0
 10
309.796800
 20
236.323200
 30
0.0
  0
SPLINE
  5
1c9
100
AcDbEntity
  8
0
 62
7
100
AcDbSpline
 70
8
 71
3
 72
8
 73
4
 74
0
 40
0
 40
0
 40
0
 40
0
 40
1
 40
1
 40
1
 40
1
 10
309.796800
 20
236.323200
 30
0.0
 10
310.556800
 20
237.632000
 30
0.0
 10
311.366400
 20
238.911200
 30
0.0
 10
312.212000
 20
240.168000
 30
0.0
  0
SPLINE
  5
1ca
100
AcDbEntity
  8
0
 62
7
100
AcDbSpline
 70
8
 71
3
 72
8
 73
4
 74
0
 40
0
 40
0
 40
0
 40
0
 40
1
 40
1
 40
1
 40
1
 10
312.212000
 20
240.168000
 30
0.0
 10
313.080800
 20
241.460800
 30
0.0
 10
313.964800
 20
242.750400
 30
0.0
 10
314.934400
 20
243.967200
 30
0.0
  0
SPLINE
  5
1cb
100
AcDbEntity
  8
0
 62
7
100
AcDbSpline
 70
8
 71
3
 72
8
 73
4
 74
0
 40
0
 40
0
 40
0
 40
0
 40
1
 40
1
 40
1
 40
1
 10
314.934400
 20
243.967200
 30
0.0
 10
316.980800
 20
246.536000
 30
0.0
 10
319.036800
 20
249.101600
 30
0.0
 10
321.191200
 20
251.582400
 30
0.0
  0
SPLINE
  5
1cc
100
AcDbEntity
  8
0
 62
7
100
AcDbSpline
 70
8
 71
3
 72
8
 73
4
 74
0
 40
0
 40
0
 40
0
 40
0
 40
1
 40
1
 40
1
 40
1
 10
321.191200
 20
251.582400
 30
0.0
 10
323.166400
 20
253.861600
 30
0.0
 10
325.261600
 20
256.041600
 30
0.0
 10
327.331200
 20
258.237600
 30
0.0
  0
SPLINE
  5
1cd
100
AcDbEntity
  8
0
 62
7
100
AcDbSpline
 70
8
 71
3
 72
8
 73
4
 74
0
 40
0
 40
0
 40
0
 40
0
 40
1
 40
1
 40
1
 40
1
 10
327.331200
 20
258.237600
 30
0.0
 10
327.827200
 20
258.763200
 30
0.0
 10
328.648800
 20
259.083200
 30
0.0
 10
328.936800
 20
259.680800
 30
0.0
  0
SPLINE
  5
1ce
100
AcDbEntity
  8
0
 62
7
100
AcDbSpline
 70
8
 71
3
 72
8
 73
4
 74
0
 40
0
 40
0
 40
0
 40
0
 40
1
 40
1
 40
1
 40
1
 10
328.936800
 20
259.680800
 30
0.0
 10
329.759200
 20
261.410400
 30
0.0
 10
331.505600
 20
261.930400
 30
0.0
 10
332.916000
 20
262.044000
 30
0.0
  0
SPLINE
  5
1cf
100
AcDbEntity
  8
0
 62
7
100
AcDbSpline
 70
8
 71
3
 72
8
 73
4
 74
0
 40
0
 40
0
 40
0
 40
0
 40
1
 40
1
 40
1
 40
1
 10
332.916000
 20
262.044000
 30
0.0
 10
334.332800
 20
262.158400
 30
0.0
 10
335.883200
 20
261.286400
 30
0.0
 10
336.999200
 20
259.994400
 30
0.0
  0
SPLINE
  5
1d0
100
AcDbEntity
  8
0
 62
7
100
AcDbSpline
 70
8
 71
3
 72
8
 73
4
 74
0
 40
0
 40
0
 40
0
 40
0
 40
1
 40
1
 40
1
 40
1
 10
336.999200
 20
259.994400
 30
0.0
 10
339.016000
 20
257.664000
 30
0.0
 10
341.088800
 20
255.369600
 30
0.0
 10
343.269600
 20
253.188800
 30
0.0
  0
SPLINE
  5
1d1
100
AcDbEntity
  8
0
 62
7
100
AcDbSpline
 70
8
 71
3
 72
8
 73
4
 74
0
 40
0
 40
0
 40
0
 40
0
 40
1
 40
1
 40
1
 40
1
 10
343.269600
 20
253.188800
 30
0.0
 10
345.166400
 20
251.292800
 30
0.0
 10
347.572000
 20
250.280800
 30
0.0
 10
350.032800
 20
249.160800
 30
0.0
  0
SPLINE
  5
1d2
100
AcDbEntity
  8
0
 62
7
100
AcDbSpline
 70
8
 71
3
 72
8
 73
4
 74
0
 40
0
 40
0
 40
0
 40
0
 40
1
 40
1
 40
1
 40
1
 10
350.032800
 20
249.160800
 30
0.0
 10
352.996000
 20
247.810400
 30
0.0
 10
356.217600
 20
249.066400
 30
0.0
 10
358.999200
 20
247.457600
 30
0.0
  0
SPLINE
  5
1d3
100
AcDbEntity
  8
0
 62
7
100
AcDbSpline
 70
8
 71
3
 72
8
 73
4
 74
0
 40
0
 40
0
 40
0
 40
0
 40
1
 40
1
 40
1
 40
1
 10
358.999200
 20
247.457600
 30
0.0
 10
359.413600
 20
247.219200
 30
0.0
 10
360.255200
 20
247.787200
 30
0.0
 10
360.917600
 20
247.901600
 30
0.0
  0
SPLINE
  5
1d4
100
AcDbEntity
  8
0
 62
7
100
AcDbSpline
 70
8
 71
3
 72
8
 73
4
 74
0
 40
0
 40
0
 40
0
 40
0
 40
1
 40
1
 40
1
 40
1
 10
360.917600
 20
247.901600
 30
0.0
 10
361.802400
 20
248.054400
 30
0.0
 10
362.706400
 20
248.110400
 30
0.0
 10
363.597600
 20
248.237600
 30
0.0
  0
SPLINE
  5
1d5
100
AcDbEntity
  8
0
 62
7
100
AcDbSpline
 70
8
 71
3
 72
8
 73
4
 74
0
 40
0
 40
0
 40
0
 40
0
 40
1
 40
1
 40
1
 40
1
 10
363.597600
 20
248.237600
 30
0.0
 10
366.564800
 20
248.655200
 30
0.0
 10
369.596800
 20
248.841600
 30
0.0
 10
372.482400
 20
249.588800
 30
0.0
  0
SPLINE
  5
1d6
100
AcDbEntity
  8
0
 62
7
100
AcDbSpline
 70
8
 71
3
 72
8
 73
4
 74
0
 40
0
 40
0
 40
0
 40
0
 40
1
 40
1
 40
1
 40
1
 10
372.482400
 20
249.588800
 30
0.0
 10
375.132000
 20
250.273600
 30
0.0
 10
377.612800
 20
251.596000
 30
0.0
 10
380.185600
 20
252.598400
 30
0.0
  0
SPLINE
  5
1d7
100
AcDbEntity
  8
0
 62
7
100
AcDbSpline
 70
8
 71
3
 72
8
 73
4
 74
0
 40
0
 40
0
 40
0
 40
0
 40
1
 40
1
 40
1
 40
1
 10
380.185600
 20
252.598400
 30
0.0
 10
382.333600
 20
253.437600
 30
0.0
 10
384.545600
 20
254.128800
 30
0.0
 10
386.651200
 20
255.059200
 30
0.0
  0
SPLINE
  5
1d8
100
AcDbEntity
  8
0
 62
7
100
AcDbSpline
 70
8
 71
3
 72
8
 73
4
 74
0
 40
0
 40
0
 40
0
 40
0
 40
1
 40
1
 40
1
 40
1
 10
386.651200
 20
255.059200
 30
0.0
 10
388.240800
 20
255.760800
 30
0.0
 10
389.700000
 20
256.760000
 30
0.0
 10
391.236800
 20
257.592000
 30
0.0
  0
SPLINE
  5
1d9
100
AcDbEntity
  8
0
 62
7
100
AcDbSpline
 70
8
 71
3
 72
8
 73
4
 74
0
 40
0
 40
0
 40
0
 40
0
 40
1
 40
1
 40
1
 40
1
 10
391.236800
 20
257.592000
 30
0.0
 10
393.081600
 20
258.594400
 30
0.0
 10
394.957600
 20
259.540800
 30
0.0
 10
396.801600
 20
260.545600
 30
0.0
  0
SPLINE
  5
1da
100
AcDbEntity
  8
0
 62
7
100
AcDbSpline
 70
8
 71
3
 72
8
 73
4
 74
0
 40
0
 40
0
 40
0
 40
0
 40
1
 40
1
 40
1
 40
1
 10
396.801600
 20
260.545600
 30
0.0
 10
398.143200
 20
261.280000
 30
0.0
 10
399.494400
 20
262.008000
 30
0.0
 10
400.771200
 20
262.850400
 30
0.0
  0
SPLINE
  5
1db
100
AcDbEntity
  8
0
 62
7
100
AcDbSpline
 70
8
 71
3
 72
8
 73
4
 74
0
 40
0
 40
0
 40
0
 40
0
 40
1
 40
1
 40
1
 40
1
 10
400.771200
 20
262.850400
 30
0.0
 10
402.860000
 20
264.231200
 30
0.0
 10
404.945600
 20
265.628000
 30
0.0
 10
406.929600
 20
267.152000
 30
0.0
  0
SPLINE
  5
1dc
100
AcDbEntity
  8
0
 62
7
100
AcDbSpline
 70
8
 71
3
 72
8
 73
4
 74
0
 40
0
 40
0
 40
0
 40
0
 40
1
 40
1
 40
1
 40
1
 10
406.929600
 20
267.152000
 30
0.0
 10
410.964000
 20
270.246400
 30
0.0
 10
415.116000
 20
273.168000
 30
0.0
 10
418.990400
 20
276.503200
 30
0.0
  0
SPLINE
  5
1dd
100
AcDbEntity
  8
0
 62
7
100
AcDbSpline
 70
8
 71
3
 72
8
 73
4
 74
0
 40
0
 40
0
 40
0
 40
0
 40
1
 40
1
 40
1
 40
1
 10
418.990400
 20
276.503200
 30
0.0
 10
421.660000
 20
278.800800
 30
0.0
 10
424.225600
 20
281.170400
 30
0.0
 10
426.772000
 20
283.596000
 30
0.0
  0
SPLINE
  5
1de
100
AcDbEntity
  8
0
 62
7
100
AcDbSpline
 70
8
 71
3
 72
8
 73
4
 74
0
 40
0
 40
0
 40
0
 40
0
 40
1
 40
1
 40
1
 40
1
 10
426.772000
 20
283.596000
 30
0.0
 10
429.898400
 20
286.576000
 30
0.0
 10
432.876000
 20
289.637600
 30
0.0
 10
435.437600
 20
293.146400
 30
0.0
  0
SPLINE
  5
1df
100
AcDbEntity
  8
0
 62
7
100
AcDbSpline
 70
8
 71
3
 72
8
 73
4
 74
0
 40
0
 40
0
 40
0
 40
0
 40
1
 40
1
 40
1
 40
1
 10
435.437600
 20
293.146400
 30
0.0
 10
437.243200
 20
295.620800
 30
0.0
 10
438.704800
 20
298.186400
 30
0.0
 10
439.955200
 20
300.987200
 30
0.0
  0
SPLINE
  5
1e0
100
AcDbEntity
  8
0
 62
7
100
AcDbSpline
 70
8
 71
3
 72
8
 73
4
 74
0
 40
0
 40
0
 40
0
 40
0
 40
1
 40
1
 40
1
 40
1
 10
439.955200
 20
300.987200
 30
0.0
 10
441.707200
 20
304.923200
 30
0.0
 10
440.790400
 20
308.902400
 30
0.0
 10
440.624000
 20
312.825600
 30
0.0
  0
SPLINE
  5
1e1
100
AcDbEntity
  8
0
 62
7
100
AcDbSpline
 70
8
 71
3
 72
8
 73
4
 74
0
 40
0
 40
0
 40
0
 40
0
 40
1
 40
1
 40
1
 40
1
 10
440.624000
 20
312.825600
 30
0.0
 10
440.526400
 20
315.142400
 30
0.0
 10
439.608800
 20
317.575200
 30
0.0
 10
438.508800
 20
319.667200
 30
0.0
  0
SPLINE
  5
1e2
100
AcDbEntity
  8
0
 62
7
100
AcDbSpline
 70
8
 71
3
 72
8
 73
4
 74
0
 40
0
 40
0
 40
0
 40
0
 40
1
 40
1
 40
1
 40
1
 10
438.508800
 20
319.667200
 30
0.0
 10
437.160000
 20
322.232800
 30
0.0
 10
435.652800
 20
324.752000
 30
0.0
 10
432.597600
 20
326.002400
 30
0.0
  0
SPLINE
  5
1e3
100
AcDbEntity
  8
0
 62
7
100
AcDbSpline
 70
8
 71
3
 72
8
 73
4
 74
0
 40
0
 40
0
 40
0
 40
0
 40
1
 40
1
 40
1
 40
1
 10
432.597600
 20
326.002400
 30
0.0
 10
430.318400
 20
326.932800
 30
0.0
 10
428.380800
 20
328.676000
 30
0.0
 10
426.206400
 20
329.903200
 30
0.0
  0
SPLINE
  5
1e4
100
AcDbEntity
  8
0
 62
7
100
AcDbSpline
 70
8
 71
3
 72
8
 73
4
 74
0
 40
0
 40
0
 40
0
 40
0
 40
1
 40
1
 40
1
 40
1
 10
426.206400
 20
329.903200
 30
0.0
 10
425.057600
 20
330.549600
 30
0.0
 10
423.706400
 20
330.823200
 30
0.0
 10
422.479200
 20
331.339200
 30
0.0
  0
SPLINE
  5
1e5
100
AcDbEntity
  8
0
 62
7
100
AcDbSpline
 70
8
 71
3
 72
8
 73
4
 74
0
 40
0
 40
0
 40
0
 40
0
 40
1
 40
1
 40
1
 40
1
 10
422.479200
 20
331.339200
 30
0.0
 10
422.038400
 20
331.524800
 30
0.0
 10
421.600800
 20
331.727200
 30
0.0
 10
421.167200
 20
331.929600
 30
0.0
  0
SPLINE
  5
1e6
100
AcDbEntity
  8
0
 62
7
100
AcDbSpline
 70
8
 71
3
 72
8
 73
4
 74
0
 40
0
 40
0
 40
0
 40
0
 40
1
 40
1
 40
1
 40
1
 10
421.167200
 20
331.929600
 30
0.0
 10
420.755200
 20
332.132000
 30
0.0
 10
420.341600
 20
332.328000
 30
0.0
 10
419.926400
 20
332.516800
 30
0.0
  0
SPLINE
  5
1e7
100
AcDbEntity
  8
0
 62
7
100
AcDbSpline
 70
8
 71
3
 72
8
 73
4
 74
0
 40
0
 40
0
 40
0
 40
0
 40
1
 40
1
 40
1
 40
1
 10
419.926400
 20
332.516800
 30
0.0
 10
419.485600
 20
332.726400
 30
0.0
 10
419.044800
 20
332.932000
 30
0.0
 10
418.601600
 20
333.127200
 30
0.0
  0
SPLINE
  5
1e8
100
AcDbEntity
  8
0
 62
7
100
AcDbSpline
 70
8
 71
3
 72
8
 73
4
 74
0
 40
0
 40
0
 40
0
 40
0
 40
1
 40
1
 40
1
 40
1
 10
418.601600
 20
333.127200
 30
0.0
 10
417.772800
 20
333.489600
 30
0.0
 10
416.936800
 20
333.855200
 30
0.0
 10
416.088000
 20
334.165600
 30
0.0
  0
SPLINE
  5
1e9
100
AcDbEntity
  8
0
 62
7
100
AcDbSpline
 70
8
 71
3
 72
8
 73
4
 74
0
 40
0
 40
0
 40
0
 40
0
 40
1
 40
1
 40
1
 40
1
 10
416.088000
 20
334.165600
 30
0.0
 10
415.608000
 20
334.364800
 30
0.0
 10
415.128000
 20
334.560800
 30
0.0
 10
414.651200
 20
334.759200
 30
0.0
  0
SPLINE
  5
1ea
100
AcDbEntity
  8
0
 62
7
100
AcDbSpline
 70
8
 71
3
 72
8
 73
4
 74
0
 40
0
 40
0
 40
0
 40
0
 40
1
 40
1
 40
1
 40
1
 10
414.651200
 20
334.759200
 30
0.0
 10
411.697600
 20
335.980000
 30
0.0
 10
408.671200
 20
337.031200
 30
0.0
 10
405.577600
 20
337.820800
 30
0.0
  0
SPLINE
  5
1eb
100
AcDbEntity
  8
0
 62
7
100
AcDbSpline
 70
8
 71
3
 72
8
 73
4
 74
0
 40
0
 40
0
 40
0
 40
0
 40
1
 40
1
 40
1
 40
1
 10
405.577600
 20
337.820800
 30
0.0
 10
398.886400
 20
339.532000
 30
0.0
 10
391.963200
 20
340.452000
 30
0.0
 10
385.033600
 20
340.540000
 30
0.0
  0
SPLINE
  5
1ec
100
AcDbEntity
  8
0
 62
7
100
AcDbSpline
 70
8
 71
3
 72
8
 73
4
 74
0
 40
0
 40
0
 40
0
 40
0
 40
1
 40
1
 40
1
 40
1
 10
385.033600
 20
340.540000
 30
0.0
 10
384.292800
 20
340.706400
 30
0.0
 10
383.548800
 20
340.849600
 30
0.0
 10
382.808000
 20
340.960000
 30
0.0
  0
SPLINE
  5
1ed
100
AcDbEntity
  8
0
 62
7
100
AcDbSpline
 70
8
 71
3
 72
8
 73
4
 74
0
 40
0
 40
0
 40
0
 40
0
 40
1
 40
1
 40
1
 40
1
 10
382.808000
 20
340.960000
 30
0.0
 10
381.541600
 20
341.310400
 30
0.0
 10
380.228800
 20
341.488800
 30
0.0
 10
378.868000
 20
341.492000
 30
0.0
  0
SPLINE
  5
1ee
100
AcDbEntity
  8
0
 62
7
100
AcDbSpline
 70
8
 71
3
 72
8
 73
4
 74
0
 40
0
 40
0
 40
0
 40
0
 40
1
 40
1
 40
1
 40
1
 10
378.868000
 20
341.492000
 30
0.0
 10
378.590400
 20
341.452800
 30
0.0
 10
378.309600
 20
341.416800
 30
0.0
 10
378.028800
 20
341.377600
 30
0.0
  0
SPLINE
  5
1ef
100
AcDbEntity
  8
0
 62
7
100
AcDbSpline
 70
8
 71
3
 72
8
 73
4
 74
0
 40
0
 40
0
 40
0
 40
0
 40
1
 40
1
 40
1
 40
1
 10
378.028800
 20
341.377600
 30
0.0
 10
374.193600
 20
341.498400
 30
0.0
 10
370.368800
 20
341.175200
 30
0.0
 10
366.572800
 20
340.953600
 30
0.0
  0
SPLINE
  5
1f0
100
AcDbEntity
  8
0
 62
7
100
AcDbSpline
 70
8
 71
3
 72
8
 73
4
 74
0
 40
0
 40
0
 40
0
 40
0
 40
1
 40
1
 40
1
 40
1
 10
366.572800
 20
340.953600
 30
0.0
 10
363.889600
 20
340.797600
 30
0.0
 10
361.043200
 20
340.536000
 30
0.0
 10
358.324000
 20
340.042400
 30
0.0
  0
SPLINE
  5
1f1
100
AcDbEntity
  8
0
 62
7
100
AcDbSpline
 70
8
 71
3
 72
8
 73
4
 74
0
 40
0
 40
0
 40
0
 40
0
 40
1
 40
1
 40
1
 40
1
 10
358.324000
 20
340.042400
 30
0.0
 10
356.150400
 20
339.648000
 30
0.0
 10
354.064800
 20
338.789600
 30
0.0
 10
351.936800
 20
338.140000
 30
0.0
  0
SPLINE
  5
1f2
100
AcDbEntity
  8
0
 62
7
100
AcDbSpline
 70
8
 71
3
 72
8
 73
4
 74
0
 40
0
 40
0
 40
0
 40
0
 40
1
 40
1
 40
1
 40
1
 10
351.936800
 20
338.140000
 30
0.0
 10
350.644000
 20
337.748000
 30
0.0
 10
349.371200
 20
337.248800
 30
0.0
 10
348.049600
 20
337.004000
 30
0.0
  0
SPLINE
  5
1f3
100
AcDbEntity
  8
0
 62
7
100
AcDbSpline
 70
8
 71
3
 72
8
 73
4
 74
0
 40
0
 40
0
 40
0
 40
0
 40
1
 40
1
 40
1
 40
1
 10
348.049600
 20
337.004000
 30
0.0
 10
344.093600
 20
336.272800
 30
0.0
 10
340.787200
 20
334.036800
 30
0.0
 10
337.422400
 20
332.133600
 30
0.0
  0
SPLINE
  5
1f4
100
AcDbEntity
  8
0
 62
7
100
AcDbSpline
 70
8
 71
3
 72
8
 73
4
 74
0
 40
0
 40
0
 40
0
 40
0
 40
1
 40
1
 40
1
 40
1
 10
337.422400
 20
332.133600
 30
0.0
 10
335.048800
 20
330.788800
 30
0.0
 10
333.303200
 20
328.348000
 30
0.0
 10
331.252800
 20
326.421600
 30
0.0
  0
SPLINE
  5
1f5
100
AcDbEntity
  8
0
 62
7
100
AcDbSpline
 70
8
 71
3
 72
8
 73
4
 74
0
 40
0
 40
0
 40
0
 40
0
 40
1
 40
1
 40
1
 40
1
 10
331.252800
 20
326.421600
 30
0.0
 10
329.791200
 20
325.047200
 30
0.0
 10
329.232800
 20
323.422400
 30
0.0
 10
328.844000
 20
321.408000
 30
0.0
  0
SPLINE
  5
1f6
100
AcDbEntity
  8
0
 62
7
100
AcDbSpline
 70
8
 71
3
 72
8
 73
4
 74
0
 40
0
 40
0
 40
0
 40
0
 40
1
 40
1
 40
1
 40
1
 10
328.844000
 20
321.408000
 30
0.0
 10
328.377600
 20
318.986400
 30
0.0
 10
326.764800
 20
316.808800
 30
0.0
 10
325.964800
 20
314.423200
 30
0.0
  0
SPLINE
  5
1f7
100
AcDbEntity
  8
0
 62
7
100
AcDbSpline
 70
8
 71
3
 72
8
 73
4
 74
0
 40
0
 40
0
 40
0
 40
0
 40
1
 40
1
 40
1
 40
1
 10
325.964800
 20
314.423200
 30
0.0
 10
325.125600
 20
311.920000
 30
0.0
 10
323.281600
 20
310.435200
 30
0.0
 10
321.460800
 20
308.763200
 30
0.0
  0
SPLINE
  5
1f8
100
AcDbEntity
  8
0
 62
7
100
AcDbSpline
 70
8
 71
3
 72
8
 73
4
 74
0
 40
0
 40
0
 40
0
 40
0
 40
1
 40
1
 40
1
 40
1
 10
321.460800
 20
308.763200
 30
0.0
 10
320.086400
 20
307.504000
 30
0.0
 10
318.435200
 20
307.758400
 30
0.0
 10
317.426400
 20
308.287200
 30
0.0
  0
SPLINE
  5
1f9
100
AcDbEntity
  8
0
 62
7
100
AcDbSpline
 70
8
 71
3
 72
8
 73
4
 74
0
 40
0
 40
0
 40
0
 40
0
 40
1
 40
1
 40
1
 40
1
 10
317.426400
 20
308.287200
 30
0.0
 10
314.900000
 20
309.618400
 30
0.0
 10
312.396800
 20
311.145600
 30
0.0
 10
311.188800
 20
314.109600
 30
0.0
  0
SPLINE
  5
1fa
100
AcDbEntity
  8
0
 62
7
100
AcDbSpline
 70
8
 71
3
 72
8
 73
4
 74
0
 40
0
 40
0
 40
0
 40
0
 40
1
 40
1
 40
1
 40
1
 10
311.188800
 20
314.109600
 30
0.0
 10
310.572000
 20
315.624000
 30
0.0
 10
309.302400
 20
316.864000
 30
0.0
 10
308.404800
 20
318.280800
 30
0.0
  0
SPLINE
  5
1fb
100
AcDbEntity
  8
0
 62
7
100
AcDbSpline
 70
8
 71
3
 72
8
 73
4
 74
0
 40
0
 40
0
 40
0
 40
0
 40
1
 40
1
 40
1
 40
1
 10
308.404800
 20
318.280800
 30
0.0
 10
307.856000
 20
319.145600
 30
0.0
 10
307.493600
 20
320.131200
 30
0.0
 10
306.981600
 20
321.023200
 30
0.0
  0
SPLINE
  5
1fc
100
AcDbEntity
  8
0
 62
7
100
AcDbSpline
 70
8
 71
3
 72
8
 73
4
 74
0
 40
0
 40
0
 40
0
 40
0
 40
1
 40
1
 40
1
 40
1
 10
306.981600
 20
321.023200
 30
0.0
 10
305.425600
 20
323.725600
 30
0.0
 10
303.888000
 20
326.444000
 30
0.0
 10
302.236000
 20
329.092000
 30
0.0
  0
SPLINE
  5
1fd
100
AcDbEntity
  8
0
 62
7
100
AcDbSpline
 70
8
 71
3
 72
8
 73
4
 74
0
 40
0
 40
0
 40
0
 40
0
 40
1
 40
1
 40
1
 40
1
 10
302.236000
 20
329.092000
 30
0.0
 10
300.890400
 20
331.248800
 30
0.0
 10
299.435200
 20
333.341600
 30
0.0
 10
297.963200
 20
335.416800
 30
0.0
  0
SPLINE
  5
1fe
100
AcDbEntity
  8
0
 62
7
100
AcDbSpline
 70
8
 71
3
 72
8
 73
4
 74
0
 40
0
 40
0
 40
0
 40
0
 40
1
 40
1
 40
1
 40
1
 10
297.963200
 20
335.416800
 30
0.0
 10
295.557600
 20
338.808000
 30
0.0
 10
294.278400
 20
342.523200
 30
0.0
 10
294.764000
 20
346.700000
 30
0.0
  0
SPLINE
  5
1ff
100
AcDbEntity
  8
0
 62
7
100
AcDbSpline
 70
8
 71
3
 72
8
 73
4
 74
0
 40
0
 40
0
 40
0
 40
0
 40
1
 40
1
 40
1
 40
1
 10
294.764000
 20
346.700000
 30
0.0
 10
294.852000
 20
347.457600
 30
0.0
 10
295.456000
 20
348.156000
 30
0.0
 10
295.824800
 20
348.880800
 30
0.0
  0
SPLINE
  5
200
100
AcDbEntity
  8
0
 62
7
100
AcDbSpline
 70
8
 71
3
 72
8
 73
4
 74
0
 40
0
 40
0
 40
0
 40
0
 40
1
 40
1
 40
1
 40
1
 10
295.824800
 20
348.880800
 30
0.0
 10
296.311200
 20
348.597600
 30
0.0
 10
296.856000
 20
348.378400
 30
0.0
 10
297.276800
 20
348.016000
 30
0.0
  0
SPLINE
  5
201
100
AcDbEntity
  8
0
 62
7
100
AcDbSpline
 70
8
 71
3
 72
8
 73
4
 74
0
 40
0
 40
0
 40
0
 40
0
 40
1
 40
1
 40
1
 40
1
 10
297.276800
 20
348.016000
 30
0.0
 10
298.618400
 20
346.857600
 30
0.0
 10
299.914400
 20
345.649600
 30
0.0
 10
301.227200
 20
344.458400
 30
0.0
  0
SPLINE
  5
202
100
AcDbEntity
  8
0
 62
7
100
AcDbSpline
 70
8
 71
3
 72
8
 73
4
 74
0
 40
0
 40
0
 40
0
 40
0
 40
1
 40
1
 40
1
 40
1
 10
301.227200
 20
344.458400
 30
0.0
 10
302.536000
 20
343.274400
 30
0.0
 10
303.995200
 20
342.432000
 30
0.0
 10
305.819200
 20
342.415200
 30
0.0
  0
SPLINE
  5
203
100
AcDbEntity
  8
0
 62
7
100
AcDbSpline
 70
8
 71
3
 72
8
 73
4
 74
0
 40
0
 40
0
 40
0
 40
0
 40
1
 40
1
 40
1
 40
1
 10
305.819200
 20
342.415200
 30
0.0
 10
307.049600
 20
342.404800
 30
0.0
 10
308.286400
 20
342.317600
 30
0.0
 10
309.507200
 20
342.412000
 30
0.0
  0
SPLINE
  5
204
100
AcDbEntity
  8
0
 62
7
100
AcDbSpline
 70
8
 71
3
 72
8
 73
4
 74
0
 40
0
 40
0
 40
0
 40
0
 40
1
 40
1
 40
1
 40
1
 10
309.507200
 20
342.412000
 30
0.0
 10
312.272000
 20
342.624000
 30
0.0
 10
314.112800
 20
344.311200
 30
0.0
 10
315.748000
 20
346.380800
 30
0.0
  0
SPLINE
  5
205
100
AcDbEntity
  8
0
 62
7
100
AcDbSpline
 70
8
 71
3
 72
8
 73
4
 74
0
 40
0
 40
0
 40
0
 40
0
 40
1
 40
1
 40
1
 40
1
 10
315.748000
 20
346.380800
 30
0.0
 10
317.419200
 20
348.498400
 30
0.0
 10
317.220000
 20
351.041600
 30
0.0
 10
316.636000
 20
353.192800
 30
0.0
  0
SPLINE
  5
206
100
AcDbEntity
  8
0
 62
7
100
AcDbSpline
 70
8
 71
3
 72
8
 73
4
 74
0
 40
0
 40
0
 40
0
 40
0
 40
1
 40
1
 40
1
 40
1
 10
316.636000
 20
353.192800
 30
0.0
 10
316.155200
 20
354.959200
 30
0.0
 10
314.494400
 20
356.536000
 30
0.0
 10
313.061600
 20
357.883200
 30
0.0
  0
SPLINE
  5
207
100
AcDbEntity
  8
0
 62
7
100
AcDbSpline
 70
8
 71
3
 72
8
 73
4
 74
0
 40
0
 40
0
 40
0
 40
0
 40
1
 40
1
 40
1
 40
1
 10
313.061600
 20
357.883200
 30
0.0
 10
310.878400
 20
359.939200
 30
0.0
 10
308.071200
 20
360.383200
 30
0.0
 10
305.148800
 20
360.057600
 30
0.0
  0
SPLINE
  5
208
100
AcDbEntity
  8
0
 62
7
100
AcDbSpline
 70
8
 71
3
 72
8
 73
4
 74
0
 40
0
 40
0
 40
0
 40
0
 40
1
 40
1
 40
1
 40
1
 10
305.148800
 20
360.057600
 30
0.0
 10
304.685600
 20
360.005600
 30
0.0
 10
304.248000
 20
359.688000
 30
0.0
 10
303.784800
 20
359.648800
 30
0.0
  0
SPLINE
  5
209
100
AcDbEntity
  8
0
 62
7
100
AcDbSpline
 70
8
 71
3
 72
8
 73
4
 74
0
 40
0
 40
0
 40
0
 40
0
 40
1
 40
1
 40
1
 40
1
 10
303.784800
 20
359.648800
 30
0.0
 10
302.894400
 20
359.573600
 30
0.0
 10
301.983200
 20
359.521600
 30
0.0
 10
301.099200
 20
359.626400
 30
0.0
  0
SPLINE
  5
20a
100
AcDbEntity
  8
0
 62
7
100
AcDbSpline
 70
8
 71
3
 72
8
 73
4
 74
0
 40
0
 40
0
 40
0
 40
0
 40
1
 40
1
 40
1
 40
1
 10
301.099200
 20
359.626400
 30
0.0
 10
300.465600
 20
359.701600
 30
0.0
 10
299.868800
 20
360.053600
 30
0.0
 10
299.134400
 20
360.328000
 30
0.0
  0
SPLINE
  5
20b
100
AcDbEntity
  8
0
 62
7
100
AcDbSpline
 70
8
 71
3
 72
8
 73
4
 74
0
 40
0
 40
0
 40
0
 40
0
 40
1
 40
1
 40
1
 40
1
 10
299.134400
 20
360.328000
 30
0.0
 10
298.729600
 20
361.924000
 30
0.0
 10
298.298400
 20
363.624800
 30
0.0
 10
297.740800
 20
365.824800
 30
0.0
  0
SPLINE
  5
20c
100
AcDbEntity
  8
0
 62
7
100
AcDbSpline
 70
8
 71
3
 72
8
 73
4
 74
0
 40
0
 40
0
 40
0
 40
0
 40
1
 40
1
 40
1
 40
1
 10
297.740800
 20
365.824800
 30
0.0
 10
300.400800
 20
366.187200
 30
0.0
 10
302.616800
 20
366.712000
 30
0.0
 10
304.840000
 20
366.744800
 30
0.0
  0
SPLINE
  5
20d
100
AcDbEntity
  8
0
 62
7
100
AcDbSpline
 70
8
 71
3
 72
8
 73
4
 74
0
 40
0
 40
0
 40
0
 40
0
 40
1
 40
1
 40
1
 40
1
 10
304.840000
 20
366.744800
 30
0.0
 10
308.104000
 20
366.791200
 30
0.0
 10
310.470400
 20
368.351200
 30
0.0
 10
312.516800
 20
370.432800
 30
0.0
  0
SPLINE
  5
20e
100
AcDbEntity
  8
0
 62
7
100
AcDbSpline
 70
8
 71
3
 72
8
 73
4
 74
0
 40
0
 40
0
 40
0
 40
0
 40
1
 40
1
 40
1
 40
1
 10
312.516800
 20
370.432800
 30
0.0
 10
313.032800
 20
370.768800
 30
0.0
 10
313.519200
 20
371.170400
 30
0.0
 10
313.963200
 20
371.647200
 30
0.0
  0
SPLINE
  5
20f
100
AcDbEntity
  8
0
 62
7
100
AcDbSpline
 70
8
 71
3
 72
8
 73
4
 74
0
 40
0
 40
0
 40
0
 40
0
 40
1
 40
1
 40
1
 40
1
 10
313.963200
 20
371.647200
 30
0.0
 10
316.485600
 20
374.372800
 30
0.0
 10
317.197600
 20
378.322400
 30
0.0
 10
315.324000
 20
381.648000
 30
0.0
  0
SPLINE
  5
210
100
AcDbEntity
  8
0
 62
7
100
AcDbSpline
 70
8
 71
3
 72
8
 73
4
 74
0
 40
0
 40
0
 40
0
 40
0
 40
1
 40
1
 40
1
 40
1
 10
315.324000
 20
381.648000
 30
0.0
 10
313.470400
 20
384.938400
 30
0.0
 10
309.396800
 20
387.297600
 30
0.0
 10
305.580800
 20
385.972800
 30
0.0
  0
SPLINE
  5
211
100
AcDbEntity
  8
0
 62
7
100
AcDbSpline
 70
8
 71
3
 72
8
 73
4
 74
0
 40
0
 40
0
 40
0
 40
0
 40
1
 40
1
 40
1
 40
1
 10
305.580800
 20
385.972800
 30
0.0
 10
304.624800
 20
385.640000
 30
0.0
 10
303.749600
 20
385.199200
 30
0.0
 10
302.976000
 20
384.660800
 30
0.0
  0
SPLINE
  5
212
100
AcDbEntity
  8
0
 62
7
100
AcDbSpline
 70
8
 71
3
 72
8
 73
4
 74
0
 40
0
 40
0
 40
0
 40
0
 40
1
 40
1
 40
1
 40
1
 10
302.976000
 20
384.660800
 30
0.0
 10
301.595200
 20
383.900000
 30
0.0
 10
299.784000
 20
383.652000
 30
0.0
 10
298.703200
 20
382.228800
 30
0.0
  0
SPLINE
  5
213
100
AcDbEntity
  8
0
 62
7
100
AcDbSpline
 70
8
 71
3
 72
8
 73
4
 74
0
 40
0
 40
0
 40
0
 40
0
 40
1
 40
1
 40
1
 40
1
 10
298.703200
 20
382.228800
 30
0.0
 10
298.047200
 20
381.360800
 30
0.0
 10
297.303200
 20
380.446400
 30
0.0
 10
297.016000
 20
379.432000
 30
0.0
  0
SPLINE
  5
214
100
AcDbEntity
  8
0
 62
7
100
AcDbSpline
 70
8
 71
3
 72
8
 73
4
 74
0
 40
0
 40
0
 40
0
 40
0
 40
1
 40
1
 40
1
 40
1
 10
297.016000
 20
379.432000
 30
0.0
 10
296.265600
 20
376.811200
 30
0.0
 10
295.528000
 20
376.279200
 30
0.0
 10
292.635200
 20
376.804000
 30
0.0
  0
SPLINE
  5
215
100
AcDbEntity
  8
0
 62
7
100
AcDbSpline
 70
8
 71
3
 72
8
 73
4
 74
0
 40
0
 40
0
 40
0
 40
0
 40
1
 40
1
 40
1
 40
1
 10
292.635200
 20
376.804000
 30
0.0
 10
292.165600
 20
379.206400
 30
0.0
 10
293.246400
 20
381.377600
 30
0.0
 10
295.426400
 20
382.212800
 30
0.0
  0
SPLINE
  5
216
100
AcDbEntity
  8
0
 62
7
100
AcDbSpline
 70
8
 71
3
 72
8
 73
4
 74
0
 40
0
 40
0
 40
0
 40
0
 40
1
 40
1
 40
1
 40
1
 10
295.426400
 20
382.212800
 30
0.0
 10
297.286400
 20
382.928000
 30
0.0
 10
298.138400
 20
384.495200
 30
0.0
 10
299.307200
 20
385.956800
 30
0.0
  0
SPLINE
  5
217
100
AcDbEntity
  8
0
 62
7
100
AcDbSpline
 70
8
 71
3
 72
8
 73
4
 74
0
 40
0
 40
0
 40
0
 40
0
 40
1
 40
1
 40
1
 40
1
 10
299.307200
 20
385.956800
 30
0.0
 10
300.711200
 20
387.712800
 30
0.0
 10
300.019200
 20
389.727200
 30
0.0
 10
300.808800
 20
391.528800
 30
0.0
  0
SPLINE
  5
218
100
AcDbEntity
  8
0
 62
7
100
AcDbSpline
 70
8
 71
3
 72
8
 73
4
 74
0
 40
0
 40
0
 40
0
 40
0
 40
1
 40
1
 40
1
 40
1
 10
300.808800
 20
391.528800
 30
0.0
 10
301.258400
 20
392.556800
 30
0.0
 10
300.146400
 20
394.332800
 30
0.0
 10
299.594400
 20
395.712800
 30
0.0
  0
SPLINE
  5
219
100
AcDbEntity
  8
0
 62
7
100
AcDbSpline
 70
8
 71
3
 72
8
 73
4
 74
0
 40
0
 40
0
 40
0
 40
0
 40
1
 40
1
 40
1
 40
1
 10
299.594400
 20
395.712800
 30
0.0
 10
299.290400
 20
396.469600
 30
0.0
 10
298.755200
 20
397.168000
 30
0.0
 10
298.216800
 20
397.798400
 30
0.0
  0
SPLINE
  5
21a
100
AcDbEntity
  8
0
 62
7
100
AcDbSpline
 70
8
 71
3
 72
8
 73
4
 74
0
 40
0
 40
0
 40
0
 40
0
 40
1
 40
1
 40
1
 40
1
 10
298.216800
 20
397.798400
 30
0.0
 10
295.596000
 20
400.852800
 30
0.0
 10
292.034400
 20
400.392800
 30
0.0
 10
288.780000
 20
399.744000
 30
0.0
  0
SPLINE
  5
21b
100
AcDbEntity
  8
0
 62
7
100
AcDbSpline
 70
8
 71
3
 72
8
 73
4
 74
0
 40
0
 40
0
 40
0
 40
0
 40
1
 40
1
 40
1
 40
1
 10
288.780000
 20
399.744000
 30
0.0
 10
287.292000
 20
399.447200
 30
0.0
 10
285.884800
 20
397.746400
 30
0.0
 10
284.863200
 20
396.365600
 30
0.0
  0
SPLINE
  5
21c
100
AcDbEntity
  8
0
 62
7
100
AcDbSpline
 70
8
 71
3
 72
8
 73
4
 74
0
 40
0
 40
0
 40
0
 40
0
 40
1
 40
1
 40
1
 40
1
 10
284.863200
 20
396.365600
 30
0.0
 10
283.375200
 20
394.357600
 30
0.0
 10
282.480000
 20
391.984800
 30
0.0
 10
282.627200
 20
389.389600
 30
0.0
  0
SPLINE
  5
21d
100
AcDbEntity
  8
0
 62
7
100
AcDbSpline
 70
8
 71
3
 72
8
 73
4
 74
0
 40
0
 40
0
 40
0
 40
0
 40
1
 40
1
 40
1
 40
1
 10
282.627200
 20
389.389600
 30
0.0
 10
282.660000
 20
388.796000
 30
0.0
 10
283.061600
 20
388.231200
 30
0.0
 10
283.231200
 20
387.637600
 30
0.0
  0
SPLINE
  5
21e
100
AcDbEntity
  8
0
 62
7
100
AcDbSpline
 70
8
 71
3
 72
8
 73
4
 74
0
 40
0
 40
0
 40
0
 40
0
 40
1
 40
1
 40
1
 40
1
 10
283.231200
 20
387.637600
 30
0.0
 10
283.375200
 20
387.121600
 30
0.0
 10
283.577600
 20
386.560000
 30
0.0
 10
283.495200
 20
386.057600
 30
0.0
  0
SPLINE
  5
21f
100
AcDbEntity
  8
0
 62
7
100
AcDbSpline
 70
8
 71
3
 72
8
 73
4
 74
0
 40
0
 40
0
 40
0
 40
0
 40
1
 40
1
 40
1
 40
1
 10
283.495200
 20
386.057600
 30
0.0
 10
283.260000
 20
384.588800
 30
0.0
 10
282.884800
 20
383.142400
 30
0.0
 10
282.624000
 20
381.676800
 30
0.0
  0
SPLINE
  5
220
100
AcDbEntity
  8
0
 62
7
100
AcDbSpline
 70
8
 71
3
 72
8
 73
4
 74
0
 40
0
 40
0
 40
0
 40
0
 40
1
 40
1
 40
1
 40
1
 10
282.624000
 20
381.676800
 30
0.0
 10
280.992000
 20
380.452800
 30
0.0
 10
279.241600
 20
379.708800
 30
0.0
 10
277.662400
 20
380.413600
 30
0.0
  0
SPLINE
  5
221
100
AcDbEntity
  8
0
 62
7
100
AcDbSpline
 70
8
 71
3
 72
8
 73
4
 74
0
 40
0
 40
0
 40
0
 40
0
 40
1
 40
1
 40
1
 40
1
 10
277.662400
 20
380.413600
 30
0.0
 10
276.830400
 20
381.191200
 30
0.0
 10
276.092800
 20
382.140000
 30
0.0
 10
275.796000
 20
382.764000
 30
0.0
  0
SPLINE
  5
222
100
AcDbEntity
  8
0
 62
7
100
AcDbSpline
 70
8
 71
3
 72
8
 73
4
 74
0
 40
0
 40
0
 40
0
 40
0
 40
1
 40
1
 40
1
 40
1
 10
275.796000
 20
382.764000
 30
0.0
 10
274.382400
 20
385.717600
 30
0.0
 10
275.276800
 20
388.887200
 30
0.0
 10
274.624000
 20
391.821600
 30
0.0
  0
SPLINE
  5
223
100
AcDbEntity
  8
0
 62
7
100
AcDbSpline
 70
8
 71
3
 72
8
 73
4
 74
0
 40
0
 40
0
 40
0
 40
0
 40
1
 40
1
 40
1
 40
1
 10
274.624000
 20
391.821600
 30
0.0
 10
274.007200
 20
394.605600
 30
0.0
 10
272.720800
 20
397.194400
 30
0.0
 10
270.129600
 20
399.123200
 30
0.0
  0
SPLINE
  5
224
100
AcDbEntity
  8
0
 62
7
100
AcDbSpline
 70
8
 71
3
 72
8
 73
4
 74
0
 40
0
 40
0
 40
0
 40
0
 40
1
 40
1
 40
1
 40
1
 10
270.129600
 20
399.123200
 30
0.0
 10
268.265600
 20
400.513600
 30
0.0
 10
266.120800
 20
400.905600
 30
0.0
 10
264.208800
 20
401.956000
 30
0.0
  0
SPLINE
  5
225
100
AcDbEntity
  8
0
 62
7
100
AcDbSpline
 70
8
 71
3
 72
8
 73
4
 74
0
 40
0
 40
0
 40
0
 40
0
 40
1
 40
1
 40
1
 40
1
 10
264.208800
 20
401.956000
 30
0.0
 10
263.865600
 20
402.145600
 30
0.0
 10
263.333600
 20
402.162400
 30
0.0
 10
262.942400
 20
402.057600
 30
0.0
  0
SPLINE
  5
226
100
AcDbEntity
  8
0
 62
7
100
AcDbSpline
 70
8
 71
3
 72
8
 73
4
 74
0
 40
0
 40
0
 40
0
 40
0
 40
1
 40
1
 40
1
 40
1
 10
262.942400
 20
402.057600
 30
0.0
 10
259.544800
 20
401.150400
 30
0.0
 10
256.499200
 20
399.981600
 30
0.0
 10
254.622400
 20
396.482400
 30
0.0
  0
SPLINE
  5
227
100
AcDbEntity
  8
0
 62
7
100
AcDbSpline
 70
8
 71
3
 72
8
 73
4
 74
0
 40
0
 40
0
 40
0
 40
0
 40
1
 40
1
 40
1
 40
1
 10
254.622400
 20
396.482400
 30
0.0
 10
253.164000
 20
393.764000
 30
0.0
 10
253.460800
 20
391.048000
 30
0.0
 10
253.956800
 20
388.518400
 30
0.0
  0
SPLINE
  5
228
100
AcDbEntity
  8
0
 62
7
100
AcDbSpline
 70
8
 71
3
 72
8
 73
4
 74
0
 40
0
 40
0
 40
0
 40
0
 40
1
 40
1
 40
1
 40
1
 10
253.956800
 20
388.518400
 30
0.0
 10
254.449600
 20
386.011200
 30
0.0
 10
256.333600
 20
383.824800
 30
0.0
 10
258.520000
 20
382.284000
 30
0.0
  0
SPLINE
  5
229
100
AcDbEntity
  8
0
 62
7
100
AcDbSpline
 70
8
 71
3
 72
8
 73
4
 74
0
 40
0
 40
0
 40
0
 40
0
 40
1
 40
1
 40
1
 40
1
 10
258.520000
 20
382.284000
 30
0.0
 10
258.931200
 20
381.993600
 30
0.0
 10
259.381600
 20
381.755200
 30
0.0
 10
259.841600
 20
381.536000
 30
0.0
  0
SPLINE
  5
22a
100
AcDbEntity
  8
0
 62
7
100
AcDbSpline
 70
8
 71
3
 72
8
 73
4
 74
0
 40
0
 40
0
 40
0
 40
0
 40
1
 40
1
 40
1
 40
1
 10
259.841600
 20
381.536000
 30
0.0
 10
261.065600
 20
380.436000
 30
0.0
 10
262.400000
 20
379.434400
 30
0.0
 10
263.719200
 20
378.471200
 30
0.0
  0
SPLINE
  5
22b
100
AcDbEntity
  8
0
 62
7
100
AcDbSpline
 70
8
 71
3
 72
8
 73
4
 74
0
 40
0
 40
0
 40
0
 40
0
 40
1
 40
1
 40
1
 40
1
 10
263.719200
 20
378.471200
 30
0.0
 10
263.990400
 20
378.272000
 30
0.0
 10
264.287200
 20
378.138400
 30
0.0
 10
264.597600
 20
378.050400
 30
0.0
  0
SPLINE
  5
22c
100
AcDbEntity
  8
0
 62
7
100
AcDbSpline
 70
8
 71
3
 72
8
 73
4
 74
0
 40
0
 40
0
 40
0
 40
0
 40
1
 40
1
 40
1
 40
1
 10
264.597600
 20
378.050400
 30
0.0
 10
264.692000
 20
377.832000
 30
0.0
 10
264.760800
 20
377.609600
 30
0.0
 10
264.786400
 20
377.395200
 30
0.0
  0
SPLINE
  5
22d
100
AcDbEntity
  8
0
 62
7
100
AcDbSpline
 70
8
 71
3
 72
8
 73
4
 74
0
 40
0
 40
0
 40
0
 40
0
 40
1
 40
1
 40
1
 40
1
 10
264.786400
 20
377.395200
 30
0.0
 10
264.992800
 20
375.704000
 30
0.0
 10
264.770400
 20
374.048800
 30
0.0
 10
264.081600
 20
372.273600
 30
0.0
  0
SPLINE
  5
22e
100
AcDbEntity
  8
0
 62
7
100
AcDbSpline
 70
8
 71
3
 72
8
 73
4
 74
0
 40
0
 40
0
 40
0
 40
0
 40
1
 40
1
 40
1
 40
1
 10
264.081600
 20
372.273600
 30
0.0
 10
264.029600
 20
372.136800
 30
0.0
 10
263.973600
 20
372.012800
 30
0.0
 10
263.915200
 20
371.888800
 30
0.0
  0
SPLINE
  5
22f
100
AcDbEntity
  8
0
 62
7
100
AcDbSpline
 70
8
 71
3
 72
8
 73
4
 74
0
 40
0
 40
0
 40
0
 40
0
 40
1
 40
1
 40
1
 40
1
 10
263.915200
 20
371.888800
 30
0.0
 10
263.546400
 20
371.452000
 30
0.0
 10
263.236000
 20
370.975200
 30
0.0
 10
262.992000
 20
370.472000
 30
0.0
  0
SPLINE
  5
230
100
AcDbEntity
  8
0
 62
7
100
AcDbSpline
 70
8
 71
3
 72
8
 73
4
 74
0
 40
0
 40
0
 40
0
 40
0
 40
1
 40
1
 40
1
 40
1
 10
262.992000
 20
370.472000
 30
0.0
 10
262.593600
 20
370.060800
 30
0.0
 10
262.133600
 20
369.764000
 30
0.0
 10
261.578400
 20
369.532000
 30
0.0
  0
SPLINE
  5
231
100
AcDbEntity
  8
0
 62
7
100
AcDbSpline
 70
8
 71
3
 72
8
 73
4
 74
0
 40
0
 40
0
 40
0
 40
0
 40
1
 40
1
 40
1
 40
1
 10
261.578400
 20
369.532000
 30
0.0
 10
257.484800
 20
370.886400
 30
0.0
 10
252.951200
 20
370.606400
 30
0.0
 10
248.972000
 20
368.924800
 30
0.0
  0
SPLINE
  5
232
100
AcDbEntity
  8
0
 62
7
100
AcDbSpline
 70
8
 71
3
 72
8
 73
4
 74
0
 40
0
 40
0
 40
0
 40
0
 40
1
 40
1
 40
1
 40
1
 10
248.972000
 20
368.924800
 30
0.0
 10
245.972800
 20
368.448000
 30
0.0
 10
243.690400
 20
366.656000
 30
0.0
 10
242.039200
 20
364.015200
 30
0.0
  0
SPLINE
  5
233
100
AcDbEntity
  8
0
 62
7
100
AcDbSpline
 70
8
 71
3
 72
8
 73
4
 74
0
 40
0
 40
0
 40
0
 40
0
 40
1
 40
1
 40
1
 40
1
 10
242.039200
 20
364.015200
 30
0.0
 10
241.373600
 20
362.951200
 30
0.0
 10
241.667200
 20
361.287200
 30
0.0
 10
241.527200
 20
359.896800
 30
0.0
  0
SPLINE
  5
234
100
AcDbEntity
  8
0
 62
7
100
AcDbSpline
 70
8
 71
3
 72
8
 73
4
 74
0
 40
0
 40
0
 40
0
 40
0
 40
1
 40
1
 40
1
 40
1
 10
241.527200
 20
359.896800
 30
0.0
 10
241.106400
 20
355.751200
 30
0.0
 10
243.165600
 20
352.425600
 30
0.0
 10
246.341600
 20
350.620000
 30
0.0
  0
SPLINE
  5
235
100
AcDbEntity
  8
0
 62
7
100
AcDbSpline
 70
8
 71
3
 72
8
 73
4
 74
0
 40
0
 40
0
 40
0
 40
0
 40
1
 40
1
 40
1
 40
1
 10
246.341600
 20
350.620000
 30
0.0
 10
248.757600
 20
349.245600
 30
0.0
 10
251.808800
 20
348.240000
 30
0.0
 10
255.232800
 20
349.752000
 30
0.0
  0
SPLINE
  5
236
100
AcDbEntity
  8
0
 62
7
100
AcDbSpline
 70
8
 71
3
 72
8
 73
4
 74
0
 40
0
 40
0
 40
0
 40
0
 40
1
 40
1
 40
1
 40
1
 10
255.232800
 20
349.752000
 30
0.0
 10
257.458400
 20
350.734400
 30
0.0
 10
259.400800
 20
351.792000
 30
0.0
 10
261.152800
 20
353.371200
 30
0.0
  0
SPLINE
  5
237
100
AcDbEntity
  8
0
 62
7
100
AcDbSpline
 70
8
 71
3
 72
8
 73
4
 74
0
 40
0
 40
0
 40
0
 40
0
 40
1
 40
1
 40
1
 40
1
 10
261.152800
 20
353.371200
 30
0.0
 10
261.780000
 20
353.936000
 30
0.0
 10
262.438400
 20
354.468000
 30
0.0
 10
262.840000
 20
354.804000
 30
0.0
  0
SPLINE
  5
238
100
AcDbEntity
  8
0
 62
7
100
AcDbSpline
 70
8
 71
3
 72
8
 73
4
 74
0
 40
0
 40
0
 40
0
 40
0
 40
1
 40
1
 40
1
 40
1
 10
262.840000
 20
354.804000
 30
0.0
 10
265.033600
 20
352.281600
 30
0.0
 10
266.946400
 20
350.126400
 30
0.0
 10
268.796800
 20
347.920800
 30
0.0
  0
SPLINE
  5
239
100
AcDbEntity
  8
0
 62
7
100
AcDbSpline
 70
8
 71
3
 72
8
 73
4
 74
0
 40
0
 40
0
 40
0
 40
0
 40
1
 40
1
 40
1
 40
1
 10
268.796800
 20
347.920800
 30
0.0
 10
269.100800
 20
347.558400
 30
0.0
 10
269.283200
 20
346.977600
 30
0.0
 10
269.283200
 20
346.497600
 30
0.0
  0
SPLINE
  5
23a
100
AcDbEntity
  8
0
 62
7
100
AcDbSpline
 70
8
 71
3
 72
8
 73
4
 74
0
 40
0
 40
0
 40
0
 40
0
 40
1
 40
1
 40
1
 40
1
 10
269.283200
 20
346.497600
 30
0.0
 10
269.279200
 20
343.792000
 30
0.0
 10
269.264000
 20
341.082400
 30
0.0
 10
269.116000
 20
338.380800
 30
0.0
  0
SPLINE
  5
23b
100
AcDbEntity
  8
0
 62
7
100
AcDbSpline
 70
8
 71
3
 72
8
 73
4
 74
0
 40
0
 40
0
 40
0
 40
0
 40
1
 40
1
 40
1
 40
1
 10
269.116000
 20
338.380800
 30
0.0
 10
269.073600
 20
337.577600
 30
0.0
 10
268.464000
 20
336.820800
 30
0.0
 10
268.326400
 20
336.008000
 30
0.0
  0
SPLINE
  5
23c
100
AcDbEntity
  8
0
 62
7
100
AcDbSpline
 70
8
 71
3
 72
8
 73
4
 74
0
 40
0
 40
0
 40
0
 40
0
 40
1
 40
1
 40
1
 40
1
 10
268.326400
 20
336.008000
 30
0.0
 10
267.951200
 20
333.808000
 30
0.0
 10
268.848800
 20
332.035200
 30
0.0
 10
269.841600
 20
330.044800
 30
0.0
  0
SPLINE
  5
23d
100
AcDbEntity
  8
0
 62
7
100
AcDbSpline
 70
8
 71
3
 72
8
 73
4
 74
0
 40
0
 40
0
 40
0
 40
0
 40
1
 40
1
 40
1
 40
1
 10
269.841600
 20
330.044800
 30
0.0
 10
270.850400
 20
328.017600
 30
0.0
 10
272.704000
 20
326.545600
 30
0.0
 10
273.908800
 20
324.675200
 30
0.0
  0
SPLINE
  5
23e
100
AcDbEntity
  8
0
 62
7
100
AcDbSpline
 70
8
 71
3
 72
8
 73
4
 74
0
 40
0
 40
0
 40
0
 40
0
 40
1
 40
1
 40
1
 40
1
 10
273.908800
 20
324.675200
 30
0.0
 10
273.853600
 20
324.019200
 30
0.0
 10
273.987200
 20
323.314400
 30
0.0
 10
274.385600
 20
322.592000
 30
0.0
  0
SPLINE
  5
23f
100
AcDbEntity
  8
0
 62
7
100
AcDbSpline
 70
8
 71
3
 72
8
 73
4
 74
0
 40
0
 40
0
 40
0
 40
0
 40
1
 40
1
 40
1
 40
1
 10
274.385600
 20
322.592000
 30
0.0
 10
274.516000
 20
322.357600
 30
0.0
 10
274.627200
 20
322.112000
 30
0.0
 10
274.718400
 20
321.864800
 30
0.0
  0
SPLINE
  5
240
100
AcDbEntity
  8
0
 62
7
100
AcDbSpline
 70
8
 71
3
 72
8
 73
4
 74
0
 40
0
 40
0
 40
0
 40
0
 40
1
 40
1
 40
1
 40
1
 10
274.718400
 20
321.864800
 30
0.0
 10
274.548800
 20
321.000000
 30
0.0
 10
274.169600
 20
320.196800
 30
0.0
 10
273.568800
 20
319.609600
 30
0.0
  0
SPLINE
  5
241
100
AcDbEntity
  8
0
 62
7
100
AcDbSpline
 70
8
 71
3
 72
8
 73
4
 74
0
 40
0
 40
0
 40
0
 40
0
 40
1
 40
1
 40
1
 40
1
 10
273.568800
 20
319.609600
 30
0.0
 10
272.860800
 20
318.917600
 30
0.0
 10
272.008800
 20
318.454400
 30
0.0
 10
271.104800
 20
318.225600
 30
0.0
  0
SPLINE
  5
242
100
AcDbEntity
  8
0
 62
7
100
AcDbSpline
 70
8
 71
3
 72
8
 73
4
 74
0
 40
0
 40
0
 40
0
 40
0
 40
1
 40
1
 40
1
 40
1
 10
271.104800
 20
318.225600
 30
0.0
 10
270.099200
 20
318.435200
 30
0.0
 10
269.096800
 20
318.656800
 30
0.0
 10
268.095200
 20
318.868800
 30
0.0
  0
SPLINE
  5
243
100
AcDbEntity
  8
0
 62
7
100
AcDbSpline
 70
8
 71
3
 72
8
 73
4
 74
0
 40
0
 40
0
 40
0
 40
0
 40
1
 40
1
 40
1
 40
1
 10
268.095200
 20
318.868800
 30
0.0
 10
267.687200
 20
318.956800
 30
0.0
 10
267.278400
 20
319.075200
 30
0.0
 10
266.868000
 20
319.111200
 30
0.0
  0
SPLINE
  5
244
100
AcDbEntity
  8
0
 62
7
100
AcDbSpline
 70
8
 71
3
 72
8
 73
4
 74
0
 40
0
 40
0
 40
0
 40
0
 40
1
 40
1
 40
1
 40
1
 10
266.868000
 20
319.111200
 30
0.0
 10
266.640000
 20
319.130400
 30
0.0
 10
266.408000
 20
319.150400
 30
0.0
 10
266.179200
 20
319.169600
 30
0.0
  0
SPLINE
  5
245
100
AcDbEntity
  8
0
 62
7
100
AcDbSpline
 70
8
 71
3
 72
8
 73
4
 74
0
 40
0
 40
0
 40
0
 40
0
 40
1
 40
1
 40
1
 40
1
 10
266.179200
 20
319.169600
 30
0.0
 10
265.702400
 20
319.306400
 30
0.0
 10
265.236000
 20
319.332800
 30
0.0
 10
264.798400
 20
319.270400
 30
0.0
  0
SPLINE
  5
246
100
AcDbEntity
  8
0
 62
7
100
AcDbSpline
 70
8
 71
3
 72
8
 73
4
 74
0
 40
0
 40
0
 40
0
 40
0
 40
1
 40
1
 40
1
 40
1
 10
264.798400
 20
319.270400
 30
0.0
 10
260.757600
 20
319.535200
 30
0.0
 10
256.674400
 20
319.603200
 30
0.0
 10
252.780800
 20
320.500800
 30
0.0
  0
SPLINE
  5
247
100
AcDbEntity
  8
0
 62
7
100
AcDbSpline
 70
8
 71
3
 72
8
 73
4
 74
0
 40
0
 40
0
 40
0
 40
0
 40
1
 40
1
 40
1
 40
1
 10
252.780800
 20
320.500800
 30
0.0
 10
247.460800
 20
321.731200
 30
0.0
 10
242.196000
 20
321.176800
 30
0.0
 10
236.917600
 20
321.206400
 30
0.0
  0
SPLINE
  5
248
100
AcDbEntity
  8
0
 62
7
100
AcDbSpline
 70
8
 71
3
 72
8
 73
4
 74
0
 40
0
 40
0
 40
0
 40
0
 40
1
 40
1
 40
1
 40
1
 10
236.917600
 20
321.206400
 30
0.0
 10
232.935200
 20
321.228800
 30
0.0
 10
228.924800
 20
320.693600
 30
0.0
 10
224.971200
 20
320.087200
 30
0.0
  0
SPLINE
  5
249
100
AcDbEntity
  8
0
 62
7
100
AcDbSpline
 70
8
 71
3
 72
8
 73
4
 74
0
 40
0
 40
0
 40
0
 40
0
 40
1
 40
1
 40
1
 40
1
 10
224.971200
 20
320.087200
 30
0.0
 10
221.955200
 20
319.623200
 30
0.0
 10
218.909600
 20
318.944000
 30
0.0
 10
216.076800
 20
317.851200
 30
0.0
  0
SPLINE
  5
24a
100
AcDbEntity
  8
0
 62
7
100
AcDbSpline
 70
8
 71
3
 72
8
 73
4
 74
0
 40
0
 40
0
 40
0
 40
0
 40
1
 40
1
 40
1
 40
1
 10
216.076800
 20
317.851200
 30
0.0
 10
212.473600
 20
316.457600
 30
0.0
 10
209.062400
 20
314.560800
 30
0.0
 10
205.583200
 20
312.857600
 30
0.0
  0
SPLINE
  5
24b
100
AcDbEntity
  8
0
 62
7
100
AcDbSpline
 70
8
 71
3
 72
8
 73
4
 74
0
 40
0
 40
0
 40
0
 40
0
 40
1
 40
1
 40
1
 40
1
 10
205.583200
 20
312.857600
 30
0.0
 10
201.917600
 20
311.062400
 30
0.0
 10
198.784000
 20
308.503200
 30
0.0
 10
195.856000
 20
305.725600
 30
0.0
  0
SPLINE
  5
24c
100
AcDbEntity
  8
0
 62
7
100
AcDbSpline
 70
8
 71
3
 72
8
 73
4
 74
0
 40
0
 40
0
 40
0
 40
0
 40
1
 40
1
 40
1
 40
1
 10
195.856000
 20
305.725600
 30
0.0
 10
193.960000
 20
303.930400
 30
0.0
 10
192.301600
 20
301.874400
 30
0.0
 10
190.604800
 20
299.879200
 30
0.0
  0
SPLINE
  5
24d
100
AcDbEntity
  8
0
 62
7
100
AcDbSpline
 70
8
 71
3
 72
8
 73
4
 74
0
 40
0
 40
0
 40
0
 40
0
 40
1
 40
1
 40
1
 40
1
 10
190.604800
 20
299.879200
 30
0.0
 10
188.836000
 20
297.803200
 30
0.0
 10
187.053600
 20
295.724800
 30
0.0
 10
185.451200
 20
293.521600
 30
0.0
  0
SPLINE
  5
24e
100
AcDbEntity
  8
0
 62
7
100
AcDbSpline
 70
8
 71
3
 72
8
 73
4
 74
0
 40
0
 40
0
 40
0
 40
0
 40
1
 40
1
 40
1
 40
1
 10
185.451200
 20
293.521600
 30
0.0
 10
184.387200
 20
292.059200
 30
0.0
 10
183.695200
 20
290.336000
 30
0.0
 10
182.722400
 20
288.804800
 30
0.0
  0
SPLINE
  5
24f
100
AcDbEntity
  8
0
 62
7
100
AcDbSpline
 70
8
 71
3
 72
8
 73
4
 74
0
 40
0
 40
0
 40
0
 40
0
 40
1
 40
1
 40
1
 40
1
 10
182.722400
 20
288.804800
 30
0.0
 10
181.580000
 20
287.012800
 30
0.0
 10
180.274400
 20
285.324800
 30
0.0
 10
179.108800
 20
283.546400
 30
0.0
  0
SPLINE
  5
250
100
AcDbEntity
  8
0
 62
7
100
AcDbSpline
 70
8
 71
3
 72
8
 73
4
 74
0
 40
0
 40
0
 40
0
 40
0
 40
1
 40
1
 40
1
 40
1
 10
179.108800
 20
283.546400
 30
0.0
 10
178.093600
 20
281.999200
 30
0.0
 10
177.208800
 20
280.367200
 30
0.0
 10
176.207200
 20
278.810400
 30
0.0
  0
SPLINE
  5
251
100
AcDbEntity
  8
0
 62
7
100
AcDbSpline
 70
8
 71
3
 72
8
 73
4
 74
0
 40
0
 40
0
 40
0
 40
0
 40
1
 40
1
 40
1
 40
1
 10
176.207200
 20
278.810400
 30
0.0
 10
175.303200
 20
277.409600
 30
0.0
 10
174.268800
 20
276.094400
 30
0.0
 10
173.380800
 20
274.684800
 30
0.0
  0
SPLINE
  5
252
100
AcDbEntity
  8
0
 62
7
100
AcDbSpline
 70
8
 71
3
 72
8
 73
4
 74
0
 40
0
 40
0
 40
0
 40
0
 40
1
 40
1
 40
1
 40
1
 10
173.380800
 20
274.684800
 30
0.0
 10
172.414400
 20
273.150400
 30
0.0
 10
171.621600
 20
271.505600
 30
0.0
 10
170.626400
 20
269.991200
 30
0.0
  0
SPLINE
  5
253
100
AcDbEntity
  8
0
 62
7
100
AcDbSpline
 70
8
 71
3
 72
8
 73
4
 74
0
 40
0
 40
0
 40
0
 40
0
 40
1
 40
1
 40
1
 40
1
 10
170.626400
 20
269.991200
 30
0.0
 10
169.467200
 20
268.228800
 30
0.0
 10
168.210400
 20
266.521600
 30
0.0
 10
166.908800
 20
264.860000
 30
0.0
  0
SPLINE
  5
254
100
AcDbEntity
  8
0
 62
7
100
AcDbSpline
 70
8
 71
3
 72
8
 73
4
 74
0
 40
0
 40
0
 40
0
 40
0
 40
1
 40
1
 40
1
 40
1
 10
166.908800
 20
264.860000
 30
0.0
 10
166.220000
 20
263.985600
 30
0.0
 10
165.394400
 20
263.199200
 30
0.0
 10
164.539200
 20
262.474400
 30
0.0
  0
SPLINE
  5
255
100
AcDbEntity
  8
0
 62
7
100
AcDbSpline
 70
8
 71
3
 72
8
 73
4
 74
0
 40
0
 40
0
 40
0
 40
0
 40
1
 40
1
 40
1
 40
1
 10
164.539200
 20
262.474400
 30
0.0
 10
162.727200
 20
260.936800
 30
0.0
 10
161.278400
 20
261.432800
 30
0.0
 10
160.776000
 20
263.754400
 30
0.0
  0
SPLINE
  5
256
100
AcDbEntity
  8
0
 62
7
100
AcDbSpline
 70
8
 71
3
 72
8
 73
4
 74
0
 40
0
 40
0
 40
0
 40
0
 40
1
 40
1
 40
1
 40
1
 10
160.776000
 20
263.754400
 30
0.0
 10
160.322400
 20
265.849600
 30
0.0
 10
160.044800
 20
267.991200
 30
0.0
 10
159.509600
 20
270.064000
 30
0.0
  0
SPLINE
  5
257
100
AcDbEntity
  8
0
 62
7
100
AcDbSpline
 70
8
 71
3
 72
8
 73
4
 74
0
 40
0
 40
0
 40
0
 40
0
 40
1
 40
1
 40
1
 40
1
 10
159.509600
 20
270.064000
 30
0.0
 10
158.980800
 20
272.113600
 30
0.0
 10
158.216800
 20
274.104800
 30
0.0
 10
157.576800
 20
276.124800
 30
0.0
  0
SPLINE
  5
258
100
AcDbEntity
  8
0
 62
7
100
AcDbSpline
 70
8
 71
3
 72
8
 73
4
 74
0
 40
0
 40
0
 40
0
 40
0
 40
1
 40
1
 40
1
 40
1
 10
157.576800
 20
276.124800
 30
0.0
 10
157.465600
 20
276.471200
 30
0.0
 10
157.440000
 20
276.849600
 30
0.0
 10
157.407200
 20
277.215200
 30
0.0
  0
SPLINE
  5
259
100
AcDbEntity
  8
0
 62
7
100
AcDbSpline
 70
8
 71
3
 72
8
 73
4
 74
0
 40
0
 40
0
 40
0
 40
0
 40
1
 40
1
 40
1
 40
1
 10
157.407200
 20
277.215200
 30
0.0
 10
157.133600
 20
280.531200
 30
0.0
 10
155.883200
 20
283.508000
 30
0.0
 10
154.303200
 20
286.387200
 30
0.0
  0
SPLINE
  5
25a
100
AcDbEntity
  8
0
 62
7
100
AcDbSpline
 70
8
 71
3
 72
8
 73
4
 74
0
 40
0
 40
0
 40
0
 40
0
 40
1
 40
1
 40
1
 40
1
 10
154.303200
 20
286.387200
 30
0.0
 10
153.741600
 20
287.408000
 30
0.0
 10
153.451200
 20
288.570400
 30
0.0
 10
152.974400
 20
289.640800
 30
0.0
  0
SPLINE
  5
25b
100
AcDbEntity
  8
0
 62
7
100
AcDbSpline
 70
8
 71
3
 72
8
 73
4
 74
0
 40
0
 40
0
 40
0
 40
0
 40
1
 40
1
 40
1
 40
1
 10
152.974400
 20
289.640800
 30
0.0
 10
152.217600
 20
291.341600
 30
0.0
 10
151.443200
 20
293.032000
 30
0.0
 10
150.614400
 20
294.696800
 30
0.0
  0
SPLINE
  5
25c
100
AcDbEntity
  8
0
 62
7
100
AcDbSpline
 70
8
 71
3
 72
8
 73
4
 74
0
 40
0
 40
0
 40
0
 40
0
 40
1
 40
1
 40
1
 40
1
 10
150.614400
 20
294.696800
 30
0.0
 10
149.928800
 20
296.067200
 30
0.0
 10
149.224000
 20
297.438400
 30
0.0
 10
148.397600
 20
298.731200
 30
0.0
  0
SPLINE
  5
25d
100
AcDbEntity
  8
0
 62
7
100
AcDbSpline
 70
8
 71
3
 72
8
 73
4
 74
0
 40
0
 40
0
 40
0
 40
0
 40
1
 40
1
 40
1
 40
1
 10
148.397600
 20
298.731200
 30
0.0
 10
147.311200
 20
300.431200
 30
0.0
 10
146.103200
 20
302.049600
 30
0.0
 10
144.944800
 20
303.702400
 30
0.0
  0
SPLINE
  5
25e
100
AcDbEntity
  8
0
 62
7
100
AcDbSpline
 70
8
 71
3
 72
8
 73
4
 74
0
 40
0
 40
0
 40
0
 40
0
 40
1
 40
1
 40
1
 40
1
 10
144.944800
 20
303.702400
 30
0.0
 10
143.505600
 20
305.754400
 30
0.0
 10
142.186400
 20
307.909600
 30
0.0
 10
140.590400
 20
309.835200
 30
0.0
  0
SPLINE
  5
25f
100
AcDbEntity
  8
0
 62
7
100
AcDbSpline
 70
8
 71
3
 72
8
 73
4
 74
0
 40
0
 40
0
 40
0
 40
0
 40
1
 40
1
 40
1
 40
1
 10
140.590400
 20
309.835200
 30
0.0
 10
139.144800
 20
311.581600
 30
0.0
 10
137.460000
 20
313.144800
 30
0.0
 10
135.772800
 20
314.672800
 30
0.0
  0
SPLINE
  5
260
100
AcDbEntity
  8
0
 62
7
100
AcDbSpline
 70
8
 71
3
 72
8
 73
4
 74
0
 40
0
 40
0
 40
0
 40
0
 40
1
 40
1
 40
1
 40
1
 10
135.772800
 20
314.672800
 30
0.0
 10
133.758400
 20
316.500000
 30
0.0
 10
131.784000
 20
318.445600
 30
0.0
 10
129.502400
 20
319.888800
 30
0.0
  0
SPLINE
  5
261
100
AcDbEntity
  8
0
 62
7
100
AcDbSpline
 70
8
 71
3
 72
8
 73
4
 74
0
 40
0
 40
0
 40
0
 40
0
 40
1
 40
1
 40
1
 40
1
 10
129.502400
 20
319.888800
 30
0.0
 10
127.600000
 20
321.092800
 30
0.0
 10
125.288800
 20
321.664800
 30
0.0
 10
123.144000
 20
322.480000
 30
0.0
  0
SPLINE
  5
262
100
AcDbEntity
  8
0
 62
7
100
AcDbSpline
 70
8
 71
3
 72
8
 73
4
 74
0
 40
0
 40
0
 40
0
 40
0
 40
1
 40
1
 40
1
 40
1
 10
123.144000
 20
322.480000
 30
0.0
 10
122.155200
 20
322.856000
 30
0.0
 10
121.104000
 20
323.485600
 30
0.0
 10
120.128000
 20
323.407200
 30
0.0
  0
SPLINE
  5
263
100
AcDbEntity
  8
0
 62
7
100
AcDbSpline
 70
8
 71
3
 72
8
 73
4
 74
0
 40
0
 40
0
 40
0
 40
0
 40
1
 40
1
 40
1
 40
1
 10
120.128000
 20
323.407200
 30
0.0
 10
115.751200
 20
323.051200
 30
0.0
 10
111.980800
 20
321.680800
 30
0.0
 10
109.559200
 20
317.489600
 30
0.0
  0
SPLINE
  5
264
100
AcDbEntity
  8
0
 62
7
100
AcDbSpline
 70
8
 71
3
 72
8
 73
4
 74
0
 40
0
 40
0
 40
0
 40
0
 40
1
 40
1
 40
1
 40
1
 10
109.559200
 20
317.489600
 30
0.0
 10
108.028000
 20
314.840000
 30
0.0
 10
105.772800
 20
312.612800
 30
0.0
 10
103.912800
 20
310.145600
 30
0.0
  0
SPLINE
  5
265
100
AcDbEntity
  8
0
 62
7
100
AcDbSpline
 70
8
 71
3
 72
8
 73
4
 74
0
 40
0
 40
0
 40
0
 40
0
 40
1
 40
1
 40
1
 40
1
 10
103.912800
 20
310.145600
 30
0.0
 10
102.904000
 20
308.807200
 30
0.0
 10
102.023200
 20
307.371200
 30
0.0
 10
101.118400
 20
305.957600
 30
0.0
  0
SPLINE
  5
266
100
AcDbEntity
  8
0
 62
7
100
AcDbSpline
 70
8
 71
3
 72
8
 73
4
 74
0
 40
0
 40
0
 40
0
 40
0
 40
1
 40
1
 40
1
 40
1
 10
101.118400
 20
305.957600
 30
0.0
 10
100.158400
 20
304.460000
 30
0.0
 10
99.235200
 20
302.936000
 30
0.0
 10
98.295200
 20
301.424000
 30
0.0
  0
SPLINE
  5
267
100
AcDbEntity
  8
0
 62
7
100
AcDbSpline
 70
8
 71
3
 72
8
 73
4
 74
0
 40
0
 40
0
 40
0
 40
0
 40
1
 40
1
 40
1
 40
1
 10
97.796000
 20
301.476000
 30
0.0
 10
97.796000
 20
301.975200
 30
0.0
 10
97.623200
 20
302.559200
 30
0.0
 10
97.822400
 20
302.960800
 30
0.0
  0
SPLINE
  5
268
100
AcDbEntity
  8
0
 62
7
100
AcDbSpline
 70
8
 71
3
 72
8
 73
4
 74
0
 40
0
 40
0
 40
0
 40
0
 40
1
 40
1
 40
1
 40
1
 10
97.822400
 20
302.960800
 30
0.0
 10
99.300800
 20
305.911200
 30
0.0
 10
98.993600
 20
308.705600
 30
0.0
 10
97.844800
 20
311.757600
 30
0.0
  0
SPLINE
  5
269
100
AcDbEntity
  8
0
 62
7
100
AcDbSpline
 70
8
 71
3
 72
8
 73
4
 74
0
 40
0
 40
0
 40
0
 40
0
 40
1
 40
1
 40
1
 40
1
 10
97.844800
 20
311.757600
 30
0.0
 10
97.244800
 20
313.349600
 30
0.0
 10
96.124800
 20
314.240800
 30
0.0
 10
95.172000
 20
315.360800
 30
0.0
  0
SPLINE
  5
26a
100
AcDbEntity
  8
0
 62
7
100
AcDbSpline
 70
8
 71
3
 72
8
 73
4
 74
0
 40
0
 40
0
 40
0
 40
0
 40
1
 40
1
 40
1
 40
1
 10
95.172000
 20
315.360800
 30
0.0
 10
94.032800
 20
316.699200
 30
0.0
 10
89.652800
 20
316.848800
 30
0.0
 10
87.903200
 20
316.248000
 30
0.0
  0
SPLINE
  5
26b
100
AcDbEntity
  8
0
 62
7
100
AcDbSpline
 70
8
 71
3
 72
8
 73
4
 74
0
 40
0
 40
0
 40
0
 40
0
 40
1
 40
1
 40
1
 40
1
 10
87.903200
 20
316.248000
 30
0.0
 10
86.261600
 20
315.684000
 30
0.0
 10
84.825600
 20
314.998400
 30
0.0
 10
83.875200
 20
313.562400
 30
0.0
  0
SPLINE
  5
26c
100
AcDbEntity
  8
0
 62
7
100
AcDbSpline
 70
8
 71
3
 72
8
 73
4
 74
0
 40
0
 40
0
 40
0
 40
0
 40
1
 40
1
 40
1
 40
1
 10
83.875200
 20
313.562400
 30
0.0
 10
83.196000
 20
312.534400
 30
0.0
 10
82.436000
 20
311.444800
 30
0.0
 10
82.184800
 20
310.281600
 30
0.0
  0
SPLINE
  5
26d
100
AcDbEntity
  8
0
 62
7
100
AcDbSpline
 70
8
 71
3
 72
8
 73
4
 74
0
 40
0
 40
0
 40
0
 40
0
 40
1
 40
1
 40
1
 40
1
 10
82.184800
 20
310.281600
 30
0.0
 10
81.864800
 20
308.806400
 30
0.0
 10
82.018400
 20
307.227200
 30
0.0
 10
81.968800
 20
305.692800
 30
0.0
  0
SPLINE
  5
26e
100
AcDbEntity
  8
0
 62
7
100
AcDbSpline
 70
8
 71
3
 72
8
 73
4
 74
0
 40
0
 40
0
 40
0
 40
0
 40
1
 40
1
 40
1
 40
1
 10
81.968800
 20
305.692800
 30
0.0
 10
81.900800
 20
303.555200
 30
0.0
 10
82.811200
 20
301.851200
 30
0.0
 10
84.008800
 20
300.114400
 30
0.0
  0
SPLINE
  5
26f
100
AcDbEntity
  8
0
 62
7
100
AcDbSpline
 70
8
 71
3
 72
8
 73
4
 74
0
 40
0
 40
0
 40
0
 40
0
 40
1
 40
1
 40
1
 40
1
 10
84.008800
 20
300.114400
 30
0.0
 10
84.968000
 20
298.724000
 30
0.0
 10
85.369600
 20
296.952000
 30
0.0
 10
86.016000
 20
295.352000
 30
0.0
  0
SPLINE
  5
270
100
AcDbEntity
  8
0
 62
7
100
AcDbSpline
 70
8
 71
3
 72
8
 73
4
 74
0
 40
0
 40
0
 40
0
 40
0
 40
1
 40
1
 40
1
 40
1
 10
86.016000
 20
295.352000
 30
0.0
 10
83.290400
 20
294.079200
 30
0.0
 10
82.494400
 20
294.738400
 30
0.0
 10
81.972000
 20
297.392800
 30
0.0
  0
SPLINE
  5
271
100
AcDbEntity
  8
0
 62
7
100
AcDbSpline
 70
8
 71
3
 72
8
 73
4
 74
0
 40
0
 40
0
 40
0
 40
0
 40
1
 40
1
 40
1
 40
1
 10
81.972000
 20
297.392800
 30
0.0
 10
81.142400
 20
301.609600
 30
0.0
 10
79.941600
 20
305.676000
 30
0.0
 10
75.796000
 20
308.186400
 30
0.0
  0
SPLINE
  5
272
100
AcDbEntity
  8
0
 62
7
100
AcDbSpline
 70
8
 71
3
 72
8
 73
4
 74
0
 40
0
 40
0
 40
0
 40
0
 40
1
 40
1
 40
1
 40
1
 10
75.796000
 20
308.186400
 30
0.0
 10
72.571200
 20
310.137600
 30
0.0
 10
67.740800
 20
309.482400
 30
0.0
 10
65.439200
 20
306.568000
 30
0.0
  0
SPLINE
  5
273
100
AcDbEntity
  8
0
 62
7
100
AcDbSpline
 70
8
 71
3
 72
8
 73
4
 74
0
 40
0
 40
0
 40
0
 40
0
 40
1
 40
1
 40
1
 40
1
 10
65.439200
 20
306.568000
 30
0.0
 10
63.376000
 20
303.956000
 30
0.0
 10
62.792000
 20
300.999200
 30
0.0
 10
63.416000
 20
297.944800
 30
0.0
  0
SPLINE
  5
274
100
AcDbEntity
  8
0
 62
7
100
AcDbSpline
 70
8
 71
3
 72
8
 73
4
 74
0
 40
0
 40
0
 40
0
 40
0
 40
1
 40
1
 40
1
 40
1
 10
63.416000
 20
297.944800
 30
0.0
 10
63.852800
 20
295.803200
 30
0.0
 10
65.106400
 20
293.799200
 30
0.0
 10
67.120800
 20
292.624800
 30
0.0
  0
SPLINE
  5
275
100
AcDbEntity
  8
0
 62
7
100
AcDbSpline
 70
8
 71
3
 72
8
 73
4
 74
0
 40
0
 40
0
 40
0
 40
0
 40
1
 40
1
 40
1
 40
1
 10
67.120800
 20
292.624800
 30
0.0
 10
68.132800
 20
292.033600
 30
0.0
 10
69.379200
 20
291.864000
 30
0.0
 10
70.466400
 20
291.387200
 30
0.0
  0
SPLINE
  5
276
100
AcDbEntity
  8
0
 62
7
100
AcDbSpline
 70
8
 71
3
 72
8
 73
4
 74
0
 40
0
 40
0
 40
0
 40
0
 40
1
 40
1
 40
1
 40
1
 10
70.466400
 20
291.387200
 30
0.0
 10
71.367200
 20
290.992800
 30
0.0
 10
72.307200
 20
290.538400
 30
0.0
 10
72.992800
 20
289.870400
 30
0.0
  0
SPLINE
  5
277
100
AcDbEntity
  8
0
 62
7
100
AcDbSpline
 70
8
 71
3
 72
8
 73
4
 74
0
 40
0
 40
0
 40
0
 40
0
 40
1
 40
1
 40
1
 40
1
 10
72.992800
 20
289.870400
 30
0.0
 10
73.270400
 20
289.599200
 30
0.0
 10
73.143200
 20
288.508800
 30
0.0
 10
72.820000
 20
288.091200
 30
0.0
  0
SPLINE
  5
278
100
AcDbEntity
  8
0
 62
7
100
AcDbSpline
 70
8
 71
3
 72
8
 73
4
 74
0
 40
0
 40
0
 40
0
 40
0
 40
1
 40
1
 40
1
 40
1
 10
72.820000
 20
288.091200
 30
0.0
 10
70.809600
 20
285.508800
 30
0.0
 10
66.951200
 20
286.184800
 30
0.0
 10
65.463200
 20
289.194400
 30
0.0
  0
SPLINE
  5
279
100
AcDbEntity
  8
0
 62
7
100
AcDbSpline
 70
8
 71
3
 72
8
 73
4
 74
0
 40
0
 40
0
 40
0
 40
0
 40
1
 40
1
 40
1
 40
1
 10
65.463200
 20
289.194400
 30
0.0
 10
65.035200
 20
290.059200
 30
0.0
 10
64.137600
 20
290.751200
 30
0.0
 10
63.325600
 20
291.351200
 30
0.0
  0
SPLINE
  5
27a
100
AcDbEntity
  8
0
 62
7
100
AcDbSpline
 70
8
 71
3
 72
8
 73
4
 74
0
 40
0
 40
0
 40
0
 40
0
 40
1
 40
1
 40
1
 40
1
 10
63.325600
 20
291.351200
 30
0.0
 10
61.142400
 20
292.967200
 30
0.0
 10
58.569600
 20
292.588800
 30
0.0
 10
56.076000
 20
292.624800
 30
0.0
  0
SPLINE
  5
27b
100
AcDbEntity
  8
0
 62
7
100
AcDbSpline
 70
8
 71
3
 72
8
 73
4
 74
0
 40
0
 40
0
 40
0
 40
0
 40
1
 40
1
 40
1
 40
1
 10
56.076000
 20
292.624800
 30
0.0
 10
54.007200
 20
292.653600
 30
0.0
 10
52.400800
 20
291.799200
 30
0.0
 10
50.977600
 20
290.369600
 30
0.0
  0
SPLINE
  5
27c
100
AcDbEntity
  8
0
 62
7
100
AcDbSpline
 70
8
 71
3
 72
8
 73
4
 74
0
 40
0
 40
0
 40
0
 40
0
 40
1
 40
1
 40
1
 40
1
 10
50.977600
 20
290.369600
 30
0.0
 10
49.744000
 20
289.132000
 30
0.0
 10
48.852800
 20
287.781600
 30
0.0
 10
48.856000
 20
285.966400
 30
0.0
  0
SPLINE
  5
27d
100
AcDbEntity
  8
0
 62
7
100
AcDbSpline
 70
8
 71
3
 72
8
 73
4
 74
0
 40
0
 40
0
 40
0
 40
0
 40
1
 40
1
 40
1
 40
1
 10
48.856000
 20
285.966400
 30
0.0
 10
48.856000
 20
285.659200
 30
0.0
 10
48.869600
 20
285.343200
 30
0.0
 10
48.813600
 20
285.046400
 30
0.0
  0
SPLINE
  5
27e
100
AcDbEntity
  8
0
 62
7
100
AcDbSpline
 70
8
 71
3
 72
8
 73
4
 74
0
 40
0
 40
0
 40
0
 40
0
 40
1
 40
1
 40
1
 40
1
 10
48.813600
 20
285.046400
 30
0.0
 10
47.988000
 20
280.698400
 30
0.0
 10
50.912000
 20
278.432800
 30
0.0
 10
53.797600
 20
276.200000
 30
0.0
  0
SPLINE
  5
27f
100
AcDbEntity
  8
0
 62
7
100
AcDbSpline
 70
8
 71
3
 72
8
 73
4
 74
0
 40
0
 40
0
 40
0
 40
0
 40
1
 40
1
 40
1
 40
1
 10
53.797600
 20
276.200000
 30
0.0
 10
54.212000
 20
275.877600
 30
0.0
 10
54.998400
 20
276.076800
 30
0.0
 10
55.592800
 20
275.936000
 30
0.0
  0
SPLINE
  5
280
100
AcDbEntity
  8
0
 62
7
100
AcDbSpline
 70
8
 71
3
 72
8
 73
4
 74
0
 40
0
 40
0
 40
0
 40
0
 40
1
 40
1
 40
1
 40
1
 10
55.592800
 20
275.936000
 30
0.0
 10
56.324000
 20
275.763200
 30
0.0
 10
57.025600
 20
275.469600
 30
0.0
 10
57.750400
 20
275.263200
 30
0.0
  0
SPLINE
  5
281
100
AcDbEntity
  8
0
 62
7
100
AcDbSpline
 70
8
 71
3
 72
8
 73
4
 74
0
 40
0
 40
0
 40
0
 40
0
 40
1
 40
1
 40
1
 40
1
 10
57.750400
 20
275.263200
 30
0.0
 10
58.142400
 20
275.152000
 30
0.0
 10
58.583200
 20
274.985600
 30
0.0
 10
58.951200
 20
275.068000
 30
0.0
  0
SPLINE
  5
282
100
AcDbEntity
  8
0
 62
7
100
AcDbSpline
 70
8
 71
3
 72
8
 73
4
 74
0
 40
0
 40
0
 40
0
 40
0
 40
1
 40
1
 40
1
 40
1
 10
58.951200
 20
275.068000
 30
0.0
 10
60.269600
 20
275.357600
 30
0.0
 10
61.562400
 20
275.756000
 30
0.0
 10
62.871200
 20
276.088800
 30
0.0
  0
SPLINE
  5
283
100
AcDbEntity
  8
0
 62
7
100
AcDbSpline
 70
8
 71
3
 72
8
 73
4
 74
0
 40
0
 40
0
 40
0
 40
0
 40
1
 40
1
 40
1
 40
1
 10
62.871200
 20
276.088800
 30
0.0
 10
64.503200
 20
276.506400
 30
0.0
 10
66.138400
 20
276.905600
 30
0.0
 10
68.005600
 20
277.368800
 30
0.0
  0
SPLINE
  5
284
100
AcDbEntity
  8
0
 62
7
100
AcDbSpline
 70
8
 71
3
 72
8
 73
4
 74
0
 40
0
 40
0
 40
0
 40
0
 40
1
 40
1
 40
1
 40
1
 10
68.005600
 20
277.368800
 30
0.0
 10
68.276000
 20
277.257600
 30
0.0
 10
68.547200
 20
277.144000
 30
0.0
 10
68.815200
 20
277.032800
 30
0.0
  0
SPLINE
  5
285
100
AcDbEntity
  8
0
 62
7
100
AcDbSpline
 70
8
 71
3
 72
8
 73
4
 74
0
 40
0
 40
0
 40
0
 40
0
 40
1
 40
1
 40
1
 40
1
 10
68.815200
 20
277.032800
 30
0.0
 10
68.824800
 20
275.132800
 30
0.0
 10
68.877600
 20
273.683200
 30
0.0
 10
68.785600
 20
272.253600
 30
0.0
  0
SPLINE
  5
286
100
AcDbEntity
  8
0
 62
7
100
AcDbSpline
 70
8
 71
3
 72
8
 73
4
 74
0
 40
0
 40
0
 40
0
 40
0
 40
1
 40
1
 40
1
 40
1
 10
68.785600
 20
272.253600
 30
0.0
 10
68.727200
 20
271.320000
 30
0.0
 10
66.154400
 20
269.338400
 30
0.0
 10
65.077600
 20
269.300000
 30
0.0
  0
SPLINE
  5
287
100
AcDbEntity
  8
0
 62
7
100
AcDbSpline
 70
8
 71
3
 72
8
 73
4
 74
0
 40
0
 40
0
 40
0
 40
0
 40
1
 40
1
 40
1
 40
1
 10
65.077600
 20
269.300000
 30
0.0
 10
60.625600
 20
269.140800
 30
0.0
 10
57.168800
 20
266.897600
 30
0.0
 10
54.684800
 20
263.529600
 30
0.0
  0
SPLINE
  5
288
100
AcDbEntity
  8
0
 62
7
100
AcDbSpline
 70
8
 71
3
 72
8
 73
4
 74
0
 40
0
 40
0
 40
0
 40
0
 40
1
 40
1
 40
1
 40
1
 10
54.684800
 20
263.529600
 30
0.0
 10
52.511200
 20
260.579200
 30
0.0
 10
52.426400
 20
256.652000
 30
0.0
 10
53.640000
 20
253.476800
 30
0.0
  0
SPLINE
  5
289
100
AcDbEntity
  8
0
 62
7
100
AcDbSpline
 70
8
 71
3
 72
8
 73
4
 74
0
 40
0
 40
0
 40
0
 40
0
 40
1
 40
1
 40
1
 40
1
 10
53.640000
 20
253.476800
 30
0.0
 10
54.580000
 20
251.028000
 30
0.0
 10
56.662400
 20
248.450400
 30
0.0
 10
60.050400
 20
248.221600
 30
0.0
  0
SPLINE
  5
28a
100
AcDbEntity
  8
0
 62
7
100
AcDbSpline
 70
8
 71
3
 72
8
 73
4
 74
0
 40
0
 40
0
 40
0
 40
0
 40
1
 40
1
 40
1
 40
1
 10
60.050400
 20
248.221600
 30
0.0
 10
60.438400
 20
248.196000
 30
0.0
 10
60.811200
 20
247.935200
 30
0.0
 10
61.192800
 20
247.788000
 30
0.0
  0
SPLINE
  5
28b
100
AcDbEntity
  8
0
 62
7
100
AcDbSpline
 70
8
 71
3
 72
8
 73
4
 74
0
 40
0
 40
0
 40
0
 40
0
 40
1
 40
1
 40
1
 40
1
 10
61.192800
 20
247.788000
 30
0.0
 10
61.577600
 20
247.640800
 30
0.0
 10
62.008800
 20
247.301600
 30
0.0
 10
62.342400
 20
247.382400
 30
0.0
  0
SPLINE
  5
28c
100
AcDbEntity
  8
0
 62
7
100
AcDbSpline
 70
8
 71
3
 72
8
 73
4
 74
0
 40
0
 40
0
 40
0
 40
0
 40
1
 40
1
 40
1
 40
1
 10
62.342400
 20
247.382400
 30
0.0
 10
66.092800
 20
248.290400
 30
0.0
 10
69.598400
 20
249.756000
 30
0.0
 10
71.928800
 20
252.993600
 30
0.0
  0
SPLINE
  5
28d
100
AcDbEntity
  8
0
 62
7
100
AcDbSpline
 70
8
 71
3
 72
8
 73
4
 74
0
 40
0
 40
0
 40
0
 40
0
 40
1
 40
1
 40
1
 40
1
 10
71.928800
 20
252.993600
 30
0.0
 10
72.705600
 20
254.074400
 30
0.0
 10
72.862400
 20
255.601600
 30
0.0
 10
73.319200
 20
256.916800
 30
0.0
  0
SPLINE
  5
28e
100
AcDbEntity
  8
0
 62
7
100
AcDbSpline
 70
8
 71
3
 72
8
 73
4
 74
0
 40
0
 40
0
 40
0
 40
0
 40
1
 40
1
 40
1
 40
1
 10
73.319200
 20
256.916800
 30
0.0
 10
73.698400
 20
258.007200
 30
0.0
 10
74.383200
 20
258.833600
 30
0.0
 10
75.153600
 20
259.590400
 30
0.0
  0
SPLINE
  5
28f
100
AcDbEntity
  8
0
 62
7
100
AcDbSpline
 70
8
 71
3
 72
8
 73
4
 74
0
 40
0
 40
0
 40
0
 40
0
 40
1
 40
1
 40
1
 40
1
 10
75.153600
 20
259.590400
 30
0.0
 10
76.132800
 20
259.948800
 30
0.0
 10
76.925600
 20
260.712800
 30
0.0
 10
77.324000
 20
261.672800
 30
0.0
  0
SPLINE
  5
290
100
AcDbEntity
  8
0
 62
7
100
AcDbSpline
 70
8
 71
3
 72
8
 73
4
 74
0
 40
0
 40
0
 40
0
 40
0
 40
1
 40
1
 40
1
 40
1
 10
77.324000
 20
261.672800
 30
0.0
 10
78.410400
 20
262.860800
 30
0.0
 10
79.524000
 20
262.744000
 30
0.0
 10
80.751200
 20
262.375200
 30
0.0
  0
SPLINE
  5
291
100
AcDbEntity
  8
0
 62
7
100
AcDbSpline
 70
8
 71
3
 72
8
 73
4
 74
0
 40
0
 40
0
 40
0
 40
0
 40
1
 40
1
 40
1
 40
1
 10
80.751200
 20
262.375200
 30
0.0
 10
81.220800
 20
262.234400
 30
0.0
 10
81.668000
 20
262.006400
 30
0.0
 10
82.190400
 20
261.728000
 30
0.0
  0
SPLINE
  5
292
100
AcDbEntity
  8
0
 62
7
100
AcDbSpline
 70
8
 71
3
 72
8
 73
4
 74
0
 40
0
 40
0
 40
0
 40
0
 40
1
 40
1
 40
1
 40
1
 10
82.190400
 20
261.728000
 30
0.0
 10
82.562400
 20
260.468800
 30
0.0
 10
82.935200
 20
259.211200
 30
0.0
 10
83.304000
 20
257.952000
 30
0.0
  0
SPLINE
  5
293
100
AcDbEntity
  8
0
 62
7
100
AcDbSpline
 70
8
 71
3
 72
8
 73
4
 74
0
 40
0
 40
0
 40
0
 40
0
 40
1
 40
1
 40
1
 40
1
 10
83.304000
 20
257.952000
 30
0.0
 10
83.284800
 20
255.530400
 30
0.0
 10
83.271200
 20
253.104000
 30
0.0
 10
83.228800
 20
250.682400
 30
0.0
  0
SPLINE
  5
294
100
AcDbEntity
  8
0
 62
7
100
AcDbSpline
 70
8
 71
3
 72
8
 73
4
 74
0
 40
0
 40
0
 40
0
 40
0
 40
1
 40
1
 40
1
 40
1
 10
83.228800
 20
250.682400
 30
0.0
 10
83.156800
 20
246.655200
 30
0.0
 10
84.801600
 20
243.427200
 30
0.0
 10
87.853600
 20
240.900000
 30
0.0
  0
SPLINE
  5
295
100
AcDbEntity
  8
0
 62
7
100
AcDbSpline
 70
8
 71
3
 72
8
 73
4
 74
0
 40
0
 40
0
 40
0
 40
0
 40
1
 40
1
 40
1
 40
1
 10
87.853600
 20
240.900000
 30
0.0
 10
88.261600
 20
240.564000
 30
0.0
 10
89.008800
 20
240.636000
 30
0.0
 10
89.600000
 20
240.524800
 30
0.0
  0
SPLINE
  5
296
100
AcDbEntity
  8
0
 62
7
100
AcDbSpline
 70
8
 71
3
 72
8
 73
4
 74
0
 40
0
 40
0
 40
0
 40
0
 40
1
 40
1
 40
1
 40
1
 10
89.600000
 20
240.524800
 30
0.0
 10
89.785600
 20
240.488800
 30
0.0
 10
89.975200
 20
240.452800
 30
0.0
 10
90.161600
 20
240.420000
 30
0.0
  0
SPLINE
  5
297
100
AcDbEntity
  8
0
 62
7
100
AcDbSpline
 70
8
 71
3
 72
8
 73
4
 74
0
 40
0
 40
0
 40
0
 40
0
 40
1
 40
1
 40
1
 40
1
 10
90.161600
 20
240.420000
 30
0.0
 10
94.828800
 20
238.791200
 30
0.0
 10
100.636000
 20
240.576800
 30
0.0
 10
103.456000
 20
244.634400
 30
0.0
  0
SPLINE
  5
298
100
AcDbEntity
  8
0
 62
7
100
AcDbSpline
 70
8
 71
3
 72
8
 73
4
 74
0
 40
0
 40
0
 40
0
 40
0
 40
1
 40
1
 40
1
 40
1
 10
103.456000
 20
244.634400
 30
0.0
 10
103.619200
 20
244.856000
 30
0.0
 10
103.776000
 20
245.087200
 30
0.0
 10
103.919200
 20
245.329600
 30
0.0
  0
SPLINE
  5
299
100
AcDbEntity
  8
0
 62
7
100
AcDbSpline
 70
8
 71
3
 72
8
 73
4
 74
0
 40
0
 40
0
 40
0
 40
0
 40
1
 40
1
 40
1
 40
1
 10
103.919200
 20
245.329600
 30
0.0
 10
105.084800
 20
247.291200
 30
0.0
 10
106.086400
 20
249.677600
 30
0.0
 10
105.143200
 20
252.121600
 30
0.0
  0
SPLINE
  5
29a
100
AcDbEntity
  8
0
 62
7
100
AcDbSpline
 70
8
 71
3
 72
8
 73
4
 74
0
 40
0
 40
0
 40
0
 40
0
 40
1
 40
1
 40
1
 40
1
 10
105.143200
 20
252.121600
 30
0.0
 10
104.876000
 20
254.429600
 30
0.0
 10
103.944800
 20
256.644800
 30
0.0
 10
102.276800
 20
258.329600
 30
0.0
  0
SPLINE
  5
29b
100
AcDbEntity
  8
0
 62
7
100
AcDbSpline
 70
8
 71
3
 72
8
 73
4
 74
0
 40
0
 40
0
 40
0
 40
0
 40
1
 40
1
 40
1
 40
1
 10
102.276800
 20
258.329600
 30
0.0
 10
101.597600
 20
259.282400
 30
0.0
 10
100.720000
 20
260.056000
 30
0.0
 10
99.535200
 20
260.579200
 30
0.0
  0
SPLINE
  5
29c
100
AcDbEntity
  8
0
 62
7
100
AcDbSpline
 70
8
 71
3
 72
8
 73
4
 74
0
 40
0
 40
0
 40
0
 40
0
 40
1
 40
1
 40
1
 40
1
 10
99.535200
 20
260.579200
 30
0.0
 10
98.774400
 20
260.912000
 30
0.0
 10
97.710400
 20
261.712000
 30
0.0
 10
97.700800
 20
262.312000
 30
0.0
  0
SPLINE
  5
29d
100
AcDbEntity
  8
0
 62
7
100
AcDbSpline
 70
8
 71
3
 72
8
 73
4
 74
0
 40
0
 40
0
 40
0
 40
0
 40
1
 40
1
 40
1
 40
1
 10
97.700800
 20
262.312000
 30
0.0
 10
97.688000
 20
263.170400
 30
0.0
 10
98.311200
 20
264.312800
 30
0.0
 10
99.023200
 20
264.858400
 30
0.0
  0
SPLINE
  5
29e
100
AcDbEntity
  8
0
 62
7
100
AcDbSpline
 70
8
 71
3
 72
8
 73
4
 74
0
 40
0
 40
0
 40
0
 40
0
 40
1
 40
1
 40
1
 40
1
 10
99.023200
 20
264.858400
 30
0.0
 10
101.663200
 20
266.872800
 30
0.0
 10
104.467200
 20
268.676800
 30
0.0
 10
107.186400
 20
270.593600
 30
0.0
  0
SPLINE
  5
29f
100
AcDbEntity
  8
0
 62
7
100
AcDbSpline
 70
8
 71
3
 72
8
 73
4
 74
0
 40
0
 40
0
 40
0
 40
0
 40
1
 40
1
 40
1
 40
1
 10
107.186400
 20
270.593600
 30
0.0
 10
108.518400
 20
271.533600
 30
0.0
 10
109.755200
 20
272.620000
 30
0.0
 10
111.125600
 20
273.498400
 30
0.0
  0
SPLINE
  5
2a0
100
AcDbEntity
  8
0
 62
7
100
AcDbSpline
 70
8
 71
3
 72
8
 73
4
 74
0
 40
0
 40
0
 40
0
 40
0
 40
1
 40
1
 40
1
 40
1
 10
111.125600
 20
273.498400
 30
0.0
 10
111.879200
 20
273.981600
 30
0.0
 10
112.806400
 20
274.203200
 30
0.0
 10
114.036800
 20
274.670400
 30
0.0
  0
SPLINE
  5
2a1
100
AcDbEntity
  8
0
 62
7
100
AcDbSpline
 70
8
 71
3
 72
8
 73
4
 74
0
 40
0
 40
0
 40
0
 40
0
 40
1
 40
1
 40
1
 40
1
 10
114.036800
 20
274.670400
 30
0.0
 10
114.102400
 20
274.664000
 30
0.0
 10
114.170400
 20
274.653600
 30
0.0
 10
114.236000
 20
274.648000
 30
0.0
  0
SPLINE
  5
2a2
100
AcDbEntity
  8
0
 62
7
100
AcDbSpline
 70
8
 71
3
 72
8
 73
4
 74
0
 40
0
 40
0
 40
0
 40
0
 40
1
 40
1
 40
1
 40
1
 10
114.236000
 20
274.648000
 30
0.0
 10
114.552800
 20
273.668000
 30
0.0
 10
114.957600
 20
272.578400
 30
0.0
 10
115.228000
 20
271.456000
 30
0.0
  0
SPLINE
  5
2a3
100
AcDbEntity
  8
0
 62
7
100
AcDbSpline
 70
8
 71
3
 72
8
 73
4
 74
0
 40
0
 40
0
 40
0
 40
0
 40
1
 40
1
 40
1
 40
1
 10
115.228000
 20
271.456000
 30
0.0
 10
115.384800
 20
270.812800
 30
0.0
 10
115.254400
 20
270.104800
 30
0.0
 10
115.328800
 20
269.432000
 30
0.0
  0
SPLINE
  5
2a4
100
AcDbEntity
  8
0
 62
7
100
AcDbSpline
 70
8
 71
3
 72
8
 73
4
 74
0
 40
0
 40
0
 40
0
 40
0
 40
1
 40
1
 40
1
 40
1
 10
115.328800
 20
269.432000
 30
0.0
 10
115.720800
 20
265.952800
 30
0.0
 10
115.995200
 20
262.453600
 30
0.0
 10
116.592000
 20
259.010400
 30
0.0
  0
SPLINE
  5
2a5
100
AcDbEntity
  8
0
 62
7
100
AcDbSpline
 70
8
 71
3
 72
8
 73
4
 74
0
 40
0
 40
0
 40
0
 40
0
 40
1
 40
1
 40
1
 40
1
 10
116.592000
 20
259.010400
 30
0.0
 10
117.117600
 20
255.992000
 30
0.0
 10
117.868000
 20
252.988800
 30
0.0
 10
118.792000
 20
250.064000
 30
0.0
  0
SPLINE
  5
2a6
100
AcDbEntity
  8
0
 62
7
100
AcDbSpline
 70
8
 71
3
 72
8
 73
4
 74
0
 40
0
 40
0
 40
0
 40
0
 40
1
 40
1
 40
1
 40
1
 10
118.792000
 20
250.064000
 30
0.0
 10
119.346400
 20
248.300800
 30
0.0
 10
120.025600
 20
246.568000
 30
0.0
 10
120.756800
 20
244.860800
 30
0.0
  0
SPLINE
  5
2a7
100
AcDbEntity
  8
0
 62
7
100
AcDbSpline
 70
8
 71
3
 72
8
 73
4
 74
0
 40
0
 40
0
 40
0
 40
0
 40
1
 40
1
 40
1
 40
1
 10
120.756800
 20
244.860800
 30
0.0
 10
121.880000
 20
239.768800
 30
0.0
 10
123.476000
 20
234.772000
 30
0.0
 10
125.512800
 20
229.993600
 30
0.0
  0
SPLINE
  5
2a8
100
AcDbEntity
  8
0
 62
7
100
AcDbSpline
 70
8
 71
3
 72
8
 73
4
 74
0
 40
0
 40
0
 40
0
 40
0
 40
1
 40
1
 40
1
 40
1
 10
125.512800
 20
229.993600
 30
0.0
 10
125.376000
 20
229.820000
 30
0.0
 10
125.235200
 20
229.653600
 30
0.0
 10
125.095200
 20
229.496800
 30
0.0
  0
SPLINE
  5
2a9
100
AcDbEntity
  8
0
 62
7
100
AcDbSpline
 70
8
 71
3
 72
8
 73
4
 74
0
 40
0
 40
0
 40
0
 40
0
 40
1
 40
1
 40
1
 40
1
 10
125.095200
 20
229.496800
 30
0.0
 10
123.414400
 20
227.597600
 30
0.0
 10
121.566400
 20
225.796000
 30
0.0
 10
119.572800
 20
224.232800
 30
0.0
  0
SPLINE
  5
2aa
100
AcDbEntity
  8
0
 62
7
100
AcDbSpline
 70
8
 71
3
 72
8
 73
4
 74
0
 40
0
 40
0
 40
0
 40
0
 40
1
 40
1
 40
1
 40
1
 10
119.572800
 20
224.232800
 30
0.0
 10
118.162400
 20
223.125600
 30
0.0
 10
116.373600
 20
222.516000
 30
0.0
 10
114.791200
 20
221.615200
 30
0.0
  0
SPLINE
  5
2ab
100
AcDbEntity
  8
0
 62
7
100
AcDbSpline
 70
8
 71
3
 72
8
 73
4
 74
0
 40
0
 40
0
 40
0
 40
0
 40
1
 40
1
 40
1
 40
1
 10
114.791200
 20
221.615200
 30
0.0
 10
114.020800
 20
221.174400
 30
0.0
 10
113.266400
 20
220.700800
 30
0.0
 10
112.512800
 20
220.228000
 30
0.0
  0
LWPOLYLINE
  5
2ac
100
AcDbEntity
  8
0
 62
7
100
AcDbPolyline
 90
2
 70
1
 10
98.295200
 20
301.424000
 30
0.0
 10
97.796000
 20
301.476000
 30
0.0
  0
SPLINE
  5
2ad
100
AcDbEntity
  8
0
 62
7
100
AcDbSpline
 70
8
 71
3
 72
8
 73
4
 74
0
 40
0
 40
0
 40
0
 40
0
 40
1
 40
1
 40
1
 40
1
 10
91.982400
 20
210.638400
 30
0.0
 10
89.998400
 20
209.868000
 30
0.0
 10
88.016800
 20
209.094400
 30
0.0
 10
86.081600
 20
208.210400
 30
0.0
  0
SPLINE
  5
2ae
100
AcDbEntity
  8
0
 62
7
100
AcDbSpline
 70
8
 71
3
 72
8
 73
4
 74
0
 40
0
 40
0
 40
0
 40
0
 40
1
 40
1
 40
1
 40
1
 10
86.081600
 20
208.210400
 30
0.0
 10
83.930400
 20
207.227200
 30
0.0
 10
81.880800
 20
206.024000
 30
0.0
 10
79.775200
 20
204.936000
 30
0.0
  0
LWPOLYLINE
  5
2af
100
AcDbEntity
  8
0
 62
7
100
AcDbPolyline
 90
2
 70
1
 10
112.512800
 20
220.228000
 30
0.0
 10
91.982400
 20
210.638400
 30
0.0
  0
SPLINE
  5
2b0
100
AcDbEntity
  8
0
 62
7
100
AcDbSpline
 70
8
 71
3
 72
8
 73
4
 74
0
 40
0
 40
0
 40
0
 40
0
 40
1
 40
1
 40
1
 40
1
 10
78.698400
 20
204.433600
 30
0.0
 10
78.525600
 20
204.408000
 30
0.0
 10
78.355200
 20
204.375200
 30
0.0
 10
78.182400
 20
204.348800
 30
0.0
  0
SPLINE
  5
2b1
100
AcDbEntity
  8
0
 62
7
100
AcDbSpline
 70
8
 71
3
 72
8
 73
4
 74
0
 40
0
 40
0
 40
0
 40
0
 40
1
 40
1
 40
1
 40
1
 10
78.182400
 20
204.348800
 30
0.0
 10
76.687200
 20
204.114400
 30
0.0
 10
75.208800
 20
203.408800
 30
0.0
 10
73.864000
 20
202.456000
 30
0.0
  0
SPLINE
  5
2b2
100
AcDbEntity
  8
0
 62
7
100
AcDbSpline
 70
8
 71
3
 72
8
 73
4
 74
0
 40
0
 40
0
 40
0
 40
0
 40
1
 40
1
 40
1
 40
1
 10
73.864000
 20
202.456000
 30
0.0
 10
73.168800
 20
202.192000
 30
0.0
 10
72.480000
 20
201.914400
 30
0.0
 10
71.811200
 20
201.597600
 30
0.0
  0
SPLINE
  5
2b3
100
AcDbEntity
  8
0
 62
7
100
AcDbSpline
 70
8
 71
3
 72
8
 73
4
 74
0
 40
0
 40
0
 40
0
 40
0
 40
1
 40
1
 40
1
 40
1
 10
71.811200
 20
201.597600
 30
0.0
 10
70.479200
 20
200.971200
 30
0.0
 10
69.232800
 20
200.172000
 30
0.0
 10
67.960000
 20
199.416800
 30
0.0
  0
SPLINE
  5
2b4
100
AcDbEntity
  8
0
 62
7
100
AcDbSpline
 70
8
 71
3
 72
8
 73
4
 74
0
 40
0
 40
0
 40
0
 40
0
 40
1
 40
1
 40
1
 40
1
 10
67.960000
 20
199.416800
 30
0.0
 10
61.409600
 20
196.359200
 30
0.0
 10
54.861600
 20
193.300000
 30
0.0
 10
48.310400
 20
190.241600
 30
0.0
  0
SPLINE
  5
2b5
100
AcDbEntity
  8
0
 62
7
100
AcDbSpline
 70
8
 71
3
 72
8
 73
4
 74
0
 40
0
 40
0
 40
0
 40
0
 40
1
 40
1
 40
1
 40
1
 10
48.310400
 20
190.241600
 30
0.0
 10
47.416000
 20
190.111200
 30
0.0
 10
46.541600
 20
189.797600
 30
0.0
 10
45.751200
 20
189.272800
 30
0.0
  0
SPLINE
  5
2b6
100
AcDbEntity
  8
0
 62
7
100
AcDbSpline
 70
8
 71
3
 72
8
 73
4
 74
0
 40
0
 40
0
 40
0
 40
0
 40
1
 40
1
 40
1
 40
1
 10
45.751200
 20
189.272800
 30
0.0
 10
17.787200
 20
170.728800
 30
0.0
 10
-2.936000
 20
138.803200
 30
0.0
 10
0.340800
 20
104.237600
 30
0.0
  0
SPLINE
  5
2b7
100
AcDbEntity
  8
0
 62
7
100
AcDbSpline
 70
8
 71
3
 72
8
 73
4
 74
0
 40
0
 40
0
 40
0
 40
0
 40
1
 40
1
 40
1
 40
1
 10
0.340800
 20
104.237600
 30
0.0
 10
1.996000
 20
86.706400
 30
0.0
 10
8.896000
 20
70.188000
 30
0.0
 10
21.220800
 20
57.957600
 30
0.0
  0
LWPOLYLINE
  5
2b8
100
AcDbEntity
  8
0
 62
7
100
AcDbPolyline
 90
2
 70
1
 10
79.775200
 20
204.936000
 30
0.0
 10
78.698400
 20
204.433600
 30
0.0
  0
LWPOLYLINE
  5
2b9
100
AcDbEntity
  8
0
 62
7
100
AcDbPolyline
 90
2
 70
1
 10
21.220800
 20
57.957600
 30
0.0
 10
21.220800
 20
57.957600
 30
0.0
  0
ENDSEC
  0
SECTION
  2
OBJECTS
  0
DICTIONARY
  5
C
330
0
100
AcDbDictionary
  3
ACAD_GROUP
350
D
  3
ACAD_MLINESTYLE
350
17
  0
DICTIONARY
  5
D
330
C
100
AcDbDictionary
  0
DICTIONARY
  5
1A
330
C
100
AcDbDictionary
  0
DICTIONARY
  5
17
330
C
100
AcDbDictionary
  3
STANDARD
350
18
  0
DICTIONARY
  5
19
330
C
100
AcDbDictionary
  0
ENDSEC
  0
EOF
