solid CATIA STL
  facet normal  0.000000e+000  4.338162e-017 -1.000000e+000
    outer loop
      vertex  3.000000e+001  0.000000e+000  2.837014e-015
      vertex  1.807058e+002  0.000000e+000  2.837014e-015
      vertex  1.900000e+002 -3.468627e+001  1.332268e-015
    endloop
  endfacet
  facet normal -9.679447e-017 -4.031096e-016 -1.000000e+000
    outer loop
      vertex  3.000000e+001  0.000000e+000  2.837014e-015
      vertex  1.900000e+002 -3.468627e+001  1.332268e-015
      vertex  1.700000e+002 -3.361673e+001  2.837014e-015
    endloop
  endfacet
  facet normal  0.000000e+000  0.000000e+000 -1.000000e+000
    outer loop
      vertex  3.000000e+001  0.000000e+000  2.837014e-015
      vertex  1.700000e+002 -3.361673e+001  2.837014e-015
      vertex  1.500000e+002 -3.254718e+001  2.837014e-015
    endloop
  endfacet
  facet normal  0.000000e+000  0.000000e+000 -1.000000e+000
    outer loop
      vertex  3.000000e+001  0.000000e+000  2.837014e-015
      vertex  1.500000e+002 -3.254718e+001  2.837014e-015
      vertex  1.300000e+002 -3.147763e+001  2.837014e-015
    endloop
  endfacet
  facet normal  0.000000e+000  0.000000e+000 -1.000000e+000
    outer loop
      vertex  3.000000e+001  0.000000e+000  2.837014e-015
      vertex  1.300000e+002 -3.147763e+001  2.837014e-015
      vertex  1.100000e+002 -3.040809e+001  2.837014e-015
    endloop
  endfacet
  facet normal  0.000000e+000  0.000000e+000 -1.000000e+000
    outer loop
      vertex  3.000000e+001  0.000000e+000  2.837014e-015
      vertex  1.100000e+002 -3.040809e+001  2.837014e-015
      vertex  9.000000e+001 -2.933854e+001  2.837014e-015
    endloop
  endfacet
  facet normal  0.000000e+000  0.000000e+000 -1.000000e+000
    outer loop
      vertex  3.000000e+001  0.000000e+000  2.837014e-015
      vertex  9.000000e+001 -2.933854e+001  2.837014e-015
      vertex  7.000000e+001 -2.826900e+001  2.837014e-015
    endloop
  endfacet
  facet normal  0.000000e+000  0.000000e+000 -1.000000e+000
    outer loop
      vertex  3.000000e+001  0.000000e+000  2.837014e-015
      vertex  7.000000e+001 -2.826900e+001  2.837014e-015
      vertex  5.000000e+001 -2.719946e+001  2.837014e-015
    endloop
  endfacet
  facet normal  0.000000e+000  0.000000e+000 -1.000000e+000
    outer loop
      vertex  3.000000e+001  0.000000e+000  2.837014e-015
      vertex  5.000000e+001 -2.719946e+001  2.837014e-015
      vertex  3.000000e+001 -2.612991e+001  2.837014e-015
    endloop
  endfacet
  facet normal  0.000000e+000  7.071068e-001 -7.071068e-001
    outer loop
      vertex  3.000000e+001  0.000000e+000  2.837014e-015
      vertex  3.000000e+001  5.000000e+000  5.000000e+000
      vertex  4.867076e+001  5.000000e+000  5.000000e+000
    endloop
  endfacet
  facet normal  0.000000e+000  7.071068e-001 -7.071068e-001
    outer loop
      vertex  3.000000e+001  0.000000e+000  2.837014e-015
      vertex  4.867076e+001  5.000000e+000  5.000000e+000
      vertex  6.734152e+001  5.000000e+000  5.000000e+000
    endloop
  endfacet
  facet normal  0.000000e+000  7.071068e-001 -7.071068e-001
    outer loop
      vertex  3.000000e+001  0.000000e+000  2.837014e-015
      vertex  6.734152e+001  5.000000e+000  5.000000e+000
      vertex  8.601228e+001  5.000000e+000  5.000000e+000
    endloop
  endfacet
  facet normal  0.000000e+000  7.071068e-001 -7.071068e-001
    outer loop
      vertex  3.000000e+001  0.000000e+000  2.837014e-015
      vertex  8.601228e+001  5.000000e+000  5.000000e+000
      vertex  1.046830e+002  5.000000e+000  5.000000e+000
    endloop
  endfacet
  facet normal  0.000000e+000  7.071067e-001 -7.071067e-001
    outer loop
      vertex  3.000000e+001  0.000000e+000  2.837014e-015
      vertex  1.046830e+002  5.000000e+000  5.000000e+000
      vertex  1.233538e+002  5.000000e+000  5.000000e+000
    endloop
  endfacet
  facet normal  0.000000e+000  7.071068e-001 -7.071068e-001
    outer loop
      vertex  3.000000e+001  0.000000e+000  2.837014e-015
      vertex  1.233538e+002  5.000000e+000  5.000000e+000
      vertex  1.420246e+002  5.000000e+000  5.000000e+000
    endloop
  endfacet
  facet normal  0.000000e+000  7.071068e-001 -7.071068e-001
    outer loop
      vertex  3.000000e+001  0.000000e+000  2.837014e-015
      vertex  1.420246e+002  5.000000e+000  5.000000e+000
      vertex  1.606953e+002  5.000000e+000  5.000000e+000
    endloop
  endfacet
  facet normal  0.000000e+000  7.071068e-001 -7.071068e-001
    outer loop
      vertex  3.000000e+001  0.000000e+000  2.837014e-015
      vertex  1.606953e+002  5.000000e+000  5.000000e+000
      vertex  1.793661e+002  5.000000e+000  5.000000e+000
    endloop
  endfacet
  facet normal  0.000000e+000  7.071068e-001 -7.071068e-001
    outer loop
      vertex  3.000000e+001  0.000000e+000  2.837014e-015
      vertex  1.793661e+002  5.000000e+000  5.000000e+000
      vertex  1.807058e+002  0.000000e+000  2.837014e-015
    endloop
  endfacet
  facet normal  0.000000e+000 -1.284057e-001  9.917217e-001
    outer loop
      vertex  1.606953e+002  5.000000e+000  5.000000e+000
      vertex  1.700000e+002 -3.361673e+001  2.837014e-015
      vertex  1.793661e+002  5.000000e+000  5.000000e+000
    endloop
  endfacet
  facet normal -6.780108e-003 -1.267853e-001  9.919070e-001
    outer loop
      vertex  1.700000e+002 -3.361673e+001  2.837014e-015
      vertex  1.900000e+002 -3.468627e+001  1.332268e-015
      vertex  1.793661e+002  5.000000e+000  5.000000e+000
    endloop
  endfacet
  facet normal -6.954751e-003 -1.300506e-001  9.914830e-001
    outer loop
      vertex  1.500000e+002 -3.254718e+001  2.837014e-015
      vertex  1.700000e+002 -3.361673e+001  2.837014e-015
      vertex  1.606953e+002  5.000000e+000  5.000000e+000
    endloop
  endfacet
  facet normal  0.000000e+000 -1.320006e-001  9.912497e-001
    outer loop
      vertex  1.420246e+002  5.000000e+000  5.000000e+000
      vertex  1.500000e+002 -3.254718e+001  2.837014e-015
      vertex  1.606953e+002  5.000000e+000  5.000000e+000
    endloop
  endfacet
  facet normal -7.138518e-003 -1.334869e-001  9.910249e-001
    outer loop
      vertex  1.300000e+002 -3.147763e+001  2.837014e-015
      vertex  1.500000e+002 -3.254718e+001  2.837014e-015
      vertex  1.420246e+002  5.000000e+000  5.000000e+000
    endloop
  endfacet
  facet normal  0.000000e+000 -1.358005e-001  9.907362e-001
    outer loop
      vertex  1.233538e+002  5.000000e+000  5.000000e+000
      vertex  1.300000e+002 -3.147763e+001  2.837014e-015
      vertex  1.420246e+002  5.000000e+000  5.000000e+000
    endloop
  endfacet
  facet normal -7.332151e-003 -1.371080e-001  9.905289e-001
    outer loop
      vertex  1.100000e+002 -3.040809e+001  2.837014e-015
      vertex  1.300000e+002 -3.147763e+001  2.837014e-015
      vertex  1.233538e+002  5.000000e+000  5.000000e+000
    endloop
  endfacet
  facet normal  0.000000e+000 -1.398235e-001  9.901765e-001
    outer loop
      vertex  1.233538e+002  5.000000e+000  5.000000e+000
      vertex  1.046830e+002  5.000000e+000  5.000000e+000
      vertex  1.100000e+002 -3.040809e+001  2.837014e-015
    endloop
  endfacet
  facet normal  0.000000e+000 -1.398235e-001  9.901765e-001
    outer loop
      vertex  1.100000e+002 -3.040809e+001  2.837014e-015
      vertex  1.046830e+002  5.000000e+000  5.000000e+000
      vertex  8.601228e+001  5.000000e+000  5.000000e+000
    endloop
  endfacet
  facet normal -7.752397e-003 -1.449667e-001  9.894061e-001
    outer loop
      vertex  1.100000e+002 -3.040809e+001  2.837014e-015
      vertex  8.601228e+001  5.000000e+000  5.000000e+000
      vertex  9.000000e+001 -2.933854e+001  2.837014e-015
    endloop
  endfacet
  facet normal  0.000000e+000 -1.440895e-001  9.895647e-001
    outer loop
      vertex  9.000000e+001 -2.933854e+001  2.837014e-015
      vertex  8.601228e+001  5.000000e+000  5.000000e+000
      vertex  6.734152e+001  5.000000e+000  5.000000e+000
    endloop
  endfacet
  facet normal -7.980943e-003 -1.492399e-001  9.887688e-001
    outer loop
      vertex  9.000000e+001 -2.933854e+001  2.837014e-015
      vertex  6.734152e+001  5.000000e+000  5.000000e+000
      vertex  7.000000e+001 -2.826900e+001  2.837014e-015
    endloop
  endfacet
  facet normal  0.000000e+000 -1.486210e-001  9.888942e-001
    outer loop
      vertex  7.000000e+001 -2.826900e+001  2.837014e-015
      vertex  6.734152e+001  5.000000e+000  5.000000e+000
      vertex  4.867076e+001  5.000000e+000  5.000000e+000
    endloop
  endfacet
  facet normal -8.223174e-003 -1.537695e-001  9.880726e-001
    outer loop
      vertex  7.000000e+001 -2.826900e+001  2.837014e-015
      vertex  4.867076e+001  5.000000e+000  5.000000e+000
      vertex  5.000000e+001 -2.719946e+001  2.837014e-015
    endloop
  endfacet
  facet normal  0.000000e+000 -1.534432e-001  9.881575e-001
    outer loop
      vertex  5.000000e+001 -2.719946e+001  2.837014e-015
      vertex  4.867076e+001  5.000000e+000  5.000000e+000
      vertex  3.000000e+001  5.000000e+000  5.000000e+000
    endloop
  endfacet
  facet normal -8.480359e-003 -1.585790e-001  9.873099e-001
    outer loop
      vertex  5.000000e+001 -2.719946e+001  2.837014e-015
      vertex  3.000000e+001  5.000000e+000  5.000000e+000
      vertex  3.000000e+001 -2.612991e+001  2.837014e-015
    endloop
  endfacet
  facet normal  9.659258e-001  2.588191e-001  1.163429e-006
    outer loop
      vertex  1.900000e+002 -3.468627e+001  1.332268e-015
      vertex  1.807058e+002  0.000000e+000  2.837014e-015
      vertex  1.793661e+002  5.000000e+000  5.000000e+000
    endloop
  endfacet
  facet normal -1.000000e+000  0.000000e+000  0.000000e+000
    outer loop
      vertex  3.000000e+001 -2.612991e+001  2.837014e-015
      vertex  3.000000e+001  5.000000e+000  5.000000e+000
      vertex  3.000000e+001  0.000000e+000  2.837014e-015
    endloop
  endfacet
endsolid CATIA STL
