solid CATIA STL
  facet normal -9.659259e-001 -2.588188e-001 -1.452529e-006
    outer loop
      vertex -1.300000e+002  5.000000e+000  5.000000e+000
      vertex -1.286602e+002 -2.664535e-015  2.837014e-015
      vertex -1.238635e+002 -1.790171e+001  2.837014e-015
    endloop
  endfacet
  facet normal -8.911476e-003 -1.666405e-001  9.859775e-001
    outer loop
      vertex  1.091524e+000  5.000000e+000  5.000000e+000
      vertex -8.465876e+000 -2.407286e+001  2.837014e-015
      vertex  1.076706e+001 -2.510139e+001  2.837014e-015
    endloop
  endfacet
  facet normal  0.000000e+000 -1.694933e-001  9.855313e-001
    outer loop
      vertex -1.336271e+001  5.000000e+000  5.000000e+000
      vertex -8.465876e+000 -2.407286e+001  2.837014e-015
      vertex  1.091524e+000  5.000000e+000  5.000000e+000
    endloop
  endfacet
  facet normal -9.917478e-003 -1.854523e-001  9.826032e-001
    outer loop
      vertex -5.672543e+001  5.000000e+000  5.000000e+000
      vertex -6.616469e+001 -2.098729e+001  2.837014e-015
      vertex -4.693175e+001 -2.201581e+001  2.837014e-015
    endloop
  endfacet
  facet normal  0.000000e+000 -1.889365e-001  9.819893e-001
    outer loop
      vertex -7.117966e+001  5.000000e+000  5.000000e+000
      vertex -6.616469e+001 -2.098729e+001  2.837014e-015
      vertex -5.672543e+001  5.000000e+000  5.000000e+000
    endloop
  endfacet
  facet normal  0.000000e+000 -2.132999e-001  9.769868e-001
    outer loop
      vertex -1.238635e+002 -1.790171e+001  2.837014e-015
      vertex -1.194085e+002  5.000000e+000  5.000000e+000
      vertex -1.300000e+002  5.000000e+000  5.000000e+000
    endloop
  endfacet
  facet normal -8.444943e-003 -2.060019e-001  9.785151e-001
    outer loop
      vertex -1.046306e+002 -1.893024e+001  2.837014e-015
      vertex -8.563390e+001 -1.500000e+001  9.913619e-001
      vertex -8.763390e+001 -1.500000e+001  9.741011e-001
    endloop
  endfacet
  facet normal -1.055243e-002 -1.973256e-001  9.802812e-001
    outer loop
      vertex -1.046306e+002 -1.893024e+001  2.837014e-015
      vertex -8.763390e+001 -1.500000e+001  9.741011e-001
      vertex -8.763390e+001  5.000000e+000  5.000000e+000
    endloop
  endfacet
  facet normal  0.000000e+000 -2.045240e-001  9.788615e-001
    outer loop
      vertex -1.046306e+002 -1.893024e+001  2.837014e-015
      vertex -8.763390e+001  5.000000e+000  5.000000e+000
      vertex -9.822543e+001  5.000000e+000  5.000000e+000
    endloop
  endfacet
  facet normal  0.000000e+000 -2.045240e-001  9.788616e-001
    outer loop
      vertex -1.046306e+002 -1.893024e+001  2.837014e-015
      vertex -9.822543e+001  5.000000e+000  5.000000e+000
      vertex -1.088170e+002  5.000000e+000  5.000000e+000
    endloop
  endfacet
  facet normal  0.000000e+000 -2.045240e-001  9.788615e-001
    outer loop
      vertex -1.046306e+002 -1.893024e+001  2.837014e-015
      vertex -1.088170e+002  5.000000e+000  5.000000e+000
      vertex -1.194085e+002  5.000000e+000  5.000000e+000
    endloop
  endfacet
  facet normal -1.129380e-002 -2.111888e-001  9.773800e-001
    outer loop
      vertex -1.046306e+002 -1.893024e+001  2.837014e-015
      vertex -1.194085e+002  5.000000e+000  5.000000e+000
      vertex -1.238635e+002 -1.790171e+001  2.837014e-015
    endloop
  endfacet
  facet normal -1.020481e-002 -1.908253e-001  9.815710e-001
    outer loop
      vertex -8.539763e+001 -1.995876e+001  2.837014e-015
      vertex -6.616469e+001 -2.098729e+001  2.837014e-015
      vertex -7.117966e+001  5.000000e+000  5.000000e+000
    endloop
  endfacet
  facet normal  0.000000e+000 -1.964277e-001  9.805183e-001
    outer loop
      vertex -8.539763e+001 -1.995876e+001  2.837014e-015
      vertex -7.117966e+001  5.000000e+000  5.000000e+000
      vertex -8.563390e+001  5.000000e+000  5.000000e+000
    endloop
  endfacet
  facet normal -1.050865e-002 -1.965125e-001  9.804450e-001
    outer loop
      vertex -8.539763e+001 -1.995876e+001  2.837014e-015
      vertex -8.563390e+001  5.000000e+000  5.000000e+000
      vertex -8.563390e+001 -1.497325e+001  9.967232e-001
    endloop
  endfacet
  facet normal -1.053514e-002 -1.965136e-001  9.804446e-001
    outer loop
      vertex -8.539763e+001 -1.995876e+001  2.837014e-015
      vertex -8.563390e+001 -1.497325e+001  9.967232e-001
      vertex -8.563390e+001 -1.500000e+001  9.913619e-001
    endloop
  endfacet
  facet normal -1.050894e-002 -1.965125e-001  9.804451e-001
    outer loop
      vertex -8.539763e+001 -1.995876e+001  2.837014e-015
      vertex -8.563390e+001 -1.500000e+001  9.913619e-001
      vertex -1.046306e+002 -1.893024e+001  2.837014e-015
    endloop
  endfacet
  facet normal  0.000000e+000 -1.638602e-001  9.864836e-001
    outer loop
      vertex  1.091524e+000  5.000000e+000  5.000000e+000
      vertex  1.076706e+001 -2.510139e+001  2.837014e-015
      vertex  1.554576e+001  5.000000e+000  5.000000e+000
    endloop
  endfacet
  facet normal -8.690665e-003 -1.625112e-001  9.866684e-001
    outer loop
      vertex  1.554576e+001  5.000000e+000  5.000000e+000
      vertex  1.076706e+001 -2.510139e+001  2.837014e-015
      vertex  3.000000e+001 -2.612991e+001  2.837014e-015
    endloop
  endfacet
  facet normal  0.000000e+000 -1.585847e-001  9.873453e-001
    outer loop
      vertex  1.554576e+001  5.000000e+000  5.000000e+000
      vertex  3.000000e+001 -2.612991e+001  2.837014e-015
      vertex  3.000000e+001  5.000000e+000  5.000000e+000
    endloop
  endfacet
  facet normal  0.000000e+000 -1.819862e-001  9.833011e-001
    outer loop
      vertex -5.672543e+001  5.000000e+000  5.000000e+000
      vertex -4.693175e+001 -2.201581e+001  2.837014e-015
      vertex -4.227119e+001  5.000000e+000  5.000000e+000
    endloop
  endfacet
  facet normal -9.645617e-003 -1.803686e-001  9.835518e-001
    outer loop
      vertex -4.227119e+001  5.000000e+000  5.000000e+000
      vertex -4.693175e+001 -2.201581e+001  2.837014e-015
      vertex -2.769881e+001 -2.304434e+001  2.837014e-015
    endloop
  endfacet
  facet normal  0.000000e+000 -1.755213e-001  9.844756e-001
    outer loop
      vertex -4.227119e+001  5.000000e+000  5.000000e+000
      vertex -2.769881e+001 -2.304434e+001  2.837014e-015
      vertex -2.781695e+001  5.000000e+000  5.000000e+000
    endloop
  endfacet
  facet normal -9.388031e-003 -1.755519e-001  9.844255e-001
    outer loop
      vertex -2.781695e+001  5.000000e+000  5.000000e+000
      vertex -2.769881e+001 -2.304434e+001  2.837014e-015
      vertex -8.465876e+000 -2.407286e+001  2.837014e-015
    endloop
  endfacet
  facet normal  0.000000e+000 -1.694933e-001  9.855313e-001
    outer loop
      vertex -2.781695e+001  5.000000e+000  5.000000e+000
      vertex -8.465876e+000 -2.407286e+001  2.837014e-015
      vertex -1.336271e+001  5.000000e+000  5.000000e+000
    endloop
  endfacet
  facet normal  0.000000e+000  -0.000000e+000 -1.000000e+000
    outer loop
      vertex -1.286602e+002 -2.664535e-015  2.837014e-015
      vertex  3.000000e+001  0.000000e+000  2.837014e-015
      vertex  3.000000e+001 -2.612991e+001  2.837014e-015
    endloop
  endfacet
  facet normal  0.000000e+000  0.000000e+000 -1.000000e+000
    outer loop
      vertex -1.286602e+002 -2.664535e-015  2.837014e-015
      vertex  3.000000e+001 -2.612991e+001  2.837014e-015
      vertex  1.076706e+001 -2.510139e+001  2.837014e-015
    endloop
  endfacet
  facet normal  0.000000e+000  0.000000e+000 -1.000000e+000
    outer loop
      vertex -1.286602e+002 -2.664535e-015  2.837014e-015
      vertex  1.076706e+001 -2.510139e+001  2.837014e-015
      vertex -8.465876e+000 -2.407286e+001  2.837014e-015
    endloop
  endfacet
  facet normal  0.000000e+000  0.000000e+000 -1.000000e+000
    outer loop
      vertex -1.286602e+002 -2.664535e-015  2.837014e-015
      vertex -8.465876e+000 -2.407286e+001  2.837014e-015
      vertex -2.769881e+001 -2.304434e+001  2.837014e-015
    endloop
  endfacet
  facet normal  0.000000e+000  0.000000e+000 -1.000000e+000
    outer loop
      vertex -1.286602e+002 -2.664535e-015  2.837014e-015
      vertex -2.769881e+001 -2.304434e+001  2.837014e-015
      vertex -4.693175e+001 -2.201581e+001  2.837014e-015
    endloop
  endfacet
  facet normal  0.000000e+000  0.000000e+000 -1.000000e+000
    outer loop
      vertex -1.286602e+002 -2.664535e-015  2.837014e-015
      vertex -4.693175e+001 -2.201581e+001  2.837014e-015
      vertex -6.616469e+001 -2.098729e+001  2.837014e-015
    endloop
  endfacet
  facet normal  0.000000e+000  0.000000e+000 -9.999999e-001
    outer loop
      vertex -1.286602e+002 -2.664535e-015  2.837014e-015
      vertex -6.616469e+001 -2.098729e+001  2.837014e-015
      vertex -8.539763e+001 -1.995876e+001  2.837014e-015
    endloop
  endfacet
  facet normal  0.000000e+000  0.000000e+000 -9.999999e-001
    outer loop
      vertex -1.286602e+002 -2.664535e-015  2.837014e-015
      vertex -8.539763e+001 -1.995876e+001  2.837014e-015
      vertex -1.046306e+002 -1.893024e+001  2.837014e-015
    endloop
  endfacet
  facet normal  0.000000e+000  0.000000e+000 -1.000000e+000
    outer loop
      vertex -1.286602e+002 -2.664535e-015  2.837014e-015
      vertex -1.046306e+002 -1.893024e+001  2.837014e-015
      vertex -1.238635e+002 -1.790171e+001  2.837014e-015
    endloop
  endfacet
  facet normal  0.000000e+000  7.071068e-001 -7.071068e-001
    outer loop
      vertex -1.286602e+002 -2.664535e-015  2.837014e-015
      vertex -1.300000e+002  5.000000e+000  5.000000e+000
      vertex -1.194085e+002  5.000000e+000  5.000000e+000
    endloop
  endfacet
  facet normal  0.000000e+000  7.071068e-001 -7.071068e-001
    outer loop
      vertex -1.286602e+002 -2.664535e-015  2.837014e-015
      vertex -1.194085e+002  5.000000e+000  5.000000e+000
      vertex -1.088170e+002  5.000000e+000  5.000000e+000
    endloop
  endfacet
  facet normal  0.000000e+000  7.071068e-001 -7.071068e-001
    outer loop
      vertex -1.286602e+002 -2.664535e-015  2.837014e-015
      vertex -1.088170e+002  5.000000e+000  5.000000e+000
      vertex -9.822543e+001  5.000000e+000  5.000000e+000
    endloop
  endfacet
  facet normal  0.000000e+000  7.071068e-001 -7.071068e-001
    outer loop
      vertex -1.286602e+002 -2.664535e-015  2.837014e-015
      vertex -9.822543e+001  5.000000e+000  5.000000e+000
      vertex -8.763390e+001  5.000000e+000  5.000000e+000
    endloop
  endfacet
  facet normal  0.000000e+000  7.071068e-001 -7.071068e-001
    outer loop
      vertex -1.286602e+002 -2.664535e-015  2.837014e-015
      vertex -8.763390e+001  5.000000e+000  5.000000e+000
      vertex -8.563390e+001  5.000000e+000  5.000000e+000
    endloop
  endfacet
  facet normal  0.000000e+000  7.071068e-001 -7.071068e-001
    outer loop
      vertex -1.286602e+002 -2.664535e-015  2.837014e-015
      vertex -8.563390e+001  5.000000e+000  5.000000e+000
      vertex -7.117966e+001  5.000000e+000  5.000000e+000
    endloop
  endfacet
  facet normal  0.000000e+000  7.071067e-001 -7.071067e-001
    outer loop
      vertex -1.286602e+002 -2.664535e-015  2.837014e-015
      vertex -7.117966e+001  5.000000e+000  5.000000e+000
      vertex -5.672543e+001  5.000000e+000  5.000000e+000
    endloop
  endfacet
  facet normal  0.000000e+000  7.071068e-001 -7.071068e-001
    outer loop
      vertex -1.286602e+002 -2.664535e-015  2.837014e-015
      vertex -5.672543e+001  5.000000e+000  5.000000e+000
      vertex -4.227119e+001  5.000000e+000  5.000000e+000
    endloop
  endfacet
  facet normal  0.000000e+000  7.071068e-001 -7.071068e-001
    outer loop
      vertex -1.286602e+002 -2.664535e-015  2.837014e-015
      vertex -4.227119e+001  5.000000e+000  5.000000e+000
      vertex -2.781695e+001  5.000000e+000  5.000000e+000
    endloop
  endfacet
  facet normal  0.000000e+000  7.071068e-001 -7.071068e-001
    outer loop
      vertex -1.286602e+002 -2.664535e-015  2.837014e-015
      vertex -2.781695e+001  5.000000e+000  5.000000e+000
      vertex -1.336271e+001  5.000000e+000  5.000000e+000
    endloop
  endfacet
  facet normal  0.000000e+000  7.071068e-001 -7.071068e-001
    outer loop
      vertex -1.286602e+002 -2.664535e-015  2.837014e-015
      vertex -1.336271e+001  5.000000e+000  5.000000e+000
      vertex  1.091524e+000  5.000000e+000  5.000000e+000
    endloop
  endfacet
  facet normal  0.000000e+000  7.071068e-001 -7.071068e-001
    outer loop
      vertex -1.286602e+002 -2.664535e-015  2.837014e-015
      vertex  1.091524e+000  5.000000e+000  5.000000e+000
      vertex  1.554576e+001  5.000000e+000  5.000000e+000
    endloop
  endfacet
  facet normal  0.000000e+000  7.071068e-001 -7.071068e-001
    outer loop
      vertex -1.286602e+002 -2.664535e-015  2.837014e-015
      vertex  1.554576e+001  5.000000e+000  5.000000e+000
      vertex  3.000000e+001  5.000000e+000  5.000000e+000
    endloop
  endfacet
  facet normal  0.000000e+000  7.071068e-001 -7.071068e-001
    outer loop
      vertex -1.286602e+002 -2.664535e-015  2.837014e-015
      vertex  3.000000e+001  5.000000e+000  5.000000e+000
      vertex  3.000000e+001  0.000000e+000  2.837014e-015
    endloop
  endfacet
  facet normal  1.000000e+000  0.000000e+000  0.000000e+000
    outer loop
      vertex  3.000000e+001  5.000000e+000  5.000000e+000
      vertex  3.000000e+001 -2.612991e+001  2.837014e-015
      vertex  3.000000e+001  0.000000e+000  2.837014e-015
    endloop
  endfacet
  facet normal  0.000000e+000 -5.465967e-001  8.373959e-001
    outer loop
      vertex -8.763390e+001  8.856285e-001  1.440888e+001
      vertex -8.563390e+001  8.856285e-001  1.440888e+001
      vertex -8.763390e+001  1.402270e+000  1.474611e+001
    endloop
  endfacet
  facet normal  0.000000e+000 -5.465967e-001  8.373959e-001
    outer loop
      vertex -8.763390e+001  1.402270e+000  1.474611e+001
      vertex -8.563390e+001  8.856285e-001  1.440888e+001
      vertex -8.563390e+001  1.402270e+000  1.474611e+001
    endloop
  endfacet
  facet normal  0.000000e+000 -3.248761e-001  9.457567e-001
    outer loop
      vertex -8.763390e+001  1.402270e+000  1.474611e+001
      vertex -8.563390e+001  1.402270e+000  1.474611e+001
      vertex -8.763390e+001  1.985767e+000  1.494654e+001
    endloop
  endfacet
  facet normal  0.000000e+000 -3.248761e-001  9.457567e-001
    outer loop
      vertex -8.763390e+001  1.985767e+000  1.494654e+001
      vertex -8.563390e+001  1.402270e+000  1.474611e+001
      vertex -8.563390e+001  1.985767e+000  1.494654e+001
    endloop
  endfacet
  facet normal  0.000000e+000 -8.336575e-002  9.965190e-001
    outer loop
      vertex -8.763390e+001  1.985767e+000  1.494654e+001
      vertex -8.563390e+001  1.985767e+000  1.494654e+001
      vertex -8.763390e+001  2.600583e+000  1.499798e+001
    endloop
  endfacet
  facet normal  0.000000e+000 -8.336575e-002  9.965190e-001
    outer loop
      vertex -8.763390e+001  2.600583e+000  1.499798e+001
      vertex -8.563390e+001  1.985767e+000  1.494654e+001
      vertex -8.563390e+001  2.600583e+000  1.499798e+001
    endloop
  endfacet
  facet normal  0.000000e+000  1.632179e-001  9.865901e-001
    outer loop
      vertex -8.763390e+001  2.600583e+000  1.499798e+001
      vertex -8.563390e+001  2.600583e+000  1.499798e+001
      vertex -8.763390e+001  3.209272e+000  1.489728e+001
    endloop
  endfacet
  facet normal  -0.000000e+000  1.632179e-001  9.865901e-001
    outer loop
      vertex -8.763390e+001  3.209272e+000  1.489728e+001
      vertex -8.563390e+001  2.600583e+000  1.499798e+001
      vertex -8.563390e+001  3.209272e+000  1.489728e+001
    endloop
  endfacet
  facet normal  0.000000e+000  3.998626e-001  9.165751e-001
    outer loop
      vertex -8.763390e+001  3.209272e+000  1.489728e+001
      vertex -8.563390e+001  3.209272e+000  1.489728e+001
      vertex -8.763390e+001  3.774765e+000  1.465058e+001
    endloop
  endfacet
  facet normal  -0.000000e+000  3.998626e-001  9.165751e-001
    outer loop
      vertex -8.763390e+001  3.774765e+000  1.465058e+001
      vertex -8.563390e+001  3.209272e+000  1.489728e+001
      vertex -8.563390e+001  3.774765e+000  1.465058e+001
    endloop
  endfacet
  facet normal  0.000000e+000  6.121552e-001  7.907376e-001
    outer loop
      vertex -8.763390e+001  3.774765e+000  1.465058e+001
      vertex -8.563390e+001  3.774765e+000  1.465058e+001
      vertex -8.763390e+001  4.262620e+000  1.427290e+001
    endloop
  endfacet
  facet normal  -0.000000e+000  6.121552e-001  7.907376e-001
    outer loop
      vertex -8.763390e+001  4.262620e+000  1.427290e+001
      vertex -8.563390e+001  3.774765e+000  1.465058e+001
      vertex -8.563390e+001  4.262620e+000  1.427290e+001
    endloop
  endfacet
  facet normal  0.000000e+000  7.871650e-001  6.167424e-001
    outer loop
      vertex -8.763390e+001  4.262620e+000  1.427290e+001
      vertex -8.563390e+001  4.262620e+000  1.427290e+001
      vertex -8.763390e+001  4.643128e+000  1.378725e+001
    endloop
  endfacet
  facet normal  -0.000000e+000  7.871650e-001  6.167424e-001
    outer loop
      vertex -8.763390e+001  4.643128e+000  1.378725e+001
      vertex -8.563390e+001  4.262620e+000  1.427290e+001
      vertex -8.563390e+001  4.643128e+000  1.378725e+001
    endloop
  endfacet
  facet normal  0.000000e+000  9.142346e-001  4.051853e-001
    outer loop
      vertex -8.763390e+001  4.643128e+000  1.378725e+001
      vertex -8.563390e+001  4.643128e+000  1.378725e+001
      vertex -8.763390e+001  4.893112e+000  1.322320e+001
    endloop
  endfacet
  facet normal  -0.000000e+000  9.142346e-001  4.051853e-001
    outer loop
      vertex -8.763390e+001  4.893112e+000  1.322320e+001
      vertex -8.563390e+001  4.643128e+000  1.378725e+001
      vertex -8.563390e+001  4.893112e+000  1.322320e+001
    endloop
  endfacet
  facet normal  0.000000e+000  9.856245e-001  1.689510e-001
    outer loop
      vertex -8.763390e+001  4.893112e+000  1.322320e+001
      vertex -8.563390e+001  4.893112e+000  1.322320e+001
      vertex -8.763390e+001  4.997349e+000  1.261510e+001
    endloop
  endfacet
  facet normal  -0.000000e+000  9.856245e-001  1.689510e-001
    outer loop
      vertex -8.763390e+001  4.997349e+000  1.261510e+001
      vertex -8.563390e+001  4.893112e+000  1.322320e+001
      vertex -8.563390e+001  4.997349e+000  1.261510e+001
    endloop
  endfacet
  facet normal  0.000000e+000  9.969867e-001 -7.757225e-002
    outer loop
      vertex -8.763390e+001  4.997349e+000  1.261510e+001
      vertex -8.563390e+001  4.997349e+000  1.261510e+001
      vertex -8.763390e+001  4.949490e+000  1.200000e+001
    endloop
  endfacet
  facet normal  0.000000e+000  9.969867e-001 -7.757225e-002
    outer loop
      vertex -8.763390e+001  4.949490e+000  1.200000e+001
      vertex -8.563390e+001  4.997349e+000  1.261510e+001
      vertex -8.563390e+001  4.949490e+000  1.200000e+001
    endloop
  endfacet
  facet normal -9.999999e-001  0.000000e+000  0.000000e+000
    outer loop
      vertex -8.563390e+001 -1.497325e+001  9.967232e-001
      vertex -8.563390e+001 -1.500000e+001  9.741011e-001
      vertex -8.563390e+001 -1.500000e+001  9.913619e-001
    endloop
  endfacet
  facet normal  0.000000e+000  1.000000e+000  -0.000000e+000
    outer loop
      vertex -8.563390e+001 -1.500000e+001  9.913619e-001
      vertex -8.563390e+001 -1.500000e+001  9.741011e-001
      vertex -8.763390e+001 -1.500000e+001  9.741011e-001
    endloop
  endfacet
  facet normal  0.000000e+000 -6.457520e-001  7.635471e-001
    outer loop
      vertex -8.563390e+001 -1.500000e+001  9.741011e-001
      vertex -8.563390e+001 -1.497325e+001  9.967232e-001
      vertex -8.763390e+001 -1.500000e+001  9.741011e-001
    endloop
  endfacet
  facet normal -7.927897e-008 -6.457486e-001  7.635500e-001
    outer loop
      vertex -8.763390e+001 -1.500000e+001  9.741011e-001
      vertex -8.563390e+001 -1.497325e+001  9.967232e-001
      vertex -8.563390e+001  8.856285e-001  1.440888e+001
    endloop
  endfacet
  facet normal  0.000000e+000 -6.457486e-001  7.635500e-001
    outer loop
      vertex -8.763390e+001 -1.500000e+001  9.741011e-001
      vertex -8.563390e+001  8.856285e-001  1.440888e+001
      vertex -8.763390e+001  8.856285e-001  1.440888e+001
    endloop
  endfacet
  facet normal  0.000000e+000 -2.588181e-001  9.659261e-001
    outer loop
      vertex -8.763390e+001  2.500000e+000  1.200000e+001
      vertex -8.563390e+001  2.750000e+000  1.206699e+001
      vertex -8.763390e+001  2.750000e+000  1.206699e+001
    endloop
  endfacet
  facet normal  0.000000e+000 -7.071072e-001  7.071063e-001
    outer loop
      vertex -8.763390e+001  2.750000e+000  1.206699e+001
      vertex -8.563390e+001  2.750000e+000  1.206699e+001
      vertex -8.563390e+001  2.933013e+000  1.225000e+001
    endloop
  endfacet
  facet normal  0.000000e+000 -7.071072e-001  7.071063e-001
    outer loop
      vertex -8.763390e+001  2.750000e+000  1.206699e+001
      vertex -8.563390e+001  2.933013e+000  1.225000e+001
      vertex -8.763390e+001  2.933013e+000  1.225000e+001
    endloop
  endfacet
  facet normal  0.000000e+000 -9.659258e-001  2.588190e-001
    outer loop
      vertex -8.763390e+001  2.933013e+000  1.225000e+001
      vertex -8.563390e+001  2.933013e+000  1.225000e+001
      vertex -8.563390e+001  3.000000e+000  1.250000e+001
    endloop
  endfacet
  facet normal  0.000000e+000 -9.659258e-001  2.588190e-001
    outer loop
      vertex -8.763390e+001  2.933013e+000  1.225000e+001
      vertex -8.563390e+001  3.000000e+000  1.250000e+001
      vertex -8.763390e+001  3.000000e+000  1.250000e+001
    endloop
  endfacet
  facet normal  0.000000e+000 -2.588181e-001  9.659261e-001
    outer loop
      vertex -8.563390e+001  2.750000e+000  1.206699e+001
      vertex -8.763390e+001  2.500000e+000  1.200000e+001
      vertex -8.563390e+001  2.500000e+000  1.200000e+001
    endloop
  endfacet
  facet normal  0.000000e+000  2.588181e-001  9.659261e-001
    outer loop
      vertex -8.563390e+001  2.500000e+000  1.200000e+001
      vertex -8.763390e+001  2.500000e+000  1.200000e+001
      vertex -8.763390e+001  2.250000e+000  1.206699e+001
    endloop
  endfacet
  facet normal  -0.000000e+000  2.588181e-001  9.659261e-001
    outer loop
      vertex -8.563390e+001  2.500000e+000  1.200000e+001
      vertex -8.763390e+001  2.250000e+000  1.206699e+001
      vertex -8.563390e+001  2.250000e+000  1.206699e+001
    endloop
  endfacet
  facet normal  0.000000e+000  7.071072e-001  7.071063e-001
    outer loop
      vertex -8.563390e+001  2.250000e+000  1.206699e+001
      vertex -8.763390e+001  2.250000e+000  1.206699e+001
      vertex -8.763390e+001  2.066987e+000  1.225000e+001
    endloop
  endfacet
  facet normal  -0.000000e+000  7.071072e-001  7.071063e-001
    outer loop
      vertex -8.563390e+001  2.250000e+000  1.206699e+001
      vertex -8.763390e+001  2.066987e+000  1.225000e+001
      vertex -8.563390e+001  2.066987e+000  1.225000e+001
    endloop
  endfacet
  facet normal  0.000000e+000  9.659258e-001  2.588190e-001
    outer loop
      vertex -8.563390e+001  2.066987e+000  1.225000e+001
      vertex -8.763390e+001  2.066987e+000  1.225000e+001
      vertex -8.763390e+001  2.000000e+000  1.250000e+001
    endloop
  endfacet
  facet normal  -0.000000e+000  9.659258e-001  2.588190e-001
    outer loop
      vertex -8.563390e+001  2.066987e+000  1.225000e+001
      vertex -8.763390e+001  2.000000e+000  1.250000e+001
      vertex -8.563390e+001  2.000000e+000  1.250000e+001
    endloop
  endfacet
  facet normal  0.000000e+000  2.588181e-001 -9.659261e-001
    outer loop
      vertex -8.763390e+001  2.500000e+000  1.300000e+001
      vertex -8.563390e+001  2.250000e+000  1.293301e+001
      vertex -8.763390e+001  2.250000e+000  1.293301e+001
    endloop
  endfacet
  facet normal  0.000000e+000  7.071072e-001 -7.071063e-001
    outer loop
      vertex -8.763390e+001  2.250000e+000  1.293301e+001
      vertex -8.563390e+001  2.250000e+000  1.293301e+001
      vertex -8.563390e+001  2.066987e+000  1.275000e+001
    endloop
  endfacet
  facet normal  0.000000e+000  7.071072e-001 -7.071063e-001
    outer loop
      vertex -8.763390e+001  2.250000e+000  1.293301e+001
      vertex -8.563390e+001  2.066987e+000  1.275000e+001
      vertex -8.763390e+001  2.066987e+000  1.275000e+001
    endloop
  endfacet
  facet normal  0.000000e+000  9.659258e-001 -2.588190e-001
    outer loop
      vertex -8.763390e+001  2.066987e+000  1.275000e+001
      vertex -8.563390e+001  2.066987e+000  1.275000e+001
      vertex -8.563390e+001  2.000000e+000  1.250000e+001
    endloop
  endfacet
  facet normal  0.000000e+000  9.659258e-001 -2.588190e-001
    outer loop
      vertex -8.763390e+001  2.066987e+000  1.275000e+001
      vertex -8.563390e+001  2.000000e+000  1.250000e+001
      vertex -8.763390e+001  2.000000e+000  1.250000e+001
    endloop
  endfacet
  facet normal  0.000000e+000  2.588181e-001 -9.659261e-001
    outer loop
      vertex -8.563390e+001  2.250000e+000  1.293301e+001
      vertex -8.763390e+001  2.500000e+000  1.300000e+001
      vertex -8.563390e+001  2.500000e+000  1.300000e+001
    endloop
  endfacet
  facet normal  -0.000000e+000 -2.588181e-001 -9.659261e-001
    outer loop
      vertex -8.563390e+001  2.500000e+000  1.300000e+001
      vertex -8.763390e+001  2.500000e+000  1.300000e+001
      vertex -8.763390e+001  2.750000e+000  1.293301e+001
    endloop
  endfacet
  facet normal  0.000000e+000 -2.588181e-001 -9.659261e-001
    outer loop
      vertex -8.563390e+001  2.500000e+000  1.300000e+001
      vertex -8.763390e+001  2.750000e+000  1.293301e+001
      vertex -8.563390e+001  2.750000e+000  1.293301e+001
    endloop
  endfacet
  facet normal  -0.000000e+000 -7.071072e-001 -7.071063e-001
    outer loop
      vertex -8.563390e+001  2.750000e+000  1.293301e+001
      vertex -8.763390e+001  2.750000e+000  1.293301e+001
      vertex -8.763390e+001  2.933013e+000  1.275000e+001
    endloop
  endfacet
  facet normal  0.000000e+000 -7.071072e-001 -7.071063e-001
    outer loop
      vertex -8.563390e+001  2.750000e+000  1.293301e+001
      vertex -8.763390e+001  2.933013e+000  1.275000e+001
      vertex -8.563390e+001  2.933013e+000  1.275000e+001
    endloop
  endfacet
  facet normal  -0.000000e+000 -9.659258e-001 -2.588190e-001
    outer loop
      vertex -8.563390e+001  2.933013e+000  1.275000e+001
      vertex -8.763390e+001  2.933013e+000  1.275000e+001
      vertex -8.763390e+001  3.000000e+000  1.250000e+001
    endloop
  endfacet
  facet normal  0.000000e+000 -9.659258e-001 -2.588190e-001
    outer loop
      vertex -8.563390e+001  2.933013e+000  1.275000e+001
      vertex -8.763390e+001  3.000000e+000  1.250000e+001
      vertex -8.563390e+001  3.000000e+000  1.250000e+001
    endloop
  endfacet
  facet normal  0.000000e+000  0.000000e+000  1.000000e+000
    outer loop
      vertex -8.563390e+001  4.949490e+000  1.200000e+001
      vertex -8.563390e+001  5.000000e+000  1.200000e+001
      vertex -8.763390e+001  4.949490e+000  1.200000e+001
    endloop
  endfacet
  facet normal  0.000000e+000  0.000000e+000  1.000000e+000
    outer loop
      vertex -8.763390e+001  4.949490e+000  1.200000e+001
      vertex -8.563390e+001  5.000000e+000  1.200000e+001
      vertex -8.763390e+001  5.000000e+000  1.200000e+001
    endloop
  endfacet
  facet normal  9.999999e-001  0.000000e+000  0.000000e+000
    outer loop
      vertex -8.563390e+001  2.933013e+000  1.275000e+001
      vertex -8.563390e+001  3.209272e+000  1.489728e+001
      vertex -8.563390e+001  2.750000e+000  1.293301e+001
    endloop
  endfacet
  facet normal  1.000000e+000  0.000000e+000  -0.000000e+000
    outer loop
      vertex -8.563390e+001  3.000000e+000  1.250000e+001
      vertex -8.563390e+001  4.949490e+000  1.200000e+001
      vertex -8.563390e+001  4.997349e+000  1.261510e+001
    endloop
  endfacet
  facet normal  1.000000e+000  0.000000e+000  0.000000e+000
    outer loop
      vertex -8.563390e+001  3.000000e+000  1.250000e+001
      vertex -8.563390e+001  4.997349e+000  1.261510e+001
      vertex -8.563390e+001  4.893112e+000  1.322320e+001
    endloop
  endfacet
  facet normal  1.000000e+000  0.000000e+000  0.000000e+000
    outer loop
      vertex -8.563390e+001  3.000000e+000  1.250000e+001
      vertex -8.563390e+001  4.893112e+000  1.322320e+001
      vertex -8.563390e+001  4.643128e+000  1.378725e+001
    endloop
  endfacet
  facet normal  1.000000e+000  0.000000e+000  0.000000e+000
    outer loop
      vertex -8.563390e+001  3.000000e+000  1.250000e+001
      vertex -8.563390e+001  4.643128e+000  1.378725e+001
      vertex -8.563390e+001  4.262620e+000  1.427290e+001
    endloop
  endfacet
  facet normal  1.000000e+000  0.000000e+000  0.000000e+000
    outer loop
      vertex -8.563390e+001  3.000000e+000  1.250000e+001
      vertex -8.563390e+001  4.262620e+000  1.427290e+001
      vertex -8.563390e+001  3.774765e+000  1.465058e+001
    endloop
  endfacet
  facet normal  1.000000e+000  0.000000e+000  0.000000e+000
    outer loop
      vertex -8.563390e+001  3.000000e+000  1.250000e+001
      vertex -8.563390e+001  3.774765e+000  1.465058e+001
      vertex -8.563390e+001  3.209272e+000  1.489728e+001
    endloop
  endfacet
  facet normal  9.999999e-001  0.000000e+000  0.000000e+000
    outer loop
      vertex -8.563390e+001  3.000000e+000  1.250000e+001
      vertex -8.563390e+001  3.209272e+000  1.489728e+001
      vertex -8.563390e+001  2.933013e+000  1.275000e+001
    endloop
  endfacet
  facet normal  9.999999e-001  0.000000e+000  0.000000e+000
    outer loop
      vertex -8.563390e+001  5.000000e+000  5.000000e+000
      vertex -8.563390e+001  5.000000e+000  1.200000e+001
      vertex -8.563390e+001  4.949490e+000  1.200000e+001
    endloop
  endfacet
  facet normal  1.000000e+000  0.000000e+000  0.000000e+000
    outer loop
      vertex -8.563390e+001  5.000000e+000  5.000000e+000
      vertex -8.563390e+001  4.949490e+000  1.200000e+001
      vertex -8.563390e+001  3.000000e+000  1.250000e+001
    endloop
  endfacet
  facet normal  1.000000e+000  0.000000e+000  0.000000e+000
    outer loop
      vertex -8.563390e+001  5.000000e+000  5.000000e+000
      vertex -8.563390e+001  3.000000e+000  1.250000e+001
      vertex -8.563390e+001  2.933013e+000  1.225000e+001
    endloop
  endfacet
  facet normal  9.999999e-001  0.000000e+000  0.000000e+000
    outer loop
      vertex -8.563390e+001  5.000000e+000  5.000000e+000
      vertex -8.563390e+001  2.933013e+000  1.225000e+001
      vertex -8.563390e+001  2.750000e+000  1.206699e+001
    endloop
  endfacet
  facet normal  1.000000e+000  0.000000e+000  0.000000e+000
    outer loop
      vertex -8.563390e+001  5.000000e+000  5.000000e+000
      vertex -8.563390e+001  2.750000e+000  1.206699e+001
      vertex -8.563390e+001  2.500000e+000  1.200000e+001
    endloop
  endfacet
  facet normal  1.000000e+000  0.000000e+000  0.000000e+000
    outer loop
      vertex -8.563390e+001  5.000000e+000  5.000000e+000
      vertex -8.563390e+001  2.500000e+000  1.200000e+001
      vertex -8.563390e+001  2.250000e+000  1.206699e+001
    endloop
  endfacet
  facet normal  1.000000e+000  0.000000e+000  0.000000e+000
    outer loop
      vertex -8.563390e+001  5.000000e+000  5.000000e+000
      vertex -8.563390e+001  2.250000e+000  1.206699e+001
      vertex -8.563390e+001  2.066987e+000  1.225000e+001
    endloop
  endfacet
  facet normal  1.000000e+000  0.000000e+000  0.000000e+000
    outer loop
      vertex -8.563390e+001  5.000000e+000  5.000000e+000
      vertex -8.563390e+001  2.066987e+000  1.225000e+001
      vertex -8.563390e+001 -1.497325e+001  9.967232e-001
    endloop
  endfacet
  facet normal  1.000000e+000  0.000000e+000  0.000000e+000
    outer loop
      vertex -8.563390e+001  1.402270e+000  1.474611e+001
      vertex -8.563390e+001  8.856285e-001  1.440888e+001
      vertex -8.563390e+001  1.985767e+000  1.494654e+001
    endloop
  endfacet
  facet normal  1.000000e+000  0.000000e+000  0.000000e+000
    outer loop
      vertex -8.563390e+001  1.985767e+000  1.494654e+001
      vertex -8.563390e+001  8.856285e-001  1.440888e+001
      vertex -8.563390e+001  2.000000e+000  1.250000e+001
    endloop
  endfacet
  facet normal  1.000000e+000  0.000000e+000  0.000000e+000
    outer loop
      vertex -8.563390e+001  8.856285e-001  1.440888e+001
      vertex -8.563390e+001 -1.497325e+001  9.967232e-001
      vertex -8.563390e+001  2.000000e+000  1.250000e+001
    endloop
  endfacet
  facet normal  1.000000e+000  0.000000e+000  0.000000e+000
    outer loop
      vertex -8.563390e+001  2.000000e+000  1.250000e+001
      vertex -8.563390e+001 -1.497325e+001  9.967232e-001
      vertex -8.563390e+001  2.066987e+000  1.225000e+001
    endloop
  endfacet
  facet normal  1.000000e+000  0.000000e+000  0.000000e+000
    outer loop
      vertex -8.563390e+001  2.000000e+000  1.250000e+001
      vertex -8.563390e+001  2.066987e+000  1.275000e+001
      vertex -8.563390e+001  1.985767e+000  1.494654e+001
    endloop
  endfacet
  facet normal  9.999999e-001  0.000000e+000  0.000000e+000
    outer loop
      vertex -8.563390e+001  1.985767e+000  1.494654e+001
      vertex -8.563390e+001  2.066987e+000  1.275000e+001
      vertex -8.563390e+001  2.250000e+000  1.293301e+001
    endloop
  endfacet
  facet normal  1.000000e+000  0.000000e+000  -0.000000e+000
    outer loop
      vertex -8.563390e+001  1.985767e+000  1.494654e+001
      vertex -8.563390e+001  2.250000e+000  1.293301e+001
      vertex -8.563390e+001  2.600583e+000  1.499798e+001
    endloop
  endfacet
  facet normal  1.000000e+000  0.000000e+000  -0.000000e+000
    outer loop
      vertex -8.563390e+001  2.250000e+000  1.293301e+001
      vertex -8.563390e+001  2.500000e+000  1.300000e+001
      vertex -8.563390e+001  2.600583e+000  1.499798e+001
    endloop
  endfacet
  facet normal  1.000000e+000  0.000000e+000  0.000000e+000
    outer loop
      vertex -8.563390e+001  2.600583e+000  1.499798e+001
      vertex -8.563390e+001  2.500000e+000  1.300000e+001
      vertex -8.563390e+001  2.750000e+000  1.293301e+001
    endloop
  endfacet
  facet normal  1.000000e+000  0.000000e+000  -0.000000e+000
    outer loop
      vertex -8.563390e+001  2.600583e+000  1.499798e+001
      vertex -8.563390e+001  2.750000e+000  1.293301e+001
      vertex -8.563390e+001  3.209272e+000  1.489728e+001
    endloop
  endfacet
  facet normal -9.999999e-001  -0.000000e+000  -0.000000e+000
    outer loop
      vertex -8.763390e+001  4.949490e+000  1.200000e+001
      vertex -8.763390e+001  5.000000e+000  1.200000e+001
      vertex -8.763390e+001  5.000000e+000  5.000000e+000
    endloop
  endfacet
  facet normal -1.000000e+000  -0.000000e+000  0.000000e+000
    outer loop
      vertex -8.763390e+001  4.949490e+000  1.200000e+001
      vertex -8.763390e+001  5.000000e+000  5.000000e+000
      vertex -8.763390e+001 -1.500000e+001  9.741011e-001
    endloop
  endfacet
  facet normal -9.999999e-001  0.000000e+000  0.000000e+000
    outer loop
      vertex -8.763390e+001  4.949490e+000  1.200000e+001
      vertex -8.763390e+001 -1.500000e+001  9.741011e-001
      vertex -8.763390e+001  2.750000e+000  1.206699e+001
    endloop
  endfacet
  facet normal -9.999999e-001  0.000000e+000  0.000000e+000
    outer loop
      vertex -8.763390e+001  4.949490e+000  1.200000e+001
      vertex -8.763390e+001  2.750000e+000  1.206699e+001
      vertex -8.763390e+001  2.933013e+000  1.225000e+001
    endloop
  endfacet
  facet normal -1.000000e+000  0.000000e+000  0.000000e+000
    outer loop
      vertex -8.763390e+001  4.949490e+000  1.200000e+001
      vertex -8.763390e+001  2.933013e+000  1.225000e+001
      vertex -8.763390e+001  3.000000e+000  1.250000e+001
    endloop
  endfacet
  facet normal -1.000000e+000  0.000000e+000  0.000000e+000
    outer loop
      vertex -8.763390e+001  4.949490e+000  1.200000e+001
      vertex -8.763390e+001  3.000000e+000  1.250000e+001
      vertex -8.763390e+001  4.893112e+000  1.322320e+001
    endloop
  endfacet
  facet normal -1.000000e+000  0.000000e+000  0.000000e+000
    outer loop
      vertex -8.763390e+001  4.949490e+000  1.200000e+001
      vertex -8.763390e+001  4.893112e+000  1.322320e+001
      vertex -8.763390e+001  4.997349e+000  1.261510e+001
    endloop
  endfacet
  facet normal -1.000000e+000  0.000000e+000  -0.000000e+000
    outer loop
      vertex -8.763390e+001 -1.500000e+001  9.741011e-001
      vertex -8.763390e+001  8.856285e-001  1.440888e+001
      vertex -8.763390e+001  2.000000e+000  1.250000e+001
    endloop
  endfacet
  facet normal -1.000000e+000  0.000000e+000  -0.000000e+000
    outer loop
      vertex -8.763390e+001 -1.500000e+001  9.741011e-001
      vertex -8.763390e+001  2.000000e+000  1.250000e+001
      vertex -8.763390e+001  2.066987e+000  1.225000e+001
    endloop
  endfacet
  facet normal -1.000000e+000  0.000000e+000  -0.000000e+000
    outer loop
      vertex -8.763390e+001 -1.500000e+001  9.741011e-001
      vertex -8.763390e+001  2.066987e+000  1.225000e+001
      vertex -8.763390e+001  2.250000e+000  1.206699e+001
    endloop
  endfacet
  facet normal -1.000000e+000  0.000000e+000  -0.000000e+000
    outer loop
      vertex -8.763390e+001 -1.500000e+001  9.741011e-001
      vertex -8.763390e+001  2.250000e+000  1.206699e+001
      vertex -8.763390e+001  2.500000e+000  1.200000e+001
    endloop
  endfacet
  facet normal -1.000000e+000  0.000000e+000  -0.000000e+000
    outer loop
      vertex -8.763390e+001 -1.500000e+001  9.741011e-001
      vertex -8.763390e+001  2.500000e+000  1.200000e+001
      vertex -8.763390e+001  2.750000e+000  1.206699e+001
    endloop
  endfacet
  facet normal -1.000000e+000  0.000000e+000  -0.000000e+000
    outer loop
      vertex -8.763390e+001  3.000000e+000  1.250000e+001
      vertex -8.763390e+001  3.209272e+000  1.489728e+001
      vertex -8.763390e+001  3.774765e+000  1.465058e+001
    endloop
  endfacet
  facet normal -1.000000e+000  0.000000e+000  -0.000000e+000
    outer loop
      vertex -8.763390e+001  3.000000e+000  1.250000e+001
      vertex -8.763390e+001  3.774765e+000  1.465058e+001
      vertex -8.763390e+001  4.262620e+000  1.427290e+001
    endloop
  endfacet
  facet normal -1.000000e+000  0.000000e+000  -0.000000e+000
    outer loop
      vertex -8.763390e+001  3.000000e+000  1.250000e+001
      vertex -8.763390e+001  4.262620e+000  1.427290e+001
      vertex -8.763390e+001  4.643128e+000  1.378725e+001
    endloop
  endfacet
  facet normal -1.000000e+000  0.000000e+000  -0.000000e+000
    outer loop
      vertex -8.763390e+001  3.000000e+000  1.250000e+001
      vertex -8.763390e+001  4.643128e+000  1.378725e+001
      vertex -8.763390e+001  4.893112e+000  1.322320e+001
    endloop
  endfacet
  facet normal -1.000000e+000  -0.000000e+000  0.000000e+000
    outer loop
      vertex -8.763390e+001  2.600583e+000  1.499798e+001
      vertex -8.763390e+001  3.209272e+000  1.489728e+001
      vertex -8.763390e+001  3.000000e+000  1.250000e+001
    endloop
  endfacet
  facet normal -1.000000e+000  0.000000e+000  0.000000e+000
    outer loop
      vertex -8.763390e+001  2.600583e+000  1.499798e+001
      vertex -8.763390e+001  3.000000e+000  1.250000e+001
      vertex -8.763390e+001  2.933013e+000  1.275000e+001
    endloop
  endfacet
  facet normal -1.000000e+000  0.000000e+000  0.000000e+000
    outer loop
      vertex -8.763390e+001  2.600583e+000  1.499798e+001
      vertex -8.763390e+001  2.933013e+000  1.275000e+001
      vertex -8.763390e+001  2.750000e+000  1.293301e+001
    endloop
  endfacet
  facet normal -1.000000e+000  0.000000e+000  0.000000e+000
    outer loop
      vertex -8.763390e+001  2.600583e+000  1.499798e+001
      vertex -8.763390e+001  2.750000e+000  1.293301e+001
      vertex -8.763390e+001  2.500000e+000  1.300000e+001
    endloop
  endfacet
  facet normal -9.999999e-001  0.000000e+000  0.000000e+000
    outer loop
      vertex -8.763390e+001  1.985767e+000  1.494654e+001
      vertex -8.763390e+001  2.600583e+000  1.499798e+001
      vertex -8.763390e+001  2.500000e+000  1.300000e+001
    endloop
  endfacet
  facet normal -1.000000e+000  -0.000000e+000  0.000000e+000
    outer loop
      vertex -8.763390e+001  1.985767e+000  1.494654e+001
      vertex -8.763390e+001  2.500000e+000  1.300000e+001
      vertex -8.763390e+001  2.250000e+000  1.293301e+001
    endloop
  endfacet
  facet normal -9.999999e-001  -0.000000e+000  0.000000e+000
    outer loop
      vertex -8.763390e+001  1.985767e+000  1.494654e+001
      vertex -8.763390e+001  2.250000e+000  1.293301e+001
      vertex -8.763390e+001  2.066987e+000  1.275000e+001
    endloop
  endfacet
  facet normal -1.000000e+000  -0.000000e+000  0.000000e+000
    outer loop
      vertex -8.763390e+001  1.985767e+000  1.494654e+001
      vertex -8.763390e+001  2.066987e+000  1.275000e+001
      vertex -8.763390e+001  2.000000e+000  1.250000e+001
    endloop
  endfacet
  facet normal -1.000000e+000  0.000000e+000  0.000000e+000
    outer loop
      vertex -8.763390e+001  1.985767e+000  1.494654e+001
      vertex -8.763390e+001  2.000000e+000  1.250000e+001
      vertex -8.763390e+001  8.856285e-001  1.440888e+001
    endloop
  endfacet
  facet normal -1.000000e+000  0.000000e+000  0.000000e+000
    outer loop
      vertex -8.763390e+001  1.985767e+000  1.494654e+001
      vertex -8.763390e+001  8.856285e-001  1.440888e+001
      vertex -8.763390e+001  1.402270e+000  1.474611e+001
    endloop
  endfacet
  facet normal  0.000000e+000  1.000000e+000  0.000000e+000
    outer loop
      vertex -8.563390e+001  5.000000e+000  5.000000e+000
      vertex -8.763390e+001  5.000000e+000  5.000000e+000
      vertex -8.563390e+001  5.000000e+000  1.200000e+001
    endloop
  endfacet
  facet normal  0.000000e+000  1.000000e+000  0.000000e+000
    outer loop
      vertex -8.563390e+001  5.000000e+000  1.200000e+001
      vertex -8.763390e+001  5.000000e+000  5.000000e+000
      vertex -8.763390e+001  5.000000e+000  1.200000e+001
    endloop
  endfacet
endsolid CATIA STL
